<?xml version="1.0" encoding="utf-8"?>
<!-- Generator: Adobe Illustrator 18.0.0, SVG Export Plug-In . SVG Version: 6.00 Build 0)  -->
<!DOCTYPE svg PUBLIC "-//W3C//DTD SVG 1.1//EN" "http://www.w3.org/Graphics/SVG/1.1/DTD/svg11.dtd" [
	<!ENTITY ns_extend "http://ns.adobe.com/Extensibility/1.0/">
	<!ENTITY ns_ai "http://ns.adobe.com/AdobeIllustrator/10.0/">
	<!ENTITY ns_graphs "http://ns.adobe.com/Graphs/1.0/">
	<!ENTITY ns_vars "http://ns.adobe.com/Variables/1.0/">
	<!ENTITY ns_imrep "http://ns.adobe.com/ImageReplacement/1.0/">
	<!ENTITY ns_sfw "http://ns.adobe.com/SaveForWeb/1.0/">
	<!ENTITY ns_custom "http://ns.adobe.com/GenericCustomNamespace/1.0/">
	<!ENTITY ns_adobe_xpath "http://ns.adobe.com/XPath/1.0/">
]>
<svg version="1.1" id="Capa_1" xmlns:x="&ns_extend;" xmlns:i="&ns_ai;" xmlns:graph="&ns_graphs;"
	 xmlns="http://www.w3.org/2000/svg" xmlns:xlink="http://www.w3.org/1999/xlink" x="0px" y="0px" viewBox="0 0 60 60"
	 style="enable-background:new 0 0 60 60;" xml:space="preserve">
<metadata>
	<sfw  xmlns="&ns_sfw;">
		<slices></slices>
		<sliceSourceBounds  width="379.4" height="59.4" x="0.7" y="-59.7" bottomLeftOrigin="true"></sliceSourceBounds>
	</sfw>
</metadata>
<g>
	<circle style="fill:#330099;" cx="30.4" cy="30" r="29.7"/>
	<path style="fill:#00CC66;" d="M23.6,45.2c-0.8,0-1.4-0.3-1.9-0.8c-0.5-0.5-0.8-1.2-0.8-1.9s0.3-1.4,0.8-1.9
		c0.5-0.5,1.2-0.8,1.9-0.8c0.7,0,1.4,0.3,1.9,0.8c0.5,0.5,0.8,1.2,0.8,1.9s-0.3,1.4-0.8,1.9C25,44.9,24.4,45.2,23.6,45.2z
		 M38.8,45.2c-0.8,0-1.4-0.3-1.9-0.8c-0.5-0.5-0.8-1.2-0.8-1.9s0.3-1.4,0.8-1.9c0.5-0.5,1.2-0.8,1.9-0.8c0.7,0,1.4,0.3,1.9,0.8
		c0.5,0.5,0.8,1.2,0.8,1.9s-0.3,1.4-0.8,1.9C40.2,44.9,39.6,45.2,38.8,45.2z M21.6,20.1l4.2,8.7h10.9l4.8-8.7H21.6z M23.2,37.3
		c-1.1,0-1.8-0.4-2.3-1.1s-0.5-1.5,0-2.4l2.4-4.5l-5.8-12.2h-1.9c-0.3,0-0.6-0.1-0.8-0.3c-0.2-0.2-0.3-0.5-0.3-0.8
		c0-0.3,0.1-0.6,0.3-0.8c0.2-0.2,0.5-0.3,0.8-0.3h2.6c0.2,0,0.4,0.1,0.6,0.2s0.3,0.3,0.4,0.5l1.1,2.4h22.4c0.8,0,1.3,0.2,1.5,0.7
		c0.2,0.5,0.1,1-0.2,1.7l-5.1,9.2c-0.3,0.4-0.6,0.8-1.1,1.1c-0.5,0.3-1,0.5-1.5,0.5H25l-2.1,4h17.6c0.3,0,0.6,0.1,0.8,0.3
		c0.2,0.2,0.3,0.5,0.3,0.8c0,0.3-0.1,0.6-0.3,0.8s-0.5,0.3-0.8,0.3L23.2,37.3z M25.8,28.8h10.9H25.8z"/>
</g>
</svg>
