<?xml version="1.0" encoding="utf-8"?>
<!-- Generator: Adobe Illustrator 18.0.0, SVG Export Plug-In . SVG Version: 6.00 Build 0)  -->
<!DOCTYPE svg PUBLIC "-//W3C//DTD SVG 1.1//EN" "http://www.w3.org/Graphics/SVG/1.1/DTD/svg11.dtd" [
	<!ENTITY ns_extend "http://ns.adobe.com/Extensibility/1.0/">
	<!ENTITY ns_ai "http://ns.adobe.com/AdobeIllustrator/10.0/">
	<!ENTITY ns_graphs "http://ns.adobe.com/Graphs/1.0/">
	<!ENTITY ns_vars "http://ns.adobe.com/Variables/1.0/">
	<!ENTITY ns_imrep "http://ns.adobe.com/ImageReplacement/1.0/">
	<!ENTITY ns_sfw "http://ns.adobe.com/SaveForWeb/1.0/">
	<!ENTITY ns_custom "http://ns.adobe.com/GenericCustomNamespace/1.0/">
	<!ENTITY ns_adobe_xpath "http://ns.adobe.com/XPath/1.0/">
]>
<svg version="1.1" xmlns:x="&ns_extend;" xmlns:i="&ns_ai;" xmlns:graph="&ns_graphs;"
	 xmlns="http://www.w3.org/2000/svg" xmlns:xlink="http://www.w3.org/1999/xlink" x="0px" y="0px" viewBox="0 0 112 164"
	 style="enable-background:new 0 0 112 164;" xml:space="preserve">
<metadata>
	<sfw  xmlns="&ns_sfw;">
		<slices></slices>
		<sliceSourceBounds  width="1819.3" height="163.1" x="93.7" y="-163.5" bottomLeftOrigin="true"></sliceSourceBounds>
	</sfw>
</metadata>
<g id="Capa_1">
	<g>
		<path style="fill:#330099;" d="M56,87.8c-24.1,0-43.7-19.6-43.7-43.7S31.9,0.5,56,0.5c24.1,0,43.7,19.6,43.7,43.7
			S80.1,87.8,56,87.8z M56,4.5c-21.9,0-39.7,17.8-39.7,39.7S34.1,83.8,56,83.8c21.9,0,39.7-17.8,39.7-39.7S77.9,4.5,56,4.5z"/>
		<g>
			<path style="fill:#330099;" d="M86.4,40.7L73.3,28.2c0,0,0,0,0-0.1V16.8c0-1-0.8-1.8-1.8-1.8c-1,0-1.8,0.8-1.8,1.8v8.1l-12.5-12
				c-0.7-0.7-1.9-0.7-2.6,0L25.6,40.7c-0.7,0.7-0.8,1.9-0.1,2.6c0.7,0.7,1.9,0.8,2.6,0.1L56,16.8l27.8,26.6c0.4,0.3,0.8,0.5,1.3,0.5
				c0.5,0,1-0.2,1.4-0.6C87.1,42.6,87.1,41.4,86.4,40.7z"/>
			<g>
				<path style="fill:#330099;" d="M75.4,68.5H36.6c-1,0-1.9-0.8-1.9-1.9V43.5c0-1,0.8-1.9,1.9-1.9c1,0,1.9,0.8,1.9,1.9v21.3h35.1
					V43.5c0-1,0.8-1.9,1.9-1.9c1,0,1.9,0.8,1.9,1.9v23.2C77.3,67.7,76.5,68.5,75.4,68.5z"/>
			</g>
			<path style="fill:#330099;" d="M65.4,39.1c-2.1-2.3-6-2.4-8.8,0.6c-2.8-3-6.7-2.9-8.8-0.6c-4.1,4.6,0.2,10.5,4.3,13.2
				c1.3,0.9,3,1.6,4.5,2c1.6-0.4,3.2-1.1,4.5-2C65.2,49.6,69.5,43.7,65.4,39.1z"/>
		</g>
	</g>
	<g>
		<path style="fill:#330099;" d="M30.4,118.9L30.4,118.9c0.1,1.8-0.5,3.2-1.7,4.3s-2.8,1.7-4.8,1.7c-2,0-3.7-0.7-5-2.2
			s-1.9-3.3-1.9-5.5v-3.2c0-2.2,0.6-4,1.9-5.5s2.9-2.2,5-2.2s3.6,0.5,4.8,1.6c1.2,1.1,1.8,2.5,1.7,4.3l0,0.1h-2.3
			c0-1.3-0.4-2.2-1.1-3c-0.7-0.7-1.8-1.1-3.1-1.1c-1.4,0-2.4,0.5-3.2,1.6c-0.8,1.1-1.2,2.4-1.2,4.1v3.2c0,1.6,0.4,3,1.2,4.1
			c0.8,1.1,1.9,1.6,3.2,1.6c1.3,0,2.4-0.4,3.1-1.1s1.1-1.7,1.1-3H30.4z"/>
		<path style="fill:#330099;" d="M32.7,117.9c0-2,0.5-3.6,1.6-4.9s2.5-1.9,4.3-1.9c1.8,0,3.3,0.6,4.4,1.9s1.6,2.9,1.6,4.9v0.3
			c0,2-0.5,3.6-1.6,4.9c-1.1,1.3-2.5,1.9-4.4,1.9c-1.8,0-3.3-0.6-4.4-1.9s-1.6-2.9-1.6-4.9V117.9z M35.1,118.1
			c0,1.4,0.3,2.6,0.9,3.5s1.5,1.4,2.7,1.4c1.2,0,2-0.5,2.6-1.4s0.9-2.1,0.9-3.5v-0.3c0-1.4-0.3-2.6-0.9-3.5
			c-0.6-0.9-1.5-1.4-2.7-1.4c-1.2,0-2,0.5-2.6,1.4c-0.6,0.9-0.9,2.1-0.9,3.5V118.1z"/>
		<path style="fill:#330099;" d="M49.7,111.3l0.2,1.7c0.4-0.6,1-1.1,1.7-1.5c0.7-0.3,1.4-0.5,2.3-0.5c0.9,0,1.6,0.2,2.3,0.6
			s1.1,1,1.4,1.8c0.4-0.8,1-1.4,1.7-1.8c0.7-0.4,1.5-0.7,2.4-0.7c1.4,0,2.4,0.5,3.2,1.4c0.8,0.9,1.2,2.3,1.2,4.2v8h-2.4v-8
			c0-1.3-0.2-2.2-0.7-2.8c-0.5-0.5-1.1-0.8-2-0.8c-0.8,0-1.5,0.3-2,0.9s-0.8,1.3-0.9,2.2v0.1v8.5h-2.4v-8c0-1.2-0.2-2.2-0.7-2.7
			c-0.5-0.6-1.1-0.9-2-0.9c-0.7,0-1.3,0.2-1.8,0.5c-0.5,0.3-0.8,0.7-1.1,1.3v9.9h-2.4v-13.3H49.7z"/>
		<path style="fill:#330099;" d="M81,118.5c0,1.9-0.5,3.5-1.4,4.6c-0.9,1.2-2.2,1.8-3.8,1.8c-0.9,0-1.7-0.2-2.3-0.5
			s-1.2-0.9-1.6-1.5l-0.4,1.8h-1.9v-19.2H72v7.5c0.4-0.6,0.9-1,1.6-1.4c0.6-0.3,1.3-0.5,2.2-0.5c1.6,0,2.9,0.7,3.8,2s1.4,3,1.4,5.2
			V118.5z M78.5,118.2c0-1.5-0.3-2.8-0.8-3.7s-1.4-1.4-2.6-1.4c-0.7,0-1.4,0.2-1.9,0.5c-0.5,0.4-0.9,0.9-1.2,1.5v5.8
			c0.3,0.7,0.7,1.2,1.2,1.5s1.1,0.6,1.9,0.6c1.1,0,2-0.4,2.5-1.2c0.6-0.8,0.8-1.9,0.8-3.2V118.2z"/>
		<path style="fill:#330099;" d="M83.3,117.9c0-2,0.5-3.6,1.6-4.9s2.5-1.9,4.3-1.9c1.8,0,3.3,0.6,4.4,1.9s1.6,2.9,1.6,4.9v0.3
			c0,2-0.5,3.6-1.6,4.9c-1.1,1.3-2.5,1.9-4.4,1.9c-1.8,0-3.3-0.6-4.4-1.9s-1.6-2.9-1.6-4.9V117.9z M85.8,118.1
			c0,1.4,0.3,2.6,0.9,3.5s1.5,1.4,2.7,1.4c1.2,0,2-0.5,2.6-1.4s0.9-2.1,0.9-3.5v-0.3c0-1.4-0.3-2.6-0.9-3.5
			c-0.6-0.9-1.5-1.4-2.7-1.4c-1.2,0-2,0.5-2.6,1.4c-0.6,0.9-0.9,2.1-0.9,3.5V118.1z"/>
		<path style="fill:#330099;" d="M15.1,146.2H6.8v9H2.4v-21.8h14.2v3.4H6.8v6h8.4V146.2z"/>
		<path style="fill:#330099;" d="M28.1,155.2c-0.2-0.4-0.3-0.8-0.4-1.2c-0.1-0.4-0.2-0.8-0.2-1.3c-0.4,0.8-1,1.4-1.8,2
			c-0.7,0.5-1.6,0.8-2.6,0.8c-1.7,0-3-0.4-3.9-1.3c-0.9-0.9-1.4-2.1-1.4-3.6c0-1.6,0.6-2.8,1.8-3.7c1.2-0.9,3-1.3,5.3-1.3h2.5v-1.3
			c0-0.8-0.2-1.4-0.6-1.8c-0.4-0.4-1-0.6-1.8-0.6c-0.7,0-1.3,0.2-1.6,0.5c-0.4,0.3-0.6,0.8-0.6,1.4h-4.2l0-0.1
			c-0.1-1.4,0.5-2.5,1.8-3.5c1.3-1,2.9-1.5,4.9-1.5c1.9,0,3.5,0.5,4.7,1.5c1.2,1,1.8,2.4,1.8,4.2v6.7c0,0.8,0.1,1.5,0.2,2.1
			c0.1,0.7,0.3,1.3,0.5,2H28.1z M24.2,152.3c0.8,0,1.4-0.2,2-0.6c0.6-0.4,1-0.8,1.2-1.3v-2.3H25c-0.9,0-1.6,0.2-2.1,0.7
			c-0.5,0.5-0.7,1-0.7,1.7c0,0.5,0.2,1,0.5,1.3C23,152.2,23.5,152.3,24.2,152.3z"/>
		<path style="fill:#330099;" d="M39.1,139.1l0.2,2.1c0.5-0.8,1.2-1.4,1.9-1.8c0.8-0.4,1.7-0.6,2.7-0.6c1,0,1.9,0.2,2.7,0.7
			c0.7,0.5,1.3,1.2,1.7,2.1c0.5-0.9,1.1-1.5,1.9-2s1.7-0.7,2.8-0.7c1.6,0,2.9,0.6,3.8,1.7c0.9,1.1,1.4,2.9,1.4,5.2v9.6h-4.4v-9.6
			c0-1.3-0.2-2.2-0.6-2.7c-0.4-0.5-1-0.8-1.8-0.8c-0.6,0-1.2,0.1-1.6,0.4c-0.5,0.3-0.8,0.7-1.1,1.1c0,0.2,0,0.4,0,0.5s0,0.3,0,0.4
			v10.6h-4.3v-9.6c0-1.3-0.2-2.2-0.6-2.7c-0.4-0.5-1-0.8-1.8-0.8c-0.6,0-1.1,0.1-1.5,0.3c-0.4,0.2-0.8,0.5-1.1,0.9v11.8H35v-16.2
			H39.1z"/>
		<path style="fill:#330099;" d="M66.1,135.2h-4.4v-3.3h4.4V135.2z M66.1,155.2h-4.4v-16.2h4.4V155.2z"/>
		<path style="fill:#330099;" d="M74.3,155.2h-4.4v-23.3h4.4V155.2z"/>
		<path style="fill:#330099;" d="M82.5,135.2h-4.4v-3.3h4.4V135.2z M82.5,155.2h-4.4v-16.2h4.4V155.2z"/>
		<path style="fill:#330099;" d="M95.6,155.2c-0.2-0.4-0.3-0.8-0.4-1.2c-0.1-0.4-0.2-0.8-0.2-1.3c-0.4,0.8-1,1.4-1.8,2
			c-0.7,0.5-1.6,0.8-2.6,0.8c-1.7,0-3-0.4-3.9-1.3c-0.9-0.9-1.4-2.1-1.4-3.6c0-1.6,0.6-2.8,1.8-3.7c1.2-0.9,3-1.3,5.3-1.3h2.5v-1.3
			c0-0.8-0.2-1.4-0.6-1.8c-0.4-0.4-1-0.6-1.8-0.6c-0.7,0-1.3,0.2-1.6,0.5c-0.4,0.3-0.6,0.8-0.6,1.4H86l0-0.1
			c-0.1-1.4,0.5-2.5,1.8-3.5c1.3-1,2.9-1.5,4.9-1.5c1.9,0,3.5,0.5,4.7,1.5c1.2,1,1.8,2.4,1.8,4.2v6.7c0,0.8,0.1,1.5,0.2,2.1
			c0.1,0.7,0.3,1.3,0.5,2H95.6z M91.6,152.3c0.8,0,1.4-0.2,2-0.6c0.6-0.4,1-0.8,1.2-1.3v-2.3h-2.5c-0.9,0-1.6,0.2-2.1,0.7
			c-0.5,0.5-0.7,1-0.7,1.7c0,0.5,0.2,1,0.5,1.3C90.5,152.2,91,152.3,91.6,152.3z"/>
		<path style="fill:#330099;" d="M111,142.8l-1.6,0c-0.6,0-1.2,0.1-1.6,0.4c-0.4,0.3-0.7,0.6-1,1.1v10.9h-4.3v-16.2h4l0.2,2.4
			c0.4-0.8,0.9-1.5,1.5-2c0.6-0.5,1.3-0.7,2.1-0.7c0.2,0,0.4,0,0.6,0.1s0.4,0.1,0.6,0.1L111,142.8z"/>
	</g>
</g>
<g id="mi" style="display:none;">
	<g style="display:inline;">
		<path style="fill:#330099;" d="M56,87.8c-24.1,0-43.7-19.6-43.7-43.7S31.9,0.5,56,0.5c24.1,0,43.7,19.6,43.7,43.7
			S80.1,87.8,56,87.8z M56,4.5c-21.9,0-39.7,17.8-39.7,39.7S34.1,83.8,56,83.8c21.9,0,39.7-17.8,39.7-39.7S77.9,4.5,56,4.5z"/>
		<g>
			<path style="fill:#330099;" d="M86.4,40.7L73.3,28.2c0,0,0,0,0-0.1V16.8c0-1-0.8-1.8-1.8-1.8c-1,0-1.8,0.8-1.8,1.8v8.1l-12.5-12
				c-0.7-0.7-1.9-0.7-2.6,0L25.6,40.7c-0.7,0.7-0.8,1.9-0.1,2.6c0.7,0.7,1.9,0.8,2.6,0.1L56,16.8l27.8,26.6c0.4,0.3,0.8,0.5,1.3,0.5
				c0.5,0,1-0.2,1.4-0.6C87.1,42.6,87.1,41.4,86.4,40.7z"/>
			<g>
				<path style="fill:#330099;" d="M75.4,68.5H36.6c-1,0-1.9-0.8-1.9-1.9V43.5c0-1,0.8-1.9,1.9-1.9c1,0,1.9,0.8,1.9,1.9v21.3h35.1
					V43.5c0-1,0.8-1.9,1.9-1.9c1,0,1.9,0.8,1.9,1.9v23.2C77.3,67.7,76.5,68.5,75.4,68.5z"/>
			</g>
			<path style="fill:#330099;" d="M65.4,39.1c-2.1-2.3-6-2.4-8.8,0.6c-2.8-3-6.7-2.9-8.8-0.6c-4.1,4.6,0.2,10.5,4.3,13.2
				c1.3,0.9,3,1.6,4.5,2c1.6-0.4,3.2-1.1,4.5-2C65.2,49.6,69.5,43.7,65.4,39.1z"/>
		</g>
	</g>
	<g style="display:inline;">
		<path style="fill:#330099;" d="M10.6,121.3L10.6,121.3l5.8-14.6h3v17.9H17v-13.4l-0.1,0l-5.4,13.4H9.8l-5.6-13.9l-0.1,0v13.9H1.7
			v-17.9h3.2L10.6,121.3z"/>
		<path style="fill:#330099;" d="M25.9,107.9h-2.4v-2.5h2.4V107.9z M25.9,124.6h-2.4v-13.3h2.4V124.6z"/>
		<path style="fill:#330099;" d="M41.2,123c0.7,0,1.4-0.2,2-0.7c0.6-0.5,0.8-1.1,0.8-1.8h2.2l0,0.1c0,1.1-0.5,2.2-1.5,3.1
			c-1,0.9-2.2,1.3-3.5,1.3c-1.9,0-3.3-0.6-4.3-1.9c-1-1.3-1.5-2.9-1.5-4.8v-0.5c0-1.9,0.5-3.5,1.5-4.7s2.5-1.9,4.3-1.9
			c1.5,0,2.7,0.5,3.6,1.4s1.4,2,1.4,3.4l0,0.1H44c0-0.8-0.3-1.5-0.8-2.1c-0.5-0.6-1.2-0.9-2-0.9c-1.2,0-2.1,0.5-2.6,1.4
			s-0.8,2-0.8,3.4v0.5c0,1.3,0.3,2.5,0.8,3.4C39.1,122.5,40,123,41.2,123z"/>
		<path style="fill:#330099;" d="M48.5,117.9c0-2,0.5-3.6,1.6-4.9s2.5-1.9,4.3-1.9c1.8,0,3.3,0.6,4.4,1.9c1.1,1.3,1.6,2.9,1.6,4.9
			v0.3c0,2-0.5,3.6-1.6,4.9c-1.1,1.3-2.5,1.9-4.4,1.9c-1.8,0-3.3-0.6-4.4-1.9s-1.6-2.9-1.6-4.9V117.9z M51,118.1
			c0,1.4,0.3,2.6,0.9,3.5s1.5,1.4,2.7,1.4c1.2,0,2-0.5,2.6-1.4s0.9-2.1,0.9-3.5v-0.3c0-1.4-0.3-2.6-0.9-3.5
			c-0.6-0.9-1.5-1.4-2.7-1.4c-1.2,0-2,0.5-2.6,1.4c-0.6,0.9-0.9,2.1-0.9,3.5V118.1z"/>
		<path style="fill:#330099;" d="M65.6,111.3l0.2,1.7c0.4-0.6,1-1.1,1.7-1.5c0.7-0.3,1.4-0.5,2.3-0.5s1.6,0.2,2.3,0.6s1.1,1,1.4,1.8
			c0.4-0.8,1-1.4,1.7-1.8c0.7-0.4,1.5-0.7,2.4-0.7c1.4,0,2.4,0.5,3.2,1.4c0.8,0.9,1.2,2.3,1.2,4.2v8h-2.4v-8c0-1.3-0.2-2.2-0.7-2.8
			c-0.5-0.5-1.1-0.8-2-0.8c-0.8,0-1.5,0.3-2,0.9s-0.8,1.3-0.9,2.2v0.1v8.5h-2.4v-8c0-1.2-0.2-2.2-0.7-2.7c-0.5-0.6-1.1-0.9-2-0.9
			c-0.7,0-1.3,0.2-1.8,0.5s-0.8,0.7-1.1,1.3v9.9h-2.4v-13.3H65.6z"/>
		<path style="fill:#330099;" d="M96.8,118.5c0,1.9-0.5,3.5-1.4,4.6c-0.9,1.2-2.2,1.8-3.8,1.8c-0.9,0-1.7-0.2-2.3-0.5
			s-1.2-0.9-1.6-1.5l-0.4,1.8h-1.9v-19.2h2.4v7.5c0.4-0.6,0.9-1,1.6-1.4c0.6-0.3,1.3-0.5,2.2-0.5c1.6,0,2.9,0.7,3.8,2
			c0.9,1.3,1.4,3,1.4,5.2V118.5z M94.4,118.2c0-1.5-0.3-2.8-0.8-3.7c-0.6-1-1.4-1.4-2.6-1.4c-0.7,0-1.4,0.2-1.9,0.5
			c-0.5,0.4-0.9,0.9-1.2,1.5v5.8c0.3,0.7,0.7,1.2,1.2,1.5c0.5,0.4,1.1,0.6,1.9,0.6c1.1,0,2-0.4,2.5-1.2c0.6-0.8,0.8-1.9,0.8-3.2
			V118.2z"/>
		<path style="fill:#330099;" d="M99.2,117.9c0-2,0.5-3.6,1.6-4.9s2.5-1.9,4.3-1.9c1.8,0,3.3,0.6,4.4,1.9c1.1,1.3,1.6,2.9,1.6,4.9
			v0.3c0,2-0.5,3.6-1.6,4.9c-1.1,1.3-2.5,1.9-4.4,1.9c-1.8,0-3.3-0.6-4.4-1.9s-1.6-2.9-1.6-4.9V117.9z M101.6,118.1
			c0,1.4,0.3,2.6,0.9,3.5s1.5,1.4,2.7,1.4c1.2,0,2-0.5,2.6-1.4s0.9-2.1,0.9-3.5v-0.3c0-1.4-0.3-2.6-0.9-3.5
			c-0.6-0.9-1.5-1.4-2.7-1.4c-1.2,0-2,0.5-2.6,1.4c-0.6,0.9-0.9,2.1-0.9,3.5V118.1z"/>
		<path style="fill:#330099;" d="M15.1,146.2H6.8v9H2.4v-21.8h14.2v3.4H6.8v6h8.4V146.2z"/>
		<path style="fill:#330099;" d="M28.1,155.2c-0.2-0.4-0.3-0.8-0.4-1.2c-0.1-0.4-0.2-0.8-0.2-1.3c-0.4,0.8-1,1.4-1.8,2
			c-0.7,0.5-1.6,0.8-2.6,0.8c-1.7,0-3-0.4-3.9-1.3c-0.9-0.9-1.4-2.1-1.4-3.6c0-1.6,0.6-2.8,1.8-3.7c1.2-0.9,3-1.3,5.3-1.3h2.5v-1.3
			c0-0.8-0.2-1.4-0.6-1.8c-0.4-0.4-1-0.6-1.8-0.6c-0.7,0-1.3,0.2-1.6,0.5c-0.4,0.3-0.6,0.8-0.6,1.4h-4.2l0-0.1
			c-0.1-1.4,0.5-2.5,1.8-3.5c1.3-1,2.9-1.5,4.9-1.5c1.9,0,3.5,0.5,4.7,1.5c1.2,1,1.8,2.4,1.8,4.2v6.7c0,0.8,0.1,1.5,0.2,2.1
			c0.1,0.7,0.3,1.3,0.5,2H28.1z M24.2,152.3c0.8,0,1.4-0.2,2-0.6c0.6-0.4,1-0.8,1.2-1.3v-2.3H25c-0.9,0-1.6,0.2-2.1,0.7
			c-0.5,0.5-0.7,1-0.7,1.7c0,0.5,0.2,1,0.5,1.3C23,152.2,23.5,152.3,24.2,152.3z"/>
		<path style="fill:#330099;" d="M39.1,139.1l0.2,2.1c0.5-0.8,1.2-1.4,1.9-1.8c0.8-0.4,1.7-0.6,2.7-0.6c1,0,1.9,0.2,2.7,0.7
			c0.7,0.5,1.3,1.2,1.7,2.1c0.5-0.9,1.1-1.5,1.9-2s1.7-0.7,2.8-0.7c1.6,0,2.9,0.6,3.8,1.7c0.9,1.1,1.4,2.9,1.4,5.2v9.6h-4.4v-9.6
			c0-1.3-0.2-2.2-0.6-2.7c-0.4-0.5-1-0.8-1.8-0.8c-0.6,0-1.2,0.1-1.6,0.4c-0.5,0.3-0.8,0.7-1.1,1.1c0,0.2,0,0.4,0,0.5s0,0.3,0,0.4
			v10.6h-4.3v-9.6c0-1.3-0.2-2.2-0.6-2.7c-0.4-0.5-1-0.8-1.8-0.8c-0.6,0-1.1,0.1-1.5,0.3c-0.4,0.2-0.8,0.5-1.1,0.9v11.8H35v-16.2
			H39.1z"/>
		<path style="fill:#330099;" d="M66.1,135.2h-4.4v-3.3h4.4V135.2z M66.1,155.2h-4.4v-16.2h4.4V155.2z"/>
		<path style="fill:#330099;" d="M74.3,155.2h-4.4v-23.3h4.4V155.2z"/>
		<path style="fill:#330099;" d="M82.5,135.2h-4.4v-3.3h4.4V135.2z M82.5,155.2h-4.4v-16.2h4.4V155.2z"/>
		<path style="fill:#330099;" d="M95.6,155.2c-0.2-0.4-0.3-0.8-0.4-1.2c-0.1-0.4-0.2-0.8-0.2-1.3c-0.4,0.8-1,1.4-1.8,2
			c-0.7,0.5-1.6,0.8-2.6,0.8c-1.7,0-3-0.4-3.9-1.3c-0.9-0.9-1.4-2.1-1.4-3.6c0-1.6,0.6-2.8,1.8-3.7c1.2-0.9,3-1.3,5.3-1.3h2.5v-1.3
			c0-0.8-0.2-1.4-0.6-1.8c-0.4-0.4-1-0.6-1.8-0.6c-0.7,0-1.3,0.2-1.6,0.5c-0.4,0.3-0.6,0.8-0.6,1.4H86l0-0.1
			c-0.1-1.4,0.5-2.5,1.8-3.5c1.3-1,2.9-1.5,4.9-1.5c1.9,0,3.5,0.5,4.7,1.5c1.2,1,1.8,2.4,1.8,4.2v6.7c0,0.8,0.1,1.5,0.2,2.1
			c0.1,0.7,0.3,1.3,0.5,2H95.6z M91.6,152.3c0.8,0,1.4-0.2,2-0.6c0.6-0.4,1-0.8,1.2-1.3v-2.3h-2.5c-0.9,0-1.6,0.2-2.1,0.7
			c-0.5,0.5-0.7,1-0.7,1.7c0,0.5,0.2,1,0.5,1.3C90.5,152.2,91,152.3,91.6,152.3z"/>
		<path style="fill:#330099;" d="M111,142.8l-1.6,0c-0.6,0-1.2,0.1-1.6,0.4c-0.4,0.3-0.7,0.6-1,1.1v10.9h-4.3v-16.2h4l0.2,2.4
			c0.4-0.8,0.9-1.5,1.5-2c0.6-0.5,1.3-0.7,2.1-0.7c0.2,0,0.4,0,0.6,0.1s0.4,0.1,0.6,0.1L111,142.8z"/>
	</g>
</g>
</svg>
