<?xml version="1.0" encoding="utf-8"?>
<!-- Generator: Adobe Illustrator 18.0.0, SVG Export Plug-In . SVG Version: 6.00 Build 0)  -->
<!DOCTYPE svg PUBLIC "-//W3C//DTD SVG 1.1//EN" "http://www.w3.org/Graphics/SVG/1.1/DTD/svg11.dtd" [
	<!ENTITY ns_extend "http://ns.adobe.com/Extensibility/1.0/">
	<!ENTITY ns_ai "http://ns.adobe.com/AdobeIllustrator/10.0/">
	<!ENTITY ns_graphs "http://ns.adobe.com/Graphs/1.0/">
	<!ENTITY ns_vars "http://ns.adobe.com/Variables/1.0/">
	<!ENTITY ns_imrep "http://ns.adobe.com/ImageReplacement/1.0/">
	<!ENTITY ns_sfw "http://ns.adobe.com/SaveForWeb/1.0/">
	<!ENTITY ns_custom "http://ns.adobe.com/GenericCustomNamespace/1.0/">
	<!ENTITY ns_adobe_xpath "http://ns.adobe.com/XPath/1.0/">
]>
<svg version="1.1" xmlns:x="&ns_extend;" xmlns:i="&ns_ai;" xmlns:graph="&ns_graphs;"
	 xmlns="http://www.w3.org/2000/svg" xmlns:xlink="http://www.w3.org/1999/xlink" x="0px" y="0px" viewBox="0 0 152 164"
	 style="enable-background:new 0 0 152 164;" xml:space="preserve">
<metadata>
	<sfw  xmlns="&ns_sfw;">
		<slices></slices>
		<sliceSourceBounds  width="1819.3" height="163.1" x="93.7" y="-163.5" bottomLeftOrigin="true"></sliceSourceBounds>
	</sfw>
</metadata>
<g id="Capa_1" style="display:none;">
	<g style="display:inline;">
		<path style="fill:#330099;" d="M76,87.8c-24.1,0-43.7-19.6-43.7-43.7S51.9,0.5,76,0.5c24.1,0,43.7,19.6,43.7,43.7
			S100.1,87.8,76,87.8z M76,4.5c-21.9,0-39.7,17.8-39.7,39.7S54.1,83.8,76,83.8c21.9,0,39.7-17.8,39.7-39.7S97.9,4.5,76,4.5z"/>
	</g>
	<g style="display:inline;">
		<path style="fill:#330099;" d="M24.7,120h-6.7l-1.6,4.6h-2.5l6.5-17.9h2.1l6.3,17.9h-2.5L24.7,120z M18.6,118H24l-2.6-7.7h-0.1
			L18.6,118z"/>
		<path style="fill:#330099;" d="M36.3,123c0.7,0,1.4-0.2,2-0.7s0.8-1.1,0.8-1.8h2.2l0,0.1c0,1.1-0.5,2.2-1.5,3.1
			c-1,0.9-2.2,1.3-3.5,1.3c-1.9,0-3.3-0.6-4.3-1.9c-1-1.3-1.5-2.9-1.5-4.8v-0.5c0-1.9,0.5-3.5,1.5-4.7c1-1.3,2.5-1.9,4.3-1.9
			c1.5,0,2.7,0.5,3.6,1.4c0.9,0.9,1.4,2,1.4,3.4l0,0.1h-2.2c0-0.8-0.3-1.5-0.8-2.1c-0.5-0.6-1.2-0.9-2-0.9c-1.2,0-2.1,0.5-2.6,1.4
			c-0.5,0.9-0.8,2-0.8,3.4v0.5c0,1.3,0.3,2.5,0.8,3.4S35.1,123,36.3,123z"/>
		<path style="fill:#330099;" d="M49.5,123c0.7,0,1.4-0.2,2-0.7s0.8-1.1,0.8-1.8h2.2l0,0.1c0,1.1-0.5,2.2-1.5,3.1
			c-1,0.9-2.2,1.3-3.5,1.3c-1.9,0-3.3-0.6-4.3-1.9c-1-1.3-1.5-2.9-1.5-4.8v-0.5c0-1.9,0.5-3.5,1.5-4.7c1-1.3,2.5-1.9,4.3-1.9
			c1.5,0,2.7,0.5,3.6,1.4c0.9,0.9,1.4,2,1.4,3.4l0,0.1h-2.2c0-0.8-0.3-1.5-0.8-2.1c-0.5-0.6-1.2-0.9-2-0.9c-1.2,0-2.1,0.5-2.6,1.4
			c-0.5,0.9-0.8,2-0.8,3.4v0.5c0,1.3,0.3,2.5,0.8,3.4S48.3,123,49.5,123z"/>
		<path style="fill:#330099;" d="M60,107.9h-2.4v-2.5H60V107.9z M60,124.6h-2.4v-13.3H60V124.6z"/>
		<path style="fill:#330099;" d="M63.2,118.2c0-2.1,0.5-3.9,1.4-5.2c0.9-1.3,2.2-2,3.8-2c0.8,0,1.5,0.1,2.1,0.4s1.1,0.7,1.5,1.3
			v-7.3h2.4v19.2h-1.9l-0.4-1.7c-0.4,0.6-1,1.1-1.6,1.5c-0.6,0.3-1.4,0.5-2.2,0.5c-1.6,0-2.9-0.6-3.8-1.8c-0.9-1.2-1.4-2.7-1.4-4.6
			V118.2z M65.6,118.5c0,1.3,0.3,2.4,0.8,3.2c0.5,0.8,1.4,1.2,2.6,1.2c0.7,0,1.3-0.2,1.8-0.5s0.9-0.8,1.2-1.4v-6.2
			c-0.3-0.5-0.7-1-1.2-1.3c-0.5-0.3-1.1-0.5-1.8-0.5c-1.2,0-2,0.5-2.6,1.4s-0.8,2.2-0.8,3.7V118.5z"/>
		<path style="fill:#330099;" d="M83.6,124.9c-1.9,0-3.4-0.6-4.5-1.8c-1.1-1.2-1.6-2.8-1.6-4.8v-0.5c0-1.9,0.6-3.5,1.7-4.7
			s2.5-1.9,4-1.9c1.8,0,3.1,0.6,4,1.7c0.9,1.1,1.3,2.6,1.3,4.4v1.3H80l0,0.1c0,1.3,0.3,2.4,0.9,3.3c0.6,0.8,1.5,1.2,2.7,1.2
			c0.8,0,1.5-0.1,2.2-0.4s1.2-0.6,1.6-1l0.9,1.6c-0.5,0.5-1.1,0.8-1.9,1.2C85.6,124.7,84.7,124.9,83.6,124.9z M83.2,113
			c-0.8,0-1.5,0.3-2.1,1c-0.6,0.7-0.9,1.5-1,2.5l0,0.1h6v-0.2c0-1-0.2-1.8-0.7-2.4C84.9,113.3,84.2,113,83.2,113z"/>
		<path style="fill:#330099;" d="M93.4,111.3l0.2,2c0.4-0.7,1-1.3,1.7-1.6c0.7-0.4,1.4-0.6,2.3-0.6c1.4,0,2.5,0.4,3.3,1.3
			c0.8,0.8,1.2,2.1,1.2,3.9v8.4h-2.4v-8.4c0-1.2-0.2-2-0.7-2.5c-0.5-0.5-1.2-0.7-2.1-0.7c-0.7,0-1.4,0.1-1.9,0.4
			c-0.5,0.3-0.9,0.7-1.2,1.3v9.9h-2.4v-13.3H93.4z"/>
		<path style="fill:#330099;" d="M109,108.1v3.2h2.5v1.8H109v8.1c0,0.6,0.1,1.1,0.4,1.3c0.3,0.3,0.6,0.4,1,0.4c0.1,0,0.3,0,0.5-0.1
			c0.2,0,0.3-0.1,0.4-0.1l0.3,1.7c-0.2,0.1-0.4,0.3-0.8,0.4c-0.4,0.1-0.7,0.1-1,0.1c-1,0-1.8-0.3-2.4-0.9c-0.6-0.6-0.9-1.5-0.9-2.8
			v-8.1h-2.1v-1.8h2.1v-3.2H109z"/>
		<path style="fill:#330099;" d="M119.6,124.9c-1.9,0-3.4-0.6-4.5-1.8c-1.1-1.2-1.6-2.8-1.6-4.8v-0.5c0-1.9,0.6-3.5,1.7-4.7
			c1.1-1.3,2.5-1.9,4-1.9c1.8,0,3.1,0.6,4,1.7s1.3,2.6,1.3,4.4v1.3H116l0,0.1c0,1.3,0.3,2.4,0.9,3.3c0.6,0.8,1.5,1.2,2.7,1.2
			c0.8,0,1.5-0.1,2.2-0.4c0.6-0.2,1.2-0.6,1.6-1l0.9,1.6c-0.5,0.5-1.1,0.8-1.9,1.2C121.6,124.7,120.7,124.9,119.6,124.9z M119.2,113
			c-0.8,0-1.5,0.3-2.1,1c-0.6,0.7-0.9,1.5-1,2.5l0,0.1h6v-0.2c0-1-0.2-1.8-0.7-2.4S120.2,113,119.2,113z"/>
		<path style="fill:#330099;" d="M135,121.1c0-0.5-0.2-1-0.6-1.3c-0.4-0.3-1.2-0.6-2.3-0.9c-1.6-0.3-2.8-0.8-3.6-1.4
			c-0.8-0.6-1.3-1.4-1.3-2.4c0-1.1,0.5-2,1.4-2.8c0.9-0.8,2.1-1.2,3.6-1.2c1.5,0,2.7,0.4,3.7,1.2c0.9,0.8,1.4,1.8,1.3,2.9l0,0.1
			h-2.3c0-0.6-0.3-1.1-0.8-1.6c-0.5-0.5-1.1-0.7-1.9-0.7c-0.9,0-1.5,0.2-1.9,0.6c-0.4,0.4-0.6,0.8-0.6,1.4c0,0.5,0.2,0.9,0.5,1.2
			s1.1,0.5,2.3,0.8c1.6,0.3,2.9,0.8,3.7,1.5c0.8,0.6,1.3,1.5,1.3,2.5c0,1.2-0.5,2.1-1.4,2.9c-1,0.7-2.2,1.1-3.7,1.1
			c-1.7,0-3-0.4-4-1.3c-1-0.9-1.4-1.9-1.4-3l0-0.1h2.3c0,0.9,0.4,1.5,1,1.9c0.6,0.4,1.3,0.6,2.1,0.6c0.9,0,1.5-0.2,2-0.5
			C134.8,122.1,135,121.6,135,121.1z"/>
		<path style="fill:#330099;" d="M6,147.3v7.9H1.6v-21.8h8.3c2.5,0,4.5,0.6,5.9,1.9c1.4,1.3,2.2,3,2.2,5s-0.7,3.8-2.2,5
			c-1.4,1.3-3.4,1.9-5.9,1.9H6z M6,144h4c1.2,0,2.1-0.3,2.8-1c0.6-0.7,0.9-1.5,0.9-2.5c0-1-0.3-1.9-0.9-2.6c-0.6-0.7-1.5-1-2.8-1H6
			V144z"/>
		<path style="fill:#330099;" d="M27.6,155.6c-2.4,0-4.3-0.7-5.6-2.2c-1.4-1.5-2-3.4-2-5.7V147c0-2.4,0.7-4.4,2-5.9
			c1.3-1.5,3.1-2.3,5.4-2.3c2.2,0,3.8,0.7,5,2s1.7,3.1,1.7,5.4v2.3h-9.6l0,0.1c0.1,1.1,0.4,2,1,2.7c0.6,0.7,1.5,1,2.7,1
			c1,0,1.8-0.1,2.5-0.3c0.7-0.2,1.4-0.5,2.1-0.9l1.2,2.7c-0.6,0.5-1.5,1-2.6,1.3C30.1,155.4,28.9,155.6,27.6,155.6z M27.3,142.1
			c-0.9,0-1.6,0.3-2,0.9c-0.5,0.6-0.8,1.4-0.9,2.4l0,0.1h5.3v-0.3c0-0.9-0.2-1.7-0.6-2.2S28.2,142.1,27.3,142.1z"/>
		<path style="fill:#330099;" d="M45.1,142.8l-1.6,0c-0.6,0-1.2,0.1-1.6,0.4c-0.4,0.3-0.7,0.6-1,1.1v10.9h-4.3v-16.2h4l0.2,2.4
			c0.4-0.8,0.9-1.5,1.5-2c0.6-0.5,1.3-0.7,2.1-0.7c0.2,0,0.4,0,0.6,0.1s0.4,0.1,0.6,0.1L45.1,142.8z"/>
		<path style="fill:#330099;" d="M56.1,150.8c0-0.5-0.2-0.9-0.7-1.2s-1.3-0.6-2.6-0.9c-1.9-0.4-3.3-1-4.3-1.7
			c-1-0.8-1.5-1.8-1.5-3.1c0-1.4,0.6-2.6,1.8-3.5c1.2-1,2.7-1.5,4.7-1.5c2,0,3.7,0.5,4.9,1.5s1.8,2.2,1.8,3.6l0,0.1h-4.2
			c0-0.6-0.2-1.2-0.6-1.6c-0.4-0.4-1-0.6-1.8-0.6c-0.7,0-1.3,0.2-1.7,0.5c-0.4,0.3-0.6,0.8-0.6,1.3c0,0.5,0.2,0.9,0.6,1.2
			c0.4,0.3,1.3,0.6,2.6,0.8c2,0.4,3.5,1,4.4,1.8c1,0.8,1.5,1.8,1.5,3.2c0,1.5-0.6,2.6-1.9,3.6c-1.2,0.9-2.9,1.4-4.9,1.4
			c-2.2,0-3.9-0.5-5.1-1.6s-1.8-2.3-1.8-3.7l0-0.1h4c0,0.9,0.3,1.5,0.9,1.9c0.5,0.4,1.2,0.6,2.1,0.6c0.8,0,1.4-0.2,1.8-0.5
			C55.9,151.8,56.1,151.3,56.1,150.8z"/>
		<path style="fill:#330099;" d="M62.5,147c0-2.4,0.7-4.4,2-5.9s3.2-2.3,5.6-2.3c2.4,0,4.3,0.8,5.6,2.3c1.4,1.5,2,3.5,2,5.9v0.3
			c0,2.4-0.7,4.4-2,5.9c-1.3,1.5-3.2,2.3-5.6,2.3c-2.4,0-4.3-0.8-5.6-2.3c-1.3-1.5-2-3.5-2-5.9V147z M66.8,147.3
			c0,1.5,0.3,2.7,0.8,3.5s1.4,1.3,2.5,1.3c1.1,0,1.9-0.4,2.5-1.3c0.5-0.9,0.8-2.1,0.8-3.5V147c0-1.4-0.3-2.6-0.8-3.5
			s-1.4-1.4-2.5-1.4c-1.1,0-2,0.5-2.5,1.4c-0.5,0.9-0.8,2.1-0.8,3.5V147.3z"/>
		<path style="fill:#330099;" d="M84.4,139.1l0.2,2.3c0.5-0.8,1.2-1.5,2-1.9c0.8-0.5,1.7-0.7,2.6-0.7c1.6,0,2.9,0.5,3.8,1.6
			c0.9,1.1,1.4,2.7,1.4,5v9.9H90v-9.9c0-1.2-0.2-2-0.6-2.5c-0.4-0.5-1-0.7-1.8-0.7c-0.6,0-1.2,0.1-1.7,0.4c-0.5,0.2-0.9,0.6-1.2,1
			v11.7h-4.4v-16.2H84.4z"/>
		<path style="fill:#330099;" d="M107.2,155.2c-0.2-0.4-0.3-0.8-0.4-1.2c-0.1-0.4-0.2-0.8-0.2-1.3c-0.4,0.8-1,1.4-1.8,2
			c-0.7,0.5-1.6,0.8-2.6,0.8c-1.7,0-3-0.4-3.9-1.3c-0.9-0.9-1.4-2.1-1.4-3.6c0-1.6,0.6-2.8,1.8-3.7c1.2-0.9,3-1.3,5.3-1.3h2.5v-1.3
			c0-0.8-0.2-1.4-0.6-1.8c-0.4-0.4-1-0.6-1.8-0.6c-0.7,0-1.3,0.2-1.6,0.5c-0.4,0.3-0.6,0.8-0.6,1.4h-4.2l0-0.1
			c-0.1-1.4,0.5-2.5,1.8-3.5s2.9-1.5,4.9-1.5c1.9,0,3.5,0.5,4.7,1.5s1.8,2.4,1.8,4.2v6.7c0,0.8,0.1,1.5,0.2,2.1
			c0.1,0.7,0.3,1.3,0.5,2H107.2z M103.2,152.3c0.8,0,1.4-0.2,2-0.6c0.6-0.4,1-0.8,1.2-1.3v-2.3H104c-0.9,0-1.6,0.2-2.1,0.7
			c-0.5,0.5-0.7,1-0.7,1.7c0,0.5,0.2,1,0.5,1.3C102.1,152.2,102.6,152.3,103.2,152.3z"/>
		<path style="fill:#330099;" d="M118.7,155.2h-4.4v-23.3h4.4V155.2z"/>
		<path style="fill:#330099;" d="M129.3,155.6c-2.4,0-4.3-0.7-5.6-2.2c-1.4-1.5-2-3.4-2-5.7V147c0-2.4,0.7-4.4,2-5.9
			c1.3-1.5,3.1-2.3,5.4-2.3c2.2,0,3.8,0.7,5,2s1.7,3.1,1.7,5.4v2.3h-9.6l0,0.1c0.1,1.1,0.4,2,1,2.7c0.6,0.7,1.5,1,2.7,1
			c1,0,1.8-0.1,2.5-0.3c0.7-0.2,1.4-0.5,2.1-0.9l1.2,2.7c-0.6,0.5-1.5,1-2.6,1.3C131.8,155.4,130.6,155.6,129.3,155.6z M129,142.1
			c-0.9,0-1.6,0.3-2,0.9c-0.5,0.6-0.8,1.4-0.9,2.4l0,0.1h5.3v-0.3c0-0.9-0.2-1.7-0.6-2.2S129.9,142.1,129,142.1z"/>
		<path style="fill:#330099;" d="M147,150.8c0-0.5-0.2-0.9-0.7-1.2s-1.3-0.6-2.6-0.9c-1.9-0.4-3.3-1-4.3-1.7c-1-0.8-1.5-1.8-1.5-3.1
			c0-1.4,0.6-2.6,1.8-3.5c1.2-1,2.7-1.5,4.7-1.5c2,0,3.7,0.5,4.9,1.5s1.8,2.2,1.8,3.6l0,0.1h-4.2c0-0.6-0.2-1.2-0.6-1.6
			c-0.4-0.4-1-0.6-1.8-0.6c-0.7,0-1.3,0.2-1.7,0.5c-0.4,0.3-0.6,0.8-0.6,1.3c0,0.5,0.2,0.9,0.6,1.2c0.4,0.3,1.3,0.6,2.6,0.8
			c2,0.4,3.5,1,4.4,1.8c1,0.8,1.5,1.8,1.5,3.2c0,1.5-0.6,2.6-1.9,3.6c-1.2,0.9-2.9,1.4-4.9,1.4c-2.2,0-3.9-0.5-5.1-1.6
			s-1.8-2.3-1.8-3.7l0-0.1h4c0,0.9,0.3,1.5,0.9,1.9c0.5,0.4,1.2,0.6,2.1,0.6c0.8,0,1.4-0.2,1.8-0.5C146.8,151.8,147,151.3,147,150.8
			z"/>
	</g>
	<g style="display:inline;">
		<g>
			<path style="fill:#330099;stroke:#330099;stroke-width:0.9224;stroke-miterlimit:10;" d="M83.8,42.9H68.2c-7.2,0-13,5.8-13,13
				v10.4h2.6V56c0-5.7,4.7-10.4,10.4-10.4H78L75.7,56h-2.3c-4.3,0-7.8,3.5-7.8,7.8s3.5,7.8,7.8,7.8H89c4.3,0,7.8-3.5,7.8-7.8V56
				C96.8,48.8,91,42.9,83.8,42.9L83.8,42.9z M68.2,63.8c0-2.9,2.3-5.2,5.2-5.2h1.7l-2.3,10.4C70.2,68.6,68.2,66.4,68.2,63.8z
				 M75.5,69l5.2-23.4h3.1c0.9,0,1.8,0.1,2.6,0.4V69L75.5,69L75.5,69z M94.2,63.8c0,2.9-2.3,5.2-5.2,5.2V47c3.1,1.8,5.2,5.1,5.2,9
				V63.8z M87.7,28.5c0-6.5-5.2-11.7-11.7-11.7c-6.5,0-11.7,5.2-11.7,11.7c0,6.5,5.2,11.7,11.7,11.7S87.7,34.9,87.7,28.5L87.7,28.5z
				 M76,37.6c-5,0-9.1-4.1-9.1-9.1s4.1-9.1,9.1-9.1s9.1,4.1,9.1,9.1S81,37.6,76,37.6z"/>
		</g>
	</g>
</g>
<g id="mi">
	<g>
		<path style="fill:#330099;" d="M76,87.8c-24.1,0-43.7-19.6-43.7-43.7S51.9,0.5,76,0.5c24.1,0,43.7,19.6,43.7,43.7
			S100.1,87.8,76,87.8z M76,4.5c-21.9,0-39.7,17.8-39.7,39.7S54.1,83.8,76,83.8c21.9,0,39.7-17.8,39.7-39.7S97.9,4.5,76,4.5z"/>
	</g>
	<g>
		<path style="fill:#330099;" d="M30.8,121.3L30.8,121.3l5.8-14.6h3v17.9h-2.4v-13.4l-0.1,0l-5.4,13.4H30l-5.6-13.9l-0.1,0v13.9
			h-2.4v-17.9h3.2L30.8,121.3z"/>
		<path style="fill:#330099;" d="M46.1,107.9h-2.4v-2.5h2.4V107.9z M46.1,124.6h-2.4v-13.3h2.4V124.6z"/>
		<path style="fill:#330099;" d="M63.8,121.1c0-0.5-0.2-1-0.6-1.3c-0.4-0.3-1.2-0.6-2.3-0.9c-1.6-0.3-2.8-0.8-3.6-1.4
			c-0.8-0.6-1.3-1.4-1.3-2.4c0-1.1,0.5-2,1.4-2.8c0.9-0.8,2.1-1.2,3.6-1.2c1.5,0,2.7,0.4,3.7,1.2c0.9,0.8,1.4,1.8,1.3,2.9l0,0.1
			h-2.3c0-0.6-0.3-1.1-0.8-1.6c-0.5-0.5-1.1-0.7-1.9-0.7c-0.9,0-1.5,0.2-1.9,0.6c-0.4,0.4-0.6,0.8-0.6,1.4c0,0.5,0.2,0.9,0.5,1.2
			s1.1,0.5,2.3,0.8c1.6,0.3,2.9,0.8,3.7,1.5c0.8,0.6,1.3,1.5,1.3,2.5c0,1.2-0.5,2.1-1.4,2.9c-1,0.7-2.2,1.1-3.7,1.1
			c-1.7,0-3-0.4-4-1.3c-1-0.9-1.4-1.9-1.4-3l0-0.1H58c0,0.9,0.4,1.5,1,1.9c0.6,0.4,1.3,0.6,2.1,0.6c0.9,0,1.5-0.2,2-0.5
			C63.5,122.1,63.8,121.6,63.8,121.1z"/>
		<path style="fill:#330099;" d="M74.7,124.9c-1.9,0-3.4-0.6-4.5-1.8c-1.1-1.2-1.6-2.8-1.6-4.8v-0.5c0-1.9,0.6-3.5,1.7-4.7
			s2.5-1.9,4-1.9c1.8,0,3.1,0.6,4,1.7c0.9,1.1,1.3,2.6,1.3,4.4v1.3h-8.5l0,0.1c0,1.3,0.3,2.4,0.9,3.3c0.6,0.8,1.5,1.2,2.7,1.2
			c0.8,0,1.5-0.1,2.2-0.4s1.2-0.6,1.6-1l0.9,1.6c-0.5,0.5-1.1,0.8-1.9,1.2C76.8,124.7,75.8,124.9,74.7,124.9z M74.4,113
			c-0.8,0-1.5,0.3-2.1,1c-0.6,0.7-0.9,1.5-1,2.5l0,0.1h6v-0.2c0-1-0.2-1.8-0.7-2.4C76.1,113.3,75.4,113,74.4,113z"/>
		<path style="fill:#330099;" d="M82,118.2c0-2.1,0.5-3.9,1.4-5.2c0.9-1.3,2.2-2,3.8-2c0.8,0,1.6,0.2,2.2,0.5
			c0.6,0.3,1.2,0.8,1.6,1.5l0.3-1.7h1.9v13.4c0,1.7-0.5,3-1.5,3.9c-1,0.9-2.4,1.4-4.3,1.4c-0.6,0-1.3-0.1-2.1-0.3
			c-0.7-0.2-1.4-0.4-2-0.7l0.4-1.9c0.5,0.2,1,0.4,1.7,0.6c0.7,0.2,1.3,0.2,2,0.2c1.2,0,2-0.3,2.6-0.8s0.8-1.4,0.8-2.5v-1.5
			c-0.4,0.6-1,1-1.6,1.3c-0.6,0.3-1.3,0.4-2.1,0.4c-1.6,0-2.9-0.6-3.8-1.8c-0.9-1.2-1.4-2.7-1.4-4.6V118.2z M84.4,118.5
			c0,1.3,0.3,2.4,0.8,3.2c0.5,0.8,1.4,1.2,2.5,1.2c0.7,0,1.3-0.2,1.8-0.5s0.9-0.8,1.2-1.4v-6.1c-0.3-0.6-0.7-1-1.2-1.3
			s-1.1-0.5-1.8-0.5c-1.2,0-2,0.5-2.6,1.4s-0.8,2.2-0.8,3.7V118.5z"/>
		<path style="fill:#330099;" d="M105.2,122.7c-0.4,0.7-1,1.3-1.6,1.6c-0.7,0.4-1.4,0.6-2.3,0.6c-1.5,0-2.6-0.5-3.4-1.4
			c-0.8-0.9-1.2-2.4-1.2-4.3v-7.9h2.4v7.9c0,1.4,0.2,2.4,0.6,2.9s1.1,0.8,2,0.8c0.9,0,1.6-0.2,2.1-0.5c0.6-0.3,1-0.8,1.3-1.5v-9.6
			h2.4v13.3h-2.2L105.2,122.7z"/>
		<path style="fill:#330099;" d="M117.4,113.5l-1.2-0.1c-0.6,0-1.2,0.2-1.6,0.5c-0.4,0.3-0.8,0.7-1,1.3v9.5h-2.4v-13.3h2.2l0.2,1.9
			c0.4-0.7,0.8-1.2,1.4-1.6s1.2-0.6,1.9-0.6c0.2,0,0.4,0,0.5,0s0.3,0.1,0.4,0.1L117.4,113.5z"/>
		<path style="fill:#330099;" d="M119.1,117.9c0-2,0.5-3.6,1.6-4.9s2.5-1.9,4.3-1.9c1.8,0,3.3,0.6,4.4,1.9c1.1,1.3,1.6,2.9,1.6,4.9
			v0.3c0,2-0.5,3.6-1.6,4.9c-1.1,1.3-2.5,1.9-4.4,1.9c-1.8,0-3.3-0.6-4.4-1.9s-1.6-2.9-1.6-4.9V117.9z M121.5,118.1
			c0,1.4,0.3,2.6,0.9,3.5s1.5,1.4,2.7,1.4c1.2,0,2-0.5,2.6-1.4s0.9-2.1,0.9-3.5v-0.3c0-1.4-0.3-2.6-0.9-3.5
			c-0.6-0.9-1.5-1.4-2.7-1.4c-1.2,0-2,0.5-2.6,1.4c-0.6,0.9-0.9,2.1-0.9,3.5V118.1z"/>
		<path style="fill:#330099;" d="M13.3,150.5H6.2l-1.5,4.7H0.2l7.3-21.8H12l7.3,21.8h-4.6L13.3,150.5z M7.3,147.1h4.9l-2.4-7.7H9.7
			L7.3,147.1z"/>
		<path style="fill:#330099;" d="M27.8,152.2c0.8,0,1.4-0.2,1.8-0.7s0.7-1.1,0.7-1.8h4l0,0.1c0,1.6-0.6,3-1.8,4.1s-2.8,1.7-4.7,1.7
			c-2.4,0-4.2-0.8-5.5-2.3s-2-3.5-2-5.9v-0.4c0-2.4,0.6-4.3,1.9-5.9c1.3-1.5,3.1-2.3,5.5-2.3c2,0,3.6,0.6,4.8,1.7
			c1.2,1.1,1.8,2.6,1.7,4.5l0,0.1h-4c0-0.8-0.2-1.5-0.7-2.1s-1.1-0.8-1.8-0.8c-1.1,0-1.9,0.5-2.4,1.4c-0.5,0.9-0.7,2.1-0.7,3.5v0.4
			c0,1.4,0.2,2.6,0.7,3.5C25.9,151.8,26.7,152.2,27.8,152.2z"/>
		<path style="fill:#330099;" d="M43.6,152.2c0.8,0,1.4-0.2,1.8-0.7s0.7-1.1,0.7-1.8h4l0,0.1c0,1.6-0.6,3-1.8,4.1
			c-1.3,1.1-2.8,1.7-4.7,1.7c-2.4,0-4.2-0.8-5.5-2.3c-1.3-1.5-2-3.5-2-5.9v-0.4c0-2.4,0.7-4.3,2-5.9s3.1-2.3,5.5-2.3
			c2,0,3.6,0.6,4.8,1.7c1.2,1.1,1.8,2.6,1.7,4.5l0,0.1h-4c0-0.8-0.2-1.5-0.7-2.1s-1.1-0.8-1.8-0.8c-1.1,0-1.9,0.5-2.4,1.4
			c-0.5,0.9-0.7,2.1-0.7,3.5v0.4c0,1.4,0.2,2.6,0.7,3.5C41.6,151.8,42.4,152.2,43.6,152.2z"/>
		<path style="fill:#330099;" d="M57.2,135.2h-4.4v-3.3h4.4V135.2z M57.2,155.2h-4.4v-16.2h4.4V155.2z"/>
		<path style="fill:#330099;" d="M60.1,147.3c0-2.5,0.5-4.6,1.7-6.2c1.1-1.6,2.7-2.3,4.7-2.3c0.8,0,1.5,0.2,2.2,0.5s1.2,0.8,1.7,1.5
			v-8.9h4.4v23.3H71l-0.4-2c-0.5,0.7-1.1,1.3-1.8,1.7s-1.5,0.6-2.4,0.6c-2,0-3.5-0.7-4.6-2.2c-1.1-1.5-1.7-3.4-1.7-5.8V147.3z
			 M64.5,147.6c0,1.4,0.2,2.5,0.7,3.3c0.5,0.8,1.3,1.2,2.3,1.2c0.6,0,1.2-0.1,1.6-0.4c0.5-0.3,0.9-0.6,1.2-1.1v-6.9
			c-0.3-0.5-0.7-0.9-1.1-1.2c-0.5-0.3-1-0.4-1.6-0.4c-1.1,0-1.8,0.5-2.3,1.4c-0.5,0.9-0.7,2.2-0.7,3.7V147.6z"/>
		<path style="fill:#330099;" d="M85.1,155.6c-2.4,0-4.3-0.7-5.6-2.2c-1.4-1.5-2-3.4-2-5.7V147c0-2.4,0.7-4.4,2-5.9
			c1.3-1.5,3.1-2.3,5.4-2.3c2.2,0,3.8,0.7,5,2s1.7,3.1,1.7,5.4v2.3h-9.6l0,0.1c0.1,1.1,0.4,2,1,2.7c0.6,0.7,1.5,1,2.7,1
			c1,0,1.8-0.1,2.5-0.3c0.7-0.2,1.4-0.5,2.1-0.9l1.2,2.7c-0.6,0.5-1.5,1-2.6,1.3C87.6,155.4,86.4,155.6,85.1,155.6z M84.8,142.1
			c-0.9,0-1.6,0.3-2,0.9c-0.5,0.6-0.8,1.4-0.9,2.4l0,0.1h5.3v-0.3c0-0.9-0.2-1.7-0.6-2.2S85.6,142.1,84.8,142.1z"/>
		<path style="fill:#330099;" d="M98,139.1l0.2,2.3c0.5-0.8,1.2-1.5,2-1.9s1.7-0.7,2.6-0.7c1.6,0,2.9,0.5,3.8,1.6s1.4,2.7,1.4,5v9.9
			h-4.4v-9.9c0-1.2-0.2-2-0.6-2.5c-0.4-0.5-1-0.7-1.8-0.7c-0.6,0-1.2,0.1-1.7,0.4c-0.5,0.2-0.9,0.6-1.2,1v11.7H94v-16.2H98z"/>
		<path style="fill:#330099;" d="M116.6,135.1v4h2.7v3.1h-2.7v8.2c0,0.6,0.1,1.1,0.4,1.3c0.3,0.3,0.6,0.4,1,0.4c0.2,0,0.4,0,0.6,0
			c0.2,0,0.4-0.1,0.6-0.1l0.4,3.2c-0.4,0.1-0.9,0.3-1.3,0.3c-0.4,0.1-0.9,0.1-1.4,0.1c-1.5,0-2.7-0.4-3.5-1.2
			c-0.8-0.8-1.2-2.1-1.2-3.9v-8.2h-2.4v-3.1h2.4v-4H116.6z"/>
		<path style="fill:#330099;" d="M129,155.6c-2.4,0-4.3-0.7-5.6-2.2c-1.4-1.5-2-3.4-2-5.7V147c0-2.4,0.7-4.4,2-5.9
			c1.3-1.5,3.1-2.3,5.4-2.3c2.2,0,3.8,0.7,5,2s1.7,3.1,1.7,5.4v2.3h-9.6l0,0.1c0.1,1.1,0.4,2,1,2.7c0.6,0.7,1.5,1,2.7,1
			c1,0,1.8-0.1,2.5-0.3c0.7-0.2,1.4-0.5,2.1-0.9l1.2,2.7c-0.6,0.5-1.5,1-2.6,1.3C131.5,155.4,130.3,155.6,129,155.6z M128.7,142.1
			c-0.9,0-1.6,0.3-2,0.9c-0.5,0.6-0.8,1.4-0.9,2.4l0,0.1h5.3v-0.3c0-0.9-0.2-1.7-0.6-2.2S129.6,142.1,128.7,142.1z"/>
		<path style="fill:#330099;" d="M146.7,150.8c0-0.5-0.2-0.9-0.7-1.2c-0.5-0.3-1.3-0.6-2.6-0.9c-1.9-0.4-3.3-1-4.3-1.7
			c-1-0.8-1.5-1.8-1.5-3.1c0-1.4,0.6-2.6,1.8-3.5c1.2-1,2.7-1.5,4.7-1.5c2,0,3.7,0.5,4.9,1.5c1.2,1,1.8,2.2,1.8,3.6l0,0.1h-4.2
			c0-0.6-0.2-1.2-0.6-1.6s-1-0.6-1.8-0.6c-0.7,0-1.3,0.2-1.7,0.5s-0.6,0.8-0.6,1.3c0,0.5,0.2,0.9,0.6,1.2c0.4,0.3,1.3,0.6,2.6,0.8
			c2,0.4,3.5,1,4.4,1.8c1,0.8,1.5,1.8,1.5,3.2c0,1.5-0.6,2.6-1.9,3.6c-1.2,0.9-2.9,1.4-4.9,1.4c-2.2,0-3.9-0.5-5.1-1.6
			s-1.8-2.3-1.8-3.7l0-0.1h4c0,0.9,0.3,1.5,0.9,1.9c0.5,0.4,1.2,0.6,2.1,0.6c0.8,0,1.4-0.2,1.8-0.5
			C146.5,151.8,146.7,151.3,146.7,150.8z"/>
	</g>
	<g>
		<g>
			<path style="fill:#330099;stroke:#330099;stroke-width:0.9224;stroke-miterlimit:10;" d="M83.8,42.9H68.2c-7.2,0-13,5.8-13,13
				v10.4h2.6V56c0-5.7,4.7-10.4,10.4-10.4H78L75.7,56h-2.3c-4.3,0-7.8,3.5-7.8,7.8s3.5,7.8,7.8,7.8H89c4.3,0,7.8-3.5,7.8-7.8V56
				C96.8,48.8,91,42.9,83.8,42.9L83.8,42.9z M68.2,63.8c0-2.9,2.3-5.2,5.2-5.2h1.7l-2.3,10.4C70.2,68.6,68.2,66.4,68.2,63.8z
				 M75.5,69l5.2-23.4h3.1c0.9,0,1.8,0.1,2.6,0.4V69L75.5,69L75.5,69z M94.2,63.8c0,2.9-2.3,5.2-5.2,5.2V47c3.1,1.8,5.2,5.1,5.2,9
				V63.8z M87.7,28.5c0-6.5-5.2-11.7-11.7-11.7c-6.5,0-11.7,5.2-11.7,11.7c0,6.5,5.2,11.7,11.7,11.7S87.7,34.9,87.7,28.5L87.7,28.5z
				 M76,37.6c-5,0-9.1-4.1-9.1-9.1s4.1-9.1,9.1-9.1s9.1,4.1,9.1,9.1S81,37.6,76,37.6z"/>
		</g>
	</g>
</g>
</svg>
