<?xml version="1.0" encoding="utf-8"?>
<!-- Generator: Adobe Illustrator 18.0.0, SVG Export Plug-In . SVG Version: 6.00 Build 0)  -->
<!DOCTYPE svg PUBLIC "-//W3C//DTD SVG 1.1//EN" "http://www.w3.org/Graphics/SVG/1.1/DTD/svg11.dtd" [
	<!ENTITY ns_extend "http://ns.adobe.com/Extensibility/1.0/">
	<!ENTITY ns_ai "http://ns.adobe.com/AdobeIllustrator/10.0/">
	<!ENTITY ns_graphs "http://ns.adobe.com/Graphs/1.0/">
	<!ENTITY ns_vars "http://ns.adobe.com/Variables/1.0/">
	<!ENTITY ns_imrep "http://ns.adobe.com/ImageReplacement/1.0/">
	<!ENTITY ns_sfw "http://ns.adobe.com/SaveForWeb/1.0/">
	<!ENTITY ns_custom "http://ns.adobe.com/GenericCustomNamespace/1.0/">
	<!ENTITY ns_adobe_xpath "http://ns.adobe.com/XPath/1.0/">
]>
<svg version="1.1" xmlns:x="&ns_extend;" xmlns:i="&ns_ai;" xmlns:graph="&ns_graphs;"
	 xmlns="http://www.w3.org/2000/svg" xmlns:xlink="http://www.w3.org/1999/xlink" x="0px" y="0px" viewBox="0 0 112 164"
	 style="enable-background:new 0 0 112 164;" xml:space="preserve">
<metadata>
	<sfw  xmlns="&ns_sfw;">
		<slices></slices>
		<sliceSourceBounds  width="1819.3" height="163.1" x="93.7" y="-163.5" bottomLeftOrigin="true"></sliceSourceBounds>
	</sfw>
</metadata>
<g id="Capa_1" style="display:none;">
	<g style="display:inline;">
		<path style="fill:#330099;" d="M56,87.8c-24.1,0-43.7-19.6-43.7-43.7S31.9,0.5,56,0.5c24.1,0,43.7,19.6,43.7,43.7
			S80.1,87.8,56,87.8z M56,4.5c-21.9,0-39.7,17.8-39.7,39.7S34.1,83.8,56,83.8c21.9,0,39.7-17.8,39.7-39.7S77.9,4.5,56,4.5z"/>
		<g>
			<path style="fill:#330099;" d="M86.4,40.7L73.3,28.2c0,0,0,0,0-0.1V16.8c0-1-0.8-1.8-1.8-1.8c-1,0-1.8,0.8-1.8,1.8v8.1l-12.5-12
				c-0.7-0.7-1.9-0.7-2.6,0L25.6,40.7c-0.7,0.7-0.8,1.9-0.1,2.6c0.7,0.7,1.9,0.8,2.6,0.1L56,16.8l27.8,26.6c0.4,0.3,0.8,0.5,1.3,0.5
				c0.5,0,1-0.2,1.4-0.6C87.1,42.6,87.1,41.4,86.4,40.7z"/>
			<g>
				<path style="fill:#330099;" d="M75.4,68.5H36.6c-1,0-1.9-0.8-1.9-1.9V43.5c0-1,0.8-1.9,1.9-1.9c1,0,1.9,0.8,1.9,1.9v21.3h35.1
					V43.5c0-1,0.8-1.9,1.9-1.9c1,0,1.9,0.8,1.9,1.9v23.2C77.3,67.7,76.5,68.5,75.4,68.5z"/>
			</g>
		</g>
	</g>
	<g style="display:inline;">
		<path style="fill:#330099;" d="M27.6,120.1c0-0.8-0.3-1.5-0.9-2c-0.6-0.5-1.6-1-3.1-1.4c-1.8-0.5-3.2-1.1-4.3-2s-1.5-2-1.5-3.3
			c0-1.4,0.5-2.6,1.6-3.5c1.1-0.9,2.5-1.4,4.3-1.4c1.9,0,3.4,0.5,4.5,1.6c1.1,1.1,1.7,2.3,1.6,3.7l0,0.1h-2.3c0-1-0.4-1.9-1.1-2.5
			c-0.7-0.7-1.6-1-2.7-1c-1.1,0-2,0.3-2.6,0.8c-0.6,0.5-0.9,1.3-0.9,2.1c0,0.8,0.3,1.4,1,2c0.7,0.5,1.7,1,3.2,1.4
			c1.8,0.5,3.2,1.2,4.1,2.1c0.9,0.9,1.4,2,1.4,3.4c0,1.4-0.6,2.6-1.7,3.5c-1.1,0.9-2.6,1.3-4.4,1.3c-1.7,0-3.3-0.5-4.6-1.5
			s-2-2.3-1.9-3.9l0-0.1h2.3c0,1.1,0.4,2,1.3,2.6c0.9,0.6,1.8,0.9,2.9,0.9c1.1,0,2.1-0.3,2.7-0.8C27.2,121.7,27.6,121,27.6,120.1z"
			/>
		<path style="fill:#330099;" d="M38.6,124.9c-1.9,0-3.4-0.6-4.5-1.8c-1.1-1.2-1.6-2.8-1.6-4.8v-0.5c0-1.9,0.6-3.5,1.7-4.7
			c1.1-1.3,2.5-1.9,4-1.9c1.8,0,3.1,0.6,4,1.7s1.3,2.6,1.3,4.4v1.3h-8.5l0,0.1c0,1.3,0.3,2.4,0.9,3.3c0.6,0.8,1.5,1.2,2.7,1.2
			c0.8,0,1.5-0.1,2.2-0.4c0.6-0.2,1.2-0.6,1.6-1l0.9,1.6c-0.5,0.5-1.1,0.8-1.9,1.2C40.6,124.7,39.7,124.9,38.6,124.9z M38.2,113
			c-0.8,0-1.5,0.3-2.1,1c-0.6,0.7-0.9,1.5-1,2.5l0,0.1h6v-0.2c0-1-0.2-1.8-0.7-2.4S39.2,113,38.2,113z"/>
		<path style="fill:#330099;" d="M45.9,118.2c0-2.1,0.5-3.9,1.4-5.2c0.9-1.3,2.2-2,3.8-2c0.8,0,1.6,0.2,2.2,0.5
			c0.6,0.3,1.2,0.8,1.6,1.5l0.3-1.7h1.9v13.4c0,1.7-0.5,3-1.5,3.9c-1,0.9-2.4,1.4-4.3,1.4c-0.6,0-1.3-0.1-2.1-0.3
			c-0.7-0.2-1.4-0.4-2-0.7l0.4-1.9c0.5,0.2,1,0.4,1.7,0.6c0.7,0.2,1.3,0.2,2,0.2c1.2,0,2-0.3,2.6-0.8s0.8-1.4,0.8-2.5v-1.5
			c-0.4,0.6-1,1-1.6,1.3c-0.6,0.3-1.3,0.4-2.1,0.4c-1.6,0-2.9-0.6-3.8-1.8c-0.9-1.2-1.4-2.7-1.4-4.6V118.2z M48.3,118.5
			c0,1.3,0.3,2.4,0.8,3.2c0.5,0.8,1.4,1.2,2.5,1.2c0.7,0,1.3-0.2,1.8-0.5s0.9-0.8,1.2-1.4v-6.1c-0.3-0.6-0.7-1-1.2-1.3
			s-1.1-0.5-1.8-0.5c-1.2,0-2,0.5-2.6,1.4s-0.8,2.2-0.8,3.7V118.5z"/>
		<path style="fill:#330099;" d="M69.1,122.7c-0.4,0.7-1,1.3-1.6,1.6c-0.7,0.4-1.4,0.6-2.3,0.6c-1.5,0-2.6-0.5-3.4-1.4
			c-0.8-0.9-1.2-2.4-1.2-4.3v-7.9H63v7.9c0,1.4,0.2,2.4,0.6,2.9s1.1,0.8,2,0.8c0.9,0,1.6-0.2,2.1-0.5c0.6-0.3,1-0.8,1.3-1.5v-9.6
			h2.4v13.3h-2.2L69.1,122.7z"/>
		<path style="fill:#330099;" d="M81.2,113.5l-1.2-0.1c-0.6,0-1.2,0.2-1.6,0.5c-0.4,0.3-0.8,0.7-1,1.3v9.5h-2.4v-13.3h2.2l0.2,1.9
			c0.4-0.7,0.8-1.2,1.4-1.6s1.2-0.6,1.9-0.6c0.2,0,0.4,0,0.5,0s0.3,0.1,0.4,0.1L81.2,113.5z"/>
		<path style="fill:#330099;" d="M82.9,117.9c0-2,0.5-3.6,1.6-4.9s2.5-1.9,4.3-1.9c1.8,0,3.3,0.6,4.4,1.9c1.1,1.3,1.6,2.9,1.6,4.9
			v0.3c0,2-0.5,3.6-1.6,4.9c-1.1,1.3-2.5,1.9-4.4,1.9c-1.8,0-3.3-0.6-4.4-1.9s-1.6-2.9-1.6-4.9V117.9z M85.4,118.1
			c0,1.4,0.3,2.6,0.9,3.5s1.5,1.4,2.7,1.4c1.2,0,2-0.5,2.6-1.4s0.9-2.1,0.9-3.5v-0.3c0-1.4-0.3-2.6-0.9-3.5
			c-0.6-0.9-1.5-1.4-2.7-1.4c-1.2,0-2,0.5-2.6,1.4c-0.6,0.9-0.9,2.1-0.9,3.5V118.1z"/>
		<path style="fill:#330099;" d="M33.9,155.2h-4.4v-9h-8.9v9h-4.4v-21.8h4.4v9.4h8.9v-9.4h4.4V155.2z"/>
		<path style="fill:#330099;" d="M36.9,147c0-2.4,0.7-4.4,2-5.9s3.2-2.3,5.6-2.3c2.4,0,4.3,0.8,5.6,2.3c1.4,1.5,2,3.5,2,5.9v0.3
			c0,2.4-0.7,4.4-2,5.9s-3.2,2.3-5.6,2.3c-2.4,0-4.3-0.8-5.6-2.3s-2-3.5-2-5.9V147z M41.3,147.3c0,1.5,0.3,2.7,0.8,3.5
			c0.5,0.9,1.4,1.3,2.5,1.3c1.1,0,2-0.4,2.5-1.3c0.5-0.9,0.8-2.1,0.8-3.5V147c0-1.4-0.3-2.6-0.8-3.5c-0.5-0.9-1.4-1.4-2.5-1.4
			c-1.1,0-2,0.5-2.5,1.4c-0.5,0.9-0.8,2.1-0.8,3.5V147.3z"/>
		<path style="fill:#330099;" d="M54.2,147.3c0-2.5,0.6-4.6,1.7-6.2c1.1-1.6,2.7-2.3,4.7-2.3c0.9,0,1.7,0.2,2.4,0.6
			c0.7,0.4,1.3,1,1.8,1.7l0.3-2.1h3.8v16.1c0,2.1-0.7,3.7-2.1,4.9c-1.4,1.2-3.3,1.7-5.8,1.7c-0.8,0-1.7-0.1-2.6-0.3
			c-0.9-0.2-1.8-0.5-2.5-0.9l0.7-3.3c0.7,0.3,1.4,0.6,2.1,0.7c0.7,0.2,1.5,0.2,2.3,0.2c1.2,0,2.1-0.2,2.6-0.7s0.8-1.3,0.8-2.3v-1.5
			c-0.5,0.6-1,1.1-1.7,1.4c-0.6,0.3-1.4,0.5-2.2,0.5c-2,0-3.5-0.7-4.6-2.2c-1.1-1.5-1.7-3.4-1.7-5.8V147.3z M58.6,147.6
			c0,1.4,0.2,2.5,0.7,3.3c0.5,0.8,1.2,1.2,2.3,1.2c0.7,0,1.2-0.1,1.7-0.4c0.5-0.2,0.8-0.6,1.1-1.1v-7c-0.3-0.5-0.6-0.9-1.1-1.2
			c-0.5-0.3-1-0.4-1.7-0.4c-1.1,0-1.8,0.5-2.3,1.4c-0.5,0.9-0.7,2.2-0.7,3.7V147.6z"/>
		<path style="fill:#330099;" d="M81.7,155.2c-0.2-0.4-0.3-0.8-0.4-1.2c-0.1-0.4-0.2-0.8-0.2-1.3c-0.4,0.8-1,1.4-1.8,2
			c-0.7,0.5-1.6,0.8-2.6,0.8c-1.7,0-3-0.4-3.9-1.3c-0.9-0.9-1.4-2.1-1.4-3.6c0-1.6,0.6-2.8,1.8-3.7c1.2-0.9,3-1.3,5.3-1.3h2.5v-1.3
			c0-0.8-0.2-1.4-0.6-1.8c-0.4-0.4-1-0.6-1.8-0.6c-0.7,0-1.3,0.2-1.6,0.5c-0.4,0.3-0.6,0.8-0.6,1.4h-4.2l0-0.1
			c-0.1-1.4,0.5-2.5,1.8-3.5c1.3-1,2.9-1.5,4.9-1.5c1.9,0,3.5,0.5,4.7,1.5c1.2,1,1.8,2.4,1.8,4.2v6.7c0,0.8,0.1,1.5,0.2,2.1
			c0.1,0.7,0.3,1.3,0.5,2H81.7z M77.7,152.3c0.8,0,1.4-0.2,2-0.6c0.6-0.4,1-0.8,1.2-1.3v-2.3h-2.5c-0.9,0-1.6,0.2-2.1,0.7
			c-0.5,0.5-0.7,1-0.7,1.7c0,0.5,0.2,1,0.5,1.3C76.6,152.2,77.1,152.3,77.7,152.3z"/>
		<path style="fill:#330099;" d="M97.1,142.8l-1.6,0c-0.6,0-1.2,0.1-1.6,0.4c-0.4,0.3-0.7,0.6-1,1.1v10.9h-4.3v-16.2h4l0.2,2.4
			c0.4-0.8,0.9-1.5,1.5-2c0.6-0.5,1.3-0.7,2.1-0.7c0.2,0,0.4,0,0.6,0.1s0.4,0.1,0.6,0.1L97.1,142.8z"/>
	</g>
</g>
<g id="mi">
	<g>
		<path style="fill:#330099;" d="M56,87.8c-24.1,0-43.7-19.6-43.7-43.7S31.9,0.5,56,0.5c24.1,0,43.7,19.6,43.7,43.7
			S80.1,87.8,56,87.8z M56,4.5c-21.9,0-39.7,17.8-39.7,39.7S34.1,83.8,56,83.8c21.9,0,39.7-17.8,39.7-39.7S77.9,4.5,56,4.5z"/>
		<g>
			<path style="fill:#330099;" d="M86.4,40.7L73.3,28.2c0,0,0,0,0-0.1V16.8c0-1-0.8-1.8-1.8-1.8c-1,0-1.8,0.8-1.8,1.8v8.1l-12.5-12
				c-0.7-0.7-1.9-0.7-2.6,0L25.6,40.7c-0.7,0.7-0.8,1.9-0.1,2.6c0.7,0.7,1.9,0.8,2.6,0.1L56,16.8l27.8,26.6c0.4,0.3,0.8,0.5,1.3,0.5
				c0.5,0,1-0.2,1.4-0.6C87.1,42.6,87.1,41.4,86.4,40.7z"/>
			<g>
				<path style="fill:#330099;" d="M75.4,68.5H36.6c-1,0-1.9-0.8-1.9-1.9V43.5c0-1,0.8-1.9,1.9-1.9c1,0,1.9,0.8,1.9,1.9v21.3h35.1
					V43.5c0-1,0.8-1.9,1.9-1.9c1,0,1.9,0.8,1.9,1.9v23.2C77.3,67.7,76.5,68.5,75.4,68.5z"/>
			</g>
		</g>
	</g>
	<g>
		<path style="fill:#330099;" d="M10.8,121.3L10.8,121.3l5.8-14.6h3v17.9h-2.4v-13.4l-0.1,0l-5.4,13.4H10l-5.6-13.9l-0.1,0v13.9H1.9
			v-17.9h3.2L10.8,121.3z"/>
		<path style="fill:#330099;" d="M26.1,107.9h-2.4v-2.5h2.4V107.9z M26.1,124.6h-2.4v-13.3h2.4V124.6z"/>
		<path style="fill:#330099;" d="M43.8,121.1c0-0.5-0.2-1-0.6-1.3c-0.4-0.3-1.2-0.6-2.3-0.9c-1.6-0.3-2.8-0.8-3.6-1.4
			c-0.8-0.6-1.3-1.4-1.3-2.4c0-1.1,0.5-2,1.4-2.8c0.9-0.8,2.1-1.2,3.6-1.2c1.5,0,2.7,0.4,3.7,1.2c0.9,0.8,1.4,1.8,1.3,2.9l0,0.1
			h-2.3c0-0.6-0.3-1.1-0.8-1.6c-0.5-0.5-1.1-0.7-1.9-0.7c-0.9,0-1.5,0.2-1.9,0.6c-0.4,0.4-0.6,0.8-0.6,1.4c0,0.5,0.2,0.9,0.5,1.2
			s1.1,0.5,2.3,0.8c1.6,0.3,2.9,0.8,3.7,1.5c0.8,0.6,1.3,1.5,1.3,2.5c0,1.2-0.5,2.1-1.4,2.9c-1,0.7-2.2,1.1-3.7,1.1
			c-1.7,0-3-0.4-4-1.3c-1-0.9-1.4-1.9-1.4-3l0-0.1H38c0,0.9,0.4,1.5,1,1.9c0.6,0.4,1.3,0.6,2.1,0.6c0.9,0,1.5-0.2,2-0.5
			C43.5,122.1,43.8,121.6,43.8,121.1z"/>
		<path style="fill:#330099;" d="M54.7,124.9c-1.9,0-3.4-0.6-4.5-1.8c-1.1-1.2-1.6-2.8-1.6-4.8v-0.5c0-1.9,0.6-3.5,1.7-4.7
			s2.5-1.9,4-1.9c1.8,0,3.1,0.6,4,1.7c0.9,1.1,1.3,2.6,1.3,4.4v1.3h-8.5l0,0.1c0,1.3,0.3,2.4,0.9,3.3c0.6,0.8,1.5,1.2,2.7,1.2
			c0.8,0,1.5-0.1,2.2-0.4s1.2-0.6,1.6-1l0.9,1.6c-0.5,0.5-1.1,0.8-1.9,1.2C56.8,124.7,55.8,124.9,54.7,124.9z M54.4,113
			c-0.8,0-1.5,0.3-2.1,1c-0.6,0.7-0.9,1.5-1,2.5l0,0.1h6v-0.2c0-1-0.2-1.8-0.7-2.4C56.1,113.3,55.4,113,54.4,113z"/>
		<path style="fill:#330099;" d="M62,118.2c0-2.1,0.5-3.9,1.4-5.2c0.9-1.3,2.2-2,3.8-2c0.8,0,1.6,0.2,2.2,0.5
			c0.6,0.3,1.2,0.8,1.6,1.5l0.3-1.7h1.9v13.4c0,1.7-0.5,3-1.5,3.9c-1,0.9-2.4,1.4-4.3,1.4c-0.6,0-1.3-0.1-2.1-0.3
			c-0.7-0.2-1.4-0.4-2-0.7l0.4-1.9c0.5,0.2,1,0.4,1.7,0.6c0.7,0.2,1.3,0.2,2,0.2c1.2,0,2-0.3,2.6-0.8s0.8-1.4,0.8-2.5v-1.5
			c-0.4,0.6-1,1-1.6,1.3c-0.6,0.3-1.3,0.4-2.1,0.4c-1.6,0-2.9-0.6-3.8-1.8c-0.9-1.2-1.4-2.7-1.4-4.6V118.2z M64.4,118.5
			c0,1.3,0.3,2.4,0.8,3.2c0.5,0.8,1.4,1.2,2.5,1.2c0.7,0,1.3-0.2,1.8-0.5s0.9-0.8,1.2-1.4v-6.1c-0.3-0.6-0.7-1-1.2-1.3
			s-1.1-0.5-1.8-0.5c-1.2,0-2,0.5-2.6,1.4s-0.8,2.2-0.8,3.7V118.5z"/>
		<path style="fill:#330099;" d="M85.2,122.7c-0.4,0.7-1,1.3-1.6,1.6c-0.7,0.4-1.4,0.6-2.3,0.6c-1.5,0-2.6-0.5-3.4-1.4
			c-0.8-0.9-1.2-2.4-1.2-4.3v-7.9h2.4v7.9c0,1.4,0.2,2.4,0.6,2.9s1.1,0.8,2,0.8c0.9,0,1.6-0.2,2.1-0.5c0.6-0.3,1-0.8,1.3-1.5v-9.6
			h2.4v13.3h-2.2L85.2,122.7z"/>
		<path style="fill:#330099;" d="M97.4,113.5l-1.2-0.1c-0.6,0-1.2,0.2-1.6,0.5c-0.4,0.3-0.8,0.7-1,1.3v9.5h-2.4v-13.3h2.2l0.2,1.9
			c0.4-0.7,0.8-1.2,1.4-1.6s1.2-0.6,1.9-0.6c0.2,0,0.4,0,0.5,0s0.3,0.1,0.4,0.1L97.4,113.5z"/>
		<path style="fill:#330099;" d="M99.1,117.9c0-2,0.5-3.6,1.6-4.9s2.5-1.9,4.3-1.9c1.8,0,3.3,0.6,4.4,1.9c1.1,1.3,1.6,2.9,1.6,4.9
			v0.3c0,2-0.5,3.6-1.6,4.9c-1.1,1.3-2.5,1.9-4.4,1.9c-1.8,0-3.3-0.6-4.4-1.9s-1.6-2.9-1.6-4.9V117.9z M101.5,118.1
			c0,1.4,0.3,2.6,0.9,3.5s1.5,1.4,2.7,1.4c1.2,0,2-0.5,2.6-1.4s0.9-2.1,0.9-3.5v-0.3c0-1.4-0.3-2.6-0.9-3.5
			c-0.6-0.9-1.5-1.4-2.7-1.4c-1.2,0-2,0.5-2.6,1.4c-0.6,0.9-0.9,2.1-0.9,3.5V118.1z"/>
		<path style="fill:#330099;" d="M33.9,155.2h-4.4v-9h-8.9v9h-4.4v-21.8h4.4v9.4h8.9v-9.4h4.4V155.2z"/>
		<path style="fill:#330099;" d="M36.9,147c0-2.4,0.7-4.4,2-5.9s3.2-2.3,5.6-2.3c2.4,0,4.3,0.8,5.6,2.3c1.4,1.5,2,3.5,2,5.9v0.3
			c0,2.4-0.7,4.4-2,5.9c-1.3,1.5-3.2,2.3-5.6,2.3c-2.4,0-4.3-0.8-5.6-2.3c-1.3-1.5-2-3.5-2-5.9V147z M41.3,147.3
			c0,1.5,0.3,2.7,0.8,3.5s1.4,1.3,2.5,1.3c1.1,0,1.9-0.4,2.5-1.3c0.5-0.9,0.8-2.1,0.8-3.5V147c0-1.4-0.3-2.6-0.8-3.5
			s-1.4-1.4-2.5-1.4c-1.1,0-2,0.5-2.5,1.4c-0.5,0.9-0.8,2.1-0.8,3.5V147.3z"/>
		<path style="fill:#330099;" d="M54.2,147.3c0-2.5,0.6-4.6,1.7-6.2c1.1-1.6,2.7-2.3,4.7-2.3c0.9,0,1.7,0.2,2.4,0.6s1.3,1,1.8,1.7
			l0.3-2.1h3.8v16.1c0,2.1-0.7,3.7-2.1,4.9s-3.3,1.7-5.8,1.7c-0.8,0-1.7-0.1-2.6-0.3c-0.9-0.2-1.8-0.5-2.5-0.9l0.7-3.3
			c0.7,0.3,1.4,0.6,2.1,0.7c0.7,0.2,1.5,0.2,2.3,0.2c1.2,0,2.1-0.2,2.6-0.7c0.6-0.5,0.8-1.3,0.8-2.3v-1.5c-0.5,0.6-1,1.1-1.7,1.4
			c-0.6,0.3-1.4,0.5-2.2,0.5c-2,0-3.5-0.7-4.6-2.2c-1.1-1.5-1.7-3.4-1.7-5.8V147.3z M58.6,147.6c0,1.4,0.2,2.5,0.7,3.3
			c0.5,0.8,1.2,1.2,2.3,1.2c0.7,0,1.2-0.1,1.7-0.4c0.5-0.2,0.8-0.6,1.1-1.1v-7c-0.3-0.5-0.7-0.9-1.1-1.2c-0.5-0.3-1-0.4-1.7-0.4
			c-1.1,0-1.8,0.5-2.3,1.4s-0.7,2.2-0.7,3.7V147.6z"/>
		<path style="fill:#330099;" d="M81.7,155.2c-0.2-0.4-0.3-0.8-0.4-1.2c-0.1-0.4-0.2-0.8-0.2-1.3c-0.4,0.8-1,1.4-1.8,2
			c-0.7,0.5-1.6,0.8-2.6,0.8c-1.7,0-3-0.4-3.9-1.3c-0.9-0.9-1.4-2.1-1.4-3.6c0-1.6,0.6-2.8,1.8-3.7c1.2-0.9,3-1.3,5.3-1.3h2.5v-1.3
			c0-0.8-0.2-1.4-0.6-1.8c-0.4-0.4-1-0.6-1.8-0.6c-0.7,0-1.3,0.2-1.6,0.5c-0.4,0.3-0.6,0.8-0.6,1.4h-4.2l0-0.1
			c-0.1-1.4,0.5-2.5,1.8-3.5s2.9-1.5,4.9-1.5c1.9,0,3.5,0.5,4.7,1.5s1.8,2.4,1.8,4.2v6.7c0,0.8,0.1,1.5,0.2,2.1
			c0.1,0.7,0.3,1.3,0.5,2H81.7z M77.7,152.3c0.8,0,1.4-0.2,2-0.6c0.6-0.4,1-0.8,1.2-1.3v-2.3h-2.5c-0.9,0-1.6,0.2-2.1,0.7
			c-0.5,0.5-0.7,1-0.7,1.7c0,0.5,0.2,1,0.5,1.3C76.6,152.2,77.1,152.3,77.7,152.3z"/>
		<path style="fill:#330099;" d="M97.1,142.8l-1.6,0c-0.6,0-1.2,0.1-1.6,0.4c-0.4,0.3-0.7,0.6-1,1.1v10.9h-4.3v-16.2h4l0.2,2.4
			c0.4-0.8,0.9-1.5,1.5-2c0.6-0.5,1.3-0.7,2.1-0.7c0.2,0,0.4,0,0.6,0.1c0.2,0,0.4,0.1,0.6,0.1L97.1,142.8z"/>
	</g>
</g>
</svg>
