<?xml version="1.0" encoding="utf-8"?>
<!-- Generator: Adobe Illustrator 18.0.0, SVG Export Plug-In . SVG Version: 6.00 Build 0)  -->
<!DOCTYPE svg PUBLIC "-//W3C//DTD SVG 1.1//EN" "http://www.w3.org/Graphics/SVG/1.1/DTD/svg11.dtd" [
	<!ENTITY ns_extend "http://ns.adobe.com/Extensibility/1.0/">
	<!ENTITY ns_ai "http://ns.adobe.com/AdobeIllustrator/10.0/">
	<!ENTITY ns_graphs "http://ns.adobe.com/Graphs/1.0/">
	<!ENTITY ns_vars "http://ns.adobe.com/Variables/1.0/">
	<!ENTITY ns_imrep "http://ns.adobe.com/ImageReplacement/1.0/">
	<!ENTITY ns_sfw "http://ns.adobe.com/SaveForWeb/1.0/">
	<!ENTITY ns_custom "http://ns.adobe.com/GenericCustomNamespace/1.0/">
	<!ENTITY ns_adobe_xpath "http://ns.adobe.com/XPath/1.0/">
]>
<svg version="1.1" xmlns:x="&ns_extend;" xmlns:i="&ns_ai;" xmlns:graph="&ns_graphs;"
	 xmlns="http://www.w3.org/2000/svg" xmlns:xlink="http://www.w3.org/1999/xlink" x="0px" y="0px" viewBox="0 0 117 164"
	 style="enable-background:new 0 0 117 164;" xml:space="preserve">
<metadata>
	<sfw  xmlns="&ns_sfw;">
		<slices></slices>
		<sliceSourceBounds  width="1819.3" height="163.1" x="93.7" y="-163.5" bottomLeftOrigin="true"></sliceSourceBounds>
	</sfw>
</metadata>
<g id="Capa_1">
	<g>
		<path style="fill:#330099;" d="M58.5,87.8c-24.1,0-43.7-19.6-43.7-43.7S34.4,0.5,58.5,0.5c24.1,0,43.7,19.6,43.7,43.7
			S82.6,87.8,58.5,87.8z M58.5,4.5c-21.9,0-39.7,17.8-39.7,39.7s17.8,39.7,39.7,39.7c21.9,0,39.7-17.8,39.7-39.7S80.4,4.5,58.5,4.5z
			"/>
	</g>
	<g>
		<path style="fill:#330099;" d="M30.1,120.1c0-0.8-0.3-1.5-0.9-2c-0.6-0.5-1.6-1-3.1-1.4c-1.8-0.5-3.2-1.1-4.3-2
			c-1-0.9-1.5-2-1.5-3.3c0-1.4,0.5-2.6,1.6-3.5c1.1-0.9,2.5-1.4,4.3-1.4c1.9,0,3.4,0.5,4.5,1.6c1.1,1.1,1.7,2.3,1.6,3.7l0,0.1H30
			c0-1-0.4-1.9-1.1-2.5c-0.7-0.7-1.6-1-2.7-1c-1.1,0-2,0.3-2.6,0.8s-0.9,1.3-0.9,2.1c0,0.8,0.3,1.4,1,2c0.7,0.5,1.7,1,3.2,1.4
			c1.8,0.5,3.2,1.2,4.1,2.1c0.9,0.9,1.4,2,1.4,3.4c0,1.4-0.6,2.6-1.7,3.5c-1.1,0.9-2.6,1.3-4.4,1.3c-1.7,0-3.3-0.5-4.6-1.5
			c-1.3-1-2-2.3-1.9-3.9l0-0.1h2.3c0,1.1,0.4,2,1.3,2.6c0.9,0.6,1.8,0.9,2.9,0.9c1.1,0,2.1-0.3,2.7-0.8
			C29.7,121.7,30.1,121,30.1,120.1z"/>
		<path style="fill:#330099;" d="M41.1,124.9c-1.9,0-3.4-0.6-4.5-1.8c-1.1-1.2-1.6-2.8-1.6-4.8v-0.5c0-1.9,0.6-3.5,1.7-4.7
			s2.5-1.9,4-1.9c1.8,0,3.1,0.6,4,1.7c0.9,1.1,1.3,2.6,1.3,4.4v1.3h-8.5l0,0.1c0,1.3,0.3,2.4,0.9,3.3c0.6,0.8,1.5,1.2,2.7,1.2
			c0.8,0,1.5-0.1,2.2-0.4s1.2-0.6,1.6-1l0.9,1.6c-0.5,0.5-1.1,0.8-1.9,1.2C43.1,124.7,42.2,124.9,41.1,124.9z M40.7,113
			c-0.8,0-1.5,0.3-2.1,1c-0.6,0.7-0.9,1.5-1,2.5l0,0.1h6v-0.2c0-1-0.2-1.8-0.7-2.4C42.5,113.3,41.7,113,40.7,113z"/>
		<path style="fill:#330099;" d="M48.4,118.2c0-2.1,0.5-3.9,1.4-5.2c0.9-1.3,2.2-2,3.8-2c0.8,0,1.6,0.2,2.2,0.5
			c0.6,0.3,1.2,0.8,1.6,1.5l0.3-1.7h1.9v13.4c0,1.7-0.5,3-1.5,3.9c-1,0.9-2.4,1.4-4.3,1.4c-0.6,0-1.3-0.1-2.1-0.3
			c-0.7-0.2-1.4-0.4-2-0.7l0.4-1.9c0.5,0.2,1,0.4,1.7,0.6c0.7,0.2,1.3,0.2,2,0.2c1.2,0,2-0.3,2.6-0.8c0.5-0.5,0.8-1.4,0.8-2.5v-1.5
			c-0.4,0.6-1,1-1.6,1.3c-0.6,0.3-1.3,0.4-2.1,0.4c-1.6,0-2.9-0.6-3.8-1.8c-0.9-1.2-1.4-2.7-1.4-4.6V118.2z M50.8,118.5
			c0,1.3,0.3,2.4,0.8,3.2c0.5,0.8,1.4,1.2,2.5,1.2c0.7,0,1.3-0.2,1.8-0.5s0.9-0.8,1.2-1.4v-6.1c-0.3-0.6-0.7-1-1.2-1.3
			c-0.5-0.3-1.1-0.5-1.8-0.5c-1.2,0-2,0.5-2.6,1.4s-0.8,2.2-0.8,3.7V118.5z"/>
		<path style="fill:#330099;" d="M71.6,122.7c-0.4,0.7-1,1.3-1.6,1.6c-0.7,0.4-1.4,0.6-2.3,0.6c-1.5,0-2.6-0.5-3.4-1.4
			s-1.2-2.4-1.2-4.3v-7.9h2.4v7.9c0,1.4,0.2,2.4,0.6,2.9c0.4,0.5,1.1,0.8,2,0.8c0.9,0,1.6-0.2,2.1-0.5c0.6-0.3,1-0.8,1.3-1.5v-9.6
			h2.4v13.3h-2.2L71.6,122.7z"/>
		<path style="fill:#330099;" d="M83.7,113.5l-1.2-0.1c-0.6,0-1.2,0.2-1.6,0.5c-0.4,0.3-0.8,0.7-1,1.3v9.5h-2.4v-13.3h2.2l0.2,1.9
			c0.4-0.7,0.8-1.2,1.4-1.6s1.2-0.6,1.9-0.6c0.2,0,0.4,0,0.5,0s0.3,0.1,0.4,0.1L83.7,113.5z"/>
		<path style="fill:#330099;" d="M85.4,117.9c0-2,0.5-3.6,1.6-4.9s2.5-1.9,4.3-1.9c1.8,0,3.3,0.6,4.4,1.9s1.6,2.9,1.6,4.9v0.3
			c0,2-0.5,3.6-1.6,4.9c-1.1,1.3-2.5,1.9-4.4,1.9c-1.8,0-3.3-0.6-4.4-1.9s-1.6-2.9-1.6-4.9V117.9z M87.9,118.1
			c0,1.4,0.3,2.6,0.9,3.5s1.5,1.4,2.7,1.4c1.2,0,2-0.5,2.6-1.4s0.9-2.1,0.9-3.5v-0.3c0-1.4-0.3-2.6-0.9-3.5
			c-0.6-0.9-1.5-1.4-2.7-1.4c-1.2,0-2,0.5-2.6,1.4c-0.6,0.9-0.9,2.1-0.9,3.5V118.1z"/>
		<path style="fill:#330099;" d="M1.2,155.2v-21.8h7.1c2.6,0,4.6,0.5,6,1.5c1.4,1,2.2,2.5,2.2,4.5c0,1-0.3,1.9-0.8,2.7
			c-0.5,0.8-1.3,1.4-2.3,1.8c1.4,0.2,2.4,0.8,3.1,1.8c0.7,0.9,1,2,1,3.2c0,2.1-0.7,3.7-2.1,4.7c-1.4,1.1-3.3,1.6-5.8,1.6H1.2z
			 M5.5,142.6h2.9c1.2,0,2.1-0.2,2.7-0.7c0.6-0.5,0.9-1.2,0.9-2.1c0-1-0.3-1.7-0.9-2.2c-0.6-0.5-1.6-0.7-2.8-0.7H5.5V142.6z
			 M5.5,145.6v6.3h4c1.2,0,2-0.3,2.6-0.8s0.9-1.2,0.9-2.2c0-1.1-0.3-1.9-0.9-2.4s-1.5-0.9-2.7-0.9H5.5z"/>
		<path style="fill:#330099;" d="M24.9,135.2h-4.4v-3.3h4.4V135.2z M24.9,155.2h-4.4v-16.2h4.4V155.2z"/>
		<path style="fill:#330099;" d="M35.3,152.2c0.8,0,1.4-0.2,1.8-0.7s0.7-1.1,0.7-1.8h4l0,0.1c0,1.6-0.6,3-1.8,4.1s-2.8,1.7-4.7,1.7
			c-2.4,0-4.2-0.8-5.5-2.3s-2-3.5-2-5.9v-0.4c0-2.4,0.6-4.3,1.9-5.9c1.3-1.5,3.1-2.3,5.5-2.3c2,0,3.6,0.6,4.8,1.7
			c1.2,1.1,1.8,2.6,1.7,4.5l0,0.1h-4c0-0.8-0.2-1.5-0.7-2.1s-1.1-0.8-1.8-0.8c-1.1,0-1.9,0.5-2.4,1.4c-0.5,0.9-0.7,2.1-0.7,3.5v0.4
			c0,1.4,0.2,2.6,0.7,3.5C33.3,151.8,34.1,152.2,35.3,152.2z"/>
		<path style="fill:#330099;" d="M48.9,135.2h-4.4v-3.3h4.4V135.2z M48.9,155.2h-4.4v-16.2h4.4V155.2z"/>
		<path style="fill:#330099;" d="M59.2,152.2c0.8,0,1.4-0.2,1.8-0.7s0.7-1.1,0.7-1.8h4l0,0.1c0,1.6-0.6,3-1.8,4.1s-2.8,1.7-4.7,1.7
			c-2.4,0-4.2-0.8-5.5-2.3s-2-3.5-2-5.9v-0.4c0-2.4,0.6-4.3,1.9-5.9c1.3-1.5,3.1-2.3,5.5-2.3c2,0,3.6,0.6,4.8,1.7
			c1.2,1.1,1.8,2.6,1.7,4.5l0,0.1h-4c0-0.8-0.2-1.5-0.7-2.1s-1.1-0.8-1.8-0.8c-1.1,0-1.9,0.5-2.4,1.4c-0.5,0.9-0.7,2.1-0.7,3.5v0.4
			c0,1.4,0.2,2.6,0.7,3.5C57.3,151.8,58.1,152.2,59.2,152.2z"/>
		<path style="fill:#330099;" d="M72.8,155.2h-4.4v-23.3h4.4V155.2z"/>
		<path style="fill:#330099;" d="M83.4,155.6c-2.4,0-4.3-0.7-5.6-2.2c-1.4-1.5-2-3.4-2-5.7V147c0-2.4,0.7-4.4,2-5.9s3.1-2.3,5.4-2.3
			c2.2,0,3.8,0.7,5,2c1.2,1.3,1.7,3.1,1.7,5.4v2.3h-9.6l0,0.1c0.1,1.1,0.4,2,1,2.7c0.6,0.7,1.5,1,2.7,1c1,0,1.8-0.1,2.5-0.3
			c0.7-0.2,1.4-0.5,2.1-0.9l1.2,2.7c-0.6,0.5-1.5,1-2.6,1.3C85.9,155.4,84.7,155.6,83.4,155.6z M83.1,142.1c-0.9,0-1.6,0.3-2,0.9
			c-0.5,0.6-0.8,1.4-0.9,2.4l0,0.1h5.3v-0.3c0-0.9-0.2-1.7-0.6-2.2C84.6,142.4,84,142.1,83.1,142.1z"/>
		<path style="fill:#330099;" d="M97.6,135.1v4h2.7v3.1h-2.7v8.2c0,0.6,0.1,1.1,0.4,1.3c0.3,0.3,0.6,0.4,1,0.4c0.2,0,0.4,0,0.6,0
			c0.2,0,0.4-0.1,0.6-0.1l0.4,3.2c-0.4,0.1-0.9,0.3-1.3,0.3c-0.4,0.1-0.9,0.1-1.4,0.1c-1.5,0-2.7-0.4-3.5-1.2
			c-0.8-0.8-1.2-2.1-1.2-3.9v-8.2h-2.4v-3.1h2.4v-4H97.6z"/>
		<path style="fill:#330099;" d="M112.6,155.2c-0.2-0.4-0.3-0.8-0.4-1.2c-0.1-0.4-0.2-0.8-0.2-1.3c-0.4,0.8-1,1.4-1.8,2
			c-0.7,0.5-1.6,0.8-2.6,0.8c-1.7,0-3-0.4-3.9-1.3c-0.9-0.9-1.4-2.1-1.4-3.6c0-1.6,0.6-2.8,1.8-3.7c1.2-0.9,3-1.3,5.3-1.3h2.5v-1.3
			c0-0.8-0.2-1.4-0.6-1.8c-0.4-0.4-1-0.6-1.8-0.6c-0.7,0-1.3,0.2-1.6,0.5c-0.4,0.3-0.6,0.8-0.6,1.4H103l0-0.1
			c-0.1-1.4,0.5-2.5,1.8-3.5c1.3-1,2.9-1.5,4.9-1.5c1.9,0,3.5,0.5,4.7,1.5c1.2,1,1.8,2.4,1.8,4.2v6.7c0,0.8,0.1,1.5,0.2,2.1
			c0.1,0.7,0.3,1.3,0.5,2H112.6z M108.6,152.3c0.8,0,1.4-0.2,2-0.6c0.6-0.4,1-0.8,1.2-1.3v-2.3h-2.5c-0.9,0-1.6,0.2-2.1,0.7
			c-0.5,0.5-0.7,1-0.7,1.7c0,0.5,0.2,1,0.5,1.3C107.5,152.2,108,152.3,108.6,152.3z"/>
	</g>
	<g>
		<path style="fill:#330099;" d="M73.7,63.2c6.3,0,11.4-5.1,11.4-11.4s-5.1-11.4-11.4-11.4c-6.3,0-11.4,5.1-11.4,11.4
			S67.4,63.2,73.7,63.2z M43.3,63.2c6.3,0,11.4-5.1,11.4-11.4s-5.1-11.4-11.4-11.4s-11.4,5.1-11.4,11.4S36.9,63.2,43.3,63.2z
			 M43.3,59.4c-4.2,0-7.6-3.4-7.6-7.6s3.4-7.6,7.6-7.6s7.6,3.4,7.6,7.6S47.4,59.4,43.3,59.4z M41.3,51.8h3.8l4.2-19.1h-3.8
			L41.3,51.8z M41.3,28.9h11.4v-3.8H41.3V28.9z M73.7,59.4c-4.2,0-7.6-3.4-7.6-7.6s3.4-7.6,7.6-7.6s7.6,3.4,7.6,7.6
			S77.9,59.4,73.7,59.4z M45.5,36.5h26.3l-1.9-3.8H45.5V36.5z M77.6,25.1h-6.4c-2.8,0-4.7,2.2-4.1,5l4.7,21.7h3.8l-4.7-21.7
			c-0.2-0.7,0.3-1.2,1-1.2h5.6L77.6,25.1z"/>
	</g>
</g>
<g id="mi" style="display:none;">
	<g style="display:inline;">
		<path style="fill:#330099;" d="M58.5,87.8c-24.1,0-43.7-19.6-43.7-43.7S34.4,0.5,58.5,0.5c24.1,0,43.7,19.6,43.7,43.7
			S82.6,87.8,58.5,87.8z M58.5,4.5c-21.9,0-39.7,17.8-39.7,39.7s17.8,39.7,39.7,39.7c21.9,0,39.7-17.8,39.7-39.7S80.4,4.5,58.5,4.5z
			"/>
	</g>
	<g style="display:inline;">
		<path style="fill:#330099;" d="M13.3,121.3L13.3,121.3l5.8-14.6h3v17.9h-2.4v-13.4l-0.1,0l-5.4,13.4h-1.7l-5.6-13.9l-0.1,0v13.9
			H4.4v-17.9h3.2L13.3,121.3z"/>
		<path style="fill:#330099;" d="M28.6,107.9h-2.4v-2.5h2.4V107.9z M28.6,124.6h-2.4v-13.3h2.4V124.6z"/>
		<path style="fill:#330099;" d="M46.3,121.1c0-0.5-0.2-1-0.6-1.3c-0.4-0.3-1.2-0.6-2.3-0.9c-1.6-0.3-2.8-0.8-3.6-1.4
			c-0.8-0.6-1.3-1.4-1.3-2.4c0-1.1,0.5-2,1.4-2.8c0.9-0.8,2.1-1.2,3.6-1.2c1.5,0,2.7,0.4,3.7,1.2c0.9,0.8,1.4,1.8,1.3,2.9l0,0.1
			h-2.3c0-0.6-0.3-1.1-0.8-1.6c-0.5-0.5-1.1-0.7-1.9-0.7c-0.9,0-1.5,0.2-1.9,0.6c-0.4,0.4-0.6,0.8-0.6,1.4c0,0.5,0.2,0.9,0.5,1.2
			s1.1,0.5,2.3,0.8c1.6,0.3,2.9,0.8,3.7,1.5c0.8,0.6,1.3,1.5,1.3,2.5c0,1.2-0.5,2.1-1.4,2.9c-1,0.7-2.2,1.1-3.7,1.1
			c-1.7,0-3-0.4-4-1.3c-1-0.9-1.4-1.9-1.4-3l0-0.1h2.3c0,0.9,0.4,1.5,1,1.9c0.6,0.4,1.3,0.6,2.1,0.6c0.9,0,1.5-0.2,2-0.5
			C46,122.1,46.3,121.6,46.3,121.1z"/>
		<path style="fill:#330099;" d="M57.2,124.9c-1.9,0-3.4-0.6-4.5-1.8c-1.1-1.2-1.6-2.8-1.6-4.8v-0.5c0-1.9,0.6-3.5,1.7-4.7
			s2.5-1.9,4-1.9c1.8,0,3.1,0.6,4,1.7c0.9,1.1,1.3,2.6,1.3,4.4v1.3h-8.5l0,0.1c0,1.3,0.3,2.4,0.9,3.3c0.6,0.8,1.5,1.2,2.7,1.2
			c0.8,0,1.5-0.1,2.2-0.4s1.2-0.6,1.6-1l0.9,1.6c-0.5,0.5-1.1,0.8-1.9,1.2C59.3,124.7,58.3,124.9,57.2,124.9z M56.9,113
			c-0.8,0-1.5,0.3-2.1,1c-0.6,0.7-0.9,1.5-1,2.5l0,0.1h6v-0.2c0-1-0.2-1.8-0.7-2.4C58.6,113.3,57.9,113,56.9,113z"/>
		<path style="fill:#330099;" d="M64.5,118.2c0-2.1,0.5-3.9,1.4-5.2c0.9-1.3,2.2-2,3.8-2c0.8,0,1.6,0.2,2.2,0.5
			c0.6,0.3,1.2,0.8,1.6,1.5l0.3-1.7h1.9v13.4c0,1.7-0.5,3-1.5,3.9c-1,0.9-2.4,1.4-4.3,1.4c-0.6,0-1.3-0.1-2.1-0.3
			c-0.7-0.2-1.4-0.4-2-0.7l0.4-1.9c0.5,0.2,1,0.4,1.7,0.6c0.7,0.2,1.3,0.2,2,0.2c1.2,0,2-0.3,2.6-0.8s0.8-1.4,0.8-2.5v-1.5
			c-0.4,0.6-1,1-1.6,1.3c-0.6,0.3-1.3,0.4-2.1,0.4c-1.6,0-2.9-0.6-3.8-1.8c-0.9-1.2-1.4-2.7-1.4-4.6V118.2z M66.9,118.5
			c0,1.3,0.3,2.4,0.8,3.2c0.5,0.8,1.4,1.2,2.5,1.2c0.7,0,1.3-0.2,1.8-0.5s0.9-0.8,1.2-1.4v-6.1c-0.3-0.6-0.7-1-1.2-1.3
			S71,113,70.3,113c-1.2,0-2,0.5-2.6,1.4s-0.8,2.2-0.8,3.7V118.5z"/>
		<path style="fill:#330099;" d="M87.7,122.7c-0.4,0.7-1,1.3-1.6,1.6c-0.7,0.4-1.4,0.6-2.3,0.6c-1.5,0-2.6-0.5-3.4-1.4
			c-0.8-0.9-1.2-2.4-1.2-4.3v-7.9h2.4v7.9c0,1.4,0.2,2.4,0.6,2.9s1.1,0.8,2,0.8c0.9,0,1.6-0.2,2.1-0.5c0.6-0.3,1-0.8,1.3-1.5v-9.6
			H90v13.3h-2.2L87.7,122.7z"/>
		<path style="fill:#330099;" d="M99.9,113.5l-1.2-0.1c-0.6,0-1.2,0.2-1.6,0.5c-0.4,0.3-0.8,0.7-1,1.3v9.5h-2.4v-13.3h2.2l0.2,1.9
			c0.4-0.7,0.8-1.2,1.4-1.6s1.2-0.6,1.9-0.6c0.2,0,0.4,0,0.5,0s0.3,0.1,0.4,0.1L99.9,113.5z"/>
		<path style="fill:#330099;" d="M101.6,117.9c0-2,0.5-3.6,1.6-4.9s2.5-1.9,4.3-1.9c1.8,0,3.3,0.6,4.4,1.9c1.1,1.3,1.6,2.9,1.6,4.9
			v0.3c0,2-0.5,3.6-1.6,4.9c-1.1,1.3-2.5,1.9-4.4,1.9c-1.8,0-3.3-0.6-4.4-1.9s-1.6-2.9-1.6-4.9V117.9z M104,118.1
			c0,1.4,0.3,2.6,0.9,3.5s1.5,1.4,2.7,1.4c1.2,0,2-0.5,2.6-1.4s0.9-2.1,0.9-3.5v-0.3c0-1.4-0.3-2.6-0.9-3.5
			c-0.6-0.9-1.5-1.4-2.7-1.4c-1.2,0-2,0.5-2.6,1.4c-0.6,0.9-0.9,2.1-0.9,3.5V118.1z"/>
		<path style="fill:#330099;" d="M1.2,155.2v-21.8h7.1c2.6,0,4.6,0.5,6,1.5c1.4,1,2.2,2.5,2.2,4.5c0,1-0.3,1.9-0.8,2.7
			c-0.5,0.8-1.3,1.4-2.3,1.8c1.4,0.2,2.4,0.8,3.1,1.8c0.7,0.9,1,2,1,3.2c0,2.1-0.7,3.7-2.1,4.7c-1.4,1.1-3.3,1.6-5.8,1.6H1.2z
			 M5.5,142.6h2.9c1.2,0,2.1-0.2,2.7-0.7c0.6-0.5,0.9-1.2,0.9-2.1c0-1-0.3-1.7-0.9-2.2c-0.6-0.5-1.6-0.7-2.8-0.7H5.5V142.6z
			 M5.5,145.6v6.3h4c1.2,0,2-0.3,2.6-0.8s0.9-1.2,0.9-2.2c0-1.1-0.3-1.9-0.9-2.4s-1.5-0.9-2.7-0.9H5.5z"/>
		<path style="fill:#330099;" d="M24.9,135.2h-4.4v-3.3h4.4V135.2z M24.9,155.2h-4.4v-16.2h4.4V155.2z"/>
		<path style="fill:#330099;" d="M35.3,152.2c0.8,0,1.4-0.2,1.8-0.7s0.7-1.1,0.7-1.8h4l0,0.1c0,1.6-0.6,3-1.8,4.1s-2.8,1.7-4.7,1.7
			c-2.4,0-4.2-0.8-5.5-2.3s-2-3.5-2-5.9v-0.4c0-2.4,0.6-4.3,1.9-5.9c1.3-1.5,3.1-2.3,5.5-2.3c2,0,3.6,0.6,4.8,1.7
			c1.2,1.1,1.8,2.6,1.7,4.5l0,0.1h-4c0-0.8-0.2-1.5-0.7-2.1s-1.1-0.8-1.8-0.8c-1.1,0-1.9,0.5-2.4,1.4c-0.5,0.9-0.7,2.1-0.7,3.5v0.4
			c0,1.4,0.2,2.6,0.7,3.5C33.3,151.8,34.1,152.2,35.3,152.2z"/>
		<path style="fill:#330099;" d="M48.9,135.2h-4.4v-3.3h4.4V135.2z M48.9,155.2h-4.4v-16.2h4.4V155.2z"/>
		<path style="fill:#330099;" d="M59.2,152.2c0.8,0,1.4-0.2,1.8-0.7s0.7-1.1,0.7-1.8h4l0,0.1c0,1.6-0.6,3-1.8,4.1s-2.8,1.7-4.7,1.7
			c-2.4,0-4.2-0.8-5.5-2.3s-2-3.5-2-5.9v-0.4c0-2.4,0.6-4.3,1.9-5.9c1.3-1.5,3.1-2.3,5.5-2.3c2,0,3.6,0.6,4.8,1.7
			c1.2,1.1,1.8,2.6,1.7,4.5l0,0.1h-4c0-0.8-0.2-1.5-0.7-2.1s-1.1-0.8-1.8-0.8c-1.1,0-1.9,0.5-2.4,1.4c-0.5,0.9-0.7,2.1-0.7,3.5v0.4
			c0,1.4,0.2,2.6,0.7,3.5C57.3,151.8,58.1,152.2,59.2,152.2z"/>
		<path style="fill:#330099;" d="M72.8,155.2h-4.4v-23.3h4.4V155.2z"/>
		<path style="fill:#330099;" d="M83.4,155.6c-2.4,0-4.3-0.7-5.6-2.2c-1.4-1.5-2-3.4-2-5.7V147c0-2.4,0.7-4.4,2-5.9s3.1-2.3,5.4-2.3
			c2.2,0,3.8,0.7,5,2c1.2,1.3,1.7,3.1,1.7,5.4v2.3h-9.6l0,0.1c0.1,1.1,0.4,2,1,2.7c0.6,0.7,1.5,1,2.7,1c1,0,1.8-0.1,2.5-0.3
			c0.7-0.2,1.4-0.5,2.1-0.9l1.2,2.7c-0.6,0.5-1.5,1-2.6,1.3C85.9,155.4,84.7,155.6,83.4,155.6z M83.1,142.1c-0.9,0-1.6,0.3-2,0.9
			c-0.5,0.6-0.8,1.4-0.9,2.4l0,0.1h5.3v-0.3c0-0.9-0.2-1.7-0.6-2.2C84.6,142.4,84,142.1,83.1,142.1z"/>
		<path style="fill:#330099;" d="M97.6,135.1v4h2.7v3.1h-2.7v8.2c0,0.6,0.1,1.1,0.4,1.3c0.3,0.3,0.6,0.4,1,0.4c0.2,0,0.4,0,0.6,0
			c0.2,0,0.4-0.1,0.6-0.1l0.4,3.2c-0.4,0.1-0.9,0.3-1.3,0.3c-0.4,0.1-0.9,0.1-1.4,0.1c-1.5,0-2.7-0.4-3.5-1.2
			c-0.8-0.8-1.2-2.1-1.2-3.9v-8.2h-2.4v-3.1h2.4v-4H97.6z"/>
		<path style="fill:#330099;" d="M112.6,155.2c-0.2-0.4-0.3-0.8-0.4-1.2c-0.1-0.4-0.2-0.8-0.2-1.3c-0.4,0.8-1,1.4-1.8,2
			c-0.7,0.5-1.6,0.8-2.6,0.8c-1.7,0-3-0.4-3.9-1.3c-0.9-0.9-1.4-2.1-1.4-3.6c0-1.6,0.6-2.8,1.8-3.7c1.2-0.9,3-1.3,5.3-1.3h2.5v-1.3
			c0-0.8-0.2-1.4-0.6-1.8c-0.4-0.4-1-0.6-1.8-0.6c-0.7,0-1.3,0.2-1.6,0.5c-0.4,0.3-0.6,0.8-0.6,1.4H103l0-0.1
			c-0.1-1.4,0.5-2.5,1.8-3.5c1.3-1,2.9-1.5,4.9-1.5c1.9,0,3.5,0.5,4.7,1.5c1.2,1,1.8,2.4,1.8,4.2v6.7c0,0.8,0.1,1.5,0.2,2.1
			c0.1,0.7,0.3,1.3,0.5,2H112.6z M108.6,152.3c0.8,0,1.4-0.2,2-0.6c0.6-0.4,1-0.8,1.2-1.3v-2.3h-2.5c-0.9,0-1.6,0.2-2.1,0.7
			c-0.5,0.5-0.7,1-0.7,1.7c0,0.5,0.2,1,0.5,1.3C107.5,152.2,108,152.3,108.6,152.3z"/>
	</g>
	<g style="display:inline;">
		<path style="fill:#330099;" d="M73.7,63.2c6.3,0,11.4-5.1,11.4-11.4s-5.1-11.4-11.4-11.4c-6.3,0-11.4,5.1-11.4,11.4
			S67.4,63.2,73.7,63.2z M43.3,63.2c6.3,0,11.4-5.1,11.4-11.4s-5.1-11.4-11.4-11.4s-11.4,5.1-11.4,11.4S36.9,63.2,43.3,63.2z
			 M43.3,59.4c-4.2,0-7.6-3.4-7.6-7.6s3.4-7.6,7.6-7.6s7.6,3.4,7.6,7.6S47.4,59.4,43.3,59.4z M41.3,51.8h3.8l4.2-19.1h-3.8
			L41.3,51.8z M41.3,28.9h11.4v-3.8H41.3V28.9z M73.7,59.4c-4.2,0-7.6-3.4-7.6-7.6s3.4-7.6,7.6-7.6s7.6,3.4,7.6,7.6
			S77.9,59.4,73.7,59.4z M45.5,36.5h26.3l-1.9-3.8H45.5V36.5z M77.6,25.1h-6.4c-2.8,0-4.7,2.2-4.1,5l4.7,21.7h3.8l-4.7-21.7
			c-0.2-0.7,0.3-1.2,1-1.2h5.6L77.6,25.1z"/>
	</g>
</g>
</svg>
