<?xml version="1.0" encoding="utf-8"?>
<!-- Generator: Adobe Illustrator 18.0.0, SVG Export Plug-In . SVG Version: 6.00 Build 0)  -->
<!DOCTYPE svg PUBLIC "-//W3C//DTD SVG 1.1//EN" "http://www.w3.org/Graphics/SVG/1.1/DTD/svg11.dtd" [
	<!ENTITY ns_extend "http://ns.adobe.com/Extensibility/1.0/">
	<!ENTITY ns_ai "http://ns.adobe.com/AdobeIllustrator/10.0/">
	<!ENTITY ns_graphs "http://ns.adobe.com/Graphs/1.0/">
	<!ENTITY ns_vars "http://ns.adobe.com/Variables/1.0/">
	<!ENTITY ns_imrep "http://ns.adobe.com/ImageReplacement/1.0/">
	<!ENTITY ns_sfw "http://ns.adobe.com/SaveForWeb/1.0/">
	<!ENTITY ns_custom "http://ns.adobe.com/GenericCustomNamespace/1.0/">
	<!ENTITY ns_adobe_xpath "http://ns.adobe.com/XPath/1.0/">
]>
<svg version="1.1" xmlns:x="&ns_extend;" xmlns:i="&ns_ai;" xmlns:graph="&ns_graphs;"
	 xmlns="http://www.w3.org/2000/svg" xmlns:xlink="http://www.w3.org/1999/xlink" x="0px" y="0px" viewBox="0 0 116 164"
	 style="enable-background:new 0 0 116 164;" xml:space="preserve">
<metadata>
	<sfw  xmlns="&ns_sfw;">
		<slices></slices>
		<sliceSourceBounds  width="1819.3" height="163.1" x="93.7" y="-163.5" bottomLeftOrigin="true"></sliceSourceBounds>
	</sfw>
</metadata>
<g id="Capa_1" style="display:none;">
	<path style="display:inline;fill:#330099;" d="M79.6,21.4H36.4c-0.8,0-1.5,0.7-1.5,1.5v13.9c0,0.8,0.7,1.5,1.5,1.5h6.6v27
		c0,0.8,0.7,1.5,1.5,1.5H71c0.8,0,1.5-0.7,1.5-1.5v-27h7c0.8,0,1.5-0.7,1.5-1.5V23C81.1,22.1,80.4,21.4,79.6,21.4L79.6,21.4z
		 M69.5,63.8H46.1V31.5h23.3V63.8z M78,35.3h-5.5v-3.8h2c0.8,0,1.5-0.7,1.5-1.5c0-0.8-0.7-1.5-1.5-1.5H71l-26.4,0h-3.2
		c-0.8,0-1.5,0.7-1.5,1.5c0,0.8,0.7,1.5,1.5,1.5h1.6v3.8l-5.1,0V24.5h40L78,35.3z M54.4,53c0-0.8-0.7-1.5-1.5-1.5
		c-0.8,0-1.5,0.7-1.5,1.5c0,2.8,2.2,5.1,5,5.7c0.1,0.8,0.7,1.5,1.5,1.5s1.5-0.6,1.5-1.5c2.8-0.6,4.5-2.8,4.9-4.9
		c0.4-2.2-0.7-5-4-6.1c-0.3-0.1-0.5-0.2-0.8-0.2V42c1.2,0.5,1.9,1.4,1.9,2.5c0,0.8,0.7,1.5,1.5,1.5c0.8,0,1.5-0.7,1.5-1.5
		c0-2.8-2.2-5.1-5-5.7c-0.1-0.8-0.7-1.5-1.5-1.5c-0.8,0-1.5,0.6-1.5,1.5c-2.8,0.6-5,2.9-5,5.7c0,2.3,1.5,4.5,3.8,5.3
		c0.4,0.2,0.8,0.2,1.2,0.3v5.5C55.2,55,54.4,54.1,54.4,53L54.4,53z M59.4,50.6c1.3,0.5,2,1.5,1.8,2.6c-0.2,0.8-0.8,1.8-1.8,2.2V50.6
		z M56.2,46.9c-1.1-0.4-1.8-1.4-1.8-2.4c0-1.1,0.8-2,1.9-2.5L56.2,46.9z"/>
	<path style="display:inline;fill:#330099;" d="M58,87.8c-24.1,0-43.7-19.6-43.7-43.7S33.9,0.5,58,0.5c24.1,0,43.7,19.6,43.7,43.7
		S82.1,87.8,58,87.8z M58,4.5c-21.9,0-39.7,17.8-39.7,39.7S36.1,83.8,58,83.8c21.9,0,39.7-17.8,39.7-39.7S79.9,4.5,58,4.5z"/>
	<g style="display:inline;">
		<path style="fill:#330099;" d="M29.6,120.1c0-0.8-0.3-1.5-0.9-2c-0.6-0.5-1.6-1-3.1-1.4c-1.8-0.5-3.2-1.1-4.3-2
			c-1-0.9-1.5-2-1.5-3.3c0-1.4,0.5-2.6,1.6-3.5c1.1-0.9,2.5-1.4,4.3-1.4c1.9,0,3.4,0.5,4.5,1.6c1.1,1.1,1.7,2.3,1.6,3.7l0,0.1h-2.3
			c0-1-0.4-1.9-1.1-2.5c-0.7-0.7-1.6-1-2.7-1c-1.1,0-2,0.3-2.6,0.8c-0.6,0.5-0.9,1.3-0.9,2.1c0,0.8,0.3,1.4,1,2
			c0.7,0.5,1.7,1,3.2,1.4c1.8,0.5,3.2,1.2,4.1,2.1c0.9,0.9,1.4,2,1.4,3.4c0,1.4-0.6,2.6-1.7,3.5c-1.1,0.9-2.6,1.3-4.4,1.3
			c-1.7,0-3.3-0.5-4.6-1.5c-1.3-1-2-2.3-1.9-3.9l0-0.1h2.3c0,1.1,0.4,2,1.3,2.6c0.9,0.6,1.8,0.9,2.9,0.9c1.1,0,2.1-0.3,2.7-0.8
			C29.2,121.7,29.6,121,29.6,120.1z"/>
		<path style="fill:#330099;" d="M40.6,124.9c-1.9,0-3.4-0.6-4.5-1.8c-1.1-1.2-1.6-2.8-1.6-4.8v-0.5c0-1.9,0.6-3.5,1.7-4.7
			s2.5-1.9,4-1.9c1.8,0,3.1,0.6,4,1.7c0.9,1.1,1.3,2.6,1.3,4.4v1.3h-8.5l0,0.1c0,1.3,0.3,2.4,0.9,3.3c0.6,0.8,1.5,1.2,2.7,1.2
			c0.8,0,1.5-0.1,2.2-0.4c0.6-0.2,1.2-0.6,1.6-1l0.9,1.6c-0.5,0.5-1.1,0.8-1.9,1.2C42.6,124.7,41.7,124.9,40.6,124.9z M40.2,113
			c-0.8,0-1.5,0.3-2.1,1c-0.6,0.7-0.9,1.5-1,2.5l0,0.1h6v-0.2c0-1-0.2-1.8-0.7-2.4C42,113.3,41.2,113,40.2,113z"/>
		<path style="fill:#330099;" d="M47.9,118.2c0-2.1,0.5-3.9,1.4-5.2s2.2-2,3.8-2c0.8,0,1.6,0.2,2.2,0.5c0.6,0.3,1.2,0.8,1.6,1.5
			l0.3-1.7h1.9v13.4c0,1.7-0.5,3-1.5,3.9c-1,0.9-2.4,1.4-4.3,1.4c-0.6,0-1.3-0.1-2.1-0.3c-0.7-0.2-1.4-0.4-2-0.7l0.4-1.9
			c0.5,0.2,1,0.4,1.7,0.6c0.7,0.2,1.3,0.2,2,0.2c1.2,0,2-0.3,2.6-0.8c0.5-0.5,0.8-1.4,0.8-2.5v-1.5c-0.4,0.6-1,1-1.6,1.3
			c-0.6,0.3-1.3,0.4-2.1,0.4c-1.6,0-2.9-0.6-3.8-1.8c-0.9-1.2-1.4-2.7-1.4-4.6V118.2z M50.3,118.5c0,1.3,0.3,2.4,0.8,3.2
			c0.5,0.8,1.4,1.2,2.5,1.2c0.7,0,1.3-0.2,1.8-0.5s0.9-0.8,1.2-1.4v-6.1c-0.3-0.6-0.7-1-1.2-1.3c-0.5-0.3-1.1-0.5-1.8-0.5
			c-1.2,0-2,0.5-2.6,1.4s-0.8,2.2-0.8,3.7V118.5z"/>
		<path style="fill:#330099;" d="M71.1,122.7c-0.4,0.7-1,1.3-1.6,1.6c-0.7,0.4-1.4,0.6-2.3,0.6c-1.5,0-2.6-0.5-3.4-1.4
			s-1.2-2.4-1.2-4.3v-7.9H65v7.9c0,1.4,0.2,2.4,0.6,2.9c0.4,0.5,1.1,0.8,2,0.8c0.9,0,1.6-0.2,2.1-0.5c0.6-0.3,1-0.8,1.3-1.5v-9.6
			h2.4v13.3h-2.2L71.1,122.7z"/>
		<path style="fill:#330099;" d="M83.2,113.5l-1.2-0.1c-0.6,0-1.2,0.2-1.6,0.5c-0.4,0.3-0.8,0.7-1,1.3v9.5h-2.4v-13.3h2.2l0.2,1.9
			c0.4-0.7,0.8-1.2,1.4-1.6s1.2-0.6,1.9-0.6c0.2,0,0.4,0,0.5,0s0.3,0.1,0.4,0.1L83.2,113.5z"/>
		<path style="fill:#330099;" d="M84.9,117.9c0-2,0.5-3.6,1.6-4.9s2.5-1.9,4.3-1.9c1.8,0,3.3,0.6,4.4,1.9c1.1,1.3,1.6,2.9,1.6,4.9
			v0.3c0,2-0.5,3.6-1.6,4.9c-1.1,1.3-2.5,1.9-4.4,1.9c-1.8,0-3.3-0.6-4.4-1.9s-1.6-2.9-1.6-4.9V117.9z M87.4,118.1
			c0,1.4,0.3,2.6,0.9,3.5c0.6,0.9,1.5,1.4,2.7,1.4c1.2,0,2-0.5,2.6-1.4s0.9-2.1,0.9-3.5v-0.3c0-1.4-0.3-2.6-0.9-3.5
			c-0.6-0.9-1.5-1.4-2.7-1.4c-1.2,0-2,0.5-2.6,1.4c-0.6,0.9-0.9,2.1-0.9,3.5V118.1z"/>
		<path style="fill:#330099;" d="M24.5,148L24.5,148c0.1,2.4-0.6,4.2-2.1,5.5c-1.5,1.3-3.5,2-6,2c-2.6,0-4.7-0.8-6.3-2.5
			c-1.6-1.7-2.4-3.8-2.4-6.5v-4.3c0-2.6,0.8-4.8,2.3-6.5c1.6-1.7,3.6-2.5,6.2-2.5c2.6,0,4.7,0.6,6.2,1.9s2.2,3.1,2.2,5.5l0,0.1h-4.2
			c0-1.4-0.3-2.4-1-3.1c-0.7-0.7-1.7-1-3.1-1c-1.3,0-2.3,0.5-3.1,1.6s-1.1,2.4-1.1,4.1v4.3c0,1.7,0.4,3,1.2,4.1
			c0.8,1.1,1.8,1.6,3.2,1.6c1.3,0,2.3-0.3,2.9-1c0.6-0.7,1-1.7,1-3.1H24.5z"/>
		<path style="fill:#330099;" d="M36.9,155.2c-0.2-0.4-0.3-0.8-0.4-1.2c-0.1-0.4-0.2-0.8-0.2-1.3c-0.4,0.8-1,1.4-1.8,2
			c-0.7,0.5-1.6,0.8-2.6,0.8c-1.7,0-3-0.4-3.9-1.3c-0.9-0.9-1.4-2.1-1.4-3.6c0-1.6,0.6-2.8,1.8-3.7c1.2-0.9,3-1.3,5.3-1.3h2.5v-1.3
			c0-0.8-0.2-1.4-0.6-1.8c-0.4-0.4-1-0.6-1.8-0.6c-0.7,0-1.3,0.2-1.6,0.5c-0.4,0.3-0.6,0.8-0.6,1.4h-4.2l0-0.1
			c-0.1-1.4,0.5-2.5,1.8-3.5c1.3-1,2.9-1.5,4.9-1.5c1.9,0,3.5,0.5,4.7,1.5c1.2,1,1.8,2.4,1.8,4.2v6.7c0,0.8,0.1,1.5,0.2,2.1
			c0.1,0.7,0.3,1.3,0.5,2H36.9z M32.9,152.3c0.8,0,1.4-0.2,2-0.6c0.6-0.4,1-0.8,1.2-1.3v-2.3h-2.5c-0.9,0-1.6,0.2-2.1,0.7
			s-0.7,1-0.7,1.7c0,0.5,0.2,1,0.5,1.3C31.8,152.2,32.3,152.3,32.9,152.3z"/>
		<path style="fill:#330099;" d="M48.5,139.1v16.8c0,1.9-0.5,3.4-1.5,4.4c-1,1-2.4,1.5-4.2,1.5c-0.4,0-0.8,0-1.1-0.1s-0.7-0.1-1-0.2
			l0.2-3.3c0.2,0.1,0.5,0.1,0.7,0.1c0.2,0,0.5,0,0.7,0c0.6,0,1-0.2,1.4-0.6c0.3-0.4,0.5-1,0.5-1.9v-16.8H48.5z M48.4,135.2H44v-3.2
			h4.4V135.2z"/>
		<path style="fill:#330099;" d="M58.9,155.6c-2.4,0-4.3-0.7-5.6-2.2c-1.4-1.5-2-3.4-2-5.7V147c0-2.4,0.7-4.4,2-5.9s3.1-2.3,5.4-2.3
			c2.2,0,3.8,0.7,5,2s1.7,3.1,1.7,5.4v2.3h-9.6l0,0.1c0.1,1.1,0.4,2,1,2.7c0.6,0.7,1.5,1,2.7,1c1,0,1.8-0.1,2.5-0.3
			c0.7-0.2,1.4-0.5,2.1-0.9l1.2,2.7c-0.6,0.5-1.5,1-2.6,1.3C61.4,155.4,60.2,155.6,58.9,155.6z M58.6,142.1c-0.9,0-1.6,0.3-2,0.9
			s-0.8,1.4-0.9,2.4l0,0.1h5.3v-0.3c0-0.9-0.2-1.7-0.6-2.2S59.5,142.1,58.6,142.1z"/>
		<path style="fill:#330099;" d="M76.4,142.8l-1.6,0c-0.6,0-1.2,0.1-1.6,0.4c-0.4,0.3-0.7,0.6-1,1.1v10.9h-4.3v-16.2h4l0.2,2.4
			c0.4-0.8,0.9-1.5,1.5-2c0.6-0.5,1.3-0.7,2.1-0.7c0.2,0,0.4,0,0.6,0.1c0.2,0,0.4,0.1,0.6,0.1L76.4,142.8z"/>
		<path style="fill:#330099;" d="M77.7,147c0-2.4,0.7-4.4,2-5.9c1.3-1.5,3.2-2.3,5.6-2.3c2.4,0,4.3,0.8,5.6,2.3c1.4,1.5,2,3.5,2,5.9
			v0.3c0,2.4-0.7,4.4-2,5.9s-3.2,2.3-5.6,2.3c-2.4,0-4.3-0.8-5.6-2.3c-1.3-1.5-2-3.5-2-5.9V147z M82.1,147.3c0,1.5,0.3,2.7,0.8,3.5
			s1.4,1.3,2.5,1.3c1.1,0,2-0.4,2.5-1.3c0.5-0.9,0.8-2.1,0.8-3.5V147c0-1.4-0.3-2.6-0.8-3.5s-1.4-1.4-2.5-1.4c-1.1,0-2,0.5-2.5,1.4
			c-0.5,0.9-0.8,2.1-0.8,3.5V147.3z"/>
		<path style="fill:#330099;" d="M104.4,150.8c0-0.5-0.2-0.9-0.7-1.2s-1.3-0.6-2.6-0.9c-1.9-0.4-3.3-1-4.3-1.7
			c-1-0.8-1.5-1.8-1.5-3.1c0-1.4,0.6-2.6,1.8-3.5s2.7-1.5,4.7-1.5c2,0,3.7,0.5,4.9,1.5c1.2,1,1.8,2.2,1.8,3.6l0,0.1h-4.2
			c0-0.6-0.2-1.2-0.6-1.6c-0.4-0.4-1-0.6-1.8-0.6c-0.7,0-1.3,0.2-1.7,0.5c-0.4,0.3-0.6,0.8-0.6,1.3c0,0.5,0.2,0.9,0.6,1.2
			s1.3,0.6,2.6,0.8c2,0.4,3.5,1,4.4,1.8c1,0.8,1.5,1.8,1.5,3.2c0,1.5-0.6,2.6-1.9,3.6c-1.2,0.9-2.9,1.4-4.9,1.4
			c-2.2,0-3.9-0.5-5.1-1.6s-1.8-2.3-1.8-3.7l0-0.1h4c0,0.9,0.3,1.5,0.9,1.9c0.5,0.4,1.2,0.6,2.1,0.6c0.8,0,1.4-0.2,1.8-0.5
			C104.2,151.8,104.4,151.3,104.4,150.8z"/>
	</g>
</g>
<g id="mi">
	<path style="fill:#330099;" d="M79.6,21.4H36.4c-0.8,0-1.5,0.7-1.5,1.5v13.9c0,0.8,0.7,1.5,1.5,1.5h6.6v27c0,0.8,0.7,1.5,1.5,1.5
		H71c0.8,0,1.5-0.7,1.5-1.5v-27h7c0.8,0,1.5-0.7,1.5-1.5V23C81.1,22.1,80.4,21.4,79.6,21.4L79.6,21.4z M69.5,63.8H46.1V31.5h23.3
		V63.8z M78,35.3h-5.5v-3.8h2c0.8,0,1.5-0.7,1.5-1.5c0-0.8-0.7-1.5-1.5-1.5H71l-26.4,0h-3.2c-0.8,0-1.5,0.7-1.5,1.5
		c0,0.8,0.7,1.5,1.5,1.5h1.6v3.8l-5.1,0V24.5h40L78,35.3z M54.4,53c0-0.8-0.7-1.5-1.5-1.5c-0.8,0-1.5,0.7-1.5,1.5
		c0,2.8,2.2,5.1,5,5.7c0.1,0.8,0.7,1.5,1.5,1.5s1.5-0.6,1.5-1.5c2.8-0.6,4.5-2.8,4.9-4.9c0.4-2.2-0.7-5-4-6.1
		c-0.3-0.1-0.5-0.2-0.8-0.2V42c1.2,0.5,1.9,1.4,1.9,2.5c0,0.8,0.7,1.5,1.5,1.5c0.8,0,1.5-0.7,1.5-1.5c0-2.8-2.2-5.1-5-5.7
		c-0.1-0.8-0.7-1.5-1.5-1.5c-0.8,0-1.5,0.6-1.5,1.5c-2.8,0.6-5,2.9-5,5.7c0,2.3,1.5,4.5,3.8,5.3c0.4,0.2,0.8,0.2,1.2,0.3v5.5
		C55.2,55,54.4,54.1,54.4,53L54.4,53z M59.4,50.6c1.3,0.5,2,1.5,1.8,2.6c-0.2,0.8-0.8,1.8-1.8,2.2V50.6z M56.2,46.9
		c-1.1-0.4-1.8-1.4-1.8-2.4c0-1.1,0.8-2,1.9-2.5L56.2,46.9z"/>
	<path style="fill:#330099;" d="M58,87.8c-24.1,0-43.7-19.6-43.7-43.7S33.9,0.5,58,0.5c24.1,0,43.7,19.6,43.7,43.7
		S82.1,87.8,58,87.8z M58,4.5c-21.9,0-39.7,17.8-39.7,39.7S36.1,83.8,58,83.8c21.9,0,39.7-17.8,39.7-39.7S79.9,4.5,58,4.5z"/>
	<g>
		<path style="fill:#330099;" d="M12.8,121.3L12.8,121.3l5.8-14.6h3v17.9h-2.4v-13.4l-0.1,0l-5.4,13.4H12l-5.6-13.9l-0.1,0v13.9H3.9
			v-17.9h3.2L12.8,121.3z"/>
		<path style="fill:#330099;" d="M28.1,107.9h-2.4v-2.5h2.4V107.9z M28.1,124.6h-2.4v-13.3h2.4V124.6z"/>
		<path style="fill:#330099;" d="M45.8,121.1c0-0.5-0.2-1-0.6-1.3c-0.4-0.3-1.2-0.6-2.3-0.9c-1.6-0.3-2.8-0.8-3.6-1.4
			c-0.8-0.6-1.3-1.4-1.3-2.4c0-1.1,0.5-2,1.4-2.8c0.9-0.8,2.1-1.2,3.6-1.2c1.5,0,2.7,0.4,3.7,1.2c0.9,0.8,1.4,1.8,1.3,2.9l0,0.1
			h-2.3c0-0.6-0.3-1.1-0.8-1.6S43.7,113,43,113c-0.9,0-1.5,0.2-1.9,0.6c-0.4,0.4-0.6,0.8-0.6,1.4c0,0.5,0.2,0.9,0.5,1.2
			s1.1,0.5,2.3,0.8c1.6,0.3,2.9,0.8,3.7,1.5c0.8,0.6,1.3,1.5,1.3,2.5c0,1.2-0.5,2.1-1.4,2.9c-1,0.7-2.2,1.1-3.7,1.1
			c-1.7,0-3-0.4-4-1.3s-1.4-1.9-1.4-3l0-0.1H40c0,0.9,0.4,1.5,1,1.9c0.6,0.4,1.3,0.6,2.1,0.6c0.9,0,1.5-0.2,2-0.5
			C45.5,122.1,45.8,121.6,45.8,121.1z"/>
		<path style="fill:#330099;" d="M56.7,124.9c-1.9,0-3.4-0.6-4.5-1.8c-1.1-1.2-1.6-2.8-1.6-4.8v-0.5c0-1.9,0.6-3.5,1.7-4.7
			c1.1-1.3,2.5-1.9,4-1.9c1.8,0,3.1,0.6,4,1.7c0.9,1.1,1.3,2.6,1.3,4.4v1.3h-8.5l0,0.1c0,1.3,0.3,2.4,0.9,3.3
			c0.6,0.8,1.5,1.2,2.7,1.2c0.8,0,1.5-0.1,2.2-0.4s1.2-0.6,1.6-1l0.9,1.6c-0.5,0.5-1.1,0.8-1.9,1.2
			C58.8,124.7,57.8,124.9,56.7,124.9z M56.4,113c-0.8,0-1.5,0.3-2.1,1c-0.6,0.7-0.9,1.5-1,2.5l0,0.1h6v-0.2c0-1-0.2-1.8-0.7-2.4
			C58.1,113.3,57.4,113,56.4,113z"/>
		<path style="fill:#330099;" d="M64,118.2c0-2.1,0.5-3.9,1.4-5.2s2.2-2,3.8-2c0.8,0,1.6,0.2,2.2,0.5c0.6,0.3,1.2,0.8,1.6,1.5
			l0.3-1.7h1.9v13.4c0,1.7-0.5,3-1.5,3.9c-1,0.9-2.4,1.4-4.3,1.4c-0.6,0-1.3-0.1-2.1-0.3c-0.7-0.2-1.4-0.4-2-0.7l0.4-1.9
			c0.5,0.2,1,0.4,1.7,0.6c0.7,0.2,1.3,0.2,1.9,0.2c1.2,0,2-0.3,2.6-0.8s0.8-1.4,0.8-2.5v-1.5c-0.4,0.6-1,1-1.6,1.3
			c-0.6,0.3-1.3,0.4-2.1,0.4c-1.6,0-2.9-0.6-3.8-1.8c-0.9-1.2-1.4-2.7-1.4-4.6V118.2z M66.4,118.5c0,1.3,0.3,2.4,0.8,3.2
			c0.6,0.8,1.4,1.2,2.5,1.2c0.7,0,1.3-0.2,1.8-0.5s0.9-0.8,1.2-1.4v-6.1c-0.3-0.6-0.7-1-1.2-1.3s-1.1-0.5-1.8-0.5
			c-1.2,0-2,0.5-2.6,1.4s-0.8,2.2-0.8,3.7V118.5z"/>
		<path style="fill:#330099;" d="M87.2,122.7c-0.4,0.7-1,1.3-1.6,1.6c-0.7,0.4-1.4,0.6-2.3,0.6c-1.5,0-2.6-0.5-3.4-1.4
			c-0.8-0.9-1.2-2.4-1.2-4.3v-7.9h2.4v7.9c0,1.4,0.2,2.4,0.6,2.9s1.1,0.8,2,0.8c0.9,0,1.6-0.2,2.1-0.5c0.6-0.3,1-0.8,1.3-1.5v-9.6
			h2.4v13.3h-2.2L87.2,122.7z"/>
		<path style="fill:#330099;" d="M99.4,113.5l-1.2-0.1c-0.6,0-1.2,0.2-1.6,0.5s-0.8,0.7-1,1.3v9.5h-2.4v-13.3h2.2l0.2,1.9
			c0.4-0.7,0.8-1.2,1.4-1.6c0.6-0.4,1.2-0.6,1.9-0.6c0.2,0,0.4,0,0.5,0s0.3,0.1,0.4,0.1L99.4,113.5z"/>
		<path style="fill:#330099;" d="M101.1,117.9c0-2,0.5-3.6,1.6-4.9s2.5-1.9,4.3-1.9c1.8,0,3.3,0.6,4.4,1.9s1.6,2.9,1.6,4.9v0.3
			c0,2-0.5,3.6-1.6,4.9c-1.1,1.3-2.5,1.9-4.4,1.9c-1.8,0-3.3-0.6-4.4-1.9s-1.6-2.9-1.6-4.9V117.9z M103.5,118.1
			c0,1.4,0.3,2.6,0.9,3.5c0.6,0.9,1.5,1.4,2.7,1.4c1.2,0,2-0.5,2.6-1.4s0.9-2.1,0.9-3.5v-0.3c0-1.4-0.3-2.6-0.9-3.5
			c-0.6-0.9-1.5-1.4-2.7-1.4c-1.2,0-2,0.5-2.6,1.4c-0.6,0.9-0.9,2.1-0.9,3.5V118.1z"/>
		<path style="fill:#330099;" d="M24.5,148L24.5,148c0.1,2.4-0.6,4.2-2.1,5.5c-1.5,1.3-3.5,2-6,2c-2.6,0-4.7-0.8-6.3-2.5
			c-1.6-1.7-2.4-3.8-2.4-6.5v-4.3c0-2.6,0.8-4.8,2.3-6.5s3.6-2.5,6.2-2.5c2.7,0,4.7,0.6,6.2,1.9s2.2,3.1,2.2,5.5l0,0.1h-4.2
			c0-1.4-0.3-2.4-1-3.1c-0.7-0.7-1.7-1-3.1-1c-1.3,0-2.3,0.5-3.1,1.6c-0.7,1.1-1.1,2.4-1.1,4.1v4.3c0,1.7,0.4,3,1.2,4.1
			c0.8,1.1,1.8,1.6,3.2,1.6c1.3,0,2.3-0.3,2.9-1c0.6-0.7,1-1.7,1-3.1H24.5z"/>
		<path style="fill:#330099;" d="M36.9,155.2c-0.2-0.4-0.3-0.8-0.4-1.2c-0.1-0.4-0.2-0.8-0.2-1.3c-0.4,0.8-1,1.4-1.8,2
			c-0.7,0.5-1.6,0.8-2.6,0.8c-1.7,0-3-0.4-3.9-1.3c-0.9-0.9-1.4-2.1-1.4-3.6c0-1.6,0.6-2.8,1.8-3.7c1.2-0.9,3-1.3,5.3-1.3h2.5v-1.3
			c0-0.8-0.2-1.4-0.6-1.8c-0.4-0.4-1-0.6-1.8-0.6c-0.7,0-1.3,0.2-1.6,0.5s-0.6,0.8-0.6,1.4h-4.2l0-0.1c-0.1-1.4,0.5-2.5,1.8-3.5
			c1.3-1,2.9-1.5,4.9-1.5c1.9,0,3.5,0.5,4.7,1.5s1.8,2.4,1.8,4.2v6.7c0,0.8,0.1,1.5,0.2,2.1c0.1,0.7,0.3,1.3,0.5,2H36.9z
			 M32.9,152.3c0.8,0,1.4-0.2,2-0.6c0.6-0.4,1-0.8,1.2-1.3v-2.3h-2.5c-0.9,0-1.6,0.2-2.1,0.7c-0.5,0.5-0.7,1-0.7,1.7
			c0,0.5,0.2,1,0.5,1.3C31.8,152.2,32.3,152.3,32.9,152.3z"/>
		<path style="fill:#330099;" d="M48.5,139.1v16.8c0,1.9-0.5,3.4-1.5,4.4c-1,1-2.4,1.5-4.2,1.5c-0.4,0-0.8,0-1.1-0.1
			c-0.3,0-0.7-0.1-1-0.2l0.2-3.3c0.2,0.1,0.5,0.1,0.7,0.1c0.2,0,0.5,0,0.7,0c0.6,0,1-0.2,1.4-0.6c0.3-0.4,0.5-1,0.5-1.9v-16.8H48.5z
			 M48.4,135.2H44v-3.2h4.4V135.2z"/>
		<path style="fill:#330099;" d="M58.9,155.6c-2.4,0-4.3-0.7-5.6-2.2c-1.4-1.5-2-3.4-2-5.7V147c0-2.4,0.7-4.4,2-5.9
			c1.3-1.5,3.1-2.3,5.4-2.3c2.2,0,3.8,0.7,5,2s1.7,3.1,1.7,5.4v2.3h-9.6l0,0.1c0.1,1.1,0.4,2,1,2.7c0.6,0.7,1.5,1,2.7,1
			c1,0,1.8-0.1,2.5-0.3s1.4-0.5,2.1-0.9l1.2,2.7c-0.6,0.5-1.5,1-2.6,1.3C61.4,155.4,60.2,155.6,58.9,155.6z M58.6,142.1
			c-0.9,0-1.6,0.3-2,0.9c-0.5,0.6-0.8,1.4-0.9,2.4l0,0.1h5.3v-0.3c0-0.9-0.2-1.7-0.6-2.2S59.5,142.1,58.6,142.1z"/>
		<path style="fill:#330099;" d="M76.4,142.8l-1.6,0c-0.6,0-1.2,0.1-1.6,0.4s-0.7,0.6-1,1.1v10.9h-4.3v-16.2h4l0.2,2.4
			c0.4-0.8,0.9-1.5,1.5-2c0.6-0.5,1.3-0.7,2.1-0.7c0.2,0,0.4,0,0.6,0.1c0.2,0,0.4,0.1,0.6,0.1L76.4,142.8z"/>
		<path style="fill:#330099;" d="M77.7,147c0-2.4,0.7-4.4,2-5.9s3.2-2.3,5.6-2.3c2.4,0,4.3,0.8,5.6,2.3c1.4,1.5,2,3.5,2,5.9v0.3
			c0,2.4-0.7,4.4-2,5.9c-1.3,1.5-3.2,2.3-5.6,2.3c-2.4,0-4.3-0.8-5.6-2.3s-2-3.5-2-5.9V147z M82.1,147.3c0,1.5,0.3,2.7,0.8,3.5
			s1.4,1.3,2.5,1.3c1.1,0,2-0.4,2.5-1.3s0.8-2.1,0.8-3.5V147c0-1.4-0.3-2.6-0.8-3.5c-0.5-0.9-1.4-1.4-2.5-1.4
			c-1.1,0-1.9,0.5-2.5,1.4s-0.8,2.1-0.8,3.5V147.3z"/>
		<path style="fill:#330099;" d="M104.4,150.8c0-0.5-0.2-0.9-0.7-1.2c-0.5-0.3-1.3-0.6-2.6-0.9c-1.9-0.4-3.3-1-4.3-1.7
			c-1-0.8-1.5-1.8-1.5-3.1c0-1.4,0.6-2.6,1.8-3.5c1.2-1,2.7-1.5,4.7-1.5c2,0,3.7,0.5,4.9,1.5s1.8,2.2,1.8,3.6l0,0.1h-4.2
			c0-0.6-0.2-1.2-0.6-1.6c-0.4-0.4-1-0.6-1.8-0.6c-0.7,0-1.3,0.2-1.7,0.5c-0.4,0.3-0.6,0.8-0.6,1.3c0,0.5,0.2,0.9,0.6,1.2
			c0.4,0.3,1.3,0.6,2.6,0.8c2,0.4,3.5,1,4.4,1.8c1,0.8,1.5,1.8,1.5,3.2c0,1.5-0.6,2.6-1.9,3.6c-1.2,0.9-2.9,1.4-4.9,1.4
			c-2.2,0-3.9-0.5-5.1-1.6s-1.8-2.3-1.8-3.7l0-0.1h4c0,0.9,0.3,1.5,0.9,1.9c0.5,0.4,1.2,0.6,2.1,0.6c0.8,0,1.4-0.2,1.8-0.5
			C104.2,151.8,104.4,151.3,104.4,150.8z"/>
	</g>
</g>
</svg>
