<?xml version="1.0" encoding="utf-8"?>
<!-- Generator: Adobe Illustrator 18.0.0, SVG Export Plug-In . SVG Version: 6.00 Build 0)  -->
<!DOCTYPE svg PUBLIC "-//W3C//DTD SVG 1.1//EN" "http://www.w3.org/Graphics/SVG/1.1/DTD/svg11.dtd" [
	<!ENTITY ns_extend "http://ns.adobe.com/Extensibility/1.0/">
	<!ENTITY ns_ai "http://ns.adobe.com/AdobeIllustrator/10.0/">
	<!ENTITY ns_graphs "http://ns.adobe.com/Graphs/1.0/">
	<!ENTITY ns_vars "http://ns.adobe.com/Variables/1.0/">
	<!ENTITY ns_imrep "http://ns.adobe.com/ImageReplacement/1.0/">
	<!ENTITY ns_sfw "http://ns.adobe.com/SaveForWeb/1.0/">
	<!ENTITY ns_custom "http://ns.adobe.com/GenericCustomNamespace/1.0/">
	<!ENTITY ns_adobe_xpath "http://ns.adobe.com/XPath/1.0/">
]>
<svg version="1.1" xmlns:x="&ns_extend;" xmlns:i="&ns_ai;" xmlns:graph="&ns_graphs;"
	 xmlns="http://www.w3.org/2000/svg" xmlns:xlink="http://www.w3.org/1999/xlink" x="0px" y="0px" viewBox="0 0 134 164"
	 style="enable-background:new 0 0 134 164;" xml:space="preserve">
<metadata>
	<sfw  xmlns="&ns_sfw;">
		<slices></slices>
		<sliceSourceBounds  width="1819.3" height="163.1" x="93.7" y="-163.5" bottomLeftOrigin="true"></sliceSourceBounds>
	</sfw>
</metadata>
<g id="Capa_1">
	<g>
		<path style="fill:#330099;" d="M67,87.8c-24.1,0-43.7-19.6-43.7-43.7S42.9,0.5,67,0.5c24.1,0,43.7,19.6,43.7,43.7
			S91.1,87.8,67,87.8z M67,4.5c-21.9,0-39.7,17.8-39.7,39.7S45.1,83.8,67,83.8c21.9,0,39.7-17.8,39.7-39.7S88.9,4.5,67,4.5z"/>
	</g>
	<g>
		<path style="fill:#330099;" d="M38.4,120.1c0-0.8-0.3-1.5-0.9-2c-0.6-0.5-1.6-1-3.1-1.4c-1.8-0.5-3.2-1.1-4.3-2s-1.5-2-1.5-3.3
			c0-1.4,0.5-2.6,1.6-3.5c1.1-0.9,2.5-1.4,4.3-1.4c1.9,0,3.4,0.5,4.5,1.6c1.1,1.1,1.7,2.3,1.6,3.7l0,0.1h-2.3c0-1-0.4-1.9-1.1-2.5
			c-0.7-0.7-1.6-1-2.7-1c-1.1,0-2,0.3-2.6,0.8c-0.6,0.5-0.9,1.3-0.9,2.1c0,0.8,0.3,1.4,1,2c0.7,0.5,1.7,1,3.2,1.4
			c1.8,0.5,3.2,1.2,4.1,2.1c0.9,0.9,1.4,2,1.4,3.4c0,1.4-0.6,2.6-1.7,3.5c-1.1,0.9-2.6,1.3-4.4,1.3c-1.7,0-3.3-0.5-4.6-1.5
			s-2-2.3-1.9-3.9l0-0.1h2.3c0,1.1,0.4,2,1.3,2.6c0.9,0.6,1.8,0.9,2.9,0.9c1.1,0,2.1-0.3,2.7-0.8C38.1,121.7,38.4,121,38.4,120.1z"
			/>
		<path style="fill:#330099;" d="M49.5,124.9c-1.9,0-3.4-0.6-4.5-1.8c-1.1-1.2-1.6-2.8-1.6-4.8v-0.5c0-1.9,0.6-3.5,1.7-4.7
			c1.1-1.3,2.5-1.9,4-1.9c1.8,0,3.1,0.6,4,1.7s1.3,2.6,1.3,4.4v1.3h-8.5l0,0.1c0,1.3,0.3,2.4,0.9,3.3c0.6,0.8,1.5,1.2,2.7,1.2
			c0.8,0,1.5-0.1,2.2-0.4c0.6-0.2,1.2-0.6,1.6-1l0.9,1.6c-0.5,0.5-1.1,0.8-1.9,1.2C51.5,124.7,50.6,124.9,49.5,124.9z M49.1,113
			c-0.8,0-1.5,0.3-2.1,1c-0.6,0.7-0.9,1.5-1,2.5l0,0.1h6v-0.2c0-1-0.2-1.8-0.7-2.4S50.1,113,49.1,113z"/>
		<path style="fill:#330099;" d="M56.7,118.2c0-2.1,0.5-3.9,1.4-5.2c0.9-1.3,2.2-2,3.8-2c0.8,0,1.6,0.2,2.2,0.5
			c0.6,0.3,1.2,0.8,1.6,1.5l0.3-1.7H68v13.4c0,1.7-0.5,3-1.5,3.9c-1,0.9-2.4,1.4-4.3,1.4c-0.6,0-1.3-0.1-2.1-0.3
			c-0.7-0.2-1.4-0.4-2-0.7l0.4-1.9c0.5,0.2,1,0.4,1.7,0.6c0.7,0.2,1.3,0.2,2,0.2c1.2,0,2-0.3,2.6-0.8s0.8-1.4,0.8-2.5v-1.5
			c-0.4,0.6-1,1-1.6,1.3c-0.6,0.3-1.3,0.4-2.1,0.4c-1.6,0-2.9-0.6-3.8-1.8c-0.9-1.2-1.4-2.7-1.4-4.6V118.2z M59.2,118.5
			c0,1.3,0.3,2.4,0.8,3.2c0.5,0.8,1.4,1.2,2.5,1.2c0.7,0,1.3-0.2,1.8-0.5s0.9-0.8,1.2-1.4v-6.1c-0.3-0.6-0.7-1-1.2-1.3
			s-1.1-0.5-1.8-0.5c-1.2,0-2,0.5-2.6,1.4s-0.8,2.2-0.8,3.7V118.5z"/>
		<path style="fill:#330099;" d="M79.9,122.7c-0.4,0.7-1,1.3-1.6,1.6c-0.7,0.4-1.4,0.6-2.3,0.6c-1.5,0-2.6-0.5-3.4-1.4
			c-0.8-0.9-1.2-2.4-1.2-4.3v-7.9h2.4v7.9c0,1.4,0.2,2.4,0.6,2.9s1.1,0.8,2,0.8c0.9,0,1.6-0.2,2.1-0.5c0.6-0.3,1-0.8,1.3-1.5v-9.6
			h2.4v13.3h-2.2L79.9,122.7z"/>
		<path style="fill:#330099;" d="M92.1,113.5l-1.2-0.1c-0.6,0-1.2,0.2-1.6,0.5c-0.4,0.3-0.8,0.7-1,1.3v9.5h-2.4v-13.3H88l0.2,1.9
			c0.4-0.7,0.8-1.2,1.4-1.6s1.2-0.6,1.9-0.6c0.2,0,0.4,0,0.5,0s0.3,0.1,0.4,0.1L92.1,113.5z"/>
		<path style="fill:#330099;" d="M93.8,117.9c0-2,0.5-3.6,1.6-4.9s2.5-1.9,4.3-1.9c1.8,0,3.3,0.6,4.4,1.9c1.1,1.3,1.6,2.9,1.6,4.9
			v0.3c0,2-0.5,3.6-1.6,4.9c-1.1,1.3-2.5,1.9-4.4,1.9c-1.8,0-3.3-0.6-4.4-1.9s-1.6-2.9-1.6-4.9V117.9z M96.2,118.1
			c0,1.4,0.3,2.6,0.9,3.5s1.5,1.4,2.7,1.4c1.2,0,2-0.5,2.6-1.4s0.9-2.1,0.9-3.5v-0.3c0-1.4-0.3-2.6-0.9-3.5
			c-0.6-0.9-1.5-1.4-2.7-1.4c-1.2,0-2,0.5-2.6,1.4c-0.6,0.9-0.9,2.1-0.9,3.5V118.1z"/>
		<path style="fill:#330099;" d="M19.6,155.2h-4.4l-8.8-14.7l-0.1,0v14.7H2v-21.8h4.4l8.8,14.7l0.1,0v-14.6h4.4V155.2z"/>
		<path style="fill:#330099;" d="M22.6,147c0-2.4,0.7-4.4,2-5.9s3.2-2.3,5.6-2.3c2.4,0,4.3,0.8,5.6,2.3c1.4,1.5,2,3.5,2,5.9v0.3
			c0,2.4-0.7,4.4-2,5.9s-3.2,2.3-5.6,2.3c-2.4,0-4.3-0.8-5.6-2.3s-2-3.5-2-5.9V147z M26.9,147.3c0,1.5,0.3,2.7,0.8,3.5
			c0.5,0.9,1.4,1.3,2.5,1.3c1.1,0,2-0.4,2.5-1.3c0.5-0.9,0.8-2.1,0.8-3.5V147c0-1.4-0.3-2.6-0.8-3.5c-0.5-0.9-1.4-1.4-2.5-1.4
			c-1.1,0-2,0.5-2.5,1.4c-0.5,0.9-0.8,2.1-0.8,3.5V147.3z"/>
		<path style="fill:#330099;" d="M45.8,135.1v4h2.7v3.1h-2.7v8.2c0,0.6,0.1,1.1,0.4,1.3c0.3,0.3,0.6,0.4,1,0.4c0.2,0,0.4,0,0.6,0
			c0.2,0,0.4-0.1,0.6-0.1l0.4,3.2c-0.4,0.1-0.9,0.3-1.3,0.3c-0.4,0.1-0.9,0.1-1.4,0.1c-1.5,0-2.7-0.4-3.5-1.2
			c-0.8-0.8-1.2-2.1-1.2-3.9v-8.2h-2.4v-3.1h2.4v-4H45.8z"/>
		<path style="fill:#330099;" d="M58.2,155.6c-2.4,0-4.3-0.7-5.6-2.2c-1.4-1.5-2-3.4-2-5.7V147c0-2.4,0.7-4.4,2-5.9s3.1-2.3,5.4-2.3
			c2.2,0,3.8,0.7,5,2c1.2,1.3,1.7,3.1,1.7,5.4v2.3H55l0,0.1c0.1,1.1,0.4,2,1,2.7c0.6,0.7,1.5,1,2.7,1c1,0,1.8-0.1,2.5-0.3
			c0.7-0.2,1.4-0.5,2.1-0.9l1.2,2.7c-0.6,0.5-1.5,1-2.6,1.3C60.7,155.4,59.5,155.6,58.2,155.6z M57.9,142.1c-0.9,0-1.6,0.3-2,0.9
			c-0.5,0.6-0.8,1.4-0.9,2.4l0,0.1h5.3v-0.3c0-0.9-0.2-1.7-0.6-2.2C59.4,142.4,58.8,142.1,57.9,142.1z"/>
		<path style="fill:#330099;" d="M81.8,147.6c0,2.4-0.5,4.3-1.6,5.8c-1.1,1.4-2.6,2.2-4.7,2.2c-0.9,0-1.8-0.2-2.5-0.6
			s-1.3-1-1.8-1.7l-0.4,2h-3.7v-23.3h4.3v8.9c0.5-0.6,1-1.1,1.7-1.5s1.4-0.5,2.2-0.5c2.1,0,3.6,0.8,4.7,2.3c1.1,1.5,1.6,3.6,1.6,6.2
			V147.6z M77.4,147.3c0-1.6-0.2-2.8-0.7-3.7c-0.5-0.9-1.3-1.4-2.4-1.4c-0.7,0-1.3,0.1-1.7,0.4c-0.5,0.3-0.8,0.7-1.1,1.2v6.8
			c0.3,0.5,0.6,0.9,1.1,1.1c0.5,0.3,1.1,0.4,1.7,0.4c1.1,0,1.9-0.4,2.4-1.2s0.7-1.9,0.7-3.4V147.3z"/>
		<path style="fill:#330099;" d="M83.8,147c0-2.4,0.7-4.4,2-5.9s3.2-2.3,5.6-2.3c2.4,0,4.3,0.8,5.6,2.3c1.4,1.5,2,3.5,2,5.9v0.3
			c0,2.4-0.7,4.4-2,5.9s-3.2,2.3-5.6,2.3c-2.4,0-4.3-0.8-5.6-2.3s-2-3.5-2-5.9V147z M88.1,147.3c0,1.5,0.3,2.7,0.8,3.5
			c0.5,0.9,1.4,1.3,2.5,1.3c1.1,0,2-0.4,2.5-1.3c0.5-0.9,0.8-2.1,0.8-3.5V147c0-1.4-0.3-2.6-0.8-3.5c-0.5-0.9-1.4-1.4-2.5-1.4
			c-1.1,0-2,0.5-2.5,1.4c-0.5,0.9-0.8,2.1-0.8,3.5V147.3z"/>
		<path style="fill:#330099;" d="M101.1,147c0-2.4,0.7-4.4,2-5.9s3.2-2.3,5.6-2.3c2.4,0,4.3,0.8,5.6,2.3c1.4,1.5,2,3.5,2,5.9v0.3
			c0,2.4-0.7,4.4-2,5.9c-1.3,1.5-3.2,2.3-5.6,2.3c-2.4,0-4.3-0.8-5.6-2.3c-1.3-1.5-2-3.5-2-5.9V147z M105.4,147.3
			c0,1.5,0.3,2.7,0.8,3.5s1.4,1.3,2.5,1.3c1.1,0,1.9-0.4,2.5-1.3c0.5-0.9,0.8-2.1,0.8-3.5V147c0-1.4-0.3-2.6-0.8-3.5
			s-1.4-1.4-2.5-1.4c-1.1,0-2,0.5-2.5,1.4c-0.5,0.9-0.8,2.1-0.8,3.5V147.3z"/>
		<path style="fill:#330099;" d="M124.5,148.5h-1.1v6.8H119v-23.3h4.4v13.2h1l3.9-6.1h5l-5.3,7.4l6,8.8h-5L124.5,148.5z"/>
	</g>
	<path style="fill:#330099;stroke:#330099;stroke-miterlimit:10;" d="M92.8,53.8h-3.2V29.1c0-1.4-0.6-2.8-1.6-3.8
		c-1-1-2.4-1.6-3.8-1.6H49.8c-1.4,0-2.8,0.6-3.8,1.6c-1,1-1.6,2.4-1.6,3.8v24.7h-3.2c-0.3,0-0.6,0.1-0.8,0.3
		c-0.2,0.2-0.3,0.5-0.3,0.8v4.3c0,1.4,0.6,2.8,1.6,3.8c1,1,2.4,1.6,3.8,1.6h43c1.4,0,2.8-0.6,3.8-1.6c1-1,1.6-2.4,1.6-3.8v-4.3
		c0-0.3-0.1-0.6-0.3-0.8C93.4,53.9,93.1,53.8,92.8,53.8L92.8,53.8z M46.6,29.1c0-0.9,0.3-1.7,0.9-2.3c0.6-0.6,1.4-0.9,2.3-0.9h34.4
		c0.9,0,1.7,0.3,2.3,0.9c0.6,0.6,0.9,1.4,0.9,2.3v24.7h-9.7c-0.3,0-0.6,0.1-0.8,0.3L75.2,56H58.8L57,54.1c-0.2-0.2-0.5-0.3-0.8-0.3
		h-9.7L46.6,29.1z M91.7,59.2L91.7,59.2c0,0.9-0.3,1.7-0.9,2.3c-0.6,0.6-1.4,0.9-2.3,0.9h-43c-0.9,0-1.7-0.3-2.3-0.9
		c-0.6-0.6-0.9-1.4-0.9-2.3V56h13.5l1.8,1.8v0c0.2,0.2,0.5,0.3,0.8,0.3h17.2c0.3,0,0.6-0.1,0.8-0.3l1.8-1.8h13.5L91.7,59.2z
		 M84.7,50.3V29.4c0-0.3-0.1-0.5-0.3-0.7c-0.2-0.2-0.5-0.3-0.7-0.3H71.2c-0.3,0-0.5,0.1-0.7,0.3c-0.2,0.2-0.3,0.5-0.3,0.7v1h-6.3v-1
		c0-0.3-0.1-0.5-0.3-0.7c-0.2-0.2-0.5-0.3-0.7-0.3H50.3c-0.3,0-0.5,0.1-0.7,0.3c-0.2,0.2-0.3,0.5-0.3,0.7v20.9
		c0,0.3,0.1,0.5,0.3,0.7c0.2,0.2,0.5,0.3,0.7,0.3h33.4c0.3,0,0.5-0.1,0.7-0.3C84.6,50.8,84.7,50.6,84.7,50.3L84.7,50.3z M82.6,49.2
		H51.4V30.5h10.4v1c0,0.3,0.1,0.5,0.3,0.7c0.2,0.2,0.5,0.3,0.7,0.3h8.3c0.3,0,0.5-0.1,0.7-0.3c0.2-0.2,0.3-0.5,0.3-0.7v-1h10.4
		L82.6,49.2z"/>
</g>
<g id="mi" style="display:none;">
	<g style="display:inline;">
		<path style="fill:#330099;" d="M67,87.8c-24.1,0-43.7-19.6-43.7-43.7S42.9,0.5,67,0.5c24.1,0,43.7,19.6,43.7,43.7
			S91.1,87.8,67,87.8z M67,4.5c-21.9,0-39.7,17.8-39.7,39.7S45.1,83.8,67,83.8c21.9,0,39.7-17.8,39.7-39.7S88.9,4.5,67,4.5z"/>
	</g>
	<g style="display:inline;">
		<path style="fill:#330099;" d="M21.6,121.3L21.6,121.3l5.8-14.6h3v17.9H28v-13.4l-0.1,0l-5.4,13.4h-1.7l-5.6-13.9l-0.1,0v13.9
			h-2.4v-17.9h3.2L21.6,121.3z"/>
		<path style="fill:#330099;" d="M36.9,107.9h-2.4v-2.5h2.4V107.9z M36.9,124.6h-2.4v-13.3h2.4V124.6z"/>
		<path style="fill:#330099;" d="M54.7,121.1c0-0.5-0.2-1-0.6-1.3c-0.4-0.3-1.2-0.6-2.3-0.9c-1.6-0.3-2.8-0.8-3.6-1.4
			c-0.8-0.6-1.3-1.4-1.3-2.4c0-1.1,0.5-2,1.4-2.8c0.9-0.8,2.1-1.2,3.6-1.2c1.5,0,2.7,0.4,3.7,1.2c0.9,0.8,1.4,1.8,1.3,2.9l0,0.1
			h-2.3c0-0.6-0.3-1.1-0.8-1.6c-0.5-0.5-1.1-0.7-1.9-0.7c-0.9,0-1.5,0.2-1.9,0.6c-0.4,0.4-0.6,0.8-0.6,1.4c0,0.5,0.2,0.9,0.5,1.2
			c0.4,0.3,1.1,0.5,2.3,0.8c1.6,0.3,2.9,0.8,3.7,1.5c0.8,0.6,1.3,1.5,1.3,2.5c0,1.2-0.5,2.1-1.4,2.9c-1,0.7-2.2,1.1-3.7,1.1
			c-1.7,0-3-0.4-4-1.3c-1-0.9-1.4-1.9-1.4-3l0-0.1h2.3c0,0.9,0.4,1.5,1,1.9c0.6,0.4,1.3,0.6,2.1,0.6c0.9,0,1.5-0.2,2-0.5
			C54.4,122.1,54.7,121.6,54.7,121.1z"/>
		<path style="fill:#330099;" d="M65.6,124.9c-1.9,0-3.4-0.6-4.5-1.8c-1.1-1.2-1.6-2.8-1.6-4.8v-0.5c0-1.9,0.6-3.5,1.7-4.7
			c1.1-1.3,2.5-1.9,4-1.9c1.8,0,3.1,0.6,4,1.7s1.3,2.6,1.3,4.4v1.3h-8.5l0,0.1c0,1.3,0.3,2.4,0.9,3.3c0.6,0.8,1.5,1.2,2.7,1.2
			c0.8,0,1.5-0.1,2.2-0.4c0.6-0.2,1.2-0.6,1.6-1l0.9,1.6c-0.5,0.5-1.1,0.8-1.9,1.2C67.7,124.7,66.7,124.9,65.6,124.9z M65.2,113
			c-0.8,0-1.5,0.3-2.1,1c-0.6,0.7-0.9,1.5-1,2.5l0,0.1h6v-0.2c0-1-0.2-1.8-0.7-2.4S66.2,113,65.2,113z"/>
		<path style="fill:#330099;" d="M72.9,118.2c0-2.1,0.5-3.9,1.4-5.2c0.9-1.3,2.2-2,3.8-2c0.8,0,1.6,0.2,2.2,0.5
			c0.6,0.3,1.2,0.8,1.6,1.5l0.3-1.7h1.9v13.4c0,1.7-0.5,3-1.5,3.9c-1,0.9-2.4,1.4-4.3,1.4c-0.6,0-1.3-0.1-2.1-0.3
			c-0.7-0.2-1.4-0.4-2-0.7l0.4-1.9c0.5,0.2,1,0.4,1.7,0.6c0.7,0.2,1.3,0.2,2,0.2c1.2,0,2-0.3,2.6-0.8c0.5-0.5,0.8-1.4,0.8-2.5v-1.5
			c-0.4,0.6-1,1-1.6,1.3c-0.6,0.3-1.3,0.4-2.1,0.4c-1.6,0-2.9-0.6-3.8-1.8c-0.9-1.2-1.4-2.7-1.4-4.6V118.2z M75.3,118.5
			c0,1.3,0.3,2.4,0.8,3.2c0.5,0.8,1.4,1.2,2.5,1.2c0.7,0,1.3-0.2,1.8-0.5s0.9-0.8,1.2-1.4v-6.1c-0.3-0.6-0.7-1-1.2-1.3
			c-0.5-0.3-1.1-0.5-1.8-0.5c-1.2,0-2,0.5-2.6,1.4s-0.8,2.2-0.8,3.7V118.5z"/>
		<path style="fill:#330099;" d="M96.1,122.7c-0.4,0.7-1,1.3-1.6,1.6c-0.7,0.4-1.4,0.6-2.3,0.6c-1.5,0-2.6-0.5-3.4-1.4
			s-1.2-2.4-1.2-4.3v-7.9H90v7.9c0,1.4,0.2,2.4,0.6,2.9c0.4,0.5,1.1,0.8,2,0.8c0.9,0,1.6-0.2,2.1-0.5c0.6-0.3,1-0.8,1.3-1.5v-9.6
			h2.4v13.3h-2.2L96.1,122.7z"/>
		<path style="fill:#330099;" d="M108.2,113.5l-1.2-0.1c-0.6,0-1.2,0.2-1.6,0.5c-0.4,0.3-0.8,0.7-1,1.3v9.5h-2.4v-13.3h2.2l0.2,1.9
			c0.4-0.7,0.8-1.2,1.4-1.6s1.2-0.6,1.9-0.6c0.2,0,0.4,0,0.5,0s0.3,0.1,0.4,0.1L108.2,113.5z"/>
		<path style="fill:#330099;" d="M110,117.9c0-2,0.5-3.6,1.6-4.9s2.5-1.9,4.3-1.9c1.8,0,3.3,0.6,4.4,1.9s1.6,2.9,1.6,4.9v0.3
			c0,2-0.5,3.6-1.6,4.9c-1.1,1.3-2.5,1.9-4.4,1.9c-1.8,0-3.3-0.6-4.4-1.9s-1.6-2.9-1.6-4.9V117.9z M112.4,118.1
			c0,1.4,0.3,2.6,0.9,3.5s1.5,1.4,2.7,1.4c1.2,0,2-0.5,2.6-1.4s0.9-2.1,0.9-3.5v-0.3c0-1.4-0.3-2.6-0.9-3.5
			c-0.6-0.9-1.5-1.4-2.7-1.4c-1.2,0-2,0.5-2.6,1.4c-0.6,0.9-0.9,2.1-0.9,3.5V118.1z"/>
		<path style="fill:#330099;" d="M19.6,155.2h-4.4l-8.8-14.7l-0.1,0v14.7H2v-21.8h4.4l8.8,14.7l0.1,0v-14.6h4.4V155.2z"/>
		<path style="fill:#330099;" d="M22.6,147c0-2.4,0.7-4.4,2-5.9s3.2-2.3,5.6-2.3c2.4,0,4.3,0.8,5.6,2.3c1.4,1.5,2,3.5,2,5.9v0.3
			c0,2.4-0.7,4.4-2,5.9s-3.2,2.3-5.6,2.3c-2.4,0-4.3-0.8-5.6-2.3s-2-3.5-2-5.9V147z M26.9,147.3c0,1.5,0.3,2.7,0.8,3.5
			c0.5,0.9,1.4,1.3,2.5,1.3c1.1,0,2-0.4,2.5-1.3c0.5-0.9,0.8-2.1,0.8-3.5V147c0-1.4-0.3-2.6-0.8-3.5c-0.5-0.9-1.4-1.4-2.5-1.4
			c-1.1,0-2,0.5-2.5,1.4c-0.5,0.9-0.8,2.1-0.8,3.5V147.3z"/>
		<path style="fill:#330099;" d="M45.8,135.1v4h2.7v3.1h-2.7v8.2c0,0.6,0.1,1.1,0.4,1.3c0.3,0.3,0.6,0.4,1,0.4c0.2,0,0.4,0,0.6,0
			c0.2,0,0.4-0.1,0.6-0.1l0.4,3.2c-0.4,0.1-0.9,0.3-1.3,0.3c-0.4,0.1-0.9,0.1-1.4,0.1c-1.5,0-2.7-0.4-3.5-1.2
			c-0.8-0.8-1.2-2.1-1.2-3.9v-8.2h-2.4v-3.1h2.4v-4H45.8z"/>
		<path style="fill:#330099;" d="M58.2,155.6c-2.4,0-4.3-0.7-5.6-2.2c-1.4-1.5-2-3.4-2-5.7V147c0-2.4,0.7-4.4,2-5.9s3.1-2.3,5.4-2.3
			c2.2,0,3.8,0.7,5,2c1.2,1.3,1.7,3.1,1.7,5.4v2.3H55l0,0.1c0.1,1.1,0.4,2,1,2.7c0.6,0.7,1.5,1,2.7,1c1,0,1.8-0.1,2.5-0.3
			c0.7-0.2,1.4-0.5,2.1-0.9l1.2,2.7c-0.6,0.5-1.5,1-2.6,1.3C60.7,155.4,59.5,155.6,58.2,155.6z M57.9,142.1c-0.9,0-1.6,0.3-2,0.9
			c-0.5,0.6-0.8,1.4-0.9,2.4l0,0.1h5.3v-0.3c0-0.9-0.2-1.7-0.6-2.2C59.4,142.4,58.8,142.1,57.9,142.1z"/>
		<path style="fill:#330099;" d="M81.8,147.6c0,2.4-0.5,4.3-1.6,5.8c-1.1,1.4-2.6,2.2-4.7,2.2c-0.9,0-1.8-0.2-2.5-0.6
			s-1.3-1-1.8-1.7l-0.4,2h-3.7v-23.3h4.3v8.9c0.5-0.6,1-1.1,1.7-1.5s1.4-0.5,2.2-0.5c2.1,0,3.6,0.8,4.7,2.3c1.1,1.5,1.6,3.6,1.6,6.2
			V147.6z M77.4,147.3c0-1.6-0.2-2.8-0.7-3.7c-0.5-0.9-1.3-1.4-2.4-1.4c-0.7,0-1.3,0.1-1.7,0.4c-0.5,0.3-0.8,0.7-1.1,1.2v6.8
			c0.3,0.5,0.6,0.9,1.1,1.1c0.5,0.3,1.1,0.4,1.7,0.4c1.1,0,1.9-0.4,2.4-1.2s0.7-1.9,0.7-3.4V147.3z"/>
		<path style="fill:#330099;" d="M83.8,147c0-2.4,0.7-4.4,2-5.9s3.2-2.3,5.6-2.3c2.4,0,4.3,0.8,5.6,2.3c1.4,1.5,2,3.5,2,5.9v0.3
			c0,2.4-0.7,4.4-2,5.9s-3.2,2.3-5.6,2.3c-2.4,0-4.3-0.8-5.6-2.3s-2-3.5-2-5.9V147z M88.1,147.3c0,1.5,0.3,2.7,0.8,3.5
			c0.5,0.9,1.4,1.3,2.5,1.3c1.1,0,2-0.4,2.5-1.3c0.5-0.9,0.8-2.1,0.8-3.5V147c0-1.4-0.3-2.6-0.8-3.5c-0.5-0.9-1.4-1.4-2.5-1.4
			c-1.1,0-2,0.5-2.5,1.4c-0.5,0.9-0.8,2.1-0.8,3.5V147.3z"/>
		<path style="fill:#330099;" d="M101.1,147c0-2.4,0.7-4.4,2-5.9s3.2-2.3,5.6-2.3c2.4,0,4.3,0.8,5.6,2.3c1.4,1.5,2,3.5,2,5.9v0.3
			c0,2.4-0.7,4.4-2,5.9c-1.3,1.5-3.2,2.3-5.6,2.3c-2.4,0-4.3-0.8-5.6-2.3c-1.3-1.5-2-3.5-2-5.9V147z M105.4,147.3
			c0,1.5,0.3,2.7,0.8,3.5s1.4,1.3,2.5,1.3c1.1,0,1.9-0.4,2.5-1.3c0.5-0.9,0.8-2.1,0.8-3.5V147c0-1.4-0.3-2.6-0.8-3.5
			s-1.4-1.4-2.5-1.4c-1.1,0-2,0.5-2.5,1.4c-0.5,0.9-0.8,2.1-0.8,3.5V147.3z"/>
		<path style="fill:#330099;" d="M124.5,148.5h-1.1v6.8H119v-23.3h4.4v13.2h1l3.9-6.1h5l-5.3,7.4l6,8.8h-5L124.5,148.5z"/>
	</g>
	<path style="display:inline;fill:#330099;stroke:#330099;stroke-miterlimit:10;" d="M92.8,53.8h-3.2V29.1c0-1.4-0.6-2.8-1.6-3.8
		c-1-1-2.4-1.6-3.8-1.6H49.8c-1.4,0-2.8,0.6-3.8,1.6c-1,1-1.6,2.4-1.6,3.8v24.7h-3.2c-0.3,0-0.6,0.1-0.8,0.3
		c-0.2,0.2-0.3,0.5-0.3,0.8v4.3c0,1.4,0.6,2.8,1.6,3.8c1,1,2.4,1.6,3.8,1.6h43c1.4,0,2.8-0.6,3.8-1.6c1-1,1.6-2.4,1.6-3.8v-4.3
		c0-0.3-0.1-0.6-0.3-0.8C93.4,53.9,93.1,53.8,92.8,53.8L92.8,53.8z M46.6,29.1c0-0.9,0.3-1.7,0.9-2.3c0.6-0.6,1.4-0.9,2.3-0.9h34.4
		c0.9,0,1.7,0.3,2.3,0.9c0.6,0.6,0.9,1.4,0.9,2.3v24.7h-9.7c-0.3,0-0.6,0.1-0.8,0.3L75.2,56H58.8L57,54.1c-0.2-0.2-0.5-0.3-0.8-0.3
		h-9.7L46.6,29.1z M91.7,59.2L91.7,59.2c0,0.9-0.3,1.7-0.9,2.3c-0.6,0.6-1.4,0.9-2.3,0.9h-43c-0.9,0-1.7-0.3-2.3-0.9
		c-0.6-0.6-0.9-1.4-0.9-2.3V56h13.5l1.8,1.8v0c0.2,0.2,0.5,0.3,0.8,0.3h17.2c0.3,0,0.6-0.1,0.8-0.3l1.8-1.8h13.5L91.7,59.2z
		 M84.7,50.3V29.4c0-0.3-0.1-0.5-0.3-0.7c-0.2-0.2-0.5-0.3-0.7-0.3H71.2c-0.3,0-0.5,0.1-0.7,0.3c-0.2,0.2-0.3,0.5-0.3,0.7v1h-6.3v-1
		c0-0.3-0.1-0.5-0.3-0.7c-0.2-0.2-0.5-0.3-0.7-0.3H50.3c-0.3,0-0.5,0.1-0.7,0.3c-0.2,0.2-0.3,0.5-0.3,0.7v20.9
		c0,0.3,0.1,0.5,0.3,0.7c0.2,0.2,0.5,0.3,0.7,0.3h33.4c0.3,0,0.5-0.1,0.7-0.3C84.6,50.8,84.7,50.6,84.7,50.3L84.7,50.3z M82.6,49.2
		H51.4V30.5h10.4v1c0,0.3,0.1,0.5,0.3,0.7c0.2,0.2,0.5,0.3,0.7,0.3h8.3c0.3,0,0.5-0.1,0.7-0.3c0.2-0.2,0.3-0.5,0.3-0.7v-1h10.4
		L82.6,49.2z"/>
</g>
</svg>
