<?xml version="1.0" encoding="utf-8"?>
<!-- Generator: Adobe Illustrator 18.0.0, SVG Export Plug-In . SVG Version: 6.00 Build 0)  -->
<!DOCTYPE svg PUBLIC "-//W3C//DTD SVG 1.1//EN" "http://www.w3.org/Graphics/SVG/1.1/DTD/svg11.dtd" [
	<!ENTITY ns_extend "http://ns.adobe.com/Extensibility/1.0/">
	<!ENTITY ns_ai "http://ns.adobe.com/AdobeIllustrator/10.0/">
	<!ENTITY ns_graphs "http://ns.adobe.com/Graphs/1.0/">
	<!ENTITY ns_vars "http://ns.adobe.com/Variables/1.0/">
	<!ENTITY ns_imrep "http://ns.adobe.com/ImageReplacement/1.0/">
	<!ENTITY ns_sfw "http://ns.adobe.com/SaveForWeb/1.0/">
	<!ENTITY ns_custom "http://ns.adobe.com/GenericCustomNamespace/1.0/">
	<!ENTITY ns_adobe_xpath "http://ns.adobe.com/XPath/1.0/">
]>
<svg version="1.1" id="Capa_1" xmlns:x="&ns_extend;" xmlns:i="&ns_ai;" xmlns:graph="&ns_graphs;"
	 xmlns="http://www.w3.org/2000/svg" xmlns:xlink="http://www.w3.org/1999/xlink" x="0px" y="0px" viewBox="0 0 390 275"
	 enable-background="new 0 0 390 275" xml:space="preserve">
<metadata>
	<sfw  xmlns="&ns_sfw;">
		<slices></slices>
		<sliceSourceBounds  height="250" width="384.5" x="2.4" y="-260.4" bottomLeftOrigin="true"></sliceSourceBounds>
	</sfw>
</metadata>
<g opacity="0.9">
	<g>
		<path fill="#FFFFFF" d="M22.3,24c9.6,0,14.1,5.5,14.1,5.5l-4,6.3c0,0-3.8-4-9.6-4c-6.8,0-11.2,5.1-11.2,11.4
			c0,6.2,4.5,11.5,11.4,11.5c6.2,0,10.8-4.7,10.8-4.7l3.5,6.5c0,0-5.3,6-15.1,6c-12.2,0-19.9-8.6-19.9-19.2
			C2.4,32.7,10.2,24,22.3,24z"/>
		<path fill="#FFFFFF" d="M43.8,10.4h9.1v38.3c0,4,1.4,5,3.7,5c0.7,0,1.4-0.1,1.4-0.1v8c0,0-1.4,0.2-2.9,0.2
			c-5,0-11.3-1.3-11.3-11.8V10.4z"/>
		<path fill="#FFFFFF" d="M64.2,24.8h9.1v21.7c0,4.5,1.2,7.5,5.7,7.5c6.6,0,10.3-5.8,10.3-12.4V24.8h9.1v36.7h-8.8v-4.2
			c0-1.4,0.1-2.6,0.1-2.6h-0.1c-1.8,3.8-6.5,7.6-12.7,7.6c-7.8,0-12.7-4-12.7-14V24.8z"/>
		<path fill="#FFFFFF" d="M108.6,10.4h9.1v15.8c0,1.8-0.1,3.1-0.1,3.1h0.1c0,0,3.2-5.3,11-5.3c9.9,0,16.3,7.8,16.3,19.2
			c0,11.7-7.1,19.2-16.8,19.2c-7.6,0-10.9-5.5-10.9-5.5h-0.1c0,0,0.1,1.1,0.1,2.5v2.1h-8.6V10.4z M126.6,54.7c5,0,9.2-4.1,9.2-11.4
			c0-7-3.7-11.5-9.1-11.5c-4.8,0-9.2,3.5-9.2,11.6C117.4,49.1,120.5,54.7,126.6,54.7z"/>
		<path fill="#FFFFFF" d="M184.2,24c8.1,0,10.6,4.7,10.6,4.7h0.1c0,0-0.1-0.9-0.1-2.1V10.4h9.1v51.1h-8.6v-3c0-1.4,0.1-2.4,0.1-2.4
			h-0.1c0,0-3.1,6.3-11.5,6.3c-9.9,0-16.3-7.8-16.3-19.2C167.5,31.5,174.5,24,184.2,24z M185.9,54.7c4.8,0,9.2-3.5,9.2-11.6
			c0-5.7-3-11.3-9.1-11.3c-5,0-9.2,4.1-9.2,11.4C176.8,50.2,180.5,54.7,185.9,54.7z"/>
		<path fill="#FFFFFF" d="M230.1,24c10.6,0,16.3,7.7,16.3,17.4c0,1.1-0.2,3.5-0.2,3.5h-25.3c0.6,6.4,5.5,9.7,11,9.7
			c5.9,0,10.6-4,10.6-4l3.5,6.6c0,0-5.6,5.3-14.8,5.3c-12.2,0-19.7-8.8-19.7-19.2C211.5,31.9,219.2,24,230.1,24z M237.2,38.6
			c-0.1-5-3.2-7.6-7.3-7.6c-4.7,0-7.9,2.9-8.8,7.6H237.2z"/>
		<path fill="#FFFFFF" d="M5,76.4h9.1v15.8c0,1.8-0.1,3.1-0.1,3.1h0.1c0,0,3.2-5.3,11-5.3c9.9,0,16.3,7.8,16.3,19.2
			c0,11.7-7.1,19.2-16.8,19.2c-7.6,0-10.9-5.5-10.9-5.5h-0.1c0,0,0.1,1.1,0.1,2.5v2.1H5V76.4z M23,120.7c5,0,9.2-4.1,9.2-11.4
			c0-7-3.7-11.5-9.1-11.5c-4.8,0-9.2,3.5-9.2,11.6C13.9,115.1,16.9,120.7,23,120.7z"/>
		<path fill="#FFFFFF" d="M65.1,90c10.6,0,16.3,7.7,16.3,17.4c0,1.1-0.2,3.5-0.2,3.5H55.8c0.6,6.4,5.5,9.7,11,9.7
			c5.9,0,10.6-4,10.6-4l3.5,6.6c0,0-5.6,5.3-14.8,5.3c-12.2,0-19.7-8.8-19.7-19.2C46.4,97.9,54.1,90,65.1,90z M72.1,104.6
			c-0.1-5-3.2-7.6-7.3-7.6c-4.7,0-7.9,2.9-8.8,7.6H72.1z"/>
		<path fill="#FFFFFF" d="M88.9,90.8h8.8v4.2c0,1.4-0.1,2.5-0.1,2.5h0.1c1.6-3.1,5.6-7.6,13-7.6c8.1,0,12.7,4.2,12.7,14v23.6h-9.1
			v-21.7c0-4.5-1.2-7.5-5.8-7.5c-4.9,0-8.5,3.1-9.9,7.5c-0.5,1.5-0.6,3.2-0.6,4.9v16.8h-9.1V90.8z"/>
		<path fill="#FFFFFF" d="M149.1,90c10.6,0,16.3,7.7,16.3,17.4c0,1.1-0.2,3.5-0.2,3.5h-25.3c0.6,6.4,5.5,9.7,11,9.7
			c5.9,0,10.6-4,10.6-4l3.5,6.6c0,0-5.6,5.3-14.8,5.3c-12.2,0-19.7-8.8-19.7-19.2C130.5,97.9,138.2,90,149.1,90z M156.2,104.6
			c-0.1-5-3.2-7.6-7.3-7.6c-4.7,0-7.9,2.9-8.8,7.6H156.2z"/>
		<path fill="#FFFFFF" d="M197.9,98.1h-14v29.5h-9.1V98.1h-4.5v-7.3h4.5v-1.1c0-12,9.9-13.6,15-13.6c1.9,0,3.1,0.2,3.1,0.2v7.8
			c0,0-0.8-0.1-1.9-0.1c-2.6,0-7.1,0.6-7.1,6v0.9h23.1v36.7h-9.1V98.1z M197.9,76.4h9.1v8.1h-9.1V76.4z"/>
		<path fill="#FFFFFF" d="M234.4,90c9.6,0,14.1,5.5,14.1,5.5l-4,6.3c0,0-3.8-4-9.6-4c-6.8,0-11.2,5.1-11.2,11.4
			c0,6.2,4.5,11.5,11.4,11.5c6.2,0,10.8-4.7,10.8-4.7l3.5,6.5c0,0-5.3,6-15.1,6c-12.2,0-19.9-8.6-19.9-19.2
			C214.5,98.7,222.3,90,234.4,90z"/>
		<path fill="#FFFFFF" d="M256.4,76.4h9.1v8.1h-9.1V76.4z M256.4,90.8h9.1v36.7h-9.1V90.8z"/>
		<path fill="#FFFFFF" d="M293,90c11.2,0,20.2,8,20.2,19.2c0,11.3-9,19.2-20.2,19.2c-11.2,0-20.2-7.9-20.2-19.2
			C272.9,97.9,281.9,90,293,90z M293.1,120.6c5.9,0,10.9-4.6,10.9-11.4c0-6.8-5-11.4-10.9-11.4c-6,0-10.9,4.7-10.9,11.4
			C282.2,116,287.1,120.6,293.1,120.6z"/>
		<path fill="#FFFFFF" d="M321.7,116.6c0,0,4,4,10,4c2.6,0,4.8-1.2,4.8-3.3c0-5.5-17.9-4.8-17.9-16.6c0-6.8,6.1-10.8,14-10.8
			c8.3,0,12.3,4.2,12.3,4.2l-3.4,6.8c0,0-3.4-3.2-9-3.2c-2.4,0-4.7,1-4.7,3.3c0,5.2,17.9,4.5,17.9,16.3c0,6.1-5.3,11-14,11
			c-9.1,0-14.3-5.4-14.3-5.4L321.7,116.6z"/>
		<path fill="#FFFFFF" d="M5.4,142.7h7.1v7.1H5.4V142.7z M5.5,157.1h7v36.4h-7V157.1z"/>
		<path fill="#FFFFFF" d="M23.4,157.1h6.8v4.8c0,1.4-0.1,2.7-0.1,2.7h0.1c1.7-4.2,6.8-8.4,12.5-8.4c6.1,0,9.7,2.8,10.9,8.3h0.1
			c2-4.4,7.1-8.3,13-8.3c8.2,0,12,4.7,12,14v23.3h-7v-21.8c0-5.1-1-9.1-6.5-9.1c-5.1,0-8.9,4.3-10.2,9.3c-0.4,1.5-0.5,3.2-0.5,5
			v16.6h-7v-21.8c0-4.8-0.7-9.1-6.3-9.1c-5.3,0-9.1,4.4-10.4,9.6c-0.4,1.4-0.4,3.1-0.4,4.8v16.6h-7V157.1z"/>
		<path fill="#FFFFFF" d="M89.2,157.1h6.4v3.1c0,1.4-0.1,2.7-0.1,2.7h0.1c0,0,3.1-6.6,12.2-6.6c9.8,0,16,7.8,16,19.1
			c0,11.6-7,19.1-16.5,19.1c-8,0-11.2-6-11.2-6H96c0,0,0.1,1.3,0.1,3.2v16.3h-7V157.1z M106.3,188.4c5.8,0,10.5-4.8,10.5-13
			c0-7.9-4.2-13-10.3-13c-5.5,0-10.5,3.8-10.5,13.1C96,181.9,99.6,188.4,106.3,188.4z"/>
		<path fill="#FFFFFF" d="M148.1,156.2c10.3,0,15.8,7.6,15.8,17.1c0,0.9-0.2,3-0.2,3h-26.6c0.4,8,6,12,12.5,12
			c6.3,0,10.8-4.2,10.8-4.2l2.9,5.1c0,0-5.4,5.2-14.1,5.2c-11.4,0-19.3-8.3-19.3-19.1C129.9,163.7,137.7,156.2,148.1,156.2z
			 M156.7,171.1c-0.2-6.3-4.1-9.3-8.8-9.3c-5.3,0-9.6,3.3-10.7,9.3H156.7z"/>
		<path fill="#FFFFFF" d="M172.4,157.1h6.8v6.3c0,1.5-0.1,2.7-0.1,2.7h0.1c1.7-5.3,5.9-9.5,11.5-9.5c0.9,0,1.8,0.1,1.8,0.1v6.9
			c0,0-0.9-0.2-2-0.2c-4.5,0-8.6,3.2-10.2,8.6c-0.6,2.1-0.9,4.3-0.9,6.6v14.9h-7V157.1z"/>
		<path fill="#FFFFFF" d="M213.5,156.2c8.4,0,11.2,5.8,11.2,5.8h0.1c0,0-0.1-1.1-0.1-2.4v-16.8h7v50.8h-6.6v-3.5
			c0-1.4,0.1-2.4,0.1-2.4H225c0,0-3,6.8-12,6.8c-9.9,0-16.1-7.8-16.1-19.1C197,163.7,203.8,156.2,213.5,156.2z M214.4,188.4
			c5.4,0,10.5-3.8,10.5-13.1c0-6.5-3.4-13-10.3-13c-5.8,0-10.5,4.8-10.5,13C204.1,183.2,208.4,188.4,214.4,188.4z"/>
		<path fill="#FFFFFF" d="M242.6,142.7h7.1v7.1h-7.1V142.7z M242.6,157.1h7v36.4h-7V157.1z"/>
		<path fill="#FFFFFF" d="M260.6,142.7h7v16.6c0,1.8-0.1,3.1-0.1,3.1h0.1c0,0,3.1-6.2,11.7-6.2c9.8,0,16,7.8,16,19.1
			c0,11.6-7,19.1-16.6,19.1c-8.1,0-11.4-6.3-11.4-6.3H267c0,0,0.1,1.2,0.1,2.7v2.7h-6.6V142.7z M277.6,188.4c5.8,0,10.5-4.8,10.5-13
			c0-7.9-4.2-13-10.3-13c-5.5,0-10.5,3.8-10.5,13.1C267.3,181.9,270.7,188.4,277.6,188.4z"/>
		<path fill="#FFFFFF" d="M303.3,142.7h7v39.7c0,4.4,1.7,5.2,3.9,5.2c0.6,0,1.2-0.1,1.2-0.1v6.2c0,0-1.1,0.1-2.3,0.1
			c-4,0-9.8-1.1-9.8-10.2V142.7z"/>
		<path fill="#FFFFFF" d="M338.5,156.2c10.3,0,15.8,7.6,15.8,17.1c0,0.9-0.2,3-0.2,3h-26.6c0.4,8,6,12,12.5,12
			c6.3,0,10.8-4.2,10.8-4.2l2.9,5.1c0,0-5.4,5.2-14.1,5.2c-11.4,0-19.3-8.3-19.3-19.1C320.3,163.7,328.2,156.2,338.5,156.2z
			 M347.2,171.1c-0.2-6.3-4.1-9.3-8.8-9.3c-5.3,0-9.6,3.3-10.7,9.3H347.2z"/>
		<path fill="#FFFFFF" d="M363.2,184.1c0,0,4.1,4.2,10.4,4.2c3,0,6-1.6,6-4.5c0-6.7-18.7-5.3-18.7-17.2c0-6.6,5.9-10.4,13.2-10.4
			c8,0,11.7,4,11.7,4l-2.8,5.3c0,0-3.2-3.2-9-3.2c-3,0-6,1.3-6,4.5c0,6.6,18.7,5.1,18.7,17.1c0,6-5.2,10.6-13.2,10.6
			c-8.9,0-13.8-5.3-13.8-5.3L363.2,184.1z"/>
		<path fill="#FFFFFF" d="M22.5,222.2c10.9,0,19.7,8,19.7,19c0,11.1-8.8,19.2-19.7,19.2s-19.7-8.1-19.7-19.2
			C2.8,230.2,11.6,222.2,22.5,222.2z M22.5,254.4c6.9,0,12.5-5.5,12.5-13.1c0-7.6-5.6-13-12.5-13c-6.8,0-12.5,5.4-12.5,13
			C9.9,248.9,15.6,254.4,22.5,254.4z"/>
		<path fill="#FFFFFF" d="M52.1,229.2h-4.5v-5.6h4.5v-1.7c0-12,9.1-13.5,13.7-13.5c1.6,0,2.7,0.2,2.7,0.2v6c0,0-0.7-0.1-1.8-0.1
			c-2.7,0-7.6,0.9-7.6,7.6v1.6h8.6v5.6H59v30.3h-6.9V229.2z"/>
		<path fill="#FFFFFF" d="M90.1,222.2c10.3,0,15.8,7.6,15.8,17.1c0,0.9-0.2,3-0.2,3H79.1c0.4,8,6,12,12.5,12
			c6.3,0,10.8-4.2,10.8-4.2l2.9,5.1c0,0-5.4,5.2-14.1,5.2c-11.4,0-19.3-8.3-19.3-19.1C71.9,229.7,79.7,222.2,90.1,222.2z
			 M98.7,237.1c-0.2-6.3-4.1-9.3-8.8-9.3c-5.3,0-9.6,3.3-10.7,9.3H98.7z"/>
		<path fill="#FFFFFF" d="M114.3,223.1h6.8v6.3c0,1.5-0.1,2.7-0.1,2.7h0.1c1.7-5.3,5.9-9.5,11.5-9.5c0.9,0,1.8,0.1,1.8,0.1v6.9
			c0,0-0.9-0.2-2-0.2c-4.5,0-8.6,3.2-10.2,8.6c-0.6,2.1-0.9,4.3-0.9,6.6v14.9h-7V223.1z"/>
		<path fill="#FFFFFF" d="M142.8,229.2h-4.8v-5.6h5v-10.5h6.8v10.5h8.8v5.6h-8.8v16.2c0,7.3,5.1,8.2,7.8,8.2c1,0,1.7-0.1,1.7-0.1
			v6.2c0,0-1,0.1-2.4,0.1c-4.7,0-14-1.4-14-13.6V229.2z"/>
		<path fill="#FFFFFF" d="M186.1,236.8h1.6v-0.6c0-6-3.4-8-8-8c-5.6,0-10.2,3.5-10.2,3.5l-2.9-5.1c0,0,5.3-4.3,13.6-4.3
			c9.2,0,14.4,5,14.4,14.3v23h-6.5v-3.5c0-1.7,0.1-2.9,0.1-2.9h-0.1c0,0-3,7.2-11.7,7.2c-6.3,0-12.4-3.8-12.4-11.1
			C164.2,237.3,180,236.8,186.1,236.8z M178.1,254.8c5.9,0,9.7-6.2,9.7-11.6V242H186c-5.3,0-14.8,0.4-14.8,6.9
			C171.2,251.9,173.5,254.8,178.1,254.8z"/>
		<path fill="#FFFFFF" d="M205.6,250.1c0,0,4.1,4.2,10.4,4.2c3,0,6-1.6,6-4.5c0-6.7-18.7-5.3-18.7-17.2c0-6.6,5.9-10.4,13.2-10.4
			c8,0,11.7,4,11.7,4l-2.8,5.3c0,0-3.2-3.2-9-3.2c-3,0-6,1.3-6,4.5c0,6.6,18.7,5.1,18.7,17.1c0,6-5.2,10.6-13.2,10.6
			c-8.9,0-13.8-5.3-13.8-5.3L205.6,250.1z"/>
	</g>
</g>
</svg>
