<?xml version="1.0" encoding="utf-8"?>
<!-- Generator: Adobe Illustrator 18.0.0, SVG Export Plug-In . SVG Version: 6.00 Build 0)  -->
<!DOCTYPE svg PUBLIC "-//W3C//DTD SVG 1.1//EN" "http://www.w3.org/Graphics/SVG/1.1/DTD/svg11.dtd" [
	<!ENTITY ns_extend "http://ns.adobe.com/Extensibility/1.0/">
	<!ENTITY ns_ai "http://ns.adobe.com/AdobeIllustrator/10.0/">
	<!ENTITY ns_graphs "http://ns.adobe.com/Graphs/1.0/">
	<!ENTITY ns_vars "http://ns.adobe.com/Variables/1.0/">
	<!ENTITY ns_imrep "http://ns.adobe.com/ImageReplacement/1.0/">
	<!ENTITY ns_sfw "http://ns.adobe.com/SaveForWeb/1.0/">
	<!ENTITY ns_custom "http://ns.adobe.com/GenericCustomNamespace/1.0/">
	<!ENTITY ns_adobe_xpath "http://ns.adobe.com/XPath/1.0/">
]>
<svg version="1.1" id="Capa_1" xmlns:x="&ns_extend;" xmlns:i="&ns_ai;" xmlns:graph="&ns_graphs;"
	 xmlns="http://www.w3.org/2000/svg" xmlns:xlink="http://www.w3.org/1999/xlink" x="0px" y="0px" viewBox="0 0 22 26"
	 enable-background="new 0 0 22 26" xml:space="preserve">
<metadata>
	<sfw  xmlns="&ns_sfw;">
		<slices></slices>
		<sliceSourceBounds  width="205" height="31.6" y="-31.7" x="1" bottomLeftOrigin="true"></sliceSourceBounds>
	</sfw>
</metadata>
<g>
	<g>
		<g>
			<path fill="#333333" d="M18.3,5.2h-1.4l-0.5-3.8c0-0.2-0.1-0.3-0.2-0.4c-0.1-0.1-0.2-0.2-0.4-0.3h0l-2-0.4C11.9,0,10,0,8.1,0.4
				L6.2,0.8C6,0.8,5.9,0.9,5.8,1S5.6,1.3,5.5,1.5L5.1,5.2H3.7c-0.8,0-1.6,0.3-2.1,0.9C1,6.7,0.6,7.5,0.6,8.3v14.6
				c0,0.8,0.3,1.6,0.9,2.1c0.6,0.6,1.3,0.9,2.1,0.9h14.7c0.8,0,1.6-0.3,2.1-0.9c0.6-0.6,0.9-1.3,0.9-2.1V8.3c0-0.8-0.3-1.6-0.9-2.1
				C19.9,5.6,19.1,5.2,18.3,5.2L18.3,5.2z M15.7,8.8c0,0.1,0,0.2-0.1,0.2c-0.1,0.1-0.2,0.1-0.2,0.1l-3.3-1l3-4.3L15.7,8.8z M8.4,2
				c1.7-0.3,3.4-0.3,5.1,0l0.7,0.1l-3.5,4.9l-3-4.9L8.4,2z M6.9,4l2.5,4.1L6.7,9C6.6,9,6.5,9,6.4,9C6.3,8.9,6.3,8.8,6.3,8.7L6.9,4z
				 M19.7,22.9c0,0.4-0.1,0.7-0.4,1c-0.3,0.3-0.6,0.4-1,0.4H3.7c-0.4,0-0.7-0.1-1-0.4c-0.3-0.3-0.4-0.6-0.4-1V8.2
				c0-0.4,0.1-0.7,0.4-1s0.6-0.4,1-0.4h1.2L4.7,8.5v0C4.6,9,4.8,9.6,5.2,10c0.4,0.4,0.9,0.7,1.4,0.7c0.2,0,0.4,0,0.6-0.1l3.5-1.2
				l4.2,1.2l0.5,0.1h0c0.5,0,1.1-0.2,1.4-0.7c0.4-0.4,0.5-1,0.5-1.5l-0.2-1.6h1.2l0,0c0.4,0,0.7,0.1,1,0.4c0.3,0.3,0.4,0.6,0.4,1
				L19.7,22.9z"/>
			<path fill="#333333" d="M11,18.4c-0.2,0-0.4,0.1-0.6,0.2c-0.2,0.2-0.2,0.4-0.2,0.6v1.9v0c0,0.3,0.2,0.6,0.4,0.7
				c0.3,0.1,0.6,0.1,0.8,0c0.3-0.1,0.4-0.4,0.4-0.7v-1.9c0-0.2-0.1-0.4-0.2-0.6C11.4,18.5,11.2,18.4,11,18.4L11,18.4z"/>
			<path fill="#333333" d="M11,12.2c-0.2,0-0.4,0.1-0.6,0.2c-0.2,0.2-0.2,0.4-0.2,0.6v1.7c0,0.3,0.2,0.6,0.4,0.7
				c0.3,0.1,0.6,0.1,0.8,0c0.3-0.1,0.4-0.4,0.4-0.7V13c0-0.2-0.1-0.4-0.2-0.6C11.4,12.3,11.2,12.2,11,12.2L11,12.2z"/>
		</g>
	</g>
</g>
</svg>
