<?xml version="1.0" encoding="utf-8"?>
<!-- Generator: Adobe Illustrator 18.0.0, SVG Export Plug-In . SVG Version: 6.00 Build 0)  -->
<!DOCTYPE svg PUBLIC "-//W3C//DTD SVG 1.1//EN" "http://www.w3.org/Graphics/SVG/1.1/DTD/svg11.dtd" [
	<!ENTITY ns_extend "http://ns.adobe.com/Extensibility/1.0/">
	<!ENTITY ns_ai "http://ns.adobe.com/AdobeIllustrator/10.0/">
	<!ENTITY ns_graphs "http://ns.adobe.com/Graphs/1.0/">
	<!ENTITY ns_vars "http://ns.adobe.com/Variables/1.0/">
	<!ENTITY ns_imrep "http://ns.adobe.com/ImageReplacement/1.0/">
	<!ENTITY ns_sfw "http://ns.adobe.com/SaveForWeb/1.0/">
	<!ENTITY ns_custom "http://ns.adobe.com/GenericCustomNamespace/1.0/">
	<!ENTITY ns_adobe_xpath "http://ns.adobe.com/XPath/1.0/">
]>
<svg version="1.1" id="Capa_1" xmlns:x="&ns_extend;" xmlns:i="&ns_ai;" xmlns:graph="&ns_graphs;"
	 xmlns="http://www.w3.org/2000/svg" xmlns:xlink="http://www.w3.org/1999/xlink" x="0px" y="0px" viewBox="0 0 22 30"
	 enable-background="new 0 0 22 30" xml:space="preserve">
<metadata>
	<sfw  xmlns="&ns_sfw;">
		<slices></slices>
		<sliceSourceBounds  width="205" height="31.6" y="-31.7" x="1" bottomLeftOrigin="true"></sliceSourceBounds>
	</sfw>
</metadata>
<g>
	<g>
		<path fill="none" d="M11,10.8c-4.6,0-8.4,3.8-8.4,8.4s3.8,8.4,8.4,8.4s8.4-3.8,8.4-8.4S15.6,10.8,11,10.8z M12,18.9
			c0,0,0,0.2,0,0.3v3.1c0,0.6-0.5,1-1,1c-0.6,0-1-0.5-1-1v-3.1c0-0.1,0-0.3,0-0.3l0,0c-0.6-0.4-1-1-1-1.8c0-1.2,0.9-2.1,2.1-2.1
			s2.1,0.9,2.1,2.1C13.1,17.9,12.7,18.5,12,18.9z"/>
		<path fill="#333333" d="M11,15c-1.2,0-2.1,0.9-2.1,2.1c0,0.8,0.4,1.4,1,1.8l0,0c0,0,0,0.2,0,0.3v3.1c0,0.6,0.5,1,1,1
			c0.6,0,1-0.5,1-1v-3.1c0-0.1,0-0.3,0-0.3c0.6-0.4,1-1,1-1.8C13.1,15.9,12.2,15,11,15z"/>
		<path fill="#333333" d="M17.3,10.8V6.6c0-3.5-2.8-6.3-6.3-6.3S4.7,3.2,4.7,6.6v4.2c-2.5,1.9-4.2,4.9-4.2,8.4
			C0.5,25,5.2,29.7,11,29.7S21.5,25,21.5,19.2C21.5,15.8,19.8,12.7,17.3,10.8z M6.8,6.6c0-2.3,1.9-4.2,4.2-4.2s4.2,1.9,4.2,4.2v3
			C13.9,9,12.5,8.7,11,8.7C9.5,8.7,8.1,9,6.8,9.6V6.6z M11,27.6c-4.6,0-8.4-3.8-8.4-8.4s3.8-8.4,8.4-8.4s8.4,3.8,8.4,8.4
			S15.6,27.6,11,27.6z"/>
	</g>
</g>
</svg>
