<?xml version="1.0" encoding="utf-8"?>
<!-- Generator: Adobe Illustrator 18.0.0, SVG Export Plug-In . SVG Version: 6.00 Build 0)  -->
<!DOCTYPE svg PUBLIC "-//W3C//DTD SVG 1.1//EN" "http://www.w3.org/Graphics/SVG/1.1/DTD/svg11.dtd" [
	<!ENTITY ns_extend "http://ns.adobe.com/Extensibility/1.0/">
	<!ENTITY ns_ai "http://ns.adobe.com/AdobeIllustrator/10.0/">
	<!ENTITY ns_graphs "http://ns.adobe.com/Graphs/1.0/">
	<!ENTITY ns_vars "http://ns.adobe.com/Variables/1.0/">
	<!ENTITY ns_imrep "http://ns.adobe.com/ImageReplacement/1.0/">
	<!ENTITY ns_sfw "http://ns.adobe.com/SaveForWeb/1.0/">
	<!ENTITY ns_custom "http://ns.adobe.com/GenericCustomNamespace/1.0/">
	<!ENTITY ns_adobe_xpath "http://ns.adobe.com/XPath/1.0/">
]>
<svg version="1.1" id="Capa_1" xmlns:x="&ns_extend;" xmlns:i="&ns_ai;" xmlns:graph="&ns_graphs;"
	 xmlns="http://www.w3.org/2000/svg" xmlns:xlink="http://www.w3.org/1999/xlink" x="0px" y="0px" viewBox="0 0 262 72"
	 enable-background="new 0 0 262 72" xml:space="preserve">
<metadata>
	<sfw  xmlns="&ns_sfw;">
		<slices></slices>
		<sliceSourceBounds  width="621.6" height="71.6" y="-71.8" x="553.2" bottomLeftOrigin="true"></sliceSourceBounds>
	</sfw>
</metadata>
<g>
	<g>
		<path fill="#FFFFFF" d="M3,16.9h4.1c1,0,1.9,0.8,1.9,1.9v3.7c0,1.7-0.2,3.1-0.2,3.1H9c2-4.9,7.9-9.7,14.5-9.7
			c7.1,0,11.3,3.3,12.7,9.6h0.2c2.3-5.1,8.2-9.6,15-9.6c9.5,0,14,5.4,14,16.2v25.2c0,1-0.8,1.9-1.9,1.9h-4.4c-1,0-1.9-0.8-1.9-1.9
			V33.9c0-5.9-1.2-10.6-7.5-10.6c-5.9,0-10.4,5-11.9,10.8c-0.4,1.8-0.6,3.7-0.6,5.9v17.4c0,1-0.8,1.9-1.9,1.9h-4.4
			c-1,0-1.9-0.8-1.9-1.9V33.9c0-5.5-0.8-10.6-7.4-10.6c-6.2,0-10.5,5.1-12.1,11.1c-0.4,1.7-0.5,3.6-0.5,5.5v17.4
			c0,1-0.8,1.9-1.9,1.9H3c-1,0-1.9-0.8-1.9-1.9V18.8C1.2,17.8,2,16.9,3,16.9z"/>
		<path fill="#FFFFFF" d="M79.6,25.7c0-1.3-0.7-1.8-1.8-1.8h-1.6c-1,0-1.9-0.8-1.9-1.9v-3.2c0-1,0.8-1.9,1.9-1.9h4.2
			c4,0,7.2,3.2,7.2,7.2v26.3c0,1.3,0.7,1.8,1.8,1.8H91c1,0,1.9,0.8,1.9,1.9v3.2c0,1-0.8,1.9-1.9,1.9h-4.2c-4,0-7.2-3.2-7.2-7.2V25.7
			z M81.6,0.2h3.5c1,0,1.9,0.8,1.9,1.9v4.7c0,1-0.8,1.9-1.9,1.9h-3.5c-1,0-1.9-0.8-1.9-1.9V2.1C79.8,1,80.6,0.2,81.6,0.2z"/>
		<path fill="#FFFFFF" d="M101.6,50c0.6-0.9,1.8-1.1,2.7-0.4c2,1.5,5.7,3.7,10.6,3.7c3.5,0,7-1.8,7-5.3c0-7.8-21.7-6.2-21.7-20
			c0-7.7,6.9-12,15.3-12c6.4,0,10.5,2.3,12.4,3.6c0.7,0.5,1,1.6,0.5,2.4l-1.5,2.8c-0.5,1-1.7,1.3-2.7,0.7c-1.7-1.1-4.7-2.5-8.8-2.5
			c-3.5,0-6.9,1.5-6.9,5.2c0,7.6,21.7,5.9,21.7,19.8c0,7-6,12.3-15.3,12.3c-7.5,0-12.6-3.2-14.8-5c-0.8-0.6-0.9-1.7-0.4-2.5
			L101.6,50z"/>
		<path fill="#FFFFFF" d="M141.7,25.7c0-1.3-0.7-1.8-1.8-1.8h-1.6c-1,0-1.9-0.8-1.9-1.9v-3.2c0-1,0.8-1.9,1.9-1.9h4.2
			c4,0,7.2,3.2,7.2,7.2v26.3c0,1.3,0.7,1.8,1.8,1.8h1.6c1,0,1.9,0.8,1.9,1.9v3.2c0,1-0.8,1.9-1.9,1.9h-4.2c-4,0-7.2-3.2-7.2-7.2
			V25.7z M143.8,0.2h3.5c1,0,1.9,0.8,1.9,1.9v4.7c0,1-0.8,1.9-1.9,1.9h-3.5c-1,0-1.9-0.8-1.9-1.9V2.1C141.9,1,142.7,0.2,143.8,0.2z"
			/>
		<path fill="#FFFFFF" d="M164.3,24h-1.8c-1,0-1.9-0.8-1.9-1.9v-2.8c0-1,0.8-1.9,1.9-1.9h2c1,0,1.9-0.8,1.9-1.9V7.2
			c0-1,0.8-1.9,1.9-1.9h4.1c1,0,1.9,0.8,1.9,1.9v8.5c0,1,0.8,1.9,1.9,1.9h6.5c1,0,1.9,0.8,1.9,1.9v2.8c0,1-0.8,1.9-1.9,1.9h-6.5
			c-1,0-1.9,0.8-1.9,1.9v16.9c0,8.4,5.9,9.5,9,9.5c0,0,0,0,0,0c1,0,1.9,0.8,1.9,1.9v3.4c0,1-0.8,1.8-1.8,1.9c-0.3,0-0.7,0-1.1,0
			c-5.4,0-16.2-1.7-16.2-15.8V25.9C166.1,24.9,165.3,24,164.3,24z"/>
		<path fill="#FFFFFF" d="M196.3,25.7c0-1.3-0.7-1.8-1.8-1.8h-1.6c-1,0-1.9-0.8-1.9-1.9v-3.2c0-1,0.8-1.9,1.9-1.9h4.2
			c4,0,7.2,3.2,7.2,7.2v26.3c0,1.3,0.7,1.8,1.8,1.8h1.6c1,0,1.9,0.8,1.9,1.9v3.2c0,1-0.8,1.9-1.9,1.9h-4.2c-4,0-7.2-3.2-7.2-7.2
			V25.7z M198.4,0.2h3.5c1,0,1.9,0.8,1.9,1.9v4.7c0,1-0.8,1.9-1.9,1.9h-3.5c-1,0-1.9-0.8-1.9-1.9V2.1C196.5,1,197.3,0.2,198.4,0.2z"
			/>
	</g>
	<g>
		<path fill="#FFFFFF" d="M238.5,71.8v-8.3c-2.9,0-5.8-0.5-8.5-1.3L238.5,71.8z"/>
	</g>
	<path fill="#FFFFFF" d="M223.4,37.9c0-8.4,6.8-15.1,15.1-15.1v-7.1c-12.3,0-22.3,10-22.3,22.3c0,12.3,10,22.3,22.3,22.3v-7.1
		C230.2,53.1,223.4,46.3,223.4,37.9z"/>
	<g>
		<g>
			<path fill="#330099" d="M238.6,63.5c2.9,0,5.7-0.5,8.4-1.3l-8.4,9.6L238.6,63.5C238.5,63.5,238.5,63.5,238.6,63.5z M238.6,15.7
				v7.1c8.4,0,15.1,6.8,15.1,15.1c0,8.4-6.8,15.1-15.1,15.1v7.1c12.3,0,22.3-10,22.3-22.3C260.8,25.6,250.9,15.7,238.6,15.7z"/>
		</g>
	</g>
</g>
</svg>
