<?xml version="1.0" encoding="utf-8"?>
<!-- Generator: Adobe Illustrator 18.0.0, SVG Export Plug-In . SVG Version: 6.00 Build 0)  -->
<!DOCTYPE svg PUBLIC "-//W3C//DTD SVG 1.1//EN" "http://www.w3.org/Graphics/SVG/1.1/DTD/svg11.dtd" [
	<!ENTITY ns_extend "http://ns.adobe.com/Extensibility/1.0/">
	<!ENTITY ns_ai "http://ns.adobe.com/AdobeIllustrator/10.0/">
	<!ENTITY ns_graphs "http://ns.adobe.com/Graphs/1.0/">
	<!ENTITY ns_vars "http://ns.adobe.com/Variables/1.0/">
	<!ENTITY ns_imrep "http://ns.adobe.com/ImageReplacement/1.0/">
	<!ENTITY ns_sfw "http://ns.adobe.com/SaveForWeb/1.0/">
	<!ENTITY ns_custom "http://ns.adobe.com/GenericCustomNamespace/1.0/">
	<!ENTITY ns_adobe_xpath "http://ns.adobe.com/XPath/1.0/">
]>
<svg version="1.1" id="Capa_1" xmlns:x="&ns_extend;" xmlns:i="&ns_ai;" xmlns:graph="&ns_graphs;"
	 xmlns="http://www.w3.org/2000/svg" xmlns:xlink="http://www.w3.org/1999/xlink" x="0px" y="0px" viewBox="0 0 32 32"
	 enable-background="new 0 0 32 32" xml:space="preserve">
<metadata>
	<sfw  xmlns="&ns_sfw;">
		<slices></slices>
		<sliceSourceBounds  height="31.8" width="190.8" y="-31.9" x="0.1" bottomLeftOrigin="true"></sliceSourceBounds>
	</sfw>
</metadata>
<path fill="#00CC66" d="M16,31.9c-2.2,0-4.3-0.4-6.3-1.2c-1.9-0.8-3.6-1.9-5-3.4s-2.5-3.1-3.4-5s-1.2-4-1.2-6.3
	c0-2.2,0.4-4.3,1.2-6.2s1.9-3.6,3.4-5s3.1-2.6,5-3.4s4-1.2,6.3-1.2c2.2,0,4.3,0.4,6.2,1.2s3.6,1.9,5,3.4c1.4,1.4,2.6,3.1,3.4,5
	c0.8,1.9,1.2,4,1.2,6.2c0,2.2-0.4,4.3-1.2,6.3c-0.8,1.9-1.9,3.6-3.4,5c-1.4,1.4-3.1,2.5-5,3.4C20.3,31.5,18.2,31.9,16,31.9z
	 M16,29.5c3.7,0,6.9-1.3,9.5-4s4-5.8,4-9.5s-1.3-6.9-4-9.5s-5.8-4-9.5-4s-6.9,1.3-9.5,4s-4,5.8-4,9.5s1.3,6.9,4,9.5
	S12.3,29.5,16,29.5z"/>
<g>
	<path fill="#00CC66" d="M18.3,21.1c-0.5,0-1-0.2-1.4-0.6s-0.6-0.8-0.6-1.4c0-0.5,0.2-1,0.6-1.4s0.8-0.6,1.4-0.6s1,0.2,1.4,0.6
		s0.6,0.8,0.6,1.4c0,0.5-0.2,1-0.6,1.4S18.9,21.1,18.3,21.1z M10.1,24c-0.4,0-0.7-0.1-0.9-0.4c-0.3-0.3-0.4-0.6-0.4-0.9V10.5
		c0-0.4,0.1-0.7,0.4-1s0.6-0.4,0.9-0.4h1.2V8.6c0-0.2,0.1-0.3,0.2-0.5C11.7,8,11.8,8,12,8c0.2,0,0.4,0.1,0.5,0.2
		c0.1,0.1,0.2,0.3,0.2,0.5v0.5h6.6V8.6c0-0.2,0.1-0.3,0.2-0.5C19.6,8,19.8,8,20,8c0.2,0,0.4,0.1,0.5,0.2c0.1,0.1,0.2,0.3,0.2,0.5
		v0.5h1.2c0.4,0,0.7,0.1,1,0.4c0.3,0.3,0.4,0.6,0.4,1v12.2c0,0.4-0.1,0.7-0.4,0.9c-0.3,0.3-0.6,0.4-1,0.4H10.1z M10.1,22.7h11.8
		v-8.5H10.1C10.1,14.2,10.1,22.7,10.1,22.7z M10.1,13h11.8v-2.5H10.1V13z M10.1,13v-2.5V13z"/>
	<path fill="#00CC66" d="M21.9,24.3H10.1c-0.4,0-0.8-0.2-1.1-0.5c-0.3-0.3-0.5-0.7-0.5-1.1V10.5c0-0.4,0.2-0.8,0.5-1.1
		c0.3-0.3,0.7-0.5,1.1-0.5h1V8.6c0-0.3,0.1-0.5,0.3-0.6c0.4-0.4,1-0.4,1.3,0C12.9,8.2,13,8.4,13,8.6v0.3H19V8.6
		c0-0.3,0.1-0.5,0.3-0.6c0.4-0.4,1-0.3,1.3,0c0.2,0.2,0.3,0.4,0.3,0.6v0.3h1c0.4,0,0.8,0.2,1.1,0.5c0.3,0.3,0.5,0.7,0.5,1.1v12.2
		c0,0.4-0.2,0.8-0.5,1.1C22.7,24.1,22.3,24.3,21.9,24.3z M10.1,9.4c-0.3,0-0.5,0.1-0.8,0.3C9.1,9.9,9,10.2,9,10.5v12.2
		c0,0.3,0.1,0.5,0.3,0.8s0.5,0.3,0.8,0.3h11.8c0.3,0,0.6-0.1,0.8-0.3c0.2-0.2,0.3-0.5,0.3-0.8V10.5c0-0.3-0.1-0.6-0.3-0.8
		c-0.2-0.2-0.5-0.3-0.8-0.3h-1.5V8.6c0-0.1,0-0.2-0.1-0.3c-0.2-0.2-0.4-0.2-0.6,0c-0.1,0.1-0.1,0.2-0.1,0.3v0.8h-7.1V8.6
		c0-0.1,0-0.2-0.1-0.3c-0.2-0.2-0.4-0.2-0.6,0c-0.1,0.1-0.1,0.2-0.1,0.3v0.8H10.1z M22.1,22.9H9.9v-9h12.3V22.9z M10.3,22.4h11.3v-8
		H10.3V22.4z M18.3,21.4c-0.6,0-1.1-0.2-1.5-0.6c-0.4-0.4-0.6-0.9-0.6-1.5c0-0.6,0.2-1.1,0.6-1.5c0.4-0.4,0.9-0.6,1.5-0.6
		c0.6,0,1.1,0.2,1.5,0.6c0.4,0.4,0.6,0.9,0.6,1.5c0,0.6-0.2,1.1-0.6,1.5S18.9,21.4,18.3,21.4z M18.3,17.6c-0.5,0-0.9,0.2-1.2,0.5
		c-0.3,0.3-0.5,0.7-0.5,1.2c0,0.5,0.2,0.9,0.5,1.2c0.3,0.3,0.7,0.5,1.2,0.5c0.5,0,0.9-0.2,1.2-0.5s0.5-0.7,0.5-1.2s-0.2-0.9-0.5-1.2
		S18.8,17.6,18.3,17.6z M22.1,13.3H9.9v-3h12.3V13.3z M10.3,12.8h11.3v-2H10.3V12.8z"/>
</g>
</svg>
