<?xml version="1.0" encoding="utf-8"?>
<!-- Generator: Adobe Illustrator 18.0.0, SVG Export Plug-In . SVG Version: 6.00 Build 0)  -->
<!DOCTYPE svg PUBLIC "-//W3C//DTD SVG 1.1//EN" "http://www.w3.org/Graphics/SVG/1.1/DTD/svg11.dtd" [
	<!ENTITY ns_extend "http://ns.adobe.com/Extensibility/1.0/">
	<!ENTITY ns_ai "http://ns.adobe.com/AdobeIllustrator/10.0/">
	<!ENTITY ns_graphs "http://ns.adobe.com/Graphs/1.0/">
	<!ENTITY ns_vars "http://ns.adobe.com/Variables/1.0/">
	<!ENTITY ns_imrep "http://ns.adobe.com/ImageReplacement/1.0/">
	<!ENTITY ns_sfw "http://ns.adobe.com/SaveForWeb/1.0/">
	<!ENTITY ns_custom "http://ns.adobe.com/GenericCustomNamespace/1.0/">
	<!ENTITY ns_adobe_xpath "http://ns.adobe.com/XPath/1.0/">
]>
<svg version="1.1" id="Capa_1" xmlns:x="&ns_extend;" xmlns:i="&ns_ai;" xmlns:graph="&ns_graphs;"
	 xmlns="http://www.w3.org/2000/svg" xmlns:xlink="http://www.w3.org/1999/xlink" x="0px" y="0px" viewBox="0 0 32 32"
	 enable-background="new 0 0 32 32" xml:space="preserve">
<metadata>
	<sfw  xmlns="&ns_sfw;">
		<slices></slices>
		<sliceSourceBounds  height="31.8" width="190.8" y="-31.9" x="0.1" bottomLeftOrigin="true"></sliceSourceBounds>
	</sfw>
</metadata>
<g>
	<path fill="#00CC66" d="M16,31.9c-2.2,0-4.3-0.4-6.3-1.2c-1.9-0.8-3.6-1.9-5-3.4s-2.5-3.1-3.4-5s-1.2-4-1.2-6.3
		c0-2.2,0.4-4.3,1.2-6.2s1.9-3.6,3.4-5s3.1-2.6,5-3.4s4-1.2,6.3-1.2c2.2,0,4.3,0.4,6.2,1.2s3.6,1.9,5,3.4c1.4,1.4,2.6,3.1,3.4,5
		c0.8,1.9,1.2,4,1.2,6.2c0,2.2-0.4,4.3-1.2,6.3c-0.8,1.9-1.9,3.6-3.4,5c-1.4,1.4-3.1,2.5-5,3.4C20.3,31.5,18.2,31.9,16,31.9z
		 M16,29.5c3.7,0,6.9-1.3,9.5-4s4-5.8,4-9.5s-1.3-6.9-4-9.5s-5.8-4-9.5-4s-6.9,1.3-9.5,4s-4,5.8-4,9.5s1.3,6.9,4,9.5
		S12.3,29.5,16,29.5z"/>
	<path fill="#00CC66" d="M12.2,21l3.8-2.3l3.8,2.3l-1-4.3l3.3-2.9l-4.4-0.4L16,9.4l-1.7,4l-4.4,0.4l3.3,2.9L12.2,21z M16,20.7
		l-4.6,2.8c-0.2,0.1-0.3,0.1-0.5,0.1c-0.2,0-0.3-0.1-0.4-0.2c-0.1-0.1-0.2-0.2-0.3-0.4c-0.1-0.1-0.1-0.3,0-0.5l1.2-5.3l-4.1-3.5
		C7.1,13.7,7,13.5,7,13.4c0-0.2,0-0.3,0-0.5c0-0.1,0.1-0.3,0.2-0.4c0.1-0.1,0.3-0.2,0.5-0.2l5.4-0.5l2.1-4.9
		c0.1-0.2,0.2-0.3,0.3-0.4s0.3-0.1,0.4-0.1c0.1,0,0.3,0,0.4,0.1s0.3,0.2,0.3,0.4l2.1,4.9l5.4,0.5c0.2,0,0.3,0.1,0.5,0.2
		c0.1,0.1,0.2,0.2,0.2,0.4c0,0.2,0.1,0.3,0,0.5c0,0.2-0.1,0.3-0.3,0.4l-4.1,3.5l1.2,5.3c0,0.2,0,0.3,0,0.5c-0.1,0.1-0.2,0.3-0.3,0.4
		c-0.1,0.1-0.3,0.2-0.4,0.2c-0.2,0-0.3,0-0.5-0.1L16,20.7z"/>
</g>
</svg>
