<?xml version="1.0" encoding="utf-8"?>
<!-- Generator: Adobe Illustrator 18.0.0, SVG Export Plug-In . SVG Version: 6.00 Build 0)  -->
<!DOCTYPE svg PUBLIC "-//W3C//DTD SVG 1.1//EN" "http://www.w3.org/Graphics/SVG/1.1/DTD/svg11.dtd" [
	<!ENTITY ns_extend "http://ns.adobe.com/Extensibility/1.0/">
	<!ENTITY ns_ai "http://ns.adobe.com/AdobeIllustrator/10.0/">
	<!ENTITY ns_graphs "http://ns.adobe.com/Graphs/1.0/">
	<!ENTITY ns_vars "http://ns.adobe.com/Variables/1.0/">
	<!ENTITY ns_imrep "http://ns.adobe.com/ImageReplacement/1.0/">
	<!ENTITY ns_sfw "http://ns.adobe.com/SaveForWeb/1.0/">
	<!ENTITY ns_custom "http://ns.adobe.com/GenericCustomNamespace/1.0/">
	<!ENTITY ns_adobe_xpath "http://ns.adobe.com/XPath/1.0/">
]>
<svg version="1.1" id="Capa_1" xmlns:x="&ns_extend;" xmlns:i="&ns_ai;" xmlns:graph="&ns_graphs;"
	 xmlns="http://www.w3.org/2000/svg" xmlns:xlink="http://www.w3.org/1999/xlink" x="0px" y="0px" viewBox="0 0 134 22"
	 enable-background="new 0 0 134 22" xml:space="preserve">
<metadata>
	<sfw  xmlns="&ns_sfw;">
		<slices></slices>
		<sliceSourceBounds  width="1096.9" height="34.5" y="-34.6" x="-64.9" bottomLeftOrigin="true"></sliceSourceBounds>
	</sfw>
</metadata>
<g>
	<path fill="#999999" d="M4,8.5c-0.3,4.3,3.4,8.3,9.1,10.9c1.3-1.1,2.4-2.4,3.3-3.9c2.7-4.4,3.1-9.9,1.6-15.5h-6.9
		C6.9,2.1,4.2,5.1,4,8.5z"/>
	<path fill="#999999" d="M9.1,21.9c-4.8-2.9-7.7-7.1-7.4-11.6C2,6.1,5.1,2.5,9.7,0.1H0.2v21.8H9.1C9.1,21.9,9.1,21.9,9.1,21.9z"/>
	<path fill="#999999" d="M22,0.1h-2.6c0.2,0.7,0.4,1.4,0.5,2.1c1.4,6.4,0.5,12.8-2.6,17.9c-0.1,0.2-1,1.5-1.2,1.8H22L22,0.1L22,0.1z
		"/>
	<path fill="#999999" d="M78,8.9h1.8v1h0c0.6-0.8,1.4-1.1,2.4-1.1c1.7,0,2.5,1.2,2.5,2.8V16h-1.9v-3.8c0-0.9,0-2.1-1.2-2.1
		c-1.4,0-1.7,1.5-1.7,2.4V16H78L78,8.9L78,8.9z"/>
	<path fill="#999999" d="M87.4,10.1H86V8.7h1.4V7.3l1.9-0.6v2H91v1.4h-1.7v3.3c0,0.6,0.2,1.2,0.9,1.2c0.3,0,0.7-0.1,0.9-0.2l0.1,1.5
		C90.7,16,90.3,16,89.7,16c-1.5,0-2.3-0.9-2.3-2.3L87.4,10.1L87.4,10.1z"/>
	<path fill="#999999" d="M103.5,15.6c-0.7,0.4-1.5,0.6-2.5,0.6c-2.4,0-3.9-1.4-3.9-3.7c0-2.1,1.1-3.8,3.4-3.8c2.7,0,3.5,1.8,3.5,4.3
		h-5.1c0.1,1.2,0.9,1.8,2.1,1.8c0.9,0,1.7-0.3,2.4-0.7L103.5,15.6L103.5,15.6z M102.2,11.7c-0.1-0.9-0.5-1.7-1.6-1.7
		c-1.1,0-1.6,0.7-1.7,1.7H102.2z"/>
	<path fill="#999999" d="M107.7,5.8h2.2c2.2,0,4.8-0.1,4.8,2.8c0,1.2-0.8,2.2-2.1,2.4v0c0.6,0,0.9,0.6,1.1,1.1l1.6,4H113l-1.2-3.2
		c-0.3-0.8-0.6-1.1-1.4-1.1h-0.7V16h-2L107.7,5.8L107.7,5.8z M109.7,10.2h0.7c1,0,2.2-0.1,2.2-1.4c0-1.2-1.1-1.3-2.2-1.3h-0.7V10.2z
		"/>
	<path fill="#999999" d="M133.3,10.4c-0.6-0.2-1-0.3-1.7-0.3c-0.5,0-1.1,0.2-1.1,0.8c0,1.1,3.2,0.4,3.2,3c0,1.7-1.5,2.3-3,2.3
		c-0.7,0-1.4-0.1-2.1-0.3l0.1-1.5c0.6,0.3,1.2,0.5,1.8,0.5c0.5,0,1.2-0.2,1.2-0.9c0-1.4-3.2-0.4-3.2-3c0-1.5,1.3-2.2,2.8-2.2
		c0.9,0,1.4,0.1,2,0.3L133.3,10.4z"/>
	<path fill="#999999" d="M70.1,5.8h6v1.6h-4v2.5h3.6v1.6h-3.6v2.9h4V16h-6V5.8z"/>
	<path fill="#999999" d="M92.3,8.8H94v1.6h0c0.1-0.7,0.9-1.8,2-1.8c0.2,0,0.4,0,0.6,0.1v1.9c-0.2-0.1-0.5-0.2-0.9-0.2
		c-1.5,0-1.5,1.9-1.5,3V16h-1.9V8.8z"/>
	<path fill="#999999" d="M117.5,5.8h1.9l-1.9,2h-1.2L117.5,5.8z M116.4,8.8h1.9V16h-1.9V8.8z"/>
	<path fill="#999999" d="M123.7,8.7c2.2,0,3.9,1.4,3.9,3.8c0,2.1-1.4,3.7-3.9,3.7c-2.4,0-3.9-1.6-3.9-3.7
		C119.8,10.1,121.5,8.7,123.7,8.7z M123.7,14.8c1.5,0,1.9-1.3,1.9-2.5c0-1.1-0.6-2.1-1.9-2.1c-1.2,0-1.8,1.1-1.8,2.1
		C121.9,13.5,122.2,14.8,123.7,14.8z"/>
	<path fill="#999999" d="M27.6,5.9h3.5c1.3,0,3.2,0.4,3.2,2.6c0,1.2-0.8,2-2,2.3v0c1.4,0.1,2.3,1.1,2.3,2.3c0,2.5-2.3,2.9-3.5,2.9
		h-3.5V5.9z M29.6,10h0.8c0.8,0,1.9-0.2,1.9-1.2c0-1.2-1-1.3-1.9-1.3h-0.8L29.6,10L29.6,10z M29.6,14.4h0.9c0.9,0,2.1-0.2,2.1-1.4
		c0-1.3-1.1-1.5-2.1-1.5h-0.9V14.4z"/>
	<path fill="#999999" d="M36.5,9.2c0.7-0.3,1.7-0.5,2.6-0.5c2.3,0,3.2,0.9,3.2,3v0.9c0,0.7,0,1.3,0,1.8c0,0.5,0,1,0.1,1.6h-1.7
		c-0.1-0.4-0.1-0.8-0.1-1.1h0c-0.4,0.8-1.4,1.2-2.3,1.2c-1.3,0-2.6-0.8-2.6-2.1c0-1.1,0.5-1.7,1.3-2c0.7-0.3,1.7-0.4,2.5-0.4h1.1
		c0-1.2-0.5-1.5-1.7-1.5c-0.8,0-1.6,0.3-2.3,0.8L36.5,9.2z M38.7,14.8c0.6,0,1-0.3,1.3-0.6c0.3-0.4,0.4-0.9,0.4-1.5h-0.8
		c-0.9,0-2.1,0.1-2.1,1.2C37.5,14.6,38,14.8,38.7,14.8z"/>
	<path fill="#999999" d="M44.1,8.9h1.8v1h0c0.6-0.8,1.4-1.1,2.4-1.1c1.7,0,2.5,1.2,2.5,2.8V16H49v-3.8c0-0.9,0-2.1-1.2-2.1
		c-1.4,0-1.7,1.5-1.7,2.4V16h-1.9L44.1,8.9L44.1,8.9z"/>
	<path fill="#999999" d="M57.5,10.4c-0.3-0.2-0.7-0.3-1.3-0.3c-1.2,0-1.9,0.9-1.9,2.3c0,1.3,0.6,2.3,2,2.3c0.5,0,1.1-0.2,1.5-0.3
		l0.1,1.5c-0.6,0.2-1.1,0.2-1.9,0.2c-2.4,0-3.6-1.6-3.6-3.8c0-2.1,1.3-3.7,3.6-3.7c0.8,0,1.3,0.1,1.9,0.2L57.5,10.4z"/>
	<path fill="#999999" d="M62.4,8.7c2.2,0,3.9,1.4,3.9,3.8c0,2.1-1.4,3.7-3.9,3.7c-2.4,0-3.9-1.6-3.9-3.7
		C58.5,10.1,60.2,8.7,62.4,8.7z M62.4,14.8c1.5,0,1.9-1.3,1.9-2.5c0-1.1-0.6-2.1-1.9-2.1c-1.2,0-1.8,1.1-1.8,2.1
		C60.5,13.5,60.9,14.8,62.4,14.8z"/>
</g>
</svg>
