<?xml version="1.0" encoding="utf-8"?>
<!-- Generator: Adobe Illustrator 18.0.0, SVG Export Plug-In . SVG Version: 6.00 Build 0)  -->
<!DOCTYPE svg PUBLIC "-//W3C//DTD SVG 1.1//EN" "http://www.w3.org/Graphics/SVG/1.1/DTD/svg11.dtd" [
	<!ENTITY ns_extend "http://ns.adobe.com/Extensibility/1.0/">
	<!ENTITY ns_ai "http://ns.adobe.com/AdobeIllustrator/10.0/">
	<!ENTITY ns_graphs "http://ns.adobe.com/Graphs/1.0/">
	<!ENTITY ns_vars "http://ns.adobe.com/Variables/1.0/">
	<!ENTITY ns_imrep "http://ns.adobe.com/ImageReplacement/1.0/">
	<!ENTITY ns_sfw "http://ns.adobe.com/SaveForWeb/1.0/">
	<!ENTITY ns_custom "http://ns.adobe.com/GenericCustomNamespace/1.0/">
	<!ENTITY ns_adobe_xpath "http://ns.adobe.com/XPath/1.0/">
]>
<svg version="1.1" id="Capa_1" xmlns:x="&ns_extend;" xmlns:i="&ns_ai;" xmlns:graph="&ns_graphs;"
	 xmlns="http://www.w3.org/2000/svg" xmlns:xlink="http://www.w3.org/1999/xlink" x="0px" y="0px" viewBox="0 0 134 23"
	 enable-background="new 0 0 134 23" xml:space="preserve">
<metadata>
	<sfw  xmlns="&ns_sfw;">
		<slices></slices>
		<sliceSourceBounds  width="1096.9" height="34.5" y="-34.6" x="-64.9" bottomLeftOrigin="true"></sliceSourceBounds>
	</sfw>
</metadata>
<g>
	<path fill="#999999" d="M11.9,12.7c0,2,0,4.1,0,6.1c0,0.5,0,0.9,0,1.3c0.3,0,0.7,0,1,0c0-0.5,0-0.9,0-1.3c0-2.1,0-4.1,0-6.1
		c1.9,1.9,3.8,3.7,5.8,5.6c-1,2.7-3.5,4.4-6.3,4.4c-2.8,0-5.3-1.8-6.3-4.4C8.1,16.4,10,14.6,11.9,12.7z"/>
	<path fill="#999999" d="M11.9,11.5c-2,1.9-4.1,3.9-6.1,5.8c-1.3-0.2-2.6-0.3-4-0.5c-1.1-3.5-1.1-7.3,0-10.8c1.3-0.2,2.7-0.3,4-0.5
		C7.8,7.6,9.8,9.6,11.9,11.5z"/>
	<path fill="#999999" d="M13,11.5c2-1.9,4.1-3.9,6.1-5.8c1.3,0.2,2.6,0.3,4,0.5c1.1,3.5,1.1,7.3,0,10.8c-1.3,0.2-2.6,0.3-4,0.5
		C17.1,15.4,15.1,13.4,13,11.5z"/>
	<path fill="#999999" d="M6.2,4.7c1-2.7,3.5-4.4,6.3-4.4c2.8,0,5.3,1.8,6.3,4.4c-1.9,1.9-3.8,3.7-5.8,5.6V4.2c0.2,0,0.4-0.2,0.4-0.5
		c0.2,0,0.3-0.2,0.1-0.3C13.3,3.2,13.2,3,13,2.9c-0.1-0.1-0.2-0.2-0.3-0.2c0,0-0.1-0.1-0.1-0.1c0,0,0,0,0,0c0,0,0,0,0,0
		c0,0-0.1,0-0.1,0c0,0-0.1,0-0.1,0c0,0,0,0,0,0c0,0,0,0,0,0c0,0-0.1,0.1-0.1,0.1c-0.1,0.1-0.2,0.2-0.3,0.2c-0.2,0.2-0.3,0.3-0.5,0.5
		c-0.1,0.1-0.1,0.3,0.1,0.3c0,0.2,0.2,0.4,0.4,0.5v6.1C10,8.4,8.1,6.6,6.2,4.7z"/>
	<path fill="#999999" d="M29.9,6.1h3.7c1.4,0,3.5,0.4,3.5,2.8c0,1.3-0.9,2.2-2.1,2.4v0c1.5,0.1,2.5,1.1,2.5,2.5
		c0,2.7-2.4,3.1-3.8,3.1h-3.7V6.1z M32,10.5h0.9c0.9,0,2-0.2,2-1.3c0-1.3-1.1-1.3-2.1-1.3H32V10.5z M32,15.2h1c1,0,2.2-0.2,2.2-1.5
		c0-1.4-1.1-1.6-2.2-1.6h-1V15.2z"/>
	<path fill="#999999" d="M39.4,9.7c0.8-0.4,1.9-0.6,2.7-0.6c2.4,0,3.4,1,3.4,3.2v1c0,0.8,0,1.4,0,1.9c0,0.6,0,1.1,0.1,1.7h-1.8
		c-0.1-0.4-0.1-0.9-0.1-1.1h0c-0.5,0.8-1.5,1.3-2.4,1.3c-1.4,0-2.8-0.8-2.8-2.3c0-1.2,0.6-1.8,1.3-2.2c0.8-0.4,1.8-0.5,2.7-0.5h1.1
		c0-1.2-0.6-1.7-1.8-1.7c-0.9,0-1.7,0.3-2.4,0.8L39.4,9.7z M41.8,15.7c0.6,0,1.1-0.3,1.4-0.7c0.3-0.4,0.4-1,0.4-1.6h-0.9
		c-0.9,0-2.3,0.1-2.3,1.3C40.5,15.4,41.1,15.7,41.8,15.7z"/>
	<path fill="#999999" d="M47.6,9.3h2v1h0c0.6-0.9,1.5-1.2,2.6-1.2c1.9,0,2.7,1.3,2.7,3V17h-2.1v-4.1c0-0.9,0-2.2-1.3-2.2
		c-1.5,0-1.8,1.6-1.8,2.6V17h-2.1V9.3z"/>
	<path fill="#999999" d="M62,10.9c-0.4-0.2-0.8-0.3-1.4-0.3c-1.3,0-2.1,1-2.1,2.4c0,1.4,0.7,2.5,2.1,2.5c0.6,0,1.2-0.2,1.6-0.4
		l0.1,1.7c-0.6,0.2-1.2,0.3-2.1,0.3c-2.6,0-3.9-1.7-3.9-4.1c0-2.2,1.3-4,3.8-4c0.8,0,1.4,0.1,2,0.3L62,10.9z"/>
	<path fill="#999999" d="M67.1,9.1c2.3,0,4.1,1.5,4.1,4.1c0,2.2-1.5,4-4.1,4c-2.6,0-4.1-1.8-4.1-4C63,10.6,64.8,9.1,67.1,9.1z
		 M67.1,15.6c1.6,0,2-1.4,2-2.7c0-1.2-0.6-2.3-2-2.3c-1.3,0-2,1.1-2,2.3C65.1,14.2,65.6,15.6,67.1,15.6z"/>
	<path fill="#999999" d="M81.2,8.1c-0.7-0.3-1.4-0.5-2.2-0.5c-0.7,0-1.7,0.3-1.7,1.5c0,1.9,4.7,1.1,4.7,4.7c0,2.4-1.9,3.3-4,3.3
		c-1.2,0-1.7-0.2-2.7-0.4l0.2-2c0.7,0.4,1.6,0.7,2.4,0.7c0.8,0,1.9-0.4,1.9-1.4c0-2.1-4.7-1.2-4.7-4.8c0-2.4,1.9-3.3,3.7-3.3
		c0.9,0,1.8,0.1,2.6,0.4L81.2,8.1z"/>
	<path fill="#999999" d="M83.9,9.7c0.8-0.4,1.9-0.6,2.7-0.6c2.4,0,3.4,1,3.4,3.2v1c0,0.8,0,1.4,0,1.9c0,0.6,0,1.1,0.1,1.7h-1.8
		c-0.1-0.4-0.1-0.9-0.1-1.1h0c-0.5,0.8-1.5,1.3-2.4,1.3c-1.4,0-2.8-0.8-2.8-2.3c0-1.2,0.6-1.8,1.3-2.2c0.8-0.4,1.8-0.5,2.7-0.5h1.1
		c0-1.2-0.6-1.7-1.8-1.7c-0.9,0-1.7,0.3-2.4,0.8L83.9,9.7z M86.3,15.7c0.6,0,1.1-0.3,1.4-0.7c0.3-0.4,0.4-1,0.4-1.6h-0.9
		c-0.9,0-2.3,0.1-2.3,1.3C85,15.4,85.6,15.7,86.3,15.7z"/>
	<path fill="#999999" d="M92.1,9.3H94v1h0c0.6-0.9,1.5-1.2,2.6-1.2c1.9,0,2.7,1.3,2.7,3V17h-2.1v-4.1c0-0.9,0-2.2-1.3-2.2
		c-1.5,0-1.8,1.6-1.8,2.6V17h-2.1V9.3z"/>
	<path fill="#999999" d="M102.1,10.7h-1.5V9.3h1.5V7.7l2.1-0.6v2.2h1.8v1.5h-1.8v3.6c0,0.7,0.2,1.3,1,1.3c0.4,0,0.7-0.1,0.9-0.2
		l0.1,1.6c-0.4,0.1-0.9,0.2-1.5,0.2c-1.6,0-2.5-1-2.5-2.5V10.7z"/>
	<path fill="#999999" d="M107.8,9.7c0.8-0.4,1.9-0.6,2.7-0.6c2.4,0,3.4,1,3.4,3.2v1c0,0.8,0,1.4,0,1.9c0,0.6,0,1.1,0.1,1.7h-1.8
		c-0.1-0.4-0.1-0.9-0.1-1.1h0c-0.5,0.9-1.5,1.3-2.4,1.3c-1.4,0-2.8-0.8-2.8-2.3c0-1.2,0.6-1.8,1.3-2.2c0.8-0.4,1.8-0.5,2.7-0.5h1.1
		c0-1.2-0.6-1.7-1.8-1.7c-0.9,0-1.7,0.3-2.4,0.8L107.8,9.7z M110.2,15.7c0.6,0,1.1-0.3,1.4-0.7c0.3-0.4,0.4-1,0.4-1.6h-0.9
		c-0.9,0-2.3,0.1-2.3,1.3C108.9,15.4,109.4,15.7,110.2,15.7z"/>
	<path fill="#999999" d="M118.8,6.1h6v1.7h-3.8v2.7h3.6v1.7h-3.6v4.8h-2.1V6.1z"/>
	<path fill="#999999" d="M132.5,16.5c-0.7,0.4-1.6,0.6-2.7,0.6c-2.6,0-4.1-1.5-4.1-4c0-2.2,1.2-4.1,3.7-4.1c2.9,0,3.8,2,3.8,4.6
		h-5.5c0.1,1.2,1,1.9,2.3,1.9c1,0,1.9-0.4,2.6-0.8L132.5,16.5L132.5,16.5z M131.1,12.4c-0.1-1-0.5-1.8-1.7-1.8
		c-1.1,0-1.7,0.8-1.8,1.8H131.1z"/>
</g>
</svg>
