<?xml version="1.0" encoding="utf-8"?>
<!-- Generator: Adobe Illustrator 18.0.0, SVG Export Plug-In . SVG Version: 6.00 Build 0)  -->
<!DOCTYPE svg PUBLIC "-//W3C//DTD SVG 1.1//EN" "http://www.w3.org/Graphics/SVG/1.1/DTD/svg11.dtd" [
	<!ENTITY ns_extend "http://ns.adobe.com/Extensibility/1.0/">
	<!ENTITY ns_ai "http://ns.adobe.com/AdobeIllustrator/10.0/">
	<!ENTITY ns_graphs "http://ns.adobe.com/Graphs/1.0/">
	<!ENTITY ns_vars "http://ns.adobe.com/Variables/1.0/">
	<!ENTITY ns_imrep "http://ns.adobe.com/ImageReplacement/1.0/">
	<!ENTITY ns_sfw "http://ns.adobe.com/SaveForWeb/1.0/">
	<!ENTITY ns_custom "http://ns.adobe.com/GenericCustomNamespace/1.0/">
	<!ENTITY ns_adobe_xpath "http://ns.adobe.com/XPath/1.0/">
]>
<svg version="1.1" id="Capa_1" xmlns:x="&ns_extend;" xmlns:i="&ns_ai;" xmlns:graph="&ns_graphs;"
	 xmlns="http://www.w3.org/2000/svg" xmlns:xlink="http://www.w3.org/1999/xlink" x="0px" y="0px" viewBox="0 0 132 22"
	 enable-background="new 0 0 132 22" xml:space="preserve">
<metadata>
	<sfw  xmlns="&ns_sfw;">
		<slices></slices>
		<sliceSourceBounds  width="1096.9" height="34.5" y="-34.6" x="-64.9" bottomLeftOrigin="true"></sliceSourceBounds>
	</sfw>
</metadata>
<g>
	<path fill="#999999" d="M10.9,0.2V11L9.1,9.1L10.9,0.2z"/>
	<path fill="#999999" d="M4.9,4.8l4.2,4.3l-1.5,0L4.9,4.8z"/>
	<path fill="#999999" d="M21.8,11H10.9l1.9-1.9L21.8,11z"/>
	<path fill="#999999" d="M17.1,4.9l-4.3,4.2l0-1.5L17.1,4.9z"/>
	<path fill="#999999" d="M10.9,21.8V11l1.9,1.9L10.9,21.8z"/>
	<path fill="#999999" d="M17,17.2l-4.2-4.3l1.5,0L17,17.2z"/>
	<path fill="#999999" d="M0.1,11h10.8l-1.9,1.9L0.1,11z"/>
	<path fill="#999999" d="M4.8,17.1l4.3-4.2l0,1.5L4.8,17.1z"/>
	<path fill="#999999" d="M26.6,5.4h3.7c1.4,0,3.4,0.4,3.4,2.8c0,1.3-0.9,2.2-2.1,2.4v0c1.5,0.1,2.4,1.1,2.4,2.5
		c0,2.8-2.4,3.2-3.8,3.2h-3.7L26.6,5.4z M28.8,9.8h0.9c0.9,0,2-0.2,2-1.3c0-1.3-1.1-1.4-2.1-1.4h-0.8V9.8z M28.8,14.6h1
		c1,0,2.2-0.3,2.2-1.5c0-1.4-1.1-1.6-2.2-1.6h-1V14.6z"/>
	<path fill="#999999" d="M36.1,8.8c0.8-0.4,1.8-0.6,2.7-0.6c2.3,0,3.3,1,3.3,3.2v1c0,0.8,0,1.4,0,1.9c0,0.6,0,1.1,0.1,1.7h-1.8
		c-0.1-0.4-0.1-0.9-0.1-1.2h0c-0.5,0.9-1.5,1.3-2.4,1.3c-1.4,0-2.7-0.8-2.7-2.3c0-1.2,0.6-1.8,1.3-2.2c0.8-0.4,1.7-0.4,2.6-0.4h1.1
		c0-1.2-0.5-1.7-1.7-1.7c-0.8,0-1.7,0.3-2.4,0.8L36.1,8.8z M38.4,14.8c0.6,0,1.1-0.3,1.4-0.7c0.3-0.4,0.4-1,0.4-1.6h-0.9
		c-0.9,0-2.2,0.1-2.2,1.3C37.2,14.6,37.7,14.8,38.4,14.8z"/>
	<path fill="#999999" d="M44.5,8.4h1.9v1.1h0c0.6-0.9,1.4-1.3,2.5-1.3c1.8,0,2.6,1.3,2.6,3.1v5h-2v-4.2c0-1,0-2.3-1.3-2.3
		c-1.4,0-1.7,1.6-1.7,2.6v3.9h-2L44.5,8.4z"/>
	<path fill="#999999" d="M59.1,10.1c-0.4-0.2-0.8-0.3-1.5-0.3c-1.4,0-2.2,1-2.2,2.4c0,1.4,0.7,2.5,2.3,2.5c0.6,0,1.3-0.2,1.7-0.4
		l0.1,1.7c-0.6,0.2-1.3,0.3-2.2,0.3c-2.8,0-4.1-1.7-4.1-4.1c0-2.2,1.4-4,4.1-4c0.9,0,1.5,0.1,2.1,0.3L59.1,10.1z"/>
	<path fill="#999999" d="M64.3,8.2c2.5,0,4.3,1.5,4.3,4.1c0,2.2-1.6,4-4.3,4c-2.7,0-4.3-1.8-4.3-4C60,9.8,61.9,8.2,64.3,8.2z
		 M64.3,14.8c1.7,0,2.1-1.4,2.1-2.7c0-1.2-0.7-2.3-2.1-2.3c-1.4,0-2.1,1.1-2.1,2.3C62.3,13.4,62.7,14.8,64.3,14.8z"/>
	<path fill="#999999" d="M78.2,7.5C77.5,7.2,76.8,7,76,7c-0.7,0-1.7,0.3-1.7,1.5c0,1.8,4.7,1.1,4.7,4.6c0,2.3-1.9,3.2-4,3.2
		c-1.2,0-1.7-0.2-2.7-0.4l0.2-1.9c0.7,0.4,1.6,0.7,2.4,0.7c0.8,0,1.9-0.4,1.9-1.4c0-2-4.7-1.2-4.7-4.7c0-2.4,1.8-3.2,3.7-3.2
		c0.9,0,1.8,0.1,2.6,0.4L78.2,7.5z"/>
	<path fill="#999999" d="M81,8.8c0.8-0.4,1.8-0.6,2.7-0.6c2.3,0,3.3,1,3.3,3.2v1c0,0.8,0,1.4,0,1.9c0,0.6,0,1.1,0.1,1.7h-1.8
		c-0.1-0.4-0.1-0.9-0.1-1.2h0c-0.5,0.9-1.5,1.3-2.4,1.3c-1.4,0-2.7-0.8-2.7-2.3c0-1.2,0.6-1.8,1.3-2.2c0.8-0.4,1.7-0.4,2.6-0.4h1.1
		c0-1.2-0.6-1.7-1.7-1.7c-0.8,0-1.7,0.3-2.4,0.8L81,8.8z M83.4,14.8c0.6,0,1.1-0.3,1.4-0.7c0.3-0.4,0.4-1,0.4-1.6h-0.9
		c-0.9,0-2.2,0.1-2.2,1.3C82.1,14.6,82.6,14.8,83.4,14.8z"/>
	<path fill="#999999" d="M116.7,8.8c0.7-0.4,1.7-0.6,2.4-0.6c2.1,0,3,1,3,3.2v1c0,0.8,0,1.4,0,1.9c0,0.6,0,1.1,0.1,1.7h-1.6
		c-0.1-0.4-0.1-0.9-0.1-1.2h0c-0.4,0.9-1.3,1.3-2.2,1.3c-1.2,0-2.5-0.8-2.5-2.3c0-1.2,0.5-1.8,1.2-2.2c0.7-0.4,1.6-0.4,2.4-0.4h1
		c0-1.2-0.5-1.7-1.6-1.7c-0.8,0-1.6,0.3-2.2,0.8L116.7,8.8z M118.8,14.8c0.6,0,1-0.3,1.3-0.7c0.3-0.4,0.4-1,0.4-1.6h-0.8
		c-0.8,0-2,0.2-2,1.3C117.7,14.6,118.2,14.8,118.8,14.8z"/>
	<path fill="#999999" d="M88.8,8.4h2v1.1h0c0.7-0.9,1.6-1.3,2.7-1.3c1.9,0,2.8,1.3,2.8,3.1v5h-2.1v-4.2c0-1,0-2.3-1.4-2.3
		c-1.5,0-1.9,1.6-1.9,2.6v3.9h-2.1L88.8,8.4L88.8,8.4L88.8,8.4z"/>
	<path fill="#999999" d="M99.8,14.4c0.3,0.1,0.7,0.2,1.2,0.2c1.6,0,1.6-1.1,1.6-1.8V5.9h2.4v7.8c0,1.1-0.8,2.6-3.3,2.6
		c-0.7,0-1.2,0-1.9-0.2L99.8,14.4L99.8,14.4z"/>
	<path fill="#999999" d="M114.2,16.1h-2v-1.1h0c-0.6,0.8-1.6,1.3-2.7,1.3c-1.9,0-2.8-1.3-2.8-3.1v-5h2.1v4.2c0,1,0,2.3,1.4,2.3
		c1.5,0,1.9-1.6,1.9-2.6V8.2h2.1V16.1z"/>
	<path fill="#999999" d="M124.5,8.4h2v1h0c0.7-0.9,1.5-1.2,2.6-1.2c1.9,0,2.7,1.3,2.7,3v4.9h-2.1V12c0-0.9,0-2.2-1.3-2.2
		c-1.5,0-1.8,1.6-1.8,2.6v3.8h-2.1V8.4z"/>
</g>
</svg>
