<?xml version="1.0" encoding="utf-8"?>
<!-- Generator: Adobe Illustrator 18.0.0, SVG Export Plug-In . SVG Version: 6.00 Build 0)  -->
<!DOCTYPE svg PUBLIC "-//W3C//DTD SVG 1.1//EN" "http://www.w3.org/Graphics/SVG/1.1/DTD/svg11.dtd" [
	<!ENTITY ns_extend "http://ns.adobe.com/Extensibility/1.0/">
	<!ENTITY ns_ai "http://ns.adobe.com/AdobeIllustrator/10.0/">
	<!ENTITY ns_graphs "http://ns.adobe.com/Graphs/1.0/">
	<!ENTITY ns_vars "http://ns.adobe.com/Variables/1.0/">
	<!ENTITY ns_imrep "http://ns.adobe.com/ImageReplacement/1.0/">
	<!ENTITY ns_sfw "http://ns.adobe.com/SaveForWeb/1.0/">
	<!ENTITY ns_custom "http://ns.adobe.com/GenericCustomNamespace/1.0/">
	<!ENTITY ns_adobe_xpath "http://ns.adobe.com/XPath/1.0/">
]>
<svg version="1.1" id="Capa_1" xmlns:x="&ns_extend;" xmlns:i="&ns_ai;" xmlns:graph="&ns_graphs;"
	 xmlns="http://www.w3.org/2000/svg" xmlns:xlink="http://www.w3.org/1999/xlink" x="0px" y="0px" viewBox="0 0 134 22"
	 enable-background="new 0 0 134 22" xml:space="preserve">
<metadata>
	<sfw  xmlns="&ns_sfw;">
		<slices></slices>
		<sliceSourceBounds  width="1096.9" height="34.5" y="-34.6" x="-64.9" bottomLeftOrigin="true"></sliceSourceBounds>
	</sfw>
</metadata>
<g>
	<path fill="#999999" d="M26.5,6.1h3.4c1.2,0,3.1,0.4,3.1,2.5c0,1.2-0.8,2-1.9,2.2v0c1.3,0.1,2.2,1,2.2,2.2c0,2.4-2.2,2.8-3.4,2.8
		h-3.4V6.1z M28.4,10.1h0.8c0.8,0,1.8-0.2,1.8-1.2c0-1.1-1-1.2-1.9-1.2h-0.7V10.1z M28.4,14.3h0.9c0.9,0,2-0.2,2-1.3
		c0-1.3-1-1.5-2-1.5h-0.9V14.3z"/>
	<path fill="#999999" d="M35,9.3c0.7-0.3,1.7-0.5,2.5-0.5c2.2,0,3.1,0.9,3.1,2.9v0.9c0,0.7,0,1.2,0,1.7c0,0.5,0,1,0.1,1.5h-1.6
		c-0.1-0.4-0.1-0.8-0.1-1h0c-0.4,0.8-1.4,1.2-2.2,1.2c-1.3,0-2.5-0.7-2.5-2c0-1,0.5-1.6,1.2-2c0.7-0.3,1.6-0.4,2.4-0.4h1
		c0-1.1-0.5-1.5-1.6-1.5c-0.8,0-1.6,0.3-2.2,0.8L35,9.3z M37.2,14.7c0.6,0,1-0.2,1.3-0.6c0.3-0.4,0.4-0.9,0.4-1.4h-0.8
		c-0.8,0-2.1,0.1-2.1,1.2C36,14.5,36.5,14.7,37.2,14.7z"/>
	<path fill="#999999" d="M42.4,9h1.8v0.9h0c0.6-0.8,1.4-1.1,2.3-1.1c1.7,0,2.4,1.2,2.4,2.7v4.4h-1.8v-3.7c0-0.8,0-2-1.2-2
		c-1.3,0-1.6,1.4-1.6,2.3v3.4h-1.9V9z"/>
	<path fill="#999999" d="M55.4,10.5c-0.3-0.1-0.7-0.3-1.3-0.3c-1.1,0-1.9,0.9-1.9,2.2c0,1.3,0.6,2.2,1.9,2.2c0.5,0,1.1-0.2,1.4-0.3
		l0.1,1.5C55.1,16,54.6,16,53.8,16c-2.3,0-3.5-1.5-3.5-3.6c0-2,1.2-3.6,3.4-3.6c0.7,0,1.3,0.1,1.8,0.2L55.4,10.5z"/>
	<path fill="#999999" d="M60,8.8c2.1,0,3.7,1.4,3.7,3.7c0,2-1.4,3.6-3.7,3.6c-2.3,0-3.7-1.6-3.7-3.6C56.3,10.2,57.9,8.8,60,8.8z
		 M60,14.6c1.4,0,1.8-1.2,1.8-2.4c0-1.1-0.6-2-1.8-2c-1.2,0-1.8,1-1.8,2C58.2,13.4,58.6,14.6,60,14.6z"/>
	<path fill="#999999" d="M72.8,7.9c-0.6-0.3-1.3-0.4-2-0.4c-0.7,0-1.5,0.3-1.5,1.3c0,1.7,4.2,1,4.2,4.2c0,2.1-1.7,2.9-3.6,2.9
		c-1.1,0-1.5-0.1-2.5-0.4l0.2-1.8c0.7,0.4,1.4,0.6,2.2,0.6c0.7,0,1.7-0.4,1.7-1.3c0-1.8-4.2-1.1-4.2-4.3c0-2.2,1.7-3,3.4-3
		c0.8,0,1.6,0.1,2.3,0.3L72.8,7.9z"/>
	<path fill="#999999" d="M75.2,9.3C76,9,76.9,8.8,77.7,8.8c2.2,0,3.1,0.9,3.1,2.9v0.9c0,0.7,0,1.2,0,1.7c0,0.5,0,1,0.1,1.5h-1.6
		c-0.1-0.4-0.1-0.8-0.1-1h0c-0.4,0.8-1.4,1.2-2.2,1.2c-1.3,0-2.5-0.7-2.5-2c0-1,0.5-1.6,1.2-2c0.7-0.3,1.6-0.4,2.4-0.4h1
		c0-1.1-0.5-1.5-1.6-1.5c-0.8,0-1.6,0.3-2.2,0.8L75.2,9.3z M77.4,14.7c0.6,0,1-0.2,1.3-0.6c0.3-0.4,0.4-0.9,0.4-1.4h-0.8
		c-0.8,0-2.1,0.1-2.1,1.2C76.2,14.5,76.7,14.7,77.4,14.7z"/>
	<path fill="#999999" d="M82.6,9h1.8v0.9h0c0.6-0.8,1.4-1.1,2.3-1.1c1.7,0,2.4,1.2,2.4,2.7v4.4h-1.8v-3.7c0-0.8,0-2-1.2-2
		c-1.3,0-1.6,1.4-1.6,2.3v3.4h-1.8V9z"/>
	<path fill="#999999" d="M91.6,10.3h-1.4V9h1.4V7.6L93.5,7v2h1.6v1.3h-1.6v3.2c0,0.6,0.2,1.1,0.9,1.1c0.3,0,0.6-0.1,0.8-0.2l0.1,1.4
		C94.9,16,94.4,16,93.9,16c-1.4,0-2.3-0.9-2.3-2.2L91.6,10.3L91.6,10.3z"/>
	<path fill="#999999" d="M96.7,9.3c0.7-0.3,1.7-0.5,2.5-0.5c2.2,0,3.1,0.9,3.1,2.9v0.9c0,0.7,0,1.2,0,1.7c0,0.5,0,1,0.1,1.5h-1.6
		c-0.1-0.4-0.1-0.8-0.1-1h0c-0.4,0.8-1.4,1.2-2.2,1.2c-1.3,0-2.5-0.7-2.5-2c0-1,0.5-1.6,1.2-2c0.7-0.3,1.6-0.4,2.4-0.4h1
		c0-1.1-0.5-1.5-1.6-1.5c-0.8,0-1.6,0.3-2.2,0.8L96.7,9.3z M98.9,14.7c0.6,0,1-0.2,1.3-0.6c0.3-0.4,0.4-0.9,0.4-1.4h-0.8
		c-0.8,0-2.1,0.1-2.1,1.2C97.7,14.5,98.2,14.7,98.9,14.7z"/>
	<path fill="#999999" d="M113.3,15.7c-0.7,0.2-1.4,0.3-2.2,0.3c-3.1,0-5.2-1.5-5.2-4.7c0-3.2,2-5.1,5.2-5.1c0.6,0,1.5,0.1,2.2,0.4
		l-0.1,1.6c-0.7-0.4-1.4-0.5-2.1-0.5c-2,0-3.2,1.5-3.2,3.4c0,1.9,1.2,3.4,3.2,3.4c0.8,0,1.6-0.2,2.1-0.4L113.3,15.7z"/>
	<path fill="#999999" d="M114.6,8.9h1.6v1.6h0c0.1-0.7,0.8-1.7,1.9-1.7c0.2,0,0.4,0,0.6,0.1v1.8c-0.2-0.1-0.5-0.1-0.8-0.1
		c-1.5,0-1.5,1.8-1.5,2.8v2.6h-1.8V8.9z"/>
	<path fill="#999999" d="M126.5,15.9h-1.7v-0.9h0c-0.6,0.7-1.4,1.1-2.3,1.1c-1.7,0-2.4-1.2-2.4-2.7V8.9h1.8v3.7c0,0.9,0,2,1.2,2
		c1.3,0,1.6-1.4,1.6-2.3V8.9h1.8L126.5,15.9L126.5,15.9z"/>
	<path fill="#999999" d="M128.1,8.9h5.6v1.5l-3.5,4.1h3.6v1.4H128v-1.5l3.6-4.1h-3.4V8.9z"/>
	<path fill="#999999" d="M0.2,0.5v13.3c0.9-1.5,3.8-6.4,5.3-6.4c0.7,0,1.9,1.9,1.9,1.9s5.8,8.9,13.8,9.1V0.5H0.2z M13.1,9.2
		l-2.3,1.5l2.3-2.3L13.1,9.2z M15.1,8.4l0.8,0l1.5,2.3L15.1,8.4l-1,4.8V7.4l-1,1l-4.8-1h5.8l-1-1l1-4.8v5.8l1-1l0-0.8l2.3-1.5
		l-2.3,2.3l4.8,1h-5.8L15.1,8.4z M10.8,4.1l2.3,2.3l-0.8,0L10.8,4.1z"/>
	<path fill="#9E9E9F" d="M21.1,21.5v-1.5c-1.5,0-7.7-0.6-13-7.7l-2.7,7.6V8.9c0,0-2.1,1.5-5.2,7.5v5.1H21.1z"/>
</g>
</svg>
