<?xml version="1.0" encoding="utf-8"?>
<!-- Generator: Adobe Illustrator 18.0.0, SVG Export Plug-In . SVG Version: 6.00 Build 0)  -->
<!DOCTYPE svg PUBLIC "-//W3C//DTD SVG 1.1//EN" "http://www.w3.org/Graphics/SVG/1.1/DTD/svg11.dtd" [
	<!ENTITY ns_extend "http://ns.adobe.com/Extensibility/1.0/">
	<!ENTITY ns_ai "http://ns.adobe.com/AdobeIllustrator/10.0/">
	<!ENTITY ns_graphs "http://ns.adobe.com/Graphs/1.0/">
	<!ENTITY ns_vars "http://ns.adobe.com/Variables/1.0/">
	<!ENTITY ns_imrep "http://ns.adobe.com/ImageReplacement/1.0/">
	<!ENTITY ns_sfw "http://ns.adobe.com/SaveForWeb/1.0/">
	<!ENTITY ns_custom "http://ns.adobe.com/GenericCustomNamespace/1.0/">
	<!ENTITY ns_adobe_xpath "http://ns.adobe.com/XPath/1.0/">
]>
<svg version="1.1" id="Capa_1" xmlns:x="&ns_extend;" xmlns:i="&ns_ai;" xmlns:graph="&ns_graphs;"
	 xmlns="http://www.w3.org/2000/svg" xmlns:xlink="http://www.w3.org/1999/xlink" x="0px" y="0px" viewBox="0 0 154 35"
	 enable-background="new 0 0 154 35" xml:space="preserve">
<metadata>
	<sfw  xmlns="&ns_sfw;">
		<slices></slices>
		<sliceSourceBounds  width="1096.9" height="34.5" y="-34.6" x="-64.9" bottomLeftOrigin="true"></sliceSourceBounds>
	</sfw>
</metadata>
<g>
	<path fill="#999999" d="M145.4,15.5c0,1.3-0.5,2-1.6,2h-1.5v-6.6h1.5c1.1,0,1.6,0.7,1.6,1.9V15.5z M143.8,9.2h-3.4v16.4h1.9v-6.5
		h1.5c2.2,0,3.6-1.1,3.6-3.2c0,0,0-3.5,0-3.5C147.4,10.4,146.1,9.2,143.8,9.2z"/>
	<path fill="#999999" d="M130.2,9c-2.2,0-3.5,1.2-3.5,3.4v10.2c0,2.3,1.4,3.3,3.5,3.3c2.1,0,3.5-1,3.5-3.3v-5.8H130v1.6h1.7v4.1
		c0,1.3-0.6,1.7-1.6,1.7c-0.9,0-1.6-0.4-1.6-1.7c0-3.4,0-10,0-10c0-1.2,0.6-1.8,1.6-1.8c1,0,1.6,0.5,1.6,1.7V14h1.9v-1.7
		C133.6,10,132.4,9,130.2,9z"/>
	<path fill="#999999" d="M136.8,32.9c-8.5,0-15.4-6.9-15.4-15.4c0-8.5,6.9-15.4,15.4-15.4c8.5,0,15.4,6.9,15.4,15.4
		C152.2,26,145.2,32.9,136.8,32.9z M136.8,0.4c-9.5,0-17.1,7.7-17.1,17.1c0,9.5,7.7,17.1,17.1,17.1c9.5,0,17.1-7.7,17.1-17.1
		C153.9,8,146.2,0.4,136.8,0.4z"/>
	<path fill="#999999" d="M136.8,16.2c-0.7,0-1.3,0.6-1.3,1.3c0,0.7,0.5,1.3,1.3,1.3c0.7,0,1.3-0.5,1.3-1.3
		C138.1,16.8,137.5,16.2,136.8,16.2z"/>
	<path fill="#999999" d="M33.3,17c0,1.3-0.4,1.6-1.4,1.6h-1.3v-5h1.3c1.1,0,1.4,0.3,1.4,1.6V17z M31.9,12.1h-3.1v13.3h1.8V20h1.3
		c2.3,0,3.2-0.8,3.2-3V15C35.1,12.9,34.2,12.1,31.9,12.1z"/>
	<path fill="#999999" d="M14.8,16.2c0,1.5-0.5,1.7-1.5,1.7h-1.5v-4.3h1.5c0.9,0,1.5,0.1,1.5,1.5V16.2z M13.3,12.1h-3.3v13.2h1.8
		v-5.9h1.5c1.1,0,1.5,0.2,1.5,1.7v4.2h1.8v-4.3c0-1.3-0.2-2-1.2-2.4c1-0.4,1.2-1.3,1.2-2.5V15C16.6,12.6,15.3,12.1,13.3,12.1z"/>
	<path fill="#999999" d="M3.6,8.6c-2.2,0-3.5,1.2-3.5,3.4v10.2c0,2.3,1.4,3.3,3.5,3.3c2.1,0,3.5-1,3.5-3.3v-5.8H3.5V18h1.7v4.1
		c0,1.3-0.6,1.7-1.6,1.7c-0.9,0-1.6-0.4-1.6-1.7c0-3.4,0-10,0-10c0-1.2,0.6-1.8,1.6-1.8c1,0,1.6,0.5,1.6,1.7v1.6h1.9v-1.7
		C7.1,9.7,5.8,8.6,3.6,8.6z"/>
	<path fill="#999999" d="M41.8,22.4c0,1.1-0.5,1.6-1.5,1.6c-0.9,0-1.5-0.5-1.5-1.7v-7.2c0-1.2,0.5-1.7,1.5-1.7
		c0.9,0,1.5,0.4,1.5,1.6V22.4z M40.2,11.8c-2,0-3.3,1-3.3,3.1v7.5c0,2.1,1.2,3.1,3.3,3.1c2,0,3.2-1,3.2-3.1V15
		C43.5,12.8,42.2,11.8,40.2,11.8z"/>
	<path fill="#999999" d="M24.2,22.6c0,1.1-0.5,1.5-1.5,1.5c-0.9,0-1.5-0.4-1.5-1.5V12.1h-1.8v10.5c0,2.3,1.5,3,3.3,3
		c1.7,0,3.3-0.7,3.3-3V12.1h-1.8L24.2,22.6"/>
	<path fill="#999999" d="M59.9,25.3h5.5v-1.5h-3.7v-4.4h3.7v-1.5h-3.7v-4.3h3.7v-1.5h-5.5V25.3z"/>
	<path fill="#999999" d="M94,11.8c-2.1,0-3.3,1.1-3.3,3.1v0.5c0,1.5,0.6,2.2,1.6,2.8l1.9,1.3c1,0.7,1.2,0.9,1.2,1.7v1.2
		c0,1.1-0.5,1.6-1.5,1.6c-0.9,0-1.5-0.5-1.5-1.5c0,0,0-1.3,0-2h-1.8v2c0,2.1,1.2,3.1,3.3,3.1c2,0,3.3-1.1,3.3-3.1v-1.2
		c0-1.4-0.5-2.1-1.6-2.8c0,0-1.9-1.2-1.9-1.2c-1-0.7-1.2-0.8-1.2-1.8V15c0-1.2,0.6-1.6,1.5-1.6c1,0,1.5,0.5,1.5,1.6v1.3h1.8V15
		C97.3,13,96.1,11.8,94,11.8z"/>
	<path fill="#999999" d="M99.8,25.3h5.5v-1.5h-3.7v-4.4h3.7v-1.5h-3.7v-4.3h3.7v-1.5h-5.5V25.3z"/>
	<path fill="#999999" d="M86.6,16.2c0,1.5-0.5,1.7-1.5,1.7h-1.5v-4.3h1.5c0.9,0,1.5,0.1,1.5,1.5V16.2z M85.1,12.1h-3.3v13.2h1.8
		v-5.9h1.5c1.1,0,1.5,0.2,1.5,1.7v4.2h1.8v-4.3c0-1.3-0.2-2-1.2-2.4c1-0.4,1.2-1.3,1.2-2.5V15C88.4,12.6,87.2,12.1,85.1,12.1z"/>
	<path fill="#999999" d="M112.6,21.1c0,1.2,0.1,2.1,0.1,2.7h-0.1c0,0-0.2-1.5-0.3-2.1l-2-9.6h-2.6v13.2h1.7l0-8.8
		c0-1.2-0.1-2.9-0.1-2.9h0.1c0,0,0.2,1.6,0.4,2.5l1.9,9.1h2.7V12.1h-1.7V21.1z"/>
	<path fill="#999999" d="M66.3,13.6h2.2v11.7h1.8V13.6h2.2v-1.5h-6.1V13.6z"/>
	<path fill="#999999" d="M55.9,15.2c0,1.3-0.5,2-1.6,2h-1.5v-6.6h1.5c1.1,0,1.6,0.7,1.6,1.9V15.2z M54.3,8.9h-3.4v16.4h1.9v-6.5h1.5
		c2.2,0,3.6-1.1,3.6-3.2c0,0,0-3.5,0-3.5C57.9,10.1,56.6,8.9,54.3,8.9z"/>
	<path fill="#999999" d="M47.2,15.9c-0.7,0-1.3,0.6-1.3,1.3c0,0.7,0.5,1.3,1.3,1.3c0.7,0,1.3-0.5,1.3-1.3
		C48.5,16.5,47.9,15.9,47.2,15.9z"/>
	<path fill="#999999" d="M74.2,25.3h5.5v-1.5h-3.7v-4.4h3.7v-1.5h-3.7v-4.3h3.7v-1.5h-5.5V25.3z"/>
</g>
</svg>
