<?xml version="1.0" encoding="utf-8"?>
<!-- Generator: Adobe Illustrator 18.0.0, SVG Export Plug-In . SVG Version: 6.00 Build 0)  -->
<!DOCTYPE svg PUBLIC "-//W3C//DTD SVG 1.1//EN" "http://www.w3.org/Graphics/SVG/1.1/DTD/svg11.dtd" [
	<!ENTITY ns_extend "http://ns.adobe.com/Extensibility/1.0/">
	<!ENTITY ns_ai "http://ns.adobe.com/AdobeIllustrator/10.0/">
	<!ENTITY ns_graphs "http://ns.adobe.com/Graphs/1.0/">
	<!ENTITY ns_vars "http://ns.adobe.com/Variables/1.0/">
	<!ENTITY ns_imrep "http://ns.adobe.com/ImageReplacement/1.0/">
	<!ENTITY ns_sfw "http://ns.adobe.com/SaveForWeb/1.0/">
	<!ENTITY ns_custom "http://ns.adobe.com/GenericCustomNamespace/1.0/">
	<!ENTITY ns_adobe_xpath "http://ns.adobe.com/XPath/1.0/">
]>
<svg version="1.1" xmlns:x="&ns_extend;" xmlns:i="&ns_ai;" xmlns:graph="&ns_graphs;"
	 xmlns="http://www.w3.org/2000/svg" xmlns:xlink="http://www.w3.org/1999/xlink" x="0px" y="0px" viewBox="0 0 541 190"
	 enable-background="new 0 0 541 190" xml:space="preserve">
<metadata>
	<sfw  xmlns="&ns_sfw;">
		<slices></slices>
		<sliceSourceBounds  width="16383" height="2559" x="-7508" y="-1399" bottomLeftOrigin="true"></sliceSourceBounds>
	</sfw>
</metadata>
<g id="bg">
</g>
<g id="banner_1">
	<g>
		<g>
			<path fill="#FFFFFF" d="M18.9,29.5h0.1l8-22.9h8.1v31.1H29V16.5l-0.1,0l-7.7,21.3h-4.2L9.2,16.4l-0.1,0v21.3H2.9V6.6H11
				L18.9,29.5z"/>
			<path fill="#FFFFFF" d="M50.5,38.1c-3.4,0-6.1-1.1-8.1-3.2s-2.9-4.8-2.9-8.2v-0.9c0-3.5,0.9-6.3,2.8-8.5c1.9-2.2,4.5-3.3,7.8-3.3
				c3.1,0,5.5,1,7.1,2.9c1.7,1.9,2.5,4.5,2.5,7.7v3.2H45.9L45.9,28c0.1,1.6,0.6,2.9,1.4,3.8c0.9,1,2.1,1.5,3.8,1.5
				c1.4,0,2.6-0.1,3.6-0.4c1-0.3,2-0.7,3-1.3l1.7,3.8c-0.9,0.8-2.2,1.4-3.8,1.9C54.1,37.9,52.3,38.1,50.5,38.1z M50.1,19
				c-1.3,0-2.2,0.4-2.9,1.3c-0.7,0.9-1.1,2-1.2,3.4l0,0.1h7.6v-0.5c0-1.4-0.3-2.4-0.8-3.2C52.2,19.3,51.3,19,50.1,19z"/>
			<path fill="#FFFFFF" d="M70.1,14.6v24c0,2.7-0.7,4.8-2.2,6.3c-1.4,1.5-3.4,2.2-6,2.2c-0.6,0-1.1,0-1.6-0.1
				c-0.5-0.1-1-0.1-1.5-0.3l0.3-4.8c0.3,0.1,0.7,0.1,1,0.2c0.3,0,0.7,0.1,1,0.1c0.8,0,1.5-0.3,1.9-0.9c0.5-0.6,0.7-1.5,0.7-2.7v-24
				H70.1z M69.9,9h-6.3V4.4h6.3V9z"/>
			<path fill="#FFFFFF" d="M74,25.9c0-3.4,1-6.3,2.9-8.5s4.6-3.3,8-3.3c3.4,0,6.1,1.1,8,3.3c1.9,2.2,2.9,5,2.9,8.5v0.4
				c0,3.5-1,6.3-2.9,8.5c-1.9,2.2-4.6,3.3-8,3.3c-3.4,0-6.1-1.1-8-3.3c-1.9-2.2-2.9-5-2.9-8.5V25.9z M80.2,26.4
				c0,2.1,0.4,3.8,1.1,5.1s1.9,1.9,3.6,1.9c1.6,0,2.8-0.6,3.5-1.9c0.7-1.3,1.1-3,1.1-5.1v-0.4c0-2.1-0.4-3.7-1.1-5S86.5,19,84.8,19
				c-1.6,0-2.8,0.7-3.5,2c-0.7,1.3-1.1,3-1.1,5V26.4z"/>
			<path fill="#FFFFFF" d="M111.8,19.9l-2.3-0.1c-0.9,0-1.7,0.2-2.3,0.6c-0.6,0.4-1.1,0.9-1.4,1.6v15.6h-6.2V14.6h5.8l0.3,3.4
				c0.5-1.2,1.2-2.2,2.1-2.8c0.9-0.7,1.9-1,3-1c0.3,0,0.6,0,0.9,0.1c0.3,0,0.5,0.1,0.8,0.2L111.8,19.9z"/>
			<path fill="#FFFFFF" d="M128.7,37.7c-0.2-0.5-0.4-1.1-0.6-1.7s-0.3-1.2-0.4-1.8c-0.6,1.1-1.5,2.1-2.5,2.8
				c-1.1,0.7-2.3,1.1-3.8,1.1c-2.4,0-4.3-0.6-5.6-1.9c-1.3-1.2-2-2.9-2-5.1c0-2.3,0.9-4,2.6-5.3c1.7-1.2,4.3-1.9,7.6-1.9h3.5v-1.8
				c0-1.1-0.3-2-0.9-2.6s-1.5-0.9-2.6-0.9c-1,0-1.8,0.2-2.3,0.7s-0.8,1.2-0.8,2h-6l0-0.1c-0.1-2,0.8-3.6,2.6-5.1
				c1.8-1.4,4.2-2.1,7.1-2.1c2.8,0,5,0.7,6.7,2.1c1.7,1.4,2.6,3.4,2.6,6v9.5c0,1.1,0.1,2.1,0.2,3.1c0.2,1,0.4,1.9,0.8,2.8H128.7z
				 M123,33.5c1.1,0,2.1-0.3,2.9-0.8c0.9-0.5,1.4-1.2,1.8-1.9v-3.3h-3.5c-1.3,0-2.3,0.3-3,1c-0.7,0.7-1,1.5-1,2.4
				c0,0.8,0.3,1.4,0.8,1.9C121.4,33.3,122.1,33.5,123,33.5z"/>
			<path fill="#FFFFFF" d="M144.3,14.6l0.3,3.1c0.7-1.1,1.7-2,2.8-2.6c1.1-0.6,2.4-0.9,3.9-0.9c1.5,0,2.7,0.3,3.8,1
				c1.1,0.7,1.9,1.6,2.4,3c0.7-1.2,1.6-2.2,2.8-2.9c1.1-0.7,2.5-1,4-1c2.3,0,4.1,0.8,5.4,2.4c1.3,1.6,2,4.1,2,7.4v13.7h-6.2V24
				c0-1.9-0.3-3.1-0.9-3.9c-0.6-0.7-1.4-1.1-2.5-1.1c-0.9,0-1.6,0.2-2.3,0.6c-0.6,0.4-1.2,0.9-1.5,1.6c0,0.3,0,0.5,0,0.7
				c0,0.2,0,0.4,0,0.6v15.2h-6.2V24c0-1.8-0.3-3.1-0.9-3.8s-1.4-1.1-2.6-1.1c-0.8,0-1.6,0.2-2.2,0.5c-0.6,0.3-1.2,0.8-1.6,1.4v16.9
				h-6.2V14.6H144.3z"/>
			<path fill="#FFFFFF" d="M175.4,25.9c0-3.4,1-6.3,2.9-8.5c1.9-2.2,4.6-3.3,8-3.3c3.4,0,6.1,1.1,8,3.3c1.9,2.2,2.9,5,2.9,8.5v0.4
				c0,3.5-1,6.3-2.9,8.5c-1.9,2.2-4.6,3.3-8,3.3c-3.4,0-6.1-1.1-8-3.3c-1.9-2.2-2.9-5-2.9-8.5V25.9z M181.6,26.4
				c0,2.1,0.4,3.8,1.1,5.1c0.7,1.3,1.9,1.9,3.6,1.9c1.6,0,2.8-0.6,3.5-1.9c0.7-1.3,1.1-3,1.1-5.1v-0.4c0-2.1-0.4-3.7-1.1-5
				s-1.9-1.9-3.6-1.9c-1.6,0-2.8,0.7-3.5,2c-0.7,1.3-1.1,3-1.1,5V26.4z"/>
			<path fill="#FFFFFF" d="M213.6,31.3c0-0.7-0.3-1.3-1-1.8c-0.7-0.5-1.9-0.9-3.7-1.3c-2.7-0.5-4.8-1.4-6.2-2.5
				c-1.4-1.1-2.1-2.6-2.1-4.5c0-2,0.8-3.7,2.5-5.1c1.7-1.4,3.9-2.1,6.7-2.1c2.9,0,5.3,0.7,7,2.1s2.6,3.1,2.5,5.2l0,0.1h-6
				c0-0.9-0.3-1.7-0.9-2.3c-0.6-0.6-1.5-0.9-2.6-0.9c-1,0-1.8,0.2-2.4,0.7c-0.6,0.5-0.9,1.1-0.9,1.8c0,0.7,0.3,1.3,0.9,1.7
				c0.6,0.4,1.8,0.9,3.7,1.2c2.8,0.6,4.9,1.4,6.3,2.5c1.4,1.1,2.1,2.6,2.1,4.6c0,2.1-0.9,3.8-2.7,5.1c-1.8,1.3-4.1,2-7,2
				c-3.1,0-5.5-0.8-7.3-2.3c-1.8-1.6-2.6-3.3-2.6-5.3l0-0.1h5.7c0,1.2,0.4,2.1,1.2,2.7c0.8,0.6,1.8,0.8,3,0.8c1.2,0,2-0.2,2.6-0.7
				C213.3,32.7,213.6,32.1,213.6,31.3z"/>
			<path fill="#FFFFFF" d="M244.5,38.1c-3.4,0-6.1-1.1-8.1-3.2s-2.9-4.8-2.9-8.2v-0.9c0-3.5,0.9-6.3,2.8-8.5s4.5-3.3,7.8-3.3
				c3.1,0,5.5,1,7.1,2.9c1.7,1.9,2.5,4.5,2.5,7.7v3.2H240l-0.1,0.1c0.1,1.6,0.6,2.9,1.4,3.8c0.9,1,2.1,1.5,3.8,1.5
				c1.4,0,2.6-0.1,3.6-0.4c1-0.3,2-0.7,3-1.3l1.7,3.8c-0.9,0.8-2.2,1.4-3.8,1.9S246.4,38.1,244.5,38.1z M244.1,19
				c-1.3,0-2.2,0.4-2.9,1.3c-0.7,0.9-1.1,2-1.2,3.4l0,0.1h7.6v-0.5c0-1.4-0.3-2.4-0.8-3.2C246.3,19.3,245.4,19,244.1,19z"/>
			<path fill="#FFFFFF" d="M264,37.7h-6.2V4.4h6.2V37.7z"/>
			<path fill="#FFFFFF" d="M279,26.3c0-3.6,0.8-6.6,2.4-8.8s3.8-3.4,6.7-3.4c1.2,0,2.2,0.2,3.1,0.7c0.9,0.5,1.7,1.2,2.4,2.1V4.4h6.3
				v33.3h-5.3l-0.5-2.8c-0.7,1.1-1.6,1.9-2.6,2.4c-1,0.6-2.1,0.8-3.4,0.8c-2.8,0-5-1-6.6-3.1s-2.4-4.8-2.4-8.2V26.3z M285.2,26.8
				c0,2,0.3,3.6,1,4.8s1.8,1.7,3.3,1.7c0.9,0,1.7-0.2,2.3-0.5c0.7-0.4,1.2-0.9,1.6-1.6v-9.8c-0.4-0.7-1-1.3-1.6-1.7
				s-1.4-0.6-2.3-0.6c-1.5,0-2.6,0.7-3.3,2c-0.7,1.4-1.1,3.1-1.1,5.3V26.8z"/>
			<path fill="#FFFFFF" d="M311.2,9H305V4.4h6.2V9z M311.2,37.7H305V14.6h6.2V37.7z"/>
			<path fill="#FFFFFF" d="M328.9,31.3c0-0.7-0.3-1.3-1-1.8c-0.7-0.5-1.9-0.9-3.7-1.3c-2.7-0.5-4.8-1.4-6.2-2.5
				c-1.4-1.1-2.1-2.6-2.1-4.5c0-2,0.8-3.7,2.5-5.1c1.7-1.4,3.9-2.1,6.7-2.1c2.9,0,5.3,0.7,7,2.1s2.6,3.1,2.5,5.2l0,0.1h-6
				c0-0.9-0.3-1.7-0.9-2.3c-0.6-0.6-1.5-0.9-2.6-0.9c-1,0-1.8,0.2-2.4,0.7c-0.6,0.5-0.9,1.1-0.9,1.8c0,0.7,0.3,1.3,0.9,1.7
				c0.6,0.4,1.8,0.9,3.7,1.2c2.8,0.6,4.9,1.4,6.3,2.5c1.4,1.1,2.1,2.6,2.1,4.6c0,2.1-0.9,3.8-2.7,5.1c-1.8,1.3-4.1,2-7,2
				c-3.1,0-5.5-0.8-7.3-2.3c-1.8-1.6-2.6-3.3-2.6-5.3l0-0.1h5.7c0,1.2,0.4,2.1,1.2,2.7c0.8,0.6,1.8,0.8,3,0.8c1.2,0,2-0.2,2.6-0.7
				C328.5,32.7,328.9,32.1,328.9,31.3z"/>
			<path fill="#FFFFFF" d="M348.9,38.1c-3.4,0-6.1-1.1-8.1-3.2c-1.9-2.1-2.9-4.8-2.9-8.2v-0.9c0-3.5,0.9-6.3,2.8-8.5
				c1.9-2.2,4.5-3.3,7.8-3.3c3.1,0,5.5,1,7.1,2.9c1.7,1.9,2.5,4.5,2.5,7.7v3.2h-13.8l-0.1,0.1c0.1,1.6,0.6,2.9,1.4,3.8
				c0.9,1,2.1,1.5,3.8,1.5c1.4,0,2.6-0.1,3.6-0.4c1-0.3,2-0.7,3-1.3l1.7,3.8c-0.9,0.8-2.2,1.4-3.8,1.9S350.8,38.1,348.9,38.1z
				 M348.5,19c-1.3,0-2.2,0.4-2.9,1.3c-0.7,0.9-1.1,2-1.2,3.4l0,0.1h7.6v-0.5c0-1.4-0.3-2.4-0.8-3.2C350.7,19.3,349.8,19,348.5,19z"
				/>
			<path fill="#FFFFFF" d="M367.5,14.6l0.3,3.3c0.8-1.2,1.7-2.1,2.8-2.8c1.1-0.7,2.4-1,3.8-1c2.3,0,4.2,0.8,5.5,2.3
				c1.3,1.5,2,3.9,2,7.1v14.2h-6.3V23.5c0-1.7-0.3-2.8-0.9-3.5c-0.6-0.7-1.4-1-2.6-1c-0.9,0-1.7,0.2-2.4,0.5
				c-0.7,0.3-1.3,0.8-1.7,1.4v16.7h-6.2V14.6H367.5z M379.7,4.9c0,1.4-0.4,2.5-1.3,3.5c-0.8,1-1.9,1.4-3.2,1.4c-1,0-2.1-0.3-3.4-0.9
				c-1.3-0.6-2.3-0.9-3-0.9c-0.5,0-0.9,0.2-1.3,0.7c-0.3,0.5-0.5,1-0.5,1.7l-3.3-0.9c0-1.3,0.4-2.5,1.3-3.5c0.8-1,1.9-1.5,3.2-1.5
				c0.8,0,1.9,0.3,3.2,0.9s2.4,0.9,3.2,0.9c0.5,0,0.9-0.2,1.3-0.7c0.4-0.5,0.6-1,0.6-1.7L379.7,4.9z"/>
			<path fill="#FFFFFF" d="M385.5,25.9c0-3.4,1-6.3,2.9-8.5s4.6-3.3,8-3.3c3.4,0,6.1,1.1,8,3.3c1.9,2.2,2.9,5,2.9,8.5v0.4
				c0,3.5-1,6.3-2.9,8.5c-1.9,2.2-4.6,3.3-8,3.3c-3.4,0-6.1-1.1-8-3.3c-1.9-2.2-2.9-5-2.9-8.5V25.9z M391.7,26.4
				c0,2.1,0.4,3.8,1.1,5.1s1.9,1.9,3.6,1.9c1.6,0,2.8-0.6,3.5-1.9c0.7-1.3,1.1-3,1.1-5.1v-0.4c0-2.1-0.4-3.7-1.1-5S398,19,396.4,19
				c-1.6,0-2.8,0.7-3.5,2c-0.7,1.3-1.1,3-1.1,5V26.4z"/>
			<path fill="#FFFFFF" d="M430.4,28l0.3,1.3h0.1l4.4-14.7h6.7l-9.4,26.6c-0.7,1.7-1.5,3-2.7,4.2c-1.1,1.1-2.8,1.7-5.1,1.7
				c-0.5,0-1,0-1.5-0.1c-0.4-0.1-1-0.2-1.6-0.4l0.7-4.5c0.2,0,0.4,0.1,0.6,0.1c0.2,0,0.4,0,0.6,0c1,0,1.8-0.3,2.4-0.8
				c0.6-0.5,1-1.1,1.3-1.9l0.7-1.8l-8.2-23.1h6.7L430.4,28z"/>
			<path fill="#FFFFFF" d="M1.4,72.6c0-3.4,1-6.3,2.9-8.5s4.6-3.3,8-3.3c3.4,0,6.1,1.1,8,3.3c1.9,2.2,2.9,5,2.9,8.5v0.4
				c0,3.5-1,6.3-2.9,8.5c-1.9,2.2-4.6,3.3-8,3.3c-3.4,0-6.1-1.1-8-3.3c-1.9-2.2-2.9-5-2.9-8.5V72.6z M7.6,73.1
				c0,2.1,0.4,3.8,1.1,5.1s1.9,1.9,3.6,1.9c1.6,0,2.8-0.6,3.5-1.9c0.7-1.3,1.1-3,1.1-5.1v-0.4c0-2.1-0.4-3.7-1.1-5s-1.9-1.9-3.6-1.9
				c-1.6,0-2.8,0.7-3.5,2c-0.7,1.3-1.1,3-1.1,5V73.1z"/>
			<path fill="#FFFFFF" d="M47.9,73.5c0,3.4-0.8,6.2-2.4,8.2s-3.8,3.1-6.6,3.1c-1.2,0-2.3-0.2-3.2-0.7c-0.9-0.4-1.7-1.1-2.4-2v11.1
				h-6.2v-32h5.6l0.4,2.7c0.7-1,1.5-1.8,2.5-2.3c1-0.5,2.1-0.8,3.4-0.8c2.9,0,5.1,1.1,6.7,3.4s2.4,5.2,2.4,8.8V73.5z M41.7,73.1
				c0-2.2-0.4-3.9-1.1-5.3c-0.7-1.4-1.8-2-3.3-2c-0.9,0-1.7,0.2-2.4,0.6c-0.7,0.4-1.2,0.9-1.6,1.6v10.1c0.4,0.7,0.9,1.2,1.6,1.5
				s1.5,0.5,2.4,0.5c1.5,0,2.6-0.6,3.3-1.8c0.7-1.2,1.1-2.8,1.1-4.8V73.1z"/>
			<path fill="#FFFFFF" d="M59.3,55.6v5.7h3.9v4.4h-3.9v11.8c0,0.9,0.2,1.5,0.6,1.9c0.4,0.4,0.9,0.6,1.5,0.6c0.3,0,0.6,0,0.9-0.1
				c0.2,0,0.5-0.1,0.8-0.2l0.5,4.5c-0.6,0.2-1.2,0.4-1.8,0.5c-0.6,0.1-1.2,0.2-1.9,0.2c-2.2,0-3.8-0.6-5-1.8S53,80,53,77.5V65.7
				h-3.4v-4.4H53v-5.7H59.3z"/>
			<path fill="#FFFFFF" d="M73.6,55.8h-6.2v-4.7h6.2V55.8z M73.6,84.4h-6.2V61.3h6.2V84.4z"/>
			<path fill="#FFFFFF" d="M84.5,61.3l0.3,3.1c0.7-1.1,1.7-2,2.8-2.6c1.1-0.6,2.4-0.9,3.9-0.9c1.5,0,2.7,0.3,3.8,1
				c1.1,0.7,1.9,1.6,2.4,3c0.7-1.2,1.6-2.2,2.8-2.9c1.1-0.7,2.5-1,4-1c2.3,0,4.1,0.8,5.4,2.4c1.3,1.6,2,4.1,2,7.4v13.7h-6.2V70.7
				c0-1.9-0.3-3.1-0.9-3.9c-0.6-0.7-1.4-1.1-2.5-1.1c-0.9,0-1.6,0.2-2.3,0.6c-0.6,0.4-1.2,0.9-1.5,1.6c0,0.3,0,0.5,0,0.7
				c0,0.2,0,0.4,0,0.6v15.2h-6.2V70.7c0-1.8-0.3-3.1-0.9-3.8s-1.4-1.1-2.6-1.1c-0.8,0-1.6,0.2-2.2,0.5c-0.6,0.3-1.2,0.8-1.6,1.4
				v16.9h-6.2V61.3H84.5z"/>
			<path fill="#FFFFFF" d="M123.1,55.8h-6.2v-4.7h6.2V55.8z M123.1,84.4h-6.2V61.3h6.2V84.4z"/>
			<path fill="#FFFFFF" d="M135.2,79.6h11.4v4.8h-19.2v-3.7l11-14.6h-10.7v-4.8h18.5v3.6L135.2,79.6z"/>
			<path fill="#FFFFFF" d="M164.2,84.4c-0.2-0.5-0.4-1.1-0.6-1.7c-0.2-0.6-0.3-1.2-0.4-1.8c-0.6,1.1-1.5,2.1-2.5,2.8
				s-2.3,1.1-3.8,1.1c-2.4,0-4.3-0.6-5.6-1.9c-1.3-1.2-2-2.9-2-5.1c0-2.3,0.9-4,2.6-5.3c1.7-1.2,4.3-1.9,7.6-1.9h3.5v-1.8
				c0-1.1-0.3-2-0.9-2.6s-1.5-0.9-2.6-0.9c-1,0-1.8,0.2-2.3,0.7c-0.5,0.5-0.8,1.2-0.8,2h-6l0-0.1c-0.1-2,0.8-3.6,2.6-5.1
				c1.8-1.4,4.2-2.1,7.1-2.1c2.8,0,5,0.7,6.7,2.1s2.6,3.4,2.6,6v9.5c0,1.1,0.1,2.1,0.2,3.1s0.4,1.9,0.8,2.8H164.2z M158.5,80.3
				c1.1,0,2.1-0.3,2.9-0.8c0.9-0.5,1.4-1.2,1.8-1.9v-3.3h-3.5c-1.3,0-2.3,0.3-3,1c-0.7,0.7-1,1.5-1,2.4c0,0.8,0.3,1.4,0.8,1.9
				C156.9,80,157.6,80.3,158.5,80.3z"/>
			<path fill="#FFFFFF" d="M179.9,61.3l0.3,3.1c0.7-1.1,1.7-2,2.8-2.6s2.4-0.9,3.9-0.9c1.5,0,2.7,0.3,3.8,1c1.1,0.7,1.9,1.6,2.4,3
				c0.7-1.2,1.6-2.2,2.8-2.9c1.1-0.7,2.5-1,4-1c2.3,0,4.1,0.8,5.4,2.4c1.3,1.6,2,4.1,2,7.4v13.7h-6.2V70.7c0-1.9-0.3-3.1-0.9-3.9
				c-0.6-0.7-1.4-1.1-2.5-1.1c-0.9,0-1.6,0.2-2.3,0.6c-0.6,0.4-1.2,0.9-1.5,1.6c0,0.3,0,0.5,0,0.7c0,0.2,0,0.4,0,0.6v15.2h-6.2V70.7
				c0-1.8-0.3-3.1-0.9-3.8s-1.4-1.1-2.6-1.1c-0.8,0-1.6,0.2-2.2,0.5c-0.6,0.3-1.2,0.8-1.6,1.4v16.9h-6.2V61.3H179.9z"/>
			<path fill="#FFFFFF" d="M211,72.6c0-3.4,1-6.3,2.9-8.5c1.9-2.2,4.6-3.3,8-3.3c3.4,0,6.1,1.1,8,3.3s2.9,5,2.9,8.5v0.4
				c0,3.5-1,6.3-2.9,8.5c-1.9,2.2-4.6,3.3-8,3.3c-3.4,0-6.1-1.1-8-3.3c-1.9-2.2-2.9-5-2.9-8.5V72.6z M217.2,73.1
				c0,2.1,0.4,3.8,1.1,5.1c0.7,1.3,1.9,1.9,3.6,1.9c1.6,0,2.8-0.6,3.5-1.9s1.1-3,1.1-5.1v-0.4c0-2.1-0.4-3.7-1.1-5s-1.9-1.9-3.6-1.9
				c-1.6,0-2.8,0.7-3.5,2c-0.7,1.3-1.1,3-1.1,5V73.1z"/>
			<path fill="#FFFFFF" d="M249.1,78c0-0.7-0.3-1.3-1-1.8c-0.7-0.5-1.9-0.9-3.7-1.3c-2.7-0.5-4.8-1.4-6.2-2.5
				c-1.4-1.1-2.1-2.6-2.1-4.5c0-2,0.8-3.7,2.5-5.1c1.7-1.4,3.9-2.1,6.7-2.1c2.9,0,5.3,0.7,7,2.1s2.6,3.1,2.5,5.2l0,0.1h-6
				c0-0.9-0.3-1.7-0.9-2.3c-0.6-0.6-1.5-0.9-2.6-0.9c-1,0-1.8,0.2-2.4,0.7c-0.6,0.5-0.9,1.1-0.9,1.8c0,0.7,0.3,1.3,0.9,1.7
				c0.6,0.4,1.8,0.9,3.7,1.2c2.8,0.6,4.9,1.4,6.3,2.5s2.1,2.6,2.1,4.6c0,2.1-0.9,3.8-2.7,5.1c-1.8,1.3-4.1,2-7,2
				c-3.1,0-5.5-0.8-7.3-2.3c-1.8-1.6-2.6-3.3-2.6-5.3l0-0.1h5.7c0,1.2,0.4,2.1,1.2,2.7c0.8,0.6,1.8,0.8,3,0.8c1.2,0,2-0.2,2.6-0.7
				C248.8,79.4,249.1,78.8,249.1,78z"/>
			<path fill="#FFFFFF" d="M276.6,84.4h-6.2V51.1h6.2V84.4z"/>
			<path fill="#FFFFFF" d="M295.4,84.4c-0.2-0.5-0.4-1.1-0.6-1.7c-0.2-0.6-0.3-1.2-0.4-1.8c-0.6,1.1-1.5,2.1-2.5,2.8
				s-2.3,1.1-3.8,1.1c-2.4,0-4.3-0.6-5.6-1.9c-1.3-1.2-2-2.9-2-5.1c0-2.3,0.9-4,2.6-5.3c1.7-1.2,4.3-1.9,7.6-1.9h3.5v-1.8
				c0-1.1-0.3-2-0.9-2.6s-1.5-0.9-2.6-0.9c-1,0-1.8,0.2-2.3,0.7c-0.5,0.5-0.8,1.2-0.8,2h-6l0-0.1c-0.1-2,0.8-3.6,2.6-5.1
				c1.8-1.4,4.2-2.1,7.1-2.1c2.8,0,5,0.7,6.7,2.1s2.6,3.4,2.6,6v9.5c0,1.1,0.1,2.1,0.2,3.1s0.4,1.9,0.8,2.8H295.4z M289.7,80.3
				c1.1,0,2.1-0.3,2.9-0.8c0.9-0.5,1.4-1.2,1.8-1.9v-3.3h-3.5c-1.3,0-2.3,0.3-3,1c-0.7,0.7-1,1.5-1,2.4c0,0.8,0.3,1.4,0.8,1.9
				C288.1,80,288.8,80.3,289.7,80.3z"/>
			<path fill="#FFFFFF" d="M317.7,78c0-0.7-0.3-1.3-1-1.8c-0.7-0.5-1.9-0.9-3.7-1.3c-2.7-0.5-4.8-1.4-6.2-2.5
				c-1.4-1.1-2.1-2.6-2.1-4.5c0-2,0.8-3.7,2.5-5.1c1.7-1.4,3.9-2.1,6.7-2.1c2.9,0,5.3,0.7,7,2.1s2.6,3.1,2.5,5.2l0,0.1h-6
				c0-0.9-0.3-1.7-0.9-2.3c-0.6-0.6-1.5-0.9-2.6-0.9c-1,0-1.8,0.2-2.4,0.7c-0.6,0.5-0.9,1.1-0.9,1.8c0,0.7,0.3,1.3,0.9,1.7
				c0.6,0.4,1.8,0.9,3.7,1.2c2.8,0.6,4.9,1.4,6.3,2.5s2.1,2.6,2.1,4.6c0,2.1-0.9,3.8-2.7,5.1c-1.8,1.3-4.1,2-7,2
				c-3.1,0-5.5-0.8-7.3-2.3c-1.8-1.6-2.6-3.3-2.6-5.3l0-0.1h5.7c0,1.2,0.4,2.1,1.2,2.7c0.8,0.6,1.8,0.8,3,0.8c1.2,0,2-0.2,2.6-0.7
				C317.4,79.4,317.7,78.8,317.7,78z"/>
			<path fill="#FFFFFF" d="M340.3,84.4V65.7h-3.4v-4.4h3.4v-2.6c0-2.6,0.7-4.6,2.2-6s3.6-2.1,6.3-2.1c0.5,0,1.1,0,1.6,0.1
				c0.5,0.1,1.1,0.2,1.8,0.3l-0.5,4.6c-0.3-0.1-0.7-0.1-1-0.1c-0.3,0-0.7-0.1-1.1-0.1c-1,0-1.8,0.3-2.3,0.8
				c-0.5,0.6-0.8,1.4-0.8,2.4v2.6h4.4v4.4h-4.4v18.7H340.3z"/>
			<path fill="#FFFFFF" d="M368.1,81c-0.7,1.2-1.6,2.2-2.7,2.9c-1.1,0.7-2.4,1-3.8,1c-2.4,0-4.3-0.8-5.7-2.5
				c-1.4-1.7-2.1-4.2-2.1-7.7V61.3h6.2v13.4c0,2,0.3,3.4,0.8,4.2s1.4,1.1,2.6,1.1c1,0,1.9-0.2,2.6-0.5s1.3-0.8,1.8-1.4V61.3h6.2
				v23.1h-5.2L368.1,81z"/>
			<path fill="#FFFFFF" d="M384.3,61.3l0.3,3.3c0.8-1.2,1.7-2.1,2.8-2.8c1.1-0.7,2.4-1,3.8-1c2.3,0,4.2,0.8,5.5,2.3
				c1.3,1.5,2,3.9,2,7.1v14.2h-6.3V70.3c0-1.7-0.3-2.8-0.9-3.5c-0.6-0.7-1.4-1-2.6-1c-0.9,0-1.7,0.2-2.4,0.5
				c-0.7,0.3-1.3,0.8-1.7,1.4v16.7h-6.2V61.3H384.3z"/>
			<path fill="#FFFFFF" d="M413,80.1c1.1,0,1.9-0.3,2.6-1c0.6-0.6,1-1.5,1-2.6h5.7l0,0.1c0.1,2.3-0.8,4.3-2.6,5.9s-4,2.4-6.7,2.4
				c-3.4,0-6.1-1.1-7.9-3.3c-1.9-2.2-2.8-5-2.8-8.4v-0.6c0-3.4,0.9-6.2,2.8-8.4s4.5-3.3,7.9-3.3c2.8,0,5.1,0.8,6.8,2.4
				c1.7,1.6,2.6,3.8,2.5,6.4l0,0.1h-5.7c0-1.2-0.3-2.2-1-3c-0.6-0.8-1.5-1.2-2.6-1.2c-1.6,0-2.8,0.6-3.4,1.9c-0.7,1.3-1,2.9-1,4.9
				v0.6c0,2.1,0.3,3.7,1,5S411.4,80.1,413,80.1z"/>
			<path fill="#FFFFFF" d="M432.5,55.8h-6.2v-4.7h6.2V55.8z M432.5,84.4h-6.2V61.3h6.2V84.4z"/>
			<path fill="#FFFFFF" d="M436.6,72.6c0-3.4,1-6.3,2.9-8.5c1.9-2.2,4.6-3.3,8-3.3c3.4,0,6.1,1.1,8,3.3c1.9,2.2,2.9,5,2.9,8.5v0.4
				c0,3.5-1,6.3-2.9,8.5c-1.9,2.2-4.6,3.3-8,3.3c-3.4,0-6.1-1.1-8-3.3c-1.9-2.2-2.9-5-2.9-8.5V72.6z M442.8,73.1
				c0,2.1,0.4,3.8,1.1,5.1c0.7,1.3,1.9,1.9,3.6,1.9c1.6,0,2.8-0.6,3.5-1.9c0.7-1.3,1.1-3,1.1-5.1v-0.4c0-2.1-0.4-3.7-1.1-5
				s-1.9-1.9-3.6-1.9c-1.6,0-2.8,0.7-3.5,2c-0.7,1.3-1.1,3-1.1,5V73.1z"/>
			<path fill="#FFFFFF" d="M468,61.3l0.3,3.3c0.8-1.2,1.7-2.1,2.8-2.8c1.1-0.7,2.4-1,3.8-1c2.3,0,4.2,0.8,5.5,2.3
				c1.3,1.5,2,3.9,2,7.1v14.2h-6.3V70.3c0-1.7-0.3-2.8-0.9-3.5c-0.6-0.7-1.4-1-2.6-1c-0.9,0-1.7,0.2-2.4,0.5
				c-0.7,0.3-1.3,0.8-1.7,1.4v16.7h-6.2V61.3H468z"/>
			<path fill="#FFFFFF" d="M497,84.9c-3.4,0-6.1-1.1-8.1-3.2c-1.9-2.1-2.9-4.8-2.9-8.2v-0.9c0-3.5,0.9-6.3,2.8-8.5
				c1.9-2.2,4.5-3.3,7.8-3.3c3.1,0,5.5,1,7.1,2.9c1.7,1.9,2.5,4.5,2.5,7.7v3.2h-13.8l-0.1,0.1c0.1,1.6,0.6,2.9,1.4,3.8
				c0.9,1,2.1,1.5,3.8,1.5c1.4,0,2.6-0.1,3.6-0.4c1-0.3,2-0.7,3-1.3l1.7,3.8c-0.9,0.8-2.2,1.4-3.8,1.9S498.8,84.9,497,84.9z
				 M496.6,65.7c-1.3,0-2.2,0.4-2.9,1.3c-0.7,0.9-1.1,2-1.2,3.4l0,0.1h7.6V70c0-1.4-0.3-2.4-0.8-3.2
				C498.7,66.1,497.8,65.7,496.6,65.7z"/>
			<path fill="#FFFFFF" d="M522.3,78c0-0.7-0.3-1.3-1-1.8c-0.7-0.5-1.9-0.9-3.7-1.3c-2.7-0.5-4.8-1.4-6.2-2.5
				c-1.4-1.1-2.1-2.6-2.1-4.5c0-2,0.8-3.7,2.5-5.1c1.7-1.4,3.9-2.1,6.7-2.1c2.9,0,5.3,0.7,7,2.1c1.8,1.4,2.6,3.1,2.5,5.2l0,0.1h-6
				c0-0.9-0.3-1.7-0.9-2.3c-0.6-0.6-1.5-0.9-2.6-0.9c-1,0-1.8,0.2-2.4,0.7s-0.9,1.1-0.9,1.8c0,0.7,0.3,1.3,0.9,1.7
				c0.6,0.4,1.8,0.9,3.7,1.2c2.8,0.6,4.9,1.4,6.3,2.5c1.4,1.1,2.1,2.6,2.1,4.6c0,2.1-0.9,3.8-2.7,5.1c-1.8,1.3-4.1,2-7,2
				c-3.1,0-5.5-0.8-7.3-2.3c-1.8-1.6-2.6-3.3-2.6-5.3l0-0.1h5.7c0,1.2,0.4,2.1,1.2,2.7c0.8,0.6,1.8,0.8,3,0.8c1.2,0,2-0.2,2.6-0.7
				C522,79.4,522.3,78.8,522.3,78z"/>
			<path fill="#FFFFFF" d="M22.7,120.5c0,3.3-0.8,6-2.4,8.1c-1.6,2-3.8,3.1-6.6,3.1c-1.4,0-2.7-0.2-3.7-0.7c-1.1-0.5-2-1.2-2.7-2.1
				V140H3.1v-32h3.2l0.7,3c0.8-1.1,1.7-2,2.8-2.5c1.1-0.6,2.4-0.9,3.9-0.9c2.9,0,5.1,1.1,6.7,3.4c1.6,2.3,2.4,5.3,2.4,9V120.5z
				 M18.5,120c0-2.6-0.5-4.8-1.5-6.5c-1-1.7-2.6-2.5-4.6-2.5c-1.2,0-2.2,0.3-3.1,0.8c-0.9,0.5-1.5,1.3-2.1,2.3v11.2
				c0.5,1,1.2,1.7,2.1,2.2s1.9,0.8,3.1,0.8c2,0,3.5-0.7,4.5-2.2c1-1.5,1.5-3.3,1.5-5.7V120z"/>
			<path fill="#FFFFFF" d="M42.1,131.1c-0.1-0.7-0.3-1.3-0.3-1.8c-0.1-0.5-0.1-1.1-0.1-1.6c-0.8,1.1-1.8,2-3.1,2.8
				c-1.3,0.7-2.6,1.1-4.1,1.1c-2.4,0-4.2-0.6-5.5-1.8s-1.9-2.9-1.9-5.1c0-2.2,0.9-3.9,2.7-5.2c1.8-1.2,4.2-1.9,7.3-1.9h4.6v-2.3
				c0-1.4-0.4-2.4-1.2-3.2c-0.8-0.8-2-1.2-3.5-1.2c-1.4,0-2.5,0.3-3.3,1c-0.8,0.7-1.3,1.5-1.3,2.5l-4,0l0-0.1
				c-0.1-1.7,0.7-3.2,2.4-4.6c1.7-1.4,3.8-2.1,6.5-2.1c2.6,0,4.7,0.7,6.3,2c1.6,1.3,2.4,3.3,2.4,5.8v11.1c0,0.8,0,1.6,0.1,2.4
				s0.2,1.5,0.5,2.3H42.1z M35.1,128.1c1.5,0,2.9-0.4,4.1-1.2c1.2-0.8,2-1.7,2.4-2.7v-3.8h-4.7c-1.7,0-3.1,0.4-4.1,1.3
				c-1,0.9-1.5,1.9-1.5,3c0,1,0.3,1.8,1,2.4S33.9,128.1,35.1,128.1z"/>
			<path fill="#FFFFFF" d="M62.9,111.8l-2.2-0.1c-1.1,0-2,0.3-2.8,0.8s-1.3,1.3-1.8,2.2v16.5H52V108h3.8l0.4,3.4
				c0.7-1.2,1.5-2.1,2.4-2.8c1-0.7,2.1-1,3.3-1c0.3,0,0.6,0,0.9,0.1c0.3,0,0.5,0.1,0.7,0.2L62.9,111.8z"/>
			<path fill="#FFFFFF" d="M81.5,131.1c-0.1-0.7-0.3-1.3-0.3-1.8c-0.1-0.5-0.1-1.1-0.1-1.6c-0.8,1.1-1.8,2-3.1,2.8
				c-1.3,0.7-2.6,1.1-4.1,1.1c-2.4,0-4.2-0.6-5.5-1.8s-1.9-2.9-1.9-5.1c0-2.2,0.9-3.9,2.7-5.2c1.8-1.2,4.2-1.9,7.3-1.9H81v-2.3
				c0-1.4-0.4-2.4-1.2-3.2c-0.8-0.8-2-1.2-3.5-1.2c-1.4,0-2.5,0.3-3.3,1c-0.8,0.7-1.3,1.5-1.3,2.5l-4,0l0-0.1
				c-0.1-1.7,0.7-3.2,2.4-4.6c1.7-1.4,3.8-2.1,6.5-2.1c2.6,0,4.7,0.7,6.3,2c1.6,1.3,2.4,3.3,2.4,5.8v11.1c0,0.8,0,1.6,0.1,2.4
				s0.2,1.5,0.5,2.3H81.5z M74.5,128.1c1.5,0,2.9-0.4,4.1-1.2c1.2-0.8,2-1.7,2.4-2.7v-3.8h-4.7c-1.7,0-3.1,0.4-4.1,1.3
				c-1,0.9-1.5,1.9-1.5,3c0,1,0.3,1.8,1,2.4S73.3,128.1,74.5,128.1z"/>
			<path fill="#FFFFFF" d="M104,131.1v-20h-3.6V108h3.6v-2.9c0-2.5,0.6-4.4,1.9-5.7c1.3-1.3,3.1-2,5.4-2c0.5,0,1,0,1.5,0.1
				c0.5,0.1,1,0.2,1.6,0.3l-0.5,3.2c-0.3-0.1-0.6-0.1-0.9-0.1c-0.4,0-0.7-0.1-1.1-0.1c-1.2,0-2.1,0.4-2.7,1.1
				c-0.6,0.7-0.9,1.8-0.9,3.2v2.9h4.2v3.1h-4.2v20H104z"/>
			<path fill="#FFFFFF" d="M130.8,131.1c-0.1-0.7-0.3-1.3-0.3-1.8s-0.1-1.1-0.1-1.6c-0.8,1.1-1.8,2-3.1,2.8s-2.6,1.1-4.1,1.1
				c-2.4,0-4.2-0.6-5.5-1.8c-1.3-1.2-1.9-2.9-1.9-5.1c0-2.2,0.9-3.9,2.7-5.2s4.2-1.9,7.3-1.9h4.6v-2.3c0-1.4-0.4-2.4-1.2-3.2
				c-0.8-0.8-2-1.2-3.5-1.2c-1.4,0-2.5,0.3-3.3,1s-1.3,1.5-1.3,2.5l-4,0l0-0.1c-0.1-1.7,0.7-3.2,2.4-4.6c1.7-1.4,3.8-2.1,6.5-2.1
				c2.6,0,4.7,0.7,6.3,2s2.4,3.3,2.4,5.8v11.1c0,0.8,0,1.6,0.1,2.4c0.1,0.8,0.2,1.5,0.5,2.3H130.8z M123.8,128.1
				c1.5,0,2.9-0.4,4.1-1.2c1.2-0.8,2-1.7,2.4-2.7v-3.8h-4.7c-1.7,0-3.1,0.4-4.1,1.3c-1,0.9-1.5,1.9-1.5,3c0,1,0.3,1.8,1,2.4
				C121.6,127.8,122.6,128.1,123.8,128.1z"/>
			<path fill="#FFFFFF" d="M149.8,128.3c1.3,0,2.4-0.4,3.4-1.3c1-0.9,1.5-1.9,1.5-3.2h3.8l0.1,0.1c0.1,2-0.8,3.8-2.6,5.3
				c-1.8,1.5-3.8,2.3-6.2,2.3c-3.2,0-5.8-1.1-7.5-3.3c-1.8-2.2-2.6-5-2.6-8.2v-0.9c0-3.3,0.9-6,2.7-8.2c1.8-2.2,4.3-3.3,7.5-3.3
				c2.6,0,4.7,0.8,6.3,2.4c1.6,1.6,2.4,3.6,2.4,5.9l0,0.1h-3.8c0-1.4-0.5-2.6-1.4-3.6c-0.9-1-2.1-1.5-3.5-1.5
				c-2.1,0-3.6,0.8-4.5,2.4s-1.4,3.5-1.4,5.8v0.9c0,2.3,0.5,4.3,1.4,5.9C146.2,127.5,147.8,128.3,149.8,128.3z"/>
			<path fill="#FFFFFF" d="M168.1,102.1h-4.2v-4.3h4.2V102.1z M168.1,131.1h-4.2V108h4.2V131.1z"/>
			<path fill="#FFFFFF" d="M179.1,131.1h-4.2V97.8h4.2V131.1z"/>
			<path fill="#FFFFFF" d="M190.2,102.1h-4.2v-4.3h4.2V102.1z M190.2,131.1h-4.2V108h4.2V131.1z"/>
			<path fill="#FFFFFF" d="M202.5,102.5v5.6h4.4v3.1h-4.4v14c0,1.1,0.2,1.8,0.7,2.3c0.4,0.4,1,0.7,1.8,0.7c0.2,0,0.5,0,0.8-0.1
				s0.5-0.1,0.7-0.2l0.6,2.9c-0.3,0.3-0.8,0.5-1.4,0.6c-0.6,0.2-1.2,0.2-1.8,0.2c-1.7,0-3.1-0.5-4.1-1.5c-1-1-1.5-2.7-1.5-4.9v-14
				h-3.7V108h3.7v-5.6H202.5z"/>
			<path fill="#FFFFFF" d="M225.6,131.1c-0.1-0.7-0.3-1.3-0.3-1.8c-0.1-0.5-0.1-1.1-0.1-1.6c-0.8,1.1-1.8,2-3.1,2.8
				s-2.6,1.1-4.1,1.1c-2.4,0-4.2-0.6-5.5-1.8c-1.3-1.2-1.9-2.9-1.9-5.1c0-2.2,0.9-3.9,2.7-5.2c1.8-1.2,4.2-1.9,7.3-1.9h4.6v-2.3
				c0-1.4-0.4-2.4-1.2-3.2c-0.8-0.8-2-1.2-3.5-1.2c-1.4,0-2.5,0.3-3.3,1c-0.8,0.7-1.3,1.5-1.3,2.5l-4,0l0-0.1
				c-0.1-1.7,0.7-3.2,2.4-4.6s3.8-2.1,6.5-2.1c2.6,0,4.7,0.7,6.3,2c1.6,1.3,2.4,3.3,2.4,5.8v11.1c0,0.8,0,1.6,0.1,2.4
				c0.1,0.8,0.2,1.5,0.5,2.3H225.6z M218.6,128.1c1.5,0,2.9-0.4,4.1-1.2c1.2-0.8,2-1.7,2.4-2.7v-3.8h-4.7c-1.7,0-3.1,0.4-4.1,1.3
				c-1,0.9-1.5,1.9-1.5,3c0,1,0.3,1.8,1,2.4C216.4,127.8,217.3,128.1,218.6,128.1z"/>
			<path fill="#FFFFFF" d="M246.4,111.8l-2.2-0.1c-1.1,0-2,0.3-2.8,0.8s-1.3,1.3-1.8,2.2v16.5h-4.2V108h3.8l0.4,3.4
				c0.7-1.2,1.5-2.1,2.4-2.8s2.1-1,3.3-1c0.3,0,0.6,0,0.9,0.1c0.3,0,0.5,0.1,0.7,0.2L246.4,111.8z"/>
			<path fill="#FFFFFF" d="M268.7,122.6l0.7,2.9h0.1l5.7-17.5h4.7l-9.7,26.7c-0.6,1.6-1.4,2.9-2.5,4.1s-2.6,1.7-4.4,1.7
				c-0.3,0-0.8,0-1.3-0.1c-0.5-0.1-0.9-0.2-1.2-0.2l0.4-3.3c-0.1,0,0.2,0,0.8,0c0.6,0,1,0.1,1.1,0.1c0.9,0,1.6-0.4,2.2-1.2
				c0.6-0.8,1-1.7,1.4-2.6l1-2.4l-8.6-22.6h4.7L268.7,122.6z"/>
			<path fill="#FFFFFF" d="M308.7,131.1c-0.1-0.7-0.3-1.3-0.3-1.8c-0.1-0.5-0.1-1.1-0.1-1.6c-0.8,1.1-1.8,2-3.1,2.8
				c-1.3,0.7-2.6,1.1-4.1,1.1c-2.4,0-4.2-0.6-5.5-1.8s-1.9-2.9-1.9-5.1c0-2.2,0.9-3.9,2.7-5.2c1.8-1.2,4.2-1.9,7.3-1.9h4.6v-2.3
				c0-1.4-0.4-2.4-1.2-3.2c-0.8-0.8-2-1.2-3.5-1.2c-1.4,0-2.5,0.3-3.3,1c-0.8,0.7-1.3,1.5-1.3,2.5l-4,0l0-0.1
				c-0.1-1.7,0.7-3.2,2.4-4.6c1.7-1.4,3.8-2.1,6.5-2.1c2.6,0,4.7,0.7,6.3,2c1.6,1.3,2.4,3.3,2.4,5.8v11.1c0,0.8,0,1.6,0.1,2.4
				s0.2,1.5,0.5,2.3H308.7z M301.7,128.1c1.5,0,2.9-0.4,4.1-1.2c1.2-0.8,2-1.7,2.4-2.7v-3.8h-4.7c-1.7,0-3.1,0.4-4.1,1.3
				c-1,0.9-1.5,1.9-1.5,3c0,1,0.3,1.8,1,2.4S300.4,128.1,301.7,128.1z"/>
			<path fill="#FFFFFF" d="M317.8,120c0-3.7,0.8-6.7,2.4-9c1.6-2.3,3.8-3.4,6.7-3.4c1.5,0,2.8,0.3,3.9,0.9c1.1,0.6,2,1.4,2.8,2.6
				l0.5-3h3.4v23.2c0,3-0.9,5.2-2.6,6.8c-1.7,1.6-4.2,2.4-7.5,2.4c-1.1,0-2.3-0.2-3.6-0.5s-2.4-0.7-3.4-1.2l0.6-3.3
				c0.8,0.4,1.8,0.8,2.9,1s2.3,0.4,3.4,0.4c2.1,0,3.5-0.5,4.5-1.4c0.9-0.9,1.4-2.4,1.4-4.3v-2.6c-0.8,1-1.7,1.7-2.7,2.2
				c-1.1,0.5-2.3,0.7-3.7,0.7c-2.8,0-5-1-6.6-3.1s-2.4-4.7-2.4-8.1V120z M322,120.5c0,2.3,0.5,4.2,1.4,5.6c1,1.4,2.4,2.1,4.4,2.1
				c1.3,0,2.3-0.3,3.2-0.9c0.9-0.6,1.6-1.4,2.1-2.4v-10.6c-0.5-1-1.2-1.8-2.1-2.3c-0.9-0.6-1.9-0.9-3.1-0.9c-2,0-3.5,0.8-4.5,2.5
				c-1,1.7-1.4,3.8-1.4,6.5V120.5z"/>
			<path fill="#FFFFFF" d="M347.9,102.1h-4.2v-4.3h4.2V102.1z M347.9,131.1h-4.2V108h4.2V131.1z"/>
			<path fill="#FFFFFF" d="M359,131.1h-4.2V97.8h4.2V131.1z"/>
			<path fill="#FFFFFF" d="M370,102.1h-4.2v-4.3h4.2V102.1z M370,131.1h-4.2V108h4.2V131.1z"/>
			<path fill="#FFFFFF" d="M380.4,127.9h13.4v3.3h-18.4v-2.9l12.5-16.8h-12.3V108h17.5v2.9L380.4,127.9z"/>
			<path fill="#FFFFFF" d="M412.7,131.1c-0.1-0.7-0.3-1.3-0.3-1.8c-0.1-0.5-0.1-1.1-0.1-1.6c-0.8,1.1-1.8,2-3.1,2.8
				c-1.3,0.7-2.6,1.1-4.1,1.1c-2.4,0-4.2-0.6-5.5-1.8s-1.9-2.9-1.9-5.1c0-2.2,0.9-3.9,2.7-5.2c1.8-1.2,4.2-1.9,7.3-1.9h4.6v-2.3
				c0-1.4-0.4-2.4-1.2-3.2c-0.8-0.8-2-1.2-3.5-1.2c-1.4,0-2.5,0.3-3.3,1c-0.8,0.7-1.3,1.5-1.3,2.5l-4,0l0-0.1
				c-0.1-1.7,0.7-3.2,2.4-4.6c1.7-1.4,3.8-2.1,6.5-2.1c2.6,0,4.7,0.7,6.3,2c1.6,1.3,2.4,3.3,2.4,5.8v11.1c0,0.8,0,1.6,0.1,2.4
				s0.2,1.5,0.5,2.3H412.7z M405.7,128.1c1.5,0,2.9-0.4,4.1-1.2c1.2-0.8,2-1.7,2.4-2.7v-3.8h-4.7c-1.7,0-3.1,0.4-4.1,1.3
				c-1,0.9-1.5,1.9-1.5,3c0,1,0.3,1.8,1,2.4S404.4,128.1,405.7,128.1z"/>
			<path fill="#FFFFFF" d="M433.5,111.8l-2.2-0.1c-1.1,0-2,0.3-2.8,0.8s-1.3,1.3-1.8,2.2v16.5h-4.2V108h3.8l0.4,3.4
				c0.7-1.2,1.5-2.1,2.4-2.8c1-0.7,2.1-1,3.3-1c0.3,0,0.6,0,0.9,0.1c0.3,0,0.5,0.1,0.7,0.2L433.5,111.8z"/>
			<path fill="#FFFFFF" d="M7.6,177.9H3.4v-33.3h4.2V177.9z"/>
			<path fill="#FFFFFF" d="M28.3,177.9c-0.1-0.7-0.3-1.3-0.3-1.8c-0.1-0.5-0.1-1.1-0.1-1.6c-0.8,1.1-1.8,2-3.1,2.8s-2.6,1.1-4.1,1.1
				c-2.4,0-4.2-0.6-5.5-1.8c-1.3-1.2-1.9-2.9-1.9-5.1c0-2.2,0.9-3.9,2.7-5.2c1.8-1.2,4.2-1.9,7.3-1.9h4.6v-2.3
				c0-1.4-0.4-2.4-1.2-3.2c-0.8-0.8-2-1.2-3.5-1.2c-1.4,0-2.5,0.3-3.3,1c-0.8,0.7-1.3,1.5-1.3,2.5l-4,0l0-0.1
				c-0.1-1.7,0.7-3.2,2.4-4.6s3.8-2.1,6.5-2.1c2.6,0,4.7,0.7,6.3,2c1.6,1.3,2.4,3.3,2.4,5.8v11.1c0,0.8,0,1.6,0.1,2.4
				c0.1,0.8,0.2,1.5,0.5,2.3H28.3z M21.3,174.8c1.5,0,2.9-0.4,4.1-1.2c1.2-0.8,2-1.7,2.4-2.7v-3.8h-4.7c-1.7,0-3.1,0.4-4.1,1.3
				c-1,0.9-1.5,1.9-1.5,3c0,1,0.3,1.8,1,2.4C19.1,174.5,20,174.8,21.3,174.8z"/>
			<path fill="#FFFFFF" d="M48.3,166.8c0-3.7,0.8-6.7,2.4-9c1.6-2.3,3.8-3.4,6.7-3.4c1.5,0,2.8,0.3,3.9,0.9c1.1,0.6,2,1.4,2.8,2.6
				l0.5-3h3.4V178c0,3-0.9,5.2-2.6,6.8c-1.7,1.6-4.2,2.4-7.5,2.4c-1.1,0-2.3-0.2-3.6-0.5c-1.3-0.3-2.4-0.7-3.4-1.2l0.6-3.3
				c0.8,0.4,1.8,0.8,2.9,1c1.1,0.3,2.3,0.4,3.4,0.4c2.1,0,3.5-0.5,4.5-1.4s1.4-2.4,1.4-4.3v-2.6c-0.8,1-1.7,1.7-2.7,2.2
				c-1.1,0.5-2.3,0.7-3.7,0.7c-2.8,0-5-1-6.6-3.1c-1.6-2-2.4-4.7-2.4-8.1V166.8z M52.5,167.2c0,2.3,0.5,4.2,1.4,5.6s2.4,2.1,4.4,2.1
				c1.3,0,2.3-0.3,3.2-0.9c0.9-0.6,1.6-1.4,2.1-2.4V161c-0.5-1-1.2-1.8-2.1-2.3c-0.9-0.6-1.9-0.9-3.1-0.9c-2,0-3.5,0.8-4.5,2.5
				c-1,1.7-1.4,3.8-1.4,6.5V167.2z"/>
			<path fill="#FFFFFF" d="M83.4,178.3c-3.3,0-5.9-1.1-7.8-3.2c-1.9-2.1-2.8-4.9-2.8-8.4v-0.9c0-3.3,1-6.1,2.9-8.2
				c1.9-2.2,4.3-3.3,7-3.3c3.1,0,5.4,1,7,2.9c1.5,1.9,2.3,4.5,2.3,7.7v2.2H77.3l-0.1,0.1c0,2.3,0.5,4.2,1.5,5.6
				c1,1.4,2.6,2.2,4.7,2.2c1.4,0,2.7-0.2,3.7-0.6s2-1,2.8-1.7l1.6,2.7c-0.8,0.8-1.9,1.5-3.3,2C87,178.1,85.3,178.3,83.4,178.3z
				 M82.8,157.7c-1.5,0-2.7,0.6-3.6,1.7c-1,1.1-1.5,2.6-1.8,4.3l0,0.1h10.4v-0.3c0-1.7-0.4-3.1-1.2-4.2
				C85.8,158.2,84.5,157.7,82.8,157.7z"/>
			<path fill="#FFFFFF" d="M110.2,171.7c0-0.9-0.4-1.7-1.1-2.3c-0.7-0.6-2-1.1-4-1.5c-2.7-0.6-4.8-1.4-6.3-2.5s-2.2-2.5-2.2-4.2
				c0-1.9,0.8-3.5,2.4-4.8s3.7-2,6.2-2c2.6,0,4.7,0.7,6.4,2.1c1.6,1.4,2.4,3.1,2.3,5l0,0.1h-4c0-1-0.4-1.9-1.3-2.7s-2-1.2-3.3-1.2
				c-1.5,0-2.6,0.3-3.3,1c-0.7,0.7-1.1,1.5-1.1,2.4c0,0.9,0.3,1.6,1,2.1c0.6,0.5,1.9,1,3.9,1.4c2.8,0.6,5,1.4,6.5,2.5
				s2.2,2.5,2.2,4.3c0,2.1-0.8,3.7-2.5,5s-3.8,1.9-6.5,1.9c-2.9,0-5.3-0.7-7-2.2c-1.7-1.5-2.5-3.2-2.4-5.2l0-0.1h4
				c0.1,1.5,0.6,2.6,1.7,3.3c1,0.7,2.3,1,3.7,1c1.5,0,2.7-0.3,3.5-1C109.8,173.5,110.2,172.6,110.2,171.7z"/>
			<path fill="#FFFFFF" d="M125.5,149.2v5.6h4.4v3.1h-4.4v14c0,1.1,0.2,1.8,0.7,2.3c0.4,0.4,1,0.7,1.8,0.7c0.2,0,0.5,0,0.8-0.1
				c0.3-0.1,0.5-0.1,0.7-0.2l0.6,2.9c-0.3,0.3-0.8,0.5-1.4,0.6c-0.6,0.2-1.2,0.2-1.8,0.2c-1.7,0-3.1-0.5-4.1-1.5
				c-1-1-1.5-2.7-1.5-4.9v-14h-3.7v-3.1h3.7v-5.6H125.5z"/>
			<path fill="#FFFFFF" d="M138.9,148.8h-4.2v-4.3h4.2V148.8z M138.9,177.9h-4.2v-23.1h4.2V177.9z"/>
			<path fill="#FFFFFF" d="M144.4,166.1c0-3.4,0.9-6.2,2.8-8.4c1.9-2.2,4.4-3.3,7.5-3.3c3.2,0,5.7,1.1,7.6,3.3
				c1.9,2.2,2.8,5,2.8,8.5v0.5c0,3.4-0.9,6.3-2.8,8.5c-1.9,2.2-4.4,3.3-7.6,3.3s-5.7-1.1-7.6-3.3s-2.8-5-2.8-8.4V166.1z
				 M148.6,166.6c0,2.4,0.5,4.5,1.5,6.1c1,1.6,2.6,2.4,4.6,2.4c2,0,3.5-0.8,4.6-2.4c1-1.6,1.6-3.6,1.6-6.1v-0.5c0-2.4-0.5-4.4-1.6-6
				s-2.6-2.4-4.6-2.4c-2,0-3.5,0.8-4.6,2.4c-1,1.6-1.5,3.6-1.5,6V166.6z M156.8,145h4.9l0,0.1l-5.7,5.6h-3.2L156.8,145z"/>
			<path fill="#FFFFFF" d="M174,154.8l0.3,3.4c0.8-1.2,1.7-2.2,2.9-2.9c1.2-0.7,2.5-1,4-1c2.5,0,4.4,0.7,5.8,2.2
				c1.4,1.5,2.1,3.7,2.1,6.8v14.6h-4.2v-14.5c0-2-0.4-3.5-1.2-4.3s-2-1.3-3.7-1.3c-1.3,0-2.4,0.3-3.3,0.8c-0.9,0.5-1.6,1.2-2.1,2.2
				v17.2h-4.2v-23.1H174z"/>
			<path fill="#FFFFFF" d="M213.1,169.3l0.7,2.9h0.1l5.7-17.5h4.7l-9.7,26.7c-0.6,1.6-1.4,2.9-2.5,4.1s-2.6,1.7-4.4,1.7
				c-0.3,0-0.8,0-1.3-0.1c-0.5-0.1-0.9-0.2-1.2-0.2l0.4-3.3c-0.1,0,0.2,0,0.8,0c0.6,0,1,0.1,1.1,0.1c0.9,0,1.6-0.4,2.2-1.2
				c0.6-0.8,1-1.7,1.4-2.6l1-2.4l-8.6-22.6h4.7L213.1,169.3z"/>
			<path fill="#FFFFFF" d="M248.1,175c1.3,0,2.4-0.4,3.4-1.3c1-0.9,1.5-1.9,1.5-3.2h3.8l0.1,0.1c0.1,2-0.8,3.8-2.6,5.3
				c-1.8,1.5-3.8,2.3-6.2,2.3c-3.2,0-5.8-1.1-7.5-3.3c-1.8-2.2-2.6-5-2.6-8.2v-0.9c0-3.3,0.9-6,2.7-8.2c1.8-2.2,4.3-3.3,7.5-3.3
				c2.6,0,4.7,0.8,6.3,2.4c1.6,1.6,2.4,3.6,2.4,5.9l0,0.1h-3.8c0-1.4-0.5-2.6-1.4-3.6c-0.9-1-2.1-1.5-3.5-1.5
				c-2.1,0-3.6,0.8-4.5,2.4s-1.4,3.5-1.4,5.8v0.9c0,2.3,0.5,4.3,1.4,5.9C244.5,174.2,246,175,248.1,175z"/>
			<path fill="#FFFFFF" d="M260.8,166.1c0-3.4,0.9-6.2,2.8-8.4c1.9-2.2,4.4-3.3,7.5-3.3c3.2,0,5.7,1.1,7.6,3.3
				c1.9,2.2,2.8,5,2.8,8.5v0.5c0,3.4-0.9,6.3-2.8,8.5c-1.9,2.2-4.4,3.3-7.6,3.3c-3.2,0-5.7-1.1-7.6-3.3s-2.8-5-2.8-8.4V166.1z
				 M265,166.6c0,2.4,0.5,4.5,1.5,6.1c1,1.6,2.6,2.4,4.6,2.4c2,0,3.5-0.8,4.6-2.4c1-1.6,1.6-3.6,1.6-6.1v-0.5c0-2.4-0.5-4.4-1.6-6
				s-2.6-2.4-4.6-2.4c-2,0-3.5,0.8-4.6,2.4s-1.5,3.6-1.5,6V166.6z"/>
			<path fill="#FFFFFF" d="M291.2,177.9H287v-33.3h4.2V177.9z"/>
			<path fill="#FFFFFF" d="M311.9,177.9c-0.1-0.7-0.3-1.3-0.3-1.8s-0.1-1.1-0.1-1.6c-0.8,1.1-1.8,2-3.1,2.8s-2.6,1.1-4.1,1.1
				c-2.4,0-4.2-0.6-5.5-1.8c-1.3-1.2-1.9-2.9-1.9-5.1c0-2.2,0.9-3.9,2.7-5.2s4.2-1.9,7.3-1.9h4.6v-2.3c0-1.4-0.4-2.4-1.2-3.2
				c-0.8-0.8-2-1.2-3.5-1.2c-1.4,0-2.5,0.3-3.3,1s-1.3,1.5-1.3,2.5l-4,0l0-0.1c-0.1-1.7,0.7-3.2,2.4-4.6c1.7-1.4,3.8-2.1,6.5-2.1
				c2.6,0,4.7,0.7,6.3,2s2.4,3.3,2.4,5.8v11.1c0,0.8,0,1.6,0.1,2.4c0.1,0.8,0.2,1.5,0.5,2.3H311.9z M304.9,174.8
				c1.5,0,2.9-0.4,4.1-1.2c1.2-0.8,2-1.7,2.4-2.7v-3.8h-4.7c-1.7,0-3.1,0.4-4.1,1.3c-1,0.9-1.5,1.9-1.5,3c0,1,0.3,1.8,1,2.4
				C302.7,174.5,303.6,174.8,304.9,174.8z"/>
			<path fill="#FFFFFF" d="M341.5,167.2c0,3.3-0.8,6-2.4,8.1s-3.8,3.1-6.6,3.1c-1.5,0-2.9-0.3-4-0.9c-1.1-0.6-2.1-1.5-2.8-2.7
				l-0.7,3.1h-3.2v-33.3h4.2v12.9c0.7-1,1.6-1.8,2.7-2.3c1.1-0.5,2.3-0.8,3.8-0.8c2.8,0,5.1,1.1,6.7,3.4c1.6,2.3,2.4,5.3,2.4,9
				V167.2z M337.2,166.8c0-2.6-0.5-4.8-1.5-6.5c-1-1.7-2.5-2.5-4.5-2.5c-1.3,0-2.4,0.3-3.3,1s-1.6,1.5-2.1,2.6v10
				c0.5,1.1,1.3,2,2.1,2.7c0.9,0.6,2,1,3.3,1c2,0,3.5-0.7,4.4-2.1c1-1.4,1.5-3.3,1.5-5.6V166.8z"/>
			<path fill="#FFFFFF" d="M345.6,166.1c0-3.4,0.9-6.2,2.8-8.4c1.9-2.2,4.4-3.3,7.5-3.3c3.2,0,5.7,1.1,7.6,3.3
				c1.9,2.2,2.8,5,2.8,8.5v0.5c0,3.4-0.9,6.3-2.8,8.5c-1.9,2.2-4.4,3.3-7.6,3.3s-5.7-1.1-7.6-3.3s-2.8-5-2.8-8.4V166.1z
				 M349.8,166.6c0,2.4,0.5,4.5,1.5,6.1c1,1.6,2.6,2.4,4.6,2.4c2,0,3.5-0.8,4.6-2.4c1-1.6,1.6-3.6,1.6-6.1v-0.5c0-2.4-0.5-4.4-1.6-6
				s-2.6-2.4-4.6-2.4c-2,0-3.5,0.8-4.6,2.4c-1,1.6-1.5,3.6-1.5,6V166.6z"/>
			<path fill="#FFFFFF" d="M382.4,158.5l-2.2-0.1c-1.1,0-2,0.3-2.8,0.8c-0.8,0.5-1.3,1.3-1.8,2.2v16.5h-4.2v-23.1h3.8l0.4,3.4
				c0.7-1.2,1.5-2.1,2.4-2.8s2.1-1,3.3-1c0.3,0,0.6,0,0.9,0.1c0.3,0,0.5,0.1,0.7,0.2L382.4,158.5z"/>
			<path fill="#FFFFFF" d="M401,177.9c-0.1-0.7-0.3-1.3-0.3-1.8s-0.1-1.1-0.1-1.6c-0.8,1.1-1.8,2-3.1,2.8s-2.6,1.1-4.1,1.1
				c-2.4,0-4.2-0.6-5.5-1.8c-1.3-1.2-1.9-2.9-1.9-5.1c0-2.2,0.9-3.9,2.7-5.2s4.2-1.9,7.3-1.9h4.6v-2.3c0-1.4-0.4-2.4-1.2-3.2
				c-0.8-0.8-2-1.2-3.5-1.2c-1.4,0-2.5,0.3-3.3,1s-1.3,1.5-1.3,2.5l-4,0l0-0.1c-0.1-1.7,0.7-3.2,2.4-4.6c1.7-1.4,3.8-2.1,6.5-2.1
				c2.6,0,4.7,0.7,6.3,2s2.4,3.3,2.4,5.8v11.1c0,0.8,0,1.6,0.1,2.4c0.1,0.8,0.2,1.5,0.5,2.3H401z M394,174.8c1.5,0,2.9-0.4,4.1-1.2
				c1.2-0.8,2-1.7,2.4-2.7v-3.8h-4.7c-1.7,0-3.1,0.4-4.1,1.3c-1,0.9-1.5,1.9-1.5,3c0,1,0.3,1.8,1,2.4
				C391.8,174.5,392.7,174.8,394,174.8z"/>
			<path fill="#FFFFFF" d="M420,175c1.3,0,2.4-0.4,3.4-1.3c1-0.9,1.5-1.9,1.5-3.2h3.8l0.1,0.1c0.1,2-0.8,3.8-2.6,5.3
				c-1.8,1.5-3.8,2.3-6.2,2.3c-3.2,0-5.8-1.1-7.5-3.3c-1.8-2.2-2.6-5-2.6-8.2v-0.9c0-3.3,0.9-6,2.7-8.2c1.8-2.2,4.3-3.3,7.5-3.3
				c2.6,0,4.7,0.8,6.3,2.4c1.6,1.6,2.4,3.6,2.4,5.9l0,0.1h-3.8c0-1.4-0.5-2.6-1.4-3.6c-0.9-1-2.1-1.5-3.5-1.5
				c-2.1,0-3.6,0.8-4.5,2.4s-1.4,3.5-1.4,5.8v0.9c0,2.3,0.5,4.3,1.4,5.9C416.4,174.2,417.9,175,420,175z"/>
			<path fill="#FFFFFF" d="M438.3,148.8h-4.2v-4.3h4.2V148.8z M438.3,177.9h-4.2v-23.1h4.2V177.9z"/>
			<path fill="#FFFFFF" d="M443.8,166.1c0-3.4,0.9-6.2,2.8-8.4c1.9-2.2,4.4-3.3,7.5-3.3c3.2,0,5.7,1.1,7.6,3.3
				c1.9,2.2,2.8,5,2.8,8.5v0.5c0,3.4-0.9,6.3-2.8,8.5c-1.9,2.2-4.4,3.3-7.6,3.3c-3.2,0-5.7-1.1-7.6-3.3s-2.8-5-2.8-8.4V166.1z
				 M448,166.6c0,2.4,0.5,4.5,1.5,6.1c1,1.6,2.6,2.4,4.6,2.4c2,0,3.5-0.8,4.6-2.4c1-1.6,1.6-3.6,1.6-6.1v-0.5c0-2.4-0.5-4.4-1.6-6
				s-2.6-2.4-4.6-2.4c-2,0-3.5,0.8-4.6,2.4s-1.5,3.6-1.5,6V166.6z M456.1,145h4.9l0,0.1l-5.7,5.6h-3.2L456.1,145z"/>
			<path fill="#FFFFFF" d="M473.4,154.8l0.3,3.4c0.8-1.2,1.7-2.2,2.9-2.9c1.2-0.7,2.5-1,4-1c2.5,0,4.4,0.7,5.8,2.2
				c1.4,1.5,2.1,3.7,2.1,6.8v14.6h-4.2v-14.5c0-2-0.4-3.5-1.2-4.3s-2-1.3-3.7-1.3c-1.3,0-2.4,0.3-3.3,0.8c-0.9,0.5-1.6,1.2-2.1,2.2
				v17.2h-4.2v-23.1H473.4z"/>
		</g>
	</g>
</g>
<g id="vectores_sliders">
</g>
<g id="cabecera">
</g>
<g id="COL">
</g>
<g id="FILA">
</g>
</svg>
