<?xml version="1.0" encoding="utf-8"?>
<!-- Generator: Adobe Illustrator 18.0.0, SVG Export Plug-In . SVG Version: 6.00 Build 0)  -->
<!DOCTYPE svg PUBLIC "-//W3C//DTD SVG 1.1//EN" "http://www.w3.org/Graphics/SVG/1.1/DTD/svg11.dtd" [
	<!ENTITY ns_extend "http://ns.adobe.com/Extensibility/1.0/">
	<!ENTITY ns_ai "http://ns.adobe.com/AdobeIllustrator/10.0/">
	<!ENTITY ns_graphs "http://ns.adobe.com/Graphs/1.0/">
	<!ENTITY ns_vars "http://ns.adobe.com/Variables/1.0/">
	<!ENTITY ns_imrep "http://ns.adobe.com/ImageReplacement/1.0/">
	<!ENTITY ns_sfw "http://ns.adobe.com/SaveForWeb/1.0/">
	<!ENTITY ns_custom "http://ns.adobe.com/GenericCustomNamespace/1.0/">
	<!ENTITY ns_adobe_xpath "http://ns.adobe.com/XPath/1.0/">
]>
<svg version="1.1" id="Capa_1" xmlns:x="&ns_extend;" xmlns:i="&ns_ai;" xmlns:graph="&ns_graphs;"
	 xmlns="http://www.w3.org/2000/svg" xmlns:xlink="http://www.w3.org/1999/xlink" x="0px" y="0px" viewBox="0 0 32 32"
	 enable-background="new 0 0 32 32" xml:space="preserve">
<metadata>
	<sfw  xmlns="&ns_sfw;">
		<slices></slices>
		<sliceSourceBounds  width="291.5" height="31.9" y="-32" x="-4" bottomLeftOrigin="true"></sliceSourceBounds>
	</sfw>
</metadata>
<g>
	<path fill="#333" d="M16,26.5c0.6,0,1.1-0.2,1.5-0.7c0.4-0.4,0.7-0.9,0.7-1.5h-4.5c0,0.6,0.3,1.1,0.7,1.5
		C14.9,26.3,15.4,26.5,16,26.5z M9.5,21.6h13.1c0.3,0,0.5-0.1,0.7-0.3c0.2-0.2,0.3-0.5,0.3-0.7c0-0.3-0.1-0.6-0.3-0.8
		c-0.2-0.2-0.5-0.3-0.7-0.3h-0.6v-4.8c0-1.5-0.4-3-1.2-4.2c-0.8-1.3-2-2.1-3.4-2.4V6.7c0-0.3-0.1-0.6-0.4-0.9
		c-0.2-0.2-0.5-0.4-0.9-0.4s-0.6,0.1-0.9,0.4s-0.4,0.5-0.4,0.9v1.4c-1.5,0.3-2.6,1-3.4,2.3c-0.8,1.2-1.2,2.6-1.2,4.1v5H9.4
		c-0.3,0-0.5,0.1-0.7,0.3c-0.2,0.2-0.3,0.4-0.3,0.8c0,0.3,0.1,0.5,0.3,0.7C8.9,21.5,9.2,21.6,9.5,21.6z M16,32
		c-2.2,0-4.3-0.4-6.3-1.2s-3.6-1.9-5.1-3.4c-1.4-1.4-2.6-3.1-3.4-5.1S0,18.2,0,16c0-2.2,0.4-4.3,1.2-6.2s1.9-3.6,3.4-5.1
		s3.1-2.6,5.1-3.4S13.8,0,16,0c2.2,0,4.3,0.4,6.2,1.2s3.6,2,5.1,3.4s2.6,3.1,3.4,5.1c0.8,1.9,1.2,4,1.2,6.3s-0.4,4.3-1.2,6.3
		c-0.8,1.9-2,3.6-3.4,5.1c-1.4,1.4-3.1,2.6-5.1,3.4S18.2,32,16,32z M16,30.1c4,0,7.3-1.4,10-4.1s4.1-6,4.1-10S28.7,8.7,26,6
		s-6-4.1-10-4.1S8.7,3.3,6,6s-4.1,6-4.1,10S3.3,23.3,6,26S12,30.1,16,30.1z M12.2,19.5v-5.4c0-1.1,0.4-2,1.1-2.8
		c0.7-0.8,1.6-1.2,2.7-1.2s2,0.4,2.7,1.2c0.7,0.8,1.1,1.7,1.1,2.8v5.4H12.2z"/>
</g>
</svg>
