<?xml version="1.0" encoding="utf-8"?>
<!-- Generator: Adobe Illustrator 18.0.0, SVG Export Plug-In . SVG Version: 6.00 Build 0)  -->
<!DOCTYPE svg PUBLIC "-//W3C//DTD SVG 1.1//EN" "http://www.w3.org/Graphics/SVG/1.1/DTD/svg11.dtd" [
	<!ENTITY ns_extend "http://ns.adobe.com/Extensibility/1.0/">
	<!ENTITY ns_ai "http://ns.adobe.com/AdobeIllustrator/10.0/">
	<!ENTITY ns_graphs "http://ns.adobe.com/Graphs/1.0/">
	<!ENTITY ns_vars "http://ns.adobe.com/Variables/1.0/">
	<!ENTITY ns_imrep "http://ns.adobe.com/ImageReplacement/1.0/">
	<!ENTITY ns_sfw "http://ns.adobe.com/SaveForWeb/1.0/">
	<!ENTITY ns_custom "http://ns.adobe.com/GenericCustomNamespace/1.0/">
	<!ENTITY ns_adobe_xpath "http://ns.adobe.com/XPath/1.0/">
]>
<svg version="1.1" id="Capa_1" xmlns:x="&ns_extend;" xmlns:i="&ns_ai;" xmlns:graph="&ns_graphs;"
	 xmlns="http://www.w3.org/2000/svg" xmlns:xlink="http://www.w3.org/1999/xlink" x="0px" y="0px" viewBox="259.5 0 22 40"
	 enable-background="new 259.5 0 22 40" xml:space="preserve">
<metadata>
	<sfw  xmlns="&ns_sfw;">
		<slices></slices>
		<sliceSourceBounds  width="21.4" height="38.3" x="259.8" y="150.8" bottomLeftOrigin="true"></sliceSourceBounds>
	</sfw>
</metadata>
<g id="bg">
</g>
<g id="banner_1">
</g>
<g id="cabecera">
</g>
<g id="COL">
</g>
<g id="FILA">
</g>
<path fill="#333333" d="M280.6,1.4c0.4,0.4,0.6,0.9,0.6,1.4c0,0.5-0.2,1-0.6,1.4L264.9,20l15.8,15.8c0.4,0.4,0.6,0.8,0.6,1.4
	c0,0.5-0.2,1-0.6,1.4c-0.4,0.4-0.8,0.6-1.4,0.6s-1-0.2-1.4-0.6L260.3,21c-0.2-0.2-0.3-0.3-0.4-0.5c-0.1-0.2-0.1-0.3-0.1-0.5
	c0-0.2,0-0.4,0.1-0.5c0.1-0.2,0.2-0.3,0.4-0.5l17.6-17.6c0.4-0.4,0.8-0.5,1.4-0.5C279.7,0.8,280.2,1,280.6,1.4z"/>
</svg>
