<?xml version="1.0" encoding="utf-8"?>
<!-- Generator: Adobe Illustrator 18.0.0, SVG Export Plug-In . SVG Version: 6.00 Build 0)  -->
<!DOCTYPE svg PUBLIC "-//W3C//DTD SVG 1.1//EN" "http://www.w3.org/Graphics/SVG/1.1/DTD/svg11.dtd" [
	<!ENTITY ns_extend "http://ns.adobe.com/Extensibility/1.0/">
	<!ENTITY ns_ai "http://ns.adobe.com/AdobeIllustrator/10.0/">
	<!ENTITY ns_graphs "http://ns.adobe.com/Graphs/1.0/">
	<!ENTITY ns_vars "http://ns.adobe.com/Variables/1.0/">
	<!ENTITY ns_imrep "http://ns.adobe.com/ImageReplacement/1.0/">
	<!ENTITY ns_sfw "http://ns.adobe.com/SaveForWeb/1.0/">
	<!ENTITY ns_custom "http://ns.adobe.com/GenericCustomNamespace/1.0/">
	<!ENTITY ns_adobe_xpath "http://ns.adobe.com/XPath/1.0/">
]>
<svg version="1.1" id="Capa_1" xmlns:x="&ns_extend;" xmlns:i="&ns_ai;" xmlns:graph="&ns_graphs;"
	 xmlns="http://www.w3.org/2000/svg" xmlns:xlink="http://www.w3.org/1999/xlink" x="0px" y="0px" viewBox="0 0 366 230"
	 enable-background="new 0 0 366 230" xml:space="preserve">
<metadata>
	<sfw  xmlns="&ns_sfw;">
		<slices></slices>
		<sliceSourceBounds  width="363.5" height="218.2" x="0" y="-229" bottomLeftOrigin="true"></sliceSourceBounds>
	</sfw>
</metadata>
<g>
	<g>
		<path fill="#FFFFFF" d="M0,25.8h10L18,49.5c0.8,2.3,1.3,5.8,1.4,5.8h0.1c0.1,0,0.6-3.5,1.4-5.8l7.9-23.7h10L25.1,64H13.9L0,25.8z"
			/>
		<path fill="#FFFFFF" d="M63.6,40h1.3v-0.5c0-5-3.1-6.8-7.3-6.8C52,32.7,47,36.4,47,36.4l-3.6-6.8c0,0,5.9-4.7,15-4.7
			c10,0,15.9,5.5,15.9,15.2V64h-8.8v-3.1c0-1.5,0.1-2.7,0.1-2.7h-0.1c0.1,0-2.9,6.7-11.6,6.7c-6.8,0-13-4.3-13-11.9
			C40.9,40.8,57.4,40,63.6,40z M56.3,57.5c5,0,8.6-5.4,8.6-10v-0.9h-1.6c-4.9,0-12.7,0.7-12.7,6C50.5,55.1,52.4,57.5,56.3,57.5z"/>
		<path fill="#FFFFFF" d="M83.7,10.8h9.4v39.9c0,4.2,1.4,5.3,3.9,5.3c0.8,0,1.4-0.1,1.4-0.1v8.3c0,0-1.4,0.2-3,0.2
			c-5.3,0-11.8-1.4-11.8-12.3V10.8z"/>
		<path fill="#FFFFFF" d="M123.7,24.9c11.7,0,21.1,8.3,21.1,20c0,11.8-9.4,20-21,20c-11.7,0-21.1-8.2-21.1-20
			C102.7,33.2,112,24.9,123.7,24.9z M123.7,56.8c6.1,0,11.3-4.8,11.3-11.9c0-7-5.2-11.9-11.3-11.9c-6.2,0-11.4,4.9-11.4,11.9
			C112.3,52,117.5,56.8,123.7,56.8z"/>
		<path fill="#FFFFFF" d="M152.4,25.8h9.1v6.6c0,1.4-0.1,2.7-0.1,2.7h0.1c1.7-5.5,6.3-9.8,12.1-9.8c0.9,0,1.7,0.1,1.7,0.1v9.4
			c0,0-1-0.1-2.3-0.1c-4,0-8.6,2.3-10.4,8c-0.6,1.9-0.8,4-0.8,6.2V64h-9.5V25.8z"/>
		<path fill="#FFFFFF" d="M201.3,40h1.3v-0.5c0-5-3.1-6.8-7.3-6.8c-5.5,0-10.5,3.7-10.5,3.7l-3.6-6.8c0,0,5.9-4.7,15-4.7
			c10,0,15.9,5.5,15.9,15.2V64h-8.8v-3.1c0-1.5,0.1-2.7,0.1-2.7h-0.1c0.1,0-2.9,6.7-11.6,6.7c-6.8,0-13-4.3-13-11.9
			C178.6,40.8,195.1,40,201.3,40z M194,57.5c5,0,8.6-5.4,8.6-10v-0.9H201c-4.9,0-12.8,0.7-12.8,6C188.2,55.1,190.1,57.5,194,57.5z"
			/>
		<path fill="#FFFFFF" d="M221.9,25.8h9.1v4.4c0,1.4-0.1,2.6-0.1,2.6h0.1c1.9-3.8,6.5-7.9,12.5-7.9c5.8,0,9.6,2.7,11.2,7.9h0.1
			c2.1-4.1,7-7.9,13-7.9c7.9,0,12.5,4.5,12.5,14.5V64h-9.5V41.2c0-4.4-0.8-7.6-5.3-7.6c-4.9,0-8.1,3.9-9.2,8.7
			c-0.4,1.5-0.5,3.1-0.5,4.9V64h-9.5V41.2c0-4.1-0.7-7.6-5.2-7.6c-5,0-8.2,3.9-9.4,8.8c-0.4,1.4-0.5,3.1-0.5,4.9V64h-9.5V25.8z"/>
		<path fill="#FFFFFF" d="M308.5,24.9c11.7,0,21.1,8.3,21.1,20c0,11.8-9.4,20-21,20c-11.7,0-21.1-8.2-21.1-20
			C287.5,33.2,296.9,24.9,308.5,24.9z M308.6,56.8c6.1,0,11.3-4.8,11.3-11.9c0-7-5.2-11.9-11.3-11.9c-6.2,0-11.4,4.9-11.4,11.9
			C297.2,52,302.4,56.8,308.6,56.8z"/>
		<path fill="#FFFFFF" d="M338.4,52.6c0,0,4.2,4.2,10.4,4.2c2.7,0,5-1.2,5-3.4c0-5.7-18.6-5-18.6-17.2c0-7.1,6.4-11.2,14.6-11.2
			c8.6,0,12.8,4.3,12.8,4.3l-3.5,7c0,0-3.5-3.3-9.4-3.3c-2.5,0-4.9,1-4.9,3.5c0,5.4,18.6,4.7,18.6,17c0,6.4-5.5,11.5-14.6,11.5
			c-9.5,0-14.8-5.6-14.8-5.6L338.4,52.6z"/>
		<path fill="#FFFFFF" d="M22,99.9c11,0,16.9,8,16.9,18.1c0,1.1-0.2,3.7-0.2,3.7H12.3c0.6,6.7,5.8,10.1,11.5,10.1
			c6.1,0,11-4.2,11-4.2l3.7,6.8c0,0-5.9,5.5-15.4,5.5c-12.7,0-20.5-9.1-20.5-20C2.5,108.1,10.6,99.9,22,99.9z M29.3,115.2
			c-0.1-5.2-3.4-7.9-7.6-7.9c-4.9,0-8.2,3-9.1,7.9H29.3z"/>
		<path fill="#FFFFFF" d="M46.3,85.8h9.4v39.9c0,4.2,1.4,5.3,3.9,5.3c0.8,0,1.4-0.1,1.4-0.1v8.3c0,0-1.4,0.2-3,0.2
			c-5.3,0-11.8-1.4-11.8-12.3V85.8z"/>
		<path fill="#FFFFFF" d="M88,108.9h-5v-7.6h5.2v-11h9.3v11h8.7v7.6h-8.7v14.8c0,6.3,4.9,7.2,7.6,7.2c1,0,1.7-0.1,1.7-0.1v8.3
			c0,0-1.1,0.2-2.9,0.2c-5.3,0-15.9-1.6-15.9-14.4V108.9z"/>
		<path fill="#FFFFFF" d="M114.6,100.8h9.1v6.6c0,1.4-0.1,2.7-0.1,2.7h0.1c1.7-5.5,6.3-9.8,12.1-9.8c0.9,0,1.7,0.1,1.7,0.1v9.4
			c0,0-1-0.1-2.3-0.1c-4,0-8.6,2.3-10.4,8c-0.6,1.9-0.8,4-0.8,6.2V139h-9.5V100.8z"/>
		<path fill="#FFFFFF" d="M163.5,115h1.3v-0.5c0-5-3.1-6.8-7.3-6.8c-5.5,0-10.5,3.7-10.5,3.7l-3.6-6.8c0,0,5.9-4.7,15-4.7
			c10,0,15.9,5.5,15.9,15.2V139h-8.8v-3.2c0-1.5,0.1-2.7,0.1-2.7h-0.1c0.1,0-2.9,6.7-11.6,6.7c-6.8,0-13-4.3-13-11.9
			C140.8,115.8,157.3,115,163.5,115z M156.2,132.5c5,0,8.6-5.4,8.6-10v-0.9h-1.6c-4.9,0-12.7,0.7-12.7,6
			C150.4,130.1,152.3,132.5,156.2,132.5z"/>
		<path fill="#FFFFFF" d="M184.1,85.8h9.5v16.4c0,1.9-0.2,3.2-0.2,3.2h0.2c0,0,3.4-5.5,11.5-5.5c10.3,0,16.9,8.2,16.9,20
			c0,12.1-7.4,20-17.5,20c-8,0-11.4-5.7-11.4-5.7H193c0,0,0.1,1.1,0.1,2.6v2.2h-9V85.8z M202.9,131.9c5.3,0,9.6-4.3,9.6-11.8
			c0-7.3-3.9-12-9.5-12c-5,0-9.6,3.6-9.6,12.1C193.3,126,196.5,131.9,202.9,131.9z"/>
		<path fill="#FFFFFF" d="M249.4,115h1.3v-0.5c0-5-3.1-6.8-7.3-6.8c-5.5,0-10.5,3.7-10.5,3.7l-3.6-6.8c0,0,5.9-4.7,15-4.7
			c10.1,0,15.9,5.5,15.9,15.2V139h-8.8v-3.2c0-1.5,0.2-2.7,0.2-2.7h-0.2c0.1,0-2.9,6.7-11.6,6.7c-6.8,0-13-4.3-13-11.9
			C226.7,115.8,243.1,115,249.4,115z M242.1,132.5c5,0,8.6-5.4,8.6-10v-0.9h-1.7c-4.9,0-12.7,0.7-12.7,6
			C236.3,130.1,238.2,132.5,242.1,132.5z"/>
		<path fill="#FFFFFF" d="M279.5,100.8v39.4c0,12.8-10.7,14.4-16,14.4c-1.8,0-2.9-0.2-2.9-0.2v-8c0,0,0.7,0.2,1.7,0.2
			c2.7,0,7.7-0.8,7.7-7v-38.6H279.5z M270,85.8h9.4v8.5H270V85.8z"/>
		<path fill="#FFFFFF" d="M308.2,99.9c11.7,0,21.1,8.3,21.1,20c0,11.8-9.4,20-21,20c-11.7,0-21.1-8.2-21.1-20
			C287.2,108.2,296.5,99.9,308.2,99.9z M308.2,131.8c6.1,0,11.3-4.8,11.3-11.9c0-7.1-5.2-11.9-11.3-11.9c-6.2,0-11.4,4.9-11.4,11.9
			C296.8,127,302,131.8,308.2,131.8z"/>
		<path fill="#FFFFFF" d="M22,174.9c11,0,16.9,8,16.9,18.1c0,1.1-0.2,3.7-0.2,3.7H12.3c0.6,6.7,5.8,10.1,11.5,10.1
			c6.1,0,11-4.2,11-4.2l3.7,6.8c0,0-5.9,5.5-15.4,5.5c-12.7,0-20.5-9.1-20.5-20C2.5,183.1,10.6,174.9,22,174.9z M29.3,190.2
			c-0.1-5.2-3.4-7.9-7.6-7.9c-4.9,0-8.2,3-9.1,7.9H29.3z"/>
		<path fill="#FFFFFF" d="M46.8,175.8h9.1v4.4c0,1.4-0.1,2.6-0.1,2.6h0.1c1.6-3.2,5.8-7.9,13.6-7.9c8.5,0,13.3,4.4,13.3,14.5V214
			h-9.4v-22.6c0-4.6-1.2-7.8-6.1-7.8c-5.1,0-8.8,3.2-10.3,7.8c-0.5,1.6-0.7,3.3-0.7,5.1V214h-9.5V175.8z"/>
		<path fill="#FFFFFF" d="M127.7,174.9c11,0,16.9,8,16.9,18.1c0,1.1-0.2,3.7-0.2,3.7H118c0.6,6.7,5.8,10.1,11.5,10.1
			c6.1,0,11-4.2,11-4.2l3.7,6.8c0,0-5.9,5.5-15.4,5.5c-12.7,0-20.5-9.1-20.5-20C108.3,183.1,116.3,174.9,127.7,174.9z M135.1,190.2
			c-0.1-5.2-3.4-7.9-7.6-7.9c-4.9,0-8.2,3-9.1,7.9H135.1z"/>
		<path fill="#FFFFFF" d="M167.2,174.9c8.4,0,11.6,5.5,11.6,5.5h0.1c0,0-0.1-1-0.1-2.5v-2.2h9V229h-9.5v-16.5c0-2,0.1-3.3,0.1-3.3
			h-0.1c0,0-3.2,5.7-11.5,5.7c-10.3,0-16.9-8.2-16.9-20C149.9,182.7,157.1,174.9,167.2,174.9z M169,206.9c4.9,0,9.6-3.6,9.6-12.1
			c0-5.9-3.1-11.8-9.5-11.8c-5.3,0-9.6,4.3-9.6,11.8C159.5,202.2,163.4,206.9,169,206.9z"/>
		<path fill="#FFFFFF" d="M197.8,175.8h9.5v22.6c0,4.6,1.2,7.8,5.9,7.8c6.9,0,10.7-6.1,10.7-12.9v-17.5h9.5V214h-9.2v-4.3
			c0-1.5,0.2-2.7,0.2-2.7h-0.2c-1.9,4-6.8,7.9-13.3,7.9c-8.2,0-13.3-4.1-13.3-14.5V175.8z"/>
		<path fill="#FFFFFF" d="M244,160.8h9.4v8.5H244V160.8z M244,175.8h9.5V214H244V175.8z"/>
		<path fill="#FFFFFF" d="M264.1,175.8h8.7v2.8c0,1.4-0.1,2.6-0.1,2.6h0.1c0,0,3.3-6.3,12.3-6.3c10.3,0,16.9,8.2,16.9,20
			c0,12.1-7.4,20-17.5,20c-7.6,0-10.9-5.2-10.9-5.2h-0.2c0,0,0.2,1.3,0.2,3.3v16h-9.5V175.8z M282.8,206.9c5.3,0,9.6-4.3,9.6-11.8
			c0-7.3-3.9-12-9.5-12c-4.9,0-9.6,3.6-9.6,12.1C273.3,201,276.5,206.9,282.8,206.9z"/>
		<path fill="#FFFFFF" d="M328,174.9c11.7,0,21.1,8.3,21.1,20c0,11.8-9.4,20-21,20c-11.7,0-21.1-8.2-21.1-20
			C307,183.2,316.4,174.9,328,174.9z M328.1,206.8c6.2,0,11.3-4.8,11.3-11.9c0-7-5.2-11.9-11.3-11.9c-6.2,0-11.4,4.9-11.4,11.9
			C316.7,202,321.9,206.8,328.1,206.8z"/>
	</g>
</g>
</svg>
