<?xml version="1.0" encoding="utf-8"?>
<!-- Generator: Adobe Illustrator 18.0.0, SVG Export Plug-In . SVG Version: 6.00 Build 0)  -->
<!DOCTYPE svg PUBLIC "-//W3C//DTD SVG 1.1//EN" "http://www.w3.org/Graphics/SVG/1.1/DTD/svg11.dtd" [
	<!ENTITY ns_extend "http://ns.adobe.com/Extensibility/1.0/">
	<!ENTITY ns_ai "http://ns.adobe.com/AdobeIllustrator/10.0/">
	<!ENTITY ns_graphs "http://ns.adobe.com/Graphs/1.0/">
	<!ENTITY ns_vars "http://ns.adobe.com/Variables/1.0/">
	<!ENTITY ns_imrep "http://ns.adobe.com/ImageReplacement/1.0/">
	<!ENTITY ns_sfw "http://ns.adobe.com/SaveForWeb/1.0/">
	<!ENTITY ns_custom "http://ns.adobe.com/GenericCustomNamespace/1.0/">
	<!ENTITY ns_adobe_xpath "http://ns.adobe.com/XPath/1.0/">
]>
<svg version="1.1" id="Capa_1" xmlns:x="&ns_extend;" xmlns:i="&ns_ai;" xmlns:graph="&ns_graphs;"
	 xmlns="http://www.w3.org/2000/svg" xmlns:xlink="http://www.w3.org/1999/xlink" x="0px" y="0px" viewBox="0 0 34 34"
	 enable-background="new 0 0 34 34" xml:space="preserve">
<metadata>
	<sfw  xmlns="&ns_sfw;">
		<slices></slices>
		<sliceSourceBounds  height="33.7" width="33.7" x="0.1" y="-33.7" bottomLeftOrigin="true"></sliceSourceBounds>
	</sfw>
</metadata>
<g>
	<g>
		<path fill="#666666" d="M25.5,14.9c0,1.3-0.5,1.9-1.6,1.9h-1.5v-6.5h1.5c1.1,0,1.6,0.7,1.6,1.9V14.9z M23.9,8.7h-3.4v16.2h1.9
			v-6.4h1.5c2.2,0,3.5-1.1,3.5-3.2c0,0,0-3.4,0-3.4C27.5,9.9,26.2,8.7,23.9,8.7z"/>
		<path fill="#666666" d="M10.5,8.5C8.4,8.5,7,9.6,7,11.8v10c0,2.3,1.4,3.3,3.4,3.3c2.1,0,3.4-1,3.4-3.3v-5.7h-3.5v1.6h1.7v4
			c0,1.3-0.6,1.7-1.6,1.7c-0.9,0-1.6-0.4-1.6-1.7c0-3.3,0-9.9,0-9.9c0-1.2,0.6-1.8,1.6-1.8c1,0,1.6,0.5,1.6,1.7v1.6h1.9v-1.7
			C13.9,9.5,12.7,8.5,10.5,8.5z"/>
		<path fill="#666666" d="M17,32.1c-8.4,0-15.2-6.8-15.2-15.2C1.8,8.5,8.6,1.7,17,1.7c8.4,0,15.2,6.8,15.2,15.2
			C32.2,25.2,25.3,32.1,17,32.1z M17,0C7.7,0,0.1,7.6,0.1,16.9c0,9.3,7.6,16.9,16.9,16.9c9.3,0,16.9-7.6,16.9-16.9
			C33.9,7.6,26.3,0,17,0z"/>
		<path fill="#666666" d="M17,15.6c-0.7,0-1.3,0.6-1.3,1.3c0,0.7,0.5,1.3,1.3,1.3c0.6,0,1.3-0.5,1.3-1.3
			C18.3,16.2,17.7,15.6,17,15.6z"/>
	</g>
</g>
</svg>
