<?xml version="1.0" encoding="utf-8"?>
<!-- Generator: Adobe Illustrator 18.0.0, SVG Export Plug-In . SVG Version: 6.00 Build 0)  -->
<!DOCTYPE svg PUBLIC "-//W3C//DTD SVG 1.1//EN" "http://www.w3.org/Graphics/SVG/1.1/DTD/svg11.dtd" [
	<!ENTITY ns_extend "http://ns.adobe.com/Extensibility/1.0/">
	<!ENTITY ns_ai "http://ns.adobe.com/AdobeIllustrator/10.0/">
	<!ENTITY ns_graphs "http://ns.adobe.com/Graphs/1.0/">
	<!ENTITY ns_vars "http://ns.adobe.com/Variables/1.0/">
	<!ENTITY ns_imrep "http://ns.adobe.com/ImageReplacement/1.0/">
	<!ENTITY ns_sfw "http://ns.adobe.com/SaveForWeb/1.0/">
	<!ENTITY ns_custom "http://ns.adobe.com/GenericCustomNamespace/1.0/">
	<!ENTITY ns_adobe_xpath "http://ns.adobe.com/XPath/1.0/">
]>
<svg version="1.1" id="Capa_1" xmlns:x="&ns_extend;" xmlns:i="&ns_ai;" xmlns:graph="&ns_graphs;"
	 xmlns="http://www.w3.org/2000/svg" xmlns:xlink="http://www.w3.org/1999/xlink" x="0px" y="0px" viewBox="328.5 396.5 423 287"
	 enable-background="new 328.5 396.5 423 287" xml:space="preserve">
<metadata>
	<sfw  xmlns="&ns_sfw;">
		<slices></slices>
		<sliceSourceBounds  width="405.4" height="267.4" y="407.9" x="330" bottomLeftOrigin="true"></sliceSourceBounds>
	</sfw>
</metadata>
<g id="Capa_2">
</g>
<g>
	<g>
		<path fill="#FFFFFF" d="M333.7,422.1H330v-5.7h3.9v-8.3h7v8.3h6.6v5.7h-6.6v11.2c0,4.8,3.7,5.4,5.7,5.4c0.8,0,1.3-0.1,1.3-0.1v6.3
			c0,0-0.8,0.2-2.2,0.2c-4,0-12-1.2-12-10.9V422.1z"/>
		<path fill="#FFFFFF" d="M366.4,415.3c8.3,0,12.8,6.1,12.8,13.7c0,0.8-0.2,2.8-0.2,2.8h-19.9c0.5,5,4.4,7.6,8.7,7.6
			c4.6,0,8.3-3.2,8.3-3.2l2.8,5.2c0,0-4.4,4.1-11.6,4.1c-9.6,0-15.5-6.9-15.5-15.1C351.8,421.5,357.8,415.3,366.4,415.3z M372,426.8
			c-0.1-3.9-2.5-6-5.7-6c-3.7,0-6.2,2.3-6.9,6H372z"/>
		<path fill="#FFFFFF" d="M385.2,416h6.9v3.3c0,1.1-0.1,2-0.1,2h0.1c1.2-2.4,4.4-6,10.3-6c6.4,0,10,3.3,10,11v18.6h-7.1v-17.1
			c0-3.5-0.9-5.9-4.6-5.9c-3.9,0-6.7,2.4-7.8,5.9c-0.4,1.2-0.5,2.5-0.5,3.9v13.3h-7.2V416z"/>
		<path fill="#FFFFFF" d="M432.5,415.3c8.3,0,12.8,6.1,12.8,13.7c0,0.8-0.2,2.8-0.2,2.8h-19.9c0.5,5,4.4,7.6,8.7,7.6
			c4.6,0,8.3-3.2,8.3-3.2l2.8,5.2c0,0-4.4,4.1-11.6,4.1c-9.6,0-15.5-6.9-15.5-15.1C417.9,421.5,423.9,415.3,432.5,415.3z
			 M438.1,426.8c-0.1-3.9-2.5-6-5.7-6c-3.7,0-6.2,2.3-6.9,6H438.1z"/>
		<path fill="#FFFFFF" d="M466.3,422.1h-3.7v-5.7h3.9v-8.3h7v8.3h6.6v5.7h-6.6v11.2c0,4.8,3.7,5.4,5.7,5.4c0.8,0,1.3-0.1,1.3-0.1
			v6.3c0,0-0.8,0.2-2.2,0.2c-4,0-12-1.2-12-10.9V422.1z"/>
		<path fill="#FFFFFF" d="M486,416h7.2v17.1c0,3.5,0.9,5.9,4.5,5.9c5.2,0,8.1-4.6,8.1-9.7V416h7.2v28.9h-6.9v-3.3c0-1.1,0.1-2,0.1-2
			h-0.1c-1.4,3-5.1,6-10,6c-6.2,0-10-3.1-10-11V416z"/>
		<path fill="#FFFFFF" d="M521.7,436.2c0,0,3.2,3.2,7.9,3.2c2,0,3.8-0.9,3.8-2.6c0-4.3-14-3.7-14-13c0-5.4,4.8-8.5,11-8.5
			c6.5,0,9.7,3.3,9.7,3.3l-2.7,5.3c0,0-2.7-2.5-7.1-2.5c-1.9,0-3.7,0.8-3.7,2.6c0,4.1,14,3.6,14,12.9c0,4.8-4.2,8.7-11,8.7
			c-7.2,0-11.2-4.2-11.2-4.2L521.7,436.2z"/>
		<path fill="#FFFFFF" d="M571.4,415.3c6.3,0,8.3,3.7,8.3,3.7h0.1c0,0-0.1-0.7-0.1-1.6v-12.7h7.2v40.2h-6.8v-2.4
			c0-1.1,0.1-1.9,0.1-1.9h-0.1c0,0-2.4,4.9-9.1,4.9c-7.8,0-12.8-6.2-12.8-15.1C558.3,421.2,563.7,415.3,571.4,415.3z M572.7,439.5
			c3.7,0,7.3-2.7,7.3-9.1c0-4.5-2.4-8.9-7.2-8.9c-4,0-7.3,3.2-7.3,8.9C565.5,435.9,568.5,439.5,572.7,439.5z"/>
		<path fill="#FFFFFF" d="M609.5,426.7h1v-0.4c0-3.8-2.4-5.1-5.6-5.1c-4.1,0-7.9,2.8-7.9,2.8l-2.7-5.2c0,0,4.5-3.6,11.3-3.6
			c7.6,0,12,4.2,12,11.5v18.1H611v-2.4c0-1.1,0.1-2,0.1-2H611c0.1,0-2.2,5.1-8.8,5.1c-5.2,0-9.8-3.2-9.8-9
			C592.4,427.3,604.8,426.7,609.5,426.7z M604,439.9c3.8,0,6.5-4.1,6.5-7.6v-0.7h-1.2c-3.7,0-9.6,0.5-9.6,4.5
			C599.7,438.1,601.1,439.9,604,439.9z"/>
		<path fill="#FFFFFF" d="M626.2,422.1h-3.7v-5.7h3.9v-8.3h7v8.3h6.6v5.7h-6.6v11.2c0,4.8,3.7,5.4,5.7,5.4c0.8,0,1.3-0.1,1.3-0.1
			v6.3c0,0-0.8,0.2-2.2,0.2c-4,0-12-1.2-12-10.9V422.1z"/>
		<path fill="#FFFFFF" d="M660,415.3c8.8,0,15.9,6.3,15.9,15.1c0,8.9-7.1,15.1-15.9,15.1c-8.8,0-15.9-6.2-15.9-15.1
			C644.1,421.6,651.2,415.3,660,415.3z M660,439.4c4.6,0,8.6-3.6,8.6-9c0-5.3-3.9-9-8.6-9c-4.7,0-8.6,3.7-8.6,9
			C651.4,435.8,655.3,439.4,660,439.4z"/>
		<path fill="#FFFFFF" d="M682.5,436.2c0,0,3.2,3.2,7.9,3.2c2,0,3.8-0.9,3.8-2.6c0-4.3-14-3.7-14-13c0-5.4,4.8-8.5,11-8.5
			c6.5,0,9.7,3.3,9.7,3.3l-2.7,5.3c0,0-2.7-2.5-7.1-2.5c-1.9,0-3.7,0.8-3.7,2.6c0,4.1,14,3.6,14,12.9c0,4.8-4.2,8.7-11,8.7
			c-7.2,0-11.2-4.2-11.2-4.2L682.5,436.2z"/>
		<path fill="#FFFFFF" d="M347.1,483.4h1V483c0-3.8-2.4-5.1-5.6-5.1c-4.1,0-7.9,2.8-7.9,2.8l-2.7-5.2c0,0,4.5-3.6,11.3-3.6
			c7.6,0,12,4.2,12,11.5v18.1h-6.6v-2.4c0-1.1,0.1-2,0.1-2h-0.1c0.1,0-2.2,5.1-8.8,5.1c-5.2,0-9.8-3.2-9.8-9
			C330,484,342.4,483.4,347.1,483.4z M341.6,496.6c3.8,0,6.5-4.1,6.5-7.6v-0.7h-1.2c-3.7,0-9.6,0.5-9.6,4.5
			C337.3,494.7,338.7,496.6,341.6,496.6z"/>
		<path fill="#FFFFFF" d="M376.3,471.9c7.5,0,11.1,4.3,11.1,4.3l-3.2,4.9c0,0-3-3.1-7.5-3.1c-5.3,0-8.8,4-8.8,8.9
			c0,4.9,3.5,9.1,9,9.1c4.9,0,8.5-3.7,8.5-3.7l2.8,5.1c0,0-4.1,4.7-11.9,4.7c-9.6,0-15.7-6.7-15.7-15.1
			C360.6,478.8,366.7,471.9,376.3,471.9z"/>
		<path fill="#FFFFFF" d="M394.8,478.8h-3.7v-5.7h3.9v-8.3h7v8.3h6.6v5.7H402V490c0,4.8,3.7,5.4,5.7,5.4c0.8,0,1.3-0.1,1.3-0.1v6.3
			c0,0-0.8,0.2-2.2,0.2c-4,0-12-1.2-12-10.9V478.8z"/>
		<path fill="#FFFFFF" d="M414.5,472.6h7.2v17.1c0,3.5,0.9,5.9,4.5,5.9c5.2,0,8.1-4.6,8.1-9.7v-13.3h7.2v28.9h-6.9v-3.3
			c0-1.1,0.1-2,0.1-2h-0.1c-1.4,3-5.1,6-10,6c-6.2,0-10-3.1-10-11V472.6z"/>
		<path fill="#FFFFFF" d="M464.1,483.4h1V483c0-3.8-2.4-5.1-5.6-5.1c-4.1,0-7.9,2.8-7.9,2.8l-2.7-5.2c0,0,4.5-3.6,11.3-3.6
			c7.6,0,12,4.2,12,11.5v18.1h-6.6v-2.4c0-1.1,0.1-2,0.1-2h-0.1c0.1,0-2.2,5.1-8.8,5.1c-5.2,0-9.8-3.2-9.8-9
			C447,484,459.4,483.4,464.1,483.4z M458.6,496.6c3.8,0,6.5-4.1,6.5-7.6v-0.7h-1.2c-3.7,0-9.6,0.5-9.6,4.5
			C454.2,494.7,455.6,496.6,458.6,496.6z"/>
		<path fill="#FFFFFF" d="M479.3,461.3h7.1v30.1c0,3.2,1.1,4,2.9,4c0.6,0,1.1-0.1,1.1-0.1v6.3c0,0-1.1,0.2-2.3,0.2
			c-4,0-8.9-1-8.9-9.3V461.3z"/>
		<path fill="#FFFFFF" d="M495.7,461.3h7.1v6.4h-7.1V461.3z M495.7,472.6h7.2v28.9h-7.2V472.6z"/>
		<path fill="#FFFFFF" d="M508.9,497.6l13-16.3c1.3-1.6,2.4-2.7,2.4-2.7v-0.1c0,0-0.8,0.1-2.7,0.1h-12.2v-6.1H534v3.9l-13,16.3
			c-1.3,1.6-2.5,2.7-2.5,2.7v0.1c0,0,0.8-0.2,2.7-0.2h13.1v6.1h-25.5V497.6z"/>
		<path fill="#FFFFFF" d="M555.2,483.4h1V483c0-3.8-2.4-5.1-5.6-5.1c-4.1,0-7.9,2.8-7.9,2.8l-2.7-5.2c0,0,4.5-3.6,11.3-3.6
			c7.6,0,12,4.2,12,11.5v18.1h-6.6v-2.4c0-1.1,0.1-2,0.1-2h-0.1c0.1,0-2.2,5.1-8.8,5.1c-5.2,0-9.8-3.2-9.8-9
			C538.1,484,550.5,483.4,555.2,483.4z M549.7,496.6c3.8,0,6.5-4.1,6.5-7.6v-0.7H555c-3.7,0-9.6,0.5-9.6,4.5
			C545.4,494.7,546.8,496.6,549.7,496.6z"/>
		<path fill="#FFFFFF" d="M581.9,471.9c6.3,0,8.3,3.7,8.3,3.7h0.1c0,0-0.1-0.7-0.1-1.6v-12.7h7.2v40.2h-6.8v-2.4
			c0-1.1,0.1-1.9,0.1-1.9h-0.1c0,0-2.4,4.9-9.1,4.9c-7.8,0-12.8-6.2-12.8-15.1C568.8,477.9,574.2,471.9,581.9,471.9z M583.2,496.1
			c3.7,0,7.3-2.7,7.3-9.1c0-4.5-2.4-8.9-7.2-8.9c-4,0-7.3,3.2-7.3,8.9C576.1,492.5,579,496.1,583.2,496.1z"/>
		<path fill="#FFFFFF" d="M619.1,471.9c8.8,0,15.9,6.3,15.9,15.1c0,8.9-7.1,15.1-15.9,15.1c-8.8,0-15.9-6.2-15.9-15.1
			C603.2,478.2,610.3,471.9,619.1,471.9z M619.2,496c4.6,0,8.6-3.6,8.6-9c0-5.3-3.9-9-8.6-9c-4.7,0-8.6,3.7-8.6,9
			C610.5,492.4,614.5,496,619.2,496z"/>
		<path fill="#FFFFFF" d="M641.6,492.9c0,0,3.2,3.2,7.9,3.2c2,0,3.8-0.9,3.8-2.6c0-4.3-14-3.7-14-13c0-5.4,4.8-8.5,11-8.5
			c6.5,0,9.7,3.3,9.7,3.3l-2.7,5.3c0,0-2.7-2.5-7.1-2.5c-1.9,0-3.7,0.8-3.7,2.6c0,4.1,14,3.6,14,12.9c0,4.8-4.2,8.7-11,8.7
			c-7.2,0-11.2-4.2-11.2-4.2L641.6,492.9z"/>
		<path fill="#FFFFFF" d="M347.1,540h1v-0.4c0-3.8-2.4-5.1-5.6-5.1c-4.1,0-7.9,2.8-7.9,2.8l-2.7-5.2c0,0,4.5-3.6,11.3-3.6
			c7.6,0,12,4.2,12,11.5v18.1h-6.6v-2.4c0-1.1,0.1-2,0.1-2h-0.1c0.1,0-2.2,5.1-8.8,5.1c-5.2,0-9.8-3.2-9.8-9
			C330,540.6,342.4,540,347.1,540z M341.6,553.2c3.8,0,6.5-4.1,6.5-7.6v-0.7h-1.2c-3.7,0-9.6,0.5-9.6,4.5
			C337.3,551.4,338.7,553.2,341.6,553.2z"/>
		<path fill="#FFFFFF" d="M363.6,549.5c0,0,3.2,3.2,7.9,3.2c2,0,3.8-0.9,3.8-2.6c0-4.3-14-3.7-14-13c0-5.4,4.8-8.5,11-8.5
			c6.5,0,9.7,3.3,9.7,3.3l-2.7,5.3c0,0-2.7-2.5-7.1-2.5c-1.9,0-3.7,0.8-3.7,2.6c0,4.1,14,3.6,14,12.9c0,4.8-4.2,8.7-11,8.7
			c-7.2,0-11.2-4.2-11.2-4.2L363.6,549.5z"/>
		<path fill="#FFFFFF" d="M388.3,529.2h7.2v28.9h-7.2V529.2z M393.1,518h7.4l-5.9,7.7h-5.8L393.1,518z"/>
		<path fill="#FFFFFF" d="M431.9,540h1v-0.4c0-3.8-2.4-5.1-5.6-5.1c-4.1,0-7.9,2.8-7.9,2.8l-2.7-5.2c0,0,4.5-3.6,11.3-3.6
			c7.6,0,12,4.2,12,11.5v18.1h-6.6v-2.4c0-1.1,0.1-2,0.1-2h-0.1c0.1,0-2.2,5.1-8.8,5.1c-5.2,0-9.8-3.2-9.8-9
			C414.8,540.6,427.2,540,431.9,540z M426.4,553.2c3.8,0,6.5-4.1,6.5-7.6v-0.7h-1.2c-3.7,0-9.6,0.5-9.6,4.5
			C422,551.4,423.4,553.2,426.4,553.2z"/>
		<path fill="#FFFFFF" d="M461,528.6c7.5,0,11.1,4.3,11.1,4.3l-3.2,4.9c0,0-3-3.1-7.5-3.1c-5.3,0-8.8,4-8.8,8.9c0,4.9,3.5,9.1,9,9.1
			c4.9,0,8.5-3.7,8.5-3.7l2.8,5.1c0,0-4.1,4.7-11.9,4.7c-9.6,0-15.7-6.7-15.7-15.1C445.3,535.5,451.5,528.6,461,528.6z"/>
		<path fill="#FFFFFF" d="M491.9,528.6c7.5,0,11.1,4.3,11.1,4.3l-3.2,4.9c0,0-3-3.1-7.5-3.1c-5.3,0-8.8,4-8.8,8.9
			c0,4.9,3.5,9.1,9,9.1c4.9,0,8.5-3.7,8.5-3.7l2.8,5.1c0,0-4.1,4.7-11.9,4.7c-9.6,0-15.7-6.7-15.7-15.1
			C476.2,535.5,482.3,528.6,491.9,528.6z"/>
		<path fill="#FFFFFF" d="M521.8,528.6c8.3,0,12.8,6.1,12.8,13.7c0,0.8-0.2,2.8-0.2,2.8h-19.9c0.5,5,4.4,7.6,8.7,7.6
			c4.6,0,8.3-3.2,8.3-3.2l2.8,5.2c0,0-4.4,4.1-11.6,4.1c-9.6,0-15.5-6.9-15.5-15.1C507.1,534.8,513.2,528.6,521.8,528.6z
			 M527.4,540.1c-0.1-3.9-2.5-6-5.7-6c-3.7,0-6.2,2.3-6.9,6H527.4z"/>
		<path fill="#FFFFFF" d="M551.6,528.6c6.3,0,8.3,3.7,8.3,3.7h0.1c0,0-0.1-0.7-0.1-1.6v-12.7h7.2v40.2h-6.8v-2.4
			c0-1.1,0.1-1.9,0.1-1.9h-0.1c0,0-2.4,4.9-9.1,4.9c-7.8,0-12.8-6.2-12.8-15.1C538.6,534.5,544,528.6,551.6,528.6z M553,552.7
			c3.7,0,7.3-2.7,7.3-9.1c0-4.5-2.4-8.9-7.2-8.9c-4,0-7.3,3.2-7.3,8.9C545.8,549.2,548.8,552.7,553,552.7z"/>
		<path fill="#FFFFFF" d="M587.8,528.6c8.3,0,12.8,6.1,12.8,13.7c0,0.8-0.2,2.8-0.2,2.8h-19.9c0.5,5,4.4,7.6,8.7,7.6
			c4.6,0,8.3-3.2,8.3-3.2l2.8,5.2c0,0-4.4,4.1-11.6,4.1c-9.6,0-15.5-6.9-15.5-15.1C573.1,534.8,579.2,528.6,587.8,528.6z
			 M593.3,540.1c-0.1-3.9-2.5-6-5.7-6c-3.7,0-6.2,2.3-6.9,6H593.3z"/>
		<path fill="#FFFFFF" d="M607.4,549.5c0,0,3.2,3.2,7.9,3.2c2,0,3.8-0.9,3.8-2.6c0-4.3-14-3.7-14-13c0-5.4,4.8-8.5,11-8.5
			c6.5,0,9.7,3.3,9.7,3.3l-2.7,5.3c0,0-2.7-2.5-7.1-2.5c-1.9,0-3.7,0.8-3.7,2.6c0,4.1,14,3.6,14,12.9c0,4.8-4.2,8.7-11,8.7
			c-7.2,0-11.2-4.2-11.2-4.2L607.4,549.5z"/>
		<path fill="#FFFFFF" d="M347.1,596.6h1v-0.4c0-3.8-2.4-5.1-5.6-5.1c-4.1,0-7.9,2.8-7.9,2.8l-2.7-5.2c0,0,4.5-3.6,11.3-3.6
			c7.6,0,12,4.2,12,11.5v18.1h-6.6v-2.4c0-1.1,0.1-2,0.1-2h-0.1c0.1,0-2.2,5.1-8.8,5.1c-5.2,0-9.8-3.2-9.8-9
			C330,597.3,342.4,596.6,347.1,596.6z M341.6,609.8c3.8,0,6.5-4.1,6.5-7.6v-0.7h-1.2c-3.7,0-9.6,0.5-9.6,4.5
			C337.3,608,338.7,609.8,341.6,609.8z"/>
		<path fill="#FFFFFF" d="M376.1,574.5h7.1v30.1c0,3.2,1.1,4,2.9,4c0.6,0,1.1-0.1,1.1-0.1v6.3c0,0-1.1,0.2-2.3,0.2
			c-4,0-8.9-1-8.9-9.3V574.5z"/>
		<path fill="#FFFFFF" d="M406.3,585.2c8.8,0,15.9,6.3,15.9,15.1c0,8.9-7.1,15.1-15.9,15.1c-8.8,0-15.9-6.2-15.9-15.1
			C390.4,591.5,397.5,585.2,406.3,585.2z M406.3,609.3c4.6,0,8.6-3.6,8.6-9c0-5.3-3.9-9-8.6-9c-4.7,0-8.6,3.7-8.6,9
			C397.7,605.7,401.6,609.3,406.3,609.3z"/>
		<path fill="#FFFFFF" d="M428.8,606.2c0,0,3.2,3.2,7.9,3.2c2,0,3.8-0.9,3.8-2.6c0-4.3-14-3.7-14-13c0-5.4,4.8-8.5,11-8.5
			c6.5,0,9.7,3.3,9.7,3.3l-2.7,5.3c0,0-2.7-2.5-7.1-2.5c-1.9,0-3.7,0.8-3.7,2.6c0,4.1,14,3.6,14,12.9c0,4.8-4.2,8.7-11,8.7
			c-7.2,0-11.2-4.2-11.2-4.2L428.8,606.2z"/>
		<path fill="#FFFFFF" d="M467.3,574.5h7.2v12.4c0,1.4-0.1,2.4-0.1,2.4h0.1c0,0,2.5-4.2,8.7-4.2c7.8,0,12.8,6.2,12.8,15.1
			c0,9.2-5.6,15.1-13.3,15.1c-6,0-8.6-4.3-8.6-4.3H474c0,0,0.1,0.8,0.1,2v1.6h-6.8V574.5z M481.5,609.4c4,0,7.3-3.2,7.3-8.9
			c0-5.5-2.9-9.1-7.2-9.1c-3.7,0-7.3,2.7-7.3,9.1C474.3,605,476.7,609.4,481.5,609.4z"/>
		<path fill="#FFFFFF" d="M514.5,585.2c8.3,0,12.8,6.1,12.8,13.7c0,0.8-0.2,2.8-0.2,2.8h-19.9c0.5,5,4.4,7.6,8.7,7.6
			c4.6,0,8.3-3.2,8.3-3.2l2.8,5.2c0,0-4.4,4.1-11.6,4.1c-9.6,0-15.5-6.9-15.5-15.1C499.9,591.4,505.9,585.2,514.5,585.2z
			 M520.1,596.7c-0.1-3.9-2.5-6-5.7-6c-3.7,0-6.2,2.3-6.9,6H520.1z"/>
		<path fill="#FFFFFF" d="M533.3,585.9h6.9v3.3c0,1.1-0.1,2-0.1,2h0.1c1.2-2.4,4.4-6,10.3-6c6.4,0,10,3.3,10,11v18.6h-7.1v-17.1
			c0-3.5-0.9-5.9-4.6-5.9c-3.9,0-6.7,2.4-7.8,5.9c-0.4,1.2-0.5,2.5-0.5,3.9v13.3h-7.2V585.9z"/>
		<path fill="#FFFFFF" d="M580.6,585.2c8.3,0,12.8,6.1,12.8,13.7c0,0.8-0.2,2.8-0.2,2.8h-19.9c0.5,5,4.4,7.6,8.7,7.6
			c4.6,0,8.3-3.2,8.3-3.2l2.8,5.2c0,0-4.4,4.1-11.6,4.1c-9.6,0-15.5-6.9-15.5-15.1C566,591.4,572,585.2,580.6,585.2z M586.2,596.7
			c-0.1-3.9-2.5-6-5.7-6c-3.7,0-6.2,2.3-6.9,6H586.2z"/>
		<path fill="#FFFFFF" d="M619,591.6h-11v23.2h-7.2v-23.2h-3.6v-5.7h3.6V585c0-9.5,7.8-10.7,11.8-10.7c1.5,0,2.4,0.2,2.4,0.2v6.1
			c0,0-0.6-0.1-1.5-0.1c-2,0-5.6,0.5-5.6,4.7v0.7h18.2v28.9H619V591.6z M619,574.5h7.1v6.4H619V574.5z"/>
		<path fill="#FFFFFF" d="M647.8,585.2c7.5,0,11.1,4.3,11.1,4.3l-3.2,4.9c0,0-3-3.1-7.5-3.1c-5.3,0-8.8,4-8.8,8.9
			c0,4.9,3.5,9.1,9,9.1c4.9,0,8.5-3.7,8.5-3.7l2.8,5.1c0,0-4.1,4.7-11.9,4.7c-9.6,0-15.7-6.7-15.7-15.1
			C632.1,592.1,638.2,585.2,647.8,585.2z"/>
		<path fill="#FFFFFF" d="M665,574.5h7.1v6.4H665V574.5z M665,585.9h7.2v28.9H665V585.9z"/>
		<path fill="#FFFFFF" d="M693.9,585.2c8.8,0,15.9,6.3,15.9,15.1c0,8.9-7.1,15.1-15.9,15.1c-8.8,0-15.9-6.2-15.9-15.1
			C678,591.5,685.1,585.2,693.9,585.2z M693.9,609.3c4.6,0,8.6-3.6,8.6-9c0-5.3-3.9-9-8.6-9c-4.7,0-8.6,3.7-8.6,9
			C685.3,605.7,689.2,609.3,693.9,609.3z"/>
		<path fill="#FFFFFF" d="M716.4,606.2c0,0,3.2,3.2,7.9,3.2c2,0,3.8-0.9,3.8-2.6c0-4.3-14-3.7-14-13c0-5.4,4.8-8.5,11-8.5
			c6.5,0,9.7,3.3,9.7,3.3l-2.7,5.3c0,0-2.7-2.5-7.1-2.5c-1.9,0-3.7,0.8-3.7,2.6c0,4.1,14,3.6,14,12.9c0,4.8-4.2,8.7-11,8.7
			c-7.2,0-11.2-4.2-11.2-4.2L716.4,606.2z"/>
		<path fill="#FFFFFF" d="M333.9,648.7h-3.6V643h3.6v-1.3c0-9.5,7.8-10.7,11.8-10.7c1.5,0,2.4,0.2,2.4,0.2v6.1c0,0-0.6-0.1-1.5-0.1
			c-2,0-5.6,0.5-5.6,4.7v1.1h6.2v5.7h-6.2v22.7h-7.2V648.7z"/>
		<path fill="#FFFFFF" d="M366.8,653.3h1v-0.4c0-3.8-2.4-5.1-5.6-5.1c-4.1,0-7.9,2.8-7.9,2.8l-2.7-5.2c0,0,4.5-3.6,11.3-3.6
			c7.6,0,12,4.2,12,11.5v18.1h-6.6V669c0-1.1,0.1-2,0.1-2h-0.1c0.1,0-2.2,5.1-8.8,5.1c-5.2,0-9.8-3.2-9.8-9
			C349.7,653.9,362.1,653.3,366.8,653.3z M361.3,666.5c3.8,0,6.5-4.1,6.5-7.6v-0.7h-1.2c-3.7,0-9.6,0.5-9.6,4.5
			C356.9,664.7,358.3,666.5,361.3,666.5z"/>
		<path fill="#FFFFFF" d="M382.4,642.5h6.9v3.3c0,1.1-0.1,2-0.1,2h0.1c1.4-2.8,4.9-6,9.4-6c4.4,0,7.3,2,8.4,5.9h0.1
			c1.6-3.1,5.3-5.9,9.9-5.9c6,0,9.5,3.4,9.5,11v18.6h-7.2v-17.2c0-3.3-0.6-5.8-4-5.8c-3.7,0-6.1,2.9-7,6.6c-0.3,1.1-0.3,2.4-0.3,3.7
			v12.7h-7.2v-17.2c0-3.1-0.5-5.8-3.9-5.8c-3.7,0-6.2,2.9-7.1,6.6c-0.3,1.1-0.3,2.4-0.3,3.7v12.7h-7.2V642.5z"/>
		<path fill="#FFFFFF" d="M434.1,631.2h7.1v6.4h-7.1V631.2z M434.1,642.5h7.2v28.9h-7.2V642.5z"/>
		<path fill="#FFFFFF" d="M448.8,631.2h7.1v30.1c0,3.2,1.1,4,2.9,4c0.6,0,1.1-0.1,1.1-0.1v6.3c0,0-1.1,0.2-2.3,0.2
			c-4,0-8.9-1-8.9-9.3V631.2z"/>
		<path fill="#FFFFFF" d="M465.3,631.2h7.1v6.4h-7.1V631.2z M465.3,642.5h7.2v28.9h-7.2V642.5z"/>
		<path fill="#FFFFFF" d="M495.1,653.3h1v-0.4c0-3.8-2.4-5.1-5.6-5.1c-4.1,0-7.9,2.8-7.9,2.8l-2.7-5.2c0,0,4.5-3.6,11.3-3.6
			c7.6,0,12,4.2,12,11.5v18.1h-6.6V669c0-1.1,0.1-2,0.1-2h-0.1c0.1,0-2.2,5.1-8.8,5.1c-5.2,0-9.8-3.2-9.8-9
			C478,653.9,490.4,653.3,495.1,653.3z M489.6,666.5c3.8,0,6.5-4.1,6.5-7.6v-0.7h-1.2c-3.7,0-9.6,0.5-9.6,4.5
			C485.2,664.7,486.6,666.5,489.6,666.5z"/>
		<path fill="#FFFFFF" d="M510.6,642.5h6.9v5c0,1.1-0.1,2-0.1,2h0.1c1.3-4.1,4.8-7.4,9.2-7.4c0.7,0,1.3,0.1,1.3,0.1v7.1
			c0,0-0.7-0.1-1.7-0.1c-3.1,0-6.5,1.8-7.9,6.1c-0.5,1.4-0.6,3-0.6,4.7v11.4h-7.2V642.5z"/>
		<path fill="#FFFFFF" d="M545.5,641.8c8.3,0,12.8,6.1,12.8,13.7c0,0.8-0.2,2.8-0.2,2.8h-19.9c0.5,5,4.4,7.6,8.7,7.6
			c4.6,0,8.3-3.2,8.3-3.2l2.8,5.2c0,0-4.4,4.1-11.6,4.1c-9.6,0-15.5-6.9-15.5-15.1C530.9,648.1,536.9,641.8,545.5,641.8z
			 M551.1,653.4c-0.1-3.9-2.5-6-5.7-6c-3.7,0-6.2,2.3-6.9,6H551.1z"/>
		<path fill="#FFFFFF" d="M565.1,662.8c0,0,3.2,3.2,7.9,3.2c2,0,3.8-0.9,3.8-2.6c0-4.3-14-3.7-14-13c0-5.4,4.8-8.5,11-8.5
			c6.5,0,9.7,3.3,9.7,3.3l-2.7,5.3c0,0-2.7-2.5-7.1-2.5c-1.9,0-3.7,0.8-3.7,2.6c0,4.1,14,3.6,14,12.9c0,4.8-4.2,8.7-11,8.7
			c-7.2,0-11.2-4.2-11.2-4.2L565.1,662.8z"/>
	</g>
</g>
</svg>
