<?xml version="1.0" encoding="utf-8"?>
<!-- Generator: Adobe Illustrator 18.0.0, SVG Export Plug-In . SVG Version: 6.00 Build 0)  -->
<!DOCTYPE svg PUBLIC "-//W3C//DTD SVG 1.1//EN" "http://www.w3.org/Graphics/SVG/1.1/DTD/svg11.dtd" [
	<!ENTITY ns_extend "http://ns.adobe.com/Extensibility/1.0/">
	<!ENTITY ns_ai "http://ns.adobe.com/AdobeIllustrator/10.0/">
	<!ENTITY ns_graphs "http://ns.adobe.com/Graphs/1.0/">
	<!ENTITY ns_vars "http://ns.adobe.com/Variables/1.0/">
	<!ENTITY ns_imrep "http://ns.adobe.com/ImageReplacement/1.0/">
	<!ENTITY ns_sfw "http://ns.adobe.com/SaveForWeb/1.0/">
	<!ENTITY ns_custom "http://ns.adobe.com/GenericCustomNamespace/1.0/">
	<!ENTITY ns_adobe_xpath "http://ns.adobe.com/XPath/1.0/">
]>
<svg version="1.1" id="Capa_1" xmlns:x="&ns_extend;" xmlns:i="&ns_ai;" xmlns:graph="&ns_graphs;"
	 xmlns="http://www.w3.org/2000/svg" xmlns:xlink="http://www.w3.org/1999/xlink" x="0px" y="0px" viewBox="7 0 527 227"
	 enable-background="new 7 0 527 227" xml:space="preserve">
<metadata>
	<sfw  xmlns="&ns_sfw;">
		<slices></slices>
		<sliceSourceBounds  width="524.8" height="212.9" x="7.7" y="-30.9" bottomLeftOrigin="true"></sliceSourceBounds>
	</sfw>
</metadata>
<g id="bg">
</g>
<g id="banner_1" display="none">
</g>
<g id="banner_2">
</g>
<g id="cabecera">
</g>
<g id="COL" display="none">
</g>
<g id="FILA" display="none">
</g>
<g>
	<g>
		<path fill="#FFFFFF" d="M33.2,16h-9.5v28.1h-6.7V16H7.7v-5.1h25.5V16z"/>
		<path fill="#FFFFFF" d="M45,44.5c-3.7,0-6.6-1.1-8.6-3.4c-2.1-2.3-3.1-5.2-3.1-8.7v-0.9c0-3.7,1-6.7,3-9.1c2-2.4,4.8-3.5,8.3-3.5
			c3.3,0,5.9,1,7.6,3c1.8,2,2.7,4.8,2.7,8.2v3.4H40.2l-0.1,0.1c0.1,1.7,0.6,3.1,1.5,4.1c0.9,1,2.3,1.6,4.1,1.6
			c1.5,0,2.8-0.2,3.8-0.5c1-0.3,2.1-0.8,3.2-1.4l1.8,4.1c-1,0.8-2.3,1.5-4,2C48.9,44.3,47,44.5,45,44.5z M44.6,24.1
			c-1.3,0-2.4,0.5-3.1,1.4c-0.7,0.9-1.2,2.1-1.3,3.7l0,0.1h8.1v-0.5c0-1.4-0.3-2.6-0.9-3.4C46.9,24.5,45.9,24.1,44.6,24.1z"/>
		<path fill="#FFFFFF" d="M64.8,19.4l0.3,3.5c0.8-1.3,1.8-2.2,3-2.9c1.2-0.7,2.5-1,4-1c2.5,0,4.4,0.8,5.8,2.4
			c1.4,1.6,2.1,4.1,2.1,7.6v15.1h-6.7V29c0-1.8-0.3-3-0.9-3.8c-0.6-0.7-1.5-1.1-2.8-1.1c-1,0-1.9,0.2-2.6,0.6
			c-0.8,0.4-1.4,0.9-1.9,1.5v17.9h-6.7V19.4H64.8z"/>
		<path fill="#FFFFFF" d="M95.8,44.5c-3.7,0-6.6-1.1-8.6-3.4c-2.1-2.3-3.1-5.2-3.1-8.7v-0.9c0-3.7,1-6.7,3-9.1
			c2-2.4,4.8-3.5,8.3-3.5c3.3,0,5.9,1,7.6,3c1.8,2,2.7,4.8,2.7,8.2v3.4H91l-0.1,0.1c0.1,1.7,0.6,3.1,1.5,4.1c0.9,1,2.3,1.6,4.1,1.6
			c1.5,0,2.8-0.2,3.8-0.5c1-0.3,2.1-0.8,3.2-1.4l1.8,4.1c-1,0.8-2.3,1.5-4,2S97.8,44.5,95.8,44.5z M95.4,24.1
			c-1.3,0-2.4,0.5-3.1,1.4s-1.2,2.1-1.3,3.7l0,0.1h8.1v-0.5c0-1.4-0.3-2.6-0.9-3.4C97.7,24.5,96.7,24.1,95.4,24.1z"/>
		<path fill="#FFFFFF" d="M115.7,19.4l0.3,3.3c0.8-1.2,1.8-2.1,3-2.7c1.2-0.6,2.6-1,4.1-1c1.6,0,2.9,0.4,4.1,1
			c1.1,0.7,2,1.8,2.6,3.2c0.8-1.3,1.7-2.4,3-3.1c1.2-0.7,2.6-1.1,4.3-1.1c2.4,0,4.4,0.9,5.8,2.6c1.4,1.7,2.1,4.4,2.1,7.9v14.6h-6.7
			V29.4c0-2-0.3-3.4-0.9-4.1s-1.5-1.2-2.7-1.2c-0.9,0-1.8,0.2-2.5,0.6s-1.2,1-1.7,1.7c0,0.3,0,0.5,0,0.7c0,0.2,0,0.4,0,0.6v16.2
			h-6.6V29.4c0-1.9-0.3-3.3-0.9-4.1c-0.6-0.8-1.5-1.2-2.7-1.2c-0.9,0-1.7,0.2-2.4,0.5s-1.2,0.8-1.7,1.4v18h-6.6V19.4H115.7z"/>
		<path fill="#FFFFFF" d="M148.9,31.5c0-3.7,1-6.7,3.1-9s4.9-3.5,8.5-3.5c3.6,0,6.5,1.2,8.6,3.5c2.1,2.3,3.1,5.4,3.1,9.1V32
			c0,3.7-1,6.7-3.1,9.1c-2.1,2.3-4.9,3.5-8.5,3.5c-3.6,0-6.5-1.2-8.6-3.5c-2.1-2.3-3.1-5.4-3.1-9.1V31.5z M155.6,32
			c0,2.3,0.4,4.1,1.2,5.4c0.8,1.4,2.1,2,3.8,2c1.7,0,3-0.7,3.8-2.1c0.8-1.4,1.2-3.2,1.2-5.4v-0.5c0-2.2-0.4-4-1.2-5.4
			c-0.8-1.4-2.1-2.1-3.8-2.1c-1.7,0-3,0.7-3.8,2.1c-0.8,1.4-1.2,3.2-1.2,5.3V32z"/>
		<path fill="#FFFFFF" d="M189.7,37.2c0-0.7-0.4-1.4-1.1-1.9s-2-1-3.9-1.4c-2.9-0.6-5.1-1.5-6.6-2.6s-2.2-2.8-2.2-4.8
			c0-2.1,0.9-3.9,2.7-5.4s4.2-2.2,7.2-2.2c3.1,0,5.6,0.7,7.5,2.2s2.8,3.3,2.7,5.6l0,0.1h-6.4c0-1-0.3-1.8-1-2.4s-1.6-0.9-2.8-0.9
			c-1.1,0-1.9,0.3-2.5,0.8c-0.6,0.5-0.9,1.2-0.9,2c0,0.8,0.3,1.4,1,1.9c0.6,0.5,2,0.9,3.9,1.3c3,0.6,5.3,1.5,6.8,2.7
			c1.5,1.2,2.2,2.8,2.2,4.9c0,2.2-1,4-2.9,5.5c-1.9,1.4-4.4,2.1-7.5,2.1c-3.3,0-5.9-0.8-7.8-2.5c-1.9-1.7-2.8-3.6-2.7-5.7l0-0.1h6.1
			c0,1.3,0.5,2.3,1.3,2.9c0.8,0.6,1.9,0.9,3.2,0.9c1.2,0,2.2-0.2,2.8-0.7C189.3,38.7,189.7,38.1,189.7,37.2z"/>
		<path fill="#FFFFFF" d="M234.3,32.4c0,3.7-0.8,6.6-2.5,8.8c-1.6,2.2-4,3.3-7.1,3.3c-1.4,0-2.7-0.3-3.8-0.9c-1.1-0.6-2-1.5-2.7-2.7
			l-0.5,3.1H212V8.5h6.6V22c0.7-1,1.6-1.7,2.6-2.3s2.1-0.8,3.4-0.8c3.1,0,5.5,1.2,7.2,3.5c1.6,2.4,2.5,5.5,2.5,9.5V32.4z
			 M227.7,31.9c0-2.4-0.4-4.3-1.1-5.7s-1.9-2.1-3.6-2.1c-1,0-1.9,0.2-2.6,0.6c-0.7,0.4-1.3,1.1-1.7,1.9v10.4c0.4,0.7,1,1.3,1.7,1.7
			s1.6,0.6,2.7,0.6c1.7,0,2.9-0.6,3.6-1.8c0.7-1.2,1-2.9,1-5.1V31.9z"/>
		<path fill="#FFFFFF" d="M249.1,44.5c-3.7,0-6.6-1.1-8.6-3.4c-2.1-2.3-3.1-5.2-3.1-8.7v-0.9c0-3.7,1-6.7,3-9.1
			c2-2.4,4.8-3.5,8.3-3.5c3.3,0,5.9,1,7.6,3s2.7,4.8,2.7,8.2v3.4h-14.7l-0.1,0.1c0.1,1.7,0.6,3.1,1.5,4.1c0.9,1,2.3,1.6,4.1,1.6
			c1.5,0,2.8-0.2,3.8-0.5s2.1-0.8,3.2-1.4l1.8,4.1c-1,0.8-2.3,1.5-4,2S251.1,44.5,249.1,44.5z M248.7,24.1c-1.3,0-2.4,0.5-3.1,1.4
			s-1.2,2.1-1.3,3.7l0,0.1h8.1v-0.5c0-1.4-0.3-2.6-0.9-3.4C250.9,24.5,250,24.1,248.7,24.1z"/>
		<path fill="#FFFFFF" d="M268.9,19.4l0.3,3.5c0.8-1.3,1.8-2.2,3-2.9c1.2-0.7,2.5-1,4-1c2.5,0,4.4,0.8,5.8,2.4
			c1.4,1.6,2.1,4.1,2.1,7.6v15.1h-6.7V29c0-1.8-0.3-3-0.9-3.8c-0.6-0.7-1.5-1.1-2.8-1.1c-1,0-1.9,0.2-2.6,0.6
			c-0.8,0.4-1.4,0.9-1.9,1.5v17.9h-6.7V19.4H268.9z"/>
		<path fill="#FFFFFF" d="M299.9,44.5c-3.7,0-6.6-1.1-8.6-3.4c-2.1-2.3-3.1-5.2-3.1-8.7v-0.9c0-3.7,1-6.7,3-9.1
			c2-2.4,4.8-3.5,8.3-3.5c3.3,0,5.9,1,7.6,3s2.7,4.8,2.7,8.2v3.4H295l-0.1,0.1c0.1,1.7,0.6,3.1,1.5,4.1c0.9,1,2.3,1.6,4.1,1.6
			c1.5,0,2.8-0.2,3.8-0.5s2.1-0.8,3.2-1.4l1.8,4.1c-1,0.8-2.3,1.5-4,2C303.7,44.3,301.9,44.5,299.9,44.5z M299.5,24.1
			c-1.3,0-2.4,0.5-3.1,1.4c-0.7,0.9-1.2,2.1-1.3,3.7l0,0.1h8.1v-0.5c0-1.4-0.3-2.6-0.9-3.4C301.7,24.5,300.8,24.1,299.5,24.1z"/>
		<path fill="#FFFFFF" d="M315.2,44.1v-20h-3.7v-4.7h3.7v-1.7c0-3.1,0.9-5.5,2.8-7.2c1.9-1.7,4.6-2.5,8-2.5c1.2,0,2.4,0.1,3.5,0.4
			c1.2,0.2,2.5,0.6,4,1l-1,5.2c-1.1-0.3-2.1-0.6-3-0.8c-0.9-0.2-1.9-0.3-3.1-0.3c-1.5,0-2.7,0.4-3.5,1c-0.8,0.7-1.2,1.7-1.2,3.1v1.7
			h4.9v4.7h-4.9v20H315.2z M336.6,44.1H330V19.4h6.7V44.1z"/>
		<path fill="#FFFFFF" d="M352.4,39.4c1.2,0,2.1-0.3,2.8-1s1-1.6,1-2.8h6.1l0,0.1c0.1,2.5-0.9,4.6-2.8,6.3s-4.3,2.5-7.1,2.5
			c-3.6,0-6.5-1.2-8.5-3.5c-2-2.3-3-5.3-3-9v-0.7c0-3.6,1-6.6,3-9s4.8-3.5,8.4-3.5c3,0,5.4,0.9,7.3,2.6s2.7,4,2.7,6.8l0,0.1h-6.1
			c0-1.3-0.3-2.3-1-3.2s-1.6-1.3-2.8-1.3c-1.7,0-2.9,0.7-3.7,2.1s-1.1,3.1-1.1,5.3v0.7c0,2.2,0.4,4,1.1,5.3
			C349.4,38.7,350.7,39.4,352.4,39.4z"/>
		<path fill="#FFFFFF" d="M373.2,13.5h-6.7v-5h6.7V13.5z M373.2,44.1h-6.7V19.4h6.7V44.1z"/>
		<path fill="#FFFFFF" d="M377.6,31.5c0-3.7,1-6.7,3.1-9s4.9-3.5,8.5-3.5c3.6,0,6.5,1.2,8.6,3.5c2.1,2.3,3.1,5.4,3.1,9.1V32
			c0,3.7-1,6.7-3.1,9.1c-2.1,2.3-4.9,3.5-8.5,3.5c-3.6,0-6.5-1.2-8.6-3.5c-2.1-2.3-3.1-5.4-3.1-9.1V31.5z M384.3,32
			c0,2.3,0.4,4.1,1.2,5.4c0.8,1.4,2.1,2,3.8,2c1.7,0,3-0.7,3.8-2.1c0.8-1.4,1.2-3.2,1.2-5.4v-0.5c0-2.2-0.4-4-1.2-5.4
			c-0.8-1.4-2.1-2.1-3.8-2.1c-1.7,0-3,0.7-3.8,2.1c-0.8,1.4-1.2,3.2-1.2,5.3V32z"/>
		<path fill="#FFFFFF" d="M418.4,37.2c0-0.7-0.4-1.4-1.1-1.9s-2-1-3.9-1.4c-2.9-0.6-5.1-1.5-6.6-2.6c-1.5-1.2-2.2-2.8-2.2-4.8
			c0-2.1,0.9-3.9,2.7-5.4s4.2-2.2,7.2-2.2c3.1,0,5.6,0.7,7.5,2.2s2.8,3.3,2.7,5.6l0,0.1h-6.4c0-1-0.3-1.8-1-2.4s-1.6-0.9-2.8-0.9
			c-1.1,0-1.9,0.3-2.5,0.8c-0.6,0.5-0.9,1.2-0.9,2c0,0.8,0.3,1.4,1,1.9c0.6,0.5,2,0.9,3.9,1.3c3,0.6,5.3,1.5,6.8,2.7
			c1.5,1.2,2.2,2.8,2.2,4.9c0,2.2-1,4-2.9,5.5s-4.4,2.1-7.5,2.1c-3.3,0-5.9-0.8-7.8-2.5c-1.9-1.7-2.8-3.6-2.7-5.7l0-0.1h6.1
			c0,1.3,0.5,2.3,1.3,2.9c0.8,0.6,1.9,0.9,3.2,0.9c1.2,0,2.2-0.2,2.8-0.7C418,38.7,418.4,38.1,418.4,37.2z"/>
		<path fill="#FFFFFF" d="M20.3,93.5c-3.7,0-6.6-1.1-8.6-3.4c-2.1-2.3-3.1-5.2-3.1-8.7v-0.9c0-3.7,1-6.7,3-9.1
			c2-2.4,4.8-3.5,8.3-3.5c3.3,0,5.9,1,7.6,3s2.7,4.8,2.7,8.2v3.4H15.4l-0.1,0.1c0.1,1.7,0.6,3.1,1.5,4.1c0.9,1,2.3,1.6,4.1,1.6
			c1.5,0,2.8-0.2,3.8-0.5s2.1-0.8,3.2-1.4l1.8,4.1c-1,0.8-2.3,1.5-4,2S22.2,93.5,20.3,93.5z M19.8,73.1c-1.3,0-2.4,0.5-3.1,1.4
			s-1.2,2.1-1.3,3.7l0,0.1h8.1v-0.5c0-1.4-0.3-2.6-0.9-3.4C22.1,73.5,21.1,73.1,19.8,73.1z"/>
		<path fill="#FFFFFF" d="M43.3,76.2h0.1l3.8-7.8h7.5l-7.4,12.2L55,93.1h-7.5l-4-8.2l-4,8.2h-7.5l7.7-12.5l-7.5-12.2h7.5L43.3,76.2z
			"/>
		<path fill="#FFFFFF" d="M67.7,88.4c1.2,0,2.1-0.3,2.8-1s1-1.6,1-2.8h6.1l0,0.1c0.1,2.5-0.9,4.6-2.8,6.3s-4.3,2.5-7.1,2.5
			c-3.6,0-6.5-1.2-8.5-3.5c-2-2.3-3-5.3-3-9v-0.7c0-3.6,1-6.6,3-9c2-2.3,4.8-3.5,8.4-3.5c3,0,5.4,0.9,7.3,2.6c1.8,1.7,2.7,4,2.7,6.8
			l0,0.1h-6.1c0-1.3-0.3-2.3-1-3.2s-1.6-1.3-2.8-1.3c-1.7,0-2.9,0.7-3.7,2.1s-1.1,3.1-1.1,5.3v0.7c0,2.2,0.4,4,1.1,5.3
			C64.7,87.7,65.9,88.4,67.7,88.4z"/>
		<path fill="#FFFFFF" d="M88.5,93.1h-6.7V57.5h6.7V93.1z"/>
		<path fill="#FFFFFF" d="M109.1,89.4c-0.8,1.3-1.7,2.3-2.9,3.1c-1.2,0.7-2.5,1.1-4.1,1.1c-2.6,0-4.6-0.9-6.1-2.6
			c-1.5-1.8-2.2-4.5-2.2-8.2V68.4h6.6v14.3c0,2.2,0.3,3.6,0.9,4.4c0.6,0.8,1.5,1.2,2.7,1.2c1.1,0,2-0.2,2.7-0.5s1.4-0.8,1.9-1.5
			V68.4h6.7v24.7h-5.5L109.1,89.4z"/>
		<path fill="#FFFFFF" d="M133.6,86.2c0-0.7-0.4-1.4-1.1-1.9s-2-1-3.9-1.4c-2.9-0.6-5.1-1.5-6.6-2.6s-2.2-2.8-2.2-4.8
			c0-2.1,0.9-3.9,2.7-5.4s4.2-2.2,7.2-2.2c3.1,0,5.6,0.7,7.5,2.2s2.8,3.3,2.7,5.6l0,0.1h-6.4c0-1-0.3-1.8-1-2.4s-1.6-0.9-2.8-0.9
			c-1.1,0-1.9,0.3-2.5,0.8c-0.6,0.5-0.9,1.2-0.9,2c0,0.8,0.3,1.4,1,1.9c0.6,0.5,2,0.9,3.9,1.3c3,0.6,5.3,1.5,6.8,2.7
			c1.5,1.2,2.2,2.8,2.2,4.9c0,2.2-1,4-2.9,5.5c-1.9,1.4-4.4,2.1-7.5,2.1c-3.3,0-5.9-0.8-7.8-2.5c-1.9-1.7-2.8-3.6-2.7-5.7l0-0.1h6.1
			c0,1.3,0.5,2.3,1.3,2.9c0.8,0.6,1.9,0.9,3.2,0.9c1.2,0,2.2-0.2,2.8-0.7C133.3,87.7,133.6,87.1,133.6,86.2z"/>
		<path fill="#FFFFFF" d="M151.4,62.5h-6.7v-5h6.7V62.5z M151.4,93.1h-6.7V68.4h6.7V93.1z"/>
		<path fill="#FFFFFF" d="M165.8,83.9l0.4,2.3h0.1l0.5-2.3l4.1-15.5h7l-8.4,24.7h-6.4l-8.4-24.7h7L165.8,83.9z"/>
		<path fill="#FFFFFF" d="M179.4,80.5c0-3.7,1-6.7,3.1-9c2.1-2.3,4.9-3.5,8.5-3.5c3.6,0,6.5,1.2,8.6,3.5c2.1,2.3,3.1,5.4,3.1,9.1V81
			c0,3.7-1,6.7-3.1,9.1c-2.1,2.3-4.9,3.5-8.5,3.5c-3.6,0-6.5-1.2-8.6-3.5c-2.1-2.3-3.1-5.4-3.1-9.1V80.5z M186,81
			c0,2.3,0.4,4.1,1.2,5.4s2.1,2,3.8,2c1.7,0,3-0.7,3.8-2.1c0.8-1.4,1.2-3.2,1.2-5.4v-0.5c0-2.2-0.4-4-1.2-5.4
			c-0.8-1.4-2.1-2.1-3.8-2.1c-1.7,0-3,0.7-3.8,2.1c-0.8,1.4-1.2,3.2-1.2,5.3V81z"/>
		<path fill="#FFFFFF" d="M220.1,86.2c0-0.7-0.4-1.4-1.1-1.9s-2-1-3.9-1.4c-2.9-0.6-5.1-1.5-6.6-2.6s-2.2-2.8-2.2-4.8
			c0-2.1,0.9-3.9,2.7-5.4c1.8-1.5,4.2-2.2,7.2-2.2c3.1,0,5.6,0.7,7.5,2.2c1.9,1.5,2.8,3.3,2.7,5.6l0,0.1h-6.4c0-1-0.3-1.8-1-2.4
			c-0.6-0.6-1.6-0.9-2.8-0.9c-1.1,0-1.9,0.3-2.5,0.8s-0.9,1.2-0.9,2c0,0.8,0.3,1.4,1,1.9c0.6,0.5,2,0.9,3.9,1.3
			c3,0.6,5.3,1.5,6.8,2.7c1.5,1.2,2.2,2.8,2.2,4.9c0,2.2-1,4-2.9,5.5c-1.9,1.4-4.4,2.1-7.5,2.1c-3.3,0-5.9-0.8-7.8-2.5
			c-1.9-1.7-2.8-3.6-2.7-5.7l0-0.1h6.1c0,1.3,0.5,2.3,1.3,2.9c0.8,0.6,1.9,0.9,3.2,0.9c1.2,0,2.2-0.2,2.8-0.7
			C219.8,87.7,220.1,87.1,220.1,86.2z"/>
		<path fill="#FFFFFF" d="M264.7,81.4c0,3.6-0.8,6.6-2.5,8.8c-1.7,2.2-4,3.3-7.1,3.3c-1.3,0-2.4-0.2-3.4-0.7c-1-0.5-1.9-1.2-2.6-2.1
			v11.8h-6.6V68.4h6l0.4,2.9c0.7-1.1,1.6-1.9,2.6-2.5s2.2-0.9,3.6-0.9c3.1,0,5.4,1.2,7.1,3.6s2.5,5.5,2.5,9.4V81.4z M258.1,80.9
			c0-2.3-0.4-4.2-1.2-5.7c-0.8-1.4-2-2.2-3.6-2.2c-1,0-1.9,0.2-2.6,0.6c-0.7,0.4-1.3,1-1.7,1.8v10.8c0.4,0.7,1,1.2,1.7,1.6
			c0.7,0.4,1.6,0.5,2.6,0.5c1.6,0,2.8-0.6,3.5-1.9c0.8-1.3,1.1-3,1.1-5.1V80.9z"/>
		<path fill="#FFFFFF" d="M283.4,93.1c-0.2-0.6-0.5-1.2-0.6-1.8s-0.3-1.3-0.4-1.9c-0.7,1.2-1.6,2.2-2.7,3c-1.1,0.8-2.5,1.2-4,1.2
			c-2.6,0-4.6-0.7-6-2s-2.1-3.1-2.1-5.4c0-2.4,0.9-4.3,2.8-5.6c1.9-1.3,4.6-2,8.2-2h3.7v-2c0-1.2-0.3-2.1-0.9-2.8s-1.6-1-2.8-1
			c-1.1,0-1.9,0.3-2.5,0.8c-0.6,0.5-0.9,1.2-0.9,2.2h-6.4l0-0.1c-0.1-2.1,0.8-3.9,2.7-5.4c1.9-1.5,4.4-2.3,7.5-2.3
			c3,0,5.4,0.7,7.2,2.2s2.7,3.6,2.7,6.4v10.2c0,1.2,0.1,2.2,0.3,3.3c0.2,1,0.5,2,0.8,3H283.4z M277.3,88.6c1.2,0,2.2-0.3,3.1-0.9
			c0.9-0.6,1.5-1.2,1.9-2v-3.5h-3.7c-1.4,0-2.5,0.4-3.2,1c-0.7,0.7-1.1,1.6-1.1,2.6c0,0.8,0.3,1.5,0.8,2S276.3,88.6,277.3,88.6z"/>
		<path fill="#FFFFFF" d="M306.9,74.1l-2.4-0.1c-1,0-1.8,0.2-2.4,0.6c-0.6,0.4-1.1,1-1.5,1.7v16.7h-6.6V68.4h6.2l0.3,3.6
			c0.6-1.3,1.3-2.3,2.2-3s2-1.1,3.2-1.1c0.3,0,0.6,0,0.9,0.1c0.3,0.1,0.6,0.1,0.9,0.2L306.9,74.1z"/>
		<path fill="#FFFFFF" d="M324.9,93.1c-0.2-0.6-0.5-1.2-0.6-1.8s-0.3-1.3-0.4-1.9c-0.7,1.2-1.6,2.2-2.7,3c-1.1,0.8-2.5,1.2-4,1.2
			c-2.6,0-4.6-0.7-6-2s-2.1-3.1-2.1-5.4c0-2.4,0.9-4.3,2.8-5.6c1.9-1.3,4.6-2,8.2-2h3.7v-2c0-1.2-0.3-2.1-0.9-2.8s-1.6-1-2.8-1
			c-1.1,0-1.9,0.3-2.5,0.8c-0.6,0.5-0.9,1.2-0.9,2.2h-6.4l0-0.1c-0.1-2.1,0.8-3.9,2.7-5.4c1.9-1.5,4.4-2.3,7.5-2.3
			c3,0,5.4,0.7,7.2,2.2s2.7,3.6,2.7,6.4v10.2c0,1.2,0.1,2.2,0.3,3.3c0.2,1,0.5,2,0.8,3H324.9z M318.8,88.6c1.2,0,2.2-0.3,3.1-0.9
			c0.9-0.6,1.5-1.2,1.9-2v-3.5H320c-1.4,0-2.5,0.4-3.2,1c-0.7,0.7-1.1,1.6-1.1,2.6c0,0.8,0.3,1.5,0.8,2S317.9,88.6,318.8,88.6z"/>
		<path fill="#FFFFFF" d="M356,83.9l0.4,2.3h0.1l0.5-2.3l4.1-15.5h7l-8.4,24.7h-6.4l-8.4-24.7h7L356,83.9z"/>
		<path fill="#FFFFFF" d="M369.6,80.5c0-3.7,1-6.7,3.1-9c2.1-2.3,4.9-3.5,8.5-3.5c3.6,0,6.5,1.2,8.6,3.5c2.1,2.3,3.1,5.4,3.1,9.1V81
			c0,3.7-1,6.7-3.1,9.1c-2.1,2.3-4.9,3.5-8.5,3.5c-3.6,0-6.5-1.2-8.6-3.5c-2.1-2.3-3.1-5.4-3.1-9.1V80.5z M376.2,81
			c0,2.3,0.4,4.1,1.2,5.4s2.1,2,3.8,2c1.7,0,3-0.7,3.8-2.1c0.8-1.4,1.2-3.2,1.2-5.4v-0.5c0-2.2-0.4-4-1.2-5.4
			c-0.8-1.4-2.1-2.1-3.8-2.1c-1.7,0-3,0.7-3.8,2.1c-0.8,1.4-1.2,3.2-1.2,5.3V81z"/>
		<path fill="#FFFFFF" d="M410.3,86.2c0-0.7-0.4-1.4-1.1-1.9s-2-1-3.9-1.4c-2.9-0.6-5.1-1.5-6.6-2.6s-2.2-2.8-2.2-4.8
			c0-2.1,0.9-3.9,2.7-5.4c1.8-1.5,4.2-2.2,7.2-2.2c3.1,0,5.6,0.7,7.5,2.2c1.9,1.5,2.8,3.3,2.7,5.6l0,0.1H410c0-1-0.3-1.8-1-2.4
			c-0.6-0.6-1.6-0.9-2.8-0.9c-1.1,0-1.9,0.3-2.5,0.8c-0.6,0.5-0.9,1.2-0.9,2c0,0.8,0.3,1.4,1,1.9c0.6,0.5,2,0.9,3.9,1.3
			c3,0.6,5.3,1.5,6.8,2.7c1.5,1.2,2.2,2.8,2.2,4.9c0,2.2-1,4-2.9,5.5s-4.4,2.1-7.5,2.1c-3.3,0-5.9-0.8-7.8-2.5
			c-1.9-1.7-2.8-3.6-2.7-5.7l0-0.1h6.1c0,1.3,0.5,2.3,1.3,2.9c0.8,0.6,1.9,0.9,3.2,0.9c1.2,0,2.2-0.2,2.8-0.7
			C410,87.7,410.3,87.1,410.3,86.2z"/>
		<path fill="#FFFFFF" d="M13.6,136.1v9.2h-4v-24.2h9.3c2.7,0,4.8,0.7,6.3,2.1c1.5,1.4,2.3,3.2,2.3,5.4c0,2.3-0.8,4.1-2.3,5.4
			c-1.5,1.4-3.6,2-6.3,2H13.6z M13.6,132.9h5.2c1.5,0,2.6-0.4,3.4-1.2s1.1-1.8,1.1-3s-0.4-2.3-1.1-3.1s-1.9-1.2-3.4-1.2h-5.2V132.9z
			"/>
		<path fill="#FFFFFF" d="M29.8,136.1c0-2.7,0.7-4.9,2.2-6.6c1.5-1.7,3.5-2.6,6-2.6c2.6,0,4.6,0.9,6.1,2.6c1.5,1.7,2.2,3.9,2.2,6.6
			v0.3c0,2.7-0.7,4.9-2.2,6.6c-1.5,1.7-3.5,2.5-6,2.5c-2.6,0-4.6-0.9-6-2.6c-1.5-1.7-2.2-3.9-2.2-6.6V136.1z M33.8,136.5
			c0,1.8,0.3,3.2,1,4.3c0.7,1.1,1.7,1.6,3.2,1.6c1.4,0,2.5-0.5,3.2-1.7c0.7-1.1,1.1-2.5,1.1-4.3v-0.3c0-1.7-0.4-3.1-1.1-4.2
			s-1.8-1.7-3.2-1.7c-1.4,0-2.5,0.6-3.1,1.7s-1,2.5-1,4.2V136.5z"/>
		<path fill="#FFFFFF" d="M58.7,131l-1.7-0.1c-0.8,0-1.4,0.2-2,0.5c-0.5,0.3-0.9,0.8-1.2,1.4v12.5h-4v-17.9h3.7l0.3,2.6
			c0.5-0.9,1-1.6,1.7-2.2c0.7-0.5,1.5-0.8,2.5-0.8c0.2,0,0.5,0,0.7,0.1s0.4,0.1,0.6,0.1L58.7,131z"/>
		<path fill="#FFFFFF" d="M80.2,140.4c0-0.6-0.3-1.1-0.8-1.5c-0.5-0.4-1.5-0.8-3-1.1c-2.1-0.4-3.7-1.1-4.8-1.9
			c-1.1-0.8-1.7-2-1.7-3.4c0-1.5,0.6-2.8,1.9-3.9c1.3-1.1,2.9-1.6,5-1.6c2.1,0,3.9,0.6,5.2,1.7c1.3,1.1,1.9,2.4,1.9,4l0,0.1h-3.9
			c0-0.7-0.3-1.4-0.9-1.9c-0.6-0.5-1.3-0.8-2.3-0.8c-1,0-1.7,0.2-2.2,0.7s-0.8,1-0.8,1.6c0,0.6,0.2,1.1,0.7,1.5
			c0.5,0.4,1.5,0.7,2.9,1c2.2,0.4,3.9,1.1,5,1.9c1.1,0.9,1.7,2,1.7,3.4c0,1.6-0.7,2.9-2,4c-1.3,1-3.1,1.5-5.3,1.5
			c-2.3,0-4.2-0.6-5.5-1.8s-2-2.6-1.9-4.1l0-0.1h3.7c0,1,0.4,1.8,1.1,2.3s1.6,0.7,2.6,0.7c1,0,1.8-0.2,2.4-0.6
			C80,141.6,80.2,141,80.2,140.4z"/>
		<path fill="#FFFFFF" d="M95.4,145.6c-2.6,0-4.7-0.8-6.1-2.5c-1.5-1.7-2.2-3.8-2.2-6.4V136c0-2.6,0.7-4.8,2.2-6.5
			c1.5-1.7,3.4-2.6,5.7-2.5c2.4,0,4.2,0.7,5.5,2.2c1.2,1.5,1.9,3.5,1.9,6v2.2H91.2l0,0.1c0,1.5,0.4,2.7,1.2,3.6
			c0.7,0.9,1.8,1.4,3.3,1.4c1.1,0,2-0.1,2.8-0.4c0.8-0.3,1.5-0.6,2.2-1.1l1.3,2.6c-0.7,0.6-1.6,1.1-2.7,1.5S96.9,145.6,95.4,145.6z
			 M95,130.2c-1.1,0-1.9,0.4-2.5,1.1c-0.6,0.8-1,1.7-1.2,3l0,0.1h7v-0.3c0-1.2-0.3-2.1-0.8-2.8C97,130.6,96.2,130.2,95,130.2z"/>
		<path fill="#FFFFFF" d="M114.5,131l-1.7-0.1c-0.8,0-1.4,0.2-2,0.5c-0.5,0.3-0.9,0.8-1.2,1.4v12.5h-4v-17.9h3.7l0.3,2.6
			c0.5-0.9,1-1.6,1.7-2.2c0.7-0.5,1.5-0.8,2.5-0.8c0.2,0,0.5,0,0.7,0.1s0.4,0.1,0.6,0.1L114.5,131z"/>
		<path fill="#FFFFFF" d="M129.7,127.3l0.2,2.3c0.6-0.9,1.3-1.5,2.2-2c0.9-0.5,1.9-0.7,3.1-0.7c1.2,0,2.2,0.3,3,0.8
			c0.8,0.5,1.5,1.3,1.9,2.4c0.6-1,1.3-1.8,2.2-2.3c0.9-0.6,2-0.8,3.2-0.8c1.8,0,3.2,0.6,4.3,1.9s1.6,3.2,1.6,5.7v10.7h-4v-10.7
			c0-1.6-0.3-2.7-0.8-3.3c-0.5-0.6-1.3-1-2.4-1c-0.9,0-1.6,0.2-2.2,0.7c-0.6,0.5-1,1.1-1.3,1.9c0,0.2,0,0.3,0,0.4c0,0.1,0,0.2,0,0.3
			v11.6h-4v-10.7c0-1.5-0.3-2.6-0.8-3.3c-0.5-0.7-1.3-1-2.4-1c-0.8,0-1.5,0.2-2.1,0.5c-0.6,0.3-1,0.8-1.4,1.3v13.2h-4v-17.9H129.7z"
			/>
		<path fill="#FFFFFF" d="M159.8,122.9h-4v-3.5h4V122.9z M159.8,145.3h-4v-17.9h4V145.3z"/>
		<path fill="#FFFFFF" d="M172,145.6c-2.6,0-4.7-0.8-6.1-2.5c-1.5-1.7-2.2-3.8-2.2-6.4V136c0-2.6,0.7-4.8,2.2-6.5
			c1.5-1.7,3.4-2.6,5.7-2.5c2.4,0,4.2,0.7,5.5,2.2s1.9,3.5,1.9,6v2.2h-11.1l0,0.1c0,1.5,0.4,2.7,1.2,3.6s1.8,1.4,3.3,1.4
			c1.1,0,2-0.1,2.8-0.4c0.8-0.3,1.5-0.6,2.2-1.1l1.3,2.6c-0.7,0.6-1.6,1.1-2.7,1.5S173.4,145.6,172,145.6z M171.5,130.2
			c-1.1,0-1.9,0.4-2.5,1.1c-0.6,0.8-1,1.7-1.2,3l0,0.1h7v-0.3c0-1.2-0.3-2.1-0.8-2.8S172.7,130.2,171.5,130.2z"/>
		<path fill="#FFFFFF" d="M185.8,127.3l0.2,2.3c0.6-0.9,1.3-1.5,2.2-2c0.9-0.5,1.9-0.7,3.1-0.7c1.2,0,2.2,0.3,3,0.8
			c0.8,0.5,1.5,1.3,1.9,2.4c0.6-1,1.3-1.8,2.2-2.3c0.9-0.6,2-0.8,3.2-0.8c1.8,0,3.2,0.6,4.3,1.9s1.6,3.2,1.6,5.7v10.7h-4v-10.7
			c0-1.6-0.3-2.7-0.8-3.3s-1.3-1-2.4-1c-0.9,0-1.6,0.2-2.2,0.7c-0.6,0.5-1,1.1-1.3,1.9c0,0.2,0,0.3,0,0.4c0,0.1,0,0.2,0,0.3v11.6h-4
			v-10.7c0-1.5-0.3-2.6-0.8-3.3c-0.5-0.7-1.3-1-2.4-1c-0.8,0-1.5,0.2-2.1,0.5c-0.6,0.3-1,0.8-1.4,1.3v13.2h-4v-17.9H185.8z"/>
		<path fill="#FFFFFF" d="M227.4,136.9c0,2.6-0.6,4.7-1.8,6.3c-1.2,1.6-2.9,2.4-5.2,2.4c-1.1,0-2.1-0.2-2.9-0.7s-1.5-1.1-2.1-2
			l-0.5,2.4h-3.3v-25.9h4v10c0.6-0.8,1.2-1.3,2-1.8c0.8-0.4,1.7-0.6,2.7-0.6c2.2,0,4,0.9,5.2,2.6s1.8,4.1,1.8,6.9V136.9z
			 M223.4,136.5c0-1.9-0.3-3.4-1-4.5s-1.7-1.7-3.1-1.7c-0.9,0-1.6,0.2-2.2,0.6c-0.6,0.4-1.1,1-1.4,1.7v7.5c0.3,0.7,0.8,1.3,1.4,1.7
			c0.6,0.4,1.4,0.6,2.3,0.6c1.4,0,2.4-0.5,3-1.5s0.9-2.3,0.9-4V136.5z"/>
		<path fill="#FFFFFF" d="M239.8,131l-1.7-0.1c-0.8,0-1.4,0.2-2,0.5c-0.5,0.3-0.9,0.8-1.2,1.4v12.5h-4v-17.9h3.7l0.3,2.6
			c0.5-0.9,1-1.6,1.8-2.2c0.7-0.5,1.5-0.8,2.5-0.8c0.2,0,0.5,0,0.7,0.1c0.2,0,0.4,0.1,0.6,0.1L239.8,131z"/>
		<path fill="#FFFFFF" d="M241.8,136.1c0-2.7,0.7-4.9,2.2-6.6c1.5-1.7,3.5-2.6,6-2.6c2.6,0,4.6,0.9,6.1,2.6c1.5,1.7,2.2,3.9,2.2,6.6
			v0.3c0,2.7-0.7,4.9-2.2,6.6c-1.5,1.7-3.5,2.5-6,2.5c-2.6,0-4.6-0.9-6-2.6s-2.2-3.9-2.2-6.6V136.1z M245.8,136.5
			c0,1.8,0.3,3.2,1,4.3c0.7,1.1,1.7,1.6,3.2,1.6c1.4,0,2.5-0.5,3.2-1.7c0.7-1.1,1.1-2.5,1.1-4.3v-0.3c0-1.7-0.4-3.1-1.1-4.2
			s-1.8-1.7-3.2-1.7c-1.4,0-2.5,0.6-3.1,1.7c-0.7,1.1-1,2.5-1,4.2V136.5z"/>
		<path fill="#FFFFFF" d="M269.5,136.5c0-2.9,0.6-5.2,1.8-6.9c1.2-1.8,3-2.6,5.2-2.6c1,0,1.8,0.2,2.6,0.6c0.8,0.4,1.4,1,2,1.7v-9.9
			h4v25.9h-3.3l-0.5-2.3c-0.6,0.9-1.3,1.5-2.1,1.9c-0.8,0.4-1.8,0.7-2.8,0.7c-2.2,0-3.9-0.8-5.1-2.4s-1.8-3.7-1.8-6.3V136.5z
			 M273.5,136.9c0,1.7,0.3,3,1,4c0.6,1,1.6,1.5,3,1.5c0.9,0,1.6-0.2,2.2-0.5s1.1-0.9,1.5-1.6v-7.8c-0.4-0.7-0.9-1.2-1.5-1.6
			c-0.6-0.4-1.3-0.6-2.1-0.6c-1.4,0-2.4,0.6-3,1.7c-0.7,1.2-1,2.7-1,4.5V136.9z"/>
		<path fill="#FFFFFF" d="M297.1,145.6c-2.6,0-4.7-0.8-6.1-2.5c-1.5-1.7-2.2-3.8-2.2-6.4V136c0-2.6,0.7-4.8,2.2-6.5
			c1.5-1.7,3.4-2.6,5.7-2.5c2.4,0,4.2,0.7,5.5,2.2s1.9,3.5,1.9,6v2.2h-11.1l0,0.1c0,1.5,0.4,2.7,1.2,3.6c0.7,0.9,1.8,1.4,3.3,1.4
			c1.1,0,2-0.1,2.8-0.4c0.8-0.3,1.5-0.6,2.2-1.1l1.3,2.6c-0.7,0.6-1.6,1.1-2.7,1.5S298.5,145.6,297.1,145.6z M296.6,130.2
			c-1.1,0-1.9,0.4-2.5,1.1c-0.6,0.8-1,1.7-1.2,3l0,0.1h7v-0.3c0-1.2-0.3-2.1-0.8-2.8S297.8,130.2,296.6,130.2z"/>
		<path fill="#FFFFFF" d="M311.5,145.3h-4v-25.9h4V145.3z"/>
		<path fill="#FFFFFF" d="M342.8,142c-0.7,0.9-1.7,1.8-3.2,2.5s-3.3,1.1-5.6,1.1c-2.9,0-5.2-0.9-7-2.8c-1.8-1.8-2.8-4.2-2.8-7.1v-5
			c0-2.9,0.9-5.3,2.7-7.1s4.1-2.8,6.9-2.8c2.8,0,5,0.7,6.6,2.1c1.6,1.4,2.3,3.3,2.3,5.5l0,0.1h-3.8c0-1.4-0.4-2.5-1.3-3.3
			s-2.1-1.2-3.6-1.2c-1.7,0-3,0.6-4,1.9c-1,1.3-1.5,2.8-1.5,4.8v5.1c0,1.9,0.5,3.5,1.6,4.8s2.5,1.9,4.2,1.9c1.3,0,2.3-0.1,3.1-0.4
			s1.3-0.6,1.7-1.1v-5h-5.1v-3h9.1V142z"/>
		<path fill="#FFFFFF" d="M356.3,131l-1.7-0.1c-0.8,0-1.4,0.2-2,0.5c-0.5,0.3-0.9,0.8-1.2,1.4v12.5h-4v-17.9h3.7l0.3,2.6
			c0.5-0.9,1-1.6,1.8-2.2c0.7-0.5,1.5-0.8,2.5-0.8c0.2,0,0.5,0,0.7,0.1c0.2,0,0.4,0.1,0.6,0.1L356.3,131z"/>
		<path fill="#FFFFFF" d="M370.4,142.6c-0.6,1-1.3,1.7-2.1,2.2s-1.9,0.8-3,0.8c-1.9,0-3.4-0.6-4.5-1.9c-1.1-1.3-1.6-3.2-1.6-5.9
			v-10.5h4v10.5c0,1.7,0.2,2.9,0.7,3.5c0.5,0.6,1.3,1,2.3,1c1,0,1.8-0.2,2.4-0.5c0.7-0.3,1.2-0.9,1.6-1.5v-13h4v17.9h-3.5
			L370.4,142.6z"/>
		<path fill="#FFFFFF" d="M394.2,136.9c0,2.6-0.6,4.7-1.8,6.3c-1.2,1.6-2.9,2.4-5.1,2.4c-1,0-1.9-0.2-2.7-0.5s-1.5-0.9-2-1.6v8.7h-4
			v-24.8h3.4l0.4,2.3c0.6-0.8,1.3-1.5,2.1-1.9c0.8-0.4,1.8-0.7,2.8-0.7c2.2,0,3.9,0.9,5.2,2.6c1.2,1.8,1.8,4.1,1.8,6.9V136.9z
			 M390.2,136.5c0-1.8-0.3-3.3-1-4.5c-0.7-1.2-1.7-1.8-3.1-1.8c-0.8,0-1.6,0.2-2.1,0.5c-0.6,0.4-1.1,0.9-1.4,1.5v8.1
			c0.4,0.6,0.8,1.1,1.4,1.5c0.6,0.3,1.3,0.5,2.2,0.5c1.4,0,2.4-0.5,3.1-1.5s1-2.3,1-4V136.5z"/>
		<path fill="#FFFFFF" d="M397,136.1c0-2.7,0.7-4.9,2.2-6.6c1.5-1.7,3.5-2.6,6-2.6c2.6,0,4.6,0.9,6.1,2.6c1.5,1.7,2.2,3.9,2.2,6.6
			v0.3c0,2.7-0.7,4.9-2.2,6.6c-1.5,1.7-3.5,2.5-6,2.5c-2.6,0-4.6-0.9-6-2.6c-1.5-1.7-2.2-3.9-2.2-6.6V136.1z M401,136.5
			c0,1.8,0.3,3.2,1,4.3s1.7,1.6,3.2,1.6c1.4,0,2.5-0.5,3.2-1.7c0.7-1.1,1.1-2.5,1.1-4.3v-0.3c0-1.7-0.4-3.1-1.1-4.2
			s-1.8-1.7-3.2-1.7c-1.4,0-2.5,0.6-3.1,1.7s-1,2.5-1,4.2V136.5z"/>
		<path fill="#FFFFFF" d="M441.1,136.9c0,2.6-0.6,4.7-1.8,6.3s-2.9,2.4-5.1,2.4c-1,0-1.9-0.2-2.7-0.5s-1.5-0.9-2-1.6v8.7h-4v-24.8
			h3.4l0.4,2.3c0.6-0.8,1.3-1.5,2.1-1.9s1.8-0.7,2.8-0.7c2.2,0,3.9,0.9,5.2,2.6c1.2,1.8,1.8,4.1,1.8,6.9V136.9z M437.1,136.5
			c0-1.8-0.3-3.3-1-4.5c-0.7-1.2-1.7-1.8-3.1-1.8c-0.8,0-1.6,0.2-2.1,0.5c-0.6,0.4-1.1,0.9-1.4,1.5v8.1c0.4,0.6,0.8,1.1,1.4,1.5
			c0.6,0.3,1.3,0.5,2.2,0.5c1.4,0,2.4-0.5,3.1-1.5c0.7-1,1-2.3,1-4V136.5z"/>
		<path fill="#FFFFFF" d="M443.9,136.1c0-2.7,0.7-4.9,2.2-6.6c1.5-1.7,3.5-2.6,6-2.6c2.6,0,4.6,0.9,6.1,2.6c1.5,1.7,2.2,3.9,2.2,6.6
			v0.3c0,2.7-0.7,4.9-2.2,6.6c-1.5,1.7-3.5,2.5-6,2.5c-2.6,0-4.6-0.9-6-2.6c-1.5-1.7-2.2-3.9-2.2-6.6V136.1z M447.9,136.5
			c0,1.8,0.3,3.2,1,4.3s1.7,1.6,3.2,1.6c1.4,0,2.5-0.5,3.2-1.7c0.7-1.1,1.1-2.5,1.1-4.3v-0.3c0-1.7-0.4-3.1-1.1-4.2
			c-0.7-1.1-1.8-1.7-3.2-1.7c-1.4,0-2.5,0.6-3.1,1.7c-0.7,1.1-1,2.5-1,4.2V136.5z"/>
		<path fill="#FFFFFF" d="M463.2,136.5c0-2.9,0.6-5.2,1.8-6.9c1.2-1.8,3-2.6,5.2-2.6c1,0,1.8,0.2,2.6,0.6c0.8,0.4,1.4,1,2,1.7v-9.9
			h4v25.9h-3.3l-0.5-2.3c-0.6,0.9-1.3,1.5-2.1,1.9c-0.8,0.4-1.8,0.7-2.8,0.7c-2.2,0-3.9-0.8-5.1-2.4c-1.2-1.6-1.8-3.7-1.8-6.3V136.5
			z M467.2,136.9c0,1.7,0.3,3,1,4s1.6,1.5,3,1.5c0.9,0,1.6-0.2,2.2-0.5s1.1-0.9,1.5-1.6v-7.8c-0.4-0.7-0.9-1.2-1.5-1.6
			c-0.6-0.4-1.3-0.6-2.1-0.6c-1.4,0-2.4,0.6-3,1.7c-0.7,1.2-1,2.7-1,4.5V136.9z"/>
		<path fill="#FFFFFF" d="M490.8,145.6c-2.6,0-4.7-0.8-6.1-2.5c-1.5-1.7-2.2-3.8-2.2-6.4V136c0-2.6,0.7-4.8,2.2-6.5
			c1.5-1.7,3.4-2.6,5.7-2.5c2.4,0,4.2,0.7,5.5,2.2s1.9,3.5,1.9,6v2.2h-11.1l0,0.1c0,1.5,0.4,2.7,1.2,3.6c0.7,0.9,1.8,1.4,3.3,1.4
			c1.1,0,2-0.1,2.8-0.4c0.8-0.3,1.5-0.6,2.2-1.1l1.3,2.6c-0.7,0.6-1.6,1.1-2.7,1.5S492.2,145.6,490.8,145.6z M490.3,130.2
			c-1.1,0-1.9,0.4-2.5,1.1c-0.6,0.8-1,1.7-1.2,3l0,0.1h7v-0.3c0-1.2-0.3-2.1-0.8-2.8C492.3,130.6,491.5,130.2,490.3,130.2z"/>
		<path fill="#FFFFFF" d="M511,140.4c0-0.6-0.3-1.1-0.8-1.5c-0.5-0.4-1.5-0.8-3-1.1c-2.1-0.4-3.7-1.1-4.8-1.9
			c-1.1-0.8-1.7-2-1.7-3.4c0-1.5,0.6-2.8,1.9-3.9c1.3-1.1,2.9-1.6,5-1.6c2.1,0,3.9,0.6,5.2,1.7c1.3,1.1,1.9,2.4,1.9,4l0,0.1h-3.9
			c0-0.7-0.3-1.4-0.9-1.9c-0.6-0.5-1.3-0.8-2.3-0.8c-1,0-1.7,0.2-2.2,0.7c-0.5,0.4-0.8,1-0.8,1.6c0,0.6,0.2,1.1,0.7,1.5
			c0.5,0.4,1.5,0.7,2.9,1c2.2,0.4,3.9,1.1,5,1.9c1.1,0.9,1.7,2,1.7,3.4c0,1.6-0.7,2.9-2,4c-1.3,1-3.1,1.5-5.3,1.5
			c-2.3,0-4.2-0.6-5.5-1.8c-1.3-1.2-2-2.6-1.9-4.1l0-0.1h3.7c0,1,0.4,1.8,1.1,2.3c0.7,0.5,1.6,0.7,2.6,0.7c1,0,1.8-0.2,2.4-0.6
			C510.7,141.6,511,141,511,140.4z"/>
		<path fill="#FFFFFF" d="M19.9,179.5c-0.1-0.5-0.3-0.9-0.4-1.3c-0.1-0.4-0.2-0.9-0.2-1.3c-0.5,0.8-1.3,1.5-2.2,2.1
			c-0.9,0.6-1.9,0.9-3,0.9c-1.9,0-3.3-0.5-4.3-1.4c-1-1-1.5-2.3-1.5-4c0-1.7,0.7-3.1,2.1-4.1s3.3-1.5,5.8-1.5h3.1v-1.6
			c0-0.9-0.3-1.7-0.8-2.2c-0.5-0.5-1.3-0.8-2.4-0.8c-0.9,0-1.6,0.2-2.2,0.7c-0.5,0.4-0.8,1-0.8,1.7l-3.9,0l0-0.1
			c-0.1-1.4,0.6-2.7,1.9-3.8c1.3-1.1,3.1-1.6,5.2-1.6c2.1,0,3.8,0.5,5.1,1.6c1.3,1.1,1.9,2.6,1.9,4.6v8c0,0.7,0,1.5,0.1,2.1
			c0.1,0.7,0.3,1.3,0.5,2H19.9z M15,176.6c1,0,1.9-0.3,2.7-0.8c0.8-0.5,1.4-1.1,1.6-1.7v-2.7h-3.2c-1.2,0-2.1,0.3-2.8,0.9
			c-0.7,0.6-1,1.3-1,2c0,0.7,0.2,1.2,0.7,1.6C13.5,176.4,14.2,176.6,15,176.6z"/>
		<path fill="#FFFFFF" d="M34.9,176.6c0.9,0,1.7-0.3,2.3-0.9s1-1.3,1-2.2h3.6l0,0.1c0,1.7-0.6,3.1-2,4.3c-1.4,1.2-3,1.8-5,1.8
			c-2.6,0-4.6-0.9-6-2.6c-1.4-1.7-2.1-3.9-2.1-6.5v-0.6c0-2.6,0.7-4.7,2.1-6.5s3.4-2.6,6-2.6c2.1,0,3.8,0.6,5.1,1.9s1.9,2.8,1.9,4.8
			l0,0.1h-3.6c0-1-0.3-1.8-0.9-2.5c-0.6-0.7-1.4-1-2.4-1c-1.4,0-2.5,0.6-3.1,1.7s-0.9,2.5-0.9,4.1v0.6c0,1.7,0.3,3.1,0.9,4.2
			C32.4,176.1,33.5,176.6,34.9,176.6z"/>
		<path fill="#FFFFFF" d="M52.6,176.6c0.9,0,1.7-0.3,2.3-0.9c0.6-0.6,1-1.3,1-2.2h3.6l0,0.1c0,1.7-0.6,3.1-2,4.3
			c-1.4,1.2-3,1.8-5,1.8c-2.6,0-4.6-0.9-6-2.6c-1.4-1.7-2.1-3.9-2.1-6.5v-0.6c0-2.6,0.7-4.7,2.1-6.5s3.4-2.6,6-2.6
			c2.1,0,3.8,0.6,5.1,1.9c1.3,1.3,1.9,2.8,1.9,4.8l0,0.1h-3.6c0-1-0.3-1.8-0.9-2.5s-1.4-1-2.4-1c-1.4,0-2.5,0.6-3.1,1.7
			c-0.6,1.1-0.9,2.5-0.9,4.1v0.6c0,1.7,0.3,3.1,0.9,4.2C50.1,176.1,51.1,176.6,52.6,176.6z"/>
		<path fill="#FFFFFF" d="M70.5,179.8c-2.6,0-4.7-0.8-6.1-2.5c-1.5-1.7-2.2-3.8-2.2-6.4v-0.7c0-2.6,0.7-4.8,2.2-6.5
			c1.5-1.7,3.4-2.6,5.7-2.5c2.4,0,4.2,0.7,5.5,2.2c1.2,1.5,1.9,3.5,1.9,6v2.2H66.3l0,0.1c0,1.5,0.4,2.7,1.2,3.6
			c0.7,0.9,1.8,1.4,3.3,1.4c1.1,0,2-0.1,2.8-0.4s1.5-0.6,2.2-1.1l1.3,2.6c-0.7,0.6-1.6,1.1-2.7,1.5C73.3,179.6,72,179.8,70.5,179.8z
			 M70.1,164.4c-1.1,0-1.9,0.4-2.5,1.1c-0.6,0.8-1,1.7-1.2,3l0,0.1h7v-0.3c0-1.1-0.3-2.1-0.8-2.8C72.1,164.8,71.3,164.4,70.1,164.4z
			"/>
		<path fill="#FFFFFF" d="M80,170.8c0-2.9,0.6-5.2,1.8-6.9s3-2.6,5.2-2.6c1,0,1.8,0.2,2.6,0.6s1.4,1,2,1.7v-9.9h4v25.9h-3.3
			l-0.5-2.3c-0.6,0.9-1.3,1.5-2.1,1.9s-1.8,0.7-2.8,0.7c-2.2,0-3.9-0.8-5.1-2.4s-1.8-3.7-1.8-6.3V170.8z M84,171.1c0,1.7,0.3,3,1,4
			c0.6,1,1.6,1.5,3,1.5c0.9,0,1.6-0.2,2.2-0.5c0.6-0.4,1.1-0.9,1.5-1.6v-7.8c-0.4-0.7-0.9-1.2-1.5-1.6c-0.6-0.4-1.3-0.6-2.1-0.6
			c-1.4,0-2.4,0.6-3,1.7s-1,2.7-1,4.5V171.1z"/>
		<path fill="#FFFFFF" d="M107.6,179.8c-2.6,0-4.7-0.8-6.1-2.5s-2.2-3.8-2.2-6.4v-0.7c0-2.6,0.7-4.8,2.2-6.5
			c1.5-1.7,3.4-2.6,5.7-2.5c2.4,0,4.2,0.7,5.5,2.2c1.2,1.5,1.9,3.5,1.9,6v2.2h-11.1l0,0.1c0,1.5,0.4,2.7,1.2,3.6
			c0.7,0.9,1.8,1.4,3.3,1.4c1.1,0,2-0.1,2.8-0.4s1.5-0.6,2.2-1.1l1.3,2.6c-0.7,0.6-1.6,1.1-2.7,1.5
			C110.3,179.6,109,179.8,107.6,179.8z M107.1,164.4c-1.1,0-1.9,0.4-2.5,1.1c-0.6,0.8-1,1.7-1.2,3l0,0.1h7v-0.3
			c0-1.1-0.3-2.1-0.8-2.8C109.1,164.8,108.3,164.4,107.1,164.4z"/>
		<path fill="#FFFFFF" d="M126.7,165.2l-1.7-0.1c-0.8,0-1.4,0.2-2,0.5c-0.5,0.3-0.9,0.8-1.2,1.4v12.5h-4v-17.9h3.7l0.3,2.6
			c0.5-0.9,1-1.6,1.7-2.2c0.7-0.5,1.5-0.8,2.5-0.8c0.2,0,0.5,0,0.7,0.1c0.2,0,0.4,0.1,0.6,0.1L126.7,165.2z"/>
		<path fill="#FFFFFF" d="M148.9,179.5c-0.1-0.5-0.3-0.9-0.4-1.3c-0.1-0.4-0.2-0.9-0.2-1.3c-0.5,0.8-1.3,1.5-2.2,2.1
			c-0.9,0.6-1.9,0.9-3,0.9c-1.9,0-3.3-0.5-4.3-1.4s-1.5-2.3-1.5-4c0-1.7,0.7-3.1,2.1-4.1s3.3-1.5,5.8-1.5h3.1v-1.6
			c0-0.9-0.3-1.7-0.8-2.2c-0.5-0.5-1.3-0.8-2.4-0.8c-0.9,0-1.6,0.2-2.2,0.7c-0.5,0.4-0.8,1-0.8,1.7l-3.9,0l0-0.1
			c-0.1-1.4,0.6-2.7,1.9-3.8s3.1-1.6,5.3-1.6c2.1,0,3.8,0.5,5.1,1.6s1.9,2.6,1.9,4.6v8c0,0.7,0,1.5,0.1,2.1c0.1,0.7,0.3,1.3,0.5,2
			H148.9z M144,176.6c1,0,1.9-0.3,2.7-0.8s1.4-1.1,1.6-1.7v-2.7h-3.2c-1.2,0-2.1,0.3-2.8,0.9c-0.7,0.6-1,1.3-1,2
			c0,0.7,0.2,1.2,0.7,1.6C142.5,176.4,143.2,176.6,144,176.6z"/>
		<path fill="#FFFFFF" d="M169.4,157.1h-4v-3.5h4V157.1z M169.4,179.5h-4v-17.9h4V179.5z"/>
		<path fill="#FFFFFF" d="M177.5,161.5l0.2,2.3c0.6-0.9,1.3-1.5,2.2-2c0.9-0.5,1.9-0.7,3.1-0.7c1.2,0,2.2,0.3,3,0.8
			c0.8,0.5,1.5,1.3,1.9,2.4c0.6-1,1.3-1.8,2.2-2.3c0.9-0.6,2-0.8,3.2-0.8c1.8,0,3.2,0.6,4.3,1.9s1.6,3.2,1.6,5.7v10.7h-4v-10.7
			c0-1.6-0.3-2.7-0.8-3.3c-0.5-0.6-1.3-1-2.4-1c-0.9,0-1.6,0.2-2.2,0.7c-0.6,0.5-1,1.1-1.3,1.9c0,0.2,0,0.3,0,0.4c0,0.1,0,0.2,0,0.3
			v11.6h-4v-10.7c0-1.5-0.3-2.6-0.8-3.3c-0.5-0.7-1.3-1-2.4-1c-0.8,0-1.5,0.2-2.1,0.5c-0.6,0.3-1,0.8-1.4,1.3v13.2h-4v-17.9H177.5z"
			/>
		<path fill="#FFFFFF" d="M219.1,171.1c0,2.6-0.6,4.7-1.8,6.3s-2.9,2.4-5.1,2.4c-1,0-1.9-0.2-2.7-0.5c-0.8-0.4-1.5-0.9-2-1.6v8.7h-4
			v-24.8h3.4l0.4,2.3c0.6-0.8,1.3-1.5,2.1-1.9c0.8-0.4,1.8-0.7,2.8-0.7c2.2,0,3.9,0.9,5.2,2.6c1.2,1.8,1.8,4.1,1.8,6.9V171.1z
			 M215.1,170.8c0-1.8-0.3-3.3-1-4.5s-1.7-1.8-3.1-1.8c-0.8,0-1.6,0.2-2.1,0.5c-0.6,0.4-1.1,0.9-1.4,1.5v8.1
			c0.4,0.6,0.8,1.1,1.4,1.5c0.6,0.3,1.3,0.5,2.2,0.5c1.4,0,2.4-0.5,3.1-1.5s1-2.3,1-4V170.8z"/>
		<path fill="#FFFFFF" d="M221.9,170.3c0-2.7,0.7-4.9,2.2-6.6c1.5-1.7,3.5-2.6,6-2.6c2.6,0,4.6,0.9,6.1,2.6c1.5,1.7,2.2,3.9,2.2,6.6
			v0.3c0,2.7-0.7,4.9-2.2,6.6s-3.5,2.5-6,2.5c-2.6,0-4.6-0.9-6-2.6c-1.5-1.7-2.2-3.9-2.2-6.6V170.3z M225.9,170.7
			c0,1.8,0.3,3.2,1,4.3c0.7,1.1,1.7,1.6,3.2,1.6c1.4,0,2.5-0.5,3.2-1.7s1.1-2.5,1.1-4.3v-0.3c0-1.7-0.4-3.1-1.1-4.2
			s-1.8-1.7-3.2-1.7c-1.4,0-2.5,0.6-3.1,1.7c-0.7,1.1-1,2.5-1,4.2V170.7z"/>
		<path fill="#FFFFFF" d="M250.8,165.2l-1.7-0.1c-0.8,0-1.4,0.2-2,0.5c-0.5,0.3-0.9,0.8-1.2,1.4v12.5h-4v-17.9h3.7l0.3,2.6
			c0.5-0.9,1-1.6,1.8-2.2c0.7-0.5,1.5-0.8,2.5-0.8c0.2,0,0.5,0,0.7,0.1c0.2,0,0.4,0.1,0.6,0.1L250.8,165.2z"/>
		<path fill="#FFFFFF" d="M259.3,157.2v4.4h3.2v3h-3.2v9.9c0,0.7,0.2,1.3,0.5,1.6s0.7,0.5,1.3,0.5c0.2,0,0.4,0,0.6-0.1
			c0.2,0,0.4-0.1,0.6-0.2l0.4,3c-0.3,0.2-0.7,0.3-1.2,0.4c-0.5,0.1-1,0.2-1.5,0.2c-1.5,0-2.6-0.4-3.5-1.3s-1.3-2.2-1.3-4.1v-9.9
			h-2.7v-3h2.7v-4.4H259.3z"/>
		<path fill="#FFFFFF" d="M276.5,179.5c-0.1-0.5-0.3-0.9-0.4-1.3c-0.1-0.4-0.2-0.9-0.2-1.3c-0.5,0.8-1.3,1.5-2.2,2.1
			c-0.9,0.6-1.9,0.9-3,0.9c-1.9,0-3.3-0.5-4.3-1.4c-1-1-1.5-2.3-1.5-4c0-1.7,0.7-3.1,2.1-4.1s3.3-1.5,5.8-1.5h3.1v-1.6
			c0-0.9-0.3-1.7-0.8-2.2c-0.5-0.5-1.3-0.8-2.4-0.8c-0.9,0-1.6,0.2-2.2,0.7c-0.5,0.4-0.8,1-0.8,1.7l-3.9,0l0-0.1
			c-0.1-1.4,0.6-2.7,1.9-3.8c1.3-1.1,3.1-1.6,5.2-1.6c2.1,0,3.8,0.5,5.1,1.6c1.3,1.1,1.9,2.6,1.9,4.6v8c0,0.7,0,1.5,0.1,2.1
			c0.1,0.7,0.3,1.3,0.5,2H276.5z M271.6,176.6c1,0,1.9-0.3,2.7-0.8s1.4-1.1,1.6-1.7v-2.7h-3.2c-1.2,0-2.1,0.3-2.8,0.9
			c-0.7,0.6-1,1.3-1,2c0,0.7,0.2,1.2,0.7,1.6C270.1,176.4,270.8,176.6,271.6,176.6z"/>
		<path fill="#FFFFFF" d="M287.8,161.5l0.2,2.6c0.6-0.9,1.3-1.6,2.2-2.1c0.9-0.5,1.9-0.8,3-0.8c1.9,0,3.3,0.6,4.4,1.7
			c1,1.2,1.6,2.9,1.6,5.4v11.2h-4v-11.1c0-1.4-0.3-2.4-0.8-3s-1.4-0.9-2.5-0.9c-0.9,0-1.6,0.2-2.2,0.5s-1.1,0.8-1.5,1.4v13.1h-4
			v-17.9H287.8z"/>
		<path fill="#FFFFFF" d="M308.6,157.2v4.4h3.2v3h-3.2v9.9c0,0.7,0.2,1.3,0.5,1.6c0.3,0.3,0.7,0.5,1.3,0.5c0.2,0,0.4,0,0.6-0.1
			c0.2,0,0.4-0.1,0.6-0.2l0.4,3c-0.3,0.2-0.8,0.3-1.2,0.4c-0.5,0.1-1,0.2-1.5,0.2c-1.5,0-2.6-0.4-3.5-1.3s-1.3-2.2-1.3-4.1v-9.9
			h-2.7v-3h2.7v-4.4H308.6z"/>
		<path fill="#FFFFFF" d="M322.7,179.8c-2.6,0-4.7-0.8-6.1-2.5c-1.5-1.7-2.2-3.8-2.2-6.4v-0.7c0-2.6,0.7-4.8,2.2-6.5
			c1.5-1.7,3.4-2.6,5.7-2.5c2.4,0,4.2,0.7,5.5,2.2c1.2,1.5,1.9,3.5,1.9,6v2.2h-11.1l0,0.1c0,1.5,0.4,2.7,1.2,3.6
			c0.7,0.9,1.8,1.4,3.3,1.4c1.1,0,2-0.1,2.8-0.4s1.5-0.6,2.2-1.1l1.3,2.6c-0.7,0.6-1.6,1.1-2.7,1.5
			C325.4,179.6,324.2,179.8,322.7,179.8z M322.2,164.4c-1,0-1.9,0.4-2.5,1.1c-0.6,0.8-1,1.7-1.2,3l0,0.1h7v-0.3
			c0-1.1-0.3-2.1-0.8-2.8C324.3,164.8,323.4,164.4,322.2,164.4z"/>
		<path fill="#FFFFFF" d="M342.9,174.6c0-0.6-0.3-1.1-0.8-1.5c-0.5-0.4-1.5-0.8-3-1.1c-2.1-0.4-3.7-1.1-4.8-1.9
			c-1.1-0.8-1.7-2-1.7-3.4c0-1.5,0.6-2.8,1.9-3.9s2.9-1.6,5-1.6c2.1,0,3.9,0.5,5.2,1.7c1.3,1.1,1.9,2.4,1.9,4l0,0.1h-3.9
			c0-0.7-0.3-1.4-0.9-1.9c-0.6-0.5-1.3-0.8-2.3-0.8c-1,0-1.7,0.2-2.2,0.7c-0.5,0.4-0.8,1-0.8,1.6c0,0.6,0.2,1.1,0.7,1.5
			c0.5,0.4,1.5,0.7,2.9,1c2.2,0.4,3.9,1.1,5,1.9c1.1,0.9,1.7,2,1.7,3.4c0,1.6-0.7,2.9-2,4c-1.3,1-3.1,1.5-5.3,1.5
			c-2.3,0-4.2-0.6-5.5-1.8c-1.3-1.2-2-2.6-1.9-4.1l0-0.1h3.7c0,1,0.4,1.8,1.1,2.3c0.7,0.5,1.6,0.7,2.6,0.7c1,0,1.8-0.2,2.4-0.6
			C342.6,175.8,342.9,175.2,342.9,174.6z"/>
		<path fill="#FFFFFF" d="M358.2,170.8c0-2.9,0.6-5.2,1.8-6.9s3-2.6,5.2-2.6c1,0,1.8,0.2,2.6,0.6s1.4,1,2,1.7v-9.9h4v25.9h-3.3
			l-0.5-2.3c-0.6,0.9-1.3,1.5-2.1,1.9s-1.8,0.7-2.8,0.7c-2.2,0-3.9-0.8-5.1-2.4s-1.8-3.7-1.8-6.3V170.8z M362.3,171.1
			c0,1.7,0.3,3,1,4c0.6,1,1.6,1.5,3,1.5c0.9,0,1.6-0.2,2.2-0.5c0.6-0.4,1.1-0.9,1.5-1.6v-7.8c-0.4-0.7-0.9-1.2-1.5-1.6
			c-0.6-0.4-1.3-0.6-2.1-0.6c-1.4,0-2.4,0.6-3,1.7s-1,2.7-1,4.5V171.1z"/>
		<path fill="#FFFFFF" d="M385.8,179.8c-2.6,0-4.7-0.8-6.1-2.5c-1.5-1.7-2.2-3.8-2.2-6.4v-0.7c0-2.6,0.7-4.8,2.2-6.5
			c1.5-1.7,3.4-2.6,5.7-2.5c2.4,0,4.2,0.7,5.5,2.2c1.2,1.5,1.9,3.5,1.9,6v2.2h-11.1l0,0.1c0,1.5,0.4,2.7,1.2,3.6
			c0.7,0.9,1.8,1.4,3.3,1.4c1.1,0,2-0.1,2.8-0.4s1.5-0.6,2.2-1.1l1.3,2.6c-0.7,0.6-1.6,1.1-2.7,1.5
			C388.6,179.6,387.3,179.8,385.8,179.8z M385.4,164.4c-1.1,0-1.9,0.4-2.5,1.1c-0.6,0.8-1,1.7-1.2,3l0,0.1h7v-0.3
			c0-1.1-0.3-2.1-0.8-2.8C387.4,164.8,386.6,164.4,385.4,164.4z"/>
		<path fill="#FFFFFF" d="M406.1,174.6c0-0.6-0.3-1.1-0.8-1.5c-0.5-0.4-1.5-0.8-3-1.1c-2.1-0.4-3.7-1.1-4.8-1.9
			c-1.1-0.8-1.7-2-1.7-3.4c0-1.5,0.6-2.8,1.9-3.9s2.9-1.6,5-1.6c2.1,0,3.9,0.5,5.2,1.7c1.3,1.1,1.9,2.4,1.9,4l0,0.1h-3.9
			c0-0.7-0.3-1.4-0.9-1.9c-0.6-0.5-1.3-0.8-2.3-0.8c-1,0-1.7,0.2-2.2,0.7s-0.8,1-0.8,1.6c0,0.6,0.2,1.1,0.7,1.5
			c0.5,0.4,1.5,0.7,2.9,1c2.2,0.4,3.9,1.1,5,1.9c1.1,0.9,1.7,2,1.7,3.4c0,1.6-0.7,2.9-2,4c-1.3,1-3.1,1.5-5.3,1.5
			c-2.3,0-4.2-0.6-5.5-1.8c-1.3-1.2-2-2.6-1.9-4.1l0-0.1h3.7c0,1,0.4,1.8,1.1,2.3c0.7,0.5,1.6,0.7,2.6,0.7c1,0,1.8-0.2,2.4-0.6
			S406.1,175.2,406.1,174.6z"/>
		<path fill="#FFFFFF" d="M421,176.6c0.9,0,1.7-0.3,2.3-0.9s1-1.3,1-2.2h3.6l0,0.1c0,1.7-0.6,3.1-2,4.3c-1.4,1.2-3,1.8-5,1.8
			c-2.6,0-4.6-0.9-6-2.6c-1.4-1.7-2.1-3.9-2.1-6.5v-0.6c0-2.6,0.7-4.7,2.1-6.5s3.4-2.6,6-2.6c2.1,0,3.8,0.6,5.1,1.9s1.9,2.8,1.9,4.8
			l0,0.1h-3.6c0-1-0.3-1.8-0.9-2.5s-1.4-1-2.4-1c-1.4,0-2.5,0.6-3.1,1.7c-0.6,1.1-0.9,2.5-0.9,4.1v0.6c0,1.7,0.3,3.1,0.9,4.2
			C418.5,176.1,419.5,176.6,421,176.6z"/>
		<path fill="#FFFFFF" d="M442.5,176.8c-0.6,1-1.3,1.7-2.1,2.2s-1.9,0.8-3,0.8c-1.9,0-3.4-0.6-4.5-1.9c-1.1-1.3-1.6-3.2-1.6-5.9
			v-10.5h4v10.5c0,1.7,0.2,2.9,0.7,3.5c0.5,0.6,1.3,1,2.3,1c1,0,1.8-0.2,2.4-0.5s1.2-0.9,1.6-1.5v-13h4v17.9h-3.5L442.5,176.8z"/>
		<path fill="#FFFFFF" d="M458.2,179.8c-2.6,0-4.7-0.8-6.1-2.5c-1.5-1.7-2.2-3.8-2.2-6.4v-0.7c0-2.6,0.7-4.8,2.2-6.5
			c1.5-1.7,3.4-2.6,5.7-2.5c2.4,0,4.2,0.7,5.5,2.2c1.2,1.5,1.9,3.5,1.9,6v2.2H454l0,0.1c0,1.5,0.4,2.7,1.2,3.6
			c0.7,0.9,1.8,1.4,3.3,1.4c1.1,0,2-0.1,2.8-0.4s1.5-0.6,2.2-1.1l1.3,2.6c-0.7,0.6-1.6,1.1-2.7,1.5
			C460.9,179.6,459.6,179.8,458.2,179.8z M457.7,164.4c-1.1,0-1.9,0.4-2.5,1.1c-0.6,0.8-1,1.7-1.2,3l0,0.1h7v-0.3
			c0-1.1-0.3-2.1-0.8-2.8C459.8,164.8,458.9,164.4,457.7,164.4z"/>
		<path fill="#FFFFFF" d="M472,161.5l0.2,2.6c0.6-0.9,1.3-1.6,2.2-2.1c0.9-0.5,1.9-0.8,3-0.8c1.9,0,3.3,0.6,4.4,1.7
			c1,1.2,1.6,2.9,1.6,5.4v11.2h-4v-11.1c0-1.4-0.3-2.4-0.8-3s-1.4-0.9-2.5-0.9c-0.9,0-1.6,0.2-2.2,0.5s-1.1,0.8-1.5,1.4v13.1h-4
			v-17.9H472z"/>
		<path fill="#FFFFFF" d="M492.7,157.2v4.4h3.2v3h-3.2v9.9c0,0.7,0.2,1.3,0.5,1.6c0.3,0.3,0.7,0.5,1.3,0.5c0.2,0,0.4,0,0.6-0.1
			c0.2,0,0.4-0.1,0.6-0.2l0.4,3c-0.3,0.2-0.8,0.3-1.2,0.4c-0.5,0.1-1,0.2-1.5,0.2c-1.5,0-2.6-0.4-3.5-1.3s-1.3-2.2-1.3-4.1v-9.9H486
			v-3h2.7v-4.4H492.7z"/>
		<path fill="#FFFFFF" d="M498.5,170.3c0-2.7,0.7-4.9,2.2-6.6c1.5-1.7,3.5-2.6,6-2.6c2.6,0,4.6,0.9,6.1,2.6c1.5,1.7,2.2,3.9,2.2,6.6
			v0.3c0,2.7-0.7,4.9-2.2,6.6c-1.5,1.7-3.5,2.5-6,2.5c-2.6,0-4.6-0.9-6-2.6c-1.5-1.7-2.2-3.9-2.2-6.6V170.3z M502.5,170.7
			c0,1.8,0.3,3.2,1,4.3s1.7,1.6,3.2,1.6c1.4,0,2.5-0.5,3.2-1.7s1.1-2.5,1.1-4.3v-0.3c0-1.7-0.4-3.1-1.1-4.2s-1.8-1.7-3.2-1.7
			c-1.4,0-2.5,0.6-3.1,1.7c-0.7,1.1-1,2.5-1,4.2V170.7z"/>
		<path fill="#FFFFFF" d="M528.5,174.6c0-0.6-0.3-1.1-0.8-1.5c-0.5-0.4-1.5-0.8-3-1.1c-2.1-0.4-3.7-1.1-4.8-1.9s-1.7-2-1.7-3.4
			c0-1.5,0.6-2.8,1.9-3.9s2.9-1.6,5-1.6c2.1,0,3.9,0.5,5.2,1.7s1.9,2.4,1.9,4l0,0.1h-3.9c0-0.7-0.3-1.4-0.9-1.9s-1.3-0.8-2.3-0.8
			c-1,0-1.7,0.2-2.2,0.7c-0.5,0.4-0.8,1-0.8,1.6c0,0.6,0.2,1.1,0.7,1.5c0.5,0.4,1.5,0.7,2.9,1c2.2,0.4,3.9,1.1,5,1.9
			c1.1,0.9,1.7,2,1.7,3.4c0,1.6-0.7,2.9-2,4s-3.1,1.5-5.3,1.5c-2.3,0-4.2-0.6-5.5-1.8c-1.3-1.2-2-2.6-1.9-4.1l0-0.1h3.7
			c0,1,0.4,1.8,1.1,2.3c0.7,0.5,1.6,0.7,2.6,0.7c1,0,1.8-0.2,2.4-0.6C528.3,175.8,528.5,175.2,528.5,174.6z"/>
		<path fill="#FFFFFF" d="M16.4,210.8c0.9,0,1.7-0.3,2.3-0.9c0.6-0.6,1-1.3,1-2.2h3.6l0,0.1c0,1.7-0.6,3.1-2,4.3
			c-1.4,1.2-3,1.8-5,1.8c-2.6,0-4.6-0.9-6-2.6c-1.4-1.7-2.1-3.9-2.1-6.5v-0.6c0-2.6,0.7-4.7,2.1-6.5s3.4-2.6,6-2.6
			c2.1,0,3.8,0.6,5.1,1.9c1.3,1.3,1.9,2.8,1.9,4.8l0,0.1h-3.6c0-1-0.3-1.8-0.9-2.5s-1.4-1-2.4-1c-1.4,0-2.5,0.6-3.1,1.7
			c-0.6,1.1-0.9,2.5-0.9,4.1v0.6c0,1.7,0.3,3.1,0.9,4.2C13.9,210.3,15,210.8,16.4,210.8z"/>
		<path fill="#FFFFFF" d="M26,204.6c0-2.7,0.7-4.9,2.2-6.6c1.5-1.7,3.5-2.6,6-2.6c2.6,0,4.6,0.9,6.1,2.6c1.5,1.7,2.2,3.9,2.2,6.6
			v0.3c0,2.7-0.7,4.9-2.2,6.6c-1.5,1.7-3.5,2.5-6,2.5c-2.6,0-4.6-0.9-6-2.6c-1.5-1.7-2.2-3.9-2.2-6.6V204.6z M30.1,204.9
			c0,1.8,0.3,3.2,1,4.3s1.7,1.6,3.2,1.6c1.4,0,2.5-0.5,3.2-1.7s1.1-2.5,1.1-4.3v-0.3c0-1.7-0.4-3.1-1.1-4.2s-1.8-1.7-3.2-1.7
			c-1.4,0-2.5,0.6-3.1,1.7c-0.7,1.1-1,2.5-1,4.2V204.9z"/>
		<path fill="#FFFFFF" d="M49.7,195.8l0.2,2.6c0.6-0.9,1.3-1.6,2.2-2.1c0.9-0.5,1.9-0.8,3-0.8c1.9,0,3.3,0.6,4.4,1.7
			c1,1.2,1.6,2.9,1.6,5.4v11.2h-4v-11.1c0-1.4-0.3-2.4-0.8-3s-1.4-0.9-2.5-0.9c-0.9,0-1.6,0.2-2.2,0.5c-0.6,0.3-1.1,0.8-1.5,1.4
			v13.1h-4v-17.9H49.7z"/>
		<path fill="#FFFFFF" d="M70.4,191.4v4.4h3.2v3h-3.2v9.9c0,0.7,0.2,1.3,0.5,1.6c0.3,0.3,0.7,0.5,1.3,0.5c0.2,0,0.4,0,0.6-0.1
			c0.2,0,0.4-0.1,0.6-0.2l0.4,3c-0.3,0.2-0.7,0.3-1.2,0.4c-0.5,0.1-1,0.2-1.5,0.2c-1.5,0-2.6-0.4-3.5-1.3s-1.3-2.2-1.3-4.1v-9.9
			h-2.7v-3h2.7v-4.4H70.4z"/>
		<path fill="#FFFFFF" d="M85.8,199.4l-1.7-0.1c-0.8,0-1.4,0.2-2,0.5s-0.9,0.8-1.2,1.4v12.5h-4v-17.9h3.7l0.3,2.6
			c0.5-0.9,1-1.6,1.7-2.2c0.7-0.5,1.5-0.8,2.5-0.8c0.2,0,0.5,0,0.7,0.1c0.2,0,0.4,0.1,0.6,0.1L85.8,199.4z"/>
		<path fill="#FFFFFF" d="M99.6,213.7c-0.1-0.5-0.3-0.9-0.4-1.3c-0.1-0.4-0.2-0.9-0.2-1.3c-0.5,0.8-1.3,1.5-2.2,2.1
			c-0.9,0.6-1.9,0.9-3,0.9c-1.9,0-3.3-0.5-4.3-1.4s-1.5-2.3-1.5-4c0-1.7,0.7-3.1,2.1-4.1s3.3-1.5,5.8-1.5h3.1v-1.6
			c0-0.9-0.3-1.7-0.8-2.2c-0.5-0.5-1.3-0.8-2.4-0.8c-0.9,0-1.6,0.2-2.2,0.7c-0.5,0.4-0.8,1-0.8,1.7l-3.9,0l0-0.1
			c-0.1-1.4,0.6-2.7,1.9-3.8s3.1-1.6,5.3-1.6c2.1,0,3.8,0.5,5.1,1.6s1.9,2.6,1.9,4.6v8c0,0.7,0,1.5,0.1,2.1c0.1,0.7,0.3,1.3,0.5,2
			H99.6z M94.7,210.8c1,0,1.9-0.3,2.7-0.8s1.4-1.1,1.6-1.7v-2.7h-3.2c-1.2,0-2.1,0.3-2.8,0.9c-0.7,0.6-1,1.3-1,2
			c0,0.7,0.2,1.2,0.7,1.6C93.2,210.6,93.9,210.8,94.7,210.8z"/>
		<path fill="#FFFFFF" d="M112.5,191.4v4.4h3.2v3h-3.2v9.9c0,0.7,0.2,1.3,0.5,1.6s0.7,0.5,1.3,0.5c0.2,0,0.4,0,0.6-0.1
			c0.2,0,0.4-0.1,0.6-0.2l0.4,3c-0.3,0.2-0.7,0.3-1.2,0.4c-0.5,0.1-1,0.2-1.5,0.2c-1.5,0-2.6-0.4-3.5-1.3s-1.3-2.2-1.3-4.1v-9.9
			h-2.7v-3h2.7v-4.4H112.5z"/>
		<path fill="#FFFFFF" d="M129.7,213.7c-0.1-0.5-0.3-0.9-0.4-1.3c-0.1-0.4-0.2-0.9-0.2-1.3c-0.5,0.8-1.3,1.5-2.2,2.1s-1.9,0.9-3,0.9
			c-1.9,0-3.3-0.5-4.3-1.4c-1-1-1.5-2.3-1.5-4c0-1.7,0.7-3.1,2.1-4.1s3.3-1.5,5.8-1.5h3.1v-1.6c0-0.9-0.3-1.7-0.8-2.2
			c-0.5-0.5-1.3-0.8-2.4-0.8c-0.9,0-1.6,0.2-2.2,0.7c-0.5,0.4-0.8,1-0.8,1.7l-3.9,0l0-0.1c-0.1-1.4,0.6-2.7,1.9-3.8s3.1-1.6,5.2-1.6
			c2.1,0,3.8,0.5,5.1,1.6s1.9,2.6,1.9,4.6v8c0,0.7,0,1.5,0.1,2.1c0.1,0.7,0.3,1.3,0.5,2H129.7z M124.8,210.8c1,0,1.9-0.3,2.7-0.8
			s1.4-1.1,1.6-1.7v-2.7H126c-1.2,0-2.1,0.3-2.8,0.9c-0.7,0.6-1,1.3-1,2c0,0.7,0.2,1.2,0.7,1.6C123.3,210.6,124,210.8,124.8,210.8z"
			/>
		<path fill="#FFFFFF" d="M141.1,195.8l0.2,2.6c0.6-0.9,1.3-1.6,2.2-2.1c0.9-0.5,1.9-0.8,3-0.8c1.9,0,3.3,0.6,4.4,1.7
			c1,1.2,1.6,2.9,1.6,5.4v11.2h-4v-11.1c0-1.4-0.3-2.4-0.8-3c-0.5-0.6-1.4-0.9-2.5-0.9c-0.9,0-1.6,0.2-2.2,0.5s-1.1,0.8-1.5,1.4
			v13.1h-4v-17.9H141.1z"/>
		<path fill="#FFFFFF" d="M155.9,205c0-2.9,0.6-5.2,1.8-6.9c1.2-1.8,3-2.6,5.2-2.6c1,0,1.8,0.2,2.6,0.6s1.4,1,2,1.7v-9.9h4v25.9
			h-3.3l-0.5-2.3c-0.6,0.9-1.3,1.5-2.1,1.9s-1.8,0.7-2.8,0.7c-2.2,0-3.9-0.8-5.1-2.4c-1.2-1.6-1.8-3.7-1.8-6.3V205z M159.9,205.3
			c0,1.7,0.3,3,1,4c0.6,1,1.6,1.5,3,1.5c0.9,0,1.6-0.2,2.2-0.5c0.6-0.4,1.1-0.9,1.5-1.6v-7.8c-0.4-0.7-0.9-1.2-1.5-1.6
			s-1.3-0.6-2.1-0.6c-1.4,0-2.4,0.6-3,1.7c-0.7,1.2-1,2.7-1,4.5V205.3z"/>
		<path fill="#FFFFFF" d="M175.1,204.6c0-2.7,0.7-4.9,2.2-6.6c1.5-1.7,3.5-2.6,6-2.6c2.6,0,4.6,0.9,6.1,2.6c1.5,1.7,2.2,3.9,2.2,6.6
			v0.3c0,2.7-0.7,4.9-2.2,6.6c-1.5,1.7-3.5,2.5-6,2.5c-2.6,0-4.6-0.9-6-2.6c-1.5-1.7-2.2-3.9-2.2-6.6V204.6z M179.2,204.9
			c0,1.8,0.3,3.2,1,4.3s1.7,1.6,3.2,1.6c1.4,0,2.5-0.5,3.2-1.7s1.1-2.5,1.1-4.3v-0.3c0-1.7-0.4-3.1-1.1-4.2s-1.8-1.7-3.2-1.7
			c-1.4,0-2.5,0.6-3.1,1.7c-0.7,1.1-1,2.5-1,4.2V204.9z"/>
		<path fill="#FFFFFF" d="M216.7,207.5c0-1-0.4-1.8-1.1-2.5c-0.7-0.6-2-1.2-3.8-1.7c-2.6-0.7-4.6-1.7-6-2.8s-2.1-2.7-2.1-4.6
			c0-1.9,0.8-3.5,2.3-4.8c1.5-1.3,3.5-1.9,6-1.9c2.6,0,4.7,0.7,6.3,2.1c1.6,1.4,2.3,3.1,2.3,5.2l0,0.1h-3.9c0-1.3-0.4-2.3-1.3-3
			c-0.8-0.8-2-1.1-3.4-1.1c-1.4,0-2.4,0.3-3.1,1s-1.1,1.5-1.1,2.5c0,0.9,0.4,1.7,1.2,2.3c0.8,0.6,2.1,1.2,4,1.7
			c2.5,0.7,4.5,1.7,5.8,2.9c1.3,1.2,2,2.8,2,4.7c0,2-0.8,3.6-2.4,4.8c-1.6,1.2-3.6,1.8-6.2,1.8c-2.5,0-4.6-0.7-6.4-2
			s-2.7-3.1-2.7-5.5l0-0.1h3.9c0,1.4,0.5,2.5,1.5,3.3c1,0.7,2.2,1.1,3.7,1.1c1.4,0,2.5-0.3,3.3-0.9S216.7,208.5,216.7,207.5z"/>
		<path fill="#FFFFFF" d="M232.1,214c-2.6,0-4.7-0.8-6.1-2.5c-1.5-1.7-2.2-3.8-2.2-6.4v-0.7c0-2.6,0.7-4.8,2.2-6.5
			c1.5-1.7,3.4-2.6,5.7-2.5c2.4,0,4.2,0.7,5.5,2.2c1.2,1.5,1.9,3.5,1.9,6v2.2h-11.1l0,0.1c0,1.5,0.4,2.7,1.2,3.6s1.8,1.4,3.3,1.4
			c1.1,0,2-0.1,2.8-0.4s1.5-0.6,2.2-1.1l1.3,2.6c-0.7,0.6-1.6,1.1-2.7,1.5C234.9,213.8,233.6,214,232.1,214z M231.7,198.7
			c-1.1,0-1.9,0.4-2.5,1.1c-0.6,0.8-1,1.7-1.2,3l0,0.1h7v-0.3c0-1.1-0.3-2.1-0.8-2.8C233.7,199,232.8,198.7,231.7,198.7z"/>
		<path fill="#FFFFFF" d="M241.6,205c0-2.9,0.6-5.2,1.8-6.9s3-2.6,5.2-2.6c1.1,0,2,0.2,2.8,0.7s1.5,1.1,2.1,2l0.4-2.3h3.4v17.9
			c0,2.3-0.7,4.1-2.1,5.4c-1.4,1.3-3.4,1.9-6.1,1.9c-0.9,0-1.8-0.1-2.8-0.4c-1-0.2-1.9-0.6-2.7-1l0.6-3.2c0.7,0.3,1.5,0.6,2.3,0.8
			c0.8,0.2,1.7,0.3,2.6,0.3c1.5,0,2.5-0.3,3.2-0.9c0.7-0.6,1-1.6,1-2.9v-1.8c-0.6,0.7-1.2,1.3-2,1.6s-1.7,0.6-2.6,0.6
			c-2.2,0-3.9-0.8-5.1-2.4s-1.8-3.7-1.8-6.3V205z M245.6,205.3c0,1.7,0.3,3,1,4c0.6,1,1.7,1.5,3,1.5c0.9,0,1.6-0.2,2.2-0.5
			s1.1-0.9,1.4-1.6v-7.9c-0.4-0.7-0.9-1.2-1.5-1.5s-1.3-0.6-2.1-0.6c-1.4,0-2.4,0.6-3.1,1.7s-1,2.7-1,4.5V205.3z"/>
		<path fill="#FFFFFF" d="M272.7,211c-0.6,1-1.3,1.7-2.1,2.2s-1.9,0.8-3,0.8c-1.9,0-3.4-0.6-4.5-1.9c-1.1-1.3-1.6-3.2-1.6-5.9v-10.5
			h4v10.5c0,1.7,0.2,2.9,0.7,3.5c0.5,0.6,1.3,1,2.3,1c1,0,1.8-0.2,2.4-0.5c0.7-0.3,1.2-0.9,1.6-1.5v-13h4v17.9h-3.5L272.7,211z"/>
		<path fill="#FFFFFF" d="M289.7,199.4l-1.7-0.1c-0.8,0-1.4,0.2-2,0.5s-0.9,0.8-1.2,1.4v12.5h-4v-17.9h3.7l0.3,2.6
			c0.5-0.9,1-1.6,1.8-2.2c0.7-0.5,1.5-0.8,2.5-0.8c0.2,0,0.5,0,0.7,0.1c0.2,0,0.4,0.1,0.6,0.1L289.7,199.4z"/>
		<path fill="#FFFFFF" d="M291.6,204.6c0-2.7,0.7-4.9,2.2-6.6c1.5-1.7,3.5-2.6,6-2.6c2.6,0,4.6,0.9,6.1,2.6c1.5,1.7,2.2,3.9,2.2,6.6
			v0.3c0,2.7-0.7,4.9-2.2,6.6c-1.5,1.7-3.5,2.5-6,2.5c-2.6,0-4.6-0.9-6-2.6c-1.5-1.7-2.2-3.9-2.2-6.6V204.6z M295.6,204.9
			c0,1.8,0.3,3.2,1,4.3s1.7,1.6,3.2,1.6c1.4,0,2.5-0.5,3.2-1.7c0.7-1.1,1.1-2.5,1.1-4.3v-0.3c0-1.7-0.4-3.1-1.1-4.2
			c-0.7-1.1-1.8-1.7-3.2-1.7c-1.4,0-2.5,0.6-3.1,1.7s-1,2.5-1,4.2V204.9z"/>
		<path fill="#FFFFFF" d="M321.7,208.8c0-0.6-0.3-1.1-0.8-1.5c-0.5-0.4-1.5-0.8-3-1.1c-2.1-0.4-3.7-1.1-4.8-1.9
			c-1.1-0.8-1.7-2-1.7-3.4c0-1.5,0.6-2.8,1.9-3.9c1.3-1.1,2.9-1.6,5-1.6c2.1,0,3.9,0.5,5.2,1.7s1.9,2.4,1.9,4l0,0.1h-3.9
			c0-0.7-0.3-1.4-0.9-1.9s-1.3-0.8-2.3-0.8c-1,0-1.7,0.2-2.2,0.7s-0.8,1-0.8,1.6c0,0.6,0.2,1.1,0.7,1.5c0.5,0.4,1.5,0.7,2.9,1
			c2.2,0.4,3.9,1.1,5,1.9c1.1,0.9,1.7,2,1.7,3.4c0,1.6-0.7,2.9-2,4c-1.3,1-3.1,1.5-5.3,1.5c-2.3,0-4.2-0.6-5.5-1.8
			c-1.3-1.2-2-2.6-1.9-4.1l0-0.1h3.7c0,1,0.4,1.8,1.1,2.3c0.7,0.5,1.6,0.7,2.6,0.7c1,0,1.8-0.2,2.4-0.6S321.7,209.5,321.7,208.8z"/>
		<path fill="#FFFFFF" d="M357.1,203.8c0,1.2-0.2,2.4-0.5,3.5c-0.3,1.1-0.8,2.1-1.5,3l3.6,3.5l-2.7,2.4l-3.6-3.5
			c-0.8,0.5-1.6,0.8-2.5,1s-1.8,0.3-2.8,0.3c-2.9,0-5.2-1-7-2.9s-2.7-4.4-2.7-7.3v-4.3c0-2.9,0.9-5.4,2.7-7.3
			c1.8-1.9,4.2-2.9,7.1-2.9c3,0,5.4,1,7.2,2.9c1.9,1.9,2.8,4.4,2.8,7.3V203.8z M353,199.4c0-2-0.5-3.7-1.6-5
			c-1.1-1.3-2.5-1.9-4.4-1.9c-1.8,0-3.2,0.6-4.2,1.9s-1.5,2.9-1.5,5v4.4c0,2,0.5,3.7,1.5,5c1,1.3,2.4,1.9,4.2,1.9
			c1.8,0,3.3-0.6,4.4-1.9c1.1-1.3,1.6-3,1.6-5V199.4z"/>
		<path fill="#FFFFFF" d="M372.7,211c-0.6,1-1.3,1.7-2.1,2.2c-0.9,0.5-1.9,0.8-3,0.8c-1.9,0-3.4-0.6-4.5-1.9
			c-1.1-1.3-1.6-3.2-1.6-5.9v-10.5h4v10.5c0,1.7,0.2,2.9,0.7,3.5c0.5,0.6,1.3,1,2.3,1c1,0,1.8-0.2,2.4-0.5c0.7-0.3,1.2-0.9,1.6-1.5
			v-13h4v17.9H373L372.7,211z"/>
		<path fill="#FFFFFF" d="M391.5,213.7c-0.1-0.5-0.3-0.9-0.4-1.3c-0.1-0.4-0.2-0.9-0.2-1.3c-0.5,0.8-1.3,1.5-2.2,2.1
			c-0.9,0.6-1.9,0.9-3,0.9c-1.9,0-3.3-0.5-4.3-1.4s-1.5-2.3-1.5-4c0-1.7,0.7-3.1,2.1-4.1s3.3-1.5,5.8-1.5h3.1v-1.6
			c0-0.9-0.3-1.7-0.8-2.2c-0.5-0.5-1.3-0.8-2.4-0.8c-0.9,0-1.6,0.2-2.2,0.7c-0.5,0.4-0.8,1-0.8,1.7l-3.9,0l0-0.1
			c-0.1-1.4,0.6-2.7,1.9-3.8c1.3-1.1,3.1-1.6,5.2-1.6c2.1,0,3.8,0.5,5.1,1.6c1.3,1.1,1.9,2.6,1.9,4.6v8c0,0.7,0,1.5,0.1,2.1
			c0.1,0.7,0.3,1.3,0.5,2H391.5z M386.6,210.8c1,0,1.9-0.3,2.7-0.8s1.4-1.1,1.6-1.7v-2.7h-3.2c-1.2,0-2.1,0.3-2.8,0.9
			c-0.7,0.6-1,1.3-1,2c0,0.7,0.2,1.2,0.7,1.6S385.8,210.8,386.6,210.8z"/>
		<path fill="#FFFFFF" d="M403.5,213.7h-4v-25.9h4V213.7z"/>
		<path fill="#FFFFFF" d="M412.3,191.4h-4v-3.5h4V191.4z M412.3,213.7h-4v-17.9h4V213.7z"/>
		<path fill="#FFFFFF" d="M427.6,213.7c-0.1-0.5-0.3-0.9-0.4-1.3c-0.1-0.4-0.2-0.9-0.2-1.3c-0.5,0.8-1.3,1.5-2.2,2.1
			c-0.9,0.6-1.9,0.9-3,0.9c-1.9,0-3.3-0.5-4.3-1.4c-1-1-1.5-2.3-1.5-4c0-1.7,0.7-3.1,2.1-4.1s3.3-1.5,5.8-1.5h3.1v-1.6
			c0-0.9-0.3-1.7-0.8-2.2c-0.5-0.5-1.3-0.8-2.4-0.8c-0.9,0-1.6,0.2-2.2,0.7c-0.5,0.4-0.8,1-0.8,1.7l-3.9,0l0-0.1
			c-0.1-1.4,0.6-2.7,1.9-3.8s3.1-1.6,5.3-1.6c2.1,0,3.8,0.5,5.1,1.6c1.3,1.1,1.9,2.6,1.9,4.6v8c0,0.7,0,1.5,0.1,2.1
			c0.1,0.7,0.3,1.3,0.5,2H427.6z M422.7,210.8c1,0,1.9-0.3,2.7-0.8c0.8-0.5,1.4-1.1,1.6-1.7v-2.7h-3.2c-1.2,0-2.1,0.3-2.8,0.9
			c-0.7,0.6-1,1.3-1,2c0,0.7,0.2,1.2,0.7,1.6C421.2,210.6,421.9,210.8,422.7,210.8z"/>
	</g>
</g>
</svg>
