<?xml version="1.0" encoding="utf-8"?>
<!-- Generator: Adobe Illustrator 18.0.0, SVG Export Plug-In . SVG Version: 6.00 Build 0)  -->
<!DOCTYPE svg PUBLIC "-//W3C//DTD SVG 1.1//EN" "http://www.w3.org/Graphics/SVG/1.1/DTD/svg11.dtd" [
	<!ENTITY ns_extend "http://ns.adobe.com/Extensibility/1.0/">
	<!ENTITY ns_ai "http://ns.adobe.com/AdobeIllustrator/10.0/">
	<!ENTITY ns_graphs "http://ns.adobe.com/Graphs/1.0/">
	<!ENTITY ns_vars "http://ns.adobe.com/Variables/1.0/">
	<!ENTITY ns_imrep "http://ns.adobe.com/ImageReplacement/1.0/">
	<!ENTITY ns_sfw "http://ns.adobe.com/SaveForWeb/1.0/">
	<!ENTITY ns_custom "http://ns.adobe.com/GenericCustomNamespace/1.0/">
	<!ENTITY ns_adobe_xpath "http://ns.adobe.com/XPath/1.0/">
]>
<svg version="1.1" id="Capa_1" xmlns:x="&ns_extend;" xmlns:i="&ns_ai;" xmlns:graph="&ns_graphs;"
	 xmlns="http://www.w3.org/2000/svg" xmlns:xlink="http://www.w3.org/1999/xlink" x="0px" y="0px" viewBox="64.5 0 412 224"
	 enable-background="new 64.5 0 412 224" xml:space="preserve">
<metadata>
	<sfw  xmlns="&ns_sfw;">
		<slices></slices>
		<sliceSourceBounds  width="408.6" height="217" x="66.1" y="-31.2" bottomLeftOrigin="true"></sliceSourceBounds>
	</sfw>
</metadata>
<g id="bg">
</g>
<g id="banner_1" display="none">
</g>
<g id="banner_2" display="none">
</g>
<g id="banner_3">
</g>
<g id="vectores_sliders">
</g>
<g id="cabecera">
</g>
<g id="FILA">
</g>
<g>
	<g>
		<path fill="#FFFFFF" d="M89.1,6.2v18.6c0,3.1-1,5.6-3.1,7.4S81.3,35,78,35c-3.2,0-5.8-0.9-7.9-2.7s-3-4.2-3-7.4V6.2h4.7v18.6
			c0,2,0.6,3.6,1.7,4.7c1.1,1.1,2.6,1.6,4.5,1.6c1.9,0,3.5-0.5,4.6-1.6c1.2-1.1,1.7-2.6,1.7-4.7V6.2H89.1z"/>
		<path fill="#FFFFFF" d="M98.4,13.5l0.3,3c0.7-1.1,1.6-1.9,2.6-2.5c1-0.6,2.2-0.9,3.5-0.9c2.2,0,3.9,0.7,5.1,2
			c1.2,1.3,1.8,3.5,1.8,6.3v13.1H107v-13c0-1.6-0.3-2.8-1-3.5c-0.6-0.7-1.6-1-2.9-1c-1,0-1.9,0.2-2.6,0.6c-0.7,0.4-1.3,0.9-1.8,1.6
			v15.4h-4.7v-21H98.4z"/>
		<path fill="#FFFFFF" d="M130.9,13.5l0.3,3c0.7-1.1,1.6-1.9,2.6-2.5c1-0.6,2.2-0.9,3.5-0.9c2.2,0,3.9,0.7,5.1,2
			c1.2,1.3,1.8,3.5,1.8,6.3v13.1h-4.7v-13c0-1.6-0.3-2.8-1-3.5c-0.6-0.7-1.6-1-2.9-1c-1,0-1.9,0.2-2.6,0.6c-0.7,0.4-1.3,0.9-1.8,1.6
			v15.4h-4.7v-21H130.9z"/>
		<path fill="#FFFFFF" d="M162.2,31.4c-0.6,1.1-1.5,2-2.5,2.6c-1,0.6-2.2,0.9-3.5,0.9c-2.3,0-4-0.7-5.3-2.2
			c-1.3-1.5-1.9-3.8-1.9-6.9V13.5h4.7v12.3c0,2,0.3,3.4,0.9,4.1c0.6,0.7,1.5,1.1,2.7,1.1c1.1,0,2.1-0.2,2.9-0.6s1.4-1,1.8-1.8V13.5
			h4.7v21h-4.1L162.2,31.4z"/>
		<path fill="#FFFFFF" d="M180.6,35c-3.1,0-5.5-1-7.2-2.9c-1.7-1.9-2.6-4.4-2.6-7.5v-0.8c0-3.1,0.9-5.6,2.6-7.6c1.7-2,4-3,6.7-3
			c2.8,0,5,0.9,6.4,2.6c1.5,1.7,2.2,4.1,2.2,7v2.5h-13l0,0.1c0.1,1.7,0.5,3.1,1.4,4.2c0.9,1.1,2.1,1.6,3.9,1.6
			c1.3,0,2.4-0.2,3.3-0.5c0.9-0.3,1.8-0.8,2.6-1.3l1.5,3.1c-0.8,0.7-1.9,1.3-3.2,1.8C183.8,34.7,182.3,35,180.6,35z M180.1,16.9
			c-1.2,0-2.2,0.4-3,1.3c-0.7,0.9-1.2,2-1.4,3.5l0,0.1h8.2v-0.4c0-1.3-0.3-2.4-0.9-3.3C182.4,17.3,181.4,16.9,180.1,16.9z"/>
		<path fill="#FFFFFF" d="M199.6,27.4l0.4,1.7h0.1l0.4-1.7l4.2-13.9h4.9l-7.5,21h-4.1l-7.5-21h4.9L199.6,27.4z"/>
		<path fill="#FFFFFF" d="M211.3,23.8c0-3.1,0.9-5.7,2.6-7.7c1.7-2,4.1-3,7-3c3,0,5.4,1,7.1,3c1.7,2,2.6,4.6,2.6,7.7v0.4
			c0,3.2-0.9,5.7-2.6,7.7c-1.7,2-4.1,3-7.1,3c-3,0-5.4-1-7.1-3c-1.7-2-2.6-4.6-2.6-7.7V23.8z M216,24.2c0,2.1,0.4,3.7,1.2,5
			s2,1.9,3.7,1.9c1.6,0,2.9-0.6,3.7-1.9c0.8-1.3,1.2-3,1.2-5v-0.4c0-2-0.4-3.7-1.2-5s-2.1-2-3.7-2c-1.6,0-2.9,0.7-3.7,2
			c-0.8,1.3-1.2,3-1.2,5V24.2z"/>
		<path fill="#FFFFFF" d="M253.2,31.2c1.1,0,2-0.3,2.7-1c0.7-0.7,1.1-1.5,1.1-2.6h4.3l0,0.1c0.1,2-0.7,3.7-2.3,5.1
			c-1.6,1.4-3.6,2.1-5.8,2.1c-3,0-5.4-1-7-3s-2.5-4.5-2.5-7.6v-0.7c0-3,0.8-5.6,2.5-7.6c1.6-2,4-3,7-3c2.4,0,4.4,0.7,6,2.2
			c1.5,1.5,2.3,3.3,2.2,5.6l0,0.1H257c0-1.2-0.4-2.1-1.1-2.9c-0.7-0.8-1.6-1.2-2.8-1.2c-1.7,0-2.9,0.7-3.6,2s-1.1,2.9-1.1,4.8v0.7
			c0,2,0.4,3.6,1.1,4.9C250.2,30.5,251.5,31.2,253.2,31.2z"/>
		<path fill="#FFFFFF" d="M270.3,8.4h-4.7V4.2h4.7V8.4z M270.3,34.5h-4.7v-21h4.7V34.5z"/>
		<path fill="#FFFFFF" d="M284.2,31.2c1.1,0,2-0.3,2.7-1c0.7-0.7,1.1-1.5,1.1-2.6h4.3l0,0.1c0.1,2-0.7,3.7-2.3,5.1
			c-1.6,1.4-3.6,2.1-5.8,2.1c-3,0-5.4-1-7-3c-1.6-2-2.5-4.5-2.5-7.6v-0.7c0-3,0.8-5.6,2.5-7.6c1.6-2,4-3,7-3c2.4,0,4.4,0.7,6,2.2
			c1.5,1.5,2.3,3.3,2.2,5.6l0,0.1H288c0-1.2-0.4-2.1-1.1-2.9c-0.7-0.8-1.6-1.2-2.8-1.2c-1.7,0-2.9,0.7-3.6,2
			c-0.7,1.3-1.1,2.9-1.1,4.8v0.7c0,2,0.4,3.6,1.1,4.9C281.3,30.5,282.5,31.2,284.2,31.2z"/>
		<path fill="#FFFFFF" d="M301.3,34.5h-4.7V4.2h4.7V34.5z"/>
		<path fill="#FFFFFF" d="M305.8,23.8c0-3.1,0.9-5.7,2.6-7.7c1.7-2,4.1-3,7-3c3,0,5.4,1,7.1,3c1.7,2,2.6,4.6,2.6,7.7v0.4
			c0,3.2-0.9,5.7-2.6,7.7c-1.7,2-4.1,3-7.1,3c-3,0-5.4-1-7.1-3c-1.7-2-2.6-4.6-2.6-7.7V23.8z M310.5,24.2c0,2.1,0.4,3.7,1.2,5
			c0.8,1.3,2,1.9,3.7,1.9c1.6,0,2.9-0.6,3.7-1.9c0.8-1.3,1.2-3,1.2-5v-0.4c0-2-0.4-3.7-1.2-5c-0.8-1.3-2.1-2-3.7-2
			c-1.6,0-2.9,0.7-3.7,2s-1.2,3-1.2,5V24.2z"/>
		<path fill="#FFFFFF" d="M338.2,24.3c0-3.4,0.7-6.1,2.2-8.1c1.4-2.1,3.5-3.1,6.1-3.1c1.1,0,2.2,0.2,3.1,0.7c0.9,0.5,1.7,1.1,2.3,2
			V4.2h4.7v30.3h-3.8l-0.6-2.7c-0.7,1-1.5,1.8-2.4,2.3s-2.1,0.8-3.3,0.8c-2.6,0-4.6-0.9-6-2.8c-1.4-1.9-2.2-4.3-2.2-7.4V24.3z
			 M342.9,24.7c0,1.9,0.4,3.5,1.1,4.6c0.7,1.2,1.9,1.7,3.5,1.7c1,0,1.8-0.2,2.5-0.6s1.3-1,1.7-1.8v-9.2c-0.4-0.8-1-1.4-1.7-1.8
			c-0.7-0.4-1.5-0.7-2.5-0.7c-1.6,0-2.8,0.7-3.6,2c-0.8,1.4-1.1,3.1-1.1,5.3V24.7z"/>
		<path fill="#FFFFFF" d="M370.6,35c-3.1,0-5.5-1-7.2-2.9c-1.7-1.9-2.6-4.4-2.6-7.5v-0.8c0-3.1,0.9-5.6,2.6-7.6c1.7-2,4-3,6.7-3
			c2.8,0,5,0.9,6.4,2.6c1.5,1.7,2.2,4.1,2.2,7v2.5h-13l0,0.1c0.1,1.7,0.5,3.1,1.4,4.2c0.9,1.1,2.1,1.6,3.9,1.6
			c1.3,0,2.4-0.2,3.3-0.5c0.9-0.3,1.8-0.8,2.6-1.3l1.5,3.1c-0.8,0.7-1.9,1.3-3.2,1.8C373.8,34.7,372.3,35,370.6,35z M370,16.9
			c-1.2,0-2.2,0.4-3,1.3c-0.7,0.9-1.2,2-1.4,3.5l0,0.1h8.2v-0.4c0-1.3-0.3-2.4-0.9-3.3C372.4,17.3,371.4,16.9,370,16.9z"/>
		<path fill="#FFFFFF" d="M88.8,72.4c-0.9,1.2-2.2,2.2-3.9,3s-4,1.3-6.8,1.3c-3.4,0-6.2-1.1-8.4-3.2c-2.2-2.2-3.3-4.9-3.3-8.4v-5.9
			c0-3.4,1.1-6.2,3.2-8.4c2.1-2.2,4.8-3.2,8.1-3.2c3.5,0,6.1,0.8,7.9,2.5c1.8,1.6,2.7,3.8,2.7,6.6l0,0.1H83c0-1.5-0.4-2.7-1.3-3.5
			c-0.9-0.8-2.1-1.3-3.8-1.3c-1.7,0-3.1,0.7-4.2,2c-1.1,1.3-1.6,3.1-1.6,5.2v5.9c0,2.1,0.5,3.9,1.6,5.2c1.1,1.3,2.5,2,4.4,2
			c1.3,0,2.4-0.1,3.2-0.4c0.8-0.3,1.4-0.6,1.8-1v-5.5h-5.4v-3.9h11.1V72.4z"/>
		<path fill="#FFFFFF" d="M102.3,76.7c-3.1,0-5.6-1-7.3-2.9c-1.8-1.9-2.6-4.4-2.6-7.4v-0.8c0-3.1,0.9-5.7,2.6-7.7c1.7-2,4.1-3,7.1-3
			c2.8,0,5,0.9,6.5,2.6c1.5,1.7,2.3,4.1,2.3,7v2.9H98.2l-0.1,0.1c0.1,1.4,0.5,2.6,1.3,3.5c0.8,0.9,1.9,1.3,3.5,1.3
			c1.3,0,2.3-0.1,3.2-0.4c0.9-0.3,1.8-0.7,2.8-1.2l1.5,3.5c-0.8,0.7-2,1.3-3.4,1.7C105.6,76.4,104,76.7,102.3,76.7z M101.9,59.2
			c-1.1,0-2,0.4-2.6,1.2c-0.6,0.8-1,1.8-1.1,3.1l0,0.1h6.9v-0.4c0-1.2-0.3-2.2-0.8-2.9C103.9,59.6,103.1,59.2,101.9,59.2z"/>
		<path fill="#FFFFFF" d="M125.4,70.4c0-0.6-0.3-1.2-0.9-1.6c-0.6-0.4-1.7-0.8-3.4-1.2c-2.5-0.5-4.3-1.2-5.6-2.2
			c-1.3-1-1.9-2.4-1.9-4.1c0-1.8,0.8-3.3,2.3-4.6c1.5-1.3,3.6-1.9,6.1-1.9c2.7,0,4.8,0.6,6.4,1.9c1.6,1.3,2.4,2.9,2.3,4.7l0,0.1
			h-5.5c0-0.8-0.3-1.5-0.8-2.1c-0.5-0.5-1.3-0.8-2.4-0.8c-0.9,0-1.6,0.2-2.2,0.7c-0.5,0.5-0.8,1-0.8,1.7c0,0.6,0.3,1.2,0.8,1.6
			c0.6,0.4,1.7,0.8,3.4,1.1c2.6,0.5,4.5,1.3,5.8,2.3c1.3,1,1.9,2.4,1.9,4.1c0,1.9-0.8,3.4-2.4,4.6c-1.6,1.2-3.8,1.8-6.4,1.8
			c-2.8,0-5-0.7-6.6-2.1c-1.6-1.4-2.4-3-2.3-4.8l0-0.1h5.2c0,1.1,0.4,1.9,1.1,2.4c0.7,0.5,1.6,0.8,2.7,0.8c1,0,1.8-0.2,2.4-0.6
			C125.1,71.7,125.4,71.1,125.4,70.4z"/>
		<path fill="#FFFFFF" d="M141.3,50.1v5.2h3.6v4h-3.6v10.7c0,0.8,0.2,1.4,0.5,1.7c0.3,0.4,0.8,0.5,1.4,0.5c0.3,0,0.6,0,0.8,0
			c0.2,0,0.5-0.1,0.8-0.2l0.5,4.1c-0.6,0.2-1.1,0.3-1.7,0.4s-1.1,0.1-1.8,0.1c-2,0-3.5-0.5-4.5-1.6c-1.1-1.1-1.6-2.8-1.6-5.1V59.2
			h-3.1v-4h3.1v-5.2H141.3z"/>
		<path fill="#FFFFFF" d="M154.4,50.2h-5.7v-4.3h5.7V50.2z M154.4,76.2h-5.7v-21h5.7V76.2z"/>
		<path fill="#FFFFFF" d="M158.1,65.5c0-3.1,0.9-5.7,2.6-7.7c1.7-2,4.2-3,7.3-3c3.1,0,5.5,1,7.3,3c1.8,2,2.6,4.6,2.6,7.7v0.4
			c0,3.2-0.9,5.7-2.6,7.7c-1.8,2-4.2,3-7.3,3c-3.1,0-5.5-1-7.3-3c-1.8-2-2.6-4.6-2.6-7.7V65.5z M163.8,65.9c0,1.9,0.3,3.5,1,4.6
			c0.7,1.2,1.8,1.7,3.3,1.7c1.5,0,2.5-0.6,3.2-1.7c0.7-1.2,1-2.7,1-4.6v-0.4c0-1.9-0.3-3.4-1-4.6c-0.7-1.2-1.8-1.8-3.2-1.8
			c-1.5,0-2.5,0.6-3.2,1.8c-0.7,1.2-1,2.7-1,4.6V65.9z M169.2,46.2h6.3l0,0.1l-5.4,5.1h-4.8L169.2,46.2z"/>
		<path fill="#FFFFFF" d="M186.7,55.2l0.3,3c0.7-1.1,1.6-1.9,2.6-2.5c1-0.6,2.2-0.9,3.4-0.9c2.1,0,3.8,0.7,5,2.1
			c1.2,1.4,1.8,3.5,1.8,6.5v12.9H194V63.4c0-1.5-0.3-2.6-0.8-3.2c-0.5-0.6-1.3-0.9-2.4-0.9c-0.8,0-1.6,0.2-2.2,0.5
			c-0.6,0.3-1.2,0.8-1.6,1.3v15.2h-5.7v-21H186.7z"/>
		<path fill="#FFFFFF" d="M213,65.9c0-3.3,0.7-6,2.1-8s3.4-3.1,6.1-3.1c1,0,2,0.2,2.8,0.7s1.6,1.1,2.2,1.9V45.9h5.7v30.3h-4.8
			l-0.5-2.6c-0.7,1-1.4,1.7-2.4,2.2c-0.9,0.5-1.9,0.8-3.1,0.8c-2.6,0-4.6-0.9-6-2.8c-1.4-1.9-2.1-4.4-2.1-7.5V65.9z M218.6,66.3
			c0,1.8,0.3,3.3,0.9,4.3c0.6,1.1,1.6,1.6,3,1.6c0.8,0,1.5-0.2,2.1-0.5c0.6-0.3,1.1-0.8,1.5-1.4v-9c-0.4-0.7-0.9-1.2-1.5-1.5
			c-0.6-0.4-1.3-0.6-2.1-0.6c-1.4,0-2.4,0.6-3,1.8c-0.6,1.2-1,2.8-1,4.8V66.3z"/>
		<path fill="#FFFFFF" d="M245.4,76.7c-3.1,0-5.6-1-7.3-2.9s-2.6-4.4-2.6-7.4v-0.8c0-3.1,0.9-5.7,2.6-7.7c1.7-2,4.1-3,7.1-3
			c2.8,0,5,0.9,6.5,2.6c1.5,1.7,2.3,4.1,2.3,7v2.9h-12.5l-0.1,0.1c0.1,1.4,0.5,2.6,1.3,3.5c0.8,0.9,1.9,1.3,3.5,1.3
			c1.3,0,2.3-0.1,3.2-0.4s1.8-0.7,2.8-1.2l1.5,3.5c-0.8,0.7-2,1.3-3.4,1.7C248.7,76.4,247.1,76.7,245.4,76.7z M245.1,59.2
			c-1.1,0-2,0.4-2.6,1.2c-0.6,0.8-1,1.8-1.1,3.1l0,0.1h6.9v-0.4c0-1.2-0.3-2.2-0.8-2.9C247,59.6,246.2,59.2,245.1,59.2z"/>
		<path fill="#FFFFFF" d="M267.5,76.2V47.9h9.9c3.5,0,6.3,1.1,8.6,3.3c2.2,2.2,3.4,5,3.4,8.5v4.7c0,3.5-1.1,6.3-3.4,8.5
			c-2.2,2.2-5.1,3.3-8.6,3.3H267.5z M273.2,52.3v19.6h4.2c1.9,0,3.4-0.7,4.5-2.1c1.1-1.4,1.7-3.2,1.7-5.4v-4.7
			c0-2.2-0.6-3.9-1.7-5.3c-1.1-1.4-2.6-2.1-4.5-2.1H273.2z"/>
		<path fill="#FFFFFF" d="M302.5,76.7c-3.1,0-5.6-1-7.3-2.9s-2.6-4.4-2.6-7.4v-0.8c0-3.1,0.9-5.7,2.6-7.7c1.7-2,4.1-3,7.1-3
			c2.8,0,5,0.9,6.5,2.6c1.5,1.7,2.3,4.1,2.3,7v2.9h-12.5l-0.1,0.1c0.1,1.4,0.5,2.6,1.3,3.5c0.8,0.9,1.9,1.3,3.5,1.3
			c1.3,0,2.3-0.1,3.2-0.4s1.8-0.7,2.8-1.2l1.5,3.5c-0.8,0.7-2,1.3-3.4,1.7C305.8,76.4,304.2,76.7,302.5,76.7z M302.1,59.2
			c-1.1,0-2,0.4-2.6,1.2c-0.6,0.8-1,1.8-1.1,3.1l0,0.1h6.9v-0.4c0-1.2-0.3-2.2-0.8-2.9C304.1,59.6,303.3,59.2,302.1,59.2z"/>
		<path fill="#FFFFFF" d="M325.6,70.4c0-0.6-0.3-1.2-0.9-1.6c-0.6-0.4-1.7-0.8-3.4-1.2c-2.5-0.5-4.3-1.2-5.6-2.2
			c-1.3-1-1.9-2.4-1.9-4.1c0-1.8,0.8-3.3,2.3-4.6c1.5-1.3,3.6-1.9,6.1-1.9c2.7,0,4.8,0.6,6.4,1.9c1.6,1.3,2.4,2.9,2.3,4.7l0,0.1
			h-5.5c0-0.8-0.3-1.5-0.8-2.1c-0.5-0.5-1.3-0.8-2.4-0.8c-0.9,0-1.6,0.2-2.2,0.7c-0.5,0.5-0.8,1-0.8,1.7c0,0.6,0.3,1.2,0.8,1.6
			s1.7,0.8,3.4,1.1c2.6,0.5,4.5,1.3,5.8,2.3c1.3,1,1.9,2.4,1.9,4.1c0,1.9-0.8,3.4-2.4,4.6c-1.6,1.2-3.8,1.8-6.4,1.8
			c-2.8,0-5-0.7-6.6-2.1c-1.6-1.4-2.4-3-2.3-4.8l0-0.1h5.2c0,1.1,0.4,1.9,1.1,2.4s1.6,0.8,2.7,0.8c1,0,1.8-0.2,2.4-0.6
			C325.3,71.7,325.6,71.1,325.6,70.4z"/>
		<path fill="#FFFFFF" d="M343.8,76.7c-3.1,0-5.6-1-7.3-2.9s-2.6-4.4-2.6-7.4v-0.8c0-3.1,0.9-5.7,2.6-7.7c1.7-2,4.1-3,7.1-3
			c2.8,0,5,0.9,6.5,2.6c1.5,1.7,2.3,4.1,2.3,7v2.9h-12.5l-0.1,0.1c0.1,1.4,0.5,2.6,1.3,3.5c0.8,0.9,1.9,1.3,3.5,1.3
			c1.3,0,2.3-0.1,3.2-0.4s1.8-0.7,2.8-1.2l1.5,3.5c-0.8,0.7-2,1.3-3.4,1.7C347.1,76.4,345.5,76.7,343.8,76.7z M343.5,59.2
			c-1.1,0-2,0.4-2.6,1.2c-0.6,0.8-1,1.8-1.1,3.1l0,0.1h6.9v-0.4c0-1.2-0.3-2.2-0.8-2.9C345.4,59.6,344.6,59.2,343.5,59.2z"/>
		<path fill="#FFFFFF" d="M360.8,55.2L361,58c0.7-1,1.5-1.8,2.5-2.3c1-0.6,2.2-0.8,3.5-0.8c1.3,0,2.5,0.3,3.5,0.9
			c1,0.6,1.7,1.5,2.2,2.7c0.6-1.1,1.5-2,2.5-2.6c1-0.6,2.3-1,3.7-1c2.1,0,3.7,0.7,4.9,2.2c1.2,1.5,1.8,3.7,1.8,6.7v12.5H380V63.7
			c0-1.7-0.3-2.9-0.8-3.5c-0.5-0.7-1.3-1-2.3-1c-0.8,0-1.5,0.2-2.1,0.5s-1.1,0.9-1.4,1.5c0,0.2,0,0.5,0,0.6c0,0.2,0,0.4,0,0.5v13.8
			h-5.7V63.7c0-1.6-0.3-2.8-0.8-3.5c-0.5-0.7-1.3-1-2.3-1c-0.8,0-1.4,0.1-2,0.4c-0.6,0.3-1.1,0.7-1.4,1.2v15.3h-5.7v-21H360.8z"/>
		<path fill="#FFFFFF" d="M409,66.3c0,3.1-0.7,5.6-2.2,7.5c-1.4,1.9-3.4,2.8-6,2.8c-1.1,0-2.1-0.2-2.9-0.6s-1.6-1-2.2-1.8v10.1H390
			V55.2h5.1l0.3,2.5c0.6-0.9,1.4-1.6,2.2-2.1c0.9-0.5,1.9-0.7,3.1-0.7c2.6,0,4.6,1,6.1,3.1s2.2,4.7,2.2,8V66.3z M403.3,65.9
			c0-2-0.3-3.6-1-4.8c-0.7-1.2-1.7-1.8-3-1.8c-0.9,0-1.6,0.2-2.2,0.5c-0.6,0.3-1.1,0.8-1.4,1.5v9.2c0.4,0.6,0.8,1,1.4,1.4
			c0.6,0.3,1.3,0.5,2.2,0.5c1.4,0,2.4-0.5,3-1.6c0.6-1.1,1-2.5,1-4.4V65.9z"/>
		<path fill="#FFFFFF" d="M421.6,76.7c-3.1,0-5.6-1-7.3-2.9c-1.8-1.9-2.6-4.4-2.6-7.4v-0.8c0-3.1,0.9-5.7,2.6-7.7c1.7-2,4.1-3,7.1-3
			c2.8,0,5,0.9,6.5,2.6c1.5,1.7,2.3,4.1,2.3,7v2.9h-12.5l-0.1,0.1c0.1,1.4,0.5,2.6,1.3,3.5c0.8,0.9,1.9,1.3,3.5,1.3
			c1.3,0,2.3-0.1,3.2-0.4c0.9-0.3,1.8-0.7,2.8-1.2l1.5,3.5c-0.8,0.7-2,1.3-3.4,1.7S423.3,76.7,421.6,76.7z M421.2,59.2
			c-1.1,0-2,0.4-2.6,1.2c-0.6,0.8-1,1.8-1.1,3.1l0,0.1h6.9v-0.4c0-1.2-0.3-2.2-0.8-2.9C423.1,59.6,422.3,59.2,421.2,59.2z"/>
		<path fill="#FFFFFF" d="M438.5,55.2l0.3,3c0.7-1.1,1.6-1.9,2.6-2.5c1-0.6,2.2-0.9,3.4-0.9c2.1,0,3.8,0.7,5,2.1
			c1.2,1.4,1.8,3.5,1.8,6.5v12.9h-5.7V63.4c0-1.5-0.3-2.6-0.8-3.2s-1.3-0.9-2.4-0.9c-0.8,0-1.6,0.2-2.2,0.5
			c-0.6,0.3-1.2,0.8-1.6,1.3v15.2h-5.7v-21H438.5z M449.6,46.4c0,1.2-0.4,2.3-1.2,3.2c-0.8,0.9-1.7,1.3-2.9,1.3
			c-0.9,0-1.9-0.3-3.1-0.8c-1.1-0.6-2.1-0.8-2.7-0.8c-0.5,0-0.9,0.2-1.2,0.6c-0.3,0.4-0.5,0.9-0.5,1.5l-3-0.8c0-1.2,0.4-2.3,1.2-3.2
			c0.8-0.9,1.7-1.4,2.9-1.4c0.7,0,1.7,0.3,3,0.8c1.2,0.6,2.2,0.8,2.9,0.8c0.4,0,0.8-0.2,1.2-0.6c0.3-0.4,0.5-0.9,0.5-1.5L449.6,46.4
			z"/>
		<path fill="#FFFFFF" d="M454.9,65.5c0-3.1,0.9-5.7,2.6-7.7c1.7-2,4.2-3,7.3-3c3.1,0,5.5,1,7.3,3c1.8,2,2.6,4.6,2.6,7.7v0.4
			c0,3.2-0.9,5.7-2.6,7.7c-1.8,2-4.2,3-7.3,3c-3.1,0-5.5-1-7.3-3c-1.8-2-2.6-4.6-2.6-7.7V65.5z M460.5,65.9c0,1.9,0.3,3.5,1,4.6
			c0.7,1.2,1.8,1.7,3.3,1.7c1.5,0,2.5-0.6,3.2-1.7c0.7-1.2,1-2.7,1-4.6v-0.4c0-1.9-0.3-3.4-1-4.6s-1.8-1.8-3.2-1.8
			c-1.5,0-2.5,0.6-3.2,1.8c-0.7,1.2-1,2.7-1,4.6V65.9z"/>
		<path fill="#FFFFFF" d="M75.9,118.4c-3.1,0-5.5-1-7.2-2.9c-1.7-1.9-2.6-4.4-2.6-7.5v-0.8c0-3.1,0.9-5.6,2.6-7.6c1.7-2,4-3,6.7-3
			c2.8,0,5,0.9,6.4,2.6c1.5,1.7,2.2,4.1,2.2,7v2.5H71l0,0.1c0.1,1.7,0.5,3.1,1.4,4.2c0.9,1.1,2.1,1.6,3.9,1.6c1.3,0,2.4-0.2,3.3-0.5
			c0.9-0.3,1.8-0.8,2.6-1.3l1.5,3.1c-0.8,0.7-1.9,1.3-3.2,1.8C79.2,118.1,77.6,118.4,75.9,118.4z M75.4,100.3c-1.2,0-2.2,0.4-3,1.3
			c-0.7,0.9-1.2,2-1.4,3.5l0,0.1h8.2v-0.4c0-1.3-0.3-2.4-0.9-3.3C77.8,100.7,76.8,100.3,75.4,100.3z"/>
		<path fill="#FFFFFF" d="M99.6,112.2c0-0.7-0.3-1.3-0.9-1.8c-0.6-0.5-1.8-0.9-3.5-1.3c-2.5-0.5-4.4-1.3-5.7-2.2s-2-2.3-2-4
			c0-1.8,0.7-3.3,2.2-4.5c1.5-1.3,3.5-1.9,5.9-1.9c2.5,0,4.5,0.6,6.1,1.9c1.5,1.3,2.3,2.8,2.2,4.7l0,0.1h-4.5c0-0.9-0.3-1.6-1-2.2
			c-0.7-0.6-1.6-0.9-2.7-0.9c-1.1,0-2,0.3-2.6,0.8c-0.6,0.5-0.9,1.2-0.9,1.9c0,0.7,0.3,1.3,0.8,1.7c0.6,0.4,1.7,0.8,3.4,1.1
			c2.6,0.5,4.5,1.3,5.8,2.3c1.3,1,2,2.3,2,4c0,1.9-0.8,3.4-2.3,4.6c-1.6,1.2-3.6,1.8-6.2,1.8c-2.7,0-4.9-0.7-6.5-2.1s-2.3-3-2.3-4.8
			l0-0.1h4.4c0.1,1.2,0.5,2.1,1.3,2.7c0.8,0.6,1.8,0.8,3,0.8c1.2,0,2.1-0.2,2.8-0.7S99.6,113,99.6,112.2z"/>
		<path fill="#FFFFFF" d="M114.6,91.8v5.1h3.8v3.5h-3.8V112c0,0.9,0.2,1.5,0.6,1.9c0.4,0.4,0.9,0.6,1.5,0.6c0.3,0,0.5,0,0.8-0.1
			c0.2,0,0.5-0.1,0.7-0.2l0.5,3.5c-0.4,0.2-0.9,0.4-1.4,0.5c-0.6,0.1-1.1,0.2-1.7,0.2c-1.7,0-3.1-0.5-4.1-1.5s-1.5-2.6-1.5-4.8
			v-11.6h-3.2v-3.5h3.2v-5.1H114.6z"/>
		<path fill="#FFFFFF" d="M134.8,117.9c-0.2-0.5-0.3-1-0.4-1.6c-0.1-0.5-0.2-1-0.2-1.5c-0.6,1-1.5,1.8-2.5,2.5c-1.1,0.7-2.2,1-3.6,1
			c-2.2,0-3.9-0.6-5-1.7c-1.2-1.1-1.8-2.7-1.8-4.6c0-2,0.8-3.6,2.4-4.8c1.6-1.1,3.9-1.7,6.8-1.7h3.7v-1.8c0-1.1-0.3-2-1-2.6
			s-1.6-0.9-2.8-0.9c-1.1,0-1.9,0.3-2.6,0.8c-0.6,0.5-1,1.2-1,2l-4.5,0l0-0.1c-0.1-1.7,0.7-3.1,2.2-4.4c1.6-1.3,3.6-1.9,6.2-1.9
			c2.4,0,4.4,0.6,5.9,1.9c1.5,1.2,2.3,3,2.3,5.4v9.3c0,0.9,0.1,1.7,0.2,2.5s0.3,1.6,0.6,2.3H134.8z M129,114.6
			c1.2,0,2.2-0.3,3.2-0.9s1.6-1.3,1.9-2v-3.1h-3.8c-1.4,0-2.4,0.3-3.2,1s-1.2,1.5-1.2,2.4c0,0.8,0.3,1.4,0.8,1.9
			C127.3,114.3,128.1,114.6,129,114.6z M131.9,88h5.3l0,0.1l-5.3,5.1h-3.8L131.9,88z"/>
		<path fill="#FFFFFF" d="M172.1,108.1c0,3.1-0.7,5.5-2.2,7.4c-1.4,1.9-3.4,2.8-6,2.8c-1.2,0-2.2-0.2-3.2-0.6
			c-0.9-0.4-1.7-1.1-2.4-1.9V126h-4.7V96.9h4l0.5,2.6c0.7-1,1.5-1.7,2.4-2.3c1-0.5,2.1-0.8,3.3-0.8c2.6,0,4.6,1,6.1,3.1
			s2.2,4.8,2.2,8.1V108.1z M167.4,107.7c0-2.2-0.4-3.9-1.2-5.3c-0.8-1.4-2-2-3.6-2c-1,0-1.8,0.2-2.5,0.6c-0.7,0.4-1.2,1-1.7,1.8v9.5
			c0.4,0.7,1,1.3,1.7,1.7c0.7,0.4,1.5,0.6,2.5,0.6c1.6,0,2.8-0.6,3.6-1.8s1.2-2.7,1.2-4.7V107.7z"/>
		<path fill="#FFFFFF" d="M175.4,107.2c0-3.1,0.9-5.7,2.6-7.7c1.7-2,4.1-3,7-3c3,0,5.4,1,7.1,3c1.7,2,2.6,4.6,2.6,7.7v0.4
			c0,3.2-0.9,5.7-2.6,7.7c-1.7,2-4.1,3-7.1,3c-3,0-5.4-1-7.1-3c-1.7-2-2.6-4.6-2.6-7.7V107.2z M180.1,107.6c0,2.1,0.4,3.7,1.2,5
			c0.8,1.3,2,1.9,3.7,1.9c1.6,0,2.9-0.6,3.7-1.9c0.8-1.3,1.2-3,1.2-5v-0.4c0-2-0.4-3.7-1.2-5c-0.8-1.3-2.1-2-3.7-2
			c-1.6,0-2.9,0.7-3.7,2c-0.8,1.3-1.2,3-1.2,5V107.6z"/>
		<path fill="#FFFFFF" d="M209.3,101.2l-2-0.1c-0.9,0-1.7,0.2-2.3,0.6s-1.1,0.9-1.4,1.7v14.6h-4.7v-21h4.3l0.3,3.1
			c0.5-1.1,1.2-1.9,2.1-2.5c0.8-0.6,1.8-0.9,2.9-0.9c0.3,0,0.6,0,0.8,0.1s0.5,0.1,0.7,0.2L209.3,101.2z"/>
		<path fill="#FFFFFF" d="M231.3,114.6c1.1,0,2-0.3,2.7-1c0.7-0.7,1.1-1.5,1.1-2.6h4.3l0,0.1c0.1,2-0.7,3.7-2.3,5.1
			c-1.6,1.4-3.6,2.1-5.8,2.1c-3,0-5.4-1-7-3s-2.5-4.5-2.5-7.6v-0.7c0-3,0.8-5.6,2.5-7.6s4-3,7-3c2.4,0,4.4,0.7,6,2.2
			c1.5,1.5,2.3,3.3,2.2,5.6l0,0.1h-4.3c0-1.2-0.4-2.1-1.1-2.9c-0.7-0.8-1.6-1.2-2.8-1.2c-1.7,0-2.9,0.7-3.6,2
			c-0.7,1.3-1.1,2.9-1.1,4.8v0.7c0,2,0.4,3.6,1.1,4.9C228.3,113.9,229.5,114.6,231.3,114.6z"/>
		<path fill="#FFFFFF" d="M242.5,107.2c0-3.1,0.9-5.7,2.6-7.7c1.7-2,4.1-3,7-3c3,0,5.4,1,7.1,3c1.7,2,2.6,4.6,2.6,7.7v0.4
			c0,3.2-0.9,5.7-2.6,7.7c-1.7,2-4.1,3-7.1,3c-3,0-5.4-1-7.1-3c-1.7-2-2.6-4.6-2.6-7.7V107.2z M247.2,107.6c0,2.1,0.4,3.7,1.2,5
			c0.8,1.3,2,1.9,3.7,1.9c1.6,0,2.9-0.6,3.7-1.9c0.8-1.3,1.2-3,1.2-5v-0.4c0-2-0.4-3.7-1.2-5c-0.8-1.3-2.1-2-3.7-2
			c-1.6,0-2.9,0.7-3.7,2c-0.8,1.3-1.2,3-1.2,5V107.6z"/>
		<path fill="#FFFFFF" d="M270.2,96.9l0.3,2.7c0.7-1,1.5-1.8,2.6-2.3c1-0.5,2.2-0.8,3.6-0.8c1.4,0,2.6,0.3,3.5,0.9
			c1,0.6,1.7,1.6,2.2,2.8c0.6-1.2,1.5-2.1,2.6-2.7c1.1-0.7,2.3-1,3.7-1c2.1,0,3.8,0.7,5,2.2c1.2,1.5,1.8,3.7,1.8,6.7v12.5h-4.7
			v-12.6c0-1.8-0.3-3.1-0.9-3.9c-0.6-0.7-1.5-1.1-2.8-1.1c-1,0-1.9,0.3-2.6,0.8c-0.7,0.5-1.2,1.3-1.5,2.2c0,0.2,0,0.4,0,0.5
			c0,0.1,0,0.3,0,0.4v13.6h-4.7v-12.6c0-1.8-0.3-3.1-0.9-3.8s-1.6-1.2-2.8-1.2c-1,0-1.8,0.2-2.4,0.6c-0.7,0.4-1.2,0.9-1.6,1.6v15.4
			h-4.7v-21H270.2z"/>
		<path fill="#FFFFFF" d="M309.5,118.4c-3.1,0-5.5-1-7.2-2.9c-1.7-1.9-2.6-4.4-2.6-7.5v-0.8c0-3.1,0.9-5.6,2.6-7.6c1.7-2,4-3,6.7-3
			c2.8,0,5,0.9,6.4,2.6c1.5,1.7,2.2,4.1,2.2,7v2.5h-13l0,0.1c0.1,1.7,0.5,3.1,1.4,4.2c0.9,1.1,2.1,1.6,3.9,1.6
			c1.3,0,2.4-0.2,3.3-0.5s1.8-0.8,2.6-1.3l1.5,3.1c-0.8,0.7-1.9,1.3-3.2,1.8C312.7,118.1,311.2,118.4,309.5,118.4z M309,100.3
			c-1.2,0-2.2,0.4-3,1.3c-0.7,0.9-1.2,2-1.4,3.5l0,0.1h8.2v-0.4c0-1.3-0.3-2.4-0.9-3.3C311.3,100.7,310.3,100.3,309,100.3z"/>
		<path fill="#FFFFFF" d="M325.7,96.9l0.3,3c0.7-1.1,1.6-1.9,2.6-2.5c1-0.6,2.2-0.9,3.5-0.9c2.2,0,3.9,0.7,5.1,2s1.8,3.5,1.8,6.3
			v13.1h-4.7v-13c0-1.6-0.3-2.8-1-3.5c-0.6-0.7-1.6-1-2.9-1c-1,0-1.9,0.2-2.6,0.6c-0.7,0.4-1.3,0.9-1.8,1.6v15.4h-4.7v-21H325.7z"/>
		<path fill="#FFFFFF" d="M348.9,114.2h11.2v3.8h-17.1v-3.1l10.6-14.1h-10.4v-3.8h16.4v3L348.9,114.2z"/>
		<path fill="#FFFFFF" d="M376.8,117.9c-0.2-0.5-0.3-1-0.4-1.6c-0.1-0.5-0.2-1-0.2-1.5c-0.6,1-1.5,1.8-2.5,2.5c-1.1,0.7-2.2,1-3.6,1
			c-2.2,0-3.9-0.6-5-1.7c-1.2-1.1-1.8-2.7-1.8-4.6c0-2,0.8-3.6,2.4-4.8c1.6-1.1,3.9-1.7,6.8-1.7h3.7v-1.8c0-1.1-0.3-2-1-2.6
			c-0.6-0.6-1.6-0.9-2.8-0.9c-1.1,0-1.9,0.3-2.6,0.8c-0.6,0.5-1,1.2-1,2l-4.5,0l0-0.1c-0.1-1.7,0.7-3.1,2.2-4.4
			c1.6-1.3,3.6-1.9,6.2-1.9c2.4,0,4.4,0.6,5.9,1.9c1.5,1.2,2.3,3,2.3,5.4v9.3c0,0.9,0.1,1.7,0.2,2.5s0.3,1.6,0.6,2.3H376.8z
			 M371,114.6c1.2,0,2.2-0.3,3.2-0.9s1.6-1.3,1.9-2v-3.1h-3.8c-1.4,0-2.4,0.3-3.2,1s-1.2,1.5-1.2,2.4c0,0.8,0.3,1.4,0.8,1.9
			C369.3,114.3,370,114.6,371,114.6z"/>
		<path fill="#FFFFFF" d="M396.2,101.2l-2-0.1c-0.9,0-1.7,0.2-2.3,0.6s-1.1,0.9-1.4,1.7v14.6h-4.7v-21h4.3l0.3,3.1
			c0.5-1.1,1.2-1.9,2-2.5c0.8-0.6,1.8-0.9,2.9-0.9c0.3,0,0.6,0,0.8,0.1s0.5,0.1,0.7,0.2L396.2,101.2z"/>
		<path fill="#FFFFFF" d="M71.6,159.7V171h-3.8v-28.3h10.8c3,0,5.4,0.8,7,2.3c1.7,1.6,2.5,3.6,2.5,6.1c0,2.6-0.8,4.6-2.5,6.2
			c-1.7,1.5-4,2.3-7,2.3H71.6z M71.6,156.7h7c1.9,0,3.3-0.5,4.3-1.5s1.4-2.3,1.4-3.9c0-1.6-0.5-2.9-1.4-3.9c-1-1-2.4-1.6-4.3-1.6h-7
			V156.7z"/>
		<path fill="#FFFFFF" d="M102.5,153.4l-2-0.1c-1,0-1.9,0.2-2.6,0.7c-0.7,0.5-1.2,1.2-1.6,2v15h-3.8v-21H96l0.4,3.1
			c0.6-1.1,1.3-1.9,2.2-2.5s1.9-0.9,3-0.9c0.3,0,0.6,0,0.8,0.1c0.3,0,0.5,0.1,0.6,0.1L102.5,153.4z"/>
		<path fill="#FFFFFF" d="M114.9,171.4c-3,0-5.4-1-7.1-2.9c-1.7-1.9-2.5-4.5-2.5-7.6v-0.9c0-3,0.9-5.5,2.6-7.5c1.7-2,3.9-3,6.4-3
			c2.8,0,4.9,0.9,6.3,2.6c1.4,1.7,2.1,4.1,2.1,7v2h-13.4l-0.1,0.1c0,2.1,0.5,3.8,1.4,5.1c0.9,1.3,2.4,2,4.3,2c1.3,0,2.4-0.2,3.4-0.6
			c1-0.4,1.8-0.9,2.5-1.5l1.5,2.5c-0.8,0.7-1.7,1.3-3,1.8C118.1,171.2,116.6,171.4,114.9,171.4z M114.3,152.6
			c-1.3,0-2.4,0.5-3.3,1.5c-0.9,1-1.4,2.3-1.6,4l0,0.1h9.5v-0.3c0-1.5-0.4-2.8-1.1-3.8S115.8,152.6,114.3,152.6z"/>
		<path fill="#FFFFFF" d="M144.9,161.3c0,3-0.7,5.5-2.2,7.3c-1.5,1.9-3.5,2.8-6,2.8c-1.3,0-2.4-0.2-3.4-0.7c-1-0.4-1.8-1.1-2.5-2
			v10.3H127V150h2.9l0.6,2.7c0.7-1,1.5-1.8,2.6-2.3s2.2-0.8,3.6-0.8c2.6,0,4.6,1,6.1,3.1c1.4,2.1,2.2,4.8,2.2,8.2V161.3z
			 M141.1,160.9c0-2.4-0.5-4.3-1.4-5.9s-2.3-2.3-4.1-2.3c-1.1,0-2,0.3-2.8,0.7c-0.8,0.5-1.4,1.2-1.9,2v10.2c0.5,0.9,1.1,1.5,1.9,2
			c0.8,0.5,1.7,0.7,2.9,0.7c1.8,0,3.2-0.7,4.1-2c0.9-1.3,1.4-3,1.4-5.1V160.9z"/>
		<path fill="#FFFFFF" d="M162.5,171c-0.1-0.6-0.2-1.2-0.3-1.7c-0.1-0.5-0.1-1-0.1-1.5c-0.7,1-1.6,1.9-2.8,2.5s-2.4,1-3.7,1
			c-2.2,0-3.9-0.6-5-1.7c-1.1-1.1-1.7-2.7-1.7-4.6c0-2,0.8-3.6,2.4-4.7c1.6-1.1,3.8-1.7,6.6-1.7h4.2v-2.1c0-1.2-0.4-2.2-1.1-2.9
			s-1.8-1.1-3.2-1.1c-1.2,0-2.2,0.3-3,0.9c-0.8,0.6-1.1,1.4-1.1,2.2l-3.6,0l0-0.1c-0.1-1.5,0.6-2.9,2.1-4.2c1.5-1.3,3.5-1.9,5.9-1.9
			c2.4,0,4.3,0.6,5.8,1.8c1.5,1.2,2.2,3,2.2,5.2v10.1c0,0.8,0,1.5,0.1,2.2c0.1,0.7,0.2,1.4,0.4,2.1H162.5z M156.2,168.2
			c1.4,0,2.6-0.4,3.8-1.1c1.1-0.7,1.8-1.5,2.2-2.4v-3.4h-4.3c-1.5,0-2.8,0.4-3.7,1.2c-0.9,0.8-1.4,1.7-1.4,2.7
			c0,0.9,0.3,1.7,0.9,2.2S155,168.2,156.2,168.2z"/>
		<path fill="#FFFFFF" d="M181.4,153.4l-2-0.1c-1,0-1.9,0.2-2.6,0.7s-1.2,1.2-1.6,2v15h-3.8v-21h3.4l0.4,3.1
			c0.6-1.1,1.3-1.9,2.2-2.5c0.9-0.6,1.9-0.9,3-0.9c0.3,0,0.6,0,0.8,0.1c0.3,0,0.5,0.1,0.6,0.1L181.4,153.4z"/>
		<path fill="#FFFFFF" d="M198.4,171c-0.1-0.6-0.2-1.2-0.3-1.7c-0.1-0.5-0.1-1-0.1-1.5c-0.7,1-1.6,1.9-2.8,2.5c-1.1,0.7-2.4,1-3.7,1
			c-2.2,0-3.9-0.6-5-1.7c-1.1-1.1-1.7-2.7-1.7-4.6c0-2,0.8-3.6,2.4-4.7c1.6-1.1,3.8-1.7,6.6-1.7h4.2v-2.1c0-1.2-0.4-2.2-1.1-2.9
			c-0.8-0.7-1.8-1.1-3.2-1.1c-1.2,0-2.2,0.3-3,0.9c-0.8,0.6-1.1,1.4-1.1,2.2l-3.6,0l0-0.1c-0.1-1.5,0.6-2.9,2.1-4.2
			c1.5-1.3,3.5-1.9,5.9-1.9c2.4,0,4.3,0.6,5.8,1.8c1.5,1.2,2.2,3,2.2,5.2v10.1c0,0.8,0,1.5,0.1,2.2c0.1,0.7,0.2,1.4,0.4,2.1H198.4z
			 M192,168.2c1.4,0,2.6-0.4,3.8-1.1c1.1-0.7,1.8-1.5,2.2-2.4v-3.4h-4.3c-1.5,0-2.8,0.4-3.7,1.2c-0.9,0.8-1.4,1.7-1.4,2.7
			c0,0.9,0.3,1.7,0.9,2.2S190.9,168.2,192,168.2z"/>
		<path fill="#FFFFFF" d="M212.6,144.9v5.1h4v2.8h-4v12.8c0,1,0.2,1.7,0.6,2.1c0.4,0.4,0.9,0.6,1.6,0.6c0.2,0,0.5,0,0.7-0.1
			c0.3-0.1,0.5-0.1,0.7-0.2l0.5,2.6c-0.3,0.2-0.7,0.4-1.3,0.6c-0.6,0.1-1.1,0.2-1.7,0.2c-1.6,0-2.8-0.5-3.7-1.4
			c-0.9-0.9-1.4-2.4-1.4-4.4v-12.8h-3.3V150h3.3v-5.1H212.6z"/>
		<path fill="#FFFFFF" d="M229.4,171.4c-3,0-5.4-1-7.1-2.9c-1.7-1.9-2.5-4.5-2.5-7.6v-0.9c0-3,0.9-5.5,2.6-7.5s3.9-3,6.4-3
			c2.8,0,4.9,0.9,6.3,2.6c1.4,1.7,2.1,4.1,2.1,7v2h-13.4l-0.1,0.1c0,2.1,0.5,3.8,1.4,5.1c0.9,1.3,2.4,2,4.3,2c1.3,0,2.4-0.2,3.4-0.6
			c1-0.4,1.8-0.9,2.5-1.5l1.5,2.5c-0.8,0.7-1.7,1.3-3,1.8C232.7,171.2,231.2,171.4,229.4,171.4z M228.8,152.6
			c-1.3,0-2.4,0.5-3.3,1.5c-0.9,1-1.4,2.3-1.6,4l0,0.1h9.5v-0.3c0-1.5-0.4-2.8-1.1-3.8S230.4,152.6,228.8,152.6z"/>
		<path fill="#FFFFFF" d="M269.4,161.3c0,3-0.7,5.5-2.2,7.3c-1.5,1.9-3.5,2.8-6,2.8c-1.3,0-2.4-0.2-3.4-0.7s-1.8-1.1-2.5-2v10.3
			h-3.8V150h2.9l0.6,2.7c0.7-1,1.5-1.8,2.6-2.3s2.2-0.8,3.6-0.8c2.6,0,4.6,1,6.1,3.1c1.4,2.1,2.2,4.8,2.2,8.2V161.3z M265.5,160.9
			c0-2.4-0.5-4.3-1.4-5.9s-2.3-2.3-4.1-2.3c-1.1,0-2,0.3-2.8,0.7c-0.8,0.5-1.4,1.2-1.9,2v10.2c0.5,0.9,1.1,1.5,1.9,2
			c0.8,0.5,1.7,0.7,2.9,0.7c1.8,0,3.2-0.7,4.1-2c0.9-1.3,1.4-3,1.4-5.1V160.9z"/>
		<path fill="#FFFFFF" d="M287,171c-0.1-0.6-0.2-1.2-0.3-1.7c-0.1-0.5-0.1-1-0.1-1.5c-0.7,1-1.6,1.9-2.8,2.5s-2.4,1-3.7,1
			c-2.2,0-3.9-0.6-5-1.7c-1.1-1.1-1.7-2.7-1.7-4.6c0-2,0.8-3.6,2.4-4.7c1.6-1.1,3.8-1.7,6.6-1.7h4.2v-2.1c0-1.2-0.4-2.2-1.1-2.9
			c-0.8-0.7-1.8-1.1-3.2-1.1c-1.2,0-2.2,0.3-3,0.9s-1.1,1.4-1.1,2.2l-3.6,0l0-0.1c-0.1-1.5,0.6-2.9,2.1-4.2c1.5-1.3,3.5-1.9,5.9-1.9
			c2.4,0,4.3,0.6,5.8,1.8c1.5,1.2,2.2,3,2.2,5.2v10.1c0,0.8,0,1.5,0.1,2.2c0.1,0.7,0.2,1.4,0.4,2.1H287z M280.6,168.2
			c1.4,0,2.6-0.4,3.8-1.1c1.1-0.7,1.8-1.5,2.2-2.4v-3.4h-4.3c-1.5,0-2.8,0.4-3.7,1.2c-0.9,0.8-1.4,1.7-1.4,2.7
			c0,0.9,0.3,1.7,0.9,2.2S279.5,168.2,280.6,168.2z"/>
		<path fill="#FFFFFF" d="M305.9,153.4l-2-0.1c-1,0-1.9,0.2-2.6,0.7c-0.7,0.5-1.2,1.2-1.6,2v15H296v-21h3.4l0.4,3.1
			c0.6-1.1,1.3-1.9,2.2-2.5c0.9-0.6,1.9-0.9,3-0.9c0.3,0,0.6,0,0.8,0.1c0.3,0,0.5,0.1,0.6,0.1L305.9,153.4z"/>
		<path fill="#FFFFFF" d="M322.8,171c-0.1-0.6-0.2-1.2-0.3-1.7c-0.1-0.5-0.1-1-0.1-1.5c-0.7,1-1.6,1.9-2.8,2.5s-2.4,1-3.7,1
			c-2.2,0-3.9-0.6-5-1.7c-1.1-1.1-1.7-2.7-1.7-4.6c0-2,0.8-3.6,2.4-4.7c1.6-1.1,3.8-1.7,6.6-1.7h4.2v-2.1c0-1.2-0.4-2.2-1.1-2.9
			c-0.8-0.7-1.8-1.1-3.2-1.1c-1.2,0-2.2,0.3-3,0.9s-1.1,1.4-1.1,2.2l-3.6,0l0-0.1c-0.1-1.5,0.6-2.9,2.1-4.2c1.5-1.3,3.5-1.9,5.9-1.9
			c2.4,0,4.3,0.6,5.8,1.8c1.5,1.2,2.2,3,2.2,5.2v10.1c0,0.8,0,1.5,0.1,2.2c0.1,0.7,0.2,1.4,0.4,2.1H322.8z M316.5,168.2
			c1.4,0,2.6-0.4,3.8-1.1c1.1-0.7,1.8-1.5,2.2-2.4v-3.4h-4.3c-1.5,0-2.8,0.4-3.7,1.2c-0.9,0.8-1.4,1.7-1.4,2.7
			c0,0.9,0.3,1.7,0.9,2.2S315.3,168.2,316.5,168.2z"/>
		<path fill="#FFFFFF" d="M340.8,160.9c0-3.4,0.7-6.1,2.2-8.2c1.4-2.1,3.5-3.1,6.1-3.1c1.2,0,2.3,0.2,3.3,0.7c1,0.5,1.8,1.1,2.4,2
			v-11.6h3.8V171h-2.9l-0.6-2.7c-0.7,1-1.5,1.8-2.5,2.3c-1,0.5-2.2,0.8-3.5,0.8c-2.6,0-4.6-0.9-6-2.8s-2.2-4.3-2.2-7.3V160.9z
			 M344.6,161.3c0,2.1,0.4,3.8,1.3,5.1c0.9,1.3,2.2,1.9,4,1.9c1.1,0,2.1-0.3,2.9-0.8c0.8-0.5,1.4-1.2,1.9-2.2v-9.8
			c-0.5-0.9-1.1-1.6-1.9-2.1s-1.7-0.8-2.8-0.8c-1.8,0-3.2,0.8-4.1,2.3c-0.9,1.5-1.3,3.5-1.3,5.9V161.3z"/>
		<path fill="#FFFFFF" d="M377.2,171c-0.1-0.6-0.2-1.2-0.3-1.7c-0.1-0.5-0.1-1-0.1-1.5c-0.7,1-1.6,1.9-2.8,2.5s-2.4,1-3.7,1
			c-2.2,0-3.9-0.6-5-1.7c-1.1-1.1-1.7-2.7-1.7-4.6c0-2,0.8-3.6,2.4-4.7c1.6-1.1,3.8-1.7,6.6-1.7h4.2v-2.1c0-1.2-0.4-2.2-1.1-2.9
			c-0.8-0.7-1.8-1.1-3.2-1.1c-1.2,0-2.2,0.3-3,0.9s-1.1,1.4-1.1,2.2l-3.6,0l0-0.1c-0.1-1.5,0.6-2.9,2.1-4.2c1.5-1.3,3.5-1.9,5.9-1.9
			c2.4,0,4.3,0.6,5.8,1.8c1.5,1.2,2.2,3,2.2,5.2v10.1c0,0.8,0,1.5,0.1,2.2c0.1,0.7,0.2,1.4,0.4,2.1H377.2z M370.9,168.2
			c1.4,0,2.6-0.4,3.8-1.1c1.1-0.7,1.8-1.5,2.2-2.4v-3.4h-4.3c-1.5,0-2.8,0.4-3.7,1.2c-0.9,0.8-1.4,1.7-1.4,2.7
			c0,0.9,0.3,1.7,0.9,2.2S369.7,168.2,370.9,168.2z"/>
		<path fill="#FFFFFF" d="M396.1,153.4l-2-0.1c-1,0-1.9,0.2-2.6,0.7c-0.7,0.5-1.2,1.2-1.6,2v15h-3.8v-21h3.4l0.4,3.1
			c0.6-1.1,1.3-1.9,2.2-2.5c0.9-0.6,1.9-0.9,3-0.9c0.3,0,0.6,0,0.8,0.1c0.3,0,0.5,0.1,0.6,0.1L396.1,153.4z"/>
		<path fill="#FFFFFF" d="M71.4,212.7h-3.8v-30.3h3.8V212.7z"/>
		<path fill="#FFFFFF" d="M76.4,202c0-3.1,0.8-5.7,2.5-7.7c1.7-2,4-3,6.9-3c2.9,0,5.2,1,6.9,3c1.7,2,2.5,4.6,2.5,7.7v0.4
			c0,3.1-0.8,5.7-2.5,7.7c-1.7,2-4,3-6.9,3c-2.9,0-5.2-1-6.9-3s-2.5-4.6-2.5-7.7V202z M80.2,202.4c0,2.2,0.5,4.1,1.4,5.5
			s2.3,2.2,4.2,2.2c1.8,0,3.2-0.7,4.2-2.2c0.9-1.5,1.4-3.3,1.4-5.5V202c0-2.2-0.5-4-1.4-5.5s-2.3-2.2-4.2-2.2
			c-1.8,0-3.2,0.7-4.1,2.2s-1.4,3.3-1.4,5.5V202.4z"/>
		<path fill="#FFFFFF" d="M113.2,191.7l0.3,2.8c0.7-1,1.6-1.8,2.6-2.3c1.1-0.5,2.3-0.8,3.7-0.8s2.6,0.3,3.6,1c1,0.6,1.8,1.6,2.3,2.9
			c0.7-1.2,1.6-2.2,2.6-2.8c1.1-0.7,2.3-1,3.8-1c2.1,0,3.8,0.7,5.1,2.2c1.2,1.5,1.9,3.7,1.9,6.6v12.6h-3.8v-12.6
			c0-2.1-0.4-3.5-1.1-4.4c-0.7-0.9-1.8-1.3-3.2-1.3c-1.3,0-2.4,0.5-3.2,1.4c-0.8,0.9-1.3,2.1-1.4,3.4v0.2v13.4h-3.8v-12.6
			c0-2-0.4-3.4-1.1-4.3c-0.7-0.9-1.8-1.4-3.2-1.4c-1.2,0-2.1,0.2-2.9,0.7c-0.8,0.5-1.3,1.2-1.7,2v15.6h-3.8v-21H113.2z"/>
		<path fill="#FFFFFF" d="M153.3,213.1c-3,0-5.4-1-7.1-2.9c-1.7-1.9-2.5-4.5-2.5-7.6v-0.9c0-3,0.9-5.5,2.6-7.5c1.7-2,3.9-3,6.4-3
			c2.8,0,4.9,0.9,6.3,2.6c1.4,1.8,2.1,4.1,2.1,7v2h-13.4l-0.1,0.1c0,2.1,0.5,3.8,1.4,5.1c0.9,1.3,2.4,2,4.3,2c1.3,0,2.4-0.2,3.4-0.6
			c1-0.4,1.8-0.9,2.5-1.5l1.5,2.5c-0.8,0.7-1.7,1.3-3,1.8C156.5,212.9,155.1,213.1,153.3,213.1z M152.7,194.3
			c-1.3,0-2.4,0.5-3.3,1.5c-0.9,1-1.4,2.3-1.6,4l0,0.1h9.5v-0.3c0-1.5-0.4-2.8-1.1-3.8C155.4,194.8,154.3,194.3,152.7,194.3z"/>
		<path fill="#FFFFFF" d="M169.9,191.7v22.8c0,2.2-0.6,3.8-1.7,5c-1.1,1.2-2.7,1.8-4.6,1.8c-0.4,0-0.8,0-1.1-0.1
			c-0.3-0.1-0.7-0.1-1.1-0.3l0.3-3c0.2,0.1,0.4,0.1,0.8,0.2c0.3,0,0.6,0.1,0.8,0.1c0.8,0,1.5-0.3,2-0.9c0.5-0.6,0.7-1.5,0.7-2.8
			v-22.8H169.9z M169.7,186.2h-3.8v-3.8h3.8V186.2z"/>
		<path fill="#FFFFFF" d="M174.9,202c0-3.1,0.8-5.7,2.5-7.7c1.7-2,4-3,6.9-3c2.9,0,5.2,1,6.9,3c1.7,2,2.5,4.6,2.5,7.7v0.4
			c0,3.1-0.8,5.7-2.5,7.7c-1.7,2-4,3-6.9,3s-5.2-1-6.9-3s-2.5-4.6-2.5-7.7V202z M178.7,202.4c0,2.2,0.5,4.1,1.4,5.5
			c0.9,1.5,2.3,2.2,4.2,2.2c1.8,0,3.2-0.7,4.2-2.2s1.4-3.3,1.4-5.5V202c0-2.2-0.5-4-1.4-5.5s-2.3-2.2-4.2-2.2
			c-1.8,0-3.2,0.7-4.1,2.2c-0.9,1.5-1.4,3.3-1.4,5.5V202.4z"/>
		<path fill="#FFFFFF" d="M208.3,195.1l-2-0.1c-1,0-1.9,0.2-2.6,0.7c-0.7,0.5-1.2,1.2-1.6,2v15h-3.8v-21h3.4l0.4,3.1
			c0.6-1.1,1.3-1.9,2.2-2.5c0.9-0.6,1.9-0.9,3-0.9c0.3,0,0.6,0,0.8,0.1c0.3,0,0.5,0.1,0.6,0.1L208.3,195.1z"/>
		<path fill="#FFFFFF" d="M228.6,204.9l0.7,2.6h0.1l5.2-15.9h4.3l-8.8,24.3c-0.5,1.4-1.3,2.6-2.3,3.7c-1,1.1-2.3,1.6-4,1.6
			c-0.3,0-0.7,0-1.2-0.1c-0.5-0.1-0.8-0.1-1.1-0.2l0.4-3c-0.1,0,0.2,0,0.7,0c0.5,0,0.9,0.1,1,0.1c0.8,0,1.5-0.4,2-1.1
			c0.5-0.7,1-1.5,1.3-2.4l0.9-2.2l-7.8-20.6h4.3L228.6,204.9z"/>
		<path fill="#FFFFFF" d="M260.8,213.1c-3,0-5.4-1-7.1-2.9s-2.5-4.5-2.5-7.6v-0.9c0-3,0.9-5.5,2.6-7.5c1.7-2,3.9-3,6.4-3
			c2.8,0,4.9,0.9,6.3,2.6c1.4,1.8,2.1,4.1,2.1,7v2h-13.4l-0.1,0.1c0,2.1,0.5,3.8,1.4,5.1c0.9,1.3,2.4,2,4.3,2c1.3,0,2.4-0.2,3.4-0.6
			c1-0.4,1.8-0.9,2.5-1.5l1.5,2.5c-0.8,0.7-1.7,1.3-3,1.8S262.6,213.1,260.8,213.1z M260.2,194.3c-1.3,0-2.4,0.5-3.3,1.5
			c-0.9,1-1.4,2.3-1.6,4l0,0.1h9.5v-0.3c0-1.5-0.4-2.8-1.1-3.8C262.9,194.8,261.8,194.3,260.2,194.3z"/>
		<path fill="#FFFFFF" d="M279.7,206.5l0.3,1.5h0.1l0.4-1.5l4.8-14.8h3.9l-7.7,21h-2.9l-7.8-21h3.9L279.7,206.5z"/>
		<path fill="#FFFFFF" d="M291.5,202c0-3.1,0.8-5.7,2.5-7.7c1.7-2,4-3,6.9-3c2.9,0,5.2,1,6.9,3c1.7,2,2.5,4.6,2.5,7.7v0.4
			c0,3.1-0.8,5.7-2.5,7.7c-1.7,2-4,3-6.9,3s-5.2-1-6.9-3c-1.7-2-2.5-4.6-2.5-7.7V202z M295.4,202.4c0,2.2,0.5,4.1,1.4,5.5
			s2.3,2.2,4.2,2.2c1.8,0,3.2-0.7,4.2-2.2s1.4-3.3,1.4-5.5V202c0-2.2-0.5-4-1.4-5.5s-2.3-2.2-4.2-2.2c-1.8,0-3.2,0.7-4.1,2.2
			s-1.4,3.3-1.4,5.5V202.4z"/>
		<path fill="#FFFFFF" d="M319.2,212.7h-3.8v-30.3h3.8V212.7z"/>
		<path fill="#FFFFFF" d="M338.4,209.6c-0.7,1.1-1.5,2-2.5,2.6s-2.2,0.9-3.6,0.9c-2.3,0-4.1-0.7-5.4-2.2c-1.3-1.5-1.9-3.7-1.9-6.8
			v-12.4h3.8v12.4c0,2.2,0.3,3.8,1,4.6c0.7,0.8,1.7,1.3,3.1,1.3c1.4,0,2.5-0.3,3.4-0.8s1.6-1.3,2-2.3v-15.2h3.8v21h-3.4L338.4,209.6
			z"/>
		<path fill="#FFFFFF" d="M356.1,210.1c1.2,0,2.2-0.4,3.1-1.2c0.9-0.8,1.3-1.7,1.3-2.9h3.5l0.1,0.1c0.1,1.8-0.7,3.4-2.3,4.8
			s-3.5,2.1-5.6,2.1c-3,0-5.2-1-6.8-3c-1.6-2-2.4-4.5-2.4-7.5v-0.8c0-3,0.8-5.5,2.4-7.5c1.6-2,3.9-3,6.8-3c2.3,0,4.3,0.7,5.8,2.2
			c1.5,1.5,2.2,3.2,2.2,5.3l0,0.1h-3.5c0-1.3-0.4-2.4-1.3-3.3c-0.8-0.9-1.9-1.4-3.2-1.4c-1.9,0-3.2,0.7-4.1,2.2
			c-0.9,1.5-1.3,3.2-1.3,5.3v0.8c0,2.1,0.4,3.9,1.3,5.3S354.2,210.1,356.1,210.1z"/>
		<path fill="#FFFFFF" d="M372.7,186.3h-3.8v-3.9h3.8V186.3z M372.7,212.7h-3.8v-21h3.8V212.7z"/>
		<path fill="#FFFFFF" d="M377.7,202c0-3.1,0.8-5.7,2.5-7.7c1.7-2,4-3,6.9-3c2.9,0,5.2,1,6.9,3c1.7,2,2.5,4.6,2.5,7.7v0.4
			c0,3.1-0.8,5.7-2.5,7.7c-1.7,2-4,3-6.9,3s-5.2-1-6.9-3s-2.5-4.6-2.5-7.7V202z M381.5,202.4c0,2.2,0.5,4.1,1.4,5.5
			c0.9,1.5,2.3,2.2,4.2,2.2c1.8,0,3.2-0.7,4.2-2.2c0.9-1.5,1.4-3.3,1.4-5.5V202c0-2.2-0.5-4-1.4-5.5c-1-1.5-2.3-2.2-4.2-2.2
			c-1.8,0-3.2,0.7-4.1,2.2c-0.9,1.5-1.4,3.3-1.4,5.5V202.4z"/>
		<path fill="#FFFFFF" d="M404.6,191.7l0.3,3.1c0.7-1.1,1.6-2,2.6-2.6c1.1-0.6,2.3-0.9,3.6-0.9c2.3,0,4,0.7,5.3,2s1.9,3.4,1.9,6.2
			v13.3h-3.8v-13.2c0-1.9-0.4-3.2-1.1-3.9c-0.7-0.8-1.8-1.2-3.4-1.2c-1.2,0-2.2,0.2-3,0.7c-0.8,0.5-1.5,1.1-2,2v15.6h-3.8v-21H404.6
			z"/>
		<path fill="#FFFFFF" d="M436.7,212.7c-0.1-0.6-0.2-1.2-0.3-1.7s-0.1-1-0.1-1.5c-0.7,1-1.6,1.9-2.8,2.5c-1.1,0.7-2.4,1-3.7,1
			c-2.2,0-3.9-0.6-5-1.7c-1.1-1.1-1.7-2.7-1.7-4.6c0-2,0.8-3.6,2.4-4.7s3.8-1.7,6.6-1.7h4.2v-2.1c0-1.2-0.4-2.2-1.1-2.9
			c-0.8-0.7-1.8-1.1-3.2-1.1c-1.2,0-2.2,0.3-3,0.9c-0.8,0.6-1.1,1.4-1.1,2.2l-3.6,0l0-0.1c-0.1-1.5,0.6-2.9,2.1-4.2s3.5-1.9,5.9-1.9
			c2.4,0,4.3,0.6,5.8,1.8c1.5,1.2,2.2,3,2.2,5.2v10.1c0,0.8,0,1.5,0.1,2.2c0.1,0.7,0.2,1.4,0.4,2.1H436.7z M430.4,209.9
			c1.4,0,2.6-0.4,3.8-1.1c1.1-0.7,1.8-1.5,2.2-2.4V203H432c-1.5,0-2.8,0.4-3.7,1.2c-0.9,0.8-1.4,1.7-1.4,2.7c0,0.9,0.3,1.7,0.9,2.2
			C428.4,209.6,429.2,209.9,430.4,209.9z"/>
		<path fill="#FFFFFF" d="M455.6,195.1l-2-0.1c-1,0-1.9,0.2-2.6,0.7c-0.7,0.5-1.2,1.2-1.6,2v15h-3.8v-21h3.4l0.4,3.1
			c0.6-1.1,1.3-1.9,2.2-2.5c0.9-0.6,1.9-0.9,3-0.9c0.3,0,0.6,0,0.8,0.1c0.3,0,0.5,0.1,0.6,0.1L455.6,195.1z"/>
	</g>
</g>
</svg>
