<?xml version="1.0" encoding="utf-8"?>
<!-- Generator: Adobe Illustrator 18.0.0, SVG Export Plug-In . SVG Version: 6.00 Build 0)  -->
<!DOCTYPE svg PUBLIC "-//W3C//DTD SVG 1.1//EN" "http://www.w3.org/Graphics/SVG/1.1/DTD/svg11.dtd" [
	<!ENTITY ns_extend "http://ns.adobe.com/Extensibility/1.0/">
	<!ENTITY ns_ai "http://ns.adobe.com/AdobeIllustrator/10.0/">
	<!ENTITY ns_graphs "http://ns.adobe.com/Graphs/1.0/">
	<!ENTITY ns_vars "http://ns.adobe.com/Variables/1.0/">
	<!ENTITY ns_imrep "http://ns.adobe.com/ImageReplacement/1.0/">
	<!ENTITY ns_sfw "http://ns.adobe.com/SaveForWeb/1.0/">
	<!ENTITY ns_custom "http://ns.adobe.com/GenericCustomNamespace/1.0/">
	<!ENTITY ns_adobe_xpath "http://ns.adobe.com/XPath/1.0/">
]>
<svg version="1.1" id="Capa_1" xmlns:x="&ns_extend;" xmlns:i="&ns_ai;" xmlns:graph="&ns_graphs;"
	 xmlns="http://www.w3.org/2000/svg" xmlns:xlink="http://www.w3.org/1999/xlink" x="0px" y="0px" viewBox="0 0 170 83"
	 enable-background="new 0 0 170 83" xml:space="preserve">
<metadata>
	<sfw  xmlns="&ns_sfw;">
		<slices></slices>
		<sliceSourceBounds  width="412" height="82.4" x="67.7" y="-82.6" bottomLeftOrigin="true"></sliceSourceBounds>
	</sfw>
</metadata>
<g>
	<g>
		<g>
			<path fill="#FFFFFF" d="M4.8,19.6h4.7c1.2,0,2.1,1,2.1,2.1V26c0,1.9-0.2,3.6-0.2,3.6h0.2c2.3-5.7,9.1-11.1,16.7-11.1
				c8.2,0,13,3.7,14.6,11h0.2c2.7-5.9,9.4-11,17.3-11c10.9,0,16,6.2,16,18.6v29c0,1.2-1,2.1-2.1,2.1h-5c-1.2,0-2.1-1-2.1-2.1V39.1
				c0-6.8-1.3-12.2-8.6-12.2c-6.8,0-11.9,5.8-13.6,12.4c-0.5,2-0.7,4.2-0.7,6.7v20c0,1.2-1,2.1-2.1,2.1h-5c-1.2,0-2.1-1-2.1-2.1
				V39.1c0-6.3-1-12.2-8.4-12.2c-7.1,0-12.1,5.9-13.9,12.8C12.1,41.6,12,43.8,12,46v20c0,1.2-1,2.1-2.1,2.1h-5c-1.2,0-2.1-1-2.1-2.1
				V21.8C2.7,20.6,3.6,19.6,4.8,19.6z"/>
			<path fill="#FFFFFF" d="M92.7,29.7c0-1.4-0.8-2.1-2.1-2.1h-1.8c-1.2,0-2.1-1-2.1-2.1v-3.7c0-1.2,1-2.1,2.1-2.1h4.8
				c4.6,0,8.3,3.7,8.3,8.3v30.2c0,1.4,0.8,2.1,2.1,2.1h1.8c1.2,0,2.1,1,2.1,2.1V66c0,1.2-1,2.1-2.1,2.1H101c-4.6,0-8.3-3.7-8.3-8.3
				V29.7z M95,0.4h4.1c1.2,0,2.1,1,2.1,2.1V8c0,1.2-1,2.1-2.1,2.1H95c-1.2,0-2.1-1-2.1-2.1V2.6C92.9,1.4,93.8,0.4,95,0.4z"/>
		</g>
		<g>
			<g>
				<path fill="#00CC66" d="M141.7,73.1v9.5l9.7-11C148.4,72.5,145.1,73.1,141.7,73.1C141.8,73.1,141.7,73.1,141.7,73.1z"/>
			</g>
			<g>
				<path fill="#FFFFFF" d="M141.7,82.6v-9.5c-3.4,0-6.6-0.5-9.7-1.5L141.7,82.6z"/>
			</g>
		</g>
		<g>
			<path fill="#FFFFFF" d="M124.4,43.7c0-9.6,7.8-17.4,17.4-17.4v-8.2c-14.1,0-25.6,11.4-25.6,25.6c0,14.1,11.4,25.6,25.6,25.6v-8.2
				C132.2,61.1,124.4,53.3,124.4,43.7z"/>
			<path fill="#00CC66" d="M141.8,18.2v8.2c9.6,0,17.4,7.8,17.4,17.4c0,9.6-7.8,17.4-17.4,17.4v8.2c14.1,0,25.6-11.4,25.6-25.6
				C167.3,29.6,155.9,18.2,141.8,18.2z"/>
		</g>
	</g>
</g>
</svg>
