<?xml version="1.0" encoding="utf-8"?>
<!-- Generator: Adobe Illustrator 18.0.0, SVG Export Plug-In . SVG Version: 6.00 Build 0)  -->
<!DOCTYPE svg PUBLIC "-//W3C//DTD SVG 1.1//EN" "http://www.w3.org/Graphics/SVG/1.1/DTD/svg11.dtd" [
	<!ENTITY ns_extend "http://ns.adobe.com/Extensibility/1.0/">
	<!ENTITY ns_ai "http://ns.adobe.com/AdobeIllustrator/10.0/">
	<!ENTITY ns_graphs "http://ns.adobe.com/Graphs/1.0/">
	<!ENTITY ns_vars "http://ns.adobe.com/Variables/1.0/">
	<!ENTITY ns_imrep "http://ns.adobe.com/ImageReplacement/1.0/">
	<!ENTITY ns_sfw "http://ns.adobe.com/SaveForWeb/1.0/">
	<!ENTITY ns_custom "http://ns.adobe.com/GenericCustomNamespace/1.0/">
	<!ENTITY ns_adobe_xpath "http://ns.adobe.com/XPath/1.0/">
]>
<svg version="1.1" id="Capa_1" xmlns:x="&ns_extend;" xmlns:i="&ns_ai;" xmlns:graph="&ns_graphs;"
	 xmlns="http://www.w3.org/2000/svg" xmlns:xlink="http://www.w3.org/1999/xlink" x="0px" y="0px" viewBox="0 0 120 60"
	 enable-background="new 0 0 120 60" xml:space="preserve">
<metadata>
	<sfw  xmlns="&ns_sfw;">
		<slices></slices>
		<sliceSourceBounds  width="412" height="82.4" x="67.7" y="-82.6" bottomLeftOrigin="true"></sliceSourceBounds>
	</sfw>
</metadata>
<g>
	<g>
		<g>
			<path fill="#00CC66" d="M1.9,14.1h3.4c0.9,0,1.6,0.7,1.6,1.6v3.1c0,1.4-0.1,2.6-0.1,2.6h0.1c1.7-4.1,6.6-8.1,12.1-8.1
				c5.9,0,9.4,2.7,10.6,8h0.1c1.9-4.2,6.8-8,12.5-8c7.9,0,11.6,4.5,11.6,13.5v21c0,0.9-0.7,1.6-1.6,1.6h-3.6c-0.9,0-1.6-0.7-1.6-1.6
				V28.3c0-4.9-1-8.8-6.3-8.8c-4.9,0-8.6,4.2-9.9,9c-0.3,1.5-0.5,3.1-0.5,4.9v14.5c0,0.9-0.7,1.6-1.6,1.6h-3.6
				c-0.9,0-1.6-0.7-1.6-1.6V28.3c0-4.6-0.7-8.8-6.1-8.8c-5.1,0-8.8,4.2-10.1,9.3c-0.3,1.4-0.4,3-0.4,4.6v14.5c0,0.9-0.7,1.6-1.6,1.6
				H1.9c-0.9,0-1.6-0.7-1.6-1.6V15.7C0.3,14.8,1,14.1,1.9,14.1z"/>
			<path fill="#00CC66" d="M65.6,21.4c0-1-0.6-1.5-1.5-1.5h-1.3c-0.9,0-1.6-0.7-1.6-1.6v-2.7c0-0.9,0.7-1.6,1.6-1.6h3.5
				c3.3,0,6,2.7,6,6V42c0,1,0.6,1.5,1.5,1.5h1.3c0.9,0,1.6,0.7,1.6,1.6v2.7c0,0.9-0.7,1.6-1.6,1.6h-3.5c-3.3,0-6-2.7-6-6V21.4z
				 M67.3,0.2h2.9c0.9,0,1.6,0.7,1.6,1.6v3.9c0,0.9-0.7,1.6-1.6,1.6h-2.9c-0.9,0-1.6-0.7-1.6-1.6V1.8C65.7,0.9,66.4,0.2,67.3,0.2z"
				/>
		</g>
		<g>
			<g>
				<path fill="#330099" d="M101.1,52.9v6.9l7-8C105.9,52.5,103.6,52.9,101.1,52.9C101.1,52.9,101.1,52.9,101.1,52.9z"/>
			</g>
			<g>
				<path fill="#00CC66" d="M101.1,59.8v-6.9c-2.5,0-4.8-0.4-7-1.1L101.1,59.8z"/>
			</g>
		</g>
		<g>
			<path fill="#00CC66" d="M88.5,31.6c0-7,5.6-12.6,12.6-12.6v-5.9c-10.2,0-18.5,8.3-18.5,18.5c0,10.2,8.3,18.5,18.5,18.5v-5.9
				C94.2,44.2,88.5,38.6,88.5,31.6z"/>
			<path fill="#330099" d="M101.2,13.1V19c7,0,12.6,5.6,12.6,12.6c0,7-5.6,12.6-12.6,12.6v5.9c10.2,0,18.5-8.3,18.5-18.5
				C119.7,21.4,111.4,13.1,101.2,13.1z"/>
		</g>
	</g>
</g>
</svg>
