<?xml version="1.0" encoding="utf-8"?>
<!-- Generator: Adobe Illustrator 18.0.0, SVG Export Plug-In . SVG Version: 6.00 Build 0)  -->
<!DOCTYPE svg PUBLIC "-//W3C//DTD SVG 1.1//EN" "http://www.w3.org/Graphics/SVG/1.1/DTD/svg11.dtd" [
	<!ENTITY ns_extend "http://ns.adobe.com/Extensibility/1.0/">
	<!ENTITY ns_ai "http://ns.adobe.com/AdobeIllustrator/10.0/">
	<!ENTITY ns_graphs "http://ns.adobe.com/Graphs/1.0/">
	<!ENTITY ns_vars "http://ns.adobe.com/Variables/1.0/">
	<!ENTITY ns_imrep "http://ns.adobe.com/ImageReplacement/1.0/">
	<!ENTITY ns_sfw "http://ns.adobe.com/SaveForWeb/1.0/">
	<!ENTITY ns_custom "http://ns.adobe.com/GenericCustomNamespace/1.0/">
	<!ENTITY ns_adobe_xpath "http://ns.adobe.com/XPath/1.0/">
]>
<svg version="1.1" id="Capa_1" xmlns:x="&ns_extend;" xmlns:i="&ns_ai;" xmlns:graph="&ns_graphs;"
	 xmlns="http://www.w3.org/2000/svg" xmlns:xlink="http://www.w3.org/1999/xlink" x="0px" y="0px" viewBox="0 0 312 75"
	 style="enable-background:new 0 0 312 75;" xml:space="preserve">
<metadata>
	<sfw  xmlns="&ns_sfw;">
		<slices></slices>
		<sliceSourceBounds  width="16383" height="74.6" x="-8035" y="-75" bottomLeftOrigin="true"></sliceSourceBounds>
	</sfw>
</metadata>
<g>
	<g>
		<path style="fill:#330099;" d="M36.9,74.4C16.5,74.4,0,57.8,0,37.5C0,17.2,16.5,0.6,36.9,0.6c20.3,0,36.9,16.5,36.9,36.9
			C73.8,57.8,57.2,74.4,36.9,74.4z M36.9,3.4C18.1,3.4,2.8,18.7,2.8,37.5c0,18.8,15.3,34.1,34.1,34.1C55.7,71.6,71,56.3,71,37.5
			C71,18.7,55.7,3.4,36.9,3.4z"/>
	</g>
	<path style="fill:#330099;" d="M22.7,59.6c-1.6,0-3-0.6-4.1-1.7c-1.1-1.1-1.7-2.5-1.7-4.1v-5.2c0-0.5,0.2-0.9,0.5-1.2
		c0.3-0.3,0.7-0.5,1.2-0.5h5.3V17c0-0.4,0.1-0.5,0.4-0.5s0.6,0.1,0.9,0.4l2,2l2.7-2.7c0.2-0.2,0.4-0.3,0.6-0.3
		c0.2,0,0.4,0.1,0.6,0.3l2.6,2.7l2.7-2.7c0.2-0.2,0.4-0.3,0.6-0.3c0.2,0,0.4,0.1,0.6,0.3l2.7,2.7l2.7-2.7c0.2-0.2,0.4-0.3,0.6-0.3
		c0.2,0,0.4,0.1,0.6,0.3l2.7,2.7l2.7-2.7c0.2-0.2,0.4-0.3,0.6-0.3s0.4,0.1,0.6,0.3l2.7,2.7l2-2c0.3-0.3,0.6-0.4,0.9-0.4
		c0.3,0,0.4,0.2,0.4,0.5v36.8c0,1.6-0.6,3-1.7,4.1c-1.1,1.1-2.5,1.7-4.1,1.7H22.7z M51.1,56.3c0.7,0,1.3-0.2,1.8-0.7
		s0.7-1.1,0.7-1.8V21.1H27.2v25.8h19.7c0.5,0,0.9,0.2,1.2,0.5c0.3,0.3,0.5,0.7,0.5,1.2v5.2c0,0.7,0.2,1.3,0.7,1.8
		S50.3,56.3,51.1,56.3z M31.7,29.8c-0.4,0-0.8-0.2-1.1-0.5c-0.3-0.3-0.5-0.7-0.5-1.2c0-0.4,0.2-0.8,0.5-1.1c0.3-0.3,0.7-0.5,1.2-0.5
		h9.9c0.5,0,0.9,0.2,1.2,0.5c0.3,0.3,0.5,0.7,0.5,1.2s-0.2,0.9-0.5,1.2c-0.3,0.3-0.7,0.5-1.2,0.5L31.7,29.8z M31.7,37.1
		c-0.4,0-0.8-0.2-1.1-0.5c-0.3-0.3-0.5-0.7-0.5-1.2c0-0.4,0.2-0.8,0.5-1.1c0.3-0.3,0.7-0.5,1.2-0.5h9.9c0.5,0,0.9,0.2,1.2,0.5
		c0.3,0.3,0.5,0.7,0.5,1.2c0,0.5-0.2,0.9-0.5,1.2c-0.3,0.3-0.7,0.5-1.2,0.5H31.7z M48.4,29.8c-0.4,0-0.8-0.2-1.2-0.5
		c-0.3-0.3-0.5-0.7-0.5-1.2c0-0.4,0.2-0.8,0.5-1.2c0.3-0.3,0.7-0.5,1.2-0.5c0.4,0,0.8,0.2,1.2,0.5c0.3,0.3,0.5,0.7,0.5,1.2
		c0,0.4-0.2,0.8-0.5,1.2C49.3,29.6,48.9,29.8,48.4,29.8z M48.4,36.9c-0.4,0-0.8-0.2-1.2-0.5s-0.5-0.7-0.5-1.2c0-0.4,0.2-0.8,0.5-1.2
		s0.7-0.5,1.2-0.5s0.8,0.2,1.2,0.5c0.3,0.3,0.5,0.7,0.5,1.2s-0.2,0.8-0.5,1.2C49.3,36.7,48.9,36.9,48.4,36.9z M22.6,56.3h22.7v-6
		H20.2v3.6c0,0.7,0.2,1.3,0.7,1.8S21.9,56.3,22.6,56.3z M20.2,56.3v-6V56.3z"/>
</g>
<g>
	<path style="fill:#330099;" d="M104.1,26.7L104.1,26.7c0.1,1.6-0.5,2.9-1.6,3.9c-1.1,1-2.6,1.6-4.4,1.6c-1.9,0-3.4-0.7-4.5-2
		c-1.2-1.3-1.8-3-1.8-5v-2.9c0-2,0.6-3.7,1.8-5c1.2-1.3,2.7-2,4.5-2s3.3,0.5,4.4,1.5c1.1,1,1.6,2.3,1.6,3.9l0,0.1h-2.1
		c0-1.2-0.3-2.1-1-2.7c-0.7-0.7-1.6-1-2.9-1c-1.2,0-2.2,0.5-3,1.5S94,20.8,94,22.3v2.9c0,1.5,0.4,2.7,1.1,3.7s1.7,1.5,3,1.5
		c1.2,0,2.2-0.3,2.9-1c0.7-0.7,1-1.6,1-2.8H104.1z"/>
	<path style="fill:#330099;" d="M106.1,25.8c0-1.8,0.5-3.3,1.5-4.5s2.3-1.8,4-1.8c1.7,0,3,0.6,4,1.7c1,1.2,1.5,2.7,1.5,4.5V26
		c0,1.8-0.5,3.3-1.5,4.5s-2.3,1.7-4,1.7s-3-0.6-4-1.7c-1-1.2-1.5-2.6-1.5-4.5V25.8z M108.4,26c0,1.3,0.3,2.4,0.8,3.2
		c0.5,0.8,1.4,1.3,2.4,1.3c1.1,0,1.9-0.4,2.4-1.3c0.5-0.8,0.8-1.9,0.8-3.2v-0.2c0-1.3-0.3-2.3-0.8-3.2c-0.6-0.8-1.4-1.3-2.4-1.3
		c-1.1,0-1.9,0.4-2.4,1.3c-0.5,0.9-0.8,1.9-0.8,3.2V26z"/>
	<path style="fill:#330099;" d="M121.8,19.8l0.2,1.8c0.4-0.6,0.9-1.1,1.5-1.5c0.6-0.4,1.3-0.5,2.1-0.5c1.3,0,2.3,0.4,3.1,1.2
		s1.1,2,1.1,3.6V32h-2.2v-7.7c0-1.1-0.2-1.8-0.6-2.3s-1.1-0.7-1.9-0.7c-0.7,0-1.3,0.1-1.7,0.4c-0.5,0.3-0.9,0.7-1.1,1.2V32h-2.2
		V19.8H121.8z"/>
	<path style="fill:#330099;" d="M140,28.7c0-0.5-0.2-0.9-0.6-1.2c-0.4-0.3-1.1-0.6-2.1-0.8c-1.4-0.3-2.5-0.7-3.3-1.3
		c-0.8-0.6-1.2-1.3-1.2-2.2c0-1,0.4-1.8,1.3-2.5c0.8-0.7,1.9-1.1,3.3-1.1c1.4,0,2.5,0.4,3.4,1.1c0.9,0.8,1.3,1.6,1.2,2.6l0,0.1h-2.1
		c0-0.5-0.2-1-0.7-1.4c-0.5-0.4-1-0.6-1.8-0.6c-0.8,0-1.4,0.2-1.8,0.5c-0.4,0.4-0.6,0.8-0.6,1.3c0,0.5,0.2,0.9,0.5,1.1
		c0.3,0.3,1,0.5,2.1,0.7c1.5,0.3,2.6,0.8,3.4,1.3s1.2,1.3,1.2,2.3c0,1.1-0.4,2-1.3,2.7c-0.9,0.7-2,1-3.4,1c-1.6,0-2.8-0.4-3.7-1.2
		c-0.9-0.8-1.3-1.7-1.3-2.8l0-0.1h2.1c0,0.8,0.3,1.4,0.9,1.7c0.5,0.4,1.2,0.5,1.9,0.5c0.8,0,1.4-0.2,1.9-0.5S140,29.2,140,28.7z"/>
	<path style="fill:#330099;" d="M152.7,30.2c-0.4,0.7-0.9,1.2-1.5,1.5s-1.3,0.5-2.1,0.5c-1.3,0-2.4-0.4-3.1-1.3
		c-0.7-0.8-1.1-2.2-1.1-4v-7.2h2.2V27c0,1.3,0.2,2.2,0.6,2.7c0.4,0.5,1,0.7,1.8,0.7c0.8,0,1.4-0.2,2-0.5c0.5-0.3,0.9-0.8,1.2-1.4
		v-8.8h2.2V32h-2L152.7,30.2z"/>
	<path style="fill:#330099;" d="M160.5,32h-2.2V14.4h2.2V32z"/>
	<path style="fill:#330099;" d="M167,16.8v2.9h2.3v1.6H167v7.4c0,0.6,0.1,1,0.4,1.2c0.2,0.2,0.6,0.3,0.9,0.3c0.1,0,0.3,0,0.4-0.1
		c0.2,0,0.3-0.1,0.4-0.1l0.3,1.5c-0.2,0.1-0.4,0.2-0.7,0.3c-0.3,0.1-0.6,0.1-1,0.1c-0.9,0-1.6-0.3-2.2-0.8c-0.5-0.5-0.8-1.4-0.8-2.6
		v-7.4h-1.9v-1.6h1.9v-2.9H167z"/>
	<path style="fill:#330099;" d="M179.2,32c-0.1-0.4-0.1-0.7-0.2-1s-0.1-0.6-0.1-0.9c-0.4,0.6-1,1.1-1.6,1.5
		c-0.7,0.4-1.4,0.6-2.1,0.6c-1.3,0-2.2-0.3-2.9-1c-0.7-0.6-1-1.5-1-2.7c0-1.2,0.5-2.1,1.4-2.7s2.2-1,3.8-1h2.4v-1.2
		c0-0.7-0.2-1.3-0.7-1.7c-0.4-0.4-1.1-0.6-1.8-0.6c-0.7,0-1.3,0.2-1.7,0.5c-0.4,0.4-0.7,0.8-0.7,1.3l-2.1,0l0-0.1
		c-0.1-0.9,0.4-1.7,1.2-2.4c0.9-0.7,2-1.1,3.4-1.1c1.4,0,2.5,0.4,3.3,1.1s1.3,1.7,1.3,3v5.9c0,0.4,0,0.9,0.1,1.3s0.1,0.8,0.2,1.2
		H179.2z M175.5,30.4c0.8,0,1.5-0.2,2.2-0.6c0.6-0.4,1.1-0.9,1.3-1.4v-2h-2.5c-0.9,0-1.6,0.2-2.1,0.7s-0.8,1-0.8,1.6
		c0,0.5,0.2,1,0.5,1.3C174.4,30.2,174.9,30.4,175.5,30.4z"/>
	<path style="fill:#330099;" d="M193.9,27.5l0.4,1.5h0.1l3-9.2h2.5l-5.1,14.1c-0.3,0.8-0.8,1.5-1.3,2.1c-0.6,0.6-1.4,0.9-2.3,0.9
		c-0.2,0-0.4,0-0.7-0.1c-0.3,0-0.5-0.1-0.6-0.1l0.2-1.7c0,0,0.1,0,0.4,0s0.5,0,0.6,0c0.5,0,0.9-0.2,1.2-0.6s0.6-0.9,0.8-1.4l0.5-1.3
		l-4.5-12h2.5L193.9,27.5z"/>
	<path style="fill:#330099;" d="M208.2,32V21.4h-1.9v-1.6h1.9v-1.3c0-1.4,0.4-2.4,1.2-3.2c0.8-0.8,1.9-1.1,3.3-1.1
		c0.5,0,1,0.1,1.5,0.2c0.5,0.1,1.1,0.3,1.7,0.5l-0.4,1.8c-0.4-0.2-0.8-0.3-1.3-0.4c-0.5-0.1-0.9-0.2-1.4-0.2c-0.9,0-1.5,0.2-1.9,0.6
		c-0.4,0.4-0.6,1-0.6,1.8v1.3h2.4v1.6h-2.4V32H208.2z M217,32h-2.2V19.8h2.2V32z"/>
	<path style="fill:#330099;" d="M226.2,21.7l-1.1-0.1c-0.6,0-1.1,0.1-1.5,0.4s-0.7,0.7-0.9,1.2V32h-2.2V19.8h2l0.2,1.8
		c0.3-0.6,0.8-1.1,1.3-1.5s1.1-0.5,1.8-0.5c0.2,0,0.3,0,0.5,0s0.3,0.1,0.4,0.1L226.2,21.7z"/>
	<path style="fill:#330099;" d="M230.5,19.8l0.2,1.6c0.4-0.6,0.9-1,1.5-1.3s1.3-0.5,2.1-0.5c0.8,0,1.5,0.2,2.1,0.6
		c0.6,0.4,1,0.9,1.3,1.7c0.4-0.7,0.9-1.3,1.5-1.7c0.6-0.4,1.4-0.6,2.2-0.6c1.2,0,2.2,0.4,2.9,1.3c0.7,0.9,1.1,2.1,1.1,3.9V32h-2.2
		v-7.3c0-1.2-0.2-2.1-0.6-2.6c-0.4-0.5-1-0.8-1.8-0.8c-0.8,0-1.4,0.3-1.8,0.8c-0.5,0.5-0.7,1.2-0.8,2v0.1V32h-2.2v-7.3
		c0-1.1-0.2-2-0.6-2.5c-0.4-0.5-1-0.8-1.8-0.8c-0.7,0-1.2,0.1-1.7,0.4c-0.4,0.3-0.8,0.7-1,1.2v9h-2.2V19.8H230.5z"/>
	<path style="fill:#330099;" d="M256.2,32c-0.1-0.4-0.1-0.7-0.2-1c0-0.3-0.1-0.6-0.1-0.9c-0.4,0.6-1,1.1-1.6,1.5s-1.4,0.6-2.1,0.6
		c-1.3,0-2.2-0.3-2.9-1c-0.7-0.6-1-1.5-1-2.7c0-1.2,0.5-2.1,1.4-2.7c0.9-0.7,2.2-1,3.8-1h2.4v-1.2c0-0.7-0.2-1.3-0.7-1.7
		c-0.4-0.4-1.1-0.6-1.8-0.6c-0.7,0-1.3,0.2-1.7,0.5c-0.4,0.4-0.7,0.8-0.7,1.3l-2.1,0l0-0.1c-0.1-0.9,0.4-1.7,1.2-2.4
		c0.9-0.7,2-1.1,3.4-1.1c1.4,0,2.5,0.4,3.3,1.1s1.3,1.7,1.3,3v5.9c0,0.4,0,0.9,0.1,1.3s0.1,0.8,0.2,1.2H256.2z M252.5,30.4
		c0.8,0,1.5-0.2,2.2-0.6c0.6-0.4,1.1-0.9,1.3-1.4v-2h-2.5c-0.9,0-1.6,0.2-2.2,0.7c-0.5,0.5-0.8,1-0.8,1.6c0,0.5,0.2,1,0.5,1.3
		C251.3,30.2,251.8,30.4,252.5,30.4z"/>
	<path style="fill:#330099;" d="M95.1,42V45h2.3v1.6h-2.3V54c0,0.6,0.1,1,0.4,1.2c0.2,0.2,0.6,0.3,0.9,0.3c0.1,0,0.3,0,0.4-0.1
		c0.2,0,0.3-0.1,0.4-0.1l0.3,1.5c-0.2,0.1-0.4,0.2-0.7,0.3c-0.3,0.1-0.6,0.1-1,0.1c-0.9,0-1.6-0.3-2.2-0.8c-0.5-0.5-0.8-1.4-0.8-2.6
		v-7.4H91V45h1.9V42H95.1z"/>
	<path style="fill:#330099;" d="M107.6,55.4c-0.4,0.7-0.9,1.2-1.5,1.5s-1.3,0.5-2.1,0.5c-1.3,0-2.4-0.4-3.1-1.3
		c-0.7-0.8-1.1-2.2-1.1-4V45h2.2v7.2c0,1.3,0.2,2.2,0.6,2.7c0.4,0.5,1,0.7,1.8,0.7c0.8,0,1.4-0.2,2-0.5c0.5-0.3,0.9-0.8,1.2-1.4V45
		h2.2v12.2h-2L107.6,55.4z"/>
	<path style="fill:#330099;" d="M120,53.9c0-0.5-0.2-0.9-0.6-1.2c-0.4-0.3-1.1-0.6-2.1-0.8c-1.4-0.3-2.5-0.7-3.3-1.3
		c-0.8-0.6-1.2-1.3-1.2-2.2c0-1,0.4-1.8,1.3-2.5c0.8-0.7,1.9-1.1,3.3-1.1c1.4,0,2.5,0.4,3.4,1.1c0.9,0.8,1.3,1.6,1.2,2.6l0,0.1h-2.1
		c0-0.5-0.2-1-0.7-1.4c-0.5-0.4-1-0.6-1.8-0.6c-0.8,0-1.4,0.2-1.8,0.5c-0.4,0.4-0.6,0.8-0.6,1.3c0,0.5,0.2,0.9,0.5,1.1
		c0.3,0.3,1,0.5,2.1,0.7c1.5,0.3,2.6,0.8,3.4,1.3s1.2,1.3,1.2,2.3c0,1.1-0.4,2-1.3,2.7c-0.9,0.7-2,1-3.4,1c-1.6,0-2.8-0.4-3.7-1.2
		c-0.9-0.8-1.3-1.7-1.3-2.8l0-0.1h2.1c0,0.8,0.3,1.4,0.9,1.7c0.5,0.4,1.2,0.5,1.9,0.5c0.8,0,1.4-0.2,1.9-0.5S120,54.4,120,53.9z"/>
	<path style="fill:#330099;" d="M136.5,46.9l-1.1-0.1c-0.6,0-1.1,0.1-1.5,0.4s-0.7,0.7-0.9,1.2v8.7h-2.2V45h2l0.2,1.8
		c0.3-0.6,0.8-1.1,1.3-1.5s1.1-0.5,1.8-0.5c0.2,0,0.3,0,0.5,0s0.3,0.1,0.4,0.1L136.5,46.9z"/>
	<path style="fill:#330099;" d="M143.7,57.4c-1.8,0-3.1-0.6-4.1-1.7c-1-1.1-1.5-2.6-1.5-4.4v-0.5c0-1.8,0.5-3.2,1.5-4.3
		c1-1.1,2.2-1.7,3.7-1.7c1.6,0,2.9,0.5,3.7,1.5c0.8,1,1.2,2.4,1.2,4v1.2h-7.8l0,0.1c0,1.2,0.3,2.2,0.8,3c0.5,0.8,1.4,1.1,2.5,1.1
		c0.8,0,1.4-0.1,2-0.3c0.6-0.2,1.1-0.5,1.5-0.9l0.9,1.4c-0.4,0.4-1,0.8-1.7,1.1C145.6,57.3,144.7,57.4,143.7,57.4z M143.3,46.5
		c-0.8,0-1.4,0.3-1.9,0.9c-0.5,0.6-0.8,1.4-0.9,2.3l0,0.1h5.5v-0.2c0-0.9-0.2-1.6-0.7-2.2C144.9,46.8,144.3,46.5,143.3,46.5z"/>
	<path style="fill:#330099;" d="M155.6,55.7c0.7,0,1.3-0.2,1.8-0.7c0.5-0.5,0.8-1,0.8-1.7h2l0,0.1c0,1.1-0.4,2-1.4,2.8
		c-0.9,0.8-2,1.2-3.2,1.2c-1.7,0-3-0.6-4-1.7c-0.9-1.2-1.4-2.6-1.4-4.4v-0.5c0-1.7,0.5-3.2,1.4-4.3c0.9-1.2,2.3-1.8,4-1.8
		c1.4,0,2.5,0.4,3.3,1.3c0.9,0.8,1.3,1.9,1.3,3.1l0,0.1h-2c0-0.7-0.2-1.4-0.7-1.9c-0.5-0.5-1.1-0.8-1.8-0.8c-1.1,0-1.9,0.4-2.4,1.3
		c-0.5,0.8-0.8,1.9-0.8,3.1v0.5c0,1.2,0.2,2.3,0.7,3.1C153.7,55.3,154.5,55.7,155.6,55.7z"/>
	<path style="fill:#330099;" d="M165.2,41.9H163v-2.3h2.2V41.9z M165.2,57.2H163V45h2.2V57.2z"/>
	<path style="fill:#330099;" d="M179.1,51.5c0,1.8-0.4,3.2-1.3,4.3c-0.8,1.1-2,1.6-3.5,1.6c-0.8,0-1.5-0.2-2.1-0.5
		c-0.6-0.3-1.1-0.8-1.5-1.4l-0.4,1.7h-1.7V39.6h2.2v6.8c0.4-0.5,0.9-1,1.4-1.2c0.6-0.3,1.2-0.4,2-0.4c1.5,0,2.7,0.6,3.5,1.8
		c0.8,1.2,1.3,2.8,1.3,4.7V51.5z M176.8,51.3c0-1.4-0.3-2.5-0.8-3.4s-1.3-1.3-2.4-1.3c-0.7,0-1.3,0.2-1.7,0.5
		c-0.5,0.3-0.8,0.8-1.1,1.3v5.3c0.3,0.6,0.7,1.1,1.1,1.4c0.5,0.3,1,0.5,1.8,0.5c1,0,1.8-0.4,2.3-1.1s0.8-1.7,0.8-3V51.3z"/>
	<path style="fill:#330099;" d="M181.3,51c0-1.8,0.5-3.3,1.5-4.5c1-1.2,2.3-1.8,4-1.8c1.7,0,3,0.6,4,1.7c1,1.2,1.5,2.7,1.5,4.5v0.2
		c0,1.8-0.5,3.3-1.5,4.5c-1,1.2-2.3,1.7-4,1.7c-1.7,0-3-0.6-4-1.7s-1.5-2.6-1.5-4.5V51z M183.5,51.2c0,1.3,0.3,2.4,0.8,3.2
		c0.5,0.8,1.4,1.3,2.4,1.3c1.1,0,1.9-0.4,2.4-1.3c0.5-0.8,0.8-1.9,0.8-3.2V51c0-1.3-0.3-2.3-0.8-3.2c-0.6-0.8-1.4-1.3-2.4-1.3
		c-1.1,0-1.9,0.4-2.4,1.3c-0.5,0.9-0.8,1.9-0.8,3.2V51.2z"/>
	<path style="fill:#330099;" d="M202,53.9c0-0.5-0.2-0.9-0.6-1.2c-0.4-0.3-1.1-0.6-2.1-0.8c-1.4-0.3-2.5-0.7-3.3-1.3
		s-1.2-1.3-1.2-2.2c0-1,0.4-1.8,1.3-2.5c0.8-0.7,1.9-1.1,3.3-1.1c1.4,0,2.5,0.4,3.4,1.1s1.3,1.6,1.2,2.6l0,0.1h-2.1
		c0-0.5-0.2-1-0.7-1.4c-0.5-0.4-1-0.6-1.8-0.6c-0.8,0-1.4,0.2-1.8,0.5s-0.6,0.8-0.6,1.3c0,0.5,0.2,0.9,0.5,1.1
		c0.3,0.3,1,0.5,2.1,0.7c1.5,0.3,2.6,0.8,3.4,1.3c0.8,0.6,1.2,1.3,1.2,2.3c0,1.1-0.4,2-1.3,2.7c-0.9,0.7-2,1-3.4,1
		c-1.6,0-2.8-0.4-3.7-1.2c-0.9-0.8-1.3-1.7-1.3-2.8l0-0.1h2.1c0,0.8,0.3,1.4,0.9,1.7c0.5,0.4,1.2,0.5,1.9,0.5c0.8,0,1.4-0.2,1.9-0.5
		S202,54.4,202,53.9z"/>
	<path style="fill:#330099;" d="M212.2,51.3c0-2,0.4-3.5,1.3-4.7c0.8-1.2,2-1.8,3.5-1.8c0.7,0,1.3,0.1,1.9,0.4
		c0.6,0.3,1,0.6,1.4,1.2v-6.7h2.2v17.6h-1.7l-0.3-1.5c-0.4,0.6-0.9,1-1.5,1.3c-0.6,0.3-1.3,0.5-2,0.5c-1.5,0-2.7-0.5-3.5-1.6
		c-0.8-1.1-1.3-2.5-1.3-4.3V51.3z M214.4,51.5c0,1.2,0.3,2.2,0.8,3s1.3,1.1,2.3,1.1c0.7,0,1.2-0.2,1.7-0.5s0.8-0.7,1.1-1.3v-5.7
		c-0.3-0.5-0.7-0.9-1.1-1.2s-1-0.4-1.6-0.4c-1.1,0-1.9,0.4-2.4,1.3s-0.8,2-0.8,3.4V51.5z"/>
	<path style="fill:#330099;" d="M230.9,57.4c-1.8,0-3.1-0.6-4.1-1.7c-1-1.1-1.5-2.6-1.5-4.4v-0.5c0-1.8,0.5-3.2,1.5-4.3
		c1-1.1,2.2-1.7,3.7-1.7c1.6,0,2.9,0.5,3.7,1.5c0.8,1,1.2,2.4,1.2,4v1.2h-7.8l0,0.1c0,1.2,0.3,2.2,0.8,3c0.5,0.8,1.4,1.1,2.5,1.1
		c0.8,0,1.4-0.1,2-0.3c0.6-0.2,1.1-0.5,1.5-0.9l0.9,1.4c-0.4,0.4-1,0.8-1.7,1.1S231.9,57.4,230.9,57.4z M230.6,46.5
		c-0.8,0-1.4,0.3-1.9,0.9c-0.5,0.6-0.8,1.4-0.9,2.3l0,0.1h5.5v-0.2c0-0.9-0.2-1.6-0.7-2.2C232.1,46.8,231.5,46.5,230.6,46.5z"/>
	<path style="fill:#330099;" d="M250.8,53.9c0-0.5-0.2-0.9-0.6-1.2c-0.4-0.3-1.1-0.6-2.1-0.8c-1.4-0.3-2.5-0.7-3.3-1.3
		s-1.2-1.3-1.2-2.2c0-1,0.4-1.8,1.3-2.5c0.8-0.7,1.9-1.1,3.3-1.1c1.4,0,2.5,0.4,3.4,1.1s1.3,1.6,1.2,2.6l0,0.1h-2.1
		c0-0.5-0.2-1-0.7-1.4c-0.5-0.4-1-0.6-1.8-0.6c-0.8,0-1.4,0.2-1.8,0.5s-0.6,0.8-0.6,1.3c0,0.5,0.2,0.9,0.5,1.1
		c0.3,0.3,1,0.5,2.1,0.7c1.5,0.3,2.6,0.8,3.4,1.3c0.8,0.6,1.2,1.3,1.2,2.3c0,1.1-0.4,2-1.3,2.7c-0.9,0.7-2,1-3.4,1
		c-1.6,0-2.8-0.4-3.7-1.2c-0.9-0.8-1.3-1.7-1.3-2.8l0-0.1h2.1c0,0.8,0.3,1.4,0.9,1.7c0.5,0.4,1.2,0.5,1.9,0.5c0.8,0,1.4-0.2,1.9-0.5
		S250.8,54.4,250.8,53.9z"/>
	<path style="fill:#330099;" d="M263.5,55.4c-0.4,0.7-0.9,1.2-1.5,1.5s-1.3,0.5-2.1,0.5c-1.3,0-2.4-0.4-3.1-1.3
		c-0.7-0.8-1.1-2.2-1.1-4V45h2.2v7.2c0,1.3,0.2,2.2,0.6,2.7c0.4,0.5,1,0.7,1.8,0.7c0.8,0,1.4-0.2,2-0.5c0.5-0.3,0.9-0.8,1.2-1.4V45
		h2.2v12.2h-2L263.5,55.4z"/>
	<path style="fill:#330099;" d="M273.9,57.4c-1.8,0-3.1-0.6-4.1-1.7c-1-1.1-1.5-2.6-1.5-4.4v-0.5c0-1.8,0.5-3.2,1.5-4.3
		c1-1.1,2.2-1.7,3.7-1.7c1.6,0,2.9,0.5,3.7,1.5c0.8,1,1.2,2.4,1.2,4v1.2h-7.8l0,0.1c0,1.2,0.3,2.2,0.8,3c0.5,0.8,1.4,1.1,2.5,1.1
		c0.8,0,1.4-0.1,2-0.3c0.6-0.2,1.1-0.5,1.5-0.9l0.9,1.4c-0.4,0.4-1,0.8-1.7,1.1C275.8,57.3,275,57.4,273.9,57.4z M273.6,46.5
		c-0.8,0-1.4,0.3-1.9,0.9c-0.5,0.6-0.8,1.4-0.9,2.3l0,0.1h5.5v-0.2c0-0.9-0.2-1.6-0.7-2.2S274.5,46.5,273.6,46.5z"/>
	<path style="fill:#330099;" d="M283.4,57.2h-2.2V39.6h2.2V57.2z"/>
	<path style="fill:#330099;" d="M286.3,51.3c0-2,0.4-3.5,1.3-4.7c0.8-1.2,2-1.8,3.5-1.8c0.7,0,1.3,0.1,1.9,0.4
		c0.6,0.3,1,0.6,1.4,1.2v-6.7h2.2v17.6h-1.7l-0.3-1.5c-0.4,0.6-0.9,1-1.5,1.3c-0.6,0.3-1.3,0.5-2,0.5c-1.5,0-2.7-0.5-3.5-1.6
		c-0.8-1.1-1.3-2.5-1.3-4.3V51.3z M288.5,51.5c0,1.2,0.3,2.2,0.8,3s1.3,1.1,2.3,1.1c0.7,0,1.2-0.2,1.7-0.5s0.8-0.7,1.1-1.3v-5.7
		c-0.3-0.5-0.7-0.9-1.1-1.2s-1-0.4-1.6-0.4c-1.1,0-1.9,0.4-2.4,1.3s-0.8,2-0.8,3.4V51.5z"/>
	<path style="fill:#330099;" d="M299.4,51c0-1.8,0.5-3.3,1.5-4.5c1-1.2,2.3-1.8,4-1.8c1.7,0,3,0.6,4,1.7c1,1.2,1.5,2.7,1.5,4.5v0.2
		c0,1.8-0.5,3.3-1.5,4.5c-1,1.2-2.3,1.7-4,1.7c-1.7,0-3-0.6-4-1.7s-1.5-2.6-1.5-4.5V51z M301.6,51.2c0,1.3,0.3,2.4,0.8,3.2
		c0.5,0.8,1.4,1.3,2.4,1.3c1.1,0,1.9-0.4,2.4-1.3c0.5-0.8,0.8-1.9,0.8-3.2V51c0-1.3-0.3-2.3-0.8-3.2c-0.6-0.8-1.4-1.3-2.4-1.3
		c-1.1,0-1.9,0.4-2.4,1.3c-0.5,0.9-0.8,1.9-0.8,3.2V51.2z"/>
</g>
</svg>
