<?xml version="1.0" encoding="utf-8"?>
<!-- Generator: Adobe Illustrator 18.0.0, SVG Export Plug-In . SVG Version: 6.00 Build 0)  -->
<!DOCTYPE svg PUBLIC "-//W3C//DTD SVG 1.1//EN" "http://www.w3.org/Graphics/SVG/1.1/DTD/svg11.dtd" [
	<!ENTITY ns_extend "http://ns.adobe.com/Extensibility/1.0/">
	<!ENTITY ns_ai "http://ns.adobe.com/AdobeIllustrator/10.0/">
	<!ENTITY ns_graphs "http://ns.adobe.com/Graphs/1.0/">
	<!ENTITY ns_vars "http://ns.adobe.com/Variables/1.0/">
	<!ENTITY ns_imrep "http://ns.adobe.com/ImageReplacement/1.0/">
	<!ENTITY ns_sfw "http://ns.adobe.com/SaveForWeb/1.0/">
	<!ENTITY ns_custom "http://ns.adobe.com/GenericCustomNamespace/1.0/">
	<!ENTITY ns_adobe_xpath "http://ns.adobe.com/XPath/1.0/">
]>
<svg version="1.1" id="Capa_1" xmlns:x="&ns_extend;" xmlns:i="&ns_ai;" xmlns:graph="&ns_graphs;"
	 xmlns="http://www.w3.org/2000/svg" xmlns:xlink="http://www.w3.org/1999/xlink" x="0px" y="0px" viewBox="0 0 300 75"
	 style="enable-background:new 0 0 300 75;" xml:space="preserve">
<metadata>
	<sfw  xmlns="&ns_sfw;">
		<slices></slices>
		<sliceSourceBounds  width="16383" height="74.6" x="-8035" y="-75" bottomLeftOrigin="true"></sliceSourceBounds>
	</sfw>
</metadata>
<g>
	<g>
		<path style="fill:#330099;" d="M104.1,29.8c-0.4,0.6-1.1,1.2-2,1.7c-1,0.5-2.2,0.8-3.8,0.8c-1.9,0-3.5-0.6-4.7-1.9
			c-1.2-1.3-1.9-2.9-1.9-4.9v-3.4c0-2,0.6-3.6,1.8-4.9s2.7-1.9,4.6-1.9c1.8,0,3.3,0.5,4.3,1.5c1.1,1,1.6,2.2,1.5,3.7l0,0.1h-2.1
			c0-1-0.3-1.8-1-2.5c-0.6-0.7-1.6-1-2.8-1c-1.3,0-2.3,0.5-3,1.4c-0.8,0.9-1.2,2.1-1.2,3.6v3.4c0,1.5,0.4,2.7,1.2,3.6
			c0.8,0.9,1.8,1.4,3.1,1.4c1,0,1.7-0.1,2.3-0.4c0.6-0.3,1-0.6,1.3-0.9v-3.7h-3.7v-1.7h5.9V29.8z"/>
		<path style="fill:#330099;" d="M112.7,32.2c-1.8,0-3.1-0.6-4.1-1.7c-1-1.1-1.5-2.6-1.5-4.4v-0.5c0-1.8,0.5-3.2,1.5-4.3
			c1-1.1,2.2-1.7,3.7-1.7c1.6,0,2.9,0.5,3.7,1.5c0.8,1,1.2,2.4,1.2,4v1.2h-7.8l0,0.1c0,1.2,0.3,2.2,0.8,3c0.5,0.8,1.4,1.1,2.5,1.1
			c0.8,0,1.4-0.1,2-0.3c0.6-0.2,1.1-0.5,1.5-0.9l0.9,1.4c-0.4,0.4-1,0.8-1.7,1.1C114.6,32.1,113.7,32.2,112.7,32.2z M112.4,21.3
			c-0.8,0-1.4,0.3-1.9,0.9c-0.5,0.6-0.8,1.4-0.9,2.3l0,0.1h5.5v-0.2c0-0.9-0.2-1.6-0.7-2.2C113.9,21.6,113.3,21.3,112.4,21.3z"/>
		<path style="fill:#330099;" d="M126.8,28.7c0-0.5-0.2-0.9-0.6-1.2c-0.4-0.3-1.1-0.6-2.1-0.8c-1.4-0.3-2.5-0.7-3.3-1.3
			c-0.8-0.6-1.2-1.3-1.2-2.2c0-1,0.4-1.8,1.3-2.5c0.8-0.7,1.9-1.1,3.3-1.1c1.4,0,2.5,0.4,3.4,1.1c0.9,0.8,1.3,1.6,1.2,2.6l0,0.1
			h-2.1c0-0.5-0.2-1-0.7-1.4c-0.5-0.4-1-0.6-1.8-0.6c-0.8,0-1.4,0.2-1.8,0.5c-0.4,0.4-0.6,0.8-0.6,1.3c0,0.5,0.2,0.9,0.5,1.1
			c0.3,0.3,1,0.5,2.1,0.7c1.5,0.3,2.6,0.8,3.4,1.3s1.2,1.3,1.2,2.3c0,1.1-0.4,2-1.3,2.7c-0.9,0.7-2,1-3.4,1c-1.6,0-2.8-0.4-3.7-1.2
			c-0.9-0.8-1.3-1.7-1.3-2.8l0-0.1h2.1c0,0.8,0.3,1.4,0.9,1.7c0.5,0.4,1.2,0.5,1.9,0.5c0.8,0,1.4-0.2,1.9-0.5S126.8,29.2,126.8,28.7
			z"/>
		<path style="fill:#330099;" d="M134.9,16.9v2.9h2.3v1.6h-2.3v7.4c0,0.6,0.1,1,0.4,1.2c0.2,0.2,0.6,0.3,0.9,0.3
			c0.1,0,0.3,0,0.4-0.1c0.2,0,0.3-0.1,0.4-0.1l0.3,1.5c-0.2,0.1-0.4,0.2-0.7,0.3c-0.3,0.1-0.6,0.1-1,0.1c-0.9,0-1.6-0.3-2.2-0.8
			c-0.5-0.5-0.8-1.4-0.8-2.6v-7.4h-1.9v-1.6h1.9v-2.9H134.9z"/>
		<path style="fill:#330099;" d="M142,16.7h-2.2v-2.3h2.2V16.7z M142,32h-2.2V19.8h2.2V32z"/>
		<path style="fill:#330099;" d="M144.9,25.8c0-1.8,0.5-3.3,1.5-4.5s2.3-1.8,4-1.8c1.7,0,3,0.6,4,1.7c1,1.2,1.5,2.7,1.5,4.5V26
			c0,1.8-0.5,3.3-1.5,4.5s-2.3,1.7-4,1.7s-3-0.6-4-1.7c-1-1.2-1.5-2.6-1.5-4.5V25.8z M147.1,26c0,1.3,0.3,2.4,0.8,3.2
			c0.5,0.8,1.4,1.3,2.4,1.3c1.1,0,1.9-0.4,2.4-1.3c0.5-0.8,0.8-1.9,0.8-3.2v-0.2c0-1.3-0.3-2.3-0.8-3.2c-0.6-0.8-1.4-1.3-2.4-1.3
			c-1.1,0-1.9,0.4-2.4,1.3c-0.5,0.9-0.8,1.9-0.8,3.2V26z"/>
		<path style="fill:#330099;" d="M160.5,19.8l0.2,1.8c0.4-0.6,0.9-1.1,1.5-1.5c0.6-0.4,1.3-0.5,2.1-0.5c1.3,0,2.3,0.4,3.1,1.2
			s1.1,2,1.1,3.6V32h-2.2v-7.7c0-1.1-0.2-1.8-0.6-2.3s-1.1-0.7-1.9-0.7c-0.7,0-1.3,0.1-1.7,0.4c-0.5,0.3-0.9,0.7-1.1,1.2V32h-2.2
			V19.8H160.5z"/>
		<path style="fill:#330099;" d="M179.2,32c-0.1-0.4-0.1-0.7-0.2-1c0-0.3-0.1-0.6-0.1-0.9c-0.4,0.6-1,1.1-1.6,1.5
			c-0.7,0.4-1.4,0.6-2.1,0.6c-1.3,0-2.2-0.3-2.9-1c-0.7-0.6-1-1.5-1-2.7c0-1.2,0.5-2.1,1.4-2.7c0.9-0.7,2.2-1,3.8-1h2.4v-1.2
			c0-0.7-0.2-1.3-0.7-1.7c-0.4-0.4-1.1-0.6-1.8-0.6c-0.7,0-1.3,0.2-1.7,0.5c-0.4,0.4-0.7,0.8-0.7,1.3l-2.1,0l0-0.1
			c-0.1-0.9,0.4-1.7,1.2-2.4s2-1.1,3.4-1.1c1.4,0,2.5,0.4,3.3,1.1s1.3,1.7,1.3,3v5.9c0,0.4,0,0.9,0.1,1.3s0.1,0.8,0.2,1.2H179.2z
			 M175.5,30.4c0.8,0,1.5-0.2,2.2-0.6c0.6-0.4,1.1-0.9,1.3-1.4v-2h-2.5c-0.9,0-1.6,0.2-2.1,0.7c-0.5,0.5-0.8,1-0.8,1.6
			c0,0.5,0.2,1,0.5,1.3C174.3,30.2,174.8,30.4,175.5,30.4z"/>
		<path style="fill:#330099;" d="M193.2,16.9v2.9h2.3v1.6h-2.3v7.4c0,0.6,0.1,1,0.4,1.2c0.2,0.2,0.6,0.3,0.9,0.3
			c0.1,0,0.3,0,0.4-0.1c0.2,0,0.3-0.1,0.4-0.1l0.3,1.5c-0.2,0.1-0.4,0.2-0.7,0.3c-0.3,0.1-0.6,0.1-1,0.1c-0.9,0-1.6-0.3-2.2-0.8
			c-0.5-0.5-0.8-1.4-0.8-2.6v-7.4h-1.9v-1.6h1.9v-2.9H193.2z"/>
		<path style="fill:#330099;" d="M205.7,30.2c-0.4,0.7-0.9,1.2-1.5,1.5s-1.3,0.5-2.1,0.5c-1.3,0-2.4-0.4-3.1-1.3
			c-0.7-0.8-1.1-2.2-1.1-4v-7.2h2.2V27c0,1.3,0.2,2.2,0.6,2.7c0.4,0.5,1,0.7,1.8,0.7c0.8,0,1.4-0.2,2-0.5c0.5-0.3,0.9-0.8,1.2-1.4
			v-8.8h2.2V32h-2L205.7,30.2z"/>
		<path style="fill:#330099;" d="M218.1,28.7c0-0.5-0.2-0.9-0.6-1.2c-0.4-0.3-1.1-0.6-2.1-0.8c-1.4-0.3-2.5-0.7-3.3-1.3
			c-0.8-0.6-1.2-1.3-1.2-2.2c0-1,0.4-1.8,1.3-2.5c0.8-0.7,1.9-1.1,3.3-1.1c1.4,0,2.5,0.4,3.4,1.1c0.9,0.8,1.3,1.6,1.2,2.6l0,0.1H218
			c0-0.5-0.2-1-0.7-1.4c-0.5-0.4-1-0.6-1.8-0.6c-0.8,0-1.4,0.2-1.8,0.5c-0.4,0.4-0.6,0.8-0.6,1.3c0,0.5,0.2,0.9,0.5,1.1
			c0.3,0.3,1,0.5,2.1,0.7c1.5,0.3,2.6,0.8,3.4,1.3s1.2,1.3,1.2,2.3c0,1.1-0.4,2-1.3,2.7c-0.9,0.7-2,1-3.4,1c-1.6,0-2.8-0.4-3.7-1.2
			c-0.9-0.8-1.3-1.7-1.3-2.8l0-0.1h2.1c0,0.8,0.3,1.4,0.9,1.7c0.5,0.4,1.2,0.5,1.9,0.5c0.8,0,1.4-0.2,1.9-0.5S218.1,29.2,218.1,28.7
			z"/>
		<path style="fill:#330099;" d="M99.5,57.2c-0.1-0.4-0.1-0.7-0.2-1c0-0.3-0.1-0.6-0.1-0.9c-0.4,0.6-1,1.1-1.6,1.5
			c-0.7,0.4-1.4,0.6-2.1,0.6c-1.3,0-2.2-0.3-2.9-1c-0.7-0.6-1-1.5-1-2.7c0-1.2,0.5-2.1,1.4-2.7c0.9-0.7,2.2-1,3.8-1h2.4v-1.2
			c0-0.7-0.2-1.3-0.7-1.7c-0.4-0.4-1.1-0.6-1.8-0.6c-0.7,0-1.3,0.2-1.7,0.5c-0.4,0.4-0.7,0.8-0.7,1.3l-2.1,0l0-0.1
			c-0.1-0.9,0.4-1.7,1.2-2.4s2-1.1,3.4-1.1c1.4,0,2.5,0.4,3.3,1.1s1.3,1.7,1.3,3v5.9c0,0.4,0,0.9,0.1,1.3s0.1,0.8,0.2,1.2H99.5z
			 M95.8,55.6c0.8,0,1.5-0.2,2.2-0.6c0.6-0.4,1.1-0.9,1.3-1.4v-2h-2.5c-0.9,0-1.6,0.2-2.1,0.7c-0.5,0.5-0.8,1-0.8,1.6
			c0,0.5,0.2,1,0.5,1.3C94.7,55.4,95.2,55.6,95.8,55.6z"/>
		<path style="fill:#330099;" d="M112.5,55.4c-0.4,0.7-0.9,1.2-1.5,1.5s-1.3,0.5-2.1,0.5c-1.3,0-2.4-0.4-3.1-1.3
			c-0.7-0.8-1.1-2.2-1.1-4V45h2.2v7.2c0,1.3,0.2,2.2,0.6,2.7c0.4,0.5,1,0.7,1.8,0.7c0.8,0,1.4-0.2,2-0.5c0.5-0.3,0.9-0.8,1.2-1.4V45
			h2.2v12.2h-2L112.5,55.4z"/>
		<path style="fill:#330099;" d="M124.9,53.9c0-0.5-0.2-0.9-0.6-1.2c-0.4-0.3-1.1-0.6-2.1-0.8c-1.4-0.3-2.5-0.7-3.3-1.3
			c-0.8-0.6-1.2-1.3-1.2-2.2c0-1,0.4-1.8,1.3-2.5c0.8-0.7,1.9-1.1,3.3-1.1c1.4,0,2.5,0.4,3.4,1.1c0.9,0.8,1.3,1.6,1.2,2.6l0,0.1
			h-2.1c0-0.5-0.2-1-0.7-1.4c-0.5-0.4-1-0.6-1.8-0.6c-0.8,0-1.4,0.2-1.8,0.5c-0.4,0.4-0.6,0.8-0.6,1.3c0,0.5,0.2,0.9,0.5,1.1
			c0.3,0.3,1,0.5,2.1,0.7c1.5,0.3,2.6,0.8,3.4,1.3s1.2,1.3,1.2,2.3c0,1.1-0.4,2-1.3,2.7c-0.9,0.7-2,1-3.4,1c-1.6,0-2.8-0.4-3.7-1.2
			c-0.9-0.8-1.3-1.7-1.3-2.8l0-0.1h2.1c0,0.8,0.3,1.4,0.9,1.7c0.5,0.4,1.2,0.5,1.9,0.5c0.8,0,1.4-0.2,1.9-0.5S124.9,54.4,124.9,53.9
			z"/>
		<path style="fill:#330099;" d="M135,57.4c-1.8,0-3.1-0.6-4.1-1.7c-1-1.1-1.5-2.6-1.5-4.4v-0.5c0-1.8,0.5-3.2,1.5-4.3
			c1-1.1,2.2-1.7,3.7-1.7c1.6,0,2.9,0.5,3.7,1.5c0.8,1,1.2,2.4,1.2,4v1.2h-7.8l0,0.1c0,1.2,0.3,2.2,0.8,3c0.5,0.8,1.4,1.1,2.5,1.1
			c0.8,0,1.4-0.1,2-0.3c0.6-0.2,1.1-0.5,1.5-0.9l0.9,1.4c-0.4,0.4-1,0.8-1.7,1.1C136.8,57.3,136,57.4,135,57.4z M134.6,46.5
			c-0.8,0-1.4,0.3-1.9,0.9c-0.5,0.6-0.8,1.4-0.9,2.3l0,0.1h5.5v-0.2c0-0.9-0.2-1.6-0.7-2.2C136.2,46.8,135.5,46.5,134.6,46.5z"/>
		<path style="fill:#330099;" d="M144,45l0.2,1.8c0.4-0.6,0.9-1.1,1.5-1.5c0.6-0.4,1.3-0.5,2.1-0.5c1.3,0,2.3,0.4,3.1,1.2
			s1.1,2,1.1,3.6v7.7h-2.2v-7.7c0-1.1-0.2-1.8-0.6-2.3s-1.1-0.7-1.9-0.7c-0.7,0-1.3,0.1-1.7,0.4c-0.5,0.3-0.9,0.7-1.1,1.2v9.1H142
			V45H144z"/>
		<path style="fill:#330099;" d="M160,55.7c0.7,0,1.3-0.2,1.8-0.7c0.5-0.5,0.8-1,0.8-1.7h2l0,0.1c0,1.1-0.4,2-1.4,2.8
			c-0.9,0.8-2,1.2-3.2,1.2c-1.7,0-3-0.6-4-1.7c-0.9-1.2-1.4-2.6-1.4-4.4v-0.5c0-1.7,0.5-3.2,1.4-4.3c0.9-1.2,2.3-1.8,4-1.8
			c1.4,0,2.5,0.4,3.3,1.3c0.9,0.8,1.3,1.9,1.3,3.1l0,0.1h-2c0-0.7-0.2-1.4-0.7-1.9s-1.1-0.8-1.8-0.8c-1.1,0-1.9,0.4-2.4,1.3
			c-0.5,0.8-0.8,1.9-0.8,3.1v0.5c0,1.2,0.2,2.3,0.7,3.1C158.1,55.3,158.9,55.7,160,55.7z"/>
		<path style="fill:#330099;" d="M169.6,41.9h-2.2v-2.3h2.2V41.9z M169.6,57.2h-2.2V45h2.2V57.2z"/>
		<path style="fill:#330099;" d="M180.6,57.2c-0.1-0.4-0.1-0.7-0.2-1c0-0.3-0.1-0.6-0.1-0.9c-0.4,0.6-1,1.1-1.6,1.5
			c-0.7,0.4-1.4,0.6-2.1,0.6c-1.3,0-2.2-0.3-2.9-1c-0.7-0.6-1-1.5-1-2.7c0-1.2,0.5-2.1,1.4-2.7c0.9-0.7,2.2-1,3.8-1h2.4v-1.2
			c0-0.7-0.2-1.3-0.7-1.7c-0.4-0.4-1.1-0.6-1.8-0.6c-0.7,0-1.3,0.2-1.7,0.5c-0.4,0.4-0.7,0.8-0.7,1.3l-2.1,0l0-0.1
			c-0.1-0.9,0.4-1.7,1.2-2.4s2-1.1,3.4-1.1c1.4,0,2.5,0.4,3.3,1.1s1.3,1.7,1.3,3v5.9c0,0.4,0,0.9,0.1,1.3s0.1,0.8,0.2,1.2H180.6z
			 M176.9,55.6c0.8,0,1.5-0.2,2.2-0.6c0.6-0.4,1.1-0.9,1.3-1.4v-2h-2.5c-0.9,0-1.6,0.2-2.1,0.7c-0.5,0.5-0.8,1-0.8,1.6
			c0,0.5,0.2,1,0.5,1.3C175.7,55.4,176.2,55.6,176.9,55.6z"/>
		<path style="fill:#330099;" d="M192.9,53.9c0-0.5-0.2-0.9-0.6-1.2c-0.4-0.3-1.1-0.6-2.1-0.8c-1.4-0.3-2.5-0.7-3.3-1.3
			c-0.8-0.6-1.2-1.3-1.2-2.2c0-1,0.4-1.8,1.3-2.5c0.8-0.7,1.9-1.1,3.3-1.1c1.4,0,2.5,0.4,3.4,1.1c0.9,0.8,1.3,1.6,1.2,2.6l0,0.1
			h-2.1c0-0.5-0.2-1-0.7-1.4c-0.5-0.4-1-0.6-1.8-0.6c-0.8,0-1.4,0.2-1.8,0.5c-0.4,0.4-0.6,0.8-0.6,1.3c0,0.5,0.2,0.9,0.5,1.1
			c0.3,0.3,1,0.5,2.1,0.7c1.5,0.3,2.6,0.8,3.4,1.3s1.2,1.3,1.2,2.3c0,1.1-0.4,2-1.3,2.7c-0.9,0.7-2,1-3.4,1c-1.6,0-2.8-0.4-3.7-1.2
			c-0.9-0.8-1.3-1.7-1.3-2.8l0-0.1h2.1c0,0.8,0.3,1.4,0.9,1.7c0.5,0.4,1.2,0.5,1.9,0.5c0.8,0,1.4-0.2,1.9-0.5S192.9,54.4,192.9,53.9
			z"/>
		<path style="fill:#330099;" d="M206,57.2h-2.2V39.6h2.2V57.2z"/>
		<path style="fill:#330099;" d="M216.9,57.2c-0.1-0.4-0.1-0.7-0.2-1c0-0.3-0.1-0.6-0.1-0.9c-0.4,0.6-1,1.1-1.6,1.5
			c-0.7,0.4-1.4,0.6-2.1,0.6c-1.3,0-2.2-0.3-2.9-1c-0.7-0.6-1-1.5-1-2.7c0-1.2,0.5-2.1,1.4-2.7c0.9-0.7,2.2-1,3.8-1h2.4v-1.2
			c0-0.7-0.2-1.3-0.7-1.7c-0.4-0.4-1.1-0.6-1.8-0.6c-0.7,0-1.3,0.2-1.7,0.5c-0.4,0.4-0.7,0.8-0.7,1.3l-2.1,0l0-0.1
			c-0.1-0.9,0.4-1.7,1.2-2.4s2-1.1,3.4-1.1c1.4,0,2.5,0.4,3.3,1.1s1.3,1.7,1.3,3v5.9c0,0.4,0,0.9,0.1,1.3s0.1,0.8,0.2,1.2H216.9z
			 M213.2,55.6c0.8,0,1.5-0.2,2.2-0.6c0.6-0.4,1.1-0.9,1.3-1.4v-2h-2.5c-0.9,0-1.6,0.2-2.1,0.7c-0.5,0.5-0.8,1-0.8,1.6
			c0,0.5,0.2,1,0.5,1.3C212,55.4,212.5,55.6,213.2,55.6z"/>
		<path style="fill:#330099;" d="M232.5,51.6c0,1.8-0.4,3.2-1.3,4.3c-0.8,1.1-2,1.6-3.5,1.6c-0.8,0-1.5-0.2-2.1-0.5
			c-0.6-0.3-1.1-0.8-1.5-1.4l-0.4,1.7h-1.7V39.6h2.2v6.8c0.4-0.5,0.9-1,1.4-1.2s1.2-0.4,2-0.4c1.5,0,2.7,0.6,3.5,1.8
			c0.8,1.2,1.3,2.8,1.3,4.7V51.6z M230.3,51.3c0-1.4-0.3-2.5-0.8-3.4c-0.5-0.9-1.3-1.3-2.4-1.3c-0.7,0-1.3,0.2-1.7,0.5
			s-0.8,0.8-1.1,1.3v5.3c0.3,0.6,0.7,1.1,1.1,1.4c0.5,0.3,1,0.5,1.8,0.5c1,0,1.8-0.4,2.3-1.1s0.8-1.7,0.8-3V51.3z"/>
		<path style="fill:#330099;" d="M234.7,51c0-1.8,0.5-3.3,1.5-4.5s2.3-1.8,4-1.8c1.7,0,3,0.6,4,1.7c1,1.2,1.5,2.7,1.5,4.5v0.2
			c0,1.8-0.5,3.3-1.5,4.5s-2.3,1.7-4,1.7s-3-0.6-4-1.7c-1-1.2-1.5-2.6-1.5-4.5V51z M236.9,51.2c0,1.3,0.3,2.4,0.8,3.2
			c0.5,0.8,1.4,1.3,2.4,1.3c1.1,0,1.9-0.4,2.4-1.3c0.5-0.8,0.8-1.9,0.8-3.2V51c0-1.3-0.3-2.3-0.8-3.2c-0.6-0.8-1.4-1.3-2.4-1.3
			c-1.1,0-1.9,0.4-2.4,1.3c-0.5,0.9-0.8,1.9-0.8,3.2V51.2z"/>
		<path style="fill:#330099;" d="M254.1,47l-1.1-0.1c-0.6,0-1.1,0.1-1.5,0.4s-0.7,0.7-0.9,1.2v8.7h-2.2V45h2l0.2,1.8
			c0.3-0.6,0.8-1.1,1.3-1.5s1.1-0.5,1.8-0.5c0.2,0,0.3,0,0.5,0s0.3,0.1,0.4,0.1L254.1,47z"/>
		<path style="fill:#330099;" d="M263.9,57.2c-0.1-0.4-0.1-0.7-0.2-1c0-0.3-0.1-0.6-0.1-0.9c-0.4,0.6-1,1.1-1.6,1.5
			c-0.7,0.4-1.4,0.6-2.1,0.6c-1.3,0-2.2-0.3-2.9-1c-0.7-0.6-1-1.5-1-2.7c0-1.2,0.5-2.1,1.4-2.7c0.9-0.7,2.2-1,3.8-1h2.4v-1.2
			c0-0.7-0.2-1.3-0.7-1.7c-0.4-0.4-1.1-0.6-1.8-0.6c-0.7,0-1.3,0.2-1.7,0.5c-0.4,0.4-0.7,0.8-0.7,1.3l-2.1,0l0-0.1
			c-0.1-0.9,0.4-1.7,1.2-2.4s2-1.1,3.4-1.1c1.4,0,2.5,0.4,3.3,1.1s1.3,1.7,1.3,3v5.9c0,0.4,0,0.9,0.1,1.3s0.1,0.8,0.2,1.2H263.9z
			 M260.3,55.6c0.8,0,1.5-0.2,2.2-0.6c0.6-0.4,1.1-0.9,1.3-1.4v-2h-2.5c-0.9,0-1.6,0.2-2.1,0.7c-0.5,0.5-0.8,1-0.8,1.6
			c0,0.5,0.2,1,0.5,1.3C259.1,55.4,259.6,55.6,260.3,55.6z"/>
		<path style="fill:#330099;" d="M271.5,57.2h-2.2V39.6h2.2V57.2z"/>
		<path style="fill:#330099;" d="M280,57.4c-1.8,0-3.1-0.6-4.1-1.7c-1-1.1-1.5-2.6-1.5-4.4v-0.5c0-1.8,0.5-3.2,1.5-4.3
			c1-1.1,2.2-1.7,3.7-1.7c1.6,0,2.9,0.5,3.7,1.5c0.8,1,1.2,2.4,1.2,4v1.2h-7.8l0,0.1c0,1.2,0.3,2.2,0.8,3c0.5,0.8,1.4,1.1,2.5,1.1
			c0.8,0,1.4-0.1,2-0.3c0.6-0.2,1.1-0.5,1.5-0.9l0.9,1.4c-0.4,0.4-1,0.8-1.7,1.1C281.9,57.3,281,57.4,280,57.4z M279.7,46.5
			c-0.8,0-1.4,0.3-1.9,0.9c-0.5,0.6-0.8,1.4-0.9,2.3l0,0.1h5.5v-0.2c0-0.9-0.2-1.6-0.7-2.2C281.3,46.8,280.6,46.5,279.7,46.5z"/>
		<path style="fill:#330099;" d="M294.2,53.9c0-0.5-0.2-0.9-0.6-1.2c-0.4-0.3-1.1-0.6-2.1-0.8c-1.4-0.3-2.5-0.7-3.3-1.3
			c-0.8-0.6-1.2-1.3-1.2-2.2c0-1,0.4-1.8,1.3-2.5c0.8-0.7,1.9-1.1,3.3-1.1c1.4,0,2.5,0.4,3.4,1.1c0.9,0.8,1.3,1.6,1.2,2.6l0,0.1H294
			c0-0.5-0.2-1-0.7-1.4c-0.5-0.4-1-0.6-1.8-0.6c-0.8,0-1.4,0.2-1.8,0.5c-0.4,0.4-0.6,0.8-0.6,1.3c0,0.5,0.2,0.9,0.5,1.1
			c0.3,0.3,1,0.5,2.1,0.7c1.5,0.3,2.6,0.8,3.4,1.3s1.2,1.3,1.2,2.3c0,1.1-0.4,2-1.3,2.7c-0.9,0.7-2,1-3.4,1c-1.6,0-2.8-0.4-3.7-1.2
			c-0.9-0.8-1.3-1.7-1.3-2.8l0-0.1h2.1c0,0.8,0.3,1.4,0.9,1.7c0.5,0.4,1.2,0.5,1.9,0.5c0.8,0,1.4-0.2,1.9-0.5S294.2,54.4,294.2,53.9
			z"/>
	</g>
	<g>
		<path style="fill:#330099;" d="M36.9,74.4C16.5,74.4,0,57.8,0,37.5C0,17.2,16.5,0.6,36.9,0.6s36.9,16.5,36.9,36.9
			C73.8,57.8,57.2,74.4,36.9,74.4z M36.9,3.4C18.1,3.4,2.8,18.7,2.8,37.5c0,18.8,15.3,34.1,34.1,34.1S71,56.3,71,37.5
			C71,18.7,55.7,3.4,36.9,3.4z"/>
		<path style="fill:#330099;" d="M44.4,58l-5.2-5.2c-0.3-0.3-0.5-0.7-0.5-1.1s0.2-0.8,0.5-1.1c0.3-0.3,0.7-0.5,1.1-0.5
			s0.8,0.2,1.1,0.5l4.1,4.1l8.5-8.5c0.3-0.3,0.7-0.5,1.1-0.4c0.4,0,0.8,0.2,1.1,0.5c0.3,0.3,0.4,0.7,0.4,1.1c0,0.4-0.1,0.8-0.4,1.1
			L46.5,58c-0.3,0.3-0.6,0.5-1.1,0.5C45,58.5,44.7,58.3,44.4,58z M29.8,43.6l-2.6,2.6c-0.3,0.3-0.7,0.5-1.1,0.5s-0.8-0.2-1.1-0.5
			c-0.3-0.3-0.5-0.7-0.5-1.1s0.2-0.8,0.5-1.1l2.6-2.6L25,38.9c-0.3-0.3-0.5-0.7-0.5-1.1c0-0.4,0.2-0.8,0.5-1.1
			c0.3-0.3,0.7-0.5,1.1-0.5s0.8,0.2,1.1,0.5l2.6,2.6l2.6-2.6c0.3-0.3,0.7-0.5,1.1-0.5c0.4,0,0.8,0.2,1.1,0.5
			c0.3,0.3,0.5,0.7,0.5,1.1s-0.2,0.8-0.5,1.1l-2.6,2.6l2.6,2.6c0.3,0.3,0.5,0.7,0.5,1.1s-0.2,0.8-0.5,1.1c-0.3,0.3-0.7,0.5-1.1,0.5
			s-0.8-0.2-1.1-0.5L29.8,43.6z M20.4,58.1c-0.8,0-1.6-0.3-2.2-0.9c-0.6-0.6-0.9-1.4-0.9-2.2V22.7c0-0.8,0.3-1.6,0.9-2.2
			c0.6-0.6,1.4-0.9,2.2-0.9h3.4v-1.5c0-0.5,0.2-0.9,0.5-1.2c0.3-0.3,0.7-0.5,1.2-0.5s0.9,0.2,1.2,0.5c0.3,0.3,0.5,0.7,0.5,1.2v1.5
			h17.7v-1.5c0-0.5,0.2-0.9,0.5-1.2c0.3-0.3,0.7-0.5,1.2-0.5c0.5,0,0.9,0.2,1.2,0.5c0.3,0.3,0.5,0.7,0.5,1.2v1.5h3.4
			c0.8,0,1.6,0.3,2.2,0.9c0.6,0.6,0.9,1.4,0.9,2.2V41l-3.1,3.1V32.6H20.4V55h16.5l3.1,3.1H20.4z M20.4,29.5h31.2v-6.8H20.4V29.5z
			 M20.4,29.5v-6.8V29.5z"/>
	</g>
</g>
</svg>
