<?xml version="1.0" encoding="utf-8"?>
<!-- Generator: Adobe Illustrator 18.0.0, SVG Export Plug-In . SVG Version: 6.00 Build 0)  -->
<!DOCTYPE svg PUBLIC "-//W3C//DTD SVG 1.1//EN" "http://www.w3.org/Graphics/SVG/1.1/DTD/svg11.dtd" [
	<!ENTITY ns_extend "http://ns.adobe.com/Extensibility/1.0/">
	<!ENTITY ns_ai "http://ns.adobe.com/AdobeIllustrator/10.0/">
	<!ENTITY ns_graphs "http://ns.adobe.com/Graphs/1.0/">
	<!ENTITY ns_vars "http://ns.adobe.com/Variables/1.0/">
	<!ENTITY ns_imrep "http://ns.adobe.com/ImageReplacement/1.0/">
	<!ENTITY ns_sfw "http://ns.adobe.com/SaveForWeb/1.0/">
	<!ENTITY ns_custom "http://ns.adobe.com/GenericCustomNamespace/1.0/">
	<!ENTITY ns_adobe_xpath "http://ns.adobe.com/XPath/1.0/">
]>
<svg version="1.1" id="Capa_1" xmlns:x="&ns_extend;" xmlns:i="&ns_ai;" xmlns:graph="&ns_graphs;"
	 xmlns="http://www.w3.org/2000/svg" xmlns:xlink="http://www.w3.org/1999/xlink" x="0px" y="0px" viewBox="0 0 285 75"
	 style="enable-background:new 0 0 285 75;" xml:space="preserve">
<metadata>
	<sfw  xmlns="&ns_sfw;">
		<slices></slices>
		<sliceSourceBounds  width="16383" height="74.6" x="-8035" y="-75" bottomLeftOrigin="true"></sliceSourceBounds>
	</sfw>
</metadata>
<g>
	<g>
		<path style="fill:#330099;" d="M98.3,27.7l0.4,1.4h0.1l0.4-1.4l4.2-12.1h2.4L99.6,32h-1.9l-6.1-16.4H94L98.3,27.7z"/>
		<path style="fill:#330099;" d="M110,16.6h-2.2v-2.3h2.2V16.6z M110,32h-2.2V19.8h2.2V32z"/>
		<path style="fill:#330099;" d="M120.5,28.7c0-0.5-0.2-0.9-0.6-1.2c-0.4-0.3-1.1-0.6-2.1-0.8c-1.4-0.3-2.5-0.7-3.3-1.3
			c-0.8-0.6-1.2-1.3-1.2-2.2c0-1,0.4-1.8,1.3-2.5c0.8-0.7,1.9-1.1,3.3-1.1c1.4,0,2.5,0.4,3.4,1.1c0.9,0.8,1.3,1.6,1.2,2.6l0,0.1
			h-2.1c0-0.5-0.2-1-0.7-1.4c-0.5-0.4-1-0.6-1.8-0.6c-0.8,0-1.4,0.2-1.8,0.5c-0.4,0.4-0.6,0.8-0.6,1.3c0,0.5,0.2,0.9,0.5,1.1
			c0.3,0.3,1,0.5,2.1,0.7c1.5,0.3,2.6,0.8,3.4,1.3c0.8,0.6,1.2,1.3,1.2,2.3c0,1.1-0.4,2-1.3,2.7c-0.9,0.7-2,1-3.4,1
			c-1.6,0-2.8-0.4-3.7-1.2c-0.9-0.8-1.3-1.7-1.3-2.8l0-0.1h2.1c0,0.8,0.3,1.4,0.9,1.7c0.5,0.4,1.2,0.5,1.9,0.5
			c0.8,0,1.4-0.2,1.9-0.5S120.5,29.2,120.5,28.7z"/>
		<path style="fill:#330099;" d="M133.2,30.2c-0.4,0.7-0.9,1.2-1.5,1.5s-1.3,0.5-2.1,0.5c-1.3,0-2.4-0.4-3.1-1.3
			c-0.7-0.8-1.1-2.2-1.1-4v-7.2h2.2V27c0,1.3,0.2,2.2,0.6,2.7c0.4,0.5,1,0.7,1.8,0.7c0.8,0,1.4-0.2,2-0.5c0.5-0.3,0.9-0.8,1.2-1.4
			v-8.8h2.2V32h-2L133.2,30.2z"/>
		<path style="fill:#330099;" d="M146.1,32c-0.1-0.4-0.1-0.7-0.2-1c0-0.3-0.1-0.6-0.1-0.9c-0.4,0.6-1,1.1-1.6,1.5s-1.4,0.6-2.1,0.6
			c-1.3,0-2.2-0.3-2.9-1c-0.7-0.6-1-1.5-1-2.7c0-1.2,0.5-2.1,1.4-2.7c0.9-0.7,2.2-1,3.8-1h2.4v-1.2c0-0.7-0.2-1.3-0.7-1.7
			c-0.4-0.4-1.1-0.6-1.8-0.6c-0.7,0-1.3,0.2-1.7,0.5c-0.4,0.4-0.7,0.8-0.7,1.3l-2.1,0l0-0.1c-0.1-0.9,0.4-1.7,1.2-2.4
			c0.9-0.7,2-1.1,3.4-1.1c1.4,0,2.5,0.4,3.3,1.1s1.3,1.7,1.3,3v5.9c0,0.4,0,0.9,0.1,1.3s0.1,0.8,0.2,1.2H146.1z M142.4,30.3
			c0.8,0,1.5-0.2,2.2-0.6c0.6-0.4,1.1-0.9,1.3-1.4v-2h-2.5c-0.9,0-1.6,0.2-2.2,0.7c-0.5,0.5-0.8,1-0.8,1.6c0,0.5,0.2,1,0.5,1.3
			C141.3,30.2,141.8,30.3,142.4,30.3z"/>
		<path style="fill:#330099;" d="M153.7,32h-2.2V14.4h2.2V32z"/>
		<path style="fill:#330099;" d="M159.5,16.6h-2.2v-2.3h2.2V16.6z M159.5,32h-2.2V19.8h2.2V32z"/>
		<path style="fill:#330099;" d="M165.1,30.2h7.1V32h-9.7v-1.6l6.6-8.9h-6.5v-1.8h9.2v1.5L165.1,30.2z"/>
		<path style="fill:#330099;" d="M182.1,32c-0.1-0.4-0.1-0.7-0.2-1c0-0.3-0.1-0.6-0.1-0.9c-0.4,0.6-1,1.1-1.6,1.5s-1.4,0.6-2.1,0.6
			c-1.3,0-2.2-0.3-2.9-1c-0.7-0.6-1-1.5-1-2.7c0-1.2,0.5-2.1,1.4-2.7c0.9-0.7,2.2-1,3.8-1h2.4v-1.2c0-0.7-0.2-1.3-0.7-1.7
			c-0.4-0.4-1.1-0.6-1.8-0.6c-0.7,0-1.3,0.2-1.7,0.5c-0.4,0.4-0.7,0.8-0.7,1.3l-2.1,0l0-0.1c-0.1-0.9,0.4-1.7,1.2-2.4
			c0.9-0.7,2-1.1,3.4-1.1c1.4,0,2.5,0.4,3.3,1.1s1.3,1.7,1.3,3v5.9c0,0.4,0,0.9,0.1,1.3s0.1,0.8,0.2,1.2H182.1z M178.4,30.3
			c0.8,0,1.5-0.2,2.2-0.6c0.6-0.4,1.1-0.9,1.3-1.4v-2h-2.5c-0.9,0-1.6,0.2-2.2,0.7c-0.5,0.5-0.8,1-0.8,1.6c0,0.5,0.2,1,0.5,1.3
			C177.2,30.2,177.7,30.3,178.4,30.3z"/>
		<path style="fill:#330099;" d="M196.8,27.4l0.4,1.5h0.1l3-9.2h2.5l-5.1,14.1c-0.3,0.8-0.8,1.5-1.3,2.1c-0.6,0.6-1.4,0.9-2.3,0.9
			c-0.2,0-0.4,0-0.7-0.1c-0.3,0-0.5-0.1-0.6-0.1l0.2-1.7c0,0,0.1,0,0.4,0s0.5,0,0.6,0c0.5,0,0.9-0.2,1.2-0.6s0.6-0.9,0.8-1.4
			l0.5-1.3l-4.5-12h2.5L196.8,27.4z"/>
		<path style="fill:#330099;" d="M214.4,28.4l0.2,0.9h0.1l0.2-0.9l2.8-8.6h2.3L215.5,32h-1.7l-4.5-12.2h2.3L214.4,28.4z"/>
		<path style="fill:#330099;" d="M226.9,32.2c-1.8,0-3.1-0.6-4.1-1.7c-1-1.1-1.5-2.6-1.5-4.4v-0.5c0-1.8,0.5-3.2,1.5-4.3
			c1-1.1,2.2-1.7,3.7-1.7c1.6,0,2.9,0.5,3.7,1.5c0.8,1,1.2,2.4,1.2,4v1.2h-7.8l0,0.1c0,1.2,0.3,2.2,0.8,3c0.5,0.8,1.4,1.1,2.5,1.1
			c0.8,0,1.4-0.1,2-0.3c0.6-0.2,1.1-0.5,1.5-0.9l0.9,1.4c-0.4,0.4-1,0.8-1.7,1.1S227.9,32.2,226.9,32.2z M226.6,21.3
			c-0.8,0-1.4,0.3-1.9,0.9c-0.5,0.6-0.8,1.4-0.9,2.3l0,0.1h5.5v-0.2c0-0.9-0.2-1.6-0.7-2.2C228.1,21.6,227.5,21.3,226.6,21.3z"/>
		<path style="fill:#330099;" d="M239.7,21.7l-1.1-0.1c-0.6,0-1.1,0.1-1.5,0.4s-0.7,0.7-0.9,1.2V32h-2.2V19.8h2l0.2,1.8
			c0.3-0.6,0.8-1.1,1.3-1.5s1.1-0.5,1.8-0.5c0.2,0,0.3,0,0.5,0s0.3,0.1,0.4,0.1L239.7,21.7z"/>
		<path style="fill:#330099;" d="M244.4,16.6h-2.2v-2.3h2.2V16.6z M244.4,32h-2.2V19.8h2.2V32z"/>
		<path style="fill:#330099;" d="M248.5,32V21.4h-1.9v-1.6h1.9v-1.3c0-1.4,0.4-2.4,1.2-3.2c0.8-0.8,1.9-1.1,3.3-1.1
			c0.5,0,1,0.1,1.5,0.2c0.5,0.1,1.1,0.3,1.7,0.5l-0.4,1.8c-0.4-0.2-0.8-0.3-1.3-0.4c-0.5-0.1-0.9-0.2-1.4-0.2
			c-0.9,0-1.5,0.2-1.9,0.6c-0.4,0.4-0.6,1-0.6,1.8v1.3h2.4v1.6h-2.4V32H248.5z M257.3,32h-2.2V19.8h2.2V32z"/>
		<path style="fill:#330099;" d="M265.6,30.5c0.7,0,1.3-0.2,1.8-0.7c0.5-0.5,0.8-1,0.8-1.7h2l0,0.1c0,1.1-0.4,2-1.4,2.8
			c-0.9,0.8-2,1.2-3.3,1.2c-1.7,0-3-0.6-4-1.7c-0.9-1.2-1.4-2.6-1.4-4.4v-0.5c0-1.7,0.5-3.2,1.4-4.3c0.9-1.2,2.3-1.8,4-1.8
			c1.4,0,2.5,0.4,3.3,1.3c0.9,0.8,1.3,1.9,1.3,3.1l0,0.1h-2c0-0.7-0.2-1.4-0.7-1.9c-0.5-0.5-1.1-0.8-1.8-0.8c-1.1,0-1.9,0.4-2.4,1.3
			c-0.5,0.8-0.8,1.9-0.8,3.1v0.5c0,1.2,0.2,2.3,0.7,3.1C263.6,30.1,264.4,30.5,265.6,30.5z"/>
		<path style="fill:#330099;" d="M280.3,32c-0.1-0.4-0.1-0.7-0.2-1s-0.1-0.6-0.1-0.9c-0.4,0.6-1,1.1-1.6,1.5
			c-0.7,0.4-1.4,0.6-2.1,0.6c-1.3,0-2.2-0.3-2.9-1c-0.7-0.6-1-1.5-1-2.7c0-1.2,0.5-2.1,1.4-2.7s2.2-1,3.8-1h2.4v-1.2
			c0-0.7-0.2-1.3-0.7-1.7c-0.4-0.4-1.1-0.6-1.8-0.6c-0.7,0-1.3,0.2-1.7,0.5c-0.4,0.4-0.7,0.8-0.7,1.3l-2.1,0l0-0.1
			c-0.1-0.9,0.4-1.7,1.2-2.4c0.9-0.7,2-1.1,3.4-1.1c1.4,0,2.5,0.4,3.3,1.1s1.3,1.7,1.3,3v5.9c0,0.4,0,0.9,0.1,1.3s0.1,0.8,0.2,1.2
			H280.3z M276.6,30.3c0.8,0,1.5-0.2,2.2-0.6c0.6-0.4,1.1-0.9,1.3-1.4v-2h-2.5c-0.9,0-1.6,0.2-2.1,0.7s-0.8,1-0.8,1.6
			c0,0.5,0.2,1,0.5,1.3C275.4,30.2,275.9,30.3,276.6,30.3z"/>
		<path style="fill:#330099;" d="M96.1,42V45h2.3v1.6h-2.3V54c0,0.6,0.1,1,0.4,1.2c0.2,0.2,0.6,0.3,0.9,0.3c0.1,0,0.3,0,0.4-0.1
			c0.2,0,0.3-0.1,0.4-0.1l0.3,1.5c-0.2,0.1-0.4,0.2-0.7,0.3c-0.3,0.1-0.6,0.1-1,0.1c-0.9,0-1.6-0.3-2.2-0.8
			c-0.5-0.5-0.8-1.4-0.8-2.6v-7.4h-1.9V45h1.9V42H96.1z"/>
		<path style="fill:#330099;" d="M108.5,55.4c-0.4,0.7-0.9,1.2-1.5,1.5s-1.3,0.5-2.1,0.5c-1.3,0-2.4-0.4-3.1-1.3
			c-0.7-0.8-1.1-2.2-1.1-4V45h2.2v7.2c0,1.3,0.2,2.2,0.6,2.7c0.4,0.5,1,0.7,1.8,0.7c0.8,0,1.4-0.2,2-0.5c0.5-0.3,0.9-0.8,1.2-1.4V45
			h2.2v12.2h-2L108.5,55.4z"/>
		<path style="fill:#330099;" d="M119.1,51.3c0-2,0.4-3.5,1.3-4.7c0.8-1.2,2-1.8,3.5-1.8c0.7,0,1.3,0.1,1.9,0.4
			c0.6,0.3,1,0.6,1.4,1.2v-6.7h2.2v17.6h-1.7l-0.3-1.5c-0.4,0.6-0.9,1-1.5,1.3c-0.6,0.3-1.3,0.5-2,0.5c-1.5,0-2.7-0.5-3.5-1.6
			c-0.8-1.1-1.3-2.5-1.3-4.3V51.3z M121.3,51.5c0,1.2,0.3,2.2,0.8,3s1.3,1.1,2.3,1.1c0.7,0,1.2-0.2,1.7-0.5s0.8-0.7,1.1-1.3v-5.7
			c-0.3-0.5-0.7-0.9-1.1-1.2s-1-0.4-1.6-0.4c-1.1,0-1.9,0.4-2.4,1.3s-0.8,2-0.8,3.4V51.5z"/>
		<path style="fill:#330099;" d="M137.8,57.4c-1.8,0-3.1-0.6-4.1-1.7c-1-1.1-1.5-2.6-1.5-4.4v-0.5c0-1.8,0.5-3.2,1.5-4.3
			c1-1.1,2.2-1.7,3.7-1.7c1.6,0,2.9,0.5,3.7,1.5c0.8,1,1.2,2.4,1.2,4v1.2h-7.8l0,0.1c0,1.2,0.3,2.2,0.8,3c0.5,0.8,1.4,1.1,2.5,1.1
			c0.8,0,1.4-0.1,2-0.3c0.6-0.2,1.1-0.5,1.5-0.9l0.9,1.4c-0.4,0.4-1,0.8-1.7,1.1S138.8,57.4,137.8,57.4z M137.5,46.5
			c-0.8,0-1.4,0.3-1.9,0.9c-0.5,0.6-0.8,1.4-0.9,2.3l0,0.1h5.5v-0.2c0-0.9-0.2-1.6-0.7-2.2C139,46.8,138.4,46.5,137.5,46.5z"/>
		<path style="fill:#330099;" d="M151.9,53.9c0-0.5-0.2-0.9-0.6-1.2c-0.4-0.3-1.1-0.6-2.1-0.8c-1.4-0.3-2.5-0.7-3.3-1.3
			s-1.2-1.3-1.2-2.2c0-1,0.4-1.8,1.3-2.5c0.8-0.7,1.9-1.1,3.3-1.1c1.4,0,2.5,0.4,3.4,1.1s1.3,1.6,1.2,2.6l0,0.1h-2.1
			c0-0.5-0.2-1-0.7-1.4c-0.5-0.4-1-0.6-1.8-0.6c-0.8,0-1.4,0.2-1.8,0.5s-0.6,0.8-0.6,1.3c0,0.5,0.2,0.9,0.5,1.1
			c0.3,0.3,1,0.5,2.1,0.7c1.5,0.3,2.6,0.8,3.4,1.3c0.8,0.6,1.2,1.3,1.2,2.3c0,1.1-0.4,2-1.3,2.7c-0.9,0.7-2,1-3.4,1
			c-1.6,0-2.8-0.4-3.7-1.2c-0.9-0.8-1.3-1.7-1.3-2.8l0-0.1h2.1c0,0.8,0.3,1.4,0.9,1.7c0.5,0.4,1.2,0.5,1.9,0.5
			c0.8,0,1.4-0.2,1.9-0.5S151.9,54.4,151.9,53.9z"/>
		<path style="fill:#330099;" d="M162,57.4c-1.8,0-3.1-0.6-4.1-1.7c-1-1.1-1.5-2.6-1.5-4.4v-0.5c0-1.8,0.5-3.2,1.5-4.3
			c1-1.1,2.2-1.7,3.7-1.7c1.6,0,2.9,0.5,3.7,1.5c0.8,1,1.2,2.4,1.2,4v1.2h-7.8l0,0.1c0,1.2,0.3,2.2,0.8,3c0.5,0.8,1.4,1.1,2.5,1.1
			c0.8,0,1.4-0.1,2-0.3c0.6-0.2,1.1-0.5,1.5-0.9l0.9,1.4c-0.4,0.4-1,0.8-1.7,1.1C163.9,57.3,163,57.4,162,57.4z M161.6,46.5
			c-0.8,0-1.4,0.3-1.9,0.9c-0.5,0.6-0.8,1.4-0.9,2.3l0,0.1h5.5v-0.2c0-0.9-0.2-1.6-0.7-2.2S162.5,46.5,161.6,46.5z"/>
		<path style="fill:#330099;" d="M171,45l0.2,1.6c0.4-0.6,0.9-1,1.5-1.3s1.3-0.5,2.1-0.5c0.8,0,1.5,0.2,2.1,0.6
			c0.6,0.4,1,0.9,1.3,1.7c0.4-0.7,0.9-1.3,1.5-1.7c0.6-0.4,1.4-0.6,2.2-0.6c1.2,0,2.2,0.4,2.9,1.3c0.7,0.9,1.1,2.1,1.1,3.9v7.3h-2.2
			v-7.3c0-1.2-0.2-2.1-0.6-2.6c-0.4-0.5-1-0.8-1.8-0.8c-0.8,0-1.4,0.3-1.8,0.8c-0.5,0.5-0.7,1.2-0.8,2v0.1v7.7h-2.2v-7.3
			c0-1.1-0.2-2-0.6-2.5c-0.4-0.5-1-0.8-1.8-0.8c-0.7,0-1.2,0.1-1.7,0.4c-0.4,0.3-0.8,0.7-1,1.2v9H169V45H171z"/>
		<path style="fill:#330099;" d="M199.6,51.5c0,1.8-0.4,3.2-1.3,4.3s-2,1.6-3.5,1.6c-0.8,0-1.4-0.1-2-0.4c-0.6-0.3-1.1-0.6-1.4-1.1
			v6h-2.2V45h1.7l0.3,1.6c0.4-0.6,0.9-1,1.5-1.3c0.6-0.3,1.3-0.5,2.1-0.5c1.5,0,2.7,0.6,3.5,1.8s1.3,2.8,1.3,4.8V51.5z M197.4,51.3
			c0-1.4-0.3-2.5-0.8-3.4c-0.5-0.9-1.3-1.3-2.4-1.3c-0.6,0-1.2,0.1-1.6,0.4c-0.5,0.3-0.8,0.7-1.1,1.2v5.9c0.3,0.5,0.6,0.9,1.1,1.2
			c0.5,0.3,1,0.4,1.7,0.4c1.1,0,1.8-0.4,2.4-1.2c0.5-0.8,0.8-1.8,0.8-3V51.3z"/>
		<path style="fill:#330099;" d="M207.4,57.4c-1.8,0-3.1-0.6-4.1-1.7c-1-1.1-1.5-2.6-1.5-4.4v-0.5c0-1.8,0.5-3.2,1.5-4.3
			c1-1.1,2.2-1.7,3.7-1.7c1.6,0,2.9,0.5,3.7,1.5c0.8,1,1.2,2.4,1.2,4v1.2h-7.8l0,0.1c0,1.2,0.3,2.2,0.8,3c0.5,0.8,1.4,1.1,2.5,1.1
			c0.8,0,1.4-0.1,2-0.3c0.6-0.2,1.1-0.5,1.5-0.9l0.9,1.4c-0.4,0.4-1,0.8-1.7,1.1S208.4,57.4,207.4,57.4z M207,46.5
			c-0.8,0-1.4,0.3-1.9,0.9c-0.5,0.6-0.8,1.4-0.9,2.3l0,0.1h5.5v-0.2c0-0.9-0.2-1.6-0.7-2.2C208.6,46.8,208,46.5,207,46.5z"/>
		<path style="fill:#330099;" d="M216.4,45l0.2,1.8c0.4-0.6,0.9-1.1,1.5-1.5c0.6-0.4,1.3-0.5,2.1-0.5c1.3,0,2.3,0.4,3.1,1.2
			c0.7,0.8,1.1,2,1.1,3.6v7.7h-2.2v-7.7c0-1.1-0.2-1.8-0.6-2.3c-0.4-0.5-1.1-0.7-1.9-0.7c-0.7,0-1.3,0.1-1.7,0.4
			c-0.5,0.3-0.9,0.7-1.1,1.2v9.1h-2.2V45H216.4z M223.3,40c0,0.7-0.2,1.3-0.7,1.8c-0.4,0.5-1,0.7-1.7,0.7c-0.5,0-1.1-0.2-1.7-0.5
			c-0.6-0.3-1.1-0.5-1.4-0.5c-0.3,0-0.6,0.1-0.8,0.4c-0.2,0.2-0.3,0.5-0.3,0.9l-1.2-0.3c0-0.7,0.2-1.3,0.7-1.8
			c0.4-0.5,1-0.8,1.7-0.8c0.4,0,0.9,0.2,1.6,0.5c0.6,0.4,1.1,0.5,1.5,0.5c0.3,0,0.6-0.1,0.8-0.4c0.2-0.2,0.3-0.5,0.3-0.9L223.3,40z"
			/>
		<path style="fill:#330099;" d="M227,51c0-1.8,0.5-3.3,1.5-4.5c1-1.2,2.3-1.8,4-1.8c1.7,0,3,0.6,4,1.7c1,1.2,1.5,2.7,1.5,4.5v0.2
			c0,1.8-0.5,3.3-1.5,4.5c-1,1.2-2.3,1.7-4,1.7c-1.7,0-3-0.6-4-1.7c-1-1.2-1.5-2.6-1.5-4.5V51z M229.3,51.2c0,1.3,0.3,2.4,0.8,3.2
			c0.5,0.8,1.4,1.3,2.4,1.3c1.1,0,1.9-0.4,2.4-1.3c0.5-0.8,0.8-1.9,0.8-3.2V51c0-1.3-0.3-2.3-0.8-3.2c-0.6-0.8-1.4-1.3-2.4-1.3
			c-1.1,0-1.9,0.4-2.4,1.3c-0.5,0.9-0.8,1.9-0.8,3.2V51.2z"/>
	</g>
	<g>
		<g>
			<g>
				<path style="fill:#330099;" d="M37.3,74.4C17,74.6,0.3,58.3,0,38C-0.3,17.6,16.1,0.9,36.4,0.6C56.8,0.4,73.5,16.7,73.8,37
					C74,57.4,57.7,74.1,37.3,74.4z M36.5,3.4C17.7,3.7,2.6,19.1,2.8,37.9c0.2,18.8,15.7,33.9,34.5,33.6
					c18.8-0.2,33.9-15.7,33.6-34.5C70.7,18.3,55.2,3.2,36.5,3.4z"/>
			</g>
		</g>
		<path style="fill:#330099;" d="M25.9,52.1l11-6.8l11.2,6.6L45,39.5l9.7-8.5l-12.8-1l-5.1-11.7l-4.8,11.8l-12.8,1.3l9.9,8.3
			L25.9,52.1z M37,48.8l-11.4,7.1c-0.4,0.2-0.8,0.3-1.3,0.3c-0.4,0-0.7-0.1-1.2-0.4c-0.3-0.2-0.5-0.5-0.7-0.9
			c-0.2-0.4-0.2-0.7-0.1-1.3l3-13.2L15,31.8c-0.4-0.3-0.6-0.7-0.6-1c0-0.3-0.1-0.8,0.1-1.2c0.1-0.4,0.3-0.7,0.6-1
			c0.3-0.3,0.7-0.4,1.1-0.4l13.3-1.4l5-12.3c0.2-0.4,0.5-0.7,0.8-1s0.7-0.3,1.2-0.3c0.4,0,0.7,0.1,1.2,0.3c0.4,0.2,0.6,0.5,0.9,0.9
			l5.3,12.2l13.5,1c0.4,0,0.8,0.2,1.2,0.4c0.3,0.3,0.5,0.6,0.6,0.9c0.1,0.4,0.1,0.8,0.1,1.2c-0.1,0.4-0.3,0.7-0.6,1.1l-10.2,9.1
			l3.2,13.1c0.1,0.4,0,0.8-0.1,1.3c-0.2,0.4-0.4,0.6-0.7,1c-0.3,0.2-0.7,0.4-1.1,0.4c-0.4,0-0.8-0.1-1.3-0.3L37,48.8z"/>
	</g>
</g>
</svg>
