<?xml version="1.0" encoding="utf-8"?>
<!-- Generator: Adobe Illustrator 18.0.0, SVG Export Plug-In . SVG Version: 6.00 Build 0)  -->
<!DOCTYPE svg PUBLIC "-//W3C//DTD SVG 1.1//EN" "http://www.w3.org/Graphics/SVG/1.1/DTD/svg11.dtd" [
	<!ENTITY ns_extend "http://ns.adobe.com/Extensibility/1.0/">
	<!ENTITY ns_ai "http://ns.adobe.com/AdobeIllustrator/10.0/">
	<!ENTITY ns_graphs "http://ns.adobe.com/Graphs/1.0/">
	<!ENTITY ns_vars "http://ns.adobe.com/Variables/1.0/">
	<!ENTITY ns_imrep "http://ns.adobe.com/ImageReplacement/1.0/">
	<!ENTITY ns_sfw "http://ns.adobe.com/SaveForWeb/1.0/">
	<!ENTITY ns_custom "http://ns.adobe.com/GenericCustomNamespace/1.0/">
	<!ENTITY ns_adobe_xpath "http://ns.adobe.com/XPath/1.0/">
]>
<svg version="1.1" id="Capa_1" xmlns:x="&ns_extend;" xmlns:i="&ns_ai;" xmlns:graph="&ns_graphs;"
	 xmlns="http://www.w3.org/2000/svg" xmlns:xlink="http://www.w3.org/1999/xlink" x="0px" y="0px" viewBox="362.5 403 355 274"
	 enable-background="new 362.5 403 355 274" xml:space="preserve">
<metadata>
	<sfw  xmlns="&ns_sfw;">
		<slices></slices>
		<sliceSourceBounds  width="351.1" height="255" y="403.9" x="362.5" bottomLeftOrigin="true"></sliceSourceBounds>
	</sfw>
</metadata>
<g>
	<g>
		<path fill="#FFFFFF" d="M366.7,421.7h6.6v4.8c0,1-0.1,1.9-0.1,1.9h0.1c1.2-3.9,4.5-7.1,8.7-7.1c0.6,0,1.2,0.1,1.2,0.1v6.8
			c0,0-0.7-0.1-1.6-0.1c-2.9,0-6.2,1.7-7.5,5.8c-0.4,1.4-0.6,2.9-0.6,4.5v10.9h-6.9V421.7z"/>
		<path fill="#FFFFFF" d="M400,421.1c7.9,0,12.2,5.8,12.2,13.1c0,0.8-0.2,2.6-0.2,2.6h-19c0.4,4.8,4.2,7.3,8.3,7.3
			c4.4,0,7.9-3,7.9-3l2.6,4.9c0,0-4.2,3.9-11.1,3.9c-9.1,0-14.8-6.6-14.8-14.4C386,427,391.8,421.1,400,421.1z M405.3,432.1
			c-0.1-3.7-2.4-5.7-5.5-5.7c-3.5,0-5.9,2.2-6.6,5.7H405.3z"/>
		<path fill="#FFFFFF" d="M417.8,421.7h6.6v3.2c0,1-0.1,1.9-0.1,1.9h0.1c1.2-2.3,4.2-5.7,9.8-5.7c6.1,0,9.6,3.2,9.6,10.5v17.7H437
			V433c0-3.3-0.9-5.6-4.4-5.6c-3.7,0-6.4,2.3-7.4,5.6c-0.4,1.1-0.5,2.4-0.5,3.7v12.6h-6.9V421.7z"/>
		<path fill="#FFFFFF" d="M464,421.1c8.4,0,15.2,6,15.2,14.4c0,8.5-6.8,14.4-15.1,14.4c-8.4,0-15.2-5.9-15.2-14.4
			C448.9,427.1,455.6,421.1,464,421.1z M464.1,444.1c4.4,0,8.2-3.5,8.2-8.6c0-5.1-3.7-8.6-8.2-8.6c-4.5,0-8.2,3.5-8.2,8.6
			C455.9,440.6,459.6,444.1,464.1,444.1z"/>
		<path fill="#FFFFFF" d="M480.9,421.7h7.2l5.7,17.1c0.5,1.6,0.9,4.2,1,4.2h0.1c0.1,0,0.4-2.5,1-4.2l5.7-17.1h7.2l-9.9,27.5h-8.1
			L480.9,421.7z"/>
		<path fill="#FFFFFF" d="M526.7,432h0.9v-0.4c0-3.6-2.3-4.9-5.3-4.9c-3.9,0-7.6,2.6-7.6,2.6l-2.6-4.9c0,0,4.3-3.4,10.8-3.4
			c7.2,0,11.4,4,11.4,11v17.2h-6.3V447c0-1.1,0.1-1.9,0.1-1.9h-0.1c0.1,0-2.1,4.9-8.4,4.9c-4.9,0-9.3-3.1-9.3-8.6
			C510.4,432.6,522.2,432,526.7,432z M521.5,444.6c3.6,0,6.2-3.9,6.2-7.2v-0.6h-1.2c-3.5,0-9.2,0.5-9.2,4.3
			C517.3,442.9,518.7,444.6,521.5,444.6z"/>
		<path fill="#FFFFFF" d="M541.6,421.7h6.6v3.2c0,1-0.1,1.9-0.1,1.9h0.1c1.3-2.7,4.6-5.7,9-5.7c4.2,0,6.9,1.9,8,5.7h0.1
			c1.5-3,5.1-5.7,9.4-5.7c5.7,0,9,3.2,9,10.5v17.7h-6.9v-16.4c0-3.1-0.6-5.5-3.8-5.5c-3.5,0-5.8,2.8-6.6,6.3
			c-0.3,1.1-0.3,2.3-0.3,3.6v12.1h-6.9v-16.4c0-3-0.5-5.5-3.7-5.5c-3.6,0-5.9,2.8-6.8,6.3c-0.3,1-0.3,2.3-0.3,3.5v12.1h-6.9V421.7z"
			/>
		<path fill="#FFFFFF" d="M603.9,421.1c8.4,0,15.2,6,15.2,14.4c0,8.5-6.8,14.4-15.1,14.4c-8.4,0-15.2-5.9-15.2-14.4
			C588.8,427.1,595.6,421.1,603.9,421.1z M604,444.1c4.4,0,8.2-3.5,8.2-8.6c0-5.1-3.7-8.6-8.2-8.6c-4.5,0-8.2,3.5-8.2,8.6
			C595.8,440.6,599.5,444.1,604,444.1z"/>
		<path fill="#FFFFFF" d="M625.4,441.1c0,0,3,3,7.5,3c1.9,0,3.6-0.9,3.6-2.5c0-4.1-13.4-3.6-13.4-12.4c0-5.1,4.6-8.1,10.5-8.1
			c6.2,0,9.2,3.1,9.2,3.1l-2.5,5.1c0,0-2.5-2.4-6.8-2.4c-1.8,0-3.5,0.8-3.5,2.5c0,3.9,13.4,3.4,13.4,12.3c0,4.6-4,8.3-10.5,8.3
			c-6.9,0-10.7-4.1-10.7-4.1L625.4,441.1z"/>
		<path fill="#FFFFFF" d="M366.3,464.9h6.8v28.7c0,3,1,3.8,2.8,3.8c0.5,0,1-0.1,1-0.1v6c0,0-1,0.2-2.2,0.2c-3.8,0-8.5-1-8.5-8.9
			V464.9z"/>
		<path fill="#FFFFFF" d="M396,486h0.9v-0.4c0-3.6-2.3-4.9-5.3-4.9c-3.9,0-7.6,2.6-7.6,2.6l-2.6-4.9c0,0,4.3-3.4,10.8-3.4
			c7.2,0,11.4,4,11.4,11v17.2h-6.3V501c0-1.1,0.1-1.9,0.1-1.9h-0.1c0.1,0-2.1,4.9-8.4,4.9c-4.9,0-9.3-3.1-9.3-8.6
			C379.7,486.6,391.6,486,396,486z M390.8,498.6c3.6,0,6.2-3.9,6.2-7.2v-0.6h-1.2c-3.5,0-9.2,0.5-9.2,4.3
			C386.6,496.9,388,498.6,390.8,498.6z"/>
		<path fill="#FFFFFF" d="M424,475.7h6.3v2c0,1-0.1,1.9-0.1,1.9h0.1c0,0,2.4-4.5,8.9-4.5c7.5,0,12.2,5.9,12.2,14.4
			c0,8.7-5.3,14.4-12.6,14.4c-5.5,0-7.9-3.8-7.9-3.8h-0.1c0,0,0.1,1,0.1,2.4v11.6H424V475.7z M437.5,498.1c3.8,0,6.9-3.1,6.9-8.5
			c0-5.2-2.8-8.6-6.9-8.6c-3.6,0-6.9,2.6-6.9,8.7C430.6,493.9,433,498.1,437.5,498.1z"/>
		<path fill="#FFFFFF" d="M456.6,464.9h6.8v28.7c0,3,1,3.8,2.8,3.8c0.5,0,1-0.1,1-0.1v6c0,0-1,0.2-2.2,0.2c-3.8,0-8.5-1-8.5-8.9
			V464.9z"/>
		<path fill="#FFFFFF" d="M486.3,486h0.9v-0.4c0-3.6-2.3-4.9-5.3-4.9c-3.9,0-7.6,2.6-7.6,2.6l-2.6-4.9c0,0,4.3-3.4,10.8-3.4
			c7.2,0,11.4,4,11.4,11v17.2h-6.3V501c0-1.1,0.1-1.9,0.1-1.9h-0.1c0.1,0-2.1,4.9-8.4,4.9c-4.9,0-9.3-3.1-9.3-8.6
			C470,486.6,481.8,486,486.3,486z M481.1,498.6c3.6,0,6.2-3.9,6.2-7.2v-0.6h-1.2c-3.5,0-9.2,0.5-9.2,4.3
			C476.9,496.9,478.3,498.6,481.1,498.6z"/>
		<path fill="#FFFFFF" d="M502.2,481.6h-3.6v-5.5h3.7v-7.9h6.7v7.9h6.3v5.5h-6.3v10.7c0,4.5,3.6,5.2,5.5,5.2c0.8,0,1.2-0.1,1.2-0.1
			v6c0,0-0.8,0.2-2.1,0.2c-3.8,0-11.4-1.1-11.4-10.4V481.6z"/>
		<path fill="#FFFFFF" d="M535.4,486h0.9v-0.4c0-3.6-2.3-4.9-5.3-4.9c-3.9,0-7.6,2.6-7.6,2.6l-2.6-4.9c0,0,4.3-3.4,10.8-3.4
			c7.2,0,11.4,4,11.4,11v17.2h-6.3V501c0-1.1,0.1-1.9,0.1-1.9h-0.1c0.1,0-2.1,4.9-8.4,4.9c-4.9,0-9.3-3.1-9.3-8.6
			C519,486.6,530.9,486,535.4,486z M530.1,498.6c3.6,0,6.2-3.9,6.2-7.2v-0.6h-1.2c-3.5,0-9.2,0.5-9.2,4.3
			C526,496.9,527.3,498.6,530.1,498.6z"/>
		<path fill="#FFFFFF" d="M551.4,481.6H548v-5.5h3.4v-1.2c0-9,7.4-10.2,11.2-10.2c1.4,0,2.3,0.2,2.3,0.2v5.8c0,0-0.6-0.1-1.4-0.1
			c-1.9,0-5.3,0.5-5.3,4.5v1.1h5.9v5.5h-5.9v21.7h-6.9V481.6z"/>
		<path fill="#FFFFFF" d="M581.8,475.1c8.4,0,15.2,6,15.2,14.4c0,8.5-6.8,14.4-15.1,14.4c-8.4,0-15.2-5.9-15.2-14.4
			C566.7,481.1,573.5,475.1,581.8,475.1z M581.9,498.1c4.4,0,8.2-3.5,8.2-8.6c0-5.1-3.7-8.6-8.2-8.6c-4.5,0-8.2,3.5-8.2,8.6
			C573.7,494.6,577.4,498.1,581.9,498.1z"/>
		<path fill="#FFFFFF" d="M602.5,475.7h6.6v4.8c0,1-0.1,1.9-0.1,1.9h0.1c1.2-3.9,4.5-7.1,8.7-7.1c0.6,0,1.2,0.1,1.2,0.1v6.8
			c0,0-0.7-0.1-1.6-0.1c-2.9,0-6.2,1.7-7.5,5.8c-0.4,1.4-0.6,2.9-0.6,4.5v10.9h-6.9V475.7z"/>
		<path fill="#FFFFFF" d="M623.8,475.7h6.6v3.2c0,1-0.1,1.9-0.1,1.9h0.1c1.3-2.7,4.6-5.7,9-5.7c4.2,0,6.9,1.9,8,5.7h0.1
			c1.5-3,5.1-5.7,9.4-5.7c5.7,0,9,3.2,9,10.5v17.7H659v-16.4c0-3.1-0.6-5.5-3.8-5.5c-3.5,0-5.8,2.8-6.6,6.3
			c-0.3,1.1-0.3,2.3-0.3,3.6v12.1h-6.9v-16.4c0-3-0.5-5.5-3.7-5.5c-3.6,0-5.9,2.8-6.8,6.3c-0.3,1-0.3,2.3-0.3,3.5v12.1h-6.9V475.7z"
			/>
		<path fill="#FFFFFF" d="M687,486h0.9v-0.4c0-3.6-2.3-4.9-5.3-4.9c-3.9,0-7.6,2.6-7.6,2.6l-2.6-4.9c0,0,4.3-3.4,10.8-3.4
			c7.2,0,11.4,4,11.4,11v17.2h-6.3V501c0-1.1,0.1-1.9,0.1-1.9h-0.1c0.1,0-2.1,4.9-8.4,4.9c-4.9,0-9.3-3.1-9.3-8.6
			C670.7,486.6,682.6,486,687,486z M681.8,498.6c3.6,0,6.2-3.9,6.2-7.2v-0.6h-1.2c-3.5,0-9.2,0.5-9.2,4.3
			C677.6,496.9,679,498.6,681.8,498.6z"/>
		<path fill="#FFFFFF" d="M366.7,529.7h6.6v3.2c0,1-0.1,1.9-0.1,1.9h0.1c1.2-2.3,4.2-5.7,9.8-5.7c6.1,0,9.6,3.2,9.6,10.5v17.7h-6.8
			V541c0-3.3-0.9-5.6-4.4-5.6c-3.7,0-6.4,2.3-7.4,5.6c-0.4,1.1-0.5,2.4-0.5,3.7v12.6h-6.9V529.7z"/>
		<path fill="#FFFFFF" d="M399.4,529.7h6.9V546c0,3.3,0.9,5.6,4.3,5.6c5,0,7.7-4.4,7.7-9.3v-12.6h6.9v27.5h-6.6v-3.1
			c0-1.1,0.1-1.9,0.1-1.9h-0.1c-1.4,2.9-4.9,5.7-9.6,5.7c-5.9,0-9.6-3-9.6-10.5V529.7z"/>
		<path fill="#FFFFFF" d="M444.7,529.1c7.9,0,12.2,5.8,12.2,13.1c0,0.8-0.2,2.6-0.2,2.6h-19c0.4,4.8,4.2,7.3,8.3,7.3
			c4.4,0,7.9-3,7.9-3l2.6,4.9c0,0-4.2,3.9-11.1,3.9c-9.1,0-14.8-6.6-14.8-14.4C430.8,535,436.5,529.1,444.7,529.1z M450,540.1
			c-0.1-3.7-2.4-5.7-5.5-5.7c-3.5,0-5.9,2.2-6.6,5.7H450z"/>
		<path fill="#FFFFFF" d="M458.8,529.7h7.2l5.7,17.1c0.5,1.6,0.9,4.2,1,4.2h0.1c0.1,0,0.4-2.5,1-4.2l5.7-17.1h7.2l-9.9,27.5h-8.1
			L458.8,529.7z"/>
		<path fill="#FFFFFF" d="M504.6,540h0.9v-0.4c0-3.6-2.3-4.9-5.3-4.9c-3.9,0-7.6,2.6-7.6,2.6l-2.6-4.9c0,0,4.3-3.4,10.8-3.4
			c7.2,0,11.4,4,11.4,11v17.2H506V555c0-1.1,0.1-1.9,0.1-1.9H506c0.1,0-2.1,4.9-8.4,4.9c-4.9,0-9.3-3.1-9.3-8.6
			C488.3,540.6,500.1,540,504.6,540z M499.4,552.6c3.6,0,6.2-3.9,6.2-7.2v-0.6h-1.2c-3.5,0-9.2,0.5-9.2,4.3
			C495.2,550.9,496.6,552.6,499.4,552.6z"/>
		<path fill="#FFFFFF" d="M532.6,518.9h6.8v6.1h-6.8V518.9z M532.6,529.7h6.9v27.5h-6.9V529.7z"/>
		<path fill="#FFFFFF" d="M547,529.7h6.6v3.2c0,1-0.1,1.9-0.1,1.9h0.1c1.3-2.7,4.6-5.7,9-5.7c4.2,0,6.9,1.9,8,5.7h0.1
			c1.5-3,5.1-5.7,9.4-5.7c5.7,0,9,3.2,9,10.5v17.7h-6.9v-16.4c0-3.1-0.6-5.5-3.8-5.5c-3.5,0-5.8,2.8-6.6,6.3
			c-0.3,1.1-0.3,2.3-0.3,3.6v12.1h-6.9v-16.4c0-3-0.5-5.5-3.7-5.5c-3.6,0-5.9,2.8-6.8,6.3c-0.3,1-0.3,2.3-0.3,3.5v12.1H547V529.7z"
			/>
		<path fill="#FFFFFF" d="M610.3,540h0.9v-0.4c0-3.6-2.3-4.9-5.3-4.9c-3.9,0-7.6,2.6-7.6,2.6l-2.6-4.9c0,0,4.3-3.4,10.8-3.4
			c7.2,0,11.4,4,11.4,11v17.2h-6.3V555c0-1.1,0.1-1.9,0.1-1.9h-0.1c0.1,0-2.1,4.9-8.4,4.9c-4.9,0-9.3-3.1-9.3-8.6
			C594,540.6,605.8,540,610.3,540z M605.1,552.6c3.6,0,6.2-3.9,6.2-7.2v-0.6h-1.2c-3.5,0-9.2,0.5-9.2,4.3
			C600.9,550.9,602.3,552.6,605.1,552.6z"/>
		<path fill="#FFFFFF" d="M635.6,562.8c4.2,0,7.8-1.8,7.8-6.7v-1.6c0-0.6,0.1-1.5,0.1-1.5h-0.1c-1.6,2.4-4,3.7-7.7,3.7
			c-7.9,0-12.4-6.4-12.4-13.9c0-7.6,4.3-13.7,12.2-13.7c6,0,8.2,3.5,8.2,3.5h0.2c0,0-0.1-0.3-0.1-0.8v-2.1h6.4v25.9
			c0,9.5-7.3,13-14.5,13c-3.5,0-7.1-1-9.8-2.4l2.1-5.2C628,561,631.4,562.8,635.6,562.8z M643.5,542.9c0-6.3-3.1-7.9-6.8-7.9
			c-4.2,0-6.5,3-6.5,7.7c0,4.8,2.5,8.4,6.9,8.4C640.4,551,643.5,549.1,643.5,542.9z"/>
		<path fill="#FFFFFF" d="M669.8,529.1c7.9,0,12.2,5.8,12.2,13.1c0,0.8-0.2,2.6-0.2,2.6h-19c0.4,4.8,4.2,7.3,8.3,7.3
			c4.4,0,7.9-3,7.9-3l2.6,4.9c0,0-4.2,3.9-11.1,3.9c-9.1,0-14.8-6.6-14.8-14.4C655.8,535,661.6,529.1,669.8,529.1z M675.1,540.1
			c-0.1-3.7-2.4-5.7-5.5-5.7c-3.5,0-5.9,2.2-6.6,5.7H675.1z"/>
		<path fill="#FFFFFF" d="M687.7,529.7h6.6v3.2c0,1-0.1,1.9-0.1,1.9h0.1c1.2-2.3,4.2-5.7,9.8-5.7c6.1,0,9.6,3.2,9.6,10.5v17.7h-6.8
			V541c0-3.3-0.9-5.6-4.4-5.6c-3.7,0-6.4,2.3-7.4,5.6c-0.4,1.1-0.5,2.4-0.5,3.7v12.6h-6.9V529.7z"/>
		<path fill="#FFFFFF" d="M365.3,615.7c0,0,1.5,1.1,3.1,1.1c1.9,0,3.7-1.1,4.8-3.6l1-2.4l-11.6-27.1h7.7l5.8,15.9
			c0.5,1.5,1,3.7,1,3.7h0.1c0,0,0.4-2.2,0.9-3.6l5.4-16h7.5l-12.3,31.7c-1.9,5-5.8,7.2-9.9,7.2c-3.3,0-5.7-1.8-5.7-1.8L365.3,615.7z
			"/>
		<path fill="#FFFFFF" d="M409.4,589.6H406v-5.5h3.4v-1.2c0-9,7.4-10.2,11.2-10.2c1.4,0,2.3,0.2,2.3,0.2v5.8c0,0-0.6-0.1-1.4-0.1
			c-1.9,0-5.3,0.5-5.3,4.5v1.1h5.9v5.5h-5.9v21.7h-6.9V589.6z"/>
		<path fill="#FFFFFF" d="M426.3,583.7h6.9V600c0,3.3,0.9,5.6,4.3,5.6c5,0,7.7-4.4,7.7-9.3v-12.6h6.9v27.5h-6.6v-3.1
			c0-1.1,0.1-1.9,0.1-1.9h-0.1c-1.4,2.9-4.9,5.7-9.6,5.7c-5.9,0-9.6-3-9.6-10.5V583.7z"/>
		<path fill="#FFFFFF" d="M459.6,583.7h6.6v3.2c0,1-0.1,1.9-0.1,1.9h0.1c1.2-2.3,4.2-5.7,9.8-5.7c6.1,0,9.6,3.2,9.6,10.5v17.7h-6.8
			V595c0-3.3-0.9-5.6-4.4-5.6c-3.7,0-6.4,2.3-7.4,5.6c-0.4,1.1-0.5,2.4-0.5,3.7v12.6h-6.9V583.7z"/>
		<path fill="#FFFFFF" d="M505.7,583.1c7.2,0,10.6,4.1,10.6,4.1l-3,4.7c0,0-2.9-3-7.2-3c-5.1,0-8.4,3.8-8.4,8.5
			c0,4.6,3.3,8.6,8.6,8.6c4.6,0,8.1-3.5,8.1-3.5l2.6,4.9c0,0-3.9,4.5-11.3,4.5c-9.1,0-15-6.4-15-14.4
			C490.7,589.7,496.5,583.1,505.7,583.1z"/>
		<path fill="#FFFFFF" d="M522.1,572.9h6.8v6.1h-6.8V572.9z M522.1,583.7h6.9v27.5h-6.9V583.7z"/>
		<path fill="#FFFFFF" d="M549.6,583.1c8.4,0,15.2,6,15.2,14.4c0,8.5-6.8,14.4-15.1,14.4c-8.4,0-15.2-5.9-15.2-14.4
			C534.5,589.1,541.2,583.1,549.6,583.1z M549.7,606.1c4.4,0,8.2-3.5,8.2-8.6c0-5.1-3.7-8.6-8.2-8.6c-4.5,0-8.2,3.5-8.2,8.6
			C541.5,602.6,545.2,606.1,549.7,606.1z"/>
		<path fill="#FFFFFF" d="M570.3,583.7h6.6v3.2c0,1-0.1,1.9-0.1,1.9h0.1c1.2-2.3,4.2-5.7,9.8-5.7c6.1,0,9.6,3.2,9.6,10.5v17.7h-6.8
			V595c0-3.3-0.9-5.6-4.4-5.6c-3.7,0-6.4,2.3-7.4,5.6c-0.4,1.1-0.5,2.4-0.5,3.7v12.6h-6.9V583.7z"/>
		<path fill="#FFFFFF" d="M615.4,583.1c7.9,0,12.2,5.8,12.2,13.1c0,0.8-0.2,2.6-0.2,2.6h-19c0.4,4.8,4.2,7.3,8.3,7.3
			c4.4,0,7.9-3,7.9-3l2.6,4.9c0,0-4.2,3.9-11.1,3.9c-9.1,0-14.8-6.6-14.8-14.4C601.4,589,607.2,583.1,615.4,583.1z M620.7,594.1
			c-0.1-3.7-2.4-5.7-5.5-5.7c-3.5,0-5.9,2.2-6.6,5.7H620.7z"/>
		<path fill="#FFFFFF" d="M634.1,603.1c0,0,3,3,7.5,3c1.9,0,3.6-0.9,3.6-2.5c0-4.1-13.4-3.6-13.4-12.4c0-5.1,4.6-8.1,10.5-8.1
			c6.2,0,9.2,3.1,9.2,3.1l-2.5,5.1c0,0-2.5-2.4-6.8-2.4c-1.8,0-3.5,0.8-3.5,2.5c0,3.9,13.4,3.4,13.4,12.3c0,4.6-4,8.3-10.5,8.3
			c-6.9,0-10.7-4.1-10.7-4.1L634.1,603.1z"/>
		<path fill="#FFFFFF" d="M379.8,637.1c8.4,0,15.2,6,15.2,14.4c0,8.5-6.8,14.4-15.1,14.4c-8.4,0-15.2-5.9-15.2-14.4
			C364.7,643.1,371.4,637.1,379.8,637.1z M379.8,660.1c4.4,0,8.2-3.5,8.2-8.6c0-5.1-3.7-8.6-8.2-8.6c-4.5,0-8.2,3.5-8.2,8.6
			C371.6,656.6,375.4,660.1,379.8,660.1z"/>
		<path fill="#FFFFFF" d="M400.5,637.7h6.3v2c0,1-0.1,1.9-0.1,1.9h0.1c0,0,2.4-4.5,8.9-4.5c7.5,0,12.2,5.9,12.2,14.4
			c0,8.7-5.3,14.4-12.6,14.4c-5.5,0-7.9-3.8-7.9-3.8h-0.1c0,0,0.1,1,0.1,2.4v11.6h-6.9V637.7z M414,660.1c3.8,0,6.9-3.1,6.9-8.5
			c0-5.2-2.8-8.6-6.9-8.6c-3.6,0-6.9,2.6-6.9,8.7C407.1,655.9,409.4,660.1,414,660.1z"/>
		<path fill="#FFFFFF" d="M434.6,643.6h-3.6v-5.5h3.7v-7.9h6.7v7.9h6.3v5.5h-6.3v10.7c0,4.5,3.6,5.2,5.5,5.2c0.8,0,1.2-0.1,1.2-0.1
			v6c0,0-0.8,0.2-2.1,0.2c-3.8,0-11.4-1.1-11.4-10.4V643.6z"/>
		<path fill="#FFFFFF" d="M453.8,626.9h6.8v6.1h-6.8V626.9z M453.8,637.7h6.9v27.5h-6.9V637.7z"/>
		<path fill="#FFFFFF" d="M468.2,637.7h6.6v3.2c0,1-0.1,1.9-0.1,1.9h0.1c1.4-2.7,4.6-5.7,9-5.7c4.2,0,6.9,1.9,8,5.7h0.1
			c1.5-3,5.1-5.7,9.4-5.7c5.7,0,9,3.2,9,10.5v17.7h-6.9v-16.4c0-3.1-0.6-5.5-3.8-5.5c-3.5,0-5.8,2.8-6.6,6.3
			c-0.3,1.1-0.3,2.3-0.3,3.6v12.1h-6.9v-16.4c0-3-0.5-5.5-3.7-5.5c-3.6,0-5.9,2.8-6.8,6.3c-0.3,1-0.3,2.3-0.3,3.5v12.1h-6.9V637.7z"
			/>
		<path fill="#FFFFFF" d="M517.5,626.9h6.8v6.1h-6.8V626.9z M517.5,637.7h6.9v27.5h-6.9V637.7z"/>
		<path fill="#FFFFFF" d="M530.1,661.6l12.4-15.5c1.2-1.6,2.3-2.5,2.3-2.5v-0.1c0,0-0.8,0.1-2.5,0.1h-11.6v-5.8H554v3.7L541.7,657
			c-1.2,1.6-2.4,2.5-2.4,2.5v0.1c0,0,0.8-0.2,2.6-0.2h12.5v5.8h-24.4V661.6z"/>
		<path fill="#FFFFFF" d="M574.2,648h0.9v-0.4c0-3.6-2.3-4.9-5.3-4.9c-3.9,0-7.6,2.6-7.6,2.6l-2.6-4.9c0,0,4.3-3.4,10.8-3.4
			c7.2,0,11.4,4,11.4,11v17.2h-6.3V663c0-1.1,0.1-1.9,0.1-1.9h-0.1c0.1,0-2.1,4.9-8.4,4.9c-4.9,0-9.3-3.1-9.3-8.6
			C557.9,648.6,569.8,648,574.2,648z M569,660.6c3.6,0,6.2-3.9,6.2-7.2v-0.6H574c-3.5,0-9.2,0.5-9.2,4.3
			C564.8,658.9,566.2,660.6,569,660.6z"/>
		<path fill="#FFFFFF" d="M599.7,637.1c6,0,7.9,3.5,7.9,3.5h0.1c0,0-0.1-0.7-0.1-1.6v-12.1h6.9v38.3H608V663c0-1,0.1-1.8,0.1-1.8
			H608c0,0-2.3,4.7-8.6,4.7c-7.5,0-12.2-5.9-12.2-14.4C587.2,642.8,592.4,637.1,599.7,637.1z M601,660.1c3.6,0,6.9-2.6,6.9-8.7
			c0-4.3-2.3-8.5-6.9-8.5c-3.8,0-6.9,3.1-6.9,8.5C594.1,656.7,596.9,660.1,601,660.1z"/>
		<path fill="#FFFFFF" d="M636.1,648h0.9v-0.4c0-3.6-2.3-4.9-5.3-4.9c-3.9,0-7.6,2.6-7.6,2.6l-2.6-4.9c0,0,4.3-3.4,10.8-3.4
			c7.2,0,11.4,4,11.4,11v17.2h-6.3V663c0-1.1,0.1-1.9,0.1-1.9h-0.1c0.1,0-2.1,4.9-8.4,4.9c-4.9,0-9.3-3.1-9.3-8.6
			C619.8,648.6,631.6,648,636.1,648z M630.8,660.6c3.6,0,6.2-3.9,6.2-7.2v-0.6h-1.2c-3.5,0-9.2,0.5-9.2,4.3
			C626.7,658.9,628,660.6,630.8,660.6z"/>
		<path fill="#FFFFFF" d="M651.7,657.1c0,0,3,3,7.5,3c1.9,0,3.6-0.9,3.6-2.5c0-4.1-13.4-3.6-13.4-12.4c0-5.1,4.6-8.1,10.5-8.1
			c6.2,0,9.2,3.1,9.2,3.1l-2.5,5.1c0,0-2.5-2.4-6.8-2.4c-1.8,0-3.5,0.8-3.5,2.5c0,3.9,13.4,3.4,13.4,12.3c0,4.6-4,8.3-10.5,8.3
			c-6.9,0-10.7-4.1-10.7-4.1L651.7,657.1z"/>
	</g>
</g>
</svg>
