<?xml version="1.0" encoding="utf-8"?>
<!-- Generator: Adobe Illustrator 18.0.0, SVG Export Plug-In . SVG Version: 6.00 Build 0)  -->
<!DOCTYPE svg PUBLIC "-//W3C//DTD SVG 1.1//EN" "http://www.w3.org/Graphics/SVG/1.1/DTD/svg11.dtd" [
	<!ENTITY ns_extend "http://ns.adobe.com/Extensibility/1.0/">
	<!ENTITY ns_ai "http://ns.adobe.com/AdobeIllustrator/10.0/">
	<!ENTITY ns_graphs "http://ns.adobe.com/Graphs/1.0/">
	<!ENTITY ns_vars "http://ns.adobe.com/Variables/1.0/">
	<!ENTITY ns_imrep "http://ns.adobe.com/ImageReplacement/1.0/">
	<!ENTITY ns_sfw "http://ns.adobe.com/SaveForWeb/1.0/">
	<!ENTITY ns_custom "http://ns.adobe.com/GenericCustomNamespace/1.0/">
	<!ENTITY ns_adobe_xpath "http://ns.adobe.com/XPath/1.0/">
]>
<svg version="1.1" id="Capa_1" xmlns:x="&ns_extend;" xmlns:i="&ns_ai;" xmlns:graph="&ns_graphs;"
	 xmlns="http://www.w3.org/2000/svg" xmlns:xlink="http://www.w3.org/1999/xlink" x="0px" y="0px" viewBox="0 0 36 36"
	 enable-background="new 0 0 36 36" xml:space="preserve">
<metadata>
	<sfw  xmlns="&ns_sfw;">
		<slices></slices>
		<sliceSourceBounds  width="797.3" height="39" y="-39" x="-4.3" bottomLeftOrigin="true"></sliceSourceBounds>
	</sfw>
</metadata>
<circle fill="#00CC66" cx="17.7" cy="18" r="17.5"/>
<g>
	<g>
		<path fill="#330099" d="M18.2,12.6l1.3,1.3l-8.6,8.6v2.6h2.6l8.7-8.7l1.3,1.3l-8.6,8.7c-0.2,0.2-0.4,0.3-0.6,0.4
			c-0.2,0.1-0.5,0.2-0.7,0.2H10c-0.3,0-0.5-0.1-0.7-0.3c-0.2-0.2-0.3-0.4-0.3-0.7v-3.5c0-0.2,0.1-0.5,0.2-0.7
			c0.1-0.2,0.2-0.4,0.4-0.6L18.2,12.6z"/>
		<path fill="#330099" d="M23.4,17.7l-5.2-5.1l3-3c0.3-0.3,0.8-0.5,1.3-0.5c0.5,0,0.9,0.2,1.3,0.5l2.5,2.6c0.3,0.4,0.5,0.8,0.5,1.3
			c0,0.5-0.2,0.9-0.5,1.3L23.4,17.7z"/>
	</g>
	<path fill="#330099" d="M18,35.8c-9.8,0-17.8-8-17.8-17.8S8.2,0.2,18,0.2s17.8,8,17.8,17.8S27.8,35.8,18,35.8z M18,2.2
		C9.3,2.2,2.2,9.3,2.2,18S9.3,33.8,18,33.8S33.8,26.7,33.8,18S26.7,2.2,18,2.2z"/>
</g>
</svg>
