<?xml version="1.0" encoding="utf-8"?>
<!-- Generator: Adobe Illustrator 18.0.0, SVG Export Plug-In . SVG Version: 6.00 Build 0)  -->
<!DOCTYPE svg PUBLIC "-//W3C//DTD SVG 1.1//EN" "http://www.w3.org/Graphics/SVG/1.1/DTD/svg11.dtd" [
	<!ENTITY ns_extend "http://ns.adobe.com/Extensibility/1.0/">
	<!ENTITY ns_ai "http://ns.adobe.com/AdobeIllustrator/10.0/">
	<!ENTITY ns_graphs "http://ns.adobe.com/Graphs/1.0/">
	<!ENTITY ns_vars "http://ns.adobe.com/Variables/1.0/">
	<!ENTITY ns_imrep "http://ns.adobe.com/ImageReplacement/1.0/">
	<!ENTITY ns_sfw "http://ns.adobe.com/SaveForWeb/1.0/">
	<!ENTITY ns_custom "http://ns.adobe.com/GenericCustomNamespace/1.0/">
	<!ENTITY ns_adobe_xpath "http://ns.adobe.com/XPath/1.0/">
]>
<svg version="1.1" id="Capa_1" xmlns:x="&ns_extend;" xmlns:i="&ns_ai;" xmlns:graph="&ns_graphs;"
	 xmlns="http://www.w3.org/2000/svg" xmlns:xlink="http://www.w3.org/1999/xlink" x="0px" y="0px" viewBox="0 0 39 39"
	 enable-background="new 0 0 39 39" xml:space="preserve">
<metadata>
	<sfw  xmlns="&ns_sfw;">
		<slices></slices>
		<sliceSourceBounds  width="797.3" height="39" y="-39" x="-4.3" bottomLeftOrigin="true"></sliceSourceBounds>
	</sfw>
</metadata>
<rect opacity="0.5" fill="#CCCCFF" width="39" height="39"/>
<path fill="#330099" d="M19.5,30.6c-0.1,0-0.2,0-0.3-0.1c-0.1,0-0.2-0.1-0.3-0.2c-2.8-2.5-4.9-4.7-6.3-6.8s-2.1-4.1-2.1-5.9
	c0-2.8,0.9-5.1,2.7-6.7s3.9-2.5,6.3-2.5s4.5,0.8,6.3,2.5c1.8,1.7,2.7,3.9,2.7,6.7c0,1.8-0.7,3.8-2.1,5.9c-1.4,2.1-3.5,4.4-6.3,6.8
	c-0.1,0.1-0.2,0.1-0.3,0.2C19.7,30.6,19.6,30.6,19.5,30.6z M19.5,28.7c2.5-2.3,4.3-4.3,5.5-6.2c1.2-1.8,1.8-3.5,1.8-4.9
	c0-2.2-0.7-4-2.1-5.4c-1.4-1.4-3.1-2.1-5.2-2.1s-3.8,0.7-5.2,2.1c-1.4,1.4-2.1,3.2-2.1,5.4c0,1.4,0.6,3,1.8,4.9
	C15.2,24.4,17.1,26.4,19.5,28.7z M19.5,24c0.3,0,0.5-0.1,0.7-0.3c0.2-0.2,0.3-0.5,0.3-0.7c0-0.3-0.1-0.5-0.3-0.7
	c-0.2-0.2-0.4-0.3-0.7-0.3c-0.3,0-0.5,0.1-0.7,0.3c-0.2,0.2-0.3,0.4-0.3,0.7c0,0.3,0.1,0.5,0.3,0.7C19,23.9,19.2,24,19.5,24z
	 M19.5,20.5c0.2,0,0.4-0.1,0.5-0.2c0.1-0.1,0.2-0.3,0.2-0.5c0-0.1,0-0.2,0.1-0.3c0-0.1,0-0.2,0.1-0.3c0.1-0.2,0.2-0.3,0.3-0.4
	s0.4-0.4,0.7-0.7c0.4-0.4,0.7-0.7,0.9-1.1s0.3-0.8,0.3-1.3c0-0.8-0.3-1.5-0.8-2c-0.5-0.5-1.3-0.7-2.2-0.7c-0.6,0-1.1,0.1-1.6,0.4
	c-0.5,0.3-0.9,0.6-1.2,1.1c-0.1,0.2-0.1,0.3,0,0.5c0.1,0.2,0.2,0.3,0.4,0.4c0.2,0.1,0.3,0.1,0.5,0c0.2-0.1,0.3-0.2,0.4-0.3
	c0.2-0.2,0.4-0.4,0.7-0.5s0.6-0.2,0.9-0.2c0.5,0,0.9,0.1,1.2,0.4c0.3,0.3,0.4,0.6,0.4,1c0,0.3-0.1,0.6-0.2,0.8
	c-0.1,0.2-0.4,0.5-0.8,0.9c-0.3,0.3-0.6,0.5-0.7,0.7s-0.3,0.4-0.4,0.6c0,0.1-0.1,0.2-0.1,0.4c0,0.1-0.1,0.3-0.1,0.6
	c0,0.2,0,0.4,0.2,0.5C19.1,20.5,19.3,20.5,19.5,20.5z"/>
</svg>
