<?xml version="1.0" encoding="utf-8"?>
<!-- Generator: Adobe Illustrator 18.0.0, SVG Export Plug-In . SVG Version: 6.00 Build 0)  -->
<!DOCTYPE svg PUBLIC "-//W3C//DTD SVG 1.1//EN" "http://www.w3.org/Graphics/SVG/1.1/DTD/svg11.dtd" [
	<!ENTITY ns_extend "http://ns.adobe.com/Extensibility/1.0/">
	<!ENTITY ns_ai "http://ns.adobe.com/AdobeIllustrator/10.0/">
	<!ENTITY ns_graphs "http://ns.adobe.com/Graphs/1.0/">
	<!ENTITY ns_vars "http://ns.adobe.com/Variables/1.0/">
	<!ENTITY ns_imrep "http://ns.adobe.com/ImageReplacement/1.0/">
	<!ENTITY ns_sfw "http://ns.adobe.com/SaveForWeb/1.0/">
	<!ENTITY ns_custom "http://ns.adobe.com/GenericCustomNamespace/1.0/">
	<!ENTITY ns_adobe_xpath "http://ns.adobe.com/XPath/1.0/">
]>
<svg version="1.1" id="Capa_1" xmlns:x="&ns_extend;" xmlns:i="&ns_ai;" xmlns:graph="&ns_graphs;"
	 xmlns="http://www.w3.org/2000/svg" xmlns:xlink="http://www.w3.org/1999/xlink" x="0px" y="0px" viewBox="0 0 39 39"
	 enable-background="new 0 0 39 39" xml:space="preserve">
<metadata>
	<sfw  xmlns="&ns_sfw;">
		<slices></slices>
		<sliceSourceBounds  width="797.3" height="39" y="-39" x="-4.3" bottomLeftOrigin="true"></sliceSourceBounds>
	</sfw>
</metadata>
<rect opacity="0.5" fill="#CCCCFF" width="39" height="39"/>
<g>
	<path fill="#330099" d="M19.5,32.3c-0.1,0-0.3,0-0.4-0.1c-0.1,0-0.2-0.1-0.4-0.2c-3.2-2.8-5.7-5.5-7.3-7.9s-2.4-4.7-2.4-6.8
		c0-3.3,1-5.8,3.1-7.8s4.5-2.9,7.3-2.9s5.2,1,7.3,2.9s3.1,4.5,3.1,7.8c0,2.1-0.8,4.4-2.4,6.8s-4,5.1-7.3,7.9
		c-0.1,0.1-0.2,0.2-0.3,0.2C19.8,32.3,19.7,32.3,19.5,32.3z M19.5,30.1c2.9-2.6,5-5,6.4-7.1c1.4-2.1,2.1-4,2.1-5.6
		c0-2.6-0.8-4.7-2.5-6.3s-3.6-2.4-6-2.4s-4.4,0.8-6,2.4S11,14.8,11,17.4c0,1.6,0.7,3.5,2.1,5.6C14.6,25.1,16.7,27.5,19.5,30.1z"/>
	<circle fill="#330099" cx="19.5" cy="16.3" r="3.2"/>
</g>
</svg>
