<?xml version="1.0" encoding="utf-8"?>
<!-- Generator: Adobe Illustrator 18.0.0, SVG Export Plug-In . SVG Version: 6.00 Build 0)  -->
<!DOCTYPE svg PUBLIC "-//W3C//DTD SVG 1.1//EN" "http://www.w3.org/Graphics/SVG/1.1/DTD/svg11.dtd" [
	<!ENTITY ns_extend "http://ns.adobe.com/Extensibility/1.0/">
	<!ENTITY ns_ai "http://ns.adobe.com/AdobeIllustrator/10.0/">
	<!ENTITY ns_graphs "http://ns.adobe.com/Graphs/1.0/">
	<!ENTITY ns_vars "http://ns.adobe.com/Variables/1.0/">
	<!ENTITY ns_imrep "http://ns.adobe.com/ImageReplacement/1.0/">
	<!ENTITY ns_sfw "http://ns.adobe.com/SaveForWeb/1.0/">
	<!ENTITY ns_custom "http://ns.adobe.com/GenericCustomNamespace/1.0/">
	<!ENTITY ns_adobe_xpath "http://ns.adobe.com/XPath/1.0/">
]>
<svg version="1.1" id="Capa_1" xmlns:x="&ns_extend;" xmlns:i="&ns_ai;" xmlns:graph="&ns_graphs;"
	 xmlns="http://www.w3.org/2000/svg" xmlns:xlink="http://www.w3.org/1999/xlink" x="0px" y="0px" viewBox="0 0 1050 93"
	 style="enable-background:new 0 0 1050 93;" xml:space="preserve">
<metadata>
	<sfw  xmlns="&ns_sfw;">
		<slices></slices>
		<sliceSourceBounds  width="1050.4" height="90.7" x="0" y="-90.9" bottomLeftOrigin="true"></sliceSourceBounds>
	</sfw>
</metadata>
<g id="Layer_2_3_">
	<g id="Capa_1_3_">
		<path style="fill:#F47943;" d="M0.9,42.8c0-10.7,8.5-19.6,19.3-19.6c6.1,0,11.9,2.9,15.5,7.9l-5.8,4.2c-2.1-3.1-5.6-4.9-9.4-4.9
			c-6.9,0-11.9,5.6-11.9,12.4s4.9,12.4,11.8,12.4c3.8,0.1,7.3-1.8,9.4-4.9l5.8,4.2c-3.6,5-9.3,7.9-15.5,7.9
			C9.4,62.5,0.9,53.6,0.9,42.8z"/>
		<path style="fill:#F47943;" d="M49.3,55.1h14.3v6.8h-22V23.9h7.6V55.1z"/>
		<path style="fill:#F47943;" d="M67.8,48.5V23.9h7.6v24c0,5.2,3.3,7.3,6.8,7.3c3.5,0,6.9-2.1,6.9-7.3v-24h7.6v24.5
			c0,8.7-6.8,14-14.5,14S67.8,57.1,67.8,48.5z"/>
		<path style="fill:#F47943;" d="M133.7,51c0,5.2-3.6,10.8-11.9,10.8h-16.2V23.9h15c6.8,0,11.1,4.1,11.1,9.8c0,2.8-1.1,6.6-5.2,7.9
			C131.4,42.4,133.7,46.7,133.7,51z M120.2,30.7h-6.9V39h6.9c2.4,0,3.9-1.6,3.9-4.2C124.1,32.5,122.9,30.7,120.2,30.7z M120.7,55.1
			c3.6,0,5.3-2.3,5.3-4.8c0-2.4-1.6-4.8-5.2-4.8h-7.6v9.7H120.7z"/>
		<path style="fill:#58595B;" d="M13.2,68h2v22.5h-2v-2.8c-1.2,2-3.4,3.3-5.8,3.2C3.2,90.8-0.1,87.3,0,83c0.1-4.1,3.4-7.3,7.4-7.4
			c2.4-0.1,4.6,1.1,5.8,3.2V68z M13.2,83.3c0.1-3.1-2.4-5.7-5.5-5.8c0,0-0.1,0-0.1,0C4.5,77.5,2,80,2,83.1c0,0,0,0,0,0.1
			C2,86.3,4.4,88.9,7.6,89c0,0,0,0,0,0c3.1,0,5.6-2.5,5.6-5.6C13.2,83.4,13.2,83.3,13.2,83.3L13.2,83.3z"/>
		<path style="fill:#58595B;" d="M33.8,84.1H21.3c0.1,2.9,2.6,5.1,5.5,4.9c0,0,0,0,0,0c1.9,0,3.7-0.9,4.7-2.6l1.7,0.7
			c-1.3,2.3-3.8,3.8-6.5,3.7c-4.1,0-7.4-3.1-7.4-7.7c0-4.6,3.3-7.6,7.4-7.6s7.2,3,7.2,7.6C33.9,83.5,33.9,83.8,33.8,84.1z
			 M31.9,82.4c-0.3-3-2.4-4.9-5.2-4.9s-5,1.7-5.4,4.9H31.9z"/>
		<path style="fill:#58595B;" d="M61.2,83.2c0.1,4.1-3.1,7.5-7.2,7.7c-0.1,0-0.2,0-0.2,0c-2.4,0.1-4.6-1.2-5.8-3.3v2.9h-2V68h2v10.8
			c1.2-2,3.4-3.3,5.8-3.2c4.1,0,7.4,3.3,7.4,7.4C61.2,83.1,61.2,83.1,61.2,83.2z M59.2,83.2c-0.1-3.1-2.7-5.5-5.8-5.4
			c-3.1,0.1-5.5,2.7-5.4,5.8c0.1,3,2.6,5.4,5.6,5.4C56.8,89,59.2,86.4,59.2,83.2C59.2,83.2,59.2,83.2,59.2,83.2L59.2,83.2z"/>
		<path style="fill:#58595B;" d="M78.7,84.1H66.2c0.1,2.9,2.6,5.1,5.5,4.9c1.9,0,3.7-0.9,4.7-2.6l1.7,0.7c-1.3,2.3-3.8,3.8-6.5,3.7
			c-4.1,0-7.4-3.1-7.4-7.7s3.3-7.6,7.4-7.6c4.1,0,7.2,3,7.2,7.6C78.8,83.5,78.8,83.8,78.7,84.1z M76.8,82.4c-0.3-3-2.4-4.9-5.2-4.9
			c-2.8,0-5,1.7-5.4,4.9H76.8z"/>
		<path style="fill:#58595B;" d="M95.7,82v8.5h-2v-8.4c0-2.8-1.8-4.6-4.1-4.6s-4.8,1.4-4.9,4.9v8.1h-2V76h2v2.6c0.9-2.1,3.3-3,5.1-3
			C93.3,75.6,95.7,78,95.7,82z"/>
		<path style="fill:#58595B;" d="M114,84.1h-12.5c0.1,2.9,2.6,5.1,5.5,4.9c1.9,0,3.7-0.9,4.7-2.6l1.7,0.7c-1.3,2.3-3.8,3.8-6.5,3.7
			c-4.1,0-7.4-3.1-7.4-7.7s3.3-7.6,7.4-7.6c4.1,0,7.2,3,7.2,7.6C114.1,83.5,114.1,83.8,114,84.1z M112.1,82.4
			c-0.3-3-2.4-4.9-5.2-4.9c-2.8,0-5,1.7-5.4,4.9H112.1z"/>
		<path style="fill:#58595B;" d="M129.8,76v14.6h-2V77.7h-7v12.9h-2V77.7H116V76h2.9v-1.6c0-3.7,1.4-6.3,5.2-6.3h0.7v1.9h-0.4
			c-2.7,0-3.5,1.8-3.5,4.2V76H129.8z M130.4,70.6c-0.1,0.9-0.9,1.5-1.7,1.4c-0.7-0.1-1.3-0.7-1.4-1.4c0.1-0.9,0.8-1.5,1.6-1.4
			C129.7,69.2,130.4,69.8,130.4,70.6z"/>
		<path style="fill:#58595B;" d="M133.8,83.2c-0.1-4.1,3.2-7.6,7.4-7.6c0.1,0,0.3,0,0.4,0c1.9,0,3.8,0.7,5.2,2l-1.2,1.4
			c-1.1-1-2.5-1.5-3.9-1.5c-3.2-0.1-5.8,2.4-6,5.6c-0.1,3.2,2.4,5.8,5.6,6c0.1,0,0.3,0,0.4,0c1.4,0,2.8-0.5,3.9-1.5l1.2,1.4
			c-3.2,2.9-8.1,2.6-11-0.6C134.5,86.9,133.8,85.1,133.8,83.2L133.8,83.2z"/>
		<path style="fill:#58595B;" d="M149.9,70.6c0.1-0.9,0.8-1.5,1.7-1.4c0.7,0.1,1.3,0.7,1.4,1.4c-0.1,0.9-0.8,1.5-1.7,1.4
			C150.6,71.9,150,71.3,149.9,70.6z M150.4,90.5V76h2v14.6L150.4,90.5z"/>
		<path style="fill:#58595B;" d="M156.4,83.2c0-4.2,3.5-7.6,7.7-7.6c4.2,0,7.6,3.5,7.6,7.7c0,4.2-3.4,7.6-7.7,7.6
			c-4.1,0.1-7.5-3.1-7.6-7.2C156.4,83.5,156.4,83.4,156.4,83.2z M169.7,83.2c-0.1-3.1-2.7-5.6-5.8-5.5c-3.1,0.1-5.6,2.7-5.5,5.8
			c0.1,3.1,2.6,5.5,5.6,5.5c3.1,0,5.6-2.4,5.7-5.5C169.7,83.4,169.7,83.3,169.7,83.2z"/>
		<path style="fill:#58595B;" d="M174.5,86.7h1.8c0.2,1.2,1.3,2.5,3.5,2.5s3.4-1.1,3.4-2.6c0-1.2-0.8-2-2.3-2.3l-2.1-0.5
			c-2.1-0.5-3.7-1.6-3.7-4s2-4.1,4.8-4.1c2.4,0,4.7,1.3,4.8,4h-2c-0.1-1.3-1.4-2.2-2.8-2.2c-1.7,0-2.8,1-2.8,2.4
			c0,1.4,1.2,2,2.2,2.2l2.2,0.5c2.8,0.7,3.7,2.4,3.7,4.1c0,2.6-2.3,4.3-5.4,4.3C177.3,90.9,174.7,89.4,174.5,86.7z"/>
		<path style="fill:#46BFB2;" d="M184.8,25.9l-2.7,11.7c-0.5,2.1-2.2,3.8-4.4,4L153.9,44h-0.4l-6-18.6l0.2-0.1L184.8,25.9z"/>
		<ellipse style="fill:#3D65AF;" cx="174.3" cy="60.8" rx="3.9" ry="4.1"/>
		<ellipse style="fill:#3D65AF;" cx="153" cy="60.8" rx="3.9" ry="4.1"/>
		<path style="fill:#3D65AF;" d="M178.2,52.5h-21.8c-1.7,0-3.3-0.8-4.2-2.3c-0.9-1.5-1.1-3.3-0.5-4.9l0.6-1.3l-7.1-22.2
			c-0.4-1.2-1.5-2-2.7-2h-3.8c-0.6,0-1.1-0.5-1.1-1.2c0-0.6,0.4-1.1,1-1.2c0,0,0,0,0,0h3.9c2.2,0,4.2,1.4,4.8,3.5l7.2,22.6
			c0.1,0.3,0,0.6-0.1,0.8l-0.7,1.7c-0.3,0.9-0.2,1.9,0.3,2.7c0.5,0.8,1.4,1.3,2.4,1.3h21.8c0.6,0,1.1,0.5,1.1,1.2
			c0,0.6-0.4,1.1-1,1.2L178.2,52.5z"/>
		<path style="fill:#F47943;" d="M182.8,37.5l-4-1.5l3,11.8l2-3.5l3.4,3.7l2.8-2.5l-3.4-3.7l3.6-1.6L182.8,37.5z"/>
		<path style="fill:#FFFFFF;" d="M187.1,41.9l3.3-1.4c0.1-0.1,0.2-0.2,0.2-0.3c0-0.1-0.1-0.2-0.2-0.3l-5-1.8c-0.2,0-0.3,0.1-0.4,0.2
			c0,0.1,0,0.3,0.2,0.4l4.3,1.6l-2.9,1.3c-0.1,0-0.2,0.1-0.2,0.2c0,0.1,0,0.2,0.1,0.3l3.2,3.5l-2.3,2.1l-3.2-3.5
			c-0.1-0.1-0.2-0.1-0.3-0.1c-0.1,0-0.2,0.1-0.2,0.2L182,47l-2.7-10.4l3.5,1.3c0.2,0.1,0.3,0,0.4-0.2s0-0.3-0.2-0.4l-4.1-1.5
			c-0.1,0-0.2,0-0.3,0.1c-0.1,0.1-0.1,0.2-0.1,0.3l3,11.7c0,0.1,0.1,0.2,0.3,0.2l0,0c0.1,0,0.2-0.1,0.3-0.2l1.7-3l3.1,3.4
			c0.1,0.1,0.3,0.1,0.4,0l2.8-2.5c0.1-0.1,0.1-0.3,0-0.4L187.1,41.9z"/>
		<path style="fill:#FFFFFF;" d="M176.7,33.2c-0.1-0.1-0.3-0.1-0.4,0c-0.1,0.1-0.1,0.3,0,0.4l0.7,0.8c0.1,0.1,0.1,0.1,0.2,0.1
			c0.1,0,0.2,0,0.2-0.1c0.1-0.1,0.1-0.3,0-0.4c0,0,0,0,0,0L176.7,33.2z"/>
		<path style="fill:#FFFFFF;" d="M180.5,34.7c0.1,0,0.2,0,0.2-0.1l0.8-0.7c0.1-0.1,0.1-0.3,0-0.4c-0.1-0.1-0.3-0.1-0.4,0l-0.8,0.7
			c-0.1,0.1-0.1,0.3,0,0.4C180.4,34.7,180.5,34.7,180.5,34.7z"/>
		<path style="fill:#FFFFFF;" d="M176.8,37.4l-0.8,0.7c-0.1,0.1-0.1,0.3,0,0.4c0,0,0,0,0,0c0.1,0.1,0.1,0.1,0.2,0.1
			c0.1,0,0.2,0,0.2-0.1l0.8-0.7c0.1-0.1,0.1-0.3,0-0.4C177.2,37.3,177,37.3,176.8,37.4L176.8,37.4L176.8,37.4z"/>
		<path style="fill:#FFFFFF;" d="M178.9,33.9c0.2,0,0.3-0.1,0.3-0.3c0,0,0,0,0,0l0.1-1.1c0-0.2-0.1-0.3-0.2-0.4
			c-0.2,0-0.3,0.1-0.4,0.2c0,0,0,0.1,0,0.1l-0.1,1.1C178.6,33.8,178.7,33.9,178.9,33.9L178.9,33.9z"/>
		<path style="fill:#FFFFFF;" d="M176.7,35.9c0-0.2-0.1-0.3-0.3-0.3l-1.1-0.1c-0.2,0-0.3,0.1-0.3,0.3l0,0c0,0.2,0.1,0.3,0.3,0.3
			l1.1,0.1C176.6,36.2,176.7,36.1,176.7,35.9L176.7,35.9z"/>
		<path style="fill:#FFFFFF;" d="M183.5,38.2c0,0.1,0.1,0.2,0.3,0.2c0.1,0,0.2-0.1,0.3-0.2c0-0.1,0-0.3-0.1-0.4
			c-0.1-0.1-0.2-0.1-0.3,0C183.5,37.9,183.4,38.1,183.5,38.2z"/>
	</g>
</g>
<g>
	<g>
		<path style="fill:#58595B;" d="M7,11.6H3.3l-0.8,2.5H0.1L4,2.6h2.4l3.9,11.5H7.8L7,11.6z M3.9,9.8h2.6l-1.3-4h0L3.9,9.8z"/>
		<path style="fill:#58595B;" d="M10.8,9.9c0-1.3,0.3-2.4,0.9-3.3c0.6-0.8,1.4-1.2,2.5-1.2c0.4,0,0.8,0.1,1.2,0.3
			c0.3,0.2,0.6,0.4,0.9,0.8V1.8h2.3v12.3h-2l-0.2-1c-0.3,0.4-0.6,0.7-1,0.9c-0.4,0.2-0.8,0.3-1.3,0.3c-1,0-1.9-0.4-2.4-1.1
			c-0.6-0.8-0.9-1.8-0.9-3V9.9z M13.1,10c0,0.7,0.1,1.3,0.4,1.8c0.3,0.4,0.7,0.6,1.2,0.6c0.3,0,0.6-0.1,0.9-0.2
			c0.2-0.1,0.4-0.3,0.6-0.6V8c-0.2-0.3-0.4-0.5-0.6-0.6c-0.2-0.1-0.5-0.2-0.9-0.2c-0.6,0-1,0.3-1.2,0.7c-0.3,0.5-0.4,1.2-0.4,2V10z"
			/>
		<path style="fill:#58595B;" d="M23.9,14.2c-1.3,0-2.3-0.4-3-1.2c-0.7-0.8-1.1-1.8-1.1-3V9.7c0-1.3,0.3-2.3,1-3.1
			c0.7-0.8,1.6-1.2,2.9-1.2c1.1,0,2,0.4,2.6,1.1s0.9,1.6,0.9,2.8v1.2h-5.1l0,0c0,0.6,0.2,1.1,0.5,1.4c0.3,0.4,0.8,0.5,1.4,0.5
			c0.5,0,1-0.1,1.3-0.2c0.4-0.1,0.7-0.3,1.1-0.5l0.6,1.4c-0.3,0.3-0.8,0.5-1.4,0.7S24.6,14.2,23.9,14.2z M23.8,7.1
			c-0.5,0-0.8,0.2-1.1,0.5c-0.2,0.3-0.4,0.7-0.5,1.3l0,0h2.8V8.8c0-0.5-0.1-0.9-0.3-1.2C24.6,7.3,24.3,7.1,23.8,7.1z"/>
		<path style="fill:#58595B;" d="M30.8,5.5l0.1,1.1c0.3-0.4,0.6-0.7,1-0.9c0.4-0.2,0.9-0.3,1.4-0.3c0.5,0,1,0.1,1.4,0.4
			c0.4,0.2,0.7,0.6,0.9,1.1c0.3-0.5,0.6-0.8,1-1.1c0.4-0.3,0.9-0.4,1.5-0.4c0.8,0,1.5,0.3,2,0.9c0.5,0.6,0.7,1.5,0.7,2.7v5.1h-2.3V9
			c0-0.7-0.1-1.2-0.3-1.4c-0.2-0.3-0.5-0.4-0.9-0.4c-0.3,0-0.6,0.1-0.8,0.2c-0.2,0.1-0.4,0.3-0.6,0.6c0,0.1,0,0.2,0,0.3
			c0,0.1,0,0.1,0,0.2v5.6h-2.3V9c0-0.7-0.1-1.1-0.3-1.4c-0.2-0.3-0.5-0.4-0.9-0.4c-0.3,0-0.6,0.1-0.8,0.2c-0.2,0.1-0.4,0.3-0.6,0.5
			v6.2h-2.3V5.5H30.8z"/>
		<path style="fill:#58595B;" d="M47.7,14.1c-0.1-0.2-0.2-0.4-0.2-0.6c-0.1-0.2-0.1-0.4-0.1-0.7c-0.2,0.4-0.5,0.8-0.9,1
			c-0.4,0.3-0.9,0.4-1.4,0.4c-0.9,0-1.6-0.2-2.1-0.7c-0.5-0.5-0.7-1.1-0.7-1.9c0-0.8,0.3-1.5,1-1.9C43.8,9.3,44.8,9,46,9h1.3V8.3
			c0-0.4-0.1-0.7-0.3-1c-0.2-0.2-0.5-0.3-1-0.3c-0.4,0-0.7,0.1-0.9,0.3c-0.2,0.2-0.3,0.4-0.3,0.7h-2.2l0,0c0-0.7,0.3-1.3,0.9-1.9
			c0.7-0.5,1.5-0.8,2.6-0.8c1,0,1.9,0.3,2.5,0.8c0.6,0.5,0.9,1.3,0.9,2.2v3.5c0,0.4,0,0.8,0.1,1.1c0.1,0.4,0.2,0.7,0.3,1H47.7z
			 M45.6,12.5c0.4,0,0.8-0.1,1.1-0.3c0.3-0.2,0.5-0.4,0.6-0.7v-1.2H46c-0.5,0-0.9,0.1-1.1,0.4c-0.2,0.2-0.4,0.5-0.4,0.9
			c0,0.3,0.1,0.5,0.3,0.7C45,12.4,45.2,12.5,45.6,12.5z M46.5,1.9h2.6l0,0l-2.2,2h-2L46.5,1.9z"/>
		<path style="fill:#58595B;" d="M55.9,11.7c0-0.3-0.1-0.5-0.4-0.7c-0.2-0.2-0.7-0.3-1.4-0.5c-1-0.2-1.8-0.5-2.3-0.9
			c-0.5-0.4-0.8-1-0.8-1.6c0-0.7,0.3-1.4,0.9-1.9s1.4-0.8,2.5-0.8c1.1,0,1.9,0.3,2.6,0.8c0.6,0.5,1,1.2,0.9,1.9l0,0h-2.2
			c0-0.3-0.1-0.6-0.3-0.8C55.3,7.1,55,7,54.6,7c-0.4,0-0.7,0.1-0.9,0.3s-0.3,0.4-0.3,0.7c0,0.3,0.1,0.5,0.3,0.6
			C53.9,8.7,54.4,8.9,55,9c1,0.2,1.8,0.5,2.3,0.9s0.8,1,0.8,1.7c0,0.8-0.3,1.4-1,1.9c-0.7,0.5-1.5,0.7-2.6,0.7c-1.1,0-2-0.3-2.7-0.9
			c-0.7-0.6-1-1.2-0.9-2l0,0h2.1c0,0.5,0.2,0.8,0.4,1c0.3,0.2,0.7,0.3,1.1,0.3c0.4,0,0.7-0.1,1-0.3C55.8,12.2,55.9,12,55.9,11.7z"/>
		<path style="fill:#58595B;" d="M67.3,14.2c-1.3,0-2.3-0.4-3-1.2c-0.7-0.8-1.1-1.8-1.1-3V9.7c0-1.3,0.3-2.3,1-3.1
			C65,5.8,66,5.4,67.2,5.4c1.1,0,2,0.4,2.6,1.1s0.9,1.6,0.9,2.8v1.2h-5.1l0,0c0,0.6,0.2,1.1,0.5,1.4c0.3,0.4,0.8,0.5,1.4,0.5
			c0.5,0,1-0.1,1.3-0.2c0.4-0.1,0.7-0.3,1.1-0.5l0.6,1.4c-0.3,0.3-0.8,0.5-1.4,0.7S68,14.2,67.3,14.2z M67.2,7.1
			c-0.5,0-0.8,0.2-1.1,0.5c-0.2,0.3-0.4,0.7-0.5,1.3l0,0h2.8V8.8c0-0.5-0.1-0.9-0.3-1.2C68,7.3,67.7,7.1,67.2,7.1z"/>
		<path style="fill:#58595B;" d="M74.2,5.5l0.1,1.2c0.3-0.4,0.6-0.8,1-1c0.4-0.2,0.9-0.4,1.4-0.4c0.9,0,1.5,0.3,2,0.8
			c0.5,0.6,0.7,1.4,0.7,2.6v5.2h-2.3V8.8c0-0.6-0.1-1-0.3-1.3c-0.2-0.3-0.5-0.4-1-0.4c-0.3,0-0.6,0.1-0.9,0.2
			c-0.3,0.1-0.5,0.3-0.6,0.5v6.2h-2.3V5.5H74.2z"/>
		<path style="fill:#58595B;" d="M88.9,14.2c-1.3,0-2.3-0.4-3-1.2c-0.7-0.8-1.1-1.8-1.1-3V9.7c0-1.3,0.3-2.3,1-3.1
			c0.7-0.8,1.6-1.2,2.9-1.2c1.1,0,2,0.4,2.6,1.1s0.9,1.6,0.9,2.8v1.2h-5.1l0,0c0,0.6,0.2,1.1,0.5,1.4c0.3,0.4,0.8,0.5,1.4,0.5
			c0.5,0,1-0.1,1.3-0.2c0.4-0.1,0.7-0.3,1.1-0.5l0.6,1.4c-0.3,0.3-0.8,0.5-1.4,0.7S89.6,14.2,88.9,14.2z M88.8,7.1
			c-0.5,0-0.8,0.2-1.1,0.5c-0.2,0.3-0.4,0.7-0.5,1.3l0,0h2.8V8.8c0-0.5-0.1-0.9-0.3-1.2C89.5,7.3,89.2,7.1,88.8,7.1z"/>
		<path style="fill:#58595B;" d="M96.1,14.1h-2.3V1.8h2.3V14.1z"/>
	</g>
</g>
<line style="fill:none;stroke:#000000;stroke-miterlimit:10;" x1="232.5" y1="11" x2="232.5" y2="82"/>
<g>
	<g>
		<path style="fill:#333333;" d="M276.5,23.8h-5.8v5.1h6.8v1.5h-8.8V16.1h8.7v1.5h-6.7v4.6h5.8V23.8z"/>
		<path style="fill:#333333;" d="M281.2,19.8l0.1,1.6c0.4-0.6,0.8-1,1.3-1.3s1.1-0.5,1.8-0.5c1.1,0,2,0.3,2.6,1s0.9,1.7,0.9,3.1v6.7
			h-1.9v-6.6c0-0.9-0.2-1.6-0.6-2s-0.9-0.6-1.7-0.6c-0.6,0-1.1,0.1-1.5,0.4s-0.7,0.6-1,1v7.8h-1.9V19.8H281.2z"/>
		<path style="fill:#333333;" d="M295.1,29c0.6,0,1.1-0.2,1.6-0.6s0.7-0.9,0.7-1.5h1.7l0,0.1c0,0.9-0.4,1.7-1.2,2.4
			s-1.7,1.1-2.8,1.1c-1.5,0-2.6-0.5-3.4-1.5s-1.2-2.3-1.2-3.8v-0.4c0-1.5,0.4-2.7,1.2-3.8s2-1.5,3.4-1.5c1.2,0,2.1,0.4,2.9,1.1
			s1.1,1.6,1.1,2.7l0,0.1h-1.7c0-0.6-0.2-1.2-0.6-1.6s-0.9-0.7-1.6-0.7c-0.9,0-1.6,0.4-2.1,1.1s-0.6,1.6-0.6,2.7v0.4
			c0,1.1,0.2,2,0.6,2.7S294.1,29,295.1,29z"/>
		<path style="fill:#333333;" d="M300.9,25c0-1.6,0.4-2.8,1.3-3.9s2-1.5,3.4-1.5c1.5,0,2.6,0.5,3.5,1.5s1.3,2.3,1.3,3.9v0.2
			c0,1.6-0.4,2.9-1.3,3.9s-2,1.5-3.5,1.5S303,30,302.2,29s-1.3-2.3-1.3-3.9V25z M302.8,25.2c0,1.1,0.2,2,0.7,2.8s1.2,1.1,2.1,1.1
			c0.9,0,1.6-0.4,2.1-1.1s0.7-1.7,0.7-2.8V25c0-1.1-0.2-2-0.7-2.8s-1.2-1.1-2.1-1.1c-0.9,0-1.6,0.4-2.1,1.1s-0.7,1.7-0.7,2.8V25.2z"
			/>
		<path style="fill:#333333;" d="M314.4,19.8l0.1,1.6c0.4-0.6,0.8-1,1.3-1.3s1.1-0.5,1.8-0.5c1.1,0,2,0.3,2.6,1s0.9,1.7,0.9,3.1v6.7
			h-1.9v-6.6c0-0.9-0.2-1.6-0.6-2s-0.9-0.6-1.7-0.6c-0.6,0-1.1,0.1-1.5,0.4s-0.7,0.6-1,1v7.8h-1.9V19.8H314.4z"/>
		<path style="fill:#333333;" d="M326.8,17.2v2.5h2v1.4h-2v6.4c0,0.5,0.1,0.8,0.3,1s0.5,0.3,0.8,0.3c0.1,0,0.2,0,0.4,0
			s0.3-0.1,0.3-0.1l0.3,1.3c-0.1,0.1-0.4,0.2-0.6,0.3s-0.6,0.1-0.8,0.1c-0.8,0-1.4-0.2-1.9-0.7s-0.7-1.2-0.7-2.2v-6.4h-1.7v-1.4h1.7
			v-2.5H326.8z"/>
		<path style="fill:#333333;" d="M335.8,21.5l-1-0.1c-0.5,0-0.9,0.1-1.3,0.4s-0.6,0.6-0.8,1v7.5h-1.9V19.8h1.7l0.2,1.5
			c0.3-0.5,0.7-1,1.1-1.3s0.9-0.5,1.5-0.5c0.1,0,0.3,0,0.4,0s0.2,0,0.3,0.1L335.8,21.5z"/>
		<path style="fill:#333333;" d="M344.3,30.3c-0.1-0.3-0.1-0.6-0.2-0.8s-0.1-0.5-0.1-0.7c-0.4,0.5-0.8,0.9-1.4,1.3s-1.2,0.5-1.9,0.5
			c-1.1,0-1.9-0.3-2.5-0.8s-0.9-1.3-0.9-2.3c0-1,0.4-1.8,1.2-2.4s1.9-0.9,3.3-0.9h2.1v-1c0-0.6-0.2-1.1-0.6-1.5s-0.9-0.5-1.6-0.5
			c-0.6,0-1.1,0.2-1.5,0.5s-0.6,0.7-0.6,1.1l-1.8,0l0-0.1c0-0.8,0.3-1.5,1.1-2.1s1.8-1,3-1c1.2,0,2.2,0.3,2.9,0.9s1.1,1.5,1.1,2.6
			v5.1c0,0.4,0,0.7,0.1,1.1s0.1,0.7,0.2,1H344.3z M341.1,28.9c0.7,0,1.3-0.2,1.9-0.5s0.9-0.8,1.1-1.2v-1.7h-2.2
			c-0.8,0-1.4,0.2-1.9,0.6s-0.7,0.8-0.7,1.4c0,0.5,0.1,0.8,0.4,1.1S340.6,28.9,341.1,28.9z"/>
		<path style="fill:#333333;" d="M355,27.5c0-0.4-0.2-0.8-0.5-1s-0.9-0.5-1.8-0.7c-1.2-0.3-2.2-0.6-2.9-1.1s-1-1.1-1-1.9
			c0-0.9,0.4-1.6,1.1-2.2s1.7-0.9,2.8-0.9c1.2,0,2.2,0.3,2.9,1s1.1,1.4,1.1,2.3l0,0.1h-1.8c0-0.5-0.2-0.9-0.6-1.2s-0.9-0.6-1.5-0.6
			c-0.7,0-1.2,0.2-1.5,0.5s-0.5,0.7-0.5,1.1c0,0.4,0.1,0.7,0.4,1s0.9,0.4,1.8,0.6c1.3,0.3,2.3,0.7,2.9,1.2s1,1.2,1,2
			c0,0.9-0.4,1.7-1.1,2.3s-1.7,0.9-3,0.9c-1.3,0-2.4-0.3-3.2-1s-1.1-1.5-1.1-2.4l0-0.1h1.8c0,0.7,0.3,1.2,0.8,1.5s1,0.5,1.7,0.5
			c0.7,0,1.2-0.1,1.6-0.4S355,28,355,27.5z"/>
		<path style="fill:#333333;" d="M363.8,25c0-1.6,0.4-2.8,1.3-3.9s2-1.5,3.4-1.5c1.5,0,2.6,0.5,3.5,1.5s1.3,2.3,1.3,3.9v0.2
			c0,1.6-0.4,2.9-1.3,3.9s-2,1.5-3.5,1.5s-2.6-0.5-3.5-1.5s-1.3-2.3-1.3-3.9V25z M365.7,25.2c0,1.1,0.2,2,0.7,2.8s1.2,1.1,2.1,1.1
			c0.9,0,1.6-0.4,2.1-1.1s0.7-1.7,0.7-2.8V25c0-1.1-0.2-2-0.7-2.8s-1.2-1.1-2.1-1.1c-0.9,0-1.6,0.4-2.1,1.1s-0.7,1.7-0.7,2.8V25.2z"
			/>
		<path style="fill:#333333;" d="M376.4,30.3v-9.1h-1.7v-1.4h1.7v-1.3c0-1.1,0.3-2,0.9-2.6s1.4-0.9,2.5-0.9c0.2,0,0.4,0,0.7,0.1
			s0.5,0.1,0.7,0.2l-0.2,1.5c-0.1,0-0.3,0-0.4-0.1s-0.3,0-0.5,0c-0.6,0-1,0.2-1.3,0.5s-0.4,0.8-0.4,1.5v1.3h1.9v1.4h-1.9v9.1H376.4z
			"/>
		<path style="fill:#333333;" d="M386.3,30.5c-1.5,0-2.7-0.5-3.5-1.5s-1.3-2.2-1.3-3.8v-0.4c0-1.5,0.4-2.8,1.3-3.8s1.9-1.5,3.2-1.5
			c1.4,0,2.5,0.4,3.2,1.3s1.1,2,1.1,3.5v1h-6.8l0,0c0,1.1,0.2,1.9,0.7,2.6s1.2,1,2.1,1c0.7,0,1.2-0.1,1.7-0.3s0.9-0.4,1.3-0.8
			l0.8,1.3c-0.4,0.4-0.9,0.7-1.5,0.9S387.2,30.5,386.3,30.5z M386,21.1c-0.7,0-1.2,0.3-1.7,0.8s-0.7,1.2-0.8,2l0,0h4.8v-0.2
			c0-0.8-0.2-1.4-0.6-1.9S386.8,21.1,386,21.1z"/>
		<path style="fill:#333333;" d="M397.4,21.5l-1-0.1c-0.5,0-0.9,0.1-1.3,0.4s-0.6,0.6-0.8,1v7.5h-1.9V19.8h1.7l0.2,1.5
			c0.3-0.5,0.7-1,1.1-1.3s0.9-0.5,1.5-0.5c0.1,0,0.3,0,0.4,0s0.2,0,0.3,0.1L397.4,21.5z"/>
		<path style="fill:#333333;" d="M402.3,17.2v2.5h2v1.4h-2v6.4c0,0.5,0.1,0.8,0.3,1s0.5,0.3,0.8,0.3c0.1,0,0.2,0,0.4,0
			s0.3-0.1,0.3-0.1l0.3,1.3c-0.1,0.1-0.4,0.2-0.6,0.3s-0.6,0.1-0.8,0.1c-0.8,0-1.4-0.2-1.9-0.7s-0.7-1.2-0.7-2.2v-6.4h-1.7v-1.4h1.7
			v-2.5H402.3z"/>
		<path style="fill:#333333;" d="M412.8,30.3c-0.1-0.3-0.1-0.6-0.2-0.8s-0.1-0.5-0.1-0.7c-0.4,0.5-0.8,0.9-1.4,1.3s-1.2,0.5-1.9,0.5
			c-1.1,0-1.9-0.3-2.5-0.8s-0.9-1.3-0.9-2.3c0-1,0.4-1.8,1.2-2.4s1.9-0.9,3.3-0.9h2.1v-1c0-0.6-0.2-1.1-0.6-1.5s-0.9-0.5-1.6-0.5
			c-0.6,0-1.1,0.2-1.5,0.5s-0.6,0.7-0.6,1.1l-1.8,0l0-0.1c0-0.8,0.3-1.5,1.1-2.1s1.8-1,3-1c1.2,0,2.2,0.3,2.9,0.9s1.1,1.5,1.1,2.6
			v5.1c0,0.4,0,0.7,0.1,1.1s0.1,0.7,0.2,1H412.8z M409.6,28.9c0.7,0,1.3-0.2,1.9-0.5s0.9-0.8,1.1-1.2v-1.7h-2.2
			c-0.8,0-1.4,0.2-1.9,0.6s-0.7,0.8-0.7,1.4c0,0.5,0.1,0.8,0.4,1.1S409.1,28.9,409.6,28.9z"/>
		<path style="fill:#333333;" d="M423.5,27.5c0-0.4-0.2-0.8-0.5-1s-0.9-0.5-1.8-0.7c-1.2-0.3-2.2-0.6-2.9-1.1s-1-1.1-1-1.9
			c0-0.9,0.4-1.6,1.1-2.2s1.7-0.9,2.8-0.9c1.2,0,2.2,0.3,2.9,1s1.1,1.4,1.1,2.3l0,0.1h-1.8c0-0.5-0.2-0.9-0.6-1.2s-0.9-0.6-1.5-0.6
			c-0.7,0-1.2,0.2-1.5,0.5s-0.5,0.7-0.5,1.1c0,0.4,0.1,0.7,0.4,1s0.9,0.4,1.8,0.6c1.3,0.3,2.3,0.7,2.9,1.2s1,1.2,1,2
			c0,0.9-0.4,1.7-1.1,2.3s-1.7,0.9-3,0.9c-1.3,0-2.4-0.3-3.2-1S417,28,417,27.1l0-0.1h1.8c0,0.7,0.3,1.2,0.8,1.5s1,0.5,1.7,0.5
			c0.7,0,1.2-0.1,1.6-0.4S423.5,28,423.5,27.5z"/>
		<path style="fill:#333333;" d="M432.3,25.3c0-1.7,0.4-3.1,1.1-4.1s1.7-1.6,3.1-1.6c0.6,0,1.2,0.1,1.6,0.3s0.9,0.6,1.2,1v-5.8h1.9
			v15.2h-1.5l-0.3-1.3c-0.3,0.5-0.8,0.9-1.3,1.2s-1.1,0.4-1.8,0.4c-1.3,0-2.3-0.5-3-1.4s-1.1-2.2-1.1-3.7V25.3z M434.2,25.5
			c0,1.1,0.2,1.9,0.7,2.6s1.1,1,2,1c0.6,0,1.1-0.1,1.4-0.4s0.7-0.6,1-1.1v-4.9c-0.2-0.4-0.6-0.8-1-1s-0.9-0.4-1.4-0.4
			c-0.9,0-1.6,0.4-2,1.1s-0.7,1.8-0.7,3V25.5z"/>
		<path style="fill:#333333;" d="M446.2,17.1h-1.9v-2h1.9V17.1z M446.2,30.3h-1.9V19.8h1.9V30.3z"/>
		<path style="fill:#333333;" d="M455.7,30.3c-0.1-0.3-0.1-0.6-0.2-0.8s-0.1-0.5-0.1-0.7c-0.4,0.5-0.8,0.9-1.4,1.3s-1.2,0.5-1.9,0.5
			c-1.1,0-1.9-0.3-2.5-0.8s-0.9-1.3-0.9-2.3c0-1,0.4-1.8,1.2-2.4s1.9-0.9,3.3-0.9h2.1v-1c0-0.6-0.2-1.1-0.6-1.5s-0.9-0.5-1.6-0.5
			c-0.6,0-1.1,0.2-1.5,0.5s-0.6,0.7-0.6,1.1l-1.8,0l0-0.1c0-0.8,0.3-1.5,1.1-2.1s1.8-1,3-1c1.2,0,2.2,0.3,2.9,0.9s1.1,1.5,1.1,2.6
			v5.1c0,0.4,0,0.7,0.1,1.1s0.1,0.7,0.2,1H455.7z M452.5,28.9c0.7,0,1.3-0.2,1.9-0.5s0.9-0.8,1.1-1.2v-1.7h-2.2
			c-0.8,0-1.4,0.2-1.9,0.6s-0.7,0.8-0.7,1.4c0,0.5,0.1,0.8,0.4,1.1S451.9,28.9,452.5,28.9z"/>
		<path style="fill:#333333;" d="M465.2,21.5l-1-0.1c-0.5,0-0.9,0.1-1.3,0.4s-0.6,0.6-0.8,1v7.5h-1.9V19.8h1.7l0.2,1.5
			c0.3-0.5,0.7-1,1.1-1.3s0.9-0.5,1.5-0.5c0.1,0,0.3,0,0.4,0s0.2,0,0.3,0.1L465.2,21.5z"/>
		<path style="fill:#333333;" d="M469.2,17.1h-1.9v-2h1.9V17.1z M469.2,30.3h-1.9V19.8h1.9V30.3z"/>
		<path style="fill:#333333;" d="M478.7,30.3c-0.1-0.3-0.1-0.6-0.2-0.8s-0.1-0.5-0.1-0.7c-0.4,0.5-0.8,0.9-1.4,1.3s-1.2,0.5-1.9,0.5
			c-1.1,0-1.9-0.3-2.5-0.8s-0.9-1.3-0.9-2.3c0-1,0.4-1.8,1.2-2.4s1.9-0.9,3.3-0.9h2.1v-1c0-0.6-0.2-1.1-0.6-1.5s-0.9-0.5-1.6-0.5
			c-0.6,0-1.1,0.2-1.5,0.5s-0.6,0.7-0.6,1.1l-1.8,0l0-0.1c0-0.8,0.3-1.5,1.1-2.1s1.8-1,3-1c1.2,0,2.2,0.3,2.9,0.9s1.1,1.5,1.1,2.6
			v5.1c0,0.4,0,0.7,0.1,1.1s0.1,0.7,0.2,1H478.7z M475.5,28.9c0.7,0,1.3-0.2,1.9-0.5s0.9-0.8,1.1-1.2v-1.7h-2.2
			c-0.8,0-1.4,0.2-1.9,0.6s-0.7,0.8-0.7,1.4c0,0.5,0.1,0.8,0.4,1.1S474.9,28.9,475.5,28.9z"/>
		<path style="fill:#333333;" d="M489.3,27.5c0-0.4-0.2-0.8-0.5-1s-0.9-0.5-1.8-0.7c-1.2-0.3-2.2-0.6-2.9-1.1s-1-1.1-1-1.9
			c0-0.9,0.4-1.6,1.1-2.2s1.7-0.9,2.8-0.9c1.2,0,2.2,0.3,2.9,1s1.1,1.4,1.1,2.3l0,0.1h-1.8c0-0.5-0.2-0.9-0.6-1.2s-0.9-0.6-1.5-0.6
			c-0.7,0-1.2,0.2-1.5,0.5s-0.5,0.7-0.5,1.1c0,0.4,0.1,0.7,0.4,1s0.9,0.4,1.8,0.6c1.3,0.3,2.3,0.7,2.9,1.2s1,1.2,1,2
			c0,0.9-0.4,1.7-1.1,2.3s-1.7,0.9-3,0.9c-1.3,0-2.4-0.3-3.2-1s-1.1-1.5-1.1-2.4l0-0.1h1.8c0,0.7,0.3,1.2,0.8,1.5s1,0.5,1.7,0.5
			c0.7,0,1.2-0.1,1.6-0.4S489.3,28,489.3,27.5z"/>
		<path style="fill:#333333;" d="M272.7,51c0.6,0,1.1-0.2,1.6-0.6s0.7-0.9,0.7-1.5h1.7l0,0.1c0,0.9-0.4,1.7-1.2,2.4
			s-1.7,1.1-2.8,1.1c-1.5,0-2.6-0.5-3.4-1.5s-1.2-2.3-1.2-3.8v-0.4c0-1.5,0.4-2.7,1.2-3.8s2-1.5,3.4-1.5c1.2,0,2.1,0.4,2.9,1.1
			s1.1,1.6,1.1,2.7l0,0.1h-1.7c0-0.6-0.2-1.2-0.6-1.6s-0.9-0.7-1.6-0.7c-0.9,0-1.6,0.4-2.1,1.1s-0.6,1.6-0.6,2.7v0.4
			c0,1.1,0.2,2,0.6,2.7S271.7,51,272.7,51z"/>
		<path style="fill:#333333;" d="M278.5,47c0-1.6,0.4-2.8,1.3-3.9s2-1.5,3.4-1.5c1.5,0,2.6,0.5,3.5,1.5s1.3,2.3,1.3,3.9v0.2
			c0,1.6-0.4,2.9-1.3,3.9s-2,1.5-3.5,1.5s-2.6-0.5-3.5-1.5s-1.3-2.3-1.3-3.9V47z M280.4,47.2c0,1.1,0.2,2,0.7,2.8s1.2,1.1,2.1,1.1
			c0.9,0,1.6-0.4,2.1-1.1s0.7-1.7,0.7-2.8V47c0-1.1-0.2-2-0.7-2.8s-1.2-1.1-2.1-1.1c-0.9,0-1.6,0.4-2.1,1.1s-0.7,1.7-0.7,2.8V47.2z"
			/>
		<path style="fill:#333333;" d="M292,41.8l0.1,1.6c0.4-0.6,0.8-1,1.3-1.3s1.1-0.5,1.8-0.5c1.1,0,2,0.3,2.6,1s0.9,1.7,0.9,3.1v6.7
			H297v-6.6c0-0.9-0.2-1.6-0.6-2s-0.9-0.6-1.7-0.6c-0.6,0-1.1,0.1-1.5,0.4s-0.7,0.6-1,1v7.8h-1.9V41.8H292z"/>
		<path style="fill:#333333;" d="M309.3,39.2v2.5h2v1.4h-2v6.4c0,0.5,0.1,0.8,0.3,1s0.5,0.3,0.8,0.3c0.1,0,0.2,0,0.4,0
			s0.3-0.1,0.3-0.1l0.3,1.3c-0.1,0.1-0.4,0.2-0.6,0.3s-0.6,0.1-0.8,0.1c-0.8,0-1.4-0.2-1.9-0.7s-0.7-1.2-0.7-2.2v-6.4h-1.7v-1.4h1.7
			v-2.5H309.3z"/>
		<path style="fill:#333333;" d="M312.9,47c0-1.6,0.4-2.8,1.3-3.9s2-1.5,3.4-1.5c1.5,0,2.6,0.5,3.5,1.5s1.3,2.3,1.3,3.9v0.2
			c0,1.6-0.4,2.9-1.3,3.9s-2,1.5-3.5,1.5s-2.6-0.5-3.5-1.5s-1.3-2.3-1.3-3.9V47z M314.9,47.2c0,1.1,0.2,2,0.7,2.8s1.2,1.1,2.1,1.1
			c0.9,0,1.6-0.4,2.1-1.1s0.7-1.7,0.7-2.8V47c0-1.1-0.2-2-0.7-2.8s-1.2-1.1-2.1-1.1c-0.9,0-1.6,0.4-2.1,1.1s-0.7,1.7-0.7,2.8V47.2z"
			/>
		<path style="fill:#333333;" d="M324.3,47.3c0-1.7,0.4-3.1,1.1-4.1s1.7-1.6,3.1-1.6c0.6,0,1.2,0.1,1.6,0.3s0.9,0.6,1.2,1v-5.8h1.9
			v15.2h-1.5l-0.3-1.3c-0.3,0.5-0.8,0.9-1.3,1.2s-1.1,0.4-1.8,0.4c-1.3,0-2.3-0.5-3-1.4s-1.1-2.2-1.1-3.7V47.3z M326.2,47.5
			c0,1.1,0.2,1.9,0.7,2.6s1.1,1,2,1c0.6,0,1.1-0.1,1.4-0.4s0.7-0.6,1-1.1v-4.9c-0.2-0.4-0.6-0.8-1-1s-0.9-0.4-1.4-0.4
			c-0.9,0-1.6,0.4-2,1.1s-0.7,1.8-0.7,3V47.5z"/>
		<path style="fill:#333333;" d="M335.7,47c0-1.6,0.4-2.8,1.3-3.9s2-1.5,3.4-1.5c1.5,0,2.6,0.5,3.5,1.5s1.3,2.3,1.3,3.9v0.2
			c0,1.6-0.4,2.9-1.3,3.9s-2,1.5-3.5,1.5s-2.6-0.5-3.5-1.5s-1.3-2.3-1.3-3.9V47z M337.6,47.2c0,1.1,0.2,2,0.7,2.8s1.2,1.1,2.1,1.1
			c0.9,0,1.6-0.4,2.1-1.1s0.7-1.7,0.7-2.8V47c0-1.1-0.2-2-0.7-2.8s-1.2-1.1-2.1-1.1c-0.9,0-1.6,0.4-2.1,1.1s-0.7,1.7-0.7,2.8V47.2z"
			/>
		<path style="fill:#333333;" d="M353.6,49.5c0-0.4-0.2-0.8-0.5-1s-0.9-0.5-1.8-0.7c-1.2-0.3-2.2-0.6-2.9-1.1s-1-1.1-1-1.9
			c0-0.9,0.4-1.6,1.1-2.2s1.7-0.9,2.8-0.9c1.2,0,2.2,0.3,2.9,1s1.1,1.4,1.1,2.3l0,0.1h-1.8c0-0.5-0.2-0.9-0.6-1.2s-0.9-0.6-1.5-0.6
			c-0.7,0-1.2,0.2-1.5,0.5s-0.5,0.7-0.5,1.1c0,0.4,0.1,0.7,0.4,1s0.9,0.4,1.8,0.6c1.3,0.3,2.3,0.7,2.9,1.2s1,1.2,1,2
			c0,0.9-0.4,1.7-1.1,2.3s-1.7,0.9-3,0.9c-1.3,0-2.4-0.3-3.2-1s-1.1-1.5-1.1-2.4l0-0.1h1.8c0,0.7,0.3,1.2,0.8,1.5s1,0.5,1.7,0.5
			c0.7,0,1.2-0.1,1.6-0.4S353.6,50,353.6,49.5z"/>
		<path style="fill:#333333;" d="M365,52.3h-1.9V37.1h1.9V52.3z"/>
		<path style="fill:#333333;" d="M367.5,47c0-1.6,0.4-2.8,1.3-3.9s2-1.5,3.4-1.5c1.5,0,2.6,0.5,3.5,1.5s1.3,2.3,1.3,3.9v0.2
			c0,1.6-0.4,2.9-1.3,3.9s-2,1.5-3.5,1.5s-2.6-0.5-3.5-1.5s-1.3-2.3-1.3-3.9V47z M369.4,47.2c0,1.1,0.2,2,0.7,2.8s1.2,1.1,2.1,1.1
			c0.9,0,1.6-0.4,2.1-1.1s0.7-1.7,0.7-2.8V47c0-1.1-0.2-2-0.7-2.8s-1.2-1.1-2.1-1.1c-0.9,0-1.6,0.4-2.1,1.1s-0.7,1.7-0.7,2.8V47.2z"
			/>
		<path style="fill:#333333;" d="M385.5,49.5c0-0.4-0.2-0.8-0.5-1s-0.9-0.5-1.8-0.7c-1.2-0.3-2.2-0.6-2.9-1.1s-1-1.1-1-1.9
			c0-0.9,0.4-1.6,1.1-2.2s1.7-0.9,2.8-0.9c1.2,0,2.2,0.3,2.9,1s1.1,1.4,1.1,2.3l0,0.1h-1.8c0-0.5-0.2-0.9-0.6-1.2s-0.9-0.6-1.5-0.6
			c-0.7,0-1.2,0.2-1.5,0.5s-0.5,0.7-0.5,1.1c0,0.4,0.1,0.7,0.4,1s0.9,0.4,1.8,0.6c1.3,0.3,2.3,0.7,2.9,1.2s1,1.2,1,2
			c0,0.9-0.4,1.7-1.1,2.3s-1.7,0.9-3,0.9c-1.3,0-2.4-0.3-3.2-1S379,50,379,49.1l0-0.1h1.8c0,0.7,0.3,1.2,0.8,1.5s1,0.5,1.7,0.5
			c0.7,0,1.2-0.1,1.6-0.4S385.5,50,385.5,49.5z"/>
		<path style="fill:#333333;" d="M396.5,41.8l0.1,1.4c0.3-0.5,0.8-0.9,1.3-1.2s1.1-0.4,1.9-0.4s1.3,0.2,1.8,0.5s0.9,0.8,1.1,1.5
			c0.3-0.6,0.8-1.1,1.3-1.4s1.2-0.5,1.9-0.5c1.1,0,1.9,0.4,2.5,1.1s0.9,1.9,0.9,3.3v6.3h-1.9V46c0-1-0.2-1.8-0.5-2.2
			s-0.9-0.6-1.6-0.6c-0.7,0-1.2,0.2-1.6,0.7s-0.6,1-0.7,1.7v0.1v6.7h-1.9V46c0-1-0.2-1.7-0.6-2.2s-0.9-0.7-1.6-0.7
			c-0.6,0-1.1,0.1-1.4,0.4s-0.7,0.6-0.9,1v7.8h-1.9V41.8H396.5z"/>
		<path style="fill:#333333;" d="M416.6,52.5c-1.5,0-2.7-0.5-3.5-1.5s-1.3-2.2-1.3-3.8v-0.4c0-1.5,0.4-2.8,1.3-3.8s1.9-1.5,3.2-1.5
			c1.4,0,2.5,0.4,3.2,1.3s1.1,2,1.1,3.5v1h-6.8l0,0c0,1.1,0.2,1.9,0.7,2.6s1.2,1,2.1,1c0.7,0,1.2-0.1,1.7-0.3s0.9-0.4,1.3-0.8
			l0.8,1.3c-0.4,0.4-0.9,0.7-1.5,0.9S417.5,52.5,416.6,52.5z M416.3,43.1c-0.7,0-1.2,0.3-1.7,0.8s-0.7,1.2-0.8,2l0,0h4.8v-0.2
			c0-0.8-0.2-1.4-0.6-1.9S417.1,43.1,416.3,43.1z"/>
		<path style="fill:#333333;" d="M422.3,47.3c0-1.7,0.4-3.1,1.1-4.1s1.7-1.6,3.1-1.6c0.6,0,1.2,0.1,1.6,0.3s0.9,0.6,1.2,1v-5.8h1.9
			v15.2h-1.5l-0.3-1.3c-0.3,0.5-0.8,0.9-1.3,1.2s-1.1,0.4-1.8,0.4c-1.3,0-2.3-0.5-3-1.4s-1.1-2.2-1.1-3.7V47.3z M424.2,47.5
			c0,1.1,0.2,1.9,0.7,2.6s1.1,1,2,1c0.6,0,1.1-0.1,1.4-0.4s0.7-0.6,1-1.1v-4.9c-0.2-0.4-0.6-0.8-1-1s-0.9-0.4-1.4-0.4
			c-0.9,0-1.6,0.4-2,1.1s-0.7,1.8-0.7,3V47.5z"/>
		<path style="fill:#333333;" d="M436.2,39.1h-1.9v-2h1.9V39.1z M436.2,52.3h-1.9V41.8h1.9V52.3z"/>
		<path style="fill:#333333;" d="M438.7,47c0-1.6,0.4-2.8,1.3-3.9s2-1.5,3.4-1.5c1.5,0,2.6,0.5,3.5,1.5s1.3,2.3,1.3,3.9v0.2
			c0,1.6-0.4,2.9-1.3,3.9s-2,1.5-3.5,1.5s-2.6-0.5-3.5-1.5s-1.3-2.3-1.3-3.9V47z M440.6,47.2c0,1.1,0.2,2,0.7,2.8s1.2,1.1,2.1,1.1
			c0.9,0,1.6-0.4,2.1-1.1s0.7-1.7,0.7-2.8V47c0-1.1-0.2-2-0.7-2.8s-1.2-1.1-2.1-1.1c-0.9,0-1.6,0.4-2.1,1.1s-0.7,1.7-0.7,2.8V47.2z"
			/>
		<path style="fill:#333333;" d="M456.6,49.5c0-0.4-0.2-0.8-0.5-1s-0.9-0.5-1.8-0.7c-1.2-0.3-2.2-0.6-2.9-1.1s-1-1.1-1-1.9
			c0-0.9,0.4-1.6,1.1-2.2s1.7-0.9,2.8-0.9c1.2,0,2.2,0.3,2.9,1s1.1,1.4,1.1,2.3l0,0.1h-1.8c0-0.5-0.2-0.9-0.6-1.2s-0.9-0.6-1.5-0.6
			c-0.7,0-1.2,0.2-1.5,0.5s-0.5,0.7-0.5,1.1c0,0.4,0.1,0.7,0.4,1s0.9,0.4,1.8,0.6c1.3,0.3,2.3,0.7,2.9,1.2s1,1.2,1,2
			c0,0.9-0.4,1.7-1.1,2.3s-1.7,0.9-3,0.9c-1.3,0-2.4-0.3-3.2-1s-1.1-1.5-1.1-2.4l0-0.1h1.8c0,0.7,0.3,1.2,0.8,1.5s1,0.5,1.7,0.5
			c0.7,0,1.2-0.1,1.6-0.4S456.6,50,456.6,49.5z"/>
		<path style="fill:#333333;" d="M268,69.3c0-1.7,0.4-3.1,1.1-4.1s1.7-1.6,3.1-1.6c0.6,0,1.2,0.1,1.6,0.3s0.9,0.6,1.2,1v-5.8h1.9
			v15.2h-1.5l-0.3-1.3c-0.3,0.5-0.8,0.9-1.3,1.2s-1.1,0.4-1.8,0.4c-1.3,0-2.3-0.5-3-1.4S268,71,268,69.5V69.3z M270,69.5
			c0,1.1,0.2,1.9,0.7,2.6s1.1,1,2,1c0.6,0,1.1-0.1,1.4-0.4s0.7-0.6,1-1.1v-4.9c-0.2-0.4-0.6-0.8-1-1s-0.9-0.4-1.4-0.4
			c-0.9,0-1.6,0.4-2,1.1s-0.7,1.8-0.7,3V69.5z"/>
		<path style="fill:#333333;" d="M284.2,74.5c-1.5,0-2.7-0.5-3.5-1.5s-1.3-2.2-1.3-3.8v-0.4c0-1.5,0.4-2.8,1.3-3.8s1.9-1.5,3.2-1.5
			c1.4,0,2.5,0.4,3.2,1.3s1.1,2,1.1,3.5v1h-6.8l0,0c0,1.1,0.2,1.9,0.7,2.6s1.2,1,2.1,1c0.7,0,1.2-0.1,1.7-0.3s0.9-0.4,1.3-0.8
			l0.8,1.3c-0.4,0.4-0.9,0.7-1.5,0.9S285.1,74.5,284.2,74.5z M283.9,65.1c-0.7,0-1.2,0.3-1.7,0.8s-0.7,1.2-0.8,2l0,0h4.8v-0.2
			c0-0.8-0.2-1.4-0.6-1.9S284.7,65.1,283.9,65.1z"/>
		<path style="fill:#333333;" d="M304.3,69.5c0,1.5-0.4,2.8-1.1,3.7s-1.7,1.4-3,1.4c-0.7,0-1.2-0.1-1.7-0.3s-0.9-0.5-1.3-1v5.2h-1.9
			V63.8h1.5l0.3,1.4c0.3-0.5,0.8-0.9,1.3-1.2s1.1-0.4,1.8-0.4c1.3,0,2.3,0.5,3.1,1.6s1.1,2.4,1.1,4.1V69.5z M302.4,69.3
			c0-1.2-0.2-2.2-0.7-3s-1.2-1.2-2.1-1.2c-0.6,0-1,0.1-1.4,0.4s-0.7,0.6-0.9,1v5.1c0.2,0.4,0.6,0.8,0.9,1s0.9,0.4,1.4,0.4
			c0.9,0,1.6-0.3,2.1-1s0.7-1.5,0.7-2.6V69.3z"/>
		<path style="fill:#333333;" d="M313.1,74.3c-0.1-0.3-0.1-0.6-0.2-0.8s-0.1-0.5-0.1-0.7c-0.4,0.5-0.8,0.9-1.4,1.3s-1.2,0.5-1.9,0.5
			c-1.1,0-1.9-0.3-2.5-0.8s-0.9-1.3-0.9-2.3c0-1,0.4-1.8,1.2-2.4s1.9-0.9,3.3-0.9h2.1v-1c0-0.6-0.2-1.1-0.6-1.5s-0.9-0.5-1.6-0.5
			c-0.6,0-1.1,0.2-1.5,0.5s-0.6,0.7-0.6,1.1l-1.8,0l0-0.1c0-0.8,0.3-1.5,1.1-2.1s1.8-1,3-1c1.2,0,2.2,0.3,2.9,0.9s1.1,1.5,1.1,2.6
			v5.1c0,0.4,0,0.7,0.1,1.1s0.1,0.7,0.2,1H313.1z M310,72.9c0.7,0,1.3-0.2,1.9-0.5s0.9-0.8,1.1-1.2v-1.7h-2.2
			c-0.8,0-1.4,0.2-1.9,0.6s-0.7,0.8-0.7,1.4c0,0.5,0.1,0.8,0.4,1.1S309.4,72.9,310,72.9z"/>
		<path style="fill:#333333;" d="M317.3,69.3c0-1.7,0.4-3.1,1.1-4.1s1.7-1.6,3-1.6c0.7,0,1.3,0.1,1.8,0.4s0.9,0.7,1.3,1.2l0.2-1.4
			h1.5v10.6c0,1.4-0.4,2.4-1.2,3.1s-1.9,1.1-3.4,1.1c-0.5,0-1.1-0.1-1.6-0.2s-1.1-0.3-1.6-0.6l0.3-1.5c0.4,0.2,0.8,0.4,1.3,0.5
			s1,0.2,1.5,0.2c0.9,0,1.6-0.2,2-0.6s0.6-1.1,0.6-1.9v-1.2c-0.3,0.4-0.8,0.8-1.2,1s-1,0.3-1.7,0.3c-1.3,0-2.3-0.5-3-1.4
			s-1.1-2.2-1.1-3.7V69.3z M319.2,69.5c0,1.1,0.2,1.9,0.7,2.6s1.1,1,2,1c0.6,0,1.1-0.1,1.5-0.4s0.7-0.6,1-1.1v-4.9
			c-0.2-0.4-0.6-0.8-1-1.1s-0.9-0.4-1.4-0.4c-0.9,0-1.6,0.4-2,1.1s-0.7,1.8-0.7,3V69.5z"/>
		<path style="fill:#333333;" d="M328.6,69c0-1.6,0.4-2.8,1.3-3.9s2-1.5,3.4-1.5c1.5,0,2.6,0.5,3.5,1.5s1.3,2.3,1.3,3.9v0.2
			c0,1.6-0.4,2.9-1.3,3.9s-2,1.5-3.5,1.5s-2.6-0.5-3.5-1.5s-1.3-2.3-1.3-3.9V69z M330.5,69.2c0,1.1,0.2,2,0.7,2.8s1.2,1.1,2.1,1.1
			c0.9,0,1.6-0.4,2.1-1.1s0.7-1.7,0.7-2.8V69c0-1.1-0.2-2-0.7-2.8s-1.2-1.1-2.1-1.1c-0.9,0-1.6,0.4-2.1,1.1s-0.7,1.7-0.7,2.8V69.2z"
			/>
		<path style="fill:#333333;" d="M348.6,70.4l0.3,1.3h0.1l2.6-8h2.1L349.3,76c-0.3,0.7-0.6,1.3-1.1,1.9s-1.2,0.8-2,0.8
			c-0.2,0-0.4,0-0.6-0.1s-0.4-0.1-0.6-0.1l0.2-1.5c0,0,0.1,0,0.3,0s0.4,0,0.5,0c0.4,0,0.7-0.2,1-0.5s0.5-0.8,0.7-1.2l0.5-1.1
			l-3.9-10.4h2.1L348.6,70.4z"/>
		<path style="fill:#333333;" d="M364.8,74.5c-1.5,0-2.7-0.5-3.5-1.5s-1.3-2.2-1.3-3.8v-0.4c0-1.5,0.4-2.8,1.3-3.8s1.9-1.5,3.2-1.5
			c1.4,0,2.5,0.4,3.2,1.3s1.1,2,1.1,3.5v1h-6.8l0,0c0,1.1,0.2,1.9,0.7,2.6s1.2,1,2.1,1c0.7,0,1.2-0.1,1.7-0.3s0.9-0.4,1.3-0.8
			l0.8,1.3c-0.4,0.4-0.9,0.7-1.5,0.9S365.6,74.5,364.8,74.5z M364.5,65.1c-0.7,0-1.2,0.3-1.7,0.8s-0.7,1.2-0.8,2l0,0h4.8v-0.2
			c0-0.8-0.2-1.4-0.6-1.9S365.2,65.1,364.5,65.1z"/>
		<path style="fill:#333333;" d="M372.6,63.8l0.1,1.6c0.4-0.6,0.8-1,1.3-1.3s1.1-0.5,1.8-0.5c1.1,0,2,0.3,2.6,1s0.9,1.7,0.9,3.1v6.7
			h-1.9v-6.6c0-0.9-0.2-1.6-0.6-2s-0.9-0.6-1.7-0.6c-0.6,0-1.1,0.1-1.5,0.4s-0.7,0.6-1,1v7.8h-1.9V63.8H372.6z"/>
		<path style="fill:#333333;" d="M385.7,71.2l0.2,0.7h0.1l0.2-0.7l2.4-7.5h2l-3.9,10.6h-1.5l-3.9-10.6h2L385.7,71.2z"/>
		<path style="fill:#333333;" d="M394.3,74.3h-1.9V63.8h1.9V74.3z M394.3,59.5h2.2l0,0.1l-2.6,2.5h-1.4L394.3,59.5z"/>
		<path style="fill:#333333;" d="M396.9,69c0-1.6,0.4-2.8,1.3-3.9s2-1.5,3.4-1.5c1.5,0,2.6,0.5,3.5,1.5s1.3,2.3,1.3,3.9v0.2
			c0,1.6-0.4,2.9-1.3,3.9s-2,1.5-3.5,1.5S399,74,398.1,73s-1.3-2.3-1.3-3.9V69z M398.8,69.2c0,1.1,0.2,2,0.7,2.8s1.2,1.1,2.1,1.1
			c0.9,0,1.6-0.4,2.1-1.1s0.7-1.7,0.7-2.8V69c0-1.1-0.2-2-0.7-2.8s-1.2-1.1-2.1-1.1c-0.9,0-1.6,0.4-2.1,1.1s-0.7,1.7-0.7,2.8V69.2z"
			/>
		<path style="fill:#333333;" d="M420.1,74.3c-0.1-0.3-0.1-0.6-0.2-0.8s-0.1-0.5-0.1-0.7c-0.4,0.5-0.8,0.9-1.4,1.3s-1.2,0.5-1.9,0.5
			c-1.1,0-1.9-0.3-2.5-0.8s-0.9-1.3-0.9-2.3c0-1,0.4-1.8,1.2-2.4s1.9-0.9,3.3-0.9h2.1v-1c0-0.6-0.2-1.1-0.6-1.5s-0.9-0.5-1.6-0.5
			c-0.6,0-1.1,0.2-1.5,0.5s-0.6,0.7-0.6,1.1l-1.8,0l0-0.1c0-0.8,0.3-1.5,1.1-2.1s1.8-1,3-1c1.2,0,2.2,0.3,2.9,0.9s1.1,1.5,1.1,2.6
			v5.1c0,0.4,0,0.7,0.1,1.1s0.1,0.7,0.2,1H420.1z M416.9,72.9c0.7,0,1.3-0.2,1.9-0.5s0.9-0.8,1.1-1.2v-1.7h-2.2
			c-0.8,0-1.4,0.2-1.9,0.6s-0.7,0.8-0.7,1.4c0,0.5,0.1,0.8,0.4,1.1S416.4,72.9,416.9,72.9z"/>
		<path style="fill:#333333;" d="M429.2,69.3c0-1.7,0.4-3.1,1.1-4.1s1.7-1.6,3.1-1.6c0.6,0,1.2,0.1,1.6,0.3s0.9,0.6,1.2,1v-5.8h1.9
			v15.2h-1.5l-0.3-1.3c-0.3,0.5-0.8,0.9-1.3,1.2s-1.1,0.4-1.8,0.4c-1.3,0-2.3-0.5-3-1.4s-1.1-2.2-1.1-3.7V69.3z M431.1,69.5
			c0,1.1,0.2,1.9,0.7,2.6s1.1,1,2,1c0.6,0,1.1-0.1,1.4-0.4s0.7-0.6,1-1.1v-4.9c-0.2-0.4-0.6-0.8-1-1s-0.9-0.4-1.4-0.4
			c-0.9,0-1.6,0.4-2,1.1s-0.7,1.8-0.7,3V69.5z"/>
		<path style="fill:#333333;" d="M440.5,69c0-1.6,0.4-2.8,1.3-3.9s2-1.5,3.4-1.5c1.5,0,2.6,0.5,3.5,1.5s1.3,2.3,1.3,3.9v0.2
			c0,1.6-0.4,2.9-1.3,3.9s-2,1.5-3.5,1.5s-2.6-0.5-3.5-1.5s-1.3-2.3-1.3-3.9V69z M442.5,69.2c0,1.1,0.2,2,0.7,2.8s1.2,1.1,2.1,1.1
			c0.9,0,1.6-0.4,2.1-1.1s0.7-1.7,0.7-2.8V69c0-1.1-0.2-2-0.7-2.8s-1.2-1.1-2.1-1.1c-0.9,0-1.6,0.4-2.1,1.1s-0.7,1.7-0.7,2.8V69.2z"
			/>
		<path style="fill:#333333;" d="M454.1,63.8l0.1,1.4c0.3-0.5,0.8-0.9,1.3-1.2s1.1-0.4,1.9-0.4s1.3,0.2,1.8,0.5s0.9,0.8,1.1,1.5
			c0.3-0.6,0.8-1.1,1.3-1.4s1.2-0.5,1.9-0.5c1.1,0,1.9,0.4,2.5,1.1s0.9,1.9,0.9,3.3v6.3h-1.9V68c0-1-0.2-1.8-0.5-2.2
			s-0.9-0.6-1.6-0.6c-0.7,0-1.2,0.2-1.6,0.7s-0.6,1-0.7,1.7v0.1v6.7h-1.9V68c0-1-0.2-1.7-0.6-2.2s-0.9-0.7-1.6-0.7
			c-0.6,0-1.1,0.1-1.4,0.4s-0.7,0.6-0.9,1v7.8h-1.9V63.8H454.1z"/>
		<path style="fill:#333333;" d="M471.9,61.1H470v-2h1.9V61.1z M471.9,74.3H470V63.8h1.9V74.3z"/>
		<path style="fill:#333333;" d="M479.1,73c0.6,0,1.1-0.2,1.6-0.6s0.7-0.9,0.7-1.5h1.7l0,0.1c0,0.9-0.4,1.7-1.2,2.4
			s-1.7,1.1-2.8,1.1c-1.5,0-2.6-0.5-3.4-1.5s-1.2-2.3-1.2-3.8v-0.4c0-1.5,0.4-2.7,1.2-3.8s2-1.5,3.4-1.5c1.2,0,2.1,0.4,2.9,1.1
			s1.1,1.6,1.1,2.7l0,0.1h-1.7c0-0.6-0.2-1.2-0.6-1.6s-0.9-0.7-1.6-0.7c-0.9,0-1.6,0.4-2.1,1.1s-0.6,1.6-0.6,2.7v0.4
			c0,1.1,0.2,2,0.6,2.7S478.1,73,479.1,73z"/>
		<path style="fill:#333333;" d="M487.4,61.1h-1.9v-2h1.9V61.1z M487.4,74.3h-1.9V63.8h1.9V74.3z"/>
		<path style="fill:#333333;" d="M492.5,74.3h-1.9V59.1h1.9V74.3z"/>
		<path style="fill:#333333;" d="M497.5,61.1h-1.9v-2h1.9V61.1z M497.5,74.3h-1.9V63.8h1.9V74.3z"/>
		<path style="fill:#333333;" d="M500,69c0-1.6,0.4-2.8,1.3-3.9s2-1.5,3.4-1.5c1.5,0,2.6,0.5,3.5,1.5s1.3,2.3,1.3,3.9v0.2
			c0,1.6-0.4,2.9-1.3,3.9s-2,1.5-3.5,1.5s-2.6-0.5-3.5-1.5s-1.3-2.3-1.3-3.9V69z M501.9,69.2c0,1.1,0.2,2,0.7,2.8s1.2,1.1,2.1,1.1
			c0.9,0,1.6-0.4,2.1-1.1s0.7-1.7,0.7-2.8V69c0-1.1-0.2-2-0.7-2.8s-1.2-1.1-2.1-1.1c-0.9,0-1.6,0.4-2.1,1.1s-0.7,1.7-0.7,2.8V69.2z"
			/>
	</g>
</g>
<g>
	<path style="fill:#CCCCCC;" d="M748.7,19.4l2.5-0.8l2.6,7.9l-2.5,0.8L748.7,19.4z"/>
	<path style="fill:#CCCCCC;" d="M744.9,28.6l2.5-0.8l2.6,7.9l-2.5,0.8L744.9,28.6z"/>
	<path style="fill:#CCCCCC;" d="M700.7,32.4c-0.3,2,0.3,4,1.6,5.6l1.9,2.4v21.9h2.6V42.4l1.9,1.3c0.4,0.3,1,0.3,1.5,0l3.2-2.1
		l3.2,2.1c0.4,0.3,1,0.3,1.5,0l3.2-2.1l3.2,2.1c0.4,0.3,1,0.3,1.5,0l3.2-2.1l3.2,2.1c0.4,0.3,1,0.3,1.5,0l3.2-2.1l2.6,1.7v39.9
		h-28.8v2.6h36.7c1.7,0,3.4-0.7,4.6-1.9c1.2-1.2,1.9-2.9,1.9-4.6V40c0-0.3-0.1-0.6-0.3-0.8l7.6-20.1c1-2.7,0.6-5.7-1-8.1
		c-1.6-2.3-4.2-3.7-7-3.7c-1.7,0-3.4,0.6-4.8,1.6c-1.4,1-2.5,2.4-3.1,4l-2.1,5.5l-2.4-2.4v-4.7c0-0.3-0.1-0.7-0.4-0.9
		s-0.6-0.4-0.9-0.4h-14.4c-0.7,0-1.3,0.6-1.3,1.3v2.2c-0.7-0.7-1.6-1-2.6-1.1c-1,0-1.9,0.3-2.7,0.9v-2.1c0-1.4-0.7-2.7-1.9-3.4
		c-1.2-0.7-2.7-0.7-3.9,0c-1.2,0.7-1.9,2-1.9,3.4v2.1c-0.7-0.6-1.6-0.9-2.5-0.9c-1.1,0-2.1,0.4-2.9,1.2c-0.7,0.8-1.2,1.8-1.2,2.9
		c0,1.1,0.4,2.1,1.1,2.9l1.2,1.3v0c-0.4,0.2-0.8,0.5-1.2,0.8l0,0l0,0c-0.3,0.3-0.6,0.7-0.7,1.1l-1.5-2.8l-2.3,1.2l3.4,6.3
		c-0.2,0.1-0.3,0.2-0.4,0.3c-0.1,0-0.1,0.1-0.2,0.1l-5.1-4.7l-1.8,1.9l5,4.6v0C701.2,30.3,700.8,31.3,700.7,32.4L700.7,32.4z
		 M728.3,38.9l-3.2,2.1l-3.2-2.1c-0.4-0.3-1-0.3-1.5,0l-3.2,2.1c0-0.1,0-0.2,0-0.4v0c0-1.9,0.9-3.6,2.4-4.7c1.5-1.1,3.5-1.4,5.2-0.9
		c1.8,0.6,3.2,1.9,3.8,3.7C728.6,38.7,728.5,38.8,728.3,38.9L728.3,38.9z M731.7,40.1L731.7,40.1c-0.2-2.8-1.7-5.3-4-6.7
		c-2.3-1.5-5.2-1.7-7.8-0.6v-8.5h11.8V40.1z M751.3,79.2c0,1-0.4,2-1.2,2.8c-0.7,0.7-1.7,1.2-2.8,1.2h-5.2V43.3l2.6-1.7l3.2,2.1
		c0.4,0.3,1,0.3,1.5,0l1.9-1.3L751.3,79.2z M747.8,13.7c0.4-1.1,1.2-2.1,2.1-2.8c1-0.7,2.2-1.1,3.4-1.1c1.9,0,3.7,1,4.8,2.5
		c1.2,1.7,1.4,3.8,0.7,5.7l-8.1,21.6l-2,1.3l-3.2-2.1c-0.4-0.3-1-0.3-1.5,0l-3.2,2.1l-2.7-1.8L747.8,13.7z M742.3,20.9l-6.9,18.5
		l-1,0.7V23.5l5.2-5.2L742.3,20.9z M726.5,12.4h11.8v2.6h-11.8V12.4z M725.7,17.7h10.7l-3.9,3.9h-10.7L725.7,17.7z M707.2,15.3
		c0.3-0.3,0.6-0.4,1-0.4c0.4,0,0.7,0.2,1,0.4l1.9,2c0.4,0.4,0.9,0.5,1.4,0.3c0.5-0.2,0.8-0.7,0.8-1.2v-5.2c0-0.3,0.1-0.7,0.3-0.9
		c0.2-0.2,0.6-0.4,0.9-0.4c0.3,0,0.7,0.1,0.9,0.4c0.2,0.2,0.4,0.6,0.3,0.9v5.2c0,0.5,0.3,1,0.8,1.2c0.5,0.2,1.1,0.1,1.4-0.3l1.9-2
		c0.6-0.5,1.4-0.5,2,0c0.6,0.6,0.6,1.5,0,2.1l-3.9,3.9l0,0l-0.6,0.6c-0.1,0.1-0.2,0.2-0.3,0.4c0,0,0,0.1,0,0.1
		c0,0.1-0.1,0.2-0.1,0.3c0,0,0,0.1,0,0.1v11.6c-0.3,0.3-0.6,0.6-0.8,0.9l-2.5-5.3c-0.9-1.8-2.6-3.2-4.5-3.7
		c-0.5-0.1-0.9-0.2-1.4-0.2l-0.3-0.4c-0.3-0.3-0.5-0.5-0.5-0.6c-0.3-0.4-0.5-0.9-0.4-1.3c0-0.3,0.2-0.5,0.4-0.7l0,0l0,0h0
		c0.5-0.5,1.2-0.5,1.8-0.2c0.6,0.4,1.3,0.3,1.7-0.2c0.4-0.5,0.4-1.3-0.1-1.7l-3.5-3.6C706.7,16.8,706.7,15.9,707.2,15.3L707.2,15.3z
		 M703.3,32.7c0.2-1.3,0.9-2.4,1.9-3.1c1.1-0.7,2.4-0.9,3.6-0.6c1.2,0.3,2.3,1.1,2.8,2.3l3.3,7.1h0c-0.1,0.3-0.1,0.6-0.2,0.9
		l-0.7-0.5l0,0c-0.4-0.3-1-0.3-1.5,0l-3.2,2.1l-2.9-1.9l-0.3-0.4l3.4-2.6L708,34l-3.4,2.6l-0.3-0.4C703.5,35.3,703.1,34,703.3,32.7
		L703.3,32.7z"/>
	<path style="fill:#CCCCCC;" d="M691.3,82.5c0.5,1,1.2,1.8,2.2,2.4c0.9,0.6,2,0.9,3.1,0.9c0.9,0,1.8-0.2,2.6-0.6l1.1-0.5l1.1,0.5v0
		c0.8,0.4,1.7,0.6,2.6,0.6c1.1,0,2.2-0.3,3.1-0.9c0.9-0.6,1.7-1.4,2.2-2.4l0.5-0.9h0c1.5-3.1,2.3-6.5,2.3-9.9c0-1.8-0.7-3.6-2-4.9
		c-1.3-1.3-3-2-4.9-2c-1.3,0-2.5,0.4-3.6,1v-1c0-1.4-0.6-2.7-1.5-3.7c-1-1-2.3-1.5-3.7-1.5v2.6c0.7,0,1.4,0.3,1.9,0.8
		c0.5,0.5,0.8,1.2,0.8,1.9v1c-1.1-0.7-2.3-1-3.6-1c-1.8,0-3.6,0.7-4.9,2c-1.3,1.3-2,3-2,4.9c0,3.4,0.8,6.8,2.3,9.9L691.3,82.5z
		 M695.3,67.5c1.1,0,2.2,0.4,3,1.2l1,1h0c0.5,0.5,1.3,0.5,1.9,0l1-1h0c0.8-0.8,1.9-1.2,3-1.2c1.1,0,2.2,0.4,3,1.2
		c0.8,0.8,1.2,1.9,1.2,3c0,3-0.7,6-2.1,8.7l-0.5,0.9c-0.3,0.5-0.7,1-1.2,1.3c-0.5,0.3-1.1,0.5-1.7,0.5c-0.5,0-1-0.1-1.5-0.3
		l-1.6-0.8c-0.4-0.2-0.8-0.2-1.2,0l-1.6,0.8c-0.5,0.2-1,0.3-1.5,0.3c-0.6,0-1.2-0.2-1.7-0.5c-0.5-0.3-0.9-0.8-1.2-1.3l-0.5-0.9
		c-1.4-2.7-2.1-5.7-2.1-8.7c0-1.1,0.4-2.2,1.2-3C693.1,67.9,694.2,67.5,695.3,67.5L695.3,67.5z"/>
</g>
<g>
	<path style="fill:#CCCCCC;" d="M837.2,41.3h6.5v2.6h-6.5V41.3z"/>
	<path style="fill:#CCCCCC;" d="M837.2,72.5h13v2.6h-13V72.5z"/>
	<path style="fill:#CCCCCC;" d="M837.2,67.3h7.8v2.6h-7.8V67.3z"/>
	<path style="fill:#CCCCCC;" d="M869.7,41.3h9.1v2.6h-9.1V41.3z"/>
	<path style="fill:#CCCCCC;" d="M868.4,67.3h7.8v2.6h-7.8V67.3z"/>
	<path style="fill:#CCCCCC;" d="M868.4,72.5h10.4v2.6h-10.4V72.5z"/>
	<path style="fill:#CCCCCC;" d="M900.8,51.7h-2.6v-6.5c0-2.1-1.8-3.9-3.9-3.9h-2.6c-0.5,0-1,0.1-1.5,0.3
		c-2.4-5.6-5.9-10.8-10.2-15.1v-5.4l1.5-1.5c0.1-0.1,0.2-0.2,0.4-0.3l4.4,8.7c0.7,1.4,2.4,1.9,3.7,1.2c1.1-0.5,1.7-1.7,1.5-2.8
		l-0.9-7.5c2-0.8,3-3.1,2.2-5.1c-0.6-1.5-2-2.4-3.6-2.4h-22.1c-2.9,0-5.2,2.3-5.2,5.2v1.3c0,2.1,1.8,3.9,3.9,3.9h1.3v4.7l-1.2,1.2
		c-2.6-4.1-7-6.7-11.8-7.1v-9.2c0-2.1-1.8-3.9-3.9-3.9H845c-2.1,0-3.9,1.8-3.9,3.9v9.1c-8.1,0.7-14.3,7.4-14.3,15.5v45.4
		c0,2.1,1.8,3.9,3.9,3.9h70.1c2.1,0,3.9-1.8,3.9-3.9v-26C904.7,53.4,903,51.7,900.8,51.7L900.8,51.7z M890.4,45.2
		c0-0.7,0.6-1.3,1.3-1.3h2.6c0.7,0,1.3,0.6,1.3,1.3v6.5h-5.2V45.2z M888.9,27c-0.1,0.1-0.2,0.1-0.3,0c0,0,0,0,0,0l-3.9-7.7h3.2
		l0.9,7.6C888.9,26.9,888.9,26.9,888.9,27L888.9,27z M865.8,19.2c-0.7,0-1.3-0.6-1.3-1.3v-1.3c0-1.4,1.2-2.6,2.6-2.6h22.1
		c0.7,0,1.3,0.6,1.3,1.3c0,0.7-0.6,1.3-1.3,1.3h-6.7c-1,0-2,0.4-2.8,1.1l-1.5,1.5H865.8z M877.5,21.8v3.9h-7.8v-3.9H877.5z
		 M843.7,11.5c0-0.7,0.6-1.3,1.3-1.3h5.2c0.7,0,1.3,0.6,1.3,1.3V14h-7.8V11.5z M843.7,16.6h7.8v3.9h-7.8V16.6z M859.3,38.5
		c-0.9,2.7-1.3,5.5-1.3,8.4v11c-1.2,0.7-2.8,0.3-3.5-0.9c-0.2-0.4-0.4-0.8-0.4-1.3V37.4c0-1.4,1.2-2.6,2.6-2.6
		c1.4,0,2.6,1.2,2.6,2.6V38.5z M856.7,32.2c-2.9,0-5.2,2.3-5.2,5.2v18.2c0,2.9,2.3,5.2,5.2,5.2c0.4,0,0.9,0,1.3-0.2v4.3l-3.3-0.9
		c-3.4-0.9-5.7-4-5.7-7.5V40.7c0-4.7-3.8-8.4-8.4-8.4S832,36,832,40.7v35.7c0,2.1,1.8,3.9,3.9,3.9H858v1.3c0,0.4,0.1,0.9,0.2,1.3
		h-27.5c-0.7,0-1.3-0.6-1.3-1.3V36.1c0-7.2,5.8-13,13-13h10.4c4.7,0,9,2.5,11.3,6.6c-1.2,1.5-2.3,3.1-3.1,4.8
		C860,33.1,858.4,32.2,856.7,32.2L856.7,32.2z M854,66.5l4,1.1v10.1h-22.1c-0.7,0-1.3-0.6-1.3-1.3V40.7c0-3.2,2.6-5.8,5.8-5.8
		s5.8,2.6,5.8,5.8v15.8C846.3,61.1,849.4,65.2,854,66.5L854,66.5z M861.9,82.8c-0.7,0-1.3-0.6-1.3-1.3V46.9c0-6.5,2.6-12.8,7.2-17.4
		l1.1-1.1h9.3c4.3,4.4,7.7,9.6,10,15.2c-0.2,0.5-0.4,1.1-0.4,1.6v6.4c-1-4.5-2.7-8.8-4.9-12.9l-1-1.9c-0.7-1.2-2-2-3.4-2h-4.9
		c-5.7,0-10.4,4.7-10.4,10.4v31.2c0,2.1,1.8,3.9,3.9,3.9h14.3v1.3c0,0.4,0.1,0.9,0.2,1.3L861.9,82.8L861.9,82.8z M881.4,55.6v22.1
		h-14.3c-0.7,0-1.3-0.6-1.3-1.3V45.2c0-4.3,3.5-7.8,7.8-7.8h4.9c0.5,0,0.9,0.3,1.1,0.7l1,1.9c2,3.7,3.5,7.6,4.5,11.7
		C883.1,51.7,881.4,53.5,881.4,55.6L881.4,55.6z M902.1,81.5c0,0.7-0.6,1.3-1.3,1.3h-15.6c-0.7,0-1.3-0.6-1.3-1.3v-26
		c0-0.7,0.6-1.3,1.3-1.3h15.6c0.7,0,1.3,0.6,1.3,1.3V81.5z"/>
	<path style="fill:#CCCCCC;" d="M887.8,58.2h10.4v2.6h-10.4V58.2z"/>
	<path style="fill:#CCCCCC;" d="M895.6,76.4h2.6V79h-2.6V76.4z"/>
	<path style="fill:#CCCCCC;" d="M887.8,76.4h5.2V79h-5.2V76.4z"/>
	<path style="fill:#CCCCCC;" d="M893,63.4c-2.9,0-5.2,2.3-5.2,5.2s2.3,5.2,5.2,5.2c2.9,0,5.2-2.3,5.2-5.2S895.9,63.4,893,63.4z
		 M893,71.2c-1.4,0-2.6-1.2-2.6-2.6s1.2-2.6,2.6-2.6s2.6,1.2,2.6,2.6S894.5,71.2,893,71.2z"/>
</g>
<g>
	<path style="fill:#CCCCCC;" d="M1049,59h-1.4v-1.4c0-2.3-1.9-4.2-4.2-4.2h-1.5c-1.3-11-18.1-13.8-18.9-13.9c-0.5-0.1-1,0.1-1.3,0.5
		c-0.3,0.4-0.4,0.9-0.2,1.4c0.8,1.9,1.6,3.7,1.3,4.3c-0.3,0.7-2.4,1.5-4.4,2.1c-4.6,1.6-6.3,4-6.8,5.5h-0.3l5.5-36v-0.1
		c0,0,0-0.1,0-0.1v-1.1c0-1.8,0.4-3.6,1.2-5.3c0.2-0.4,0.2-0.9-0.1-1.3c-0.3-0.4-0.7-0.7-1.2-0.7l-39,0c-0.5,0-0.9,0.3-1.2,0.7
		c-0.3,0.4-0.3,0.9-0.1,1.3c0.8,1.6,1.2,3.5,1.2,5.3v1.1c0,0,0,0.1,0,0.1v0.1l1.7,11c-0.1,0-0.2,0-0.3,0c-3.1,0-5.6,2.5-5.6,5.6v3.8
		c0,1.5-0.3,3.1-0.9,4.5h-0.5c-1.5,0-2.8,1.3-2.8,2.8v5.6c0,0.7,0.3,1.3,0.7,1.8l-2.1,2.8c-0.9,1.2-1.4,2.7-1.4,4.2v23.2
		c0,0.8,0.6,1.4,1.4,1.4h36.2c1.1,0,2-0.4,2.8-1.1c1.2,0.7,2.6,1.1,4.2,1.1h30.6c4.6,0,8.3-3.7,8.3-8.3V60.4
		C1050.4,59.6,1049.7,59,1049,59L1049,59z M1044.8,57.6V59h-36.2v-1.4c0-0.8,0.6-1.4,1.4-1.4h33.4
		C1044.2,56.2,1044.8,56.9,1044.8,57.6z M1019.4,50.6c3.1-1.1,5.2-1.9,6-3.6c0.5-1.2,0.3-2.4-0.3-4.1c4.3,1.1,12.9,4.1,14,10.6
		h-24.3C1015.5,52.6,1016.8,51.5,1019.4,50.6L1019.4,50.6z M1014.9,11.7c-0.4,1.3-0.7,2.8-0.7,4.2h-33.4c0-1.4-0.3-2.8-0.7-4.2
		H1014.9L1014.9,11.7z M981,18.7h32.9l-5.4,35.1c-1.6,0.6-2.7,2.1-2.7,3.9V59h-1.4c-0.8,0-1.4,0.6-1.4,1.4v9.7h-11.1V59.5
		c0-1.5-0.5-3-1.4-4.2l-2.1-2.8c0.4-0.5,0.7-1.1,0.7-1.8v-5.6c0-1.5-1.3-2.8-2.8-2.8h-0.5c-0.6-1.4-0.9-3-0.9-4.5V34
		c0-1.8-0.9-3.5-2.3-4.5L981,18.7z M989.1,74.3H978V63.2h11.1V74.3z M976.6,37.8V34c0-1.5,1.3-2.8,2.8-2.8s2.8,1.3,2.8,2.8v3.8
		c0,1.5,0.3,3,0.7,4.5h-7C976.4,40.9,976.6,39.4,976.6,37.8L976.6,37.8z M972.4,45.1h13.9v5.6h-13.9V45.1z M969.7,59.5
		c0-0.9,0.3-1.8,0.8-2.5l2.6-3.5h12.5l2.6,3.5c0.5,0.7,0.8,1.6,0.8,2.5v0.9h-12.5c-0.8,0-1.4,0.6-1.4,1.4v13.9
		c0,0.8,0.6,1.4,1.4,1.4h12.5v4.2h-19.5V59.5z M1000.3,81.3v-1.4c0-0.8-0.6-1.4-1.4-1.4h-2.8c-0.8,0-1.4,0.6-1.4,1.4v1.4h-2.8v-8.3
		h11.1v2.8c0,2.1,0.8,4,2,5.4c-0.2,0.1-0.4,0.2-0.6,0.2L1000.3,81.3z M1047.6,75.7c0,3.1-2.5,5.6-5.6,5.6h-30.6
		c-3.1,0-5.6-2.5-5.6-5.6V61.8h41.7V75.7z"/>
	<path style="fill:#CCCCCC;" d="M997.5,47.9c4.6,0,8.3-3.7,8.3-8.3s-3.7-8.3-8.3-8.3c-4.6,0-8.3,3.7-8.3,8.3S992.9,47.9,997.5,47.9z
		 M997.5,34c3.1,0,5.6,2.5,5.6,5.6c0,3.1-2.5,5.6-5.6,5.6c-3.1,0-5.6-2.5-5.6-5.6C991.9,36.5,994.4,34,997.5,34z"/>
	<path style="fill:#CCCCCC;" d="M1034.7,67.9c-0.1,0-2.3-0.1-4.4,0.8c-0.9-2.1-2.5-3.6-2.6-3.7c-0.5-0.5-1.3-0.5-1.9,0
		c-0.1,0.1-1.7,1.5-2.6,3.7c-2.2-0.9-4.3-0.8-4.4-0.8c-0.7,0-1.3,0.6-1.3,1.3c0,0.2-0.2,4.4,2.4,7c1.8,1.8,3.9,2.8,5.6,2.8
		c0.5,0,0.9-0.1,1.3-0.2c0.4,0.2,0.8,0.2,1.3,0.2c1.7,0,3.8-1,5.6-2.8c2.6-2.6,2.4-6.8,2.4-7C1035.9,68.5,1035.4,67.9,1034.7,67.9
		L1034.7,67.9z M1026.7,68.1c0.6,0.8,1.4,2.1,1.4,3.5c0,2.7-1,4.2-1.4,4.2c-0.3,0-1.4-1.5-1.4-4.2
		C1025.3,70.2,1026.1,68.9,1026.7,68.1z M1020.3,70.7c0.7,0.1,1.5,0.3,2.2,0.7c0,0.1,0,0.1,0,0.2c0,1.4,0.2,2.7,0.6,3.8
		c-0.4-0.3-0.9-0.7-1.4-1.1C1020.8,73.2,1020.5,71.8,1020.3,70.7L1020.3,70.7z M1031.6,74.2c-0.5,0.5-0.9,0.8-1.4,1.1
		c0.4-1.1,0.6-2.4,0.6-3.8c0-0.1,0-0.1,0-0.2c0.8-0.4,1.6-0.6,2.2-0.7C1033,71.8,1032.6,73.2,1031.6,74.2L1031.6,74.2z"/>
</g>
</svg>
