<?xml version="1.0" encoding="utf-8"?>
<!-- Generator: Adobe Illustrator 18.0.0, SVG Export Plug-In . SVG Version: 6.00 Build 0)  -->
<!DOCTYPE svg PUBLIC "-//W3C//DTD SVG 1.1//EN" "http://www.w3.org/Graphics/SVG/1.1/DTD/svg11.dtd" [
	<!ENTITY ns_extend "http://ns.adobe.com/Extensibility/1.0/">
	<!ENTITY ns_ai "http://ns.adobe.com/AdobeIllustrator/10.0/">
	<!ENTITY ns_graphs "http://ns.adobe.com/Graphs/1.0/">
	<!ENTITY ns_vars "http://ns.adobe.com/Variables/1.0/">
	<!ENTITY ns_imrep "http://ns.adobe.com/ImageReplacement/1.0/">
	<!ENTITY ns_sfw "http://ns.adobe.com/SaveForWeb/1.0/">
	<!ENTITY ns_custom "http://ns.adobe.com/GenericCustomNamespace/1.0/">
	<!ENTITY ns_adobe_xpath "http://ns.adobe.com/XPath/1.0/">
]>
<svg version="1.1" xmlns:x="&ns_extend;" xmlns:i="&ns_ai;" xmlns:graph="&ns_graphs;"
	 xmlns="http://www.w3.org/2000/svg" xmlns:xlink="http://www.w3.org/1999/xlink" x="0px" y="0px" viewBox="0 0 431 172"
	 enable-background="new 0 0 431 172" xml:space="preserve">
<metadata>
	<sfw  xmlns="&ns_sfw;">
		<slices></slices>
		<sliceSourceBounds  width="2368.7" height="456.5" x="-539.8" y="-454.3" bottomLeftOrigin="true"></sliceSourceBounds>
	</sfw>
</metadata>
<g id="Capa_1">
	<g>
		<path fill="#FFFFFF" d="M2.5,34.7V6.3h9.3c3.3,0,6,0.7,7.8,2s2.8,3.3,2.8,5.8c0,1.3-0.3,2.5-1,3.5c-0.7,1-1.7,1.8-3,2.3
			c1.8,0.3,3.1,1.1,4,2.3s1.3,2.6,1.3,4.2c0,2.7-0.9,4.8-2.7,6.2s-4.3,2.1-7.6,2.1H2.5z M8.2,18.2H12c1.5,0,2.7-0.3,3.5-0.9
			s1.2-1.5,1.2-2.7c0-1.3-0.4-2.3-1.2-2.9c-0.8-0.6-2.1-0.9-3.7-0.9H8.2V18.2z M8.2,22.1v8.2h5.3c1.5,0,2.7-0.3,3.5-1
			c0.8-0.7,1.2-1.6,1.2-2.9c0-1.4-0.4-2.4-1.2-3.2s-2-1.1-3.5-1.1H8.2z"/>
		<path fill="#FFFFFF" d="M36.7,35.1c-3.2,0-5.6-1-7.4-2.9c-1.8-1.9-2.7-4.4-2.7-7.5v-0.8c0-3.2,0.9-5.8,2.6-7.8s4.1-3,7.1-3
			c2.8,0,5,0.9,6.5,2.6c1.5,1.7,2.3,4.1,2.3,7v2.9H32.6l-0.1,0.1c0.1,1.4,0.5,2.6,1.3,3.5c0.8,0.9,2,1.3,3.5,1.3
			c1.3,0,2.4-0.1,3.3-0.4c0.9-0.3,1.8-0.7,2.8-1.2l1.5,3.5c-0.8,0.7-2,1.3-3.4,1.7S38.4,35.1,36.7,35.1z M36.4,17.6
			c-1.1,0-2,0.4-2.6,1.2c-0.6,0.8-1,1.8-1.1,3.1l0,0.1h7v-0.4c0-1.2-0.3-2.2-0.8-2.9S37.5,17.6,36.4,17.6z"/>
		<path fill="#FFFFFF" d="M53.7,13.6l0.3,3c0.7-1.1,1.6-1.9,2.6-2.5c1-0.6,2.2-0.9,3.5-0.9c2.1,0,3.8,0.7,5,2.1
			c1.2,1.4,1.8,3.5,1.8,6.5v12.9h-5.7V21.8c0-1.5-0.3-2.6-0.8-3.2s-1.3-0.9-2.4-0.9c-0.8,0-1.6,0.2-2.2,0.5s-1.2,0.8-1.6,1.3v15.3
			h-5.7V13.6H53.7z"/>
		<path fill="#FFFFFF" d="M80.2,35.1c-3.2,0-5.6-1-7.4-2.9c-1.8-1.9-2.7-4.4-2.7-7.5v-0.8c0-3.2,0.9-5.8,2.6-7.8s4.1-3,7.1-3
			c2.8,0,5,0.9,6.5,2.6c1.5,1.7,2.3,4.1,2.3,7v2.9H76.1L76,25.9c0.1,1.4,0.5,2.6,1.3,3.5c0.8,0.9,2,1.3,3.5,1.3
			c1.3,0,2.4-0.1,3.3-0.4c0.9-0.3,1.8-0.7,2.8-1.2l1.5,3.5c-0.8,0.7-2,1.3-3.4,1.7S81.9,35.1,80.2,35.1z M79.9,17.6
			c-1.1,0-2,0.4-2.6,1.2c-0.6,0.8-1,1.8-1.1,3.1l0,0.1h7v-0.4c0-1.2-0.3-2.2-0.8-2.9S81,17.6,79.9,17.6z"/>
		<path fill="#FFFFFF" d="M93.3,34.7V17.6h-3.1v-4h3.1v-1.4c0-2.7,0.8-4.7,2.4-6.1s3.9-2.2,6.8-2.2c1,0,2,0.1,3,0.3
			c1,0.2,2.1,0.5,3.4,0.9l-0.8,4.5c-1-0.3-1.8-0.5-2.6-0.7c-0.8-0.2-1.7-0.2-2.7-0.2c-1.3,0-2.3,0.3-3,0.9c-0.7,0.6-1,1.5-1,2.6v1.4
			h4.2v4H99v17.1H93.3z M111.7,34.7H106V13.6h5.7V34.7z"/>
		<path fill="#FFFFFF" d="M125.2,30.7c1,0,1.8-0.3,2.4-0.9s0.9-1.4,0.9-2.4h5.2l0,0.1c0.1,2.1-0.7,3.9-2.4,5.4s-3.7,2.2-6.1,2.2
			c-3.1,0-5.5-1-7.2-3c-1.7-2-2.6-4.6-2.6-7.7v-0.6c0-3.1,0.8-5.7,2.5-7.7s4.1-3,7.2-3c2.6,0,4.7,0.7,6.2,2.2
			c1.6,1.5,2.3,3.4,2.3,5.9l0,0.1h-5.2c0-1.1-0.3-2-0.9-2.7c-0.6-0.7-1.4-1.1-2.4-1.1c-1.5,0-2.5,0.6-3.1,1.8
			c-0.6,1.2-0.9,2.7-0.9,4.5v0.6c0,1.9,0.3,3.4,0.9,4.6C122.7,30.1,123.7,30.7,125.2,30.7z"/>
		<path fill="#FFFFFF" d="M143,8.5h-5.7V4.2h5.7V8.5z M143,34.7h-5.7V13.6h5.7V34.7z"/>
		<path fill="#FFFFFF" d="M146.8,23.9c0-3.2,0.9-5.7,2.6-7.7s4.2-3,7.3-3c3.1,0,5.6,1,7.3,3c1.8,2,2.7,4.6,2.7,7.8v0.4
			c0,3.2-0.9,5.8-2.6,7.8c-1.8,2-4.2,3-7.3,3c-3.1,0-5.6-1-7.3-3c-1.8-2-2.6-4.6-2.6-7.8V23.9z M152.5,24.3c0,1.9,0.3,3.5,1,4.6
			c0.7,1.2,1.8,1.7,3.3,1.7c1.5,0,2.5-0.6,3.2-1.8s1-2.7,1-4.6v-0.4c0-1.9-0.3-3.4-1-4.6c-0.7-1.2-1.8-1.8-3.3-1.8
			c-1.5,0-2.5,0.6-3.2,1.8s-1,2.7-1,4.6V24.3z"/>
		<path fill="#FFFFFF" d="M181.7,28.8c0-0.6-0.3-1.2-0.9-1.6s-1.7-0.8-3.4-1.2c-2.5-0.5-4.4-1.2-5.6-2.2c-1.3-1-1.9-2.4-1.9-4.1
			c0-1.8,0.8-3.4,2.3-4.6c1.5-1.3,3.6-1.9,6.1-1.9c2.7,0,4.8,0.6,6.4,1.9c1.6,1.3,2.4,2.9,2.3,4.8l0,0.1h-5.5c0-0.8-0.3-1.5-0.8-2.1
			s-1.3-0.8-2.4-0.8c-0.9,0-1.6,0.2-2.2,0.7c-0.5,0.5-0.8,1-0.8,1.7c0,0.7,0.3,1.2,0.8,1.6c0.6,0.4,1.7,0.8,3.4,1.1
			c2.6,0.5,4.5,1.3,5.8,2.3s1.9,2.4,1.9,4.2c0,1.9-0.8,3.5-2.4,4.7c-1.6,1.2-3.8,1.8-6.4,1.8c-2.8,0-5-0.7-6.7-2.1
			c-1.6-1.4-2.4-3-2.3-4.9l0-0.1h5.2c0,1.1,0.4,2,1.1,2.5s1.6,0.8,2.8,0.8c1.1,0,1.9-0.2,2.4-0.6C181.4,30.1,181.7,29.6,181.7,28.8z
			"/>
		<path fill="#FFFFFF" d="M210,35.1c-3.2,0-5.6-1-7.4-2.9c-1.8-1.9-2.7-4.4-2.7-7.5v-0.8c0-3.2,0.9-5.8,2.6-7.8s4.1-3,7.1-3
			c2.8,0,5,0.9,6.5,2.6c1.5,1.7,2.3,4.1,2.3,7v2.9h-12.6l-0.1,0.1c0.1,1.4,0.5,2.6,1.3,3.5c0.8,0.9,2,1.3,3.5,1.3
			c1.3,0,2.4-0.1,3.3-0.4c0.9-0.3,1.8-0.7,2.8-1.2l1.5,3.5c-0.8,0.7-2,1.3-3.4,1.7S211.7,35.1,210,35.1z M209.6,17.6
			c-1.1,0-2,0.4-2.6,1.2c-0.6,0.8-1,1.8-1.1,3.1l0,0.1h7v-0.4c0-1.2-0.3-2.2-0.8-2.9S210.8,17.6,209.6,17.6z"/>
		<path fill="#FFFFFF" d="M229.7,20.3h0.1l3.2-6.7h6.4L233.2,24l6.6,10.7h-6.4l-3.5-7l-3.5,7H220l6.6-10.7l-6.4-10.4h6.4L229.7,20.3
			z"/>
		<path fill="#FFFFFF" d="M250.6,30.7c1,0,1.8-0.3,2.4-0.9s0.9-1.4,0.9-2.4h5.2l0,0.1c0.1,2.1-0.7,3.9-2.4,5.4s-3.7,2.2-6.1,2.2
			c-3.1,0-5.5-1-7.2-3c-1.7-2-2.6-4.6-2.6-7.7v-0.6c0-3.1,0.8-5.7,2.5-7.7s4.1-3,7.2-3c2.6,0,4.7,0.7,6.2,2.2
			c1.6,1.5,2.3,3.4,2.3,5.9l0,0.1h-5.2c0-1.1-0.3-2-0.9-2.7c-0.6-0.7-1.4-1.1-2.4-1.1c-1.5,0-2.5,0.6-3.1,1.8
			c-0.6,1.2-0.9,2.7-0.9,4.5v0.6c0,1.9,0.3,3.4,0.9,4.6C248.1,30.1,249.1,30.7,250.6,30.7z"/>
		<path fill="#FFFFFF" d="M268.4,34.7h-5.7V4.2h5.7V34.7z"/>
		<path fill="#FFFFFF" d="M286.1,31.6c-0.7,1.1-1.5,2-2.5,2.6c-1,0.6-2.2,0.9-3.5,0.9c-2.2,0-4-0.8-5.2-2.3c-1.3-1.5-1.9-3.9-1.9-7
			V13.6h5.7v12.3c0,1.8,0.3,3.1,0.8,3.8c0.5,0.7,1.3,1,2.3,1c0.9,0,1.7-0.1,2.3-0.4c0.7-0.3,1.2-0.7,1.6-1.3V13.6h5.7v21.1h-4.7
			L286.1,31.6z"/>
		<path fill="#FFFFFF" d="M307.1,28.8c0-0.6-0.3-1.2-0.9-1.6s-1.7-0.8-3.4-1.2c-2.5-0.5-4.4-1.2-5.6-2.2c-1.3-1-1.9-2.4-1.9-4.1
			c0-1.8,0.8-3.4,2.3-4.6c1.5-1.3,3.6-1.9,6.1-1.9c2.7,0,4.8,0.6,6.4,1.9c1.6,1.3,2.4,2.9,2.3,4.8l0,0.1h-5.5c0-0.8-0.3-1.5-0.8-2.1
			s-1.3-0.8-2.4-0.8c-0.9,0-1.6,0.2-2.2,0.7c-0.5,0.5-0.8,1-0.8,1.7c0,0.7,0.3,1.2,0.8,1.6c0.6,0.4,1.7,0.8,3.4,1.1
			c2.6,0.5,4.5,1.3,5.8,2.3s1.9,2.4,1.9,4.2c0,1.9-0.8,3.5-2.4,4.7c-1.6,1.2-3.8,1.8-6.4,1.8c-2.8,0-5-0.7-6.7-2.1
			c-1.6-1.4-2.4-3-2.3-4.9l0-0.1h5.2c0,1.1,0.4,2,1.1,2.5s1.6,0.8,2.8,0.8c1.1,0,1.9-0.2,2.4-0.6C306.9,30.1,307.1,29.6,307.1,28.8z
			"/>
		<path fill="#FFFFFF" d="M322.3,8.5h-5.7V4.2h5.7V8.5z M322.3,34.7h-5.7V13.6h5.7V34.7z"/>
		<path fill="#FFFFFF" d="M334.6,26.8l0.4,2h0.1l0.4-2l3.5-13.3h6l-7.2,21.1h-5.4l-7.2-21.1h6L334.6,26.8z"/>
		<path fill="#FFFFFF" d="M346.3,23.9c0-3.2,0.9-5.7,2.6-7.7s4.2-3,7.3-3c3.1,0,5.6,1,7.3,3c1.8,2,2.7,4.6,2.7,7.8v0.4
			c0,3.2-0.9,5.8-2.6,7.8c-1.8,2-4.2,3-7.3,3c-3.1,0-5.6-1-7.3-3c-1.8-2-2.6-4.6-2.6-7.8V23.9z M352,24.3c0,1.9,0.3,3.5,1,4.6
			c0.7,1.2,1.8,1.7,3.3,1.7c1.5,0,2.5-0.6,3.2-1.8s1-2.7,1-4.6v-0.4c0-1.9-0.3-3.4-1-4.6c-0.7-1.2-1.8-1.8-3.3-1.8
			c-1.5,0-2.5,0.6-3.2,1.8s-1,2.7-1,4.6V24.3z"/>
		<path fill="#FFFFFF" d="M381.2,28.8c0-0.6-0.3-1.2-0.9-1.6s-1.7-0.8-3.4-1.2c-2.5-0.5-4.4-1.2-5.6-2.2c-1.3-1-1.9-2.4-1.9-4.1
			c0-1.8,0.8-3.4,2.3-4.6c1.5-1.3,3.6-1.9,6.1-1.9c2.7,0,4.8,0.6,6.4,1.9c1.6,1.3,2.4,2.9,2.3,4.8l0,0.1h-5.5c0-0.8-0.3-1.5-0.8-2.1
			s-1.3-0.8-2.4-0.8c-0.9,0-1.6,0.2-2.2,0.7c-0.5,0.5-0.8,1-0.8,1.7c0,0.7,0.3,1.2,0.8,1.6c0.6,0.4,1.7,0.8,3.4,1.1
			c2.6,0.5,4.5,1.3,5.8,2.3s1.9,2.4,1.9,4.2c0,1.9-0.8,3.5-2.4,4.7c-1.6,1.2-3.8,1.8-6.4,1.8c-2.8,0-5-0.7-6.7-2.1
			c-1.6-1.4-2.4-3-2.3-4.9l0-0.1h5.2c0,1.1,0.4,2,1.1,2.5s1.6,0.8,2.8,0.8c1.1,0,1.9-0.2,2.4-0.6C380.9,30.1,381.2,29.6,381.2,28.8z
			"/>
		<path fill="#FFFFFF" d="M9.7,67.8L9.9,69h0.1l4-13.4h6.1l-8.6,24.3c-0.6,1.5-1.4,2.8-2.4,3.8c-1,1-2.6,1.6-4.6,1.6
			c-0.5,0-0.9,0-1.3-0.1s-0.9-0.2-1.5-0.3l0.7-4.2c0.2,0,0.4,0.1,0.5,0.1s0.4,0,0.5,0c0.9,0,1.7-0.2,2.2-0.7s0.9-1,1.2-1.7l0.7-1.6
			L0,55.6h6.1L9.7,67.8z"/>
		<path fill="#FFFFFF" d="M31.6,66.3c0-3.3,0.7-6,2.2-8.1c1.4-2,3.5-3.1,6.1-3.1c1.1,0,2,0.2,2.9,0.7c0.8,0.5,1.6,1.1,2.2,2V46.2
			h5.7v30.5h-4.9l-0.5-2.6c-0.7,1-1.5,1.7-2.4,2.2c-0.9,0.5-2,0.8-3.1,0.8c-2.6,0-4.6-1-6-2.9c-1.4-1.9-2.2-4.4-2.2-7.5V66.3z
			 M37.3,66.7c0,1.8,0.3,3.3,0.9,4.4s1.6,1.6,3,1.6c0.8,0,1.5-0.2,2.1-0.5c0.6-0.3,1.1-0.8,1.5-1.5v-9c-0.4-0.7-0.9-1.2-1.5-1.6
			s-1.3-0.6-2.1-0.6c-1.4,0-2.4,0.6-3.1,1.9s-1,2.9-1,4.8V66.7z"/>
		<path fill="#FFFFFF" d="M64.2,77.1c-3.2,0-5.6-1-7.4-2.9c-1.8-1.9-2.7-4.4-2.7-7.5v-0.8c0-3.2,0.9-5.8,2.6-7.8s4.1-3,7.1-3
			c2.8,0,5,0.9,6.5,2.6c1.5,1.7,2.3,4.1,2.3,7v2.9H60.1L60,67.9c0.1,1.4,0.5,2.6,1.3,3.5c0.8,0.9,2,1.3,3.5,1.3
			c1.3,0,2.4-0.1,3.3-0.4c0.9-0.3,1.8-0.7,2.8-1.2l1.5,3.5c-0.8,0.7-2,1.3-3.4,1.7S65.9,77.1,64.2,77.1z M63.8,59.6
			c-1.1,0-2,0.4-2.6,1.2c-0.6,0.8-1,1.8-1.1,3.1l0,0.1h7v-0.4c0-1.2-0.3-2.2-0.8-2.9S65,59.6,63.8,59.6z"/>
		<path fill="#FFFFFF" d="M87.4,70.8c0-0.6-0.3-1.2-0.9-1.6s-1.7-0.8-3.4-1.2c-2.5-0.5-4.4-1.2-5.6-2.2c-1.3-1-1.9-2.4-1.9-4.1
			c0-1.8,0.8-3.4,2.3-4.6c1.5-1.3,3.6-1.9,6.1-1.9c2.7,0,4.8,0.6,6.4,1.9c1.6,1.3,2.4,2.9,2.3,4.8l0,0.1h-5.5c0-0.8-0.3-1.5-0.8-2.1
			S85,59.1,84,59.1c-0.9,0-1.6,0.2-2.2,0.7c-0.5,0.5-0.8,1-0.8,1.7c0,0.7,0.3,1.2,0.8,1.6c0.6,0.4,1.7,0.8,3.4,1.1
			c2.6,0.5,4.5,1.3,5.8,2.3s1.9,2.4,1.9,4.2c0,1.9-0.8,3.5-2.4,4.7c-1.6,1.2-3.8,1.8-6.4,1.8c-2.8,0-5-0.7-6.7-2.1
			c-1.6-1.4-2.4-3-2.3-4.9l0-0.1h5.2c0,1.1,0.4,2,1.1,2.5s1.6,0.8,2.8,0.8c1.1,0,1.9-0.2,2.4-0.6C87.1,72.1,87.4,71.6,87.4,70.8z"/>
		<path fill="#FFFFFF" d="M105.4,72.7c1,0,1.8-0.3,2.4-0.9s0.9-1.4,0.9-2.4h5.2l0,0.1c0.1,2.1-0.7,3.9-2.4,5.4s-3.7,2.2-6.1,2.2
			c-3.1,0-5.5-1-7.2-3c-1.7-2-2.6-4.6-2.6-7.7v-0.6c0-3.1,0.8-5.7,2.5-7.7s4.1-3,7.2-3c2.6,0,4.7,0.7,6.2,2.2
			c1.6,1.5,2.3,3.4,2.3,5.9l0,0.1h-5.2c0-1.1-0.3-2-0.9-2.7c-0.6-0.7-1.4-1.1-2.4-1.1c-1.5,0-2.5,0.6-3.1,1.8
			c-0.6,1.2-0.9,2.7-0.9,4.5v0.6c0,1.9,0.3,3.4,0.9,4.6C102.9,72.1,103.9,72.7,105.4,72.7z"/>
		<path fill="#FFFFFF" d="M130.2,73.6c-0.7,1.1-1.5,2-2.5,2.6c-1,0.6-2.2,0.9-3.5,0.9c-2.2,0-4-0.8-5.2-2.3c-1.3-1.5-1.9-3.9-1.9-7
			V55.6h5.7v12.3c0,1.8,0.3,3.1,0.8,3.8c0.5,0.7,1.3,1,2.3,1c0.9,0,1.7-0.1,2.3-0.4c0.7-0.3,1.2-0.7,1.6-1.3V55.6h5.7v21.1h-4.7
			L130.2,73.6z"/>
		<path fill="#FFFFFF" d="M149,77.1c-3.2,0-5.6-1-7.4-2.9c-1.8-1.9-2.7-4.4-2.7-7.5v-0.8c0-3.2,0.9-5.8,2.6-7.8s4.1-3,7.1-3
			c2.8,0,5,0.9,6.5,2.6c1.5,1.7,2.3,4.1,2.3,7v2.9h-12.6l-0.1,0.1c0.1,1.4,0.5,2.6,1.3,3.5c0.8,0.9,2,1.3,3.5,1.3
			c1.3,0,2.4-0.1,3.3-0.4c0.9-0.3,1.8-0.7,2.8-1.2l1.5,3.5c-0.8,0.7-2,1.3-3.4,1.7S150.7,77.1,149,77.1z M148.6,59.6
			c-1.1,0-2,0.4-2.6,1.2c-0.6,0.8-1,1.8-1.1,3.1l0,0.1h7v-0.4c0-1.2-0.3-2.2-0.8-2.9S149.7,59.6,148.6,59.6z"/>
		<path fill="#FFFFFF" d="M165.9,55.6l0.3,3c0.7-1.1,1.6-1.9,2.6-2.5c1-0.6,2.2-0.9,3.5-0.9c2.1,0,3.8,0.7,5,2.1
			c1.2,1.4,1.8,3.5,1.8,6.5v12.9h-5.7V63.8c0-1.5-0.3-2.6-0.8-3.2s-1.3-0.9-2.4-0.9c-0.8,0-1.6,0.2-2.2,0.5s-1.2,0.8-1.6,1.3v15.3
			h-5.7V55.6H165.9z"/>
		<path fill="#FFFFFF" d="M190.1,50.4v5.2h3.6v4h-3.6v10.8c0,0.8,0.2,1.4,0.5,1.8c0.3,0.4,0.8,0.5,1.4,0.5c0.3,0,0.6,0,0.8,0
			c0.2,0,0.5-0.1,0.8-0.2l0.5,4.1c-0.6,0.2-1.1,0.3-1.7,0.4c-0.5,0.1-1.1,0.1-1.8,0.1c-2,0-3.5-0.5-4.5-1.6
			c-1.1-1.1-1.6-2.8-1.6-5.1V59.6h-3.1v-4h3.1v-5.2H190.1z"/>
		<path fill="#FFFFFF" d="M196.3,65.9c0-3.2,0.9-5.7,2.6-7.7s4.2-3,7.3-3c3.1,0,5.6,1,7.3,3c1.8,2,2.7,4.6,2.7,7.8v0.4
			c0,3.2-0.9,5.8-2.6,7.8c-1.8,2-4.2,3-7.3,3c-3.1,0-5.6-1-7.3-3c-1.8-2-2.6-4.6-2.6-7.8V65.9z M202,66.3c0,1.9,0.3,3.5,1,4.6
			c0.7,1.2,1.8,1.7,3.3,1.7c1.5,0,2.5-0.6,3.2-1.8s1-2.7,1-4.6v-0.4c0-1.9-0.3-3.4-1-4.6c-0.7-1.2-1.8-1.8-3.3-1.8
			c-1.5,0-2.5,0.6-3.2,1.8s-1,2.7-1,4.6V66.3z"/>
		<path fill="#FFFFFF" d="M231.2,70.8c0-0.6-0.3-1.2-0.9-1.6s-1.7-0.8-3.4-1.2c-2.5-0.5-4.4-1.2-5.6-2.2c-1.3-1-1.9-2.4-1.9-4.1
			c0-1.8,0.8-3.4,2.3-4.6c1.5-1.3,3.6-1.9,6.1-1.9c2.7,0,4.8,0.6,6.4,1.9c1.6,1.3,2.4,2.9,2.3,4.8l0,0.1H231c0-0.8-0.3-1.5-0.8-2.1
			s-1.3-0.8-2.4-0.8c-0.9,0-1.6,0.2-2.2,0.7c-0.5,0.5-0.8,1-0.8,1.7c0,0.7,0.3,1.2,0.8,1.6c0.6,0.4,1.7,0.8,3.4,1.1
			c2.6,0.5,4.5,1.3,5.8,2.3s1.9,2.4,1.9,4.2c0,1.9-0.8,3.5-2.4,4.7c-1.6,1.2-3.8,1.8-6.4,1.8c-2.8,0-5-0.7-6.7-2.1
			c-1.6-1.4-2.4-3-2.3-4.9l0-0.1h5.2c0,1.1,0.4,2,1.1,2.5s1.6,0.8,2.8,0.8c1.1,0,1.9-0.2,2.4-0.6C231,72.1,231.2,71.6,231.2,70.8z"
			/>
		<path fill="#FFFFFF" d="M256.4,50.5h-5.7v-4.3h5.7V50.5z M256.4,76.7h-5.7V55.6h5.7V76.7z"/>
		<path fill="#FFFFFF" d="M266.3,55.6l0.3,3c0.7-1.1,1.6-1.9,2.6-2.5c1-0.6,2.2-0.9,3.5-0.9c2.1,0,3.8,0.7,5,2.1
			c1.2,1.4,1.8,3.5,1.8,6.5v12.9h-5.7V63.8c0-1.5-0.3-2.6-0.8-3.2s-1.3-0.9-2.4-0.9c-0.8,0-1.6,0.2-2.2,0.5s-1.2,0.8-1.6,1.3v15.3
			H261V55.6H266.3z"/>
		<path fill="#FFFFFF" d="M292.5,72.7c1,0,1.8-0.3,2.4-0.9s0.9-1.4,0.9-2.4h5.2l0,0.1c0.1,2.1-0.7,3.9-2.4,5.4s-3.7,2.2-6.1,2.2
			c-3.1,0-5.5-1-7.2-3c-1.7-2-2.6-4.6-2.6-7.7v-0.6c0-3.1,0.8-5.7,2.5-7.7s4.1-3,7.2-3c2.6,0,4.7,0.7,6.2,2.2
			c1.6,1.5,2.3,3.4,2.3,5.9l0,0.1h-5.2c0-1.1-0.3-2-0.9-2.7c-0.6-0.7-1.4-1.1-2.4-1.1c-1.5,0-2.5,0.6-3.1,1.8
			c-0.6,1.2-0.9,2.7-0.9,4.5v0.6c0,1.9,0.3,3.4,0.9,4.6C289.9,72.1,291,72.7,292.5,72.7z"/>
		<path fill="#FFFFFF" d="M315.4,60.5l-2.1-0.1c-0.8,0-1.5,0.2-2.1,0.5s-1,0.8-1.3,1.5v14.3h-5.7V55.6h5.3l0.3,3.1
			c0.5-1.1,1.1-2,1.9-2.6c0.8-0.6,1.7-0.9,2.7-0.9c0.3,0,0.5,0,0.8,0.1c0.2,0,0.5,0.1,0.7,0.2L315.4,60.5z"/>
		<path fill="#FFFFFF" d="M327.1,77.1c-3.2,0-5.6-1-7.4-2.9c-1.8-1.9-2.7-4.4-2.7-7.5v-0.8c0-3.2,0.9-5.8,2.6-7.8s4.1-3,7.1-3
			c2.8,0,5,0.9,6.5,2.6c1.5,1.7,2.3,4.1,2.3,7v2.9H323l-0.1,0.1c0.1,1.4,0.5,2.6,1.3,3.5c0.8,0.9,2,1.3,3.5,1.3
			c1.3,0,2.4-0.1,3.3-0.4c0.9-0.3,1.8-0.7,2.8-1.2l1.5,3.5c-0.8,0.7-2,1.3-3.4,1.7S328.9,77.1,327.1,77.1z M326.8,59.6
			c-1.1,0-2,0.4-2.6,1.2c-0.6,0.8-1,1.8-1.1,3.1l0,0.1h7v-0.4c0-1.2-0.3-2.2-0.8-2.9S327.9,59.6,326.8,59.6z"/>
		<path fill="#FFFFFF" d="M345,76.7h-5.7V55.6h5.7V76.7z M343.3,46.9h6.3l0,0.1l-5.4,5.1h-4.9L343.3,46.9z"/>
		<path fill="#FFFFFF" d="M368.9,66.7c0,3.2-0.7,5.7-2.1,7.6s-3.4,2.8-6.1,2.8c-1.2,0-2.3-0.3-3.2-0.8s-1.7-1.3-2.3-2.3l-0.5,2.7
			h-4.8V46.2h5.7v11.6c0.6-0.8,1.3-1.5,2.2-2c0.9-0.5,1.8-0.7,2.9-0.7c2.7,0,4.7,1,6.1,3s2.1,4.7,2.1,8.1V66.7z M363.3,66.3
			c0-2.1-0.3-3.7-0.9-4.9s-1.6-1.8-3.1-1.8c-0.9,0-1.6,0.2-2.2,0.6c-0.6,0.4-1.1,0.9-1.4,1.6v8.9c0.4,0.6,0.8,1.1,1.5,1.5
			c0.6,0.3,1.4,0.5,2.3,0.5c1.5,0,2.5-0.5,3.1-1.6s0.9-2.5,0.9-4.4V66.3z"/>
		<path fill="#FFFFFF" d="M378.5,76.7h-5.7V46.2h5.7V76.7z"/>
		<path fill="#FFFFFF" d="M392.3,77.1c-3.2,0-5.6-1-7.4-2.9c-1.8-1.9-2.7-4.4-2.7-7.5v-0.8c0-3.2,0.9-5.8,2.6-7.8s4.1-3,7.1-3
			c2.8,0,5,0.9,6.5,2.6c1.5,1.7,2.3,4.1,2.3,7v2.9h-12.6l-0.1,0.1c0.1,1.4,0.5,2.6,1.3,3.5c0.8,0.9,2,1.3,3.5,1.3
			c1.3,0,2.4-0.1,3.3-0.4c0.9-0.3,1.8-0.7,2.8-1.2l1.5,3.5c-0.8,0.7-2,1.3-3.4,1.7S394,77.1,392.3,77.1z M391.9,59.6
			c-1.1,0-2,0.4-2.6,1.2c-0.6,0.8-1,1.8-1.1,3.1l0,0.1h7v-0.4c0-1.2-0.3-2.2-0.8-2.9S393.1,59.6,391.9,59.6z"/>
		<path fill="#FFFFFF" d="M415.5,70.8c0-0.6-0.3-1.2-0.9-1.6s-1.7-0.8-3.4-1.2c-2.5-0.5-4.4-1.2-5.6-2.2c-1.3-1-1.9-2.4-1.9-4.1
			c0-1.8,0.8-3.4,2.3-4.6c1.5-1.3,3.6-1.9,6.1-1.9c2.7,0,4.8,0.6,6.4,1.9c1.6,1.3,2.4,2.9,2.3,4.8l0,0.1h-5.5c0-0.8-0.3-1.5-0.8-2.1
			s-1.3-0.8-2.4-0.8c-0.9,0-1.6,0.2-2.2,0.7c-0.5,0.5-0.8,1-0.8,1.7c0,0.7,0.3,1.2,0.8,1.6c0.6,0.4,1.7,0.8,3.4,1.1
			c2.6,0.5,4.5,1.3,5.8,2.3s1.9,2.4,1.9,4.2c0,1.9-0.8,3.5-2.4,4.7c-1.6,1.2-3.8,1.8-6.4,1.8c-2.8,0-5-0.7-6.7-2.1
			c-1.6-1.4-2.4-3-2.3-4.9l0-0.1h5.2c0,1.1,0.4,2,1.1,2.5s1.6,0.8,2.8,0.8c1.1,0,1.9-0.2,2.4-0.6C415.2,72.1,415.5,71.6,415.5,70.8z
			"/>
		<path fill="#FFFFFF" d="M20.7,108.9c0,3-0.7,5.5-2.2,7.4c-1.5,1.9-3.5,2.8-6,2.8c-1.3,0-2.4-0.2-3.4-0.7c-1-0.4-1.8-1.1-2.5-2
			v10.3H2.7V97.6h2.9l0.6,2.7c0.7-1,1.5-1.8,2.6-2.3c1-0.5,2.2-0.8,3.6-0.8c2.6,0,4.7,1,6.1,3.1c1.5,2.1,2.2,4.8,2.2,8.2V108.9z
			 M16.9,108.5c0-2.4-0.5-4.4-1.4-5.9c-0.9-1.5-2.3-2.3-4.2-2.3c-1.1,0-2.1,0.3-2.8,0.8s-1.4,1.2-1.9,2.1v10.2
			c0.5,0.9,1.1,1.6,1.9,2s1.7,0.7,2.9,0.7c1.8,0,3.2-0.7,4.1-2s1.4-3.1,1.4-5.2V108.5z"/>
		<path fill="#FFFFFF" d="M38.4,118.7c-0.1-0.6-0.2-1.2-0.3-1.7c-0.1-0.5-0.1-1-0.1-1.5c-0.7,1-1.7,1.9-2.8,2.5s-2.4,1-3.7,1
			c-2.2,0-3.9-0.6-5-1.7s-1.7-2.7-1.7-4.7c0-2,0.8-3.6,2.5-4.7c1.6-1.1,3.9-1.7,6.7-1.7H38v-2.1c0-1.2-0.4-2.2-1.1-2.9
			c-0.8-0.7-1.8-1.1-3.2-1.1c-1.3,0-2.3,0.3-3,0.9c-0.8,0.6-1.2,1.4-1.2,2.2l-3.7,0l0-0.1c-0.1-1.5,0.6-2.9,2.2-4.2
			c1.5-1.3,3.5-1.9,5.9-1.9c2.4,0,4.3,0.6,5.8,1.8c1.5,1.2,2.2,3,2.2,5.3v10.2c0,0.8,0,1.5,0.1,2.2s0.2,1.4,0.4,2.1H38.4z M32,115.9
			c1.4,0,2.6-0.4,3.8-1.1c1.1-0.7,1.8-1.5,2.2-2.5v-3.4h-4.3c-1.5,0-2.8,0.4-3.7,1.2c-0.9,0.8-1.4,1.7-1.4,2.8
			c0,0.9,0.3,1.7,0.9,2.2S30.9,115.9,32,115.9z"/>
		<path fill="#FFFFFF" d="M57.4,101l-2-0.1c-1,0-1.9,0.2-2.6,0.7c-0.7,0.5-1.2,1.2-1.6,2v15.1h-3.8V97.6h3.4l0.4,3.1
			c0.6-1.1,1.3-1.9,2.2-2.6s1.9-0.9,3-0.9c0.3,0,0.6,0,0.8,0.1c0.3,0,0.5,0.1,0.6,0.1L57.4,101z"/>
		<path fill="#FFFFFF" d="M74.4,118.7c-0.1-0.6-0.2-1.2-0.3-1.7c-0.1-0.5-0.1-1-0.1-1.5c-0.7,1-1.7,1.9-2.8,2.5s-2.4,1-3.7,1
			c-2.2,0-3.9-0.6-5-1.7s-1.7-2.7-1.7-4.7c0-2,0.8-3.6,2.5-4.7c1.6-1.1,3.9-1.7,6.7-1.7H74v-2.1c0-1.2-0.4-2.2-1.1-2.9
			c-0.8-0.7-1.8-1.1-3.2-1.1c-1.3,0-2.3,0.3-3,0.9c-0.8,0.6-1.2,1.4-1.2,2.2l-3.7,0l0-0.1c-0.1-1.5,0.6-2.9,2.2-4.2
			c1.5-1.3,3.5-1.9,5.9-1.9c2.4,0,4.3,0.6,5.8,1.8c1.5,1.2,2.2,3,2.2,5.3v10.2c0,0.8,0,1.5,0.1,2.2s0.2,1.4,0.4,2.1H74.4z M68,115.9
			c1.4,0,2.6-0.4,3.8-1.1c1.1-0.7,1.8-1.5,2.2-2.5v-3.4h-4.3c-1.5,0-2.8,0.4-3.7,1.2c-0.9,0.8-1.4,1.7-1.4,2.8
			c0,0.9,0.3,1.7,0.9,2.2S66.9,115.9,68,115.9z"/>
		<path fill="#FFFFFF" d="M98.7,92.5v5.1h4v2.9h-4v12.8c0,1,0.2,1.7,0.6,2.1s1,0.6,1.6,0.6c0.2,0,0.5,0,0.7-0.1s0.5-0.1,0.7-0.2
			l0.5,2.6c-0.3,0.2-0.7,0.4-1.3,0.6c-0.6,0.1-1.1,0.2-1.7,0.2c-1.6,0-2.8-0.5-3.7-1.4c-0.9-0.9-1.4-2.4-1.4-4.4v-12.8h-3.4v-2.9
			h3.4v-5.1H98.7z"/>
		<path fill="#FFFFFF" d="M120.3,115.6c-0.7,1.1-1.5,2-2.6,2.6c-1,0.6-2.2,0.9-3.6,0.9c-2.3,0-4.1-0.7-5.4-2.2s-1.9-3.8-1.9-6.9
			V97.6h3.8v12.5c0,2.3,0.3,3.8,1,4.6s1.7,1.3,3.1,1.3c1.4,0,2.5-0.3,3.4-0.8c0.9-0.6,1.6-1.3,2-2.4V97.6h3.8v21.1h-3.5L120.3,115.6
			z"/>
		<path fill="#FFFFFF" d="M157.5,108.9c0,3-0.7,5.5-2.2,7.4c-1.5,1.9-3.5,2.8-6,2.8c-1.3,0-2.4-0.2-3.4-0.7c-1-0.4-1.8-1.1-2.5-2
			v10.3h-3.8V97.6h2.9l0.6,2.7c0.7-1,1.5-1.8,2.6-2.3c1-0.5,2.2-0.8,3.6-0.8c2.6,0,4.7,1,6.1,3.1c1.5,2.1,2.2,4.8,2.2,8.2V108.9z
			 M153.7,108.5c0-2.4-0.5-4.4-1.4-5.9c-0.9-1.5-2.3-2.3-4.2-2.3c-1.1,0-2.1,0.3-2.8,0.8s-1.4,1.2-1.9,2.1v10.2
			c0.5,0.9,1.1,1.6,1.9,2s1.7,0.7,2.9,0.7c1.8,0,3.2-0.7,4.1-2s1.4-3.1,1.4-5.2V108.5z"/>
		<path fill="#FFFFFF" d="M172.2,101l-2-0.1c-1,0-1.9,0.2-2.6,0.7c-0.7,0.5-1.2,1.2-1.6,2v15.1h-3.8V97.6h3.4l0.4,3.1
			c0.6-1.1,1.3-1.9,2.2-2.6s1.9-0.9,3-0.9c0.3,0,0.6,0,0.8,0.1c0.3,0,0.5,0.1,0.6,0.1L172.2,101z"/>
		<path fill="#FFFFFF" d="M175,107.9c0-3.1,0.8-5.7,2.5-7.7c1.7-2,4-3,6.9-3c2.9,0,5.2,1,6.9,3s2.5,4.6,2.5,7.7v0.4
			c0,3.2-0.8,5.7-2.5,7.7c-1.7,2-4,3-6.9,3c-2.9,0-5.2-1-6.9-3s-2.5-4.6-2.5-7.7V107.9z M178.8,108.4c0,2.2,0.5,4.1,1.4,5.5
			c0.9,1.5,2.3,2.2,4.2,2.2c1.8,0,3.2-0.7,4.2-2.2c1-1.5,1.4-3.3,1.4-5.5v-0.4c0-2.2-0.5-4.1-1.4-5.5s-2.4-2.2-4.2-2.2
			c-1.8,0-3.2,0.7-4.2,2.2c-0.9,1.5-1.4,3.3-1.4,5.5V108.4z"/>
		<path fill="#FFFFFF" d="M216.6,108.9c0,3-0.7,5.5-2.2,7.4c-1.5,1.9-3.5,2.8-6,2.8c-1.3,0-2.4-0.2-3.4-0.7c-1-0.4-1.8-1.1-2.5-2
			v10.3h-3.8V97.6h2.9l0.6,2.7c0.7-1,1.5-1.8,2.6-2.3c1-0.5,2.2-0.8,3.6-0.8c2.6,0,4.7,1,6.1,3.1c1.5,2.1,2.2,4.8,2.2,8.2V108.9z
			 M212.8,108.5c0-2.4-0.5-4.4-1.4-5.9c-0.9-1.5-2.3-2.3-4.2-2.3c-1.1,0-2.1,0.3-2.8,0.8s-1.4,1.2-1.9,2.1v10.2
			c0.5,0.9,1.1,1.6,1.9,2s1.7,0.7,2.9,0.7c1.8,0,3.2-0.7,4.1-2s1.4-3.1,1.4-5.2V108.5z"/>
		<path fill="#FFFFFF" d="M225.5,92.1h-3.8v-3.9h3.8V92.1z M225.5,118.7h-3.8V97.6h3.8V118.7z"/>
		<path fill="#FFFFFF" d="M230.5,107.9c0-3.1,0.8-5.7,2.5-7.7c1.7-2,4-3,6.9-3c2.9,0,5.2,1,6.9,3s2.5,4.6,2.5,7.7v0.4
			c0,3.2-0.8,5.7-2.5,7.7c-1.7,2-4,3-6.9,3c-2.9,0-5.2-1-6.9-3s-2.5-4.6-2.5-7.7V107.9z M234.4,108.4c0,2.2,0.5,4.1,1.4,5.5
			c0.9,1.5,2.3,2.2,4.2,2.2c1.8,0,3.2-0.7,4.2-2.2c1-1.5,1.4-3.3,1.4-5.5v-0.4c0-2.2-0.5-4.1-1.4-5.5s-2.4-2.2-4.2-2.2
			c-1.8,0-3.2,0.7-4.2,2.2c-0.9,1.5-1.4,3.3-1.4,5.5V108.4z"/>
		<path fill="#FFFFFF" d="M282.1,108.9c0,3-0.7,5.5-2.2,7.4s-3.5,2.8-6,2.8c-1.4,0-2.6-0.3-3.7-0.8s-1.9-1.4-2.6-2.5l-0.6,2.9h-2.9
			V88.2h3.8v11.8c0.7-0.9,1.5-1.7,2.5-2.1c1-0.5,2.1-0.7,3.4-0.7c2.6,0,4.6,1,6.1,3.1c1.5,2.1,2.2,4.8,2.2,8.2V108.9z M278.3,108.5
			c0-2.4-0.4-4.4-1.3-5.9c-0.9-1.5-2.3-2.3-4.1-2.3c-1.2,0-2.2,0.3-3,0.9c-0.8,0.6-1.5,1.4-1.9,2.3v9.2c0.5,1,1.1,1.9,1.9,2.4
			s1.8,0.9,3,0.9c1.8,0,3.2-0.6,4-1.9c0.9-1.3,1.3-3,1.3-5.1V108.5z"/>
		<path fill="#FFFFFF" d="M291,92.1h-3.8v-3.9h3.8V92.1z M291,118.7h-3.8V97.6h3.8V118.7z"/>
		<path fill="#FFFFFF" d="M305.6,119.1c-3,0-5.4-1-7.1-2.9s-2.5-4.5-2.5-7.7v-0.9c0-3,0.9-5.5,2.6-7.5c1.8-2,3.9-3,6.4-3
			c2.8,0,4.9,0.9,6.4,2.6c1.4,1.8,2.1,4.1,2.1,7v2H300l-0.1,0.1c0,2.1,0.5,3.8,1.4,5.2s2.4,2,4.3,2c1.3,0,2.4-0.2,3.4-0.6
			c1-0.4,1.8-0.9,2.5-1.5l1.5,2.5c-0.8,0.7-1.8,1.3-3,1.8C308.9,118.8,307.4,119.1,305.6,119.1z M305,100.2c-1.3,0-2.5,0.5-3.3,1.6
			s-1.4,2.4-1.6,4l0,0.1h9.5v-0.3c0-1.5-0.4-2.8-1.1-3.8C307.8,100.7,306.6,100.2,305,100.2z"/>
		<path fill="#FFFFFF" d="M321.3,97.6l0.3,3.1c0.7-1.1,1.6-2,2.6-2.6c1.1-0.6,2.3-0.9,3.6-0.9c2.3,0,4,0.7,5.3,2s1.9,3.4,1.9,6.2
			v13.3h-3.8v-13.3c0-1.9-0.4-3.2-1.1-4c-0.7-0.8-1.9-1.2-3.4-1.2c-1.2,0-2.2,0.2-3,0.7c-0.8,0.5-1.5,1.1-2,2v15.7h-3.8V97.6H321.3z
			"/>
		<path fill="#FFFFFF" d="M349.3,119.1c-3,0-5.4-1-7.1-2.9s-2.5-4.5-2.5-7.7v-0.9c0-3,0.9-5.5,2.6-7.5c1.8-2,3.9-3,6.4-3
			c2.8,0,4.9,0.9,6.4,2.6c1.4,1.8,2.1,4.1,2.1,7v2h-13.5l-0.1,0.1c0,2.1,0.5,3.8,1.4,5.2s2.4,2,4.3,2c1.3,0,2.4-0.2,3.4-0.6
			c1-0.4,1.8-0.9,2.5-1.5l1.5,2.5c-0.8,0.7-1.8,1.3-3,1.8C352.6,118.8,351.1,119.1,349.3,119.1z M348.7,100.2
			c-1.3,0-2.5,0.5-3.3,1.6s-1.4,2.4-1.6,4l0,0.1h9.5v-0.3c0-1.5-0.4-2.8-1.1-3.8C351.5,100.7,350.3,100.2,348.7,100.2z"/>
		<path fill="#FFFFFF" d="M373.8,113c0-0.8-0.3-1.5-1-2.1s-1.9-1-3.7-1.4c-2.5-0.5-4.4-1.3-5.7-2.2c-1.3-1-2-2.3-2-3.9
			c0-1.7,0.7-3.2,2.2-4.4s3.4-1.8,5.7-1.8c2.4,0,4.3,0.7,5.8,2s2.2,2.8,2.1,4.6l0,0.1h-3.7c0-0.9-0.4-1.7-1.2-2.5s-1.8-1.1-3-1.1
			c-1.4,0-2.4,0.3-3,0.9c-0.7,0.6-1,1.3-1,2.2c0,0.8,0.3,1.5,0.9,1.9c0.6,0.5,1.8,0.9,3.6,1.3c2.6,0.5,4.6,1.3,5.9,2.3
			c1.3,1,2,2.3,2,3.9c0,1.9-0.8,3.4-2.3,4.6c-1.5,1.2-3.5,1.8-5.9,1.8c-2.7,0-4.8-0.7-6.4-2.1c-1.5-1.4-2.3-3-2.2-4.8l0-0.1h3.7
			c0.1,1.4,0.6,2.4,1.5,3c1,0.6,2.1,0.9,3.3,0.9c1.4,0,2.4-0.3,3.2-0.9C373.4,114.6,373.8,113.9,373.8,113z"/>
		<path fill="#FFFFFF" d="M387.8,92.5v5.1h4v2.9h-4v12.8c0,1,0.2,1.7,0.6,2.1s1,0.6,1.6,0.6c0.2,0,0.5,0,0.7-0.1s0.5-0.1,0.7-0.2
			l0.5,2.6c-0.3,0.2-0.7,0.4-1.3,0.6c-0.6,0.1-1.1,0.2-1.7,0.2c-1.6,0-2.8-0.5-3.7-1.4c-0.9-0.9-1.4-2.4-1.4-4.4v-12.8h-3.4v-2.9
			h3.4v-5.1H387.8z"/>
		<path fill="#FFFFFF" d="M408.9,118.7c-0.1-0.6-0.2-1.2-0.3-1.7c-0.1-0.5-0.1-1-0.1-1.5c-0.7,1-1.7,1.9-2.8,2.5s-2.4,1-3.7,1
			c-2.2,0-3.9-0.6-5-1.7s-1.7-2.7-1.7-4.7c0-2,0.8-3.6,2.5-4.7c1.6-1.1,3.9-1.7,6.7-1.7h4.2v-2.1c0-1.2-0.4-2.2-1.1-2.9
			c-0.8-0.7-1.8-1.1-3.2-1.1c-1.3,0-2.3,0.3-3,0.9c-0.8,0.6-1.2,1.4-1.2,2.2l-3.7,0l0-0.1c-0.1-1.5,0.6-2.9,2.2-4.2
			c1.5-1.3,3.5-1.9,5.9-1.9c2.4,0,4.3,0.6,5.8,1.8c1.5,1.2,2.2,3,2.2,5.3v10.2c0,0.8,0,1.5,0.1,2.2s0.2,1.4,0.4,2.1H408.9z
			 M402.5,115.9c1.4,0,2.6-0.4,3.8-1.1c1.1-0.7,1.8-1.5,2.2-2.5v-3.4h-4.3c-1.5,0-2.8,0.4-3.7,1.2c-0.9,0.8-1.4,1.7-1.4,2.8
			c0,0.9,0.3,1.7,0.9,2.2S401.4,115.9,402.5,115.9z"/>
		<path fill="#FFFFFF" d="M427.9,101l-2-0.1c-1,0-1.9,0.2-2.6,0.7c-0.7,0.5-1.2,1.2-1.6,2v15.1h-3.8V97.6h3.4l0.4,3.1
			c0.6-1.1,1.3-1.9,2.2-2.6s1.9-0.9,3-0.9c0.3,0,0.6,0,0.8,0.1c0.3,0,0.5,0.1,0.6,0.1L427.9,101z"/>
		<path fill="#FFFFFF" d="M9.2,152.9l0.7,2.7H10l5.2-16h4.3l-8.9,24.4c-0.5,1.4-1.3,2.7-2.3,3.7s-2.3,1.6-4,1.6
			c-0.3,0-0.7,0-1.2-0.1c-0.5-0.1-0.9-0.1-1.1-0.2l0.4-3c-0.1,0,0.2,0,0.7,0c0.5,0,0.9,0.1,1,0.1c0.8,0,1.5-0.4,2-1.1
			c0.5-0.7,1-1.5,1.3-2.4l0.9-2.2l-7.9-20.7h4.3L9.2,152.9z"/>
		<path fill="#FFFFFF" d="M41.5,161.1c-3,0-5.4-1-7.1-2.9s-2.5-4.5-2.5-7.7v-0.9c0-3,0.9-5.5,2.6-7.5c1.8-2,3.9-3,6.4-3
			c2.8,0,4.9,0.9,6.4,2.6c1.4,1.8,2.1,4.1,2.1,7v2H35.9l-0.1,0.1c0,2.1,0.5,3.8,1.4,5.2s2.4,2,4.3,2c1.3,0,2.4-0.2,3.4-0.6
			c1-0.4,1.8-0.9,2.5-1.5l1.5,2.5c-0.8,0.7-1.8,1.3-3,1.8C44.7,160.8,43.2,161.1,41.5,161.1z M40.9,142.2c-1.3,0-2.5,0.5-3.3,1.6
			s-1.4,2.4-1.6,4l0,0.1h9.5v-0.3c0-1.5-0.4-2.8-1.1-3.8C43.6,142.7,42.5,142.2,40.9,142.2z"/>
		<path fill="#FFFFFF" d="M57.9,160.7H54v-30.5h3.8V160.7z"/>
		<path fill="#FFFFFF" d="M72.8,150.5c0-3.4,0.7-6.1,2.2-8.2c1.5-2.1,3.5-3.1,6.1-3.1c1.2,0,2.3,0.2,3.3,0.7s1.8,1.1,2.5,2v-11.6
			h3.8v30.5h-2.9l-0.6-2.7c-0.7,1-1.5,1.8-2.6,2.3s-2.2,0.8-3.5,0.8c-2.6,0-4.6-0.9-6.1-2.8c-1.5-1.9-2.2-4.3-2.2-7.4V150.5z
			 M76.7,150.9c0,2.1,0.4,3.8,1.3,5.1c0.9,1.3,2.2,1.9,4.1,1.9c1.1,0,2.1-0.3,2.9-0.8s1.4-1.3,1.9-2.2v-9.9
			c-0.5-0.9-1.1-1.6-1.9-2.1c-0.8-0.5-1.7-0.8-2.8-0.8c-1.8,0-3.2,0.8-4.1,2.3s-1.3,3.5-1.3,5.9V150.9z"/>
		<path fill="#FFFFFF" d="M105.2,161.1c-3,0-5.4-1-7.1-2.9s-2.5-4.5-2.5-7.7v-0.9c0-3,0.9-5.5,2.6-7.5c1.8-2,3.9-3,6.4-3
			c2.8,0,4.9,0.9,6.4,2.6c1.4,1.8,2.1,4.1,2.1,7v2H99.6l-0.1,0.1c0,2.1,0.5,3.8,1.4,5.2s2.4,2,4.3,2c1.3,0,2.4-0.2,3.4-0.6
			c1-0.4,1.8-0.9,2.5-1.5l1.5,2.5c-0.8,0.7-1.8,1.3-3,1.8C108.4,160.8,106.9,161.1,105.2,161.1z M104.6,142.2
			c-1.3,0-2.5,0.5-3.3,1.6s-1.4,2.4-1.6,4l0,0.1h9.5v-0.3c0-1.5-0.4-2.8-1.1-3.8C107.3,142.7,106.2,142.2,104.6,142.2z"/>
		<path fill="#FFFFFF" d="M132.7,134.5v5.1h4v2.9h-4v12.8c0,1,0.2,1.7,0.6,2.1s1,0.6,1.6,0.6c0.2,0,0.5,0,0.7-0.1s0.5-0.1,0.7-0.2
			l0.5,2.6c-0.3,0.2-0.7,0.4-1.3,0.6c-0.6,0.1-1.1,0.2-1.7,0.2c-1.6,0-2.8-0.5-3.7-1.4c-0.9-0.9-1.4-2.4-1.4-4.4v-12.8h-3.4v-2.9
			h3.4v-5.1H132.7z"/>
		<path fill="#FFFFFF" d="M154.2,157.6c-0.7,1.1-1.5,2-2.6,2.6c-1,0.6-2.2,0.9-3.6,0.9c-2.3,0-4.1-0.7-5.4-2.2s-1.9-3.8-1.9-6.9
			v-12.5h3.8v12.5c0,2.3,0.3,3.8,1,4.6s1.7,1.3,3.1,1.3c1.4,0,2.5-0.3,3.4-0.8c0.9-0.6,1.6-1.3,2-2.4v-15.2h3.8v21.1h-3.5
			L154.2,157.6z"/>
		<path fill="#FFFFFF" d="M175.1,160.7v-18.3h-3.3v-2.9h3.3v-2.7c0-2.3,0.6-4,1.8-5.2c1.2-1.2,2.8-1.8,4.9-1.8c0.4,0,0.9,0,1.3,0.1
			s0.9,0.2,1.5,0.3l-0.5,2.9c-0.2-0.1-0.5-0.1-0.8-0.1s-0.7-0.1-1-0.1c-1.1,0-2,0.3-2.5,1s-0.8,1.6-0.8,2.9v2.7h3.8v2.9h-3.8v18.3
			H175.1z"/>
		<path fill="#FFFFFF" d="M199.6,160.7c-0.1-0.6-0.2-1.2-0.3-1.7c-0.1-0.5-0.1-1-0.1-1.5c-0.7,1-1.7,1.9-2.8,2.5s-2.4,1-3.7,1
			c-2.2,0-3.9-0.6-5-1.7s-1.7-2.7-1.7-4.7c0-2,0.8-3.6,2.5-4.7c1.6-1.1,3.9-1.7,6.7-1.7h4.2v-2.1c0-1.2-0.4-2.2-1.1-2.9
			c-0.8-0.7-1.8-1.1-3.2-1.1c-1.3,0-2.3,0.3-3,0.9c-0.8,0.6-1.2,1.4-1.2,2.2l-3.7,0l0-0.1c-0.1-1.5,0.6-2.9,2.2-4.2
			c1.5-1.3,3.5-1.9,5.9-1.9c2.4,0,4.3,0.6,5.8,1.8c1.5,1.2,2.2,3,2.2,5.3v10.2c0,0.8,0,1.5,0.1,2.2s0.2,1.4,0.4,2.1H199.6z
			 M193.2,157.9c1.4,0,2.6-0.4,3.8-1.1c1.1-0.7,1.8-1.5,2.2-2.5v-3.4h-4.3c-1.5,0-2.8,0.4-3.7,1.2c-0.9,0.8-1.4,1.7-1.4,2.8
			c0,0.9,0.3,1.7,0.9,2.2S192.1,157.9,193.2,157.9z"/>
		<path fill="#FFFFFF" d="M212.1,139.6l0.3,2.8c0.7-1,1.6-1.8,2.6-2.3c1.1-0.6,2.3-0.8,3.7-0.8s2.6,0.3,3.6,1c1,0.7,1.8,1.6,2.3,2.9
			c0.7-1.2,1.6-2.2,2.6-2.9c1.1-0.7,2.4-1,3.8-1c2.1,0,3.8,0.7,5.1,2.2s1.9,3.7,1.9,6.7v12.6h-3.8V148c0-2.1-0.4-3.6-1.1-4.4
			c-0.7-0.9-1.8-1.3-3.2-1.3c-1.3,0-2.4,0.5-3.2,1.4c-0.8,0.9-1.3,2.1-1.4,3.5v0.2v13.4h-3.9V148c0-2-0.4-3.4-1.1-4.3
			c-0.7-0.9-1.8-1.4-3.2-1.4c-1.2,0-2.1,0.2-2.9,0.7c-0.8,0.5-1.3,1.2-1.7,2v15.6h-3.8v-21.1H212.1z"/>
		<path fill="#FFFFFF" d="M247.8,134.1h-3.8v-3.9h3.8V134.1z M247.8,160.7h-3.8v-21.1h3.8V160.7z"/>
		<path fill="#FFFFFF" d="M257.8,160.7H254v-30.5h3.8V160.7z"/>
		<path fill="#FFFFFF" d="M267.9,134.1h-3.8v-3.9h3.8V134.1z M267.9,160.7h-3.8v-21.1h3.8V160.7z"/>
		<path fill="#FFFFFF" d="M286.8,160.7c-0.1-0.6-0.2-1.2-0.3-1.7c-0.1-0.5-0.1-1-0.1-1.5c-0.7,1-1.7,1.9-2.8,2.5s-2.4,1-3.7,1
			c-2.2,0-3.9-0.6-5-1.7s-1.7-2.7-1.7-4.7c0-2,0.8-3.6,2.5-4.7c1.6-1.1,3.9-1.7,6.7-1.7h4.2v-2.1c0-1.2-0.4-2.2-1.1-2.9
			c-0.8-0.7-1.8-1.1-3.2-1.1c-1.3,0-2.3,0.3-3,0.9c-0.8,0.6-1.2,1.4-1.2,2.2l-3.7,0l0-0.1c-0.1-1.5,0.6-2.9,2.2-4.2
			c1.5-1.3,3.5-1.9,5.9-1.9c2.4,0,4.3,0.6,5.8,1.8c1.5,1.2,2.2,3,2.2,5.3v10.2c0,0.8,0,1.5,0.1,2.2s0.2,1.4,0.4,2.1H286.8z
			 M280.4,157.9c1.4,0,2.6-0.4,3.8-1.1c1.1-0.7,1.8-1.5,2.2-2.5v-3.4h-4.3c-1.5,0-2.8,0.4-3.7,1.2c-0.9,0.8-1.4,1.7-1.4,2.8
			c0,0.9,0.3,1.7,0.9,2.2S279.3,157.9,280.4,157.9z"/>
	</g>
</g>
<g id="txt" display="none">
</g>
</svg>
