<?xml version="1.0" encoding="utf-8"?>
<!-- Generator: Adobe Illustrator 18.0.0, SVG Export Plug-In . SVG Version: 6.00 Build 0)  -->
<!DOCTYPE svg PUBLIC "-//W3C//DTD SVG 1.1//EN" "http://www.w3.org/Graphics/SVG/1.1/DTD/svg11.dtd" [
	<!ENTITY ns_extend "http://ns.adobe.com/Extensibility/1.0/">
	<!ENTITY ns_ai "http://ns.adobe.com/AdobeIllustrator/10.0/">
	<!ENTITY ns_graphs "http://ns.adobe.com/Graphs/1.0/">
	<!ENTITY ns_vars "http://ns.adobe.com/Variables/1.0/">
	<!ENTITY ns_imrep "http://ns.adobe.com/ImageReplacement/1.0/">
	<!ENTITY ns_sfw "http://ns.adobe.com/SaveForWeb/1.0/">
	<!ENTITY ns_custom "http://ns.adobe.com/GenericCustomNamespace/1.0/">
	<!ENTITY ns_adobe_xpath "http://ns.adobe.com/XPath/1.0/">
]>
<svg version="1.1" id="Capa_1" xmlns:x="&ns_extend;" xmlns:i="&ns_ai;" xmlns:graph="&ns_graphs;"
	 xmlns="http://www.w3.org/2000/svg" xmlns:xlink="http://www.w3.org/1999/xlink" x="0px" y="0px" viewBox="0 0 32 32"
	 enable-background="new 0 0 32 32" xml:space="preserve">
<metadata>
	<sfw  xmlns="&ns_sfw;">
		<slices></slices>
		<sliceSourceBounds  height="31.8" width="190.8" y="-31.9" x="0.1" bottomLeftOrigin="true"></sliceSourceBounds>
	</sfw>
</metadata>
<g>
	<path fill="#00CC66" d="M16,31.9c-2.2,0-4.3-0.4-6.3-1.2c-1.9-0.8-3.6-1.9-5-3.4s-2.5-3.1-3.4-5s-1.2-4-1.2-6.3
		c0-2.2,0.4-4.3,1.2-6.2s1.9-3.6,3.4-5s3.1-2.6,5-3.4s4-1.2,6.3-1.2c2.2,0,4.3,0.4,6.2,1.2s3.6,1.9,5,3.4c1.4,1.4,2.6,3.1,3.4,5
		c0.8,1.9,1.2,4,1.2,6.2c0,2.2-0.4,4.3-1.2,6.3c-0.8,1.9-1.9,3.6-3.4,5c-1.4,1.4-3.1,2.5-5,3.4C20.3,31.5,18.2,31.9,16,31.9z
		 M16,29.5c3.7,0,6.9-1.3,9.5-4s4-5.8,4-9.5s-1.3-6.9-4-9.5s-5.8-4-9.5-4s-6.9,1.3-9.5,4s-4,5.8-4,9.5s1.3,6.9,4,9.5
		S12.3,29.5,16,29.5z"/>
	<g>
		<path fill="#00CC66" d="M16,10.3c-0.5,0-1-0.2-1.3-0.6c-0.4-0.4-0.6-0.8-0.6-1.3c0-0.5,0.2-1,0.6-1.3C15,6.7,15.5,6.6,16,6.6
			s1,0.2,1.3,0.6c0.4,0.4,0.6,0.8,0.6,1.3c0,0.5-0.2,1-0.6,1.3C16.9,10.1,16.5,10.3,16,10.3z"/>
		<path fill="#00CC66" d="M14.1,25.4c-0.2,0-0.4-0.1-0.6-0.2c-0.2-0.1-0.2-0.3-0.2-0.6V13.4c-0.9-0.1-1.8-0.2-2.7-0.3
			c-0.9-0.1-1.7-0.3-2.6-0.4c-0.2,0-0.4-0.2-0.5-0.4c-0.1-0.2-0.1-0.4-0.1-0.6c0-0.2,0.2-0.4,0.4-0.5C8,11,8.2,11,8.5,11
			c1.2,0.3,2.5,0.5,3.7,0.6c1.3,0.1,2.5,0.2,3.8,0.2c1.3,0,2.5-0.1,3.8-0.2c1.3-0.1,2.5-0.3,3.7-0.6c0.2-0.1,0.4,0,0.6,0.1
			c0.2,0.1,0.3,0.3,0.4,0.5c0,0.2,0,0.4-0.1,0.6c-0.1,0.2-0.3,0.3-0.5,0.4c-0.8,0.2-1.7,0.3-2.6,0.4c-0.9,0.1-1.8,0.2-2.7,0.3v11.2
			c0,0.2-0.1,0.4-0.2,0.6c-0.1,0.1-0.3,0.2-0.6,0.2c-0.2,0-0.4-0.1-0.6-0.2c-0.1-0.1-0.2-0.3-0.2-0.6v-5.1h-2.1v5.1
			c0,0.2-0.1,0.4-0.2,0.6C14.6,25.4,14.4,25.4,14.1,25.4z"/>
	</g>
</g>
</svg>
