<?xml version="1.0" encoding="utf-8"?>
<!-- Generator: Adobe Illustrator 18.0.0, SVG Export Plug-In . SVG Version: 6.00 Build 0)  -->
<!DOCTYPE svg PUBLIC "-//W3C//DTD SVG 1.1//EN" "http://www.w3.org/Graphics/SVG/1.1/DTD/svg11.dtd" [
	<!ENTITY ns_extend "http://ns.adobe.com/Extensibility/1.0/">
	<!ENTITY ns_ai "http://ns.adobe.com/AdobeIllustrator/10.0/">
	<!ENTITY ns_graphs "http://ns.adobe.com/Graphs/1.0/">
	<!ENTITY ns_vars "http://ns.adobe.com/Variables/1.0/">
	<!ENTITY ns_imrep "http://ns.adobe.com/ImageReplacement/1.0/">
	<!ENTITY ns_sfw "http://ns.adobe.com/SaveForWeb/1.0/">
	<!ENTITY ns_custom "http://ns.adobe.com/GenericCustomNamespace/1.0/">
	<!ENTITY ns_adobe_xpath "http://ns.adobe.com/XPath/1.0/">
]>
<svg version="1.1" id="Capa_1" xmlns:x="&ns_extend;" xmlns:i="&ns_ai;" xmlns:graph="&ns_graphs;"
	 xmlns="http://www.w3.org/2000/svg" xmlns:xlink="http://www.w3.org/1999/xlink" x="0px" y="0px" viewBox="0 0 32 32"
	 enable-background="new 0 0 32 32" xml:space="preserve">
<metadata>
	<sfw  xmlns="&ns_sfw;">
		<slices></slices>
		<sliceSourceBounds  height="31.8" width="190.8" y="-31.9" x="0.1" bottomLeftOrigin="true"></sliceSourceBounds>
	</sfw>
</metadata>
<g>
	<path fill="#00CC66" d="M16,31.9c-2.2,0-4.3-0.4-6.3-1.2c-1.9-0.8-3.6-1.9-5-3.4s-2.5-3.1-3.4-5s-1.2-4-1.2-6.3
		c0-2.2,0.4-4.3,1.2-6.2s1.9-3.6,3.4-5s3.1-2.6,5-3.4s4-1.2,6.3-1.2c2.2,0,4.3,0.4,6.2,1.2s3.6,1.9,5,3.4c1.4,1.4,2.6,3.1,3.4,5
		c0.8,1.9,1.2,4,1.2,6.2c0,2.2-0.4,4.3-1.2,6.3c-0.8,1.9-1.9,3.6-3.4,5c-1.4,1.4-3.1,2.5-5,3.4C20.3,31.5,18.2,31.9,16,31.9z
		 M16,29.5c3.7,0,6.9-1.3,9.5-4s4-5.8,4-9.5s-1.3-6.9-4-9.5s-5.8-4-9.5-4s-6.9,1.3-9.5,4s-4,5.8-4,9.5s1.3,6.9,4,9.5
		S12.3,29.5,16,29.5z"/>
	<path fill="#00CC66" d="M19.7,16.5c-0.6-0.7-1.5-1.2-2.6-1.6c-1.3-0.4-2.2-0.8-2.7-1.1c-0.4-0.3-0.6-0.7-0.6-1.3
		c0-0.5,0.2-0.9,0.5-1.2c0.4-0.3,0.9-0.4,1.6-0.4c0.4,0,0.8,0.1,1.1,0.2c0.3,0.1,0.5,0.3,0.7,0.6c0.2,0.2,0.4,0.4,0.7,0.5
		c0.3,0.1,0.6,0.1,0.8,0c0.3-0.1,0.5-0.3,0.6-0.6c0.1-0.3,0.1-0.6-0.1-0.8c-0.3-0.5-0.7-0.9-1.3-1.2C18,9.2,17,9,17,8.9V7.8
		c0-0.3-0.1-0.5-0.3-0.7c-0.4-0.4-1-0.4-1.4,0C15.1,7.3,15,7.5,15,7.8v1.1C14,9,13.2,9.4,12.7,10c-0.6,0.7-0.9,1.5-0.9,2.4
		c0,1,0.3,1.9,0.9,2.6c0.6,0.7,1.5,1.2,2.8,1.6c1.2,0.4,2,0.8,2.5,1.1c0.4,0.3,0.6,0.8,0.6,1.5c0,0.6-0.2,1-0.6,1.4
		c-0.4,0.4-1,0.5-1.8,0.5c-0.5,0-1-0.1-1.5-0.4c-0.4-0.2-0.8-0.6-1.1-1.1c-0.1-0.2-0.3-0.4-0.6-0.5c-0.3-0.1-0.5-0.1-0.8,0
		c-0.3,0.1-0.5,0.3-0.6,0.6c-0.1,0.3-0.1,0.6,0,0.8c0.3,0.7,0.9,1.3,1.4,1.7c0.5,0.4,1,0.7,2,0.9v1.1c0,0.3,0,0.5,0.2,0.7
		c0.2,0.2,0.4,0.3,0.7,0.3c0.3,0,0.6-0.1,0.8-0.3c0.2-0.2,0.3-0.4,0.3-0.7v-1.1c1-0.2,2-0.6,2.6-1.3c0.7-0.7,1-1.6,1-2.7
		C20.6,18.1,20.3,17.2,19.7,16.5z"/>
</g>
</svg>
